G75*
G70*
%OFA0B0*%
%FSLAX24Y24*%
%IPPOS*%
%LPD*%
%AMOC8*
5,1,8,0,0,1.08239X$1,22.5*
%
%ADD10C,0.0600*%
%ADD11OC8,0.0820*%
%ADD12C,0.1497*%
%ADD13R,0.0552X0.0867*%
%ADD14R,0.0867X0.0552*%
%ADD15C,0.0516*%
D10*
X008600Y006840D02*
X008600Y007360D01*
X009600Y007360D02*
X009600Y006840D01*
X010600Y006840D02*
X010600Y007360D01*
X011600Y007360D02*
X011600Y006840D01*
X012600Y006840D02*
X012600Y007360D01*
X013600Y007360D02*
X013600Y006840D01*
X014600Y006840D02*
X014600Y007360D01*
X015600Y007360D02*
X015600Y006840D01*
X016600Y006840D02*
X016600Y007360D01*
X017600Y007360D02*
X017600Y006840D01*
X018600Y006840D02*
X018600Y007360D01*
X018600Y010840D02*
X018600Y011360D01*
X017600Y011360D02*
X017600Y010840D01*
X016600Y010840D02*
X016600Y011360D01*
X015600Y011360D02*
X015600Y010840D01*
X014600Y010840D02*
X014600Y011360D01*
X013600Y011360D02*
X013600Y010840D01*
X012600Y010840D02*
X012600Y011360D01*
X011600Y011360D02*
X011600Y010840D01*
X010600Y010840D02*
X010600Y011360D01*
X009600Y011360D02*
X009600Y010840D01*
X008600Y010840D02*
X008600Y011360D01*
D11*
X011600Y003600D03*
X012600Y003600D03*
X013600Y003600D03*
X014600Y003600D03*
X015600Y003600D03*
X015600Y002600D03*
X014600Y002600D03*
X013600Y002600D03*
X012600Y002600D03*
X011600Y002600D03*
D12*
X002100Y005100D03*
X002100Y013100D03*
X024600Y013100D03*
X024600Y005100D03*
D13*
X007230Y005100D03*
X005970Y005100D03*
D14*
X009600Y011970D03*
X009600Y013230D03*
D15*
X002100Y001100D03*
X006600Y004100D03*
X009600Y005100D03*
X007600Y001100D03*
X013600Y001100D03*
X020100Y001100D03*
X024600Y001100D03*
X020100Y004100D03*
X017600Y005100D03*
X020600Y009100D03*
X024600Y009100D03*
X022100Y014100D03*
X017600Y014100D03*
X013600Y013100D03*
X009600Y014100D03*
X004600Y014100D03*
X006100Y009100D03*
X002100Y009100D03*
X013600Y009100D03*
M02*
