G75*
G70*
%OFA0B0*%
%FSLAX24Y24*%
%IPPOS*%
%LPD*%
%AMOC8*
5,1,8,0,0,1.08239X$1,22.5*
%
%ADD10C,0.0060*%
%ADD11C,0.0040*%
%ADD12C,0.0030*%
%ADD13C,0.0080*%
%ADD14C,0.0059*%
D10*
X013412Y012023D02*
X013519Y011916D01*
X013626Y011916D01*
X013733Y012130D02*
X013412Y012130D01*
X013412Y012023D02*
X013412Y012557D01*
X013839Y012557D02*
X013839Y012237D01*
X013733Y012130D01*
X014057Y012237D02*
X014057Y012450D01*
X014164Y012557D01*
X014484Y012557D01*
X014484Y012771D02*
X014484Y012130D01*
X014164Y012130D01*
X014057Y012237D01*
X013804Y012916D02*
X013697Y012916D01*
X013590Y013023D01*
X013590Y013557D01*
X013910Y013557D01*
X014017Y013450D01*
X014017Y013237D01*
X013910Y013130D01*
X013590Y013130D01*
X013373Y013130D02*
X013159Y013130D01*
X013266Y013130D02*
X013266Y013557D01*
X013373Y013557D01*
X013266Y013771D02*
X013266Y013877D01*
X012943Y013557D02*
X012623Y013557D01*
X012516Y013450D01*
X012516Y013130D01*
X012298Y013237D02*
X012192Y013130D01*
X011871Y013130D01*
X011871Y013023D02*
X011871Y013557D01*
X012192Y013557D01*
X012298Y013450D01*
X012298Y013237D01*
X012085Y012916D02*
X011978Y012916D01*
X011871Y013023D01*
X011654Y013130D02*
X011333Y013130D01*
X011227Y013237D01*
X011227Y013344D01*
X011333Y013450D01*
X011654Y013450D01*
X011333Y013450D02*
X011227Y013557D01*
X011227Y013664D01*
X011333Y013771D01*
X011654Y013771D01*
X011654Y013130D01*
X011009Y013237D02*
X011009Y013450D01*
X010902Y013557D01*
X010689Y013557D01*
X010582Y013450D01*
X010582Y013237D01*
X010689Y013130D01*
X010902Y013130D01*
X011009Y013237D01*
X011371Y012771D02*
X011264Y012664D01*
X011264Y012450D01*
X011371Y012344D01*
X011371Y012557D01*
X011584Y012557D01*
X011584Y012344D01*
X011371Y012344D01*
X011264Y012237D02*
X011371Y012130D01*
X011584Y012130D01*
X011691Y012237D01*
X011691Y012664D01*
X011584Y012771D01*
X011371Y012771D01*
X011046Y012450D02*
X011046Y012237D01*
X010940Y012130D01*
X010619Y012130D01*
X010402Y012237D02*
X010402Y012664D01*
X010295Y012771D01*
X010081Y012771D01*
X009975Y012664D01*
X009975Y012450D01*
X010081Y012344D01*
X010081Y012557D01*
X010295Y012557D01*
X010295Y012344D01*
X010081Y012344D01*
X009975Y012237D02*
X010081Y012130D01*
X010295Y012130D01*
X010402Y012237D01*
X010619Y012557D02*
X010940Y012557D01*
X011046Y012450D01*
X011907Y012130D02*
X012121Y012130D01*
X012014Y012130D02*
X012014Y012771D01*
X012121Y012771D01*
X012337Y012771D02*
X012443Y012664D01*
X012443Y012130D01*
X012550Y012450D02*
X012337Y012450D01*
X012943Y013130D02*
X012943Y013557D01*
X014235Y013450D02*
X014235Y013130D01*
X014555Y013130D01*
X014662Y013237D01*
X014555Y013344D01*
X014235Y013344D01*
X014235Y013450D02*
X014341Y013557D01*
X014555Y013557D01*
X014879Y013450D02*
X014879Y013130D01*
X015093Y013130D02*
X015093Y013450D01*
X014986Y013557D01*
X014879Y013450D01*
X015093Y013450D02*
X015199Y013557D01*
X015306Y013557D01*
X015306Y013130D01*
X015522Y013130D02*
X015736Y013130D01*
X015629Y013130D02*
X015629Y013557D01*
X015736Y013557D01*
X015629Y013771D02*
X015629Y013877D01*
X016703Y013877D02*
X016703Y013771D01*
X017028Y013664D02*
X017028Y013450D01*
X017134Y013344D01*
X017455Y013344D01*
X017455Y013130D02*
X017455Y013771D01*
X017134Y013771D01*
X017028Y013664D01*
X016810Y013557D02*
X016703Y013557D01*
X016703Y013130D01*
X016597Y013130D02*
X016810Y013130D01*
X016380Y013023D02*
X015953Y013023D01*
X015346Y012771D02*
X015346Y012130D01*
X015666Y012130D01*
X015773Y012237D01*
X015773Y012450D01*
X015666Y012557D01*
X015346Y012557D01*
X015991Y012450D02*
X015991Y012344D01*
X016418Y012344D01*
X016418Y012450D02*
X016418Y012237D01*
X016311Y012130D01*
X016097Y012130D01*
X015991Y012450D02*
X016097Y012557D01*
X016311Y012557D01*
X016418Y012450D01*
X016635Y012450D02*
X016742Y012557D01*
X017062Y012557D01*
X017062Y012130D01*
X017280Y012130D02*
X017600Y012130D01*
X017707Y012237D01*
X017707Y012450D01*
X017600Y012557D01*
X017280Y012557D01*
X017280Y012023D01*
X017386Y011916D01*
X017493Y011916D01*
X017923Y012130D02*
X018136Y012130D01*
X018030Y012130D02*
X018030Y012557D01*
X018136Y012557D01*
X018354Y012557D02*
X018674Y012557D01*
X018781Y012450D01*
X018674Y012344D01*
X018461Y012344D01*
X018354Y012237D01*
X018461Y012130D01*
X018781Y012130D01*
X018998Y012344D02*
X019425Y012344D01*
X019425Y012450D02*
X019425Y012237D01*
X019319Y012130D01*
X019105Y012130D01*
X018998Y012344D02*
X018998Y012450D01*
X019105Y012557D01*
X019319Y012557D01*
X019425Y012450D01*
X019643Y012557D02*
X019963Y012557D01*
X020070Y012450D01*
X020070Y012237D01*
X019963Y012130D01*
X019643Y012130D01*
X019643Y012771D01*
X019606Y013130D02*
X019926Y013130D01*
X020033Y013237D01*
X019926Y013344D01*
X019606Y013344D01*
X019606Y013450D02*
X019606Y013130D01*
X019388Y013130D02*
X019388Y013557D01*
X019282Y013557D01*
X019175Y013450D01*
X019068Y013557D01*
X018961Y013450D01*
X018961Y013130D01*
X019175Y013130D02*
X019175Y013450D01*
X019606Y013450D02*
X019713Y013557D01*
X019926Y013557D01*
X020250Y013557D02*
X020356Y013557D01*
X020570Y013344D01*
X020570Y013557D02*
X020570Y013130D01*
X018744Y013237D02*
X018637Y013344D01*
X018317Y013344D01*
X018317Y013450D02*
X018317Y013130D01*
X018637Y013130D01*
X018744Y013237D01*
X018637Y013557D02*
X018424Y013557D01*
X018317Y013450D01*
X018099Y013557D02*
X017779Y013557D01*
X017672Y013450D01*
X017672Y013130D01*
X018099Y013130D02*
X018099Y013557D01*
X018030Y012877D02*
X018030Y012771D01*
X016635Y012450D02*
X016635Y012130D01*
X010365Y013237D02*
X010258Y013344D01*
X009938Y013344D01*
X009938Y013450D02*
X009938Y013130D01*
X010258Y013130D01*
X010365Y013237D01*
X010258Y013557D02*
X010044Y013557D01*
X009938Y013450D01*
X009720Y013344D02*
X009507Y013557D01*
X009400Y013557D01*
X009183Y013450D02*
X009076Y013557D01*
X008756Y013557D01*
X008756Y013771D02*
X008756Y013130D01*
X009076Y013130D01*
X009183Y013237D01*
X009183Y013450D01*
X009720Y013557D02*
X009720Y013130D01*
X009113Y012664D02*
X009006Y012771D01*
X008792Y012771D01*
X008686Y012664D01*
X008686Y012557D01*
X009113Y012130D01*
X008686Y012130D01*
X008468Y012237D02*
X008041Y012664D01*
X008041Y012237D01*
X008148Y012130D01*
X008361Y012130D01*
X008468Y012237D01*
X008468Y012664D01*
X008361Y012771D01*
X008148Y012771D01*
X008041Y012664D01*
X007824Y012557D02*
X007610Y012771D01*
X007610Y012130D01*
X007397Y012130D02*
X007824Y012130D01*
X007179Y012450D02*
X006752Y012450D01*
X006859Y012771D02*
X007179Y012450D01*
X006859Y012130D02*
X006859Y012771D01*
X006929Y013130D02*
X006822Y013237D01*
X006929Y013130D02*
X007143Y013130D01*
X007249Y013237D01*
X007249Y013664D01*
X007143Y013771D01*
X006929Y013771D01*
X006822Y013664D01*
X006605Y013771D02*
X006284Y013771D01*
X006178Y013664D01*
X006178Y013237D01*
X006284Y013130D01*
X006605Y013130D01*
X006605Y013771D01*
X007467Y013664D02*
X007574Y013771D01*
X007787Y013771D01*
X007894Y013664D01*
X007894Y013237D01*
X007787Y013130D01*
X007574Y013130D01*
X007467Y013237D01*
X008111Y013023D02*
X008538Y013023D01*
D11*
X005040Y000620D02*
X004734Y000620D01*
X005040Y000620D02*
X004734Y000927D01*
X004734Y001004D01*
X004810Y001080D01*
X004964Y001080D01*
X005040Y001004D01*
X005194Y001080D02*
X005194Y000773D01*
X005347Y000620D01*
X005501Y000773D01*
X005501Y001080D01*
X006115Y000850D02*
X006115Y000773D01*
X006422Y000773D01*
X006422Y000697D02*
X006422Y000850D01*
X006345Y000927D01*
X006191Y000927D01*
X006115Y000850D01*
X006191Y000620D02*
X006345Y000620D01*
X006422Y000697D01*
X006575Y000697D02*
X006652Y000773D01*
X006805Y000773D01*
X006882Y000850D01*
X006805Y000927D01*
X006575Y000927D01*
X006575Y000697D02*
X006652Y000620D01*
X006882Y000620D01*
X007035Y000620D02*
X007035Y000850D01*
X007112Y000927D01*
X007342Y000927D01*
X007342Y000620D01*
X007496Y000773D02*
X007803Y000773D01*
X007803Y000697D02*
X007803Y000850D01*
X007726Y000927D01*
X007573Y000927D01*
X007496Y000850D01*
X007496Y000773D01*
X007573Y000620D02*
X007726Y000620D01*
X007803Y000697D01*
X007956Y000620D02*
X008186Y000620D01*
X008263Y000697D01*
X008263Y000850D01*
X008186Y000927D01*
X007956Y000927D01*
X008493Y000927D02*
X008493Y000620D01*
X008417Y000620D02*
X008570Y000620D01*
X008724Y000620D02*
X009031Y000620D01*
X009031Y001080D01*
X008570Y000927D02*
X008493Y000927D01*
X008493Y001080D02*
X008493Y001157D01*
X009644Y000927D02*
X009875Y000927D01*
X009951Y000850D01*
X009951Y000697D01*
X009875Y000620D01*
X009644Y000620D01*
X010105Y000620D02*
X010258Y000620D01*
X010181Y000620D02*
X010181Y000927D01*
X010258Y000927D01*
X010181Y001080D02*
X010181Y001157D01*
X010488Y001080D02*
X010488Y000620D01*
X010412Y000620D02*
X010565Y000620D01*
X010719Y000697D02*
X010719Y000850D01*
X010795Y000927D01*
X011026Y000927D01*
X011179Y000927D02*
X011179Y000620D01*
X011409Y000620D01*
X011486Y000697D01*
X011486Y000927D01*
X011639Y001004D02*
X011639Y000850D01*
X011716Y000773D01*
X011946Y000773D01*
X011946Y000620D02*
X011946Y001080D01*
X011716Y001080D01*
X011639Y001004D01*
X011026Y001080D02*
X011026Y000620D01*
X010795Y000620D01*
X010719Y000697D01*
X010565Y001080D02*
X010488Y001080D01*
X012560Y000620D02*
X012867Y000620D01*
X012867Y001080D01*
X013021Y001004D02*
X013021Y000850D01*
X013097Y000773D01*
X013327Y000773D01*
X013327Y000620D02*
X013327Y001080D01*
X013097Y001080D01*
X013021Y001004D01*
X013481Y001004D02*
X013558Y001080D01*
X013711Y001080D01*
X013788Y001004D01*
X013788Y000697D01*
X013711Y000620D01*
X013558Y000620D01*
X013481Y000697D01*
X013481Y000850D01*
X013634Y000850D01*
X014402Y000850D02*
X014402Y000773D01*
X014709Y000773D01*
X014709Y000697D02*
X014709Y000850D01*
X014632Y000927D01*
X014478Y000927D01*
X014402Y000850D01*
X014478Y000620D02*
X014632Y000620D01*
X014709Y000697D01*
X014862Y000620D02*
X014862Y000850D01*
X014939Y000927D01*
X015092Y000927D01*
X015169Y000850D01*
X015323Y000927D02*
X015476Y000927D01*
X015399Y001004D02*
X015399Y000697D01*
X015323Y000620D01*
X015169Y000620D02*
X015169Y001080D01*
X016090Y000927D02*
X016167Y000927D01*
X016320Y000773D01*
X016320Y000620D02*
X016320Y000927D01*
X016474Y000850D02*
X016474Y000773D01*
X016780Y000773D01*
X016780Y000697D02*
X016780Y000850D01*
X016704Y000927D01*
X016550Y000927D01*
X016474Y000850D01*
X016550Y000620D02*
X016704Y000620D01*
X016780Y000697D01*
X016934Y000620D02*
X017164Y000620D01*
X017241Y000697D01*
X017241Y000850D01*
X017164Y000927D01*
X016934Y000927D01*
X016934Y001080D02*
X016934Y000620D01*
X017394Y000620D02*
X017394Y000850D01*
X017471Y000927D01*
X017701Y000927D01*
X017701Y000620D01*
X017855Y000620D02*
X017855Y000927D01*
X018162Y000927D02*
X018162Y000697D01*
X018085Y000620D01*
X017855Y000620D01*
X018775Y000620D02*
X019006Y000620D01*
X019082Y000697D01*
X019082Y000850D01*
X019006Y000927D01*
X018775Y000927D01*
X018775Y001080D02*
X018775Y000620D01*
X019236Y000773D02*
X019543Y000773D01*
X019543Y000697D02*
X019543Y000850D01*
X019466Y000927D01*
X019313Y000927D01*
X019236Y000850D01*
X019236Y000773D01*
X019313Y000620D02*
X019466Y000620D01*
X019543Y000697D01*
X019696Y000697D02*
X019773Y000773D01*
X019926Y000773D01*
X020003Y000850D01*
X019926Y000927D01*
X019696Y000927D01*
X019696Y000697D02*
X019773Y000620D01*
X020003Y000620D01*
X020157Y000620D02*
X020157Y000850D01*
X020233Y000927D01*
X020387Y000927D01*
X020387Y000773D02*
X020157Y000773D01*
X020157Y000620D02*
X020387Y000620D01*
X020464Y000697D01*
X020387Y000773D01*
X020617Y000773D02*
X020924Y000773D01*
X020924Y000697D02*
X020924Y000850D01*
X020847Y000927D01*
X020694Y000927D01*
X020617Y000850D01*
X020617Y000773D01*
X020694Y000620D02*
X020847Y000620D01*
X020924Y000697D01*
X021077Y000620D02*
X021231Y000620D01*
X021154Y000620D02*
X021154Y001080D01*
X021231Y001080D01*
X021461Y000927D02*
X021384Y000850D01*
X021384Y000773D01*
X021691Y000773D01*
X021691Y000697D02*
X021691Y000850D01*
X021615Y000927D01*
X021461Y000927D01*
X021845Y000927D02*
X021921Y000927D01*
X022075Y000773D01*
X022075Y000620D02*
X022075Y000927D01*
X021691Y000697D02*
X021615Y000620D01*
X021461Y000620D01*
D12*
X013463Y008492D02*
X013401Y008492D01*
X013339Y008553D01*
X013339Y008862D01*
X013218Y008985D02*
X013033Y008985D01*
X012971Y008924D01*
X012971Y008800D01*
X013033Y008738D01*
X013218Y008738D01*
X013218Y008615D02*
X013218Y008985D01*
X013586Y008862D02*
X013586Y008677D01*
X013524Y008615D01*
X013339Y008615D01*
X012849Y008615D02*
X012849Y008862D01*
X012726Y008862D02*
X012849Y008738D01*
X012726Y008862D02*
X012664Y008862D01*
X012542Y008862D02*
X012481Y008862D01*
X012481Y008615D01*
X012542Y008615D02*
X012419Y008615D01*
X012297Y008615D02*
X012050Y008615D01*
X011929Y008677D02*
X011929Y008800D01*
X011867Y008862D01*
X011743Y008862D01*
X011682Y008800D01*
X011682Y008738D01*
X011929Y008738D01*
X011929Y008677D02*
X011867Y008615D01*
X011743Y008615D01*
X012050Y008862D02*
X012297Y008615D01*
X012297Y008862D02*
X012050Y008862D01*
X012481Y008985D02*
X012481Y009047D01*
X012513Y009215D02*
X012698Y009215D01*
X012698Y009092D02*
X012698Y009462D01*
X012513Y009462D01*
X012451Y009400D01*
X012451Y009277D01*
X012513Y009215D01*
X012330Y009215D02*
X012330Y009462D01*
X012330Y009338D02*
X012206Y009462D01*
X012144Y009462D01*
X012023Y009400D02*
X012023Y009277D01*
X011961Y009215D01*
X011837Y009215D01*
X011776Y009277D01*
X011776Y009400D01*
X011837Y009462D01*
X011961Y009462D01*
X012023Y009400D01*
X011654Y009092D02*
X011593Y009092D01*
X011531Y009153D01*
X011531Y009462D01*
X011531Y009585D02*
X011531Y009647D01*
X011347Y009462D02*
X011224Y009462D01*
X011162Y009400D01*
X011162Y009338D01*
X011409Y009338D01*
X011409Y009277D02*
X011409Y009400D01*
X011347Y009462D01*
X011409Y009277D02*
X011347Y009215D01*
X011224Y009215D01*
X011040Y009277D02*
X011040Y009400D01*
X010979Y009462D01*
X010794Y009462D01*
X010672Y009462D02*
X010549Y009462D01*
X010610Y009524D02*
X010610Y009277D01*
X010549Y009215D01*
X010427Y009215D02*
X010180Y009585D01*
X010058Y009462D02*
X009935Y009585D01*
X009935Y009215D01*
X010058Y009215D02*
X009811Y009215D01*
X009690Y009215D02*
X009443Y009462D01*
X009443Y009524D01*
X009505Y009585D01*
X009628Y009585D01*
X009690Y009524D01*
X009690Y009215D02*
X009443Y009215D01*
X009322Y009215D02*
X009322Y009277D01*
X009075Y009524D01*
X009075Y009585D01*
X009322Y009585D01*
X008953Y009524D02*
X008953Y009462D01*
X008892Y009400D01*
X008706Y009400D01*
X008706Y009277D02*
X008706Y009524D01*
X008768Y009585D01*
X008892Y009585D01*
X008953Y009524D01*
X008953Y009277D02*
X008892Y009215D01*
X008768Y009215D01*
X008706Y009277D01*
X009840Y008800D02*
X010087Y008800D01*
X009902Y008985D01*
X009902Y008615D01*
X010208Y008615D02*
X010455Y008615D01*
X010332Y008615D02*
X010332Y008985D01*
X010455Y008862D01*
X010577Y008924D02*
X010577Y008677D01*
X010638Y008615D01*
X010762Y008615D01*
X010824Y008677D01*
X010577Y008924D01*
X010638Y008985D01*
X010762Y008985D01*
X010824Y008924D01*
X010824Y008677D01*
X010945Y008615D02*
X011192Y008615D01*
X010945Y008862D01*
X010945Y008924D01*
X011007Y008985D01*
X011130Y008985D01*
X011192Y008924D01*
X010979Y009215D02*
X010794Y009215D01*
X010979Y009215D02*
X011040Y009277D01*
X012819Y009585D02*
X013066Y009215D01*
X013188Y009277D02*
X013188Y009400D01*
X013249Y009462D01*
X013373Y009462D01*
X013434Y009400D01*
X013434Y009277D01*
X013373Y009215D01*
X013249Y009215D01*
X013188Y009277D01*
X013557Y009215D02*
X013680Y009215D01*
X013618Y009215D02*
X013618Y009462D01*
X013680Y009462D01*
X013618Y009585D02*
X013618Y009647D01*
X013986Y009462D02*
X013986Y009153D01*
X014047Y009092D01*
X014109Y009092D01*
X014076Y008985D02*
X014076Y008615D01*
X014261Y008615D01*
X014323Y008677D01*
X014323Y008800D01*
X014261Y008862D01*
X014076Y008862D01*
X013893Y008862D02*
X013769Y008862D01*
X013707Y008800D01*
X013707Y008615D01*
X013893Y008615D01*
X013954Y008677D01*
X013893Y008738D01*
X013707Y008738D01*
X014444Y008738D02*
X014629Y008738D01*
X014691Y008677D01*
X014629Y008615D01*
X014444Y008615D01*
X014444Y008800D01*
X014506Y008862D01*
X014629Y008862D01*
X014813Y008862D02*
X014998Y008738D01*
X014813Y008615D01*
X014998Y008615D02*
X014998Y008985D01*
X015119Y008862D02*
X015304Y008862D01*
X015366Y008800D01*
X015366Y008677D01*
X015304Y008615D01*
X015119Y008615D01*
X015488Y008615D02*
X015673Y008615D01*
X015735Y008677D01*
X015673Y008738D01*
X015488Y008738D01*
X015488Y008800D02*
X015488Y008615D01*
X015488Y008800D02*
X015549Y008862D01*
X015673Y008862D01*
X015856Y008800D02*
X016103Y008800D01*
X016224Y008800D02*
X016224Y008738D01*
X016471Y008738D01*
X016471Y008677D02*
X016471Y008800D01*
X016409Y008862D01*
X016286Y008862D01*
X016224Y008800D01*
X016286Y008615D02*
X016409Y008615D01*
X016471Y008677D01*
X016593Y008615D02*
X016593Y008800D01*
X016654Y008862D01*
X016778Y008862D01*
X016839Y008800D01*
X016962Y008862D02*
X017085Y008862D01*
X017023Y008924D02*
X017023Y008677D01*
X016962Y008615D01*
X016839Y008615D02*
X016839Y008985D01*
X016749Y009215D02*
X016749Y009585D01*
X016871Y009585D02*
X017118Y009215D01*
X017486Y009215D02*
X017239Y009585D01*
X017608Y009462D02*
X017608Y009400D01*
X017670Y009400D01*
X017670Y009462D01*
X017608Y009462D01*
X017608Y009277D02*
X017608Y009215D01*
X017670Y009215D01*
X017670Y009277D01*
X017608Y009277D01*
X017792Y009277D02*
X017792Y009400D01*
X017853Y009462D01*
X018038Y009462D01*
X018038Y009092D01*
X018038Y009215D02*
X017853Y009215D01*
X017792Y009277D01*
X018161Y009215D02*
X018222Y009277D01*
X018222Y009524D01*
X018161Y009462D02*
X018284Y009462D01*
X018406Y009462D02*
X018529Y009462D01*
X018468Y009524D02*
X018468Y009277D01*
X018406Y009215D01*
X018651Y009215D02*
X018651Y009400D01*
X018713Y009462D01*
X018836Y009462D01*
X018898Y009400D01*
X018898Y009585D02*
X018898Y009215D01*
X016749Y009400D02*
X016688Y009462D01*
X016564Y009462D01*
X016502Y009400D01*
X016502Y009215D01*
X016381Y009277D02*
X016319Y009338D01*
X016134Y009338D01*
X016134Y009400D02*
X016134Y009215D01*
X016319Y009215D01*
X016381Y009277D01*
X016319Y009462D02*
X016196Y009462D01*
X016134Y009400D01*
X016013Y009400D02*
X016013Y009277D01*
X015951Y009215D01*
X015766Y009215D01*
X015644Y009215D02*
X015644Y009585D01*
X015766Y009462D02*
X015951Y009462D01*
X016013Y009400D01*
X015644Y009338D02*
X015459Y009462D01*
X015276Y009462D02*
X015152Y009462D01*
X015091Y009400D01*
X015091Y009215D01*
X015276Y009215D01*
X015337Y009277D01*
X015276Y009338D01*
X015091Y009338D01*
X014969Y009277D02*
X014969Y009400D01*
X014907Y009462D01*
X014722Y009462D01*
X014722Y009585D02*
X014722Y009215D01*
X014907Y009215D01*
X014969Y009277D01*
X015459Y009215D02*
X015644Y009338D01*
X015856Y008985D02*
X015856Y008615D01*
X016103Y008615D02*
X016103Y008985D01*
X014601Y009277D02*
X014539Y009338D01*
X014354Y009338D01*
X014354Y009400D02*
X014354Y009215D01*
X014539Y009215D01*
X014601Y009277D01*
X014539Y009462D02*
X014416Y009462D01*
X014354Y009400D01*
X014232Y009462D02*
X014232Y009277D01*
X014171Y009215D01*
X013986Y009215D01*
X013864Y009215D02*
X013802Y009215D01*
X013802Y009277D01*
X013864Y009277D01*
X013864Y009215D01*
D13*
X009612Y005730D02*
X009612Y004470D01*
X009624Y004872D02*
X009624Y001368D01*
X009624Y001328D02*
X017576Y001328D01*
X017576Y004872D01*
X014466Y004872D01*
X014466Y004281D01*
X012734Y004281D01*
X012734Y004872D01*
X009624Y004872D01*
X008588Y004470D02*
X008588Y005730D01*
X011350Y004193D02*
X011850Y004193D01*
X012734Y004872D02*
X014466Y004872D01*
D14*
X007968Y002768D02*
X007968Y002432D01*
X007523Y002387D01*
X007494Y002286D01*
X007454Y002190D01*
X007403Y002098D01*
X007686Y001752D01*
X007448Y001514D01*
X007102Y001797D01*
X007034Y001758D01*
X006963Y001725D01*
X006765Y002202D01*
X006829Y002235D01*
X006887Y002279D01*
X006937Y002332D01*
X006977Y002392D01*
X007006Y002458D01*
X007025Y002528D01*
X007031Y002600D01*
X007023Y002680D01*
X007001Y002758D01*
X006964Y002830D01*
X006915Y002894D01*
X006854Y002948D01*
X006785Y002989D01*
X006709Y003017D01*
X006629Y003030D01*
X006549Y003028D01*
X006470Y003010D01*
X006395Y002979D01*
X006328Y002934D01*
X006271Y002877D01*
X006225Y002811D01*
X006192Y002737D01*
X006173Y002659D01*
X006170Y002578D01*
X006182Y002498D01*
X006208Y002422D01*
X006248Y002352D01*
X006301Y002290D01*
X006364Y002240D01*
X006435Y002202D01*
X006237Y001725D01*
X006166Y001758D01*
X006098Y001797D01*
X005752Y001514D01*
X005514Y001752D01*
X005797Y002098D01*
X005746Y002190D01*
X005706Y002286D01*
X005677Y002387D01*
X005232Y002432D01*
X005232Y002768D01*
X005677Y002813D01*
X005706Y002914D01*
X005746Y003010D01*
X005797Y003102D01*
X005514Y003448D01*
X005752Y003686D01*
X006098Y003403D01*
X006190Y003454D01*
X006286Y003494D01*
X006387Y003523D01*
X006432Y003968D01*
X006768Y003968D01*
X006813Y003523D01*
X006914Y003494D01*
X007010Y003454D01*
X007102Y003403D01*
X007448Y003686D01*
X007686Y003448D01*
X007403Y003102D01*
X007454Y003010D01*
X007494Y002914D01*
X007523Y002813D01*
X007968Y002768D01*
X007968Y002748D02*
X007004Y002748D01*
X007020Y002690D02*
X007968Y002690D01*
X007968Y002632D02*
X007028Y002632D01*
X007029Y002575D02*
X007968Y002575D01*
X007968Y002517D02*
X007022Y002517D01*
X007007Y002460D02*
X007968Y002460D01*
X007674Y002402D02*
X006982Y002402D01*
X006945Y002345D02*
X007511Y002345D01*
X007494Y002287D02*
X006895Y002287D01*
X006818Y002230D02*
X007470Y002230D01*
X007444Y002172D02*
X006777Y002172D01*
X006801Y002114D02*
X007412Y002114D01*
X007437Y002057D02*
X006825Y002057D01*
X006849Y001999D02*
X007484Y001999D01*
X007531Y001942D02*
X006873Y001942D01*
X006897Y001884D02*
X007578Y001884D01*
X007625Y001827D02*
X006920Y001827D01*
X006944Y001769D02*
X007054Y001769D01*
X007136Y001769D02*
X007672Y001769D01*
X007646Y001712D02*
X007206Y001712D01*
X007277Y001654D02*
X007588Y001654D01*
X007531Y001596D02*
X007347Y001596D01*
X007418Y001539D02*
X007473Y001539D01*
X006351Y001999D02*
X005716Y001999D01*
X005669Y001942D02*
X006327Y001942D01*
X006303Y001884D02*
X005622Y001884D01*
X005575Y001827D02*
X006280Y001827D01*
X006256Y001769D02*
X006146Y001769D01*
X006064Y001769D02*
X005528Y001769D01*
X005554Y001712D02*
X005994Y001712D01*
X005923Y001654D02*
X005612Y001654D01*
X005669Y001596D02*
X005853Y001596D01*
X005782Y001539D02*
X005727Y001539D01*
X005763Y002057D02*
X006375Y002057D01*
X006399Y002114D02*
X005788Y002114D01*
X005756Y002172D02*
X006423Y002172D01*
X006383Y002230D02*
X005730Y002230D01*
X005706Y002287D02*
X006305Y002287D01*
X006254Y002345D02*
X005689Y002345D01*
X005526Y002402D02*
X006219Y002402D01*
X006195Y002460D02*
X005232Y002460D01*
X005232Y002517D02*
X006179Y002517D01*
X006170Y002575D02*
X005232Y002575D01*
X005232Y002632D02*
X006172Y002632D01*
X006181Y002690D02*
X005232Y002690D01*
X005232Y002748D02*
X006196Y002748D01*
X006222Y002805D02*
X005598Y002805D01*
X005691Y002863D02*
X006260Y002863D01*
X006314Y002920D02*
X005709Y002920D01*
X005733Y002978D02*
X006394Y002978D01*
X006804Y002978D02*
X007467Y002978D01*
X007491Y002920D02*
X006885Y002920D01*
X006939Y002863D02*
X007509Y002863D01*
X007602Y002805D02*
X006977Y002805D01*
X007440Y003035D02*
X005760Y003035D01*
X005792Y003093D02*
X007408Y003093D01*
X007443Y003150D02*
X005757Y003150D01*
X005710Y003208D02*
X007490Y003208D01*
X007537Y003266D02*
X005663Y003266D01*
X005616Y003323D02*
X007584Y003323D01*
X007631Y003381D02*
X005569Y003381D01*
X005522Y003438D02*
X006055Y003438D01*
X005985Y003496D02*
X005562Y003496D01*
X005619Y003553D02*
X005914Y003553D01*
X005844Y003611D02*
X005677Y003611D01*
X005734Y003668D02*
X005773Y003668D01*
X006161Y003438D02*
X007039Y003438D01*
X007145Y003438D02*
X007678Y003438D01*
X007638Y003496D02*
X007215Y003496D01*
X007286Y003553D02*
X007581Y003553D01*
X007523Y003611D02*
X007356Y003611D01*
X007427Y003668D02*
X007466Y003668D01*
X006907Y003496D02*
X006293Y003496D01*
X006390Y003553D02*
X006810Y003553D01*
X006804Y003611D02*
X006396Y003611D01*
X006402Y003668D02*
X006798Y003668D01*
X006792Y003726D02*
X006408Y003726D01*
X006413Y003784D02*
X006787Y003784D01*
X006781Y003841D02*
X006419Y003841D01*
X006425Y003899D02*
X006775Y003899D01*
X006769Y003956D02*
X006431Y003956D01*
M02*
