G75*
G70*
%OFA0B0*%
%FSLAX24Y24*%
%IPPOS*%
%LPD*%
%AMOC8*
5,1,8,0,0,1.08239X$1,22.5*
%
%ADD10C,0.0160*%
D10*
X008100Y006600D02*
X006100Y008600D01*
X006100Y009100D02*
X007100Y009100D01*
X006100Y009600D02*
X007100Y010600D01*
X005600Y009600D02*
X005600Y019100D01*
X004408Y018769D02*
X004408Y019690D01*
X004101Y019997D01*
X003180Y019997D01*
X003180Y020611D02*
X005022Y020611D01*
X005022Y021531D01*
X004715Y021838D01*
X004101Y021838D01*
X003794Y021531D01*
X003794Y020611D01*
X003180Y018769D02*
X004408Y018769D01*
X004101Y018155D02*
X003180Y018155D01*
X003180Y017234D01*
X003487Y016928D01*
X003794Y017234D01*
X003794Y018155D01*
X004101Y018155D02*
X004408Y017848D01*
X004408Y017234D01*
X004101Y016314D02*
X003180Y016314D01*
X003180Y015700D02*
X004101Y015700D01*
X004408Y016007D01*
X004101Y016314D01*
X004101Y015700D02*
X004408Y015393D01*
X004408Y015086D01*
X003180Y015086D01*
X003180Y014472D02*
X003180Y013551D01*
X003487Y013244D01*
X003794Y013551D01*
X003794Y014472D01*
X004101Y014472D02*
X003180Y014472D01*
X004101Y014472D02*
X004408Y014165D01*
X004408Y013551D01*
X004408Y012631D02*
X004408Y012324D01*
X003794Y011710D01*
X003180Y011710D02*
X004408Y011710D01*
X004100Y010600D02*
X005100Y009600D01*
X005100Y009100D02*
X004100Y009100D01*
X005100Y008600D02*
X004100Y007600D01*
X005600Y008100D02*
X005600Y008600D01*
X005100Y009100D02*
X005102Y009144D01*
X005108Y009188D01*
X005118Y009231D01*
X005131Y009273D01*
X005148Y009314D01*
X005169Y009353D01*
X005193Y009390D01*
X005220Y009425D01*
X005250Y009457D01*
X005283Y009487D01*
X005319Y009513D01*
X005356Y009537D01*
X005396Y009556D01*
X005437Y009573D01*
X005480Y009585D01*
X005523Y009594D01*
X005567Y009599D01*
X005611Y009600D01*
X005655Y009597D01*
X005699Y009590D01*
X005742Y009579D01*
X005784Y009565D01*
X005824Y009547D01*
X005863Y009525D01*
X005899Y009501D01*
X005933Y009473D01*
X005965Y009442D01*
X005994Y009408D01*
X006020Y009372D01*
X006042Y009334D01*
X006061Y009294D01*
X006076Y009252D01*
X006088Y009210D01*
X006096Y009166D01*
X006100Y009122D01*
X006100Y009078D01*
X006096Y009034D01*
X006088Y008990D01*
X006076Y008948D01*
X006061Y008906D01*
X006042Y008866D01*
X006020Y008828D01*
X005994Y008792D01*
X005965Y008758D01*
X005933Y008727D01*
X005899Y008699D01*
X005863Y008675D01*
X005824Y008653D01*
X005784Y008635D01*
X005742Y008621D01*
X005699Y008610D01*
X005655Y008603D01*
X005611Y008600D01*
X005567Y008601D01*
X005523Y008606D01*
X005480Y008615D01*
X005437Y008627D01*
X005396Y008644D01*
X005356Y008663D01*
X005319Y008687D01*
X005283Y008713D01*
X005250Y008743D01*
X005220Y008775D01*
X005193Y008810D01*
X005169Y008847D01*
X005148Y008886D01*
X005131Y008927D01*
X005118Y008969D01*
X005108Y009012D01*
X005102Y009056D01*
X005100Y009100D01*
X004408Y022452D02*
X004408Y022759D01*
X003180Y022759D01*
X003180Y022452D02*
X003180Y023066D01*
X005022Y022759D02*
X005329Y022759D01*
M02*
