G75*
G70*
%OFA0B0*%
%FSLAX24Y24*%
%IPPOS*%
%LPD*%
%AMOC8*
5,1,8,0,0,1.08239X$1,22.5*
%
%ADD10C,0.0060*%
%ADD11C,0.0040*%
%ADD12C,0.0160*%
%ADD13C,0.0030*%
%ADD14C,0.0050*%
%ADD15C,0.0080*%
%ADD16C,0.0059*%
D10*
X035130Y020630D02*
X035130Y021271D01*
X035130Y020950D02*
X035557Y020950D01*
X035557Y020630D02*
X035557Y021271D01*
X035775Y021271D02*
X035988Y021271D01*
X035881Y021271D02*
X035881Y020630D01*
X035775Y020630D02*
X035988Y020630D01*
X036204Y020630D02*
X036204Y021271D01*
X036204Y020950D02*
X036631Y020950D01*
X036849Y020950D02*
X037276Y020950D01*
X037493Y020950D02*
X037814Y021271D01*
X037814Y020630D01*
X037920Y020950D02*
X037493Y020950D01*
X038138Y020737D02*
X038245Y020630D01*
X038458Y020630D01*
X038565Y020737D01*
X038565Y021164D01*
X038138Y020737D01*
X038138Y021164D01*
X038245Y021271D01*
X038458Y021271D01*
X038565Y021164D01*
X038782Y021164D02*
X038889Y021271D01*
X039103Y021271D01*
X039209Y021164D01*
X039209Y021057D01*
X039103Y020950D01*
X039209Y020844D01*
X039209Y020737D01*
X039103Y020630D01*
X038889Y020630D01*
X038782Y020737D01*
X038996Y020950D02*
X039103Y020950D01*
X039427Y020737D02*
X039854Y021164D01*
X039854Y020737D01*
X039747Y020630D01*
X039534Y020630D01*
X039427Y020737D01*
X039427Y021164D01*
X039534Y021271D01*
X039747Y021271D01*
X039854Y021164D01*
X042130Y021271D02*
X042130Y020630D01*
X042450Y020630D01*
X042557Y020737D01*
X042557Y020950D01*
X042450Y021057D01*
X042130Y021057D01*
X042775Y021057D02*
X042881Y021057D01*
X042988Y020950D01*
X043095Y021057D01*
X043202Y020950D01*
X043202Y020630D01*
X042988Y020630D02*
X042988Y020950D01*
X042775Y021057D02*
X042775Y020630D01*
X043419Y020630D02*
X043739Y020630D01*
X043846Y020737D01*
X043846Y020950D01*
X043739Y021057D01*
X043419Y021057D01*
X043419Y020416D01*
X044064Y020630D02*
X044491Y020630D01*
X044277Y020630D02*
X044277Y021271D01*
X044064Y021057D01*
X044708Y021057D02*
X044815Y020950D01*
X045028Y020950D01*
X045135Y020844D01*
X045135Y020737D01*
X045028Y020630D01*
X044815Y020630D01*
X044708Y020737D01*
X044708Y020844D01*
X044815Y020950D01*
X044708Y021057D02*
X044708Y021164D01*
X044815Y021271D01*
X045028Y021271D01*
X045135Y021164D01*
X045135Y021057D01*
X045028Y020950D01*
X045353Y020737D02*
X045780Y021164D01*
X045780Y020737D01*
X045673Y020630D01*
X045460Y020630D01*
X045353Y020737D01*
X045353Y021164D01*
X045460Y021271D01*
X045673Y021271D01*
X045780Y021164D01*
X042070Y017818D02*
X041963Y017924D01*
X041856Y017924D01*
X041750Y017818D01*
X041750Y017711D01*
X041750Y017818D02*
X041643Y017924D01*
X041536Y017924D01*
X041429Y017818D01*
X041429Y017604D01*
X041536Y017497D01*
X041536Y017280D02*
X041429Y017173D01*
X041429Y016960D01*
X041536Y016853D01*
X041963Y016853D01*
X041536Y017280D01*
X041963Y017280D01*
X042070Y017173D01*
X042070Y016960D01*
X041963Y016853D01*
X041963Y016635D02*
X042070Y016528D01*
X042070Y016315D01*
X041963Y016208D01*
X041536Y016635D01*
X041963Y016635D01*
X041536Y016635D02*
X041429Y016528D01*
X041429Y016315D01*
X041536Y016208D01*
X041963Y016208D01*
X042070Y015991D02*
X042070Y015564D01*
X041643Y015991D01*
X041536Y015991D01*
X041429Y015884D01*
X041429Y015670D01*
X041536Y015564D01*
X041429Y015346D02*
X042070Y015346D01*
X041429Y014919D01*
X042070Y014919D01*
X042070Y014702D02*
X042070Y014275D01*
X041429Y014275D01*
X041429Y014057D02*
X041963Y014057D01*
X042070Y013950D01*
X042070Y013737D01*
X041963Y013630D01*
X041429Y013630D01*
X039557Y013450D02*
X039130Y013450D01*
X039344Y013237D02*
X039344Y013664D01*
X041963Y017497D02*
X042070Y017604D01*
X042070Y017818D01*
X037131Y019130D02*
X036704Y019130D01*
X036918Y019130D02*
X036918Y019771D01*
X036704Y019557D01*
X036487Y019450D02*
X036487Y019130D01*
X036487Y019450D02*
X036380Y019557D01*
X036060Y019557D01*
X036060Y019130D01*
X035844Y019130D02*
X035630Y019130D01*
X035737Y019130D02*
X035737Y019557D01*
X035630Y019557D01*
X035737Y019771D02*
X035737Y019877D01*
X036631Y020630D02*
X036631Y021271D01*
X032912Y022430D02*
X032485Y022430D01*
X032485Y023071D01*
X032912Y023071D01*
X032699Y022750D02*
X032485Y022750D01*
X032268Y022750D02*
X032161Y022644D01*
X031841Y022644D01*
X032054Y022644D02*
X032268Y022430D01*
X032268Y022750D02*
X032268Y022964D01*
X032161Y023071D01*
X031841Y023071D01*
X031841Y022430D01*
X031623Y022430D02*
X031196Y022430D01*
X031410Y022430D02*
X031410Y023071D01*
X031196Y022857D01*
X030979Y022964D02*
X030552Y022537D01*
X030659Y022430D01*
X030872Y022430D01*
X030979Y022537D01*
X030979Y022964D01*
X030872Y023071D01*
X030659Y023071D01*
X030552Y022964D01*
X030552Y022537D01*
X030334Y022750D02*
X029907Y022750D01*
X030228Y023071D01*
X030228Y022430D01*
X029690Y023071D02*
X029263Y023071D01*
X029263Y022430D01*
X029045Y022323D02*
X028618Y022323D01*
X028401Y022537D02*
X028401Y022750D01*
X028294Y022857D01*
X028080Y022857D01*
X027974Y022750D01*
X027974Y022537D01*
X028080Y022430D01*
X028294Y022430D01*
X028401Y022537D01*
X027756Y022644D02*
X027329Y022644D01*
X027329Y022750D02*
X027436Y022857D01*
X027649Y022857D01*
X027756Y022750D01*
X027756Y022644D01*
X027649Y022430D02*
X027436Y022430D01*
X027329Y022537D01*
X027329Y022750D01*
X027113Y022430D02*
X026899Y022430D01*
X027006Y022430D02*
X027006Y023071D01*
X026899Y023071D01*
X026682Y022857D02*
X026362Y022857D01*
X026255Y022750D01*
X026255Y022537D01*
X026362Y022430D01*
X026682Y022430D01*
X026037Y022430D02*
X026037Y022857D01*
X025610Y022857D02*
X025610Y022537D01*
X025717Y022430D01*
X026037Y022430D01*
X025393Y022430D02*
X025393Y023071D01*
X024966Y023071D02*
X025393Y022430D01*
X024966Y022430D02*
X024966Y023071D01*
X024748Y022323D02*
X024321Y022323D01*
X023890Y022430D02*
X023890Y023071D01*
X023677Y023071D02*
X024104Y023071D01*
X023459Y022964D02*
X023352Y023071D01*
X023139Y023071D01*
X023032Y022964D01*
X023032Y022857D01*
X023139Y022750D01*
X023352Y022750D01*
X023459Y022644D01*
X023459Y022537D01*
X023352Y022430D01*
X023139Y022430D01*
X023032Y022537D01*
X029263Y022750D02*
X029476Y022750D01*
X014841Y032630D02*
X014841Y033271D01*
X014521Y032950D01*
X014948Y032950D01*
X014303Y032630D02*
X013876Y032630D01*
X014090Y032630D02*
X014090Y033271D01*
X013876Y033057D01*
X013659Y033164D02*
X013659Y032737D01*
X013552Y032630D01*
X013339Y032630D01*
X013232Y032737D01*
X013659Y033164D01*
X013552Y033271D01*
X013339Y033271D01*
X013232Y033164D01*
X013232Y032737D01*
X013014Y032630D02*
X012587Y032630D01*
X013014Y033057D01*
X013014Y033164D01*
X012908Y033271D01*
X012694Y033271D01*
X012587Y033164D01*
X012372Y033630D02*
X012372Y034057D01*
X012372Y033844D02*
X012586Y034057D01*
X012693Y034057D01*
X012910Y033950D02*
X013016Y034057D01*
X013337Y034057D01*
X013337Y034271D02*
X013337Y033630D01*
X013016Y033630D01*
X012910Y033737D01*
X012910Y033950D01*
X012155Y033950D02*
X012155Y033630D01*
X011835Y033630D01*
X011728Y033737D01*
X011835Y033844D01*
X012155Y033844D01*
X012155Y033950D02*
X012048Y034057D01*
X011835Y034057D01*
X011510Y033950D02*
X011404Y034057D01*
X011190Y034057D01*
X011083Y033950D01*
X011083Y033737D01*
X011190Y033630D01*
X011404Y033630D01*
X011510Y033737D01*
X011510Y033950D01*
X010866Y033844D02*
X010866Y033737D01*
X010759Y033630D01*
X010439Y033630D01*
X010439Y034271D01*
X010759Y034271D01*
X010866Y034164D01*
X010866Y034057D01*
X010759Y033950D01*
X010439Y033950D01*
X010759Y033950D02*
X010866Y033844D01*
X010223Y033630D02*
X010009Y033630D01*
X010116Y033630D02*
X010116Y034271D01*
X010009Y034271D01*
X009792Y033950D02*
X009685Y034057D01*
X009471Y034057D01*
X009365Y033950D01*
X009365Y033737D01*
X009471Y033630D01*
X009685Y033630D01*
X009792Y033737D01*
X009792Y033950D01*
X009148Y034057D02*
X009041Y034057D01*
X008827Y033844D01*
X008827Y034057D02*
X008827Y033630D01*
X008611Y033630D02*
X008505Y033737D01*
X008505Y034164D01*
X008611Y034057D02*
X008398Y034057D01*
X008180Y033950D02*
X008180Y033630D01*
X008180Y033950D02*
X008073Y034057D01*
X007753Y034057D01*
X007753Y033630D01*
X007536Y033737D02*
X007536Y033950D01*
X007429Y034057D01*
X007215Y034057D01*
X007109Y033950D01*
X007109Y033737D01*
X007215Y033630D01*
X007429Y033630D01*
X007536Y033737D01*
X007216Y033271D02*
X007216Y032630D01*
X007536Y032630D01*
X007643Y032737D01*
X007643Y032950D01*
X007536Y033057D01*
X007216Y033057D01*
X007861Y033057D02*
X007861Y032737D01*
X007967Y032630D01*
X008288Y032630D01*
X008288Y032523D02*
X008181Y032416D01*
X008074Y032416D01*
X008288Y032523D02*
X008288Y033057D01*
X009150Y032950D02*
X009363Y032950D01*
X009257Y033164D02*
X009257Y032630D01*
X009579Y032630D02*
X009793Y032630D01*
X009686Y032630D02*
X009686Y033271D01*
X009579Y033271D01*
X009363Y033271D02*
X009257Y033164D01*
X010009Y033164D02*
X010009Y032737D01*
X010116Y032630D01*
X010329Y032630D01*
X010436Y032737D01*
X010329Y032844D02*
X010329Y033057D01*
X010116Y033057D01*
X010116Y032844D01*
X010329Y032844D01*
X010436Y032950D01*
X010436Y033164D01*
X010329Y033271D01*
X010116Y033271D01*
X010009Y033164D01*
X010654Y032950D02*
X010654Y032737D01*
X010760Y032630D01*
X011081Y032630D01*
X011298Y032737D02*
X011298Y033164D01*
X011405Y033271D01*
X011619Y033271D01*
X011725Y033164D01*
X011725Y032950D01*
X011619Y032844D01*
X011619Y033057D01*
X011405Y033057D01*
X011405Y032844D01*
X011619Y032844D01*
X011725Y032737D02*
X011619Y032630D01*
X011405Y032630D01*
X011298Y032737D01*
X011081Y033057D02*
X010760Y033057D01*
X010654Y032950D01*
X014199Y033844D02*
X014412Y033630D01*
X014626Y033844D01*
X014626Y034271D01*
X014843Y034057D02*
X015057Y034271D01*
X015057Y033630D01*
X015270Y033630D02*
X014843Y033630D01*
X015488Y033630D02*
X015595Y033630D01*
X015595Y033737D01*
X015488Y033737D01*
X015488Y033630D01*
X015810Y033737D02*
X016237Y034164D01*
X016237Y033737D01*
X016130Y033630D01*
X015917Y033630D01*
X015810Y033737D01*
X015810Y034164D01*
X015917Y034271D01*
X016130Y034271D01*
X016237Y034164D01*
X014199Y034271D02*
X014199Y033844D01*
X006891Y034057D02*
X006571Y034057D01*
X006464Y033950D01*
X006464Y033737D01*
X006571Y033630D01*
X006891Y033630D01*
X006354Y033271D02*
X006354Y032630D01*
X006034Y032630D01*
X005927Y032737D01*
X005927Y032950D01*
X006034Y033057D01*
X006354Y033057D01*
X005709Y032950D02*
X005709Y032844D01*
X005282Y032844D01*
X005282Y032950D02*
X005389Y033057D01*
X005603Y033057D01*
X005709Y032950D01*
X005603Y032630D02*
X005389Y032630D01*
X005282Y032737D01*
X005282Y032950D01*
X005065Y032950D02*
X005065Y032630D01*
X005065Y032950D02*
X004958Y033057D01*
X004638Y033057D01*
X004638Y032630D01*
X004420Y032630D02*
X004100Y032630D01*
X003993Y032737D01*
X003993Y032950D01*
X004100Y033057D01*
X004420Y033057D01*
X004420Y032523D01*
X004314Y032416D01*
X004207Y032416D01*
X003777Y032630D02*
X003564Y032630D01*
X003670Y032630D02*
X003670Y033057D01*
X003564Y033057D01*
X003346Y033057D02*
X003026Y033057D01*
X002919Y032950D01*
X003026Y032844D01*
X003239Y032844D01*
X003346Y032737D01*
X003239Y032630D01*
X002919Y032630D01*
X002702Y032844D02*
X002275Y032844D01*
X002275Y032950D02*
X002381Y033057D01*
X002595Y033057D01*
X002702Y032950D01*
X002702Y032844D01*
X002595Y032630D02*
X002381Y032630D01*
X002275Y032737D01*
X002275Y032950D01*
X002057Y033057D02*
X001737Y033057D01*
X001630Y032950D01*
X001630Y032737D01*
X001737Y032630D01*
X002057Y032630D01*
X002057Y033271D01*
X002274Y033630D02*
X002167Y033737D01*
X002274Y033844D01*
X002594Y033844D01*
X002594Y033950D02*
X002594Y033630D01*
X002274Y033630D01*
X002274Y034057D02*
X002487Y034057D01*
X002594Y033950D01*
X002812Y034057D02*
X002918Y034057D01*
X003025Y033950D01*
X003132Y034057D01*
X003239Y033950D01*
X003239Y033630D01*
X003025Y033630D02*
X003025Y033950D01*
X002812Y034057D02*
X002812Y033630D01*
X003456Y033737D02*
X003563Y033844D01*
X003883Y033844D01*
X003883Y033950D02*
X003883Y033630D01*
X003563Y033630D01*
X003456Y033737D01*
X003563Y034057D02*
X003776Y034057D01*
X003883Y033950D01*
X004101Y034057D02*
X004421Y034057D01*
X004528Y033950D01*
X004528Y033630D01*
X004745Y033630D02*
X004745Y034271D01*
X005066Y034271D01*
X005172Y034164D01*
X005172Y033950D01*
X005066Y033844D01*
X004745Y033844D01*
X005390Y034057D02*
X005497Y034057D01*
X005497Y033630D01*
X005603Y033630D02*
X005390Y033630D01*
X005820Y033523D02*
X006247Y033523D01*
X005497Y034271D02*
X005497Y034377D01*
X004101Y034057D02*
X004101Y033630D01*
X003670Y033377D02*
X003670Y033271D01*
X001950Y034057D02*
X001844Y034057D01*
X001630Y033844D01*
X001630Y034057D02*
X001630Y033630D01*
X035737Y009377D02*
X035737Y009271D01*
X035737Y009057D02*
X035737Y008630D01*
X035630Y008630D02*
X035844Y008630D01*
X036060Y008630D02*
X036060Y009057D01*
X036380Y009057D01*
X036487Y008950D01*
X036487Y008630D01*
X036704Y008630D02*
X037131Y008630D01*
X036918Y008630D02*
X036918Y009271D01*
X036704Y009057D01*
X035737Y009057D02*
X035630Y009057D01*
X041929Y007318D02*
X041929Y007104D01*
X042036Y006997D01*
X042036Y006780D02*
X042463Y006353D01*
X042570Y006460D01*
X042570Y006673D01*
X042463Y006780D01*
X042036Y006780D01*
X041929Y006673D01*
X041929Y006460D01*
X042036Y006353D01*
X042463Y006353D01*
X042463Y006135D02*
X042570Y006028D01*
X042570Y005815D01*
X042463Y005708D01*
X042036Y006135D01*
X042463Y006135D01*
X042036Y006135D02*
X041929Y006028D01*
X041929Y005815D01*
X042036Y005708D01*
X042463Y005708D01*
X042570Y005491D02*
X042570Y005064D01*
X042143Y005491D01*
X042036Y005491D01*
X041929Y005384D01*
X041929Y005170D01*
X042036Y005064D01*
X041929Y004846D02*
X042570Y004846D01*
X041929Y004419D01*
X042570Y004419D01*
X042570Y004202D02*
X042570Y003775D01*
X041929Y003775D01*
X041929Y003557D02*
X042463Y003557D01*
X042570Y003450D01*
X042570Y003237D01*
X042463Y003130D01*
X041929Y003130D01*
X039557Y002950D02*
X039130Y002950D01*
X039344Y002737D02*
X039344Y003164D01*
X042463Y006997D02*
X042570Y007104D01*
X042570Y007318D01*
X042463Y007424D01*
X042356Y007424D01*
X042250Y007318D01*
X042250Y007211D01*
X042250Y007318D02*
X042143Y007424D01*
X042036Y007424D01*
X041929Y007318D01*
X050823Y002666D02*
X050929Y002666D01*
X051143Y002666D02*
X051570Y002666D01*
X051570Y002560D02*
X051570Y002773D01*
X051570Y002989D02*
X051570Y003203D01*
X051570Y003096D02*
X050929Y003096D01*
X050929Y002989D01*
X051143Y002666D02*
X051143Y002560D01*
X051250Y002344D02*
X051250Y002130D01*
X051036Y002237D02*
X050929Y002344D01*
X051036Y002237D02*
X051570Y002237D01*
X051143Y003419D02*
X051143Y003633D01*
X051036Y003526D02*
X051463Y003526D01*
X051570Y003633D01*
X051463Y003849D02*
X051570Y003956D01*
X051570Y004169D01*
X051356Y004276D02*
X051356Y003849D01*
X051250Y003849D02*
X051143Y003956D01*
X051143Y004169D01*
X051250Y004276D01*
X051356Y004276D01*
X051356Y004493D02*
X051143Y004707D01*
X051143Y004814D01*
X051143Y005030D02*
X051250Y005137D01*
X051250Y005351D01*
X051356Y005458D01*
X051463Y005458D01*
X051570Y005351D01*
X051570Y005137D01*
X051463Y005030D01*
X051143Y005030D02*
X051036Y005030D01*
X050929Y005137D01*
X050929Y005351D01*
X051036Y005458D01*
X051143Y005675D02*
X051143Y005889D01*
X051036Y005782D02*
X051463Y005782D01*
X051570Y005889D01*
X051463Y006105D02*
X051250Y006105D01*
X051143Y006211D01*
X051143Y006425D01*
X051250Y006532D01*
X051356Y006532D01*
X051356Y006105D01*
X051463Y006105D02*
X051570Y006211D01*
X051570Y006425D01*
X051570Y006749D02*
X051570Y007070D01*
X051463Y007176D01*
X051250Y007176D01*
X051143Y007070D01*
X051143Y006749D01*
X051784Y006749D01*
X051784Y007394D02*
X051143Y007394D01*
X051143Y007714D01*
X051250Y007821D01*
X051463Y007821D01*
X051570Y007714D01*
X051570Y007394D01*
X051463Y008038D02*
X051250Y008038D01*
X051143Y008145D01*
X051143Y008359D01*
X051250Y008465D01*
X051356Y008465D01*
X051356Y008038D01*
X051463Y008038D02*
X051570Y008145D01*
X051570Y008359D01*
X051570Y008683D02*
X051143Y008683D01*
X051356Y008683D02*
X051143Y008896D01*
X051143Y009003D01*
X053929Y009670D02*
X054036Y009564D01*
X054143Y009564D01*
X054250Y009670D01*
X054250Y009884D01*
X054356Y009991D01*
X054463Y009991D01*
X054570Y009884D01*
X054570Y009670D01*
X054463Y009564D01*
X054143Y009346D02*
X054570Y009133D01*
X054143Y008919D01*
X054143Y008702D02*
X054570Y008702D01*
X054570Y008381D01*
X054463Y008275D01*
X054143Y008275D01*
X054143Y008057D02*
X054143Y007737D01*
X054250Y007630D01*
X054463Y007630D01*
X054570Y007737D01*
X054570Y008057D01*
X053929Y009670D02*
X053929Y009884D01*
X054036Y009991D01*
X054250Y010208D02*
X054143Y010315D01*
X054143Y010528D01*
X054250Y010635D01*
X054356Y010635D01*
X054356Y010208D01*
X054250Y010208D02*
X054463Y010208D01*
X054570Y010315D01*
X054570Y010528D01*
X054570Y010853D02*
X054143Y010853D01*
X054143Y011173D01*
X054250Y011280D01*
X054570Y011280D01*
X054570Y011497D02*
X054570Y011818D01*
X054463Y011924D01*
X054356Y011818D01*
X054356Y011604D01*
X054250Y011497D01*
X054143Y011604D01*
X054143Y011924D01*
X054250Y012142D02*
X054143Y012249D01*
X054143Y012462D01*
X054250Y012569D01*
X054356Y012569D01*
X054356Y012142D01*
X054250Y012142D02*
X054463Y012142D01*
X054570Y012249D01*
X054570Y012462D01*
X054570Y013630D02*
X054570Y013844D01*
X054570Y013737D02*
X053929Y013737D01*
X053929Y013630D01*
X054143Y014166D02*
X054143Y014380D01*
X054250Y014487D01*
X054570Y014487D01*
X054570Y014166D01*
X054463Y014060D01*
X054356Y014166D01*
X054356Y014487D01*
X054250Y014704D02*
X054143Y014811D01*
X054143Y015131D01*
X054356Y015025D02*
X054356Y014811D01*
X054250Y014704D01*
X054570Y014704D02*
X054570Y015025D01*
X054463Y015131D01*
X054356Y015025D01*
X054356Y015349D02*
X054356Y015776D01*
X054250Y015776D01*
X054143Y015669D01*
X054143Y015456D01*
X054250Y015349D01*
X054463Y015349D01*
X054570Y015456D01*
X054570Y015669D01*
X054570Y015993D02*
X054143Y015993D01*
X054356Y015993D02*
X054143Y016207D01*
X054143Y016314D01*
X053929Y016530D02*
X053929Y016958D01*
X053929Y016744D02*
X054570Y016744D01*
X054570Y017389D02*
X053929Y017389D01*
X053929Y017602D02*
X053929Y017175D01*
X053929Y017820D02*
X054570Y017820D01*
X054570Y018247D01*
X054570Y019630D02*
X054570Y019844D01*
X054570Y019737D02*
X053929Y019737D01*
X053929Y019630D01*
X054143Y020166D02*
X054143Y020380D01*
X054250Y020487D01*
X054570Y020487D01*
X054570Y020166D01*
X054463Y020060D01*
X054356Y020166D01*
X054356Y020487D01*
X054250Y020704D02*
X054143Y020811D01*
X054143Y021131D01*
X054356Y021025D02*
X054356Y020811D01*
X054250Y020704D01*
X054570Y020704D02*
X054570Y021025D01*
X054463Y021131D01*
X054356Y021025D01*
X054356Y021349D02*
X054356Y021776D01*
X054250Y021776D01*
X054143Y021669D01*
X054143Y021456D01*
X054250Y021349D01*
X054463Y021349D01*
X054570Y021456D01*
X054570Y021669D01*
X054570Y021993D02*
X054143Y021993D01*
X054356Y021993D02*
X054143Y022207D01*
X054143Y022314D01*
X053929Y022530D02*
X053929Y022958D01*
X053929Y022744D02*
X054570Y022744D01*
X054463Y023175D02*
X054250Y023175D01*
X054143Y023282D01*
X054143Y023495D01*
X054250Y023602D01*
X054356Y023602D01*
X054356Y023175D01*
X054463Y023175D02*
X054570Y023282D01*
X054570Y023495D01*
X054570Y023820D02*
X054143Y023820D01*
X054143Y023926D01*
X054250Y024033D01*
X054143Y024140D01*
X054250Y024247D01*
X054570Y024247D01*
X054570Y024033D02*
X054250Y024033D01*
X054143Y024464D02*
X054143Y024784D01*
X054250Y024891D01*
X054463Y024891D01*
X054570Y024784D01*
X054570Y024464D01*
X054784Y024464D02*
X054143Y024464D01*
X051202Y025630D02*
X050775Y025630D01*
X050988Y025630D02*
X050988Y026271D01*
X050775Y026057D01*
X050557Y026164D02*
X050557Y025950D01*
X050450Y025844D01*
X050130Y025844D01*
X050344Y025844D02*
X050557Y025630D01*
X050130Y025630D02*
X050130Y026271D01*
X050450Y026271D01*
X050557Y026164D01*
X057429Y025344D02*
X057643Y025130D01*
X057429Y025344D02*
X058070Y025344D01*
X058143Y025381D02*
X058250Y025275D01*
X058463Y025275D01*
X058570Y025381D01*
X058570Y025595D01*
X058463Y025702D01*
X058250Y025702D01*
X058143Y025595D01*
X058143Y025381D01*
X058070Y025557D02*
X058070Y025130D01*
X058250Y025057D02*
X058463Y025057D01*
X058570Y024950D01*
X058570Y024630D01*
X058784Y024630D02*
X058143Y024630D01*
X058143Y024950D01*
X058250Y025057D01*
X057963Y024424D02*
X058070Y024318D01*
X058070Y023997D01*
X058284Y023997D02*
X057643Y023997D01*
X057643Y024318D01*
X057750Y024424D01*
X057963Y024424D01*
X058070Y023780D02*
X057750Y023780D01*
X057643Y023673D01*
X057750Y023566D01*
X058070Y023566D01*
X058070Y023353D02*
X057643Y023353D01*
X057643Y023460D01*
X057750Y023566D01*
X057750Y023135D02*
X057856Y023135D01*
X057856Y022708D01*
X057750Y022708D02*
X057643Y022815D01*
X057643Y023028D01*
X057750Y023135D01*
X058070Y023028D02*
X058070Y022815D01*
X057963Y022708D01*
X057750Y022708D01*
X057429Y022491D02*
X057429Y022064D01*
X057429Y022277D02*
X058070Y022277D01*
X057643Y021846D02*
X058070Y021633D01*
X057643Y021419D01*
X057643Y021202D02*
X058070Y021202D01*
X058070Y020881D01*
X057963Y020775D01*
X057643Y020775D01*
X057643Y020557D02*
X057643Y020237D01*
X057750Y020130D01*
X057963Y020130D01*
X058070Y020237D01*
X058070Y020557D01*
X058070Y018391D02*
X057429Y018391D01*
X057643Y018391D02*
X057643Y018071D01*
X057750Y017964D01*
X057963Y017964D01*
X058070Y018071D01*
X058070Y018391D01*
X057963Y017747D02*
X057750Y017747D01*
X057643Y017640D01*
X057643Y017426D01*
X057750Y017320D01*
X057963Y017320D01*
X058070Y017426D01*
X058070Y017640D01*
X057963Y017747D01*
X057963Y017102D02*
X057750Y017102D01*
X057643Y016995D01*
X057643Y016782D01*
X057750Y016675D01*
X057963Y016675D01*
X058070Y016782D01*
X058070Y016995D01*
X057963Y017102D01*
X057963Y016458D02*
X057750Y016458D01*
X057750Y016244D01*
X057963Y016458D02*
X058070Y016351D01*
X058070Y016137D01*
X057963Y016030D01*
X057536Y016030D01*
X057429Y016137D01*
X057429Y016351D01*
X057536Y016458D01*
X057643Y015814D02*
X057643Y015707D01*
X057856Y015493D01*
X057643Y015493D02*
X058070Y015493D01*
X057856Y015276D02*
X057856Y014849D01*
X057750Y014849D02*
X057643Y014956D01*
X057643Y015169D01*
X057750Y015276D01*
X057856Y015276D01*
X058070Y015169D02*
X058070Y014956D01*
X057963Y014849D01*
X057750Y014849D01*
X057643Y014631D02*
X057643Y014311D01*
X057750Y014204D01*
X057856Y014311D01*
X057856Y014525D01*
X057963Y014631D01*
X058070Y014525D01*
X058070Y014204D01*
X058070Y013987D02*
X058070Y013666D01*
X057963Y013560D01*
X057856Y013666D01*
X057856Y013987D01*
X057750Y013987D02*
X058070Y013987D01*
X057750Y013987D02*
X057643Y013880D01*
X057643Y013666D01*
X057429Y013237D02*
X058070Y013237D01*
X058070Y013130D02*
X058070Y013344D01*
X057429Y013237D02*
X057429Y013130D01*
X057643Y011818D02*
X057643Y011711D01*
X057856Y011497D01*
X057643Y011497D02*
X058070Y011497D01*
X057856Y011280D02*
X057856Y010853D01*
X057750Y010853D02*
X057643Y010960D01*
X057643Y011173D01*
X057750Y011280D01*
X057856Y011280D01*
X058070Y011173D02*
X058070Y010960D01*
X057963Y010853D01*
X057750Y010853D01*
X057643Y010635D02*
X057643Y010315D01*
X057750Y010208D01*
X057963Y010208D01*
X058070Y010315D01*
X058070Y010635D01*
X057429Y010635D01*
X057750Y009991D02*
X057643Y009884D01*
X057643Y009670D01*
X057750Y009564D01*
X057963Y009564D01*
X058070Y009670D01*
X058070Y009884D01*
X057963Y009991D01*
X057750Y009991D01*
X057643Y009346D02*
X057643Y009026D01*
X057750Y008919D01*
X057963Y008919D01*
X058070Y009026D01*
X058070Y009346D01*
X058070Y008702D02*
X057750Y008702D01*
X057643Y008595D01*
X057643Y008275D01*
X058070Y008275D01*
X057856Y008057D02*
X057856Y007630D01*
X057750Y007630D02*
X057643Y007737D01*
X057643Y007950D01*
X057750Y008057D01*
X057856Y008057D01*
X058070Y007950D02*
X058070Y007737D01*
X057963Y007630D01*
X057750Y007630D01*
X057846Y005771D02*
X057846Y005130D01*
X057526Y005130D01*
X057419Y005237D01*
X057419Y005450D01*
X057526Y005557D01*
X057846Y005557D01*
X058343Y005306D02*
X058450Y005412D01*
X058770Y005412D01*
X058770Y004985D02*
X058343Y004985D01*
X058343Y005306D01*
X058129Y004769D02*
X058129Y004556D01*
X058129Y004663D02*
X058770Y004663D01*
X058770Y004769D02*
X058770Y004556D01*
X058343Y004339D02*
X058343Y004232D01*
X058556Y004019D01*
X058343Y004019D02*
X058770Y004019D01*
X058556Y003801D02*
X058556Y003374D01*
X058450Y003374D02*
X058343Y003481D01*
X058343Y003694D01*
X058450Y003801D01*
X058556Y003801D01*
X058770Y003694D02*
X058770Y003481D01*
X058663Y003374D01*
X058450Y003374D01*
X058343Y003157D02*
X058663Y003157D01*
X058770Y003050D01*
X058663Y002943D01*
X058770Y002836D01*
X058663Y002730D01*
X058343Y002730D01*
X058450Y002512D02*
X058343Y002405D01*
X058343Y002192D01*
X058450Y002085D01*
X058663Y002085D01*
X058770Y002192D01*
X058770Y002405D01*
X058663Y002512D01*
X058450Y002512D01*
X058450Y001867D02*
X058556Y001761D01*
X058556Y001440D01*
X058770Y001440D02*
X058129Y001440D01*
X058129Y001761D01*
X058236Y001867D01*
X058450Y001867D01*
X057846Y001557D02*
X057526Y001557D01*
X057419Y001450D01*
X057526Y001344D01*
X057739Y001344D01*
X057846Y001237D01*
X057739Y001130D01*
X057419Y001130D01*
X057202Y001237D02*
X057202Y001450D01*
X057095Y001557D01*
X056881Y001557D01*
X056775Y001450D01*
X056775Y001237D01*
X056881Y001130D01*
X057095Y001130D01*
X057202Y001237D01*
X056557Y001450D02*
X056450Y001344D01*
X056130Y001344D01*
X056130Y001130D02*
X056130Y001771D01*
X056450Y001771D01*
X056557Y001664D01*
X056557Y001450D01*
X054570Y001275D02*
X053929Y001275D01*
X054143Y001381D02*
X054143Y001595D01*
X054250Y001702D01*
X054570Y001702D01*
X054463Y001919D02*
X054143Y001919D01*
X054463Y001919D02*
X054570Y002026D01*
X054570Y002346D01*
X054143Y002346D01*
X054143Y002564D02*
X054143Y002777D01*
X054036Y002670D02*
X054463Y002670D01*
X054570Y002777D01*
X054463Y003100D02*
X054036Y003100D01*
X054143Y002993D02*
X054143Y003207D01*
X054250Y003423D02*
X054143Y003530D01*
X054143Y003743D01*
X054250Y003850D01*
X054356Y003850D01*
X054356Y003423D01*
X054250Y003423D02*
X054463Y003423D01*
X054570Y003530D01*
X054570Y003743D01*
X054570Y004068D02*
X054143Y004068D01*
X054356Y004068D02*
X054143Y004281D01*
X054143Y004388D01*
X054143Y004605D02*
X054250Y004711D01*
X054250Y004925D01*
X054356Y005032D01*
X054463Y005032D01*
X054570Y004925D01*
X054570Y004711D01*
X054463Y004605D01*
X054143Y004605D02*
X054036Y004605D01*
X053929Y004711D01*
X053929Y004925D01*
X054036Y005032D01*
X054143Y005249D02*
X054570Y005463D01*
X054143Y005676D01*
X054250Y005894D02*
X054463Y005894D01*
X054570Y006001D01*
X054570Y006214D01*
X054463Y006321D01*
X054250Y006321D01*
X054143Y006214D01*
X054143Y006001D01*
X054250Y005894D01*
X056130Y005664D02*
X056130Y005237D01*
X056237Y005130D01*
X056450Y005130D01*
X056557Y005237D01*
X056557Y005450D01*
X056344Y005450D01*
X056557Y005664D02*
X056450Y005771D01*
X056237Y005771D01*
X056130Y005664D01*
X056775Y005557D02*
X056775Y005130D01*
X057202Y005130D02*
X057202Y005450D01*
X057095Y005557D01*
X056775Y005557D01*
X054570Y003207D02*
X054463Y003100D01*
X054143Y001381D02*
X054250Y001275D01*
X054143Y001057D02*
X054143Y000737D01*
X054250Y000630D01*
X054356Y000737D01*
X054356Y000950D01*
X054463Y001057D01*
X054570Y000950D01*
X054570Y000630D01*
X051463Y003849D02*
X051250Y003849D01*
X051143Y004493D02*
X051570Y004493D01*
X051463Y012130D02*
X051570Y012237D01*
X051570Y012557D01*
X051463Y012775D02*
X051570Y012881D01*
X051570Y013202D01*
X051143Y013202D01*
X051143Y013419D02*
X051570Y013633D01*
X051143Y013846D01*
X051250Y014064D02*
X051143Y014170D01*
X051143Y014384D01*
X051250Y014491D01*
X051356Y014491D01*
X051356Y014064D01*
X051250Y014064D02*
X051463Y014064D01*
X051570Y014170D01*
X051570Y014384D01*
X051463Y014815D02*
X051570Y014922D01*
X051463Y014815D02*
X051036Y014815D01*
X051143Y014708D02*
X051143Y014922D01*
X051143Y015138D02*
X051143Y015351D01*
X051036Y015245D02*
X051463Y015245D01*
X051570Y015351D01*
X051463Y015568D02*
X051570Y015674D01*
X051570Y015888D01*
X051356Y015995D02*
X051356Y015568D01*
X051250Y015568D02*
X051143Y015674D01*
X051143Y015888D01*
X051250Y015995D01*
X051356Y015995D01*
X051463Y016212D02*
X051570Y016319D01*
X051570Y016532D01*
X051463Y016639D01*
X051356Y016639D01*
X051250Y016532D01*
X051250Y016319D01*
X051143Y016212D01*
X051036Y016212D01*
X050929Y016319D01*
X050929Y016532D01*
X051036Y016639D01*
X051143Y016857D02*
X051143Y017070D01*
X051036Y016963D02*
X051463Y016963D01*
X051570Y017070D01*
X051463Y017286D02*
X051250Y017286D01*
X051143Y017393D01*
X051143Y017607D01*
X051250Y017713D01*
X051356Y017713D01*
X051356Y017286D01*
X051463Y017286D02*
X051570Y017393D01*
X051570Y017607D01*
X051570Y017931D02*
X051570Y018251D01*
X051463Y018358D01*
X051250Y018358D01*
X051143Y018251D01*
X051143Y017931D01*
X051784Y017931D01*
X051784Y018575D02*
X051143Y018575D01*
X051143Y018896D01*
X051250Y019003D01*
X051463Y019003D01*
X051570Y018896D01*
X051570Y018575D01*
X051463Y019220D02*
X051250Y019220D01*
X051143Y019327D01*
X051143Y019540D01*
X051250Y019647D01*
X051356Y019647D01*
X051356Y019220D01*
X051463Y019220D02*
X051570Y019327D01*
X051570Y019540D01*
X051570Y019865D02*
X051143Y019865D01*
X051356Y019865D02*
X051143Y020078D01*
X051143Y020185D01*
X051250Y015568D02*
X051463Y015568D01*
X051463Y012775D02*
X051143Y012775D01*
X051143Y012557D02*
X051143Y012237D01*
X051250Y012130D01*
X051463Y012130D01*
X058143Y025919D02*
X058463Y025919D01*
X058570Y026026D01*
X058463Y026133D01*
X058570Y026239D01*
X058463Y026346D01*
X058143Y026346D01*
X058250Y026564D02*
X058143Y026670D01*
X058143Y026884D01*
X058250Y026991D01*
X058356Y026991D01*
X058356Y026564D01*
X058250Y026564D02*
X058463Y026564D01*
X058570Y026670D01*
X058570Y026884D01*
X058570Y027208D02*
X058143Y027208D01*
X058356Y027208D02*
X058143Y027422D01*
X058143Y027528D01*
X058036Y027745D02*
X057929Y027852D01*
X057929Y028066D01*
X058036Y028172D01*
X058250Y028390D02*
X058463Y028390D01*
X058570Y028497D01*
X058570Y028710D01*
X058463Y028817D01*
X058250Y028817D01*
X058143Y028710D01*
X058143Y028497D01*
X058250Y028390D01*
X058463Y028172D02*
X058570Y028066D01*
X058570Y027852D01*
X058463Y027745D01*
X058036Y027745D01*
X058143Y029034D02*
X058143Y029355D01*
X058250Y029461D01*
X058570Y029461D01*
X058463Y029786D02*
X058570Y029892D01*
X058463Y029786D02*
X058036Y029786D01*
X058143Y029892D02*
X058143Y029679D01*
X058143Y030109D02*
X058570Y030109D01*
X058356Y030109D02*
X058143Y030322D01*
X058143Y030429D01*
X058250Y030646D02*
X058463Y030646D01*
X058570Y030753D01*
X058570Y030966D01*
X058463Y031073D01*
X058250Y031073D01*
X058143Y030966D01*
X058143Y030753D01*
X058250Y030646D01*
X058570Y031290D02*
X058570Y031504D01*
X058570Y031397D02*
X057929Y031397D01*
X057929Y031290D01*
X057929Y031720D02*
X057929Y032040D01*
X058036Y032147D01*
X058143Y032147D01*
X058250Y032040D01*
X058250Y031720D01*
X058570Y031720D02*
X058570Y032040D01*
X058463Y032147D01*
X058356Y032147D01*
X058250Y032040D01*
X058250Y032365D02*
X058463Y032365D01*
X058570Y032471D01*
X058570Y032685D01*
X058463Y032792D01*
X058250Y032792D01*
X058143Y032685D01*
X058143Y032471D01*
X058250Y032365D01*
X058570Y031720D02*
X057929Y031720D01*
X058463Y033009D02*
X058356Y033116D01*
X058356Y033436D01*
X058250Y033436D02*
X058570Y033436D01*
X058570Y033116D01*
X058463Y033009D01*
X058143Y033116D02*
X058143Y033329D01*
X058250Y033436D01*
X058356Y033654D02*
X058143Y033867D01*
X058143Y033974D01*
X058250Y034191D02*
X058143Y034298D01*
X058143Y034618D01*
X057929Y034618D02*
X058570Y034618D01*
X058570Y034298D01*
X058463Y034191D01*
X058250Y034191D01*
X058143Y033654D02*
X058570Y033654D01*
X058570Y029034D02*
X058143Y029034D01*
D11*
X018961Y031620D02*
X018655Y031620D01*
X018961Y031927D01*
X018961Y032004D01*
X018885Y032080D01*
X018731Y032080D01*
X018655Y032004D01*
X018501Y032080D02*
X018501Y031773D01*
X018348Y031620D01*
X018194Y031773D01*
X018194Y032080D01*
X017580Y031850D02*
X017580Y031773D01*
X017273Y031773D01*
X017273Y031697D02*
X017273Y031850D01*
X017350Y031927D01*
X017504Y031927D01*
X017580Y031850D01*
X017504Y031620D02*
X017350Y031620D01*
X017273Y031697D01*
X017120Y031697D02*
X017043Y031620D01*
X016813Y031620D01*
X016659Y031620D02*
X016659Y031850D01*
X016583Y031927D01*
X016353Y031927D01*
X016353Y031620D01*
X016199Y031773D02*
X015892Y031773D01*
X015892Y031697D02*
X015892Y031850D01*
X015969Y031927D01*
X016122Y031927D01*
X016199Y031850D01*
X016199Y031773D01*
X016122Y031620D02*
X015969Y031620D01*
X015892Y031697D01*
X015739Y031620D02*
X015509Y031620D01*
X015432Y031697D01*
X015432Y031850D01*
X015509Y031927D01*
X015739Y031927D01*
X015202Y031927D02*
X015202Y031620D01*
X015278Y031620D02*
X015125Y031620D01*
X014971Y031620D02*
X014664Y031620D01*
X014664Y032080D01*
X015125Y031927D02*
X015202Y031927D01*
X015202Y032080D02*
X015202Y032157D01*
X014051Y031927D02*
X013820Y031927D01*
X013744Y031850D01*
X013744Y031697D01*
X013820Y031620D01*
X014051Y031620D01*
X013590Y031620D02*
X013437Y031620D01*
X013513Y031620D02*
X013513Y031927D01*
X013437Y031927D01*
X013513Y032080D02*
X013513Y032157D01*
X013207Y032080D02*
X013207Y031620D01*
X013283Y031620D02*
X013130Y031620D01*
X012976Y031697D02*
X012976Y031850D01*
X012900Y031927D01*
X012669Y031927D01*
X012516Y031927D02*
X012516Y031620D01*
X012286Y031620D01*
X012209Y031697D01*
X012209Y031927D01*
X012056Y032004D02*
X012056Y031850D01*
X011979Y031773D01*
X011749Y031773D01*
X011749Y031620D02*
X011749Y032080D01*
X011979Y032080D01*
X012056Y032004D01*
X012669Y032080D02*
X012669Y031620D01*
X012900Y031620D01*
X012976Y031697D01*
X013130Y032080D02*
X013207Y032080D01*
X013207Y031080D02*
X013130Y031004D01*
X013207Y031080D02*
X013360Y031080D01*
X013437Y031004D01*
X013437Y030927D01*
X013130Y030620D01*
X013437Y030620D01*
X013590Y030620D02*
X013590Y030697D01*
X013897Y031004D01*
X013897Y031080D01*
X013590Y031080D01*
X014051Y031004D02*
X014051Y030927D01*
X014127Y030850D01*
X014358Y030850D01*
X014358Y030697D02*
X014358Y031004D01*
X014281Y031080D01*
X014127Y031080D01*
X014051Y031004D01*
X014051Y030697D02*
X014127Y030620D01*
X014281Y030620D01*
X014358Y030697D01*
X012976Y030620D02*
X012669Y030620D01*
X012823Y030620D02*
X012823Y031080D01*
X012669Y030927D01*
X012516Y031080D02*
X012209Y030620D01*
X012056Y030620D02*
X011979Y030697D01*
X011979Y031004D01*
X011902Y030927D02*
X012056Y030927D01*
X011749Y030927D02*
X011518Y030927D01*
X011442Y030850D01*
X011442Y030697D01*
X011518Y030620D01*
X011749Y030620D01*
X011288Y030773D02*
X010981Y030773D01*
X010981Y030697D02*
X010981Y030850D01*
X011058Y030927D01*
X011212Y030927D01*
X011288Y030850D01*
X011288Y030773D01*
X011212Y030620D02*
X011058Y030620D01*
X010981Y030697D01*
X010828Y030543D02*
X010828Y030927D01*
X010828Y031080D02*
X010828Y031157D01*
X010521Y030850D02*
X010444Y030927D01*
X010291Y030927D01*
X010214Y030850D01*
X010214Y030697D01*
X010291Y030620D01*
X010444Y030620D01*
X010521Y030697D01*
X010521Y030850D01*
X010674Y030467D02*
X010751Y030467D01*
X010828Y030543D01*
X010598Y030080D02*
X010367Y029850D01*
X010674Y029850D01*
X010598Y029620D02*
X010598Y030080D01*
X010061Y030080D02*
X010061Y029620D01*
X010214Y029620D02*
X009907Y029620D01*
X009754Y029697D02*
X009677Y029620D01*
X009523Y029620D01*
X009447Y029697D01*
X009754Y030004D01*
X009754Y029697D01*
X009907Y029927D02*
X010061Y030080D01*
X009754Y030004D02*
X009677Y030080D01*
X009523Y030080D01*
X009447Y030004D01*
X009447Y029697D01*
X009293Y029620D02*
X008986Y029620D01*
X009293Y029927D01*
X009293Y030004D01*
X009216Y030080D01*
X009063Y030080D01*
X008986Y030004D01*
X008833Y029543D02*
X008526Y029543D01*
X008296Y029620D02*
X008142Y029620D01*
X008065Y029697D01*
X008065Y029850D01*
X008142Y029927D01*
X008296Y029927D01*
X008372Y029850D01*
X008372Y029773D01*
X008065Y029773D01*
X007912Y029620D02*
X007605Y029620D01*
X007912Y029927D01*
X007605Y029927D01*
X007375Y029927D02*
X007375Y029620D01*
X007298Y029620D02*
X007452Y029620D01*
X007375Y029927D02*
X007298Y029927D01*
X007145Y029927D02*
X007068Y029927D01*
X006915Y029773D01*
X006915Y029620D02*
X006915Y029927D01*
X006761Y030004D02*
X006761Y029850D01*
X006684Y029773D01*
X006454Y029773D01*
X006454Y029620D02*
X006454Y030080D01*
X006684Y030080D01*
X006761Y030004D01*
X006301Y029927D02*
X006301Y029543D01*
X006224Y029467D01*
X006147Y029467D01*
X006070Y029620D02*
X006301Y029620D01*
X006070Y029620D02*
X005994Y029697D01*
X005994Y029927D01*
X005840Y029850D02*
X005840Y029620D01*
X005610Y029620D01*
X005533Y029697D01*
X005610Y029773D01*
X005840Y029773D01*
X005840Y029850D02*
X005764Y029927D01*
X005610Y029927D01*
X005380Y029927D02*
X005150Y029927D01*
X005073Y029850D01*
X005073Y029697D01*
X005150Y029620D01*
X005380Y029620D01*
X005380Y030080D01*
X004919Y029850D02*
X004919Y029620D01*
X004689Y029620D01*
X004613Y029697D01*
X004689Y029773D01*
X004919Y029773D01*
X004919Y029850D02*
X004843Y029927D01*
X004689Y029927D01*
X004459Y029927D02*
X004229Y029773D01*
X004459Y029620D01*
X004229Y029620D02*
X004229Y030080D01*
X004075Y029927D02*
X003845Y029927D01*
X003768Y029850D01*
X003768Y029697D01*
X003845Y029620D01*
X004075Y029620D01*
X003615Y029620D02*
X003385Y029620D01*
X003308Y029697D01*
X003385Y029773D01*
X003615Y029773D01*
X003615Y029850D02*
X003615Y029620D01*
X003615Y029850D02*
X003538Y029927D01*
X003385Y029927D01*
X003155Y029850D02*
X002848Y029850D01*
X002694Y029850D02*
X002694Y029773D01*
X002387Y029773D01*
X002387Y029697D02*
X002387Y029850D01*
X002464Y029927D01*
X002618Y029927D01*
X002694Y029850D01*
X002618Y029620D02*
X002464Y029620D01*
X002387Y029697D01*
X002234Y029620D02*
X002234Y029850D01*
X002157Y029927D01*
X002004Y029927D01*
X001927Y029850D01*
X001773Y029927D02*
X001620Y029927D01*
X001697Y030004D02*
X001697Y029697D01*
X001773Y029620D01*
X001927Y029620D02*
X001927Y030080D01*
X002694Y030467D02*
X002694Y030927D01*
X002924Y030927D01*
X003001Y030850D01*
X003001Y030697D01*
X002924Y030620D01*
X002694Y030620D01*
X002541Y030620D02*
X002464Y030697D01*
X002464Y031004D01*
X002387Y030927D02*
X002541Y030927D01*
X002234Y030927D02*
X002080Y030927D01*
X002157Y031004D02*
X002157Y030697D01*
X002234Y030620D01*
X001927Y030620D02*
X001927Y030850D01*
X001850Y030927D01*
X001697Y030927D01*
X001620Y030850D01*
X001620Y031080D02*
X001620Y030620D01*
X001620Y031620D02*
X001620Y031927D01*
X001773Y031927D02*
X001850Y031927D01*
X001773Y031927D02*
X001620Y031773D01*
X002004Y031773D02*
X002311Y031773D01*
X002311Y031850D01*
X002234Y031927D01*
X002080Y031927D01*
X002004Y031850D01*
X002004Y031697D01*
X002080Y031620D01*
X002234Y031620D01*
X002464Y031620D02*
X002618Y031620D01*
X002541Y031620D02*
X002541Y032080D01*
X002464Y032080D01*
X002771Y031850D02*
X002848Y031927D01*
X003001Y031927D01*
X003078Y031850D01*
X003078Y031773D01*
X002771Y031773D01*
X002771Y031697D02*
X002771Y031850D01*
X002771Y031697D02*
X002848Y031620D01*
X003001Y031620D01*
X003231Y031697D02*
X003308Y031620D01*
X003538Y031620D01*
X003538Y031850D01*
X003462Y031927D01*
X003308Y031927D01*
X003308Y031773D02*
X003538Y031773D01*
X003692Y031850D02*
X003768Y031927D01*
X003999Y031927D01*
X004152Y031850D02*
X004229Y031927D01*
X004382Y031927D01*
X004459Y031850D01*
X004459Y031773D01*
X004152Y031773D01*
X004152Y031697D02*
X004152Y031850D01*
X004152Y031697D02*
X004229Y031620D01*
X004382Y031620D01*
X004613Y031697D02*
X004689Y031620D01*
X004919Y031620D01*
X004919Y032080D01*
X004919Y031927D02*
X004689Y031927D01*
X004613Y031850D01*
X004613Y031697D01*
X003999Y031697D02*
X003922Y031620D01*
X003692Y031620D01*
X003768Y031773D02*
X003692Y031850D01*
X003768Y031773D02*
X003922Y031773D01*
X003999Y031697D01*
X003308Y031773D02*
X003231Y031697D01*
X003692Y031080D02*
X003385Y030620D01*
X003231Y030620D02*
X003155Y030620D01*
X003155Y030697D01*
X003231Y030697D01*
X003231Y030620D01*
X003231Y030850D02*
X003155Y030850D01*
X003155Y030927D01*
X003231Y030927D01*
X003231Y030850D01*
X003845Y030620D02*
X004152Y031080D01*
X004306Y031080D02*
X004306Y030620D01*
X004306Y030850D02*
X004382Y030927D01*
X004536Y030927D01*
X004613Y030850D01*
X004613Y030620D01*
X004766Y030697D02*
X004843Y030773D01*
X005073Y030773D01*
X005073Y030850D02*
X005073Y030620D01*
X004843Y030620D01*
X004766Y030697D01*
X004843Y030927D02*
X004996Y030927D01*
X005073Y030850D01*
X005226Y030850D02*
X005226Y030697D01*
X005303Y030620D01*
X005533Y030620D01*
X005687Y030620D02*
X005687Y031080D01*
X005533Y030927D02*
X005303Y030927D01*
X005226Y030850D01*
X005687Y030773D02*
X005917Y030927D01*
X006147Y030927D02*
X006301Y030927D01*
X006377Y030850D01*
X006377Y030620D01*
X006147Y030620D01*
X006070Y030697D01*
X006147Y030773D01*
X006377Y030773D01*
X006531Y030697D02*
X006531Y030850D01*
X006608Y030927D01*
X006838Y030927D01*
X006838Y031080D02*
X006838Y030620D01*
X006608Y030620D01*
X006531Y030697D01*
X006991Y030697D02*
X007068Y030773D01*
X007298Y030773D01*
X007298Y030850D02*
X007298Y030620D01*
X007068Y030620D01*
X006991Y030697D01*
X007068Y030927D02*
X007221Y030927D01*
X007298Y030850D01*
X007452Y030927D02*
X007452Y030697D01*
X007528Y030620D01*
X007759Y030620D01*
X007759Y030543D02*
X007759Y030927D01*
X007912Y030697D02*
X007989Y030697D01*
X007989Y030620D01*
X007912Y030620D01*
X007912Y030697D01*
X007759Y030543D02*
X007682Y030467D01*
X007605Y030467D01*
X007375Y030157D02*
X007375Y030080D01*
X008142Y030620D02*
X008296Y030620D01*
X008219Y030620D02*
X008219Y030927D01*
X008142Y030927D01*
X008219Y031080D02*
X008219Y031157D01*
X008449Y030850D02*
X008449Y030697D01*
X008526Y030620D01*
X008679Y030620D01*
X008756Y030697D01*
X008756Y030850D01*
X008679Y030927D01*
X008526Y030927D01*
X008449Y030850D01*
X008910Y030620D02*
X009216Y031080D01*
X009370Y030927D02*
X009600Y030927D01*
X009677Y030850D01*
X009677Y030697D01*
X009600Y030620D01*
X009370Y030620D01*
X009370Y030467D02*
X009370Y030927D01*
X009830Y030927D02*
X009830Y030620D01*
X009830Y030773D02*
X009984Y030927D01*
X010061Y030927D01*
X009984Y031620D02*
X010137Y031620D01*
X010214Y031697D01*
X010214Y031850D01*
X010061Y031850D01*
X010214Y032004D02*
X010137Y032080D01*
X009984Y032080D01*
X009907Y032004D01*
X009907Y031697D01*
X009984Y031620D01*
X010367Y031620D02*
X010367Y032080D01*
X010674Y031620D01*
X010674Y032080D01*
X010828Y032080D02*
X010828Y031697D01*
X010905Y031620D01*
X011058Y031620D01*
X011135Y031697D01*
X011135Y032080D01*
X009293Y031850D02*
X009293Y031773D01*
X008986Y031773D01*
X008986Y031697D02*
X008986Y031850D01*
X009063Y031927D01*
X009216Y031927D01*
X009293Y031850D01*
X009216Y031620D02*
X009063Y031620D01*
X008986Y031697D01*
X008833Y031620D02*
X008833Y031850D01*
X008756Y031927D01*
X008603Y031927D01*
X008526Y031850D01*
X008372Y031927D02*
X008219Y031927D01*
X008296Y032004D02*
X008296Y031697D01*
X008372Y031620D01*
X008526Y031620D02*
X008526Y032080D01*
X007605Y031927D02*
X007528Y031927D01*
X007375Y031773D01*
X007375Y031620D02*
X007375Y031927D01*
X007221Y031850D02*
X007221Y031773D01*
X006915Y031773D01*
X006915Y031697D02*
X006915Y031850D01*
X006991Y031927D01*
X007145Y031927D01*
X007221Y031850D01*
X007145Y031620D02*
X006991Y031620D01*
X006915Y031697D01*
X006761Y031620D02*
X006531Y031620D01*
X006454Y031697D01*
X006454Y031850D01*
X006531Y031927D01*
X006761Y031927D01*
X006761Y032080D02*
X006761Y031620D01*
X006301Y031620D02*
X006301Y031850D01*
X006224Y031927D01*
X005994Y031927D01*
X005994Y031620D01*
X005840Y031620D02*
X005840Y031927D01*
X005533Y031927D02*
X005533Y031697D01*
X005610Y031620D01*
X005840Y031620D01*
X005687Y030773D02*
X005917Y030620D01*
X003155Y030080D02*
X003155Y029620D01*
X002848Y029620D02*
X002848Y030080D01*
X010120Y027293D02*
X010120Y026986D01*
X010580Y026986D01*
X010580Y027293D01*
X010350Y027140D02*
X010350Y026986D01*
X010350Y026833D02*
X010427Y026756D01*
X010427Y026526D01*
X010580Y026526D02*
X010120Y026526D01*
X010120Y026756D01*
X010196Y026833D01*
X010350Y026833D01*
X010427Y026679D02*
X010580Y026833D01*
X010350Y026372D02*
X010350Y026065D01*
X010580Y025912D02*
X010580Y025605D01*
X010580Y025759D02*
X010120Y025759D01*
X010273Y025605D01*
X010196Y025452D02*
X010503Y025145D01*
X010580Y025221D01*
X010580Y025375D01*
X010503Y025452D01*
X010196Y025452D01*
X010120Y025375D01*
X010120Y025221D01*
X010196Y025145D01*
X010503Y025145D01*
X010350Y024991D02*
X010350Y024684D01*
X010120Y024915D01*
X010580Y024915D01*
X010350Y024377D02*
X010350Y024224D01*
X010580Y024224D02*
X010120Y024224D01*
X010120Y024531D01*
X010196Y023610D02*
X010120Y023533D01*
X010120Y023380D01*
X010196Y023303D01*
X010503Y023303D01*
X010580Y023380D01*
X010580Y023533D01*
X010503Y023610D01*
X010196Y023610D01*
X010120Y023150D02*
X010120Y022843D01*
X010580Y022843D01*
X010580Y023150D01*
X010350Y022996D02*
X010350Y022843D01*
X010580Y022689D02*
X010580Y022382D01*
X010120Y022382D01*
X010196Y022229D02*
X010120Y022152D01*
X010120Y021999D01*
X010196Y021922D01*
X010503Y021922D01*
X010580Y021999D01*
X010580Y022152D01*
X010503Y022229D01*
X010503Y021768D02*
X010120Y021768D01*
X010120Y021462D02*
X010503Y021462D01*
X010580Y021538D01*
X010580Y021692D01*
X010503Y021768D01*
X010580Y021308D02*
X010120Y021308D01*
X010120Y021001D02*
X010580Y021308D01*
X010580Y021001D02*
X010120Y021001D01*
X010120Y020387D02*
X010120Y020080D01*
X010120Y020234D02*
X010580Y020234D01*
X010503Y019927D02*
X010580Y019850D01*
X010580Y019697D01*
X010503Y019620D01*
X010350Y019697D02*
X010350Y019850D01*
X010427Y019927D01*
X010503Y019927D01*
X010350Y019697D02*
X010273Y019620D01*
X010196Y019620D01*
X010120Y019697D01*
X010120Y019850D01*
X010196Y019927D01*
X016890Y031773D02*
X016813Y031850D01*
X016890Y031927D01*
X017120Y031927D01*
X017043Y031773D02*
X016890Y031773D01*
X017043Y031773D02*
X017120Y031697D01*
D12*
X035100Y029100D02*
X035100Y021600D01*
X039100Y021600D01*
X039100Y029100D01*
X035100Y029100D01*
X040600Y028100D02*
X040600Y021600D01*
X046600Y021600D01*
X046600Y028100D01*
X040600Y028100D01*
X034100Y020100D02*
X050600Y020100D01*
X050600Y012100D01*
X034100Y012100D01*
X034100Y020100D01*
X045600Y019100D02*
X046100Y019100D01*
X046100Y018100D01*
X045600Y018600D02*
X045600Y013100D01*
X047600Y013100D01*
X047600Y018600D01*
X045600Y018600D01*
X046100Y013600D02*
X046100Y012600D01*
X045600Y012600D01*
X050600Y009600D02*
X050600Y001600D01*
X034100Y001600D01*
X034100Y009600D01*
X050600Y009600D01*
X047600Y008100D02*
X047600Y002600D01*
X045600Y002600D01*
X045600Y008100D01*
X047600Y008100D01*
X046100Y008600D02*
X046100Y007600D01*
X046100Y008600D02*
X045600Y008600D01*
X046100Y003100D02*
X046100Y002100D01*
X045600Y002100D01*
D13*
X041585Y023615D02*
X041338Y023615D01*
X041215Y023738D01*
X041338Y023862D01*
X041585Y023862D01*
X041585Y023983D02*
X041215Y023983D01*
X041215Y024230D01*
X041215Y024352D02*
X041215Y024537D01*
X041276Y024599D01*
X041400Y024599D01*
X041462Y024537D01*
X041462Y024352D01*
X041585Y024352D02*
X041215Y024352D01*
X041400Y024107D02*
X041400Y023983D01*
X041400Y023862D02*
X041400Y023615D01*
X041585Y024720D02*
X041585Y024843D01*
X041585Y024782D02*
X041215Y024782D01*
X041215Y024843D02*
X041215Y024720D01*
X041215Y024965D02*
X041215Y025151D01*
X041276Y025212D01*
X041523Y025212D01*
X041585Y025151D01*
X041585Y024965D01*
X041215Y024965D01*
X041338Y025334D02*
X041400Y025334D01*
X041400Y025396D01*
X041338Y025396D01*
X041338Y025334D01*
X041338Y025518D02*
X041215Y025641D01*
X041585Y025641D01*
X041585Y025518D02*
X041585Y025765D01*
X041523Y025886D02*
X041585Y025948D01*
X041585Y026071D01*
X041523Y026133D01*
X041462Y026133D01*
X041400Y026071D01*
X041400Y025886D01*
X041523Y025886D01*
X041400Y025886D02*
X041276Y026010D01*
X041215Y026133D01*
X041276Y026255D02*
X041215Y026316D01*
X041215Y026440D01*
X041276Y026501D01*
X041523Y026255D01*
X041585Y026316D01*
X041585Y026440D01*
X041523Y026501D01*
X041276Y026501D01*
X041276Y026623D02*
X041215Y026685D01*
X041215Y026808D01*
X041276Y026870D01*
X041338Y026870D01*
X041400Y026808D01*
X041462Y026870D01*
X041523Y026870D01*
X041585Y026808D01*
X041585Y026685D01*
X041523Y026623D01*
X041400Y026746D02*
X041400Y026808D01*
X041523Y026255D02*
X041276Y026255D01*
X041523Y025396D02*
X041585Y025396D01*
X041585Y025334D01*
X041523Y025334D01*
X041523Y025396D01*
X036085Y025272D02*
X036085Y025519D01*
X036085Y025641D02*
X035715Y025641D01*
X036085Y025888D01*
X035715Y025888D01*
X035900Y026009D02*
X035900Y026256D01*
X036023Y026377D02*
X035776Y026624D01*
X036023Y026624D01*
X036085Y026563D01*
X036085Y026439D01*
X036023Y026377D01*
X035776Y026377D01*
X035715Y026439D01*
X035715Y026563D01*
X035776Y026624D01*
X035776Y026746D02*
X035838Y026746D01*
X035900Y026807D01*
X035900Y026993D01*
X035900Y027114D02*
X035838Y027237D01*
X035838Y027299D01*
X035900Y027361D01*
X036023Y027361D01*
X036085Y027299D01*
X036085Y027176D01*
X036023Y027114D01*
X036023Y026993D02*
X035776Y026993D01*
X035715Y026931D01*
X035715Y026807D01*
X035776Y026746D01*
X036023Y026746D02*
X036085Y026807D01*
X036085Y026931D01*
X036023Y026993D01*
X035900Y027114D02*
X035715Y027114D01*
X035715Y027361D01*
X035900Y027482D02*
X035900Y027667D01*
X035962Y027729D01*
X036023Y027729D01*
X036085Y027667D01*
X036085Y027544D01*
X036023Y027482D01*
X035900Y027482D01*
X035776Y027606D01*
X035715Y027729D01*
X035776Y027851D02*
X035838Y027851D01*
X035900Y027912D01*
X035900Y028097D01*
X036023Y028097D02*
X035776Y028097D01*
X035715Y028036D01*
X035715Y027912D01*
X035776Y027851D01*
X036023Y027851D02*
X036085Y027912D01*
X036085Y028036D01*
X036023Y028097D01*
X035715Y025519D02*
X035715Y025272D01*
X036085Y025272D01*
X036023Y025151D02*
X036085Y025089D01*
X036085Y024966D01*
X036023Y024904D01*
X036023Y024782D02*
X036085Y024782D01*
X036085Y024720D01*
X036023Y024720D01*
X036023Y024782D01*
X035900Y024782D02*
X035900Y024720D01*
X035838Y024720D01*
X035838Y024782D01*
X035900Y024782D01*
X035838Y024904D02*
X035900Y024966D01*
X035900Y025089D01*
X035962Y025151D01*
X036023Y025151D01*
X035900Y025272D02*
X035900Y025396D01*
X035776Y025151D02*
X035715Y025089D01*
X035715Y024966D01*
X035776Y024904D01*
X035838Y024904D01*
X035715Y024599D02*
X035715Y024352D01*
X036085Y024352D01*
X036085Y024599D01*
X035900Y024475D02*
X035900Y024352D01*
X035715Y024230D02*
X035715Y023983D01*
X036085Y023983D01*
X036023Y023862D02*
X036085Y023800D01*
X036085Y023677D01*
X036023Y023615D01*
X035900Y023677D02*
X035900Y023800D01*
X035962Y023862D01*
X036023Y023862D01*
X035900Y023983D02*
X035900Y024107D01*
X035776Y023862D02*
X035715Y023800D01*
X035715Y023677D01*
X035776Y023615D01*
X035838Y023615D01*
X035900Y023677D01*
D14*
X001100Y029100D02*
X001100Y002100D01*
X011600Y002100D01*
X011600Y029100D01*
X001100Y029100D01*
X011600Y029100D02*
X033600Y029100D01*
X033600Y002100D01*
X011600Y002100D01*
D15*
X034600Y002350D02*
X034850Y002100D01*
X035350Y002100D01*
X035600Y002350D01*
X035600Y002850D01*
X035350Y003100D01*
X035600Y003350D01*
X035600Y003850D01*
X035350Y004100D01*
X035600Y004350D01*
X035600Y004850D01*
X035350Y005100D01*
X035600Y005350D01*
X035600Y005850D01*
X035350Y006100D01*
X035600Y006350D01*
X035600Y006850D01*
X035350Y007100D01*
X035600Y007350D01*
X035600Y007850D01*
X035350Y008100D01*
X035600Y008350D01*
X035600Y008850D01*
X035350Y009100D01*
X034850Y009100D01*
X034600Y008850D01*
X034600Y008350D01*
X034850Y008100D01*
X034600Y007850D01*
X034600Y007350D01*
X034850Y007100D01*
X034600Y006850D01*
X034600Y006350D01*
X034850Y006100D01*
X034600Y005850D01*
X034600Y005350D01*
X034850Y005100D01*
X034600Y004850D01*
X034600Y004350D01*
X034850Y004100D01*
X034600Y003850D01*
X034600Y003350D01*
X034850Y003100D01*
X034600Y002850D01*
X034600Y002350D01*
X037100Y002350D02*
X037100Y002850D01*
X037350Y003100D01*
X037850Y003100D01*
X038100Y002850D01*
X038350Y003100D01*
X038850Y003100D01*
X039100Y002850D01*
X039100Y002350D01*
X038850Y002100D01*
X038350Y002100D01*
X038100Y002350D01*
X037850Y002100D01*
X037350Y002100D01*
X037100Y002350D01*
X049100Y002350D02*
X049100Y002850D01*
X049350Y003100D01*
X049100Y003350D01*
X049100Y003850D01*
X049350Y004100D01*
X049100Y004350D01*
X049100Y004850D01*
X049350Y005100D01*
X049100Y005350D01*
X049100Y005850D01*
X049350Y006100D01*
X049100Y006350D01*
X049100Y006850D01*
X049350Y007100D01*
X049100Y007350D01*
X049100Y007850D01*
X049350Y008100D01*
X049100Y008350D01*
X049100Y008850D01*
X049350Y009100D01*
X049850Y009100D01*
X050100Y008850D01*
X050100Y008350D01*
X049850Y008100D01*
X050100Y007850D01*
X050100Y007350D01*
X049850Y007100D01*
X050100Y006850D01*
X050100Y006350D01*
X049850Y006100D01*
X050100Y005850D01*
X050100Y005350D01*
X049850Y005100D01*
X050100Y004850D01*
X050100Y004350D01*
X049850Y004100D01*
X050100Y003850D01*
X050100Y003350D01*
X049850Y003100D01*
X050100Y002850D01*
X050100Y002350D01*
X049850Y002100D01*
X049350Y002100D01*
X049100Y002350D01*
X052600Y002350D02*
X052850Y002100D01*
X053350Y002100D01*
X053600Y002350D01*
X053600Y002850D01*
X053350Y003100D01*
X053600Y003350D01*
X053600Y003850D01*
X053350Y004100D01*
X053600Y004350D01*
X053600Y004850D01*
X053350Y005100D01*
X052850Y005100D01*
X052600Y004850D01*
X052600Y004350D01*
X052850Y004100D01*
X052600Y003850D01*
X052600Y003350D01*
X052850Y003100D01*
X052600Y002850D01*
X052600Y002350D01*
X055261Y001911D02*
X057702Y001911D01*
X057702Y004667D01*
X058017Y004667D01*
X058017Y001911D01*
X057702Y001911D01*
X055261Y001911D02*
X055261Y004667D01*
X057702Y004667D01*
X056850Y008100D02*
X056350Y008100D01*
X056100Y008350D01*
X056100Y008850D01*
X056350Y009100D01*
X056100Y009350D01*
X056100Y009850D01*
X056350Y010100D01*
X056100Y010350D01*
X056100Y010850D01*
X056350Y011100D01*
X056850Y011100D01*
X057100Y010850D01*
X057100Y010350D01*
X056850Y010100D01*
X057100Y009850D01*
X057100Y009350D01*
X056850Y009100D01*
X057100Y008850D01*
X057100Y008350D01*
X056850Y008100D01*
X053600Y008350D02*
X053350Y008100D01*
X052850Y008100D01*
X052600Y008350D01*
X052600Y008850D01*
X052850Y009100D01*
X052600Y009350D01*
X052600Y009850D01*
X052850Y010100D01*
X052600Y010350D01*
X052600Y010850D01*
X052850Y011100D01*
X053350Y011100D01*
X053600Y010850D01*
X053600Y010350D01*
X053350Y010100D01*
X053600Y009850D01*
X053600Y009350D01*
X053350Y009100D01*
X053600Y008850D01*
X053600Y008350D01*
X049850Y012600D02*
X049350Y012600D01*
X049100Y012850D01*
X049100Y013350D01*
X049350Y013600D01*
X049100Y013850D01*
X049100Y014350D01*
X049350Y014600D01*
X049100Y014850D01*
X049100Y015350D01*
X049350Y015600D01*
X049100Y015850D01*
X049100Y016350D01*
X049350Y016600D01*
X049100Y016850D01*
X049100Y017350D01*
X049350Y017600D01*
X049100Y017850D01*
X049100Y018350D01*
X049350Y018600D01*
X049100Y018850D01*
X049100Y019350D01*
X049350Y019600D01*
X049850Y019600D01*
X050100Y019350D01*
X050100Y018850D01*
X049850Y018600D01*
X050100Y018350D01*
X050100Y017850D01*
X049850Y017600D01*
X050100Y017350D01*
X050100Y016850D01*
X049850Y016600D01*
X050100Y016350D01*
X050100Y015850D01*
X049850Y015600D01*
X050100Y015350D01*
X050100Y014850D01*
X049850Y014600D01*
X050100Y014350D01*
X050100Y013850D01*
X049850Y013600D01*
X050100Y013350D01*
X050100Y012850D01*
X049850Y012600D01*
X052600Y014850D02*
X052850Y014600D01*
X053350Y014600D01*
X053600Y014850D01*
X053600Y015350D01*
X053350Y015600D01*
X053600Y015850D01*
X053600Y016350D01*
X053350Y016600D01*
X052850Y016600D01*
X052600Y016350D01*
X052600Y015850D01*
X052850Y015600D01*
X052600Y015350D01*
X052600Y014850D01*
X056100Y014850D02*
X056350Y014600D01*
X056850Y014600D01*
X057100Y014850D01*
X057100Y015350D01*
X056850Y015600D01*
X057100Y015850D01*
X057100Y016350D01*
X056850Y016600D01*
X057100Y016850D01*
X057100Y017350D01*
X056850Y017600D01*
X056350Y017600D01*
X056100Y017350D01*
X056100Y016850D01*
X056350Y016600D01*
X056100Y016350D01*
X056100Y015850D01*
X056350Y015600D01*
X056100Y015350D01*
X056100Y014850D01*
X056350Y021100D02*
X056100Y021350D01*
X056100Y021850D01*
X056350Y022100D01*
X056100Y022350D01*
X056100Y022850D01*
X056350Y023100D01*
X056100Y023350D01*
X056100Y023850D01*
X056350Y024100D01*
X056850Y024100D01*
X057100Y023850D01*
X057100Y023350D01*
X056850Y023100D01*
X057100Y022850D01*
X057100Y022350D01*
X056850Y022100D01*
X057100Y021850D01*
X057100Y021350D01*
X056850Y021100D01*
X056350Y021100D01*
X053600Y021350D02*
X053350Y021100D01*
X052850Y021100D01*
X052600Y021350D01*
X052600Y021850D01*
X052850Y022100D01*
X052600Y022350D01*
X052600Y022850D01*
X052850Y023100D01*
X052600Y023350D01*
X052600Y023850D01*
X052850Y024100D01*
X053350Y024100D01*
X053600Y023850D01*
X053600Y023350D01*
X053350Y023100D01*
X053600Y022850D01*
X053600Y022350D01*
X053350Y022100D01*
X053600Y021850D01*
X053600Y021350D01*
X054328Y025624D02*
X054328Y033576D01*
X057872Y033576D01*
X057872Y030466D01*
X057281Y030466D01*
X057281Y028734D01*
X057872Y028734D01*
X057872Y025624D01*
X054368Y025624D01*
X057193Y027350D02*
X057193Y027850D01*
X057872Y028734D02*
X057872Y030466D01*
X046100Y022850D02*
X046100Y022350D01*
X045850Y022100D01*
X045350Y022100D01*
X045100Y022350D01*
X044850Y022100D01*
X044350Y022100D01*
X044100Y022350D01*
X043850Y022100D01*
X043350Y022100D01*
X043100Y022350D01*
X042850Y022100D01*
X042350Y022100D01*
X042100Y022350D01*
X041850Y022100D01*
X041350Y022100D01*
X041100Y022350D01*
X041100Y022850D01*
X041350Y023100D01*
X041850Y023100D01*
X042100Y022850D01*
X042350Y023100D01*
X042850Y023100D01*
X043100Y022850D01*
X043350Y023100D01*
X043850Y023100D01*
X044100Y022850D01*
X044350Y023100D01*
X044850Y023100D01*
X045100Y022850D01*
X045350Y023100D01*
X045850Y023100D01*
X046100Y022850D01*
X038600Y022850D02*
X038600Y022350D01*
X038350Y022100D01*
X037850Y022100D01*
X037600Y022350D01*
X037350Y022100D01*
X036850Y022100D01*
X036600Y022350D01*
X036350Y022100D01*
X035850Y022100D01*
X035600Y022350D01*
X035600Y022850D01*
X035850Y023100D01*
X036350Y023100D01*
X036600Y022850D01*
X036850Y023100D01*
X037350Y023100D01*
X037600Y022850D01*
X037850Y023100D01*
X038350Y023100D01*
X038600Y022850D01*
X035350Y019600D02*
X034850Y019600D01*
X034600Y019350D01*
X034600Y018850D01*
X034850Y018600D01*
X034600Y018350D01*
X034600Y017850D01*
X034850Y017600D01*
X034600Y017350D01*
X034600Y016850D01*
X034850Y016600D01*
X034600Y016350D01*
X034600Y015850D01*
X034850Y015600D01*
X034600Y015350D01*
X034600Y014850D01*
X034850Y014600D01*
X034600Y014350D01*
X034600Y013850D01*
X034850Y013600D01*
X034600Y013350D01*
X034600Y012850D01*
X034850Y012600D01*
X035350Y012600D01*
X035600Y012850D01*
X035600Y013350D01*
X035350Y013600D01*
X035600Y013850D01*
X035600Y014350D01*
X035350Y014600D01*
X035600Y014850D01*
X035600Y015350D01*
X035350Y015600D01*
X035600Y015850D01*
X035600Y016350D01*
X035350Y016600D01*
X035600Y016850D01*
X035600Y017350D01*
X035350Y017600D01*
X035600Y017850D01*
X035600Y018350D01*
X035350Y018600D01*
X035600Y018850D01*
X035600Y019350D01*
X035350Y019600D01*
X037350Y013600D02*
X037850Y013600D01*
X038100Y013350D01*
X038350Y013600D01*
X038850Y013600D01*
X039100Y013350D01*
X039100Y012850D01*
X038850Y012600D01*
X038350Y012600D01*
X038100Y012850D01*
X037850Y012600D01*
X037350Y012600D01*
X037100Y012850D01*
X037100Y013350D01*
X037350Y013600D01*
D16*
X019448Y032014D02*
X019686Y032252D01*
X019403Y032598D01*
X019454Y032690D01*
X019494Y032786D01*
X019523Y032887D01*
X019968Y032932D01*
X019968Y033268D01*
X019523Y033313D01*
X019494Y033414D01*
X019454Y033510D01*
X019403Y033602D01*
X019686Y033948D01*
X019448Y034186D01*
X019102Y033903D01*
X019010Y033954D01*
X018914Y033994D01*
X018813Y034023D01*
X018768Y034468D01*
X018432Y034468D01*
X018387Y034023D01*
X018286Y033994D01*
X018190Y033954D01*
X018098Y033903D01*
X017752Y034186D01*
X017514Y033948D01*
X017797Y033602D01*
X017746Y033510D01*
X017706Y033414D01*
X017677Y033313D01*
X017232Y033268D01*
X017232Y032932D01*
X017677Y032887D01*
X017706Y032786D01*
X017746Y032690D01*
X017797Y032598D01*
X017514Y032252D01*
X017752Y032014D01*
X018098Y032297D01*
X018166Y032258D01*
X018237Y032225D01*
X018435Y032702D01*
X018371Y032735D01*
X018313Y032779D01*
X018263Y032832D01*
X018223Y032892D01*
X018194Y032958D01*
X018175Y033028D01*
X018169Y033100D01*
X018177Y033180D01*
X018199Y033258D01*
X018236Y033330D01*
X018285Y033394D01*
X018346Y033448D01*
X018415Y033489D01*
X018491Y033517D01*
X018571Y033530D01*
X018651Y033528D01*
X018730Y033510D01*
X018805Y033479D01*
X018872Y033434D01*
X018929Y033377D01*
X018975Y033311D01*
X019008Y033237D01*
X019027Y033159D01*
X019030Y033078D01*
X019018Y032998D01*
X018992Y032922D01*
X018952Y032852D01*
X018899Y032790D01*
X018836Y032740D01*
X018765Y032702D01*
X018963Y032225D01*
X019034Y032258D01*
X019102Y032297D01*
X019448Y032014D01*
X019477Y032043D02*
X019413Y032043D01*
X019342Y032101D02*
X019535Y032101D01*
X019593Y032158D02*
X019272Y032158D01*
X019201Y032216D02*
X019650Y032216D01*
X019668Y032273D02*
X019130Y032273D01*
X019061Y032273D02*
X018942Y032273D01*
X018919Y032331D02*
X019621Y032331D01*
X019574Y032389D02*
X018895Y032389D01*
X018871Y032446D02*
X019527Y032446D01*
X019480Y032504D02*
X018847Y032504D01*
X018823Y032561D02*
X019433Y032561D01*
X019415Y032619D02*
X018799Y032619D01*
X018776Y032676D02*
X019447Y032676D01*
X019472Y032734D02*
X018825Y032734D01*
X018900Y032791D02*
X019495Y032791D01*
X019512Y032849D02*
X018950Y032849D01*
X018983Y032907D02*
X019717Y032907D01*
X019968Y032964D02*
X019007Y032964D01*
X019022Y033022D02*
X019968Y033022D01*
X019968Y033079D02*
X019030Y033079D01*
X019028Y033137D02*
X019968Y033137D01*
X019968Y033194D02*
X019018Y033194D01*
X019002Y033252D02*
X019968Y033252D01*
X019559Y033309D02*
X018976Y033309D01*
X018937Y033367D02*
X019507Y033367D01*
X019489Y033425D02*
X018881Y033425D01*
X018797Y033482D02*
X019466Y033482D01*
X019438Y033540D02*
X017762Y033540D01*
X017734Y033482D02*
X018404Y033482D01*
X018320Y033425D02*
X017711Y033425D01*
X017693Y033367D02*
X018264Y033367D01*
X018226Y033309D02*
X017641Y033309D01*
X017794Y033597D02*
X019406Y033597D01*
X019446Y033655D02*
X017754Y033655D01*
X017707Y033712D02*
X019493Y033712D01*
X019540Y033770D02*
X017660Y033770D01*
X017613Y033827D02*
X019587Y033827D01*
X019634Y033885D02*
X017566Y033885D01*
X017519Y033943D02*
X018050Y033943D01*
X017979Y034000D02*
X017566Y034000D01*
X017623Y034058D02*
X017909Y034058D01*
X017838Y034115D02*
X017681Y034115D01*
X017739Y034173D02*
X017768Y034173D01*
X018169Y033943D02*
X019031Y033943D01*
X019150Y033943D02*
X019681Y033943D01*
X019634Y034000D02*
X019221Y034000D01*
X019291Y034058D02*
X019577Y034058D01*
X019519Y034115D02*
X019362Y034115D01*
X019432Y034173D02*
X019461Y034173D01*
X018892Y034000D02*
X018308Y034000D01*
X018390Y034058D02*
X018810Y034058D01*
X018804Y034115D02*
X018396Y034115D01*
X018402Y034173D02*
X018798Y034173D01*
X018792Y034230D02*
X018408Y034230D01*
X018414Y034288D02*
X018786Y034288D01*
X018780Y034345D02*
X018420Y034345D01*
X018426Y034403D02*
X018774Y034403D01*
X018769Y034461D02*
X018431Y034461D01*
X018198Y033252D02*
X017232Y033252D01*
X017232Y033194D02*
X018181Y033194D01*
X018173Y033137D02*
X017232Y033137D01*
X017232Y033079D02*
X018171Y033079D01*
X018177Y033022D02*
X017232Y033022D01*
X017232Y032964D02*
X018192Y032964D01*
X018216Y032907D02*
X017483Y032907D01*
X017688Y032849D02*
X018252Y032849D01*
X018301Y032791D02*
X017705Y032791D01*
X017728Y032734D02*
X018374Y032734D01*
X018424Y032676D02*
X017753Y032676D01*
X017785Y032619D02*
X018401Y032619D01*
X018377Y032561D02*
X017767Y032561D01*
X017720Y032504D02*
X018353Y032504D01*
X018329Y032446D02*
X017673Y032446D01*
X017626Y032389D02*
X018305Y032389D01*
X018281Y032331D02*
X017579Y032331D01*
X017532Y032273D02*
X018070Y032273D01*
X018139Y032273D02*
X018258Y032273D01*
X017999Y032216D02*
X017550Y032216D01*
X017607Y032158D02*
X017928Y032158D01*
X017858Y032101D02*
X017665Y032101D01*
X017723Y032043D02*
X017787Y032043D01*
M02*
