%
M48
M72
T01C0.0236
T02C0.0276
T03C0.0315
T04C0.0400
T05C0.0472
%
T01
X12100Y6100
X33100Y20600
X13100Y25600
T02
X15600Y29600
X39100Y25600
X46600Y22600
X47100Y21600
X47600Y24600
X38600Y15100
X38600Y12100
X39600Y12100
X38100Y10100
X37600Y9600
X38600Y7600
X33100Y10600
X32600Y9600
X34600Y11600
X27100Y11600
X26100Y10600
X55600Y12100
T03
X3100Y3100
X4100Y3100
X14100Y3100
X15100Y3100
X16100Y3100
X17100Y3100
X18100Y3100
X19100Y3100
X20100Y3100
X21100Y3100
X22100Y3100
X23100Y3100
X24100Y3100
X25100Y3100
X26100Y3100
X27100Y3100
X28100Y3100
X29100Y3100
X30100Y3100
X31100Y3100
X32100Y3100
X32100Y4100
X31100Y4100
X30100Y4100
X29100Y4100
X28100Y4100
X27100Y4100
X26100Y4100
X25100Y4100
X24100Y4100
X23100Y4100
X22100Y4100
X21100Y4100
X20100Y4100
X19100Y4100
X18100Y4100
X17100Y4100
X16100Y4100
X15100Y4100
X14100Y4100
X14100Y27100
X14100Y28100
X15100Y28100
X15100Y27100
X16100Y27100
X17100Y27100
X17100Y28100
X16100Y28100
X18100Y28100
X18100Y27100
X19100Y27100
X20100Y27100
X20100Y28100
X19100Y28100
X21100Y28100
X21100Y27100
X22100Y27100
X22100Y28100
X23100Y28100
X24100Y28100
X24100Y27100
X23100Y27100
X25100Y27100
X25100Y28100
X26100Y28100
X27100Y28100
X27100Y27100
X26100Y27100
X28100Y27100
X28100Y28100
X29100Y28100
X30100Y28100
X30100Y27100
X29100Y27100
X31100Y27100
X31100Y28100
X32100Y28100
X32100Y27100
X4100Y28100
X3100Y28100
T04
X35100Y19100
X35100Y18100
X35100Y17100
X35100Y16100
X35100Y15100
X35100Y14100
X35100Y13100
X37600Y13100
X38600Y13100
X35100Y8600
X35100Y7600
X35100Y6600
X35100Y5600
X35100Y4600
X35100Y3600
X35100Y2600
X37600Y2600
X38600Y2600
X49600Y2600
X49600Y3600
X49600Y4600
X49600Y5600
X49600Y6600
X49600Y7600
X49600Y8600
X53100Y8600
X53100Y9600
X53100Y10600
X56600Y10600
X56600Y9600
X56600Y8600
X53100Y4600
X53100Y3600
X53100Y2600
X49600Y13100
X49600Y14100
X49600Y15100
X49600Y16100
X49600Y17100
X49600Y18100
X49600Y19100
X53100Y21600
X53100Y22600
X53100Y23600
X56600Y23600
X56600Y22600
X56600Y21600
X56600Y17100
X56600Y16100
X56600Y15100
X53100Y15100
X53100Y16100
X45600Y22600
X44600Y22600
X43600Y22600
X42600Y22600
X41600Y22600
X38100Y22600
X37100Y22600
X36100Y22600
X55600Y27600
X56600Y27600
X56600Y28600
X55600Y28600
X55600Y29600
X56600Y29600
X56600Y30600
X56600Y31600
X55600Y31600
X55600Y30600
T05
X56600Y3978
X56600Y2600
M30
