G75*
G70*
%OFA0B0*%
%FSLAX24Y24*%
%IPPOS*%
%LPD*%
%AMOC8*
5,1,8,0,0,1.08239X$1,22.5*
%
%ADD10C,0.0000*%
%ADD11R,0.0555X0.0555*%
%ADD12C,0.0740*%
%ADD13R,0.0630X0.0787*%
%ADD14OC8,0.0740*%
%ADD15R,0.0800X0.0800*%
%ADD16C,0.0800*%
%ADD17C,0.0160*%
%ADD18C,0.0100*%
%ADD19C,0.0476*%
D10*
X000100Y000100D02*
X000100Y035470D01*
X059092Y035470D01*
X059092Y000100D01*
X000100Y000100D01*
X011982Y006100D02*
X011984Y006121D01*
X011990Y006141D01*
X011999Y006161D01*
X012011Y006178D01*
X012026Y006192D01*
X012044Y006204D01*
X012064Y006212D01*
X012084Y006217D01*
X012105Y006218D01*
X012126Y006215D01*
X012146Y006209D01*
X012165Y006198D01*
X012182Y006185D01*
X012195Y006169D01*
X012206Y006151D01*
X012214Y006131D01*
X012218Y006111D01*
X012218Y006089D01*
X012214Y006069D01*
X012206Y006049D01*
X012195Y006031D01*
X012182Y006015D01*
X012165Y006002D01*
X012146Y005991D01*
X012126Y005985D01*
X012105Y005982D01*
X012084Y005983D01*
X012064Y005988D01*
X012044Y005996D01*
X012026Y006008D01*
X012011Y006022D01*
X011999Y006039D01*
X011990Y006059D01*
X011984Y006079D01*
X011982Y006100D01*
X032982Y020600D02*
X032984Y020621D01*
X032990Y020641D01*
X032999Y020661D01*
X033011Y020678D01*
X033026Y020692D01*
X033044Y020704D01*
X033064Y020712D01*
X033084Y020717D01*
X033105Y020718D01*
X033126Y020715D01*
X033146Y020709D01*
X033165Y020698D01*
X033182Y020685D01*
X033195Y020669D01*
X033206Y020651D01*
X033214Y020631D01*
X033218Y020611D01*
X033218Y020589D01*
X033214Y020569D01*
X033206Y020549D01*
X033195Y020531D01*
X033182Y020515D01*
X033165Y020502D01*
X033146Y020491D01*
X033126Y020485D01*
X033105Y020482D01*
X033084Y020483D01*
X033064Y020488D01*
X033044Y020496D01*
X033026Y020508D01*
X033011Y020522D01*
X032999Y020539D01*
X032990Y020559D01*
X032984Y020579D01*
X032982Y020600D01*
X012982Y025600D02*
X012984Y025621D01*
X012990Y025641D01*
X012999Y025661D01*
X013011Y025678D01*
X013026Y025692D01*
X013044Y025704D01*
X013064Y025712D01*
X013084Y025717D01*
X013105Y025718D01*
X013126Y025715D01*
X013146Y025709D01*
X013165Y025698D01*
X013182Y025685D01*
X013195Y025669D01*
X013206Y025651D01*
X013214Y025631D01*
X013218Y025611D01*
X013218Y025589D01*
X013214Y025569D01*
X013206Y025549D01*
X013195Y025531D01*
X013182Y025515D01*
X013165Y025502D01*
X013146Y025491D01*
X013126Y025485D01*
X013105Y025482D01*
X013084Y025483D01*
X013064Y025488D01*
X013044Y025496D01*
X013026Y025508D01*
X013011Y025522D01*
X012999Y025539D01*
X012990Y025559D01*
X012984Y025579D01*
X012982Y025600D01*
D11*
X014100Y027100D03*
X014100Y028100D03*
X015100Y028100D03*
X015100Y027100D03*
X016100Y027100D03*
X017100Y027100D03*
X017100Y028100D03*
X016100Y028100D03*
X018100Y028100D03*
X018100Y027100D03*
X019100Y027100D03*
X020100Y027100D03*
X020100Y028100D03*
X019100Y028100D03*
X021100Y028100D03*
X021100Y027100D03*
X022100Y027100D03*
X022100Y028100D03*
X023100Y028100D03*
X024100Y028100D03*
X024100Y027100D03*
X023100Y027100D03*
X025100Y027100D03*
X025100Y028100D03*
X026100Y028100D03*
X027100Y028100D03*
X027100Y027100D03*
X026100Y027100D03*
X028100Y027100D03*
X028100Y028100D03*
X029100Y028100D03*
X030100Y028100D03*
X030100Y027100D03*
X029100Y027100D03*
X031100Y027100D03*
X031100Y028100D03*
X032100Y028100D03*
X032100Y027100D03*
X004100Y028100D03*
X003100Y028100D03*
X014100Y004100D03*
X015100Y004100D03*
X016100Y004100D03*
X017100Y004100D03*
X018100Y004100D03*
X019100Y004100D03*
X020100Y004100D03*
X021100Y004100D03*
X022100Y004100D03*
X023100Y004100D03*
X024100Y004100D03*
X025100Y004100D03*
X026100Y004100D03*
X027100Y004100D03*
X028100Y004100D03*
X029100Y004100D03*
X030100Y004100D03*
X031100Y004100D03*
X032100Y004100D03*
X032100Y003100D03*
X031100Y003100D03*
X030100Y003100D03*
X029100Y003100D03*
X028100Y003100D03*
X027100Y003100D03*
X026100Y003100D03*
X025100Y003100D03*
X024100Y003100D03*
X023100Y003100D03*
X022100Y003100D03*
X021100Y003100D03*
X020100Y003100D03*
X019100Y003100D03*
X018100Y003100D03*
X017100Y003100D03*
X016100Y003100D03*
X015100Y003100D03*
X014100Y003100D03*
X004100Y003100D03*
X003100Y003100D03*
D12*
X035100Y002600D03*
X035100Y003600D03*
X035100Y004600D03*
X035100Y005600D03*
X035100Y006600D03*
X035100Y007600D03*
X035100Y008600D03*
X035100Y013100D03*
X035100Y014100D03*
X035100Y015100D03*
X035100Y016100D03*
X035100Y017100D03*
X035100Y018100D03*
X035100Y019100D03*
X036100Y022600D03*
X037100Y022600D03*
X038100Y022600D03*
X041600Y022600D03*
X042600Y022600D03*
X043600Y022600D03*
X044600Y022600D03*
X045600Y022600D03*
X049600Y019100D03*
X049600Y018100D03*
X049600Y017100D03*
X049600Y016100D03*
X049600Y015100D03*
X049600Y014100D03*
X049600Y013100D03*
X053100Y015100D03*
X053100Y016100D03*
X056600Y016100D03*
X056600Y015100D03*
X056600Y017100D03*
X056600Y021600D03*
X056600Y022600D03*
X056600Y023600D03*
X053100Y023600D03*
X053100Y022600D03*
X053100Y021600D03*
X038600Y013100D03*
X037600Y013100D03*
X049600Y008600D03*
X049600Y007600D03*
X049600Y006600D03*
X049600Y005600D03*
X049600Y004600D03*
X049600Y003600D03*
X049600Y002600D03*
X053100Y002600D03*
X053100Y003600D03*
X053100Y004600D03*
X053100Y008600D03*
X053100Y009600D03*
X053100Y010600D03*
X056600Y010600D03*
X056600Y009600D03*
X056600Y008600D03*
X038600Y002600D03*
X037600Y002600D03*
D13*
X049549Y024600D03*
X050651Y024600D03*
D14*
X055600Y027600D03*
X056600Y027600D03*
X056600Y028600D03*
X055600Y028600D03*
X055600Y029600D03*
X056600Y029600D03*
X056600Y030600D03*
X056600Y031600D03*
X055600Y031600D03*
X055600Y030600D03*
D15*
X056600Y002600D03*
D16*
X056600Y003978D03*
D17*
X055100Y002600D02*
X055100Y007100D01*
X056600Y008600D01*
X056600Y009600D02*
X056100Y009600D01*
X053600Y012100D01*
X039600Y012100D01*
X039600Y011100D02*
X038600Y012100D01*
X037600Y012100D02*
X038600Y013100D01*
X037600Y013100D02*
X037100Y012600D01*
X037100Y010100D01*
X037600Y009600D01*
X038100Y010100D02*
X037600Y010600D01*
X037600Y012100D01*
X036100Y012600D02*
X035600Y012100D01*
X033600Y012100D01*
X032600Y011100D01*
X032600Y009600D01*
X033100Y010600D02*
X034600Y010600D01*
X036600Y008600D01*
X036600Y007600D01*
X043100Y001100D01*
X053600Y001100D01*
X055100Y002600D01*
X053100Y003600D02*
X052600Y003600D01*
X051600Y004600D01*
X051600Y009600D01*
X052600Y010600D01*
X053100Y010600D01*
X054100Y011100D02*
X053600Y011600D01*
X040600Y011600D01*
X040100Y011100D01*
X039600Y011100D01*
X036100Y012600D02*
X036100Y013600D01*
X037600Y015100D01*
X038600Y015100D01*
X035100Y016100D02*
X034600Y016100D01*
X032100Y013600D01*
X032100Y004100D01*
X031100Y004100D02*
X031100Y013600D01*
X034600Y017100D01*
X035100Y017100D01*
X035100Y018100D02*
X034600Y018100D01*
X030100Y013600D01*
X030100Y004100D01*
X029100Y004100D02*
X029100Y013600D01*
X034600Y019100D01*
X035100Y019100D01*
X036600Y021600D02*
X023100Y021600D01*
X019100Y025600D01*
X019100Y027100D01*
X018100Y027100D02*
X018100Y026600D01*
X017600Y026100D01*
X013600Y026100D01*
X013100Y026600D01*
X013100Y029100D01*
X013600Y029600D01*
X015600Y029600D01*
X016100Y028600D02*
X016100Y028100D01*
X016100Y028600D02*
X017600Y030100D01*
X054100Y030100D01*
X054600Y030600D01*
X055600Y030600D01*
X053600Y029600D02*
X054600Y028600D01*
X054600Y026600D01*
X055600Y025600D01*
X056600Y025600D01*
X057600Y026600D01*
X057600Y028100D01*
X057100Y028600D01*
X056600Y028600D01*
X053600Y029600D02*
X027600Y029600D01*
X026100Y028100D01*
X026100Y027100D02*
X026100Y025600D01*
X027100Y024600D01*
X043100Y024600D01*
X044600Y023100D01*
X044600Y022600D01*
X043600Y022600D02*
X045100Y021100D01*
X050600Y021100D01*
X053100Y018600D01*
X053100Y016100D01*
X056600Y016100D01*
X057600Y016600D02*
X057600Y013600D01*
X056100Y012100D01*
X055600Y012100D01*
X054100Y011100D02*
X054100Y009100D01*
X053600Y008600D01*
X053100Y008600D01*
X052100Y009100D02*
X052600Y009600D01*
X053100Y009600D01*
X052100Y009100D02*
X052100Y005600D01*
X053100Y004600D01*
X038600Y007600D02*
X034600Y011600D01*
X035100Y008600D02*
X035600Y008600D01*
X036100Y008100D01*
X036100Y002100D01*
X035600Y001600D01*
X027600Y001600D01*
X026100Y003100D01*
X027100Y003100D02*
X028100Y002100D01*
X032100Y002100D01*
X033600Y003600D01*
X033600Y007100D01*
X034100Y007600D01*
X035100Y007600D01*
X037600Y002600D02*
X036100Y001100D01*
X024600Y001100D01*
X023100Y002600D01*
X023100Y003100D01*
X023100Y004100D01*
X024100Y004100D01*
X024100Y004600D01*
X023600Y005100D01*
X017600Y005100D01*
X017100Y004600D01*
X017100Y004100D01*
X014100Y004100D02*
X014100Y004600D01*
X020100Y010600D01*
X026100Y010600D01*
X027100Y011600D02*
X027100Y004100D01*
X036600Y021600D02*
X037100Y022100D01*
X037100Y022600D01*
X036100Y022600D02*
X036100Y023600D01*
X036600Y024100D01*
X043100Y024100D01*
X043600Y023600D01*
X043600Y022600D01*
X045600Y022600D02*
X045600Y023100D01*
X043600Y025100D01*
X030100Y025100D01*
X029100Y026100D01*
X029100Y027100D01*
X029100Y028100D02*
X029100Y028600D01*
X029600Y029100D01*
X051100Y029100D01*
X055600Y024600D01*
X057100Y024600D01*
X057600Y024100D01*
X057600Y023100D01*
X057100Y022600D01*
X056600Y022600D01*
X053100Y022600D01*
X053100Y021600D02*
X051100Y021600D01*
X049600Y023100D01*
X048100Y021600D01*
X047100Y021600D01*
X046600Y022600D02*
X047600Y023600D01*
X047600Y024600D01*
X049600Y024600D02*
X049600Y023100D01*
X050651Y024600D02*
X051651Y023600D01*
X053100Y023600D01*
X056600Y023600D01*
X056600Y021600D02*
X053100Y021600D01*
X056600Y021600D02*
X056600Y017100D01*
X057100Y017100D01*
X057600Y016600D01*
X050651Y024600D02*
X050600Y024651D01*
X050600Y025100D01*
X050100Y025600D01*
X039100Y025600D01*
D18*
X038100Y022600D02*
X041600Y022600D01*
X049549Y024600D02*
X049600Y024600D01*
D19*
X047600Y024600D03*
X046600Y022600D03*
X047100Y021600D03*
X039100Y025600D03*
X038600Y015100D03*
X038600Y012100D03*
X039600Y012100D03*
X038100Y010100D03*
X037600Y009600D03*
X038600Y007600D03*
X033100Y010600D03*
X032600Y009600D03*
X034600Y011600D03*
X027100Y011600D03*
X026100Y010600D03*
X055600Y012100D03*
X015600Y029600D03*
M02*
