G75*
G70*
%OFA0B0*%
%FSLAX24Y24*%
%IPPOS*%
%LPD*%
%AMOC8*
5,1,8,0,0,1.08239X$1,22.5*
%
%ADD10C,0.0820*%
%ADD11R,0.1030X0.1030*%
%ADD12C,0.1030*%
%ADD13R,0.0880X0.0880*%
%ADD14C,0.0880*%
%ADD15OC8,0.0820*%
%ADD16C,0.0720*%
%ADD17C,0.1386*%
%ADD18C,0.0682*%
%ADD19C,0.1222*%
%ADD20C,0.1261*%
%ADD21OC8,0.0740*%
%ADD22C,0.0556*%
%ADD23C,0.0730*%
D10*
X018632Y003100D03*
X019632Y003100D03*
X020632Y003100D03*
X031132Y013600D03*
X032132Y013600D03*
X033132Y013600D03*
X043632Y015100D03*
X043632Y016100D03*
X043632Y017100D03*
X043632Y018100D03*
X043632Y019100D03*
X043632Y020100D03*
D11*
X037632Y022600D03*
D12*
X037632Y023978D03*
X037632Y025356D03*
D13*
X032632Y028600D03*
X049132Y033100D03*
X047132Y008600D03*
X013132Y004600D03*
X003632Y010600D03*
X003632Y014600D03*
X003632Y018600D03*
D14*
X003632Y019978D03*
X003632Y015978D03*
X003632Y011978D03*
X014510Y004600D03*
X048510Y008600D03*
X031254Y028600D03*
X047754Y033100D03*
D15*
X004632Y027600D03*
X003632Y027600D03*
X003632Y026600D03*
X004632Y026600D03*
X004632Y025600D03*
X003632Y025600D03*
X003632Y024600D03*
X004632Y024600D03*
X004632Y023600D03*
X003632Y023600D03*
D16*
X004348Y031813D03*
X004348Y032600D03*
X004348Y033387D03*
D17*
X005132Y002013D03*
X005132Y007187D03*
D18*
X006195Y005978D03*
X006195Y004994D03*
X006195Y004206D03*
X006195Y003222D03*
D19*
X010537Y031061D03*
X012191Y031061D03*
X013844Y031061D03*
X015498Y031061D03*
X017152Y031061D03*
X018805Y031061D03*
X020459Y031061D03*
X022112Y031061D03*
X023766Y031061D03*
X025419Y031061D03*
X027073Y031061D03*
X028726Y031061D03*
X028726Y033226D03*
X027073Y033226D03*
X025419Y033226D03*
X023766Y033226D03*
X022112Y033226D03*
X020459Y033226D03*
X018805Y033226D03*
X017152Y033226D03*
X015498Y033226D03*
X013844Y033226D03*
X012191Y033226D03*
X010537Y033226D03*
D20*
X010537Y036100D03*
X028726Y036100D03*
D21*
X008632Y029100D03*
X007632Y029100D03*
D22*
X007132Y023600D03*
X006132Y021600D03*
X020459Y030773D03*
D23*
X006132Y029600D03*
M02*
