G75*
G70*
%OFA0B0*%
%FSLAX24Y24*%
%IPPOS*%
%LPD*%
%AMOC8*
5,1,8,0,0,1.08239X$1,22.5*
%
%ADD10C,0.0059*%
D10*
X020546Y018252D02*
X020828Y018598D01*
X020778Y018690D01*
X020738Y018786D01*
X020709Y018887D01*
X020264Y018932D01*
X020264Y019268D01*
X020709Y019313D01*
X020738Y019414D01*
X020778Y019510D01*
X020828Y019602D01*
X020546Y019948D01*
X020784Y020186D01*
X021130Y019903D01*
X021222Y019954D01*
X021318Y019994D01*
X021419Y020023D01*
X021464Y020468D01*
X021800Y020468D01*
X021845Y020023D01*
X021946Y019994D01*
X022042Y019954D01*
X022134Y019903D01*
X022480Y020186D01*
X022718Y019948D01*
X022435Y019602D01*
X022486Y019510D01*
X022526Y019414D01*
X022555Y019313D01*
X023000Y019268D01*
X023000Y018932D01*
X022555Y018887D01*
X022526Y018786D01*
X022486Y018690D01*
X022435Y018598D01*
X022718Y018252D01*
X022480Y018014D01*
X022134Y018297D01*
X022066Y018258D01*
X021994Y018225D01*
X021797Y018702D01*
X021861Y018735D01*
X021919Y018779D01*
X021969Y018832D01*
X022009Y018892D01*
X022038Y018958D01*
X022056Y019028D01*
X022063Y019100D01*
X022055Y019180D01*
X022032Y019258D01*
X021996Y019330D01*
X021947Y019394D01*
X021886Y019448D01*
X021817Y019489D01*
X021741Y019517D01*
X021661Y019530D01*
X021581Y019528D01*
X021502Y019510D01*
X021427Y019479D01*
X021360Y019434D01*
X021303Y019377D01*
X021257Y019311D01*
X021224Y019237D01*
X021205Y019159D01*
X021202Y019078D01*
X021214Y018998D01*
X021240Y018922D01*
X021280Y018852D01*
X021333Y018790D01*
X021396Y018740D01*
X021467Y018702D01*
X021269Y018225D01*
X021198Y018258D01*
X021130Y018297D01*
X020784Y018014D01*
X020546Y018252D01*
X020561Y018269D02*
X021097Y018269D01*
X021178Y018269D02*
X021288Y018269D01*
X021312Y018327D02*
X020608Y018327D01*
X020654Y018385D02*
X021336Y018385D01*
X021359Y018442D02*
X020701Y018442D01*
X020748Y018500D02*
X021383Y018500D01*
X021407Y018557D02*
X020795Y018557D01*
X020819Y018615D02*
X021431Y018615D01*
X021455Y018672D02*
X020788Y018672D01*
X020761Y018730D02*
X021415Y018730D01*
X021336Y018787D02*
X020738Y018787D01*
X020721Y018845D02*
X021286Y018845D01*
X021251Y018903D02*
X020554Y018903D01*
X020264Y018960D02*
X021227Y018960D01*
X021211Y019018D02*
X020264Y019018D01*
X020264Y019075D02*
X021202Y019075D01*
X021204Y019133D02*
X020264Y019133D01*
X020264Y019190D02*
X021213Y019190D01*
X021228Y019248D02*
X020264Y019248D01*
X020634Y019305D02*
X021254Y019305D01*
X021293Y019363D02*
X020723Y019363D01*
X020741Y019421D02*
X021346Y019421D01*
X021426Y019478D02*
X020765Y019478D01*
X020792Y019536D02*
X022472Y019536D01*
X022499Y019478D02*
X021835Y019478D01*
X021917Y019421D02*
X022523Y019421D01*
X022540Y019363D02*
X021970Y019363D01*
X022008Y019305D02*
X022630Y019305D01*
X022440Y019593D02*
X020824Y019593D01*
X020789Y019651D02*
X022475Y019651D01*
X022522Y019708D02*
X020742Y019708D01*
X020695Y019766D02*
X022569Y019766D01*
X022616Y019823D02*
X020648Y019823D01*
X020601Y019881D02*
X022663Y019881D01*
X022710Y019939D02*
X022177Y019939D01*
X022248Y019996D02*
X022670Y019996D01*
X022612Y020054D02*
X022318Y020054D01*
X022389Y020111D02*
X022555Y020111D01*
X022497Y020169D02*
X022459Y020169D01*
X022070Y019939D02*
X021194Y019939D01*
X021087Y019939D02*
X020554Y019939D01*
X020594Y019996D02*
X021016Y019996D01*
X020946Y020054D02*
X020651Y020054D01*
X020709Y020111D02*
X020875Y020111D01*
X020804Y020169D02*
X020767Y020169D01*
X021326Y019996D02*
X021938Y019996D01*
X021842Y020054D02*
X021422Y020054D01*
X021428Y020111D02*
X021836Y020111D01*
X021830Y020169D02*
X021434Y020169D01*
X021439Y020226D02*
X021824Y020226D01*
X021818Y020284D02*
X021445Y020284D01*
X021451Y020341D02*
X021813Y020341D01*
X021807Y020399D02*
X021457Y020399D01*
X021463Y020457D02*
X021801Y020457D01*
X022035Y019248D02*
X023000Y019248D01*
X023000Y019190D02*
X022052Y019190D01*
X022059Y019133D02*
X023000Y019133D01*
X023000Y019075D02*
X022060Y019075D01*
X022054Y019018D02*
X023000Y019018D01*
X023000Y018960D02*
X022039Y018960D01*
X022014Y018903D02*
X022710Y018903D01*
X022543Y018845D02*
X021978Y018845D01*
X021927Y018787D02*
X022526Y018787D01*
X022502Y018730D02*
X021850Y018730D01*
X021809Y018672D02*
X022476Y018672D01*
X022445Y018615D02*
X021833Y018615D01*
X021857Y018557D02*
X022469Y018557D01*
X022515Y018500D02*
X021881Y018500D01*
X021904Y018442D02*
X022562Y018442D01*
X022609Y018385D02*
X021928Y018385D01*
X021952Y018327D02*
X022656Y018327D01*
X022703Y018269D02*
X022167Y018269D01*
X022086Y018269D02*
X021976Y018269D01*
X022238Y018212D02*
X022678Y018212D01*
X022620Y018154D02*
X022308Y018154D01*
X022379Y018097D02*
X022563Y018097D01*
X022505Y018039D02*
X022449Y018039D01*
X021026Y018212D02*
X020586Y018212D01*
X020643Y018154D02*
X020956Y018154D01*
X020885Y018097D02*
X020701Y018097D01*
X020758Y018039D02*
X020814Y018039D01*
M02*
