%
M48
M72
T01C0.0276
T02C0.0320
T03C0.0362
T04C0.0400
T05C0.0433
T06C0.0472
T07C0.0709
T08C0.0906
T09C0.1181
%
T01
X6132Y21600
X7132Y23600
X4348Y31813
X4348Y32600
X4348Y33387
X20459Y30773
T02
X8632Y29100
X7632Y29100
T03
X6195Y5978
X6195Y4994
X6195Y4206
X6195Y3222
T04
X18632Y3100
X19632Y3100
X20632Y3100
X31132Y13600
X32132Y13600
X33132Y13600
X43632Y15100
X43632Y16100
X43632Y17100
X43632Y18100
X43632Y19100
X43632Y20100
X4632Y23600
X4632Y24600
X3632Y24600
X3632Y23600
X3632Y25600
X4632Y25600
X4632Y26600
X3632Y26600
X3632Y27600
X4632Y27600
T05
X6132Y29600
T06
X3632Y19978
X3632Y18600
X3632Y15978
X3632Y14600
X3632Y11978
X3632Y10600
X13132Y4600
X14510Y4600
X37632Y22600
X37632Y23978
X37632Y25356
X32632Y28600
X31254Y28600
X47754Y33100
X49132Y33100
X48510Y8600
X47132Y8600
T07
X28726Y31061
X27073Y31061
X25419Y31061
X23766Y31061
X22112Y31061
X20459Y31061
X18805Y31061
X17152Y31061
X15498Y31061
X13844Y31061
X12191Y31061
X10537Y31061
X10537Y33226
X12191Y33226
X13844Y33226
X15498Y33226
X17152Y33226
X18805Y33226
X20459Y33226
X22112Y33226
X23766Y33226
X25419Y33226
X27073Y33226
X28726Y33226
T08
X5132Y2013
X5132Y7187
T09
X10537Y36100
X28726Y36100
M30
