G75*
G70*
%OFA0B0*%
%FSLAX24Y24*%
%IPPOS*%
%LPD*%
%AMOC8*
5,1,8,0,0,1.08239X$1,22.5*
%
%ADD10C,0.0740*%
%ADD11R,0.0950X0.0950*%
%ADD12C,0.0950*%
%ADD13R,0.0800X0.0800*%
%ADD14C,0.0800*%
%ADD15OC8,0.0740*%
%ADD16C,0.0640*%
%ADD17C,0.1306*%
%ADD18C,0.0602*%
%ADD19C,0.1142*%
%ADD20OC8,0.0660*%
%ADD21C,0.0160*%
%ADD22C,0.0476*%
%ADD23C,0.0400*%
%ADD24C,0.0320*%
%ADD25C,0.0500*%
%ADD26C,0.0650*%
D10*
X018632Y003100D03*
X019632Y003100D03*
X020632Y003100D03*
X031132Y013600D03*
X032132Y013600D03*
X033132Y013600D03*
X043632Y015100D03*
X043632Y016100D03*
X043632Y017100D03*
X043632Y018100D03*
X043632Y019100D03*
X043632Y020100D03*
D11*
X037632Y022600D03*
D12*
X037632Y023978D03*
X037632Y025356D03*
D13*
X032632Y028600D03*
X049132Y033100D03*
X047132Y008600D03*
X013132Y004600D03*
X003632Y010600D03*
X003632Y014600D03*
X003632Y018600D03*
D14*
X003632Y019978D03*
X003632Y015978D03*
X003632Y011978D03*
X014510Y004600D03*
X048510Y008600D03*
X031254Y028600D03*
X047754Y033100D03*
D15*
X004632Y027600D03*
X003632Y027600D03*
X003632Y026600D03*
X004632Y026600D03*
X004632Y025600D03*
X003632Y025600D03*
X003632Y024600D03*
X004632Y024600D03*
X004632Y023600D03*
X003632Y023600D03*
D16*
X004348Y031813D03*
X004348Y032600D03*
X004348Y033387D03*
D17*
X005132Y002013D03*
X005132Y007187D03*
D18*
X006195Y005978D03*
X006195Y004994D03*
X006195Y004206D03*
X006195Y003222D03*
D19*
X010537Y031061D03*
X012191Y031061D03*
X013844Y031061D03*
X015498Y031061D03*
X017152Y031061D03*
X018805Y031061D03*
X020459Y031061D03*
X022112Y031061D03*
X023766Y031061D03*
X025419Y031061D03*
X027073Y031061D03*
X028726Y031061D03*
X028726Y033226D03*
X027073Y033226D03*
X025419Y033226D03*
X023766Y033226D03*
X022112Y033226D03*
X020459Y033226D03*
X018805Y033226D03*
X017152Y033226D03*
X015498Y033226D03*
X013844Y033226D03*
X012191Y033226D03*
X010537Y033226D03*
D20*
X008632Y029100D03*
X007632Y029100D03*
D21*
X004919Y031813D01*
X004348Y031813D01*
X004348Y033387D02*
X006844Y033387D01*
X008132Y032100D01*
X013132Y032100D01*
X014132Y033100D01*
X017152Y031061D02*
X008691Y022600D01*
X004132Y022600D01*
X003632Y023100D01*
X003632Y023600D01*
X003632Y024600D02*
X002632Y023600D01*
X002632Y023100D01*
X004132Y021600D01*
X006132Y021600D01*
X007132Y023600D02*
X007132Y027100D01*
X005132Y029100D01*
X003132Y029100D01*
X002632Y028600D01*
X002632Y027100D01*
X003132Y026600D01*
X003632Y026600D01*
D22*
X007132Y023600D03*
X006132Y021600D03*
X020459Y030773D03*
D23*
X019931Y032100D02*
X018805Y033226D01*
X018632Y033399D01*
X018632Y033600D01*
X017632Y034600D01*
X016132Y034600D01*
X015498Y033966D01*
X015498Y033226D01*
X015132Y032100D02*
X014132Y033100D01*
X013844Y032813D01*
X013844Y031061D01*
X015498Y031061D02*
X015498Y030466D01*
X014632Y029600D01*
X009632Y029600D01*
X006632Y032600D01*
X004348Y032600D01*
X013844Y033226D02*
X014006Y033226D01*
X014132Y033100D01*
X015132Y032100D02*
X016112Y032100D01*
X017152Y031061D01*
X019931Y032100D02*
X023132Y032100D01*
X023766Y031466D01*
X023766Y031061D01*
D24*
X017152Y031061D02*
X006069Y019978D01*
X003632Y019978D01*
D25*
X003632Y015978D02*
X034010Y015978D01*
X040132Y022100D01*
X040132Y029100D01*
X044132Y033100D01*
X047754Y033100D01*
X049132Y033100D02*
X049132Y032100D01*
X048132Y031100D01*
X044132Y031100D01*
X041632Y028600D01*
X041632Y022100D01*
X034132Y014600D01*
X003632Y014600D01*
X003632Y011978D02*
X047254Y011978D01*
X048632Y010600D01*
X048632Y008722D01*
X048510Y008600D01*
X047132Y008600D02*
X047132Y009600D01*
X046132Y010600D01*
X003632Y010600D01*
X006195Y005978D02*
X006754Y005978D01*
X010632Y002100D01*
X017632Y002100D01*
X018632Y003100D01*
X021632Y029600D02*
X028132Y029600D01*
X028632Y030100D01*
X028632Y030966D01*
X028726Y031061D01*
X021632Y029600D02*
X020459Y030773D01*
D26*
X006132Y029600D03*
M02*
