solid OpenSCAD_Model
  facet normal -1 0 0
    outer loop
      vertex -3.5 -15 -5
      vertex -3.5 -15 5
      vertex -3.5 -2.5 -5
    endloop
  endfacet
  facet normal -1 0 0
    outer loop
      vertex -3.5 -2.5 -2.5
      vertex -3.5 -15 5
      vertex -3.5 15 5
    endloop
  endfacet
  facet normal -1 0 0
    outer loop
      vertex -3.5 2.5 -5
      vertex -3.5 15 5
      vertex -3.5 15 -5
    endloop
  endfacet
  facet normal -1 0 0
    outer loop
      vertex -3.5 2.5 -2.5
      vertex -3.5 15 5
      vertex -3.5 2.5 -5
    endloop
  endfacet
  facet normal -1 0 0
    outer loop
      vertex -3.5 -2.5 -5
      vertex -3.5 -15 5
      vertex -3.5 -2.5 -2.5
    endloop
  endfacet
  facet normal -1 0 0
    outer loop
      vertex -3.5 -2.5 -2.5
      vertex -3.5 15 5
      vertex -3.5 2.5 -2.5
    endloop
  endfacet
  facet normal 0 -1 0
    outer loop
      vertex -3.5 -15 5
      vertex -3.5 -15 -5
      vertex 3.5 -15 -5
    endloop
  endfacet
  facet normal 0 -1 0
    outer loop
      vertex 3.5 -15 5
      vertex -3.5 -15 5
      vertex 3.5 -15 -5
    endloop
  endfacet
  facet normal 0 0 -1
    outer loop
      vertex -0.75 -5.5 -5
      vertex -3.5 -2.5 -5
      vertex -0.75 -2.5 -5
    endloop
  endfacet
  facet normal 0 0 -1
    outer loop
      vertex 0 -8.5 -5
      vertex -3.5 -2.5 -5
      vertex -0.75 -5.5 -5
    endloop
  endfacet
  facet normal 0 0 -1
    outer loop
      vertex 1.5 -10 -5
      vertex 3.5 -15 -5
      vertex 1.06066 -11.0607 -5
    endloop
  endfacet
  facet normal 0 0 -1
    outer loop
      vertex 3.5 -15 -5
      vertex 0.75 -5.5 -5
      vertex 0.75 -2.5 -5
    endloop
  endfacet
  facet normal 0 0 -1
    outer loop
      vertex 3.5 -15 -5
      vertex 0.75 -2.5 -5
      vertex 3.5 -2.5 -5
    endloop
  endfacet
  facet normal 0 0 -1
    outer loop
      vertex -3.5 -15 -5
      vertex -3.5 -2.5 -5
      vertex -1.5 -10 -5
    endloop
  endfacet
  facet normal 0 0 -1
    outer loop
      vertex -1.06066 -11.0607 -5
      vertex 0 -11.5 -5
      vertex 3.5 -15 -5
    endloop
  endfacet
  facet normal 0 0 -1
    outer loop
      vertex -3.5 -15 -5
      vertex -1.5 -10 -5
      vertex -1.06066 -11.0607 -5
    endloop
  endfacet
  facet normal 0 0 -1
    outer loop
      vertex -3.5 -15 -5
      vertex -1.06066 -11.0607 -5
      vertex 3.5 -15 -5
    endloop
  endfacet
  facet normal 0 0 -1
    outer loop
      vertex 0 -11.5 -5
      vertex 1.06066 -11.0607 -5
      vertex 3.5 -15 -5
    endloop
  endfacet
  facet normal 0 0 -1
    outer loop
      vertex 0 -8.5 -5
      vertex -0.75 -5.5 -5
      vertex 1.06066 -8.93934 -5
    endloop
  endfacet
  facet normal 0 0 -1
    outer loop
      vertex -1.06066 -8.93934 -5
      vertex -3.5 -2.5 -5
      vertex 0 -8.5 -5
    endloop
  endfacet
  facet normal 0 0 -1
    outer loop
      vertex -1.5 -10 -5
      vertex -3.5 -2.5 -5
      vertex -1.06066 -8.93934 -5
    endloop
  endfacet
  facet normal 0 0 -1
    outer loop
      vertex 0.75 -5.5 -5
      vertex 3.5 -15 -5
      vertex 1.5 -10 -5
    endloop
  endfacet
  facet normal 0 0 -1
    outer loop
      vertex 0.75 -5.5 -5
      vertex 1.5 -10 -5
      vertex 1.06066 -8.93934 -5
    endloop
  endfacet
  facet normal 0 0 -1
    outer loop
      vertex 0.75 -5.5 -5
      vertex 1.06066 -8.93934 -5
      vertex -0.75 -5.5 -5
    endloop
  endfacet
  facet normal 0 1 0
    outer loop
      vertex -0.75 -2.5 -2.5
      vertex -0.75 -2.5 -5
      vertex -3.5 -2.5 -2.5
    endloop
  endfacet
  facet normal 0 1 0
    outer loop
      vertex -3.5 -2.5 -2.5
      vertex -0.75 -2.5 -5
      vertex -3.5 -2.5 -5
    endloop
  endfacet
  facet normal 0 0 -1
    outer loop
      vertex -0.75 2.5 -2.5
      vertex -0.75 -2.5 -2.5
      vertex -3.5 2.5 -2.5
    endloop
  endfacet
  facet normal 0 0 -1
    outer loop
      vertex -3.5 2.5 -2.5
      vertex -0.75 -2.5 -2.5
      vertex -3.5 -2.5 -2.5
    endloop
  endfacet
  facet normal 0 -1 0
    outer loop
      vertex -0.75 2.5 -5
      vertex -0.75 2.5 -2.5
      vertex -3.5 2.5 -2.5
    endloop
  endfacet
  facet normal 0 -1 0
    outer loop
      vertex -3.5 2.5 -5
      vertex -0.75 2.5 -5
      vertex -3.5 2.5 -2.5
    endloop
  endfacet
  facet normal 0 0 -1
    outer loop
      vertex -3.5 2.5 -5
      vertex -3.5 15 -5
      vertex -0.75 2.5 -5
    endloop
  endfacet
  facet normal 0 0 -1
    outer loop
      vertex -1.06066 11.0607 -5
      vertex -3.5 15 -5
      vertex 0 11.5 -5
    endloop
  endfacet
  facet normal 0 0 -1
    outer loop
      vertex 0.75 2.5 -5
      vertex 3.5 15 -5
      vertex 3.5 2.5 -5
    endloop
  endfacet
  facet normal 0 0 -1
    outer loop
      vertex 0.75 5.5 -5
      vertex 3.5 15 -5
      vertex 0.75 2.5 -5
    endloop
  endfacet
  facet normal 0 0 -1
    outer loop
      vertex -0.75 2.5 -5
      vertex -3.5 15 -5
      vertex -0.75 5.5 -5
    endloop
  endfacet
  facet normal 0 0 -1
    outer loop
      vertex 1.06066 11.0607 -5
      vertex 3.5 15 -5
      vertex 1.5 10 -5
    endloop
  endfacet
  facet normal 0 0 -1
    outer loop
      vertex -0.75 5.5 -5
      vertex -3.5 15 -5
      vertex -1.5 10 -5
    endloop
  endfacet
  facet normal 0 0 -1
    outer loop
      vertex 0 11.5 -5
      vertex -3.5 15 -5
      vertex 3.5 15 -5
    endloop
  endfacet
  facet normal 0 0 -1
    outer loop
      vertex -0.75 5.5 -5
      vertex -1.5 10 -5
      vertex -1.06066 8.93934 -5
    endloop
  endfacet
  facet normal 0 0 -1
    outer loop
      vertex -0.75 5.5 -5
      vertex -1.06066 8.93934 -5
      vertex 0 8.5 -5
    endloop
  endfacet
  facet normal 0 0 -1
    outer loop
      vertex 1.06066 8.93934 -5
      vertex -0.75 5.5 -5
      vertex 0 8.5 -5
    endloop
  endfacet
  facet normal 0 0 -1
    outer loop
      vertex 0 11.5 -5
      vertex 3.5 15 -5
      vertex 1.06066 11.0607 -5
    endloop
  endfacet
  facet normal 0 0 -1
    outer loop
      vertex -1.5 10 -5
      vertex -3.5 15 -5
      vertex -1.06066 11.0607 -5
    endloop
  endfacet
  facet normal 0 0 -1
    outer loop
      vertex 1.5 10 -5
      vertex 3.5 15 -5
      vertex 0.75 5.5 -5
    endloop
  endfacet
  facet normal 0 0 -1
    outer loop
      vertex 1.06066 8.93934 -5
      vertex 1.5 10 -5
      vertex 0.75 5.5 -5
    endloop
  endfacet
  facet normal 0 0 -1
    outer loop
      vertex -0.75 5.5 -5
      vertex 1.06066 8.93934 -5
      vertex 0.75 5.5 -5
    endloop
  endfacet
  facet normal 0 1 0
    outer loop
      vertex -3.5 15 -5
      vertex -3.5 15 5
      vertex 3.5 15 -5
    endloop
  endfacet
  facet normal 0 1 0
    outer loop
      vertex 3.5 15 -5
      vertex -3.5 15 5
      vertex 3.5 15 5
    endloop
  endfacet
  facet normal 0 0 1
    outer loop
      vertex -1.06066 -11.0607 5
      vertex -3.5 -15 5
      vertex 3.5 -15 5
    endloop
  endfacet
  facet normal 0 0 1
    outer loop
      vertex -1.5 10 5
      vertex -3.5 15 5
      vertex 3.5 -15 5
    endloop
  endfacet
  facet normal 0 0 1
    outer loop
      vertex 0 -11.5 5
      vertex -1.06066 -11.0607 5
      vertex 3.5 -15 5
    endloop
  endfacet
  facet normal 0 0 1
    outer loop
      vertex -1.5 -10 5
      vertex -3.5 -15 5
      vertex -1.06066 -11.0607 5
    endloop
  endfacet
  facet normal 0 0 1
    outer loop
      vertex -3.5 15 5
      vertex -3.5 -15 5
      vertex -1.5 -10 5
    endloop
  endfacet
  facet normal 0 0 1
    outer loop
      vertex -1.5 10 5
      vertex -1.06066 11.0607 5
      vertex -3.5 15 5
    endloop
  endfacet
  facet normal 0 0 1
    outer loop
      vertex 1.06066 -11.0607 5
      vertex 0 -11.5 5
      vertex 3.5 -15 5
    endloop
  endfacet
  facet normal 0 0 1
    outer loop
      vertex -3.5 15 5
      vertex -1.06066 -8.93934 5
      vertex 0 -8.5 5
    endloop
  endfacet
  facet normal 0 0 1
    outer loop
      vertex -3.5 15 5
      vertex 0 -8.5 5
      vertex 1.06066 -8.93934 5
    endloop
  endfacet
  facet normal 0 0 1
    outer loop
      vertex -3.5 15 5
      vertex 1.5 -10 5
      vertex 3.5 -15 5
    endloop
  endfacet
  facet normal 0 0 1
    outer loop
      vertex -3.5 15 5
      vertex 1.06066 -8.93934 5
      vertex 1.5 -10 5
    endloop
  endfacet
  facet normal 0 0 1
    outer loop
      vertex 0 8.5 5
      vertex -1.06066 8.93934 5
      vertex 3.5 -15 5
    endloop
  endfacet
  facet normal 0 0 1
    outer loop
      vertex -1.06066 8.93934 5
      vertex -1.5 10 5
      vertex 3.5 -15 5
    endloop
  endfacet
  facet normal 0 0 1
    outer loop
      vertex 0 11.5 5
      vertex 1.06066 11.0607 5
      vertex 3.5 15 5
    endloop
  endfacet
  facet normal 0 0 1
    outer loop
      vertex 3.5 15 5
      vertex -3.5 15 5
      vertex -1.06066 11.0607 5
    endloop
  endfacet
  facet normal 0 0 1
    outer loop
      vertex 1.5 10 5
      vertex 1.06066 8.93934 5
      vertex 3.5 -15 5
    endloop
  endfacet
  facet normal 0 0 1
    outer loop
      vertex 3.5 15 5
      vertex -1.06066 11.0607 5
      vertex 0 11.5 5
    endloop
  endfacet
  facet normal 0 0 1
    outer loop
      vertex 3.5 15 5
      vertex 1.5 10 5
      vertex 3.5 -15 5
    endloop
  endfacet
  facet normal 0 0 1
    outer loop
      vertex 3.5 15 5
      vertex 1.06066 11.0607 5
      vertex 1.5 10 5
    endloop
  endfacet
  facet normal 0 0 1
    outer loop
      vertex 1.06066 8.93934 5
      vertex 0 8.5 5
      vertex 3.5 -15 5
    endloop
  endfacet
  facet normal 0 0 1
    outer loop
      vertex -1.5 -10 5
      vertex -1.06066 -8.93934 5
      vertex -3.5 15 5
    endloop
  endfacet
  facet normal 0 0 1
    outer loop
      vertex 1.5 -10 5
      vertex 1.06066 -11.0607 5
      vertex 3.5 -15 5
    endloop
  endfacet
  facet normal 1 0 0
    outer loop
      vertex 3.5 -15 5
      vertex 3.5 -15 -5
      vertex 3.5 -2.5 -5
    endloop
  endfacet
  facet normal 1 0 0
    outer loop
      vertex 3.5 2.5 -2.5
      vertex 3.5 -15 5
      vertex 3.5 -2.5 -2.5
    endloop
  endfacet
  facet normal 1 0 0
    outer loop
      vertex 3.5 -2.5 -2.5
      vertex 3.5 -15 5
      vertex 3.5 -2.5 -5
    endloop
  endfacet
  facet normal 1 0 0
    outer loop
      vertex 3.5 15 -5
      vertex 3.5 -15 5
      vertex 3.5 2.5 -2.5
    endloop
  endfacet
  facet normal 1 0 0
    outer loop
      vertex 3.5 15 -5
      vertex 3.5 2.5 -2.5
      vertex 3.5 2.5 -5
    endloop
  endfacet
  facet normal 1 0 0
    outer loop
      vertex 3.5 15 5
      vertex 3.5 -15 5
      vertex 3.5 15 -5
    endloop
  endfacet
  facet normal 0 1 0
    outer loop
      vertex 3.5 -2.5 -2.5
      vertex 3.5 -2.5 -5
      vertex 0.75 -2.5 -2.5
    endloop
  endfacet
  facet normal 0 1 0
    outer loop
      vertex 0.75 -2.5 -2.5
      vertex 3.5 -2.5 -5
      vertex 0.75 -2.5 -5
    endloop
  endfacet
  facet normal -1 0 0
    outer loop
      vertex 0.75 -2.5 -2.5
      vertex 0.75 -5.5 0.5
      vertex 0.75 2.5 -2.5
    endloop
  endfacet
  facet normal -1 0 0
    outer loop
      vertex 0.75 5.5 0.5
      vertex 0.75 5.5 -5
      vertex 0.75 2.5 -2.5
    endloop
  endfacet
  facet normal -1 0 0
    outer loop
      vertex 0.75 5.5 0.5
      vertex 0.75 2.5 -2.5
      vertex 0.75 -5.5 0.5
    endloop
  endfacet
  facet normal -1 0 0
    outer loop
      vertex 0.75 -5.5 0.5
      vertex 0.75 -2.5 -2.5
      vertex 0.75 -2.5 -5
    endloop
  endfacet
  facet normal -1 0 0
    outer loop
      vertex 0.75 -5.5 0.5
      vertex 0.75 -2.5 -5
      vertex 0.75 -5.5 -5
    endloop
  endfacet
  facet normal -1 0 0
    outer loop
      vertex 0.75 2.5 -2.5
      vertex 0.75 5.5 -5
      vertex 0.75 2.5 -5
    endloop
  endfacet
  facet normal 0 1 0
    outer loop
      vertex 0.75 -5.5 0.5
      vertex 0.75 -5.5 -5
      vertex -0.75 -5.5 0.5
    endloop
  endfacet
  facet normal 0 1 0
    outer loop
      vertex -0.75 -5.5 0.5
      vertex 0.75 -5.5 -5
      vertex -0.75 -5.5 -5
    endloop
  endfacet
  facet normal 1 0 0
    outer loop
      vertex -0.75 5.5 0.5
      vertex -0.75 -2.5 -2.5
      vertex -0.75 2.5 -2.5
    endloop
  endfacet
  facet normal 1 0 0
    outer loop
      vertex -0.75 -2.5 -5
      vertex -0.75 -2.5 -2.5
      vertex -0.75 -5.5 0.5
    endloop
  endfacet
  facet normal 1 0 0
    outer loop
      vertex -0.75 2.5 -5
      vertex -0.75 5.5 -5
      vertex -0.75 2.5 -2.5
    endloop
  endfacet
  facet normal 1 0 0
    outer loop
      vertex -0.75 5.5 -5
      vertex -0.75 5.5 0.5
      vertex -0.75 2.5 -2.5
    endloop
  endfacet
  facet normal 1 0 0
    outer loop
      vertex -0.75 5.5 0.5
      vertex -0.75 -5.5 0.5
      vertex -0.75 -2.5 -2.5
    endloop
  endfacet
  facet normal 1 0 0
    outer loop
      vertex -0.75 -5.5 0.5
      vertex -0.75 -5.5 -5
      vertex -0.75 -2.5 -5
    endloop
  endfacet
  facet normal 0.923879 -0.382684 0
    outer loop
      vertex -1.06066 -8.93934 -5
      vertex -1.06066 -8.93934 5
      vertex -1.5 -10 5
    endloop
  endfacet
  facet normal 0.923879 -0.382684 0
    outer loop
      vertex -1.5 -10 -5
      vertex -1.06066 -8.93934 -5
      vertex -1.5 -10 5
    endloop
  endfacet
  facet normal 0.923879 0.382684 0
    outer loop
      vertex -1.5 -10 5
      vertex -1.06066 -11.0607 5
      vertex -1.06066 -11.0607 -5
    endloop
  endfacet
  facet normal 0.923879 0.382684 0
    outer loop
      vertex -1.5 -10 -5
      vertex -1.5 -10 5
      vertex -1.06066 -11.0607 -5
    endloop
  endfacet
  facet normal 0.382684 -0.923879 0
    outer loop
      vertex 0 -8.5 -5
      vertex 0 -8.5 5
      vertex -1.06066 -8.93934 5
    endloop
  endfacet
  facet normal 0.382684 -0.923879 0
    outer loop
      vertex -1.06066 -8.93934 -5
      vertex 0 -8.5 -5
      vertex -1.06066 -8.93934 5
    endloop
  endfacet
  facet normal -0.382684 -0.923879 0
    outer loop
      vertex 1.06066 -8.93934 -5
      vertex 1.06066 -8.93934 5
      vertex 0 -8.5 5
    endloop
  endfacet
  facet normal -0.382684 -0.923879 0
    outer loop
      vertex 0 -8.5 -5
      vertex 1.06066 -8.93934 -5
      vertex 0 -8.5 5
    endloop
  endfacet
  facet normal -0.923879 -0.382684 0
    outer loop
      vertex 1.5 -10 5
      vertex 1.06066 -8.93934 5
      vertex 1.5 -10 -5
    endloop
  endfacet
  facet normal -0.923879 -0.382684 0
    outer loop
      vertex 1.5 -10 -5
      vertex 1.06066 -8.93934 5
      vertex 1.06066 -8.93934 -5
    endloop
  endfacet
  facet normal -0.923879 0.382684 0
    outer loop
      vertex 1.5 -10 5
      vertex 1.5 -10 -5
      vertex 1.06066 -11.0607 5
    endloop
  endfacet
  facet normal -0.923879 0.382684 0
    outer loop
      vertex 1.06066 -11.0607 5
      vertex 1.5 -10 -5
      vertex 1.06066 -11.0607 -5
    endloop
  endfacet
  facet normal -0.382684 0.923879 0
    outer loop
      vertex 1.06066 -11.0607 5
      vertex 1.06066 -11.0607 -5
      vertex 0 -11.5 5
    endloop
  endfacet
  facet normal -0.382684 0.923879 0
    outer loop
      vertex 0 -11.5 5
      vertex 1.06066 -11.0607 -5
      vertex 0 -11.5 -5
    endloop
  endfacet
  facet normal 0.382684 0.923879 0
    outer loop
      vertex 0 -11.5 5
      vertex 0 -11.5 -5
      vertex -1.06066 -11.0607 5
    endloop
  endfacet
  facet normal 0.382684 0.923879 0
    outer loop
      vertex -1.06066 -11.0607 5
      vertex 0 -11.5 -5
      vertex -1.06066 -11.0607 -5
    endloop
  endfacet
  facet normal 0 -1 0
    outer loop
      vertex 0.75 5.5 -5
      vertex 0.75 5.5 0.5
      vertex -0.75 5.5 0.5
    endloop
  endfacet
  facet normal 0 -1 0
    outer loop
      vertex -0.75 5.5 -5
      vertex 0.75 5.5 -5
      vertex -0.75 5.5 0.5
    endloop
  endfacet
  facet normal 0 -1 0
    outer loop
      vertex 3.5 2.5 -5
      vertex 3.5 2.5 -2.5
      vertex 0.75 2.5 -2.5
    endloop
  endfacet
  facet normal 0 -1 0
    outer loop
      vertex 0.75 2.5 -5
      vertex 3.5 2.5 -5
      vertex 0.75 2.5 -2.5
    endloop
  endfacet
  facet normal 0.923879 -0.382684 0
    outer loop
      vertex -1.06066 11.0607 -5
      vertex -1.06066 11.0607 5
      vertex -1.5 10 5
    endloop
  endfacet
  facet normal 0.923879 -0.382684 0
    outer loop
      vertex -1.5 10 -5
      vertex -1.06066 11.0607 -5
      vertex -1.5 10 5
    endloop
  endfacet
  facet normal 0.923879 0.382684 0
    outer loop
      vertex -1.5 10 5
      vertex -1.06066 8.93934 5
      vertex -1.06066 8.93934 -5
    endloop
  endfacet
  facet normal 0.923879 0.382684 0
    outer loop
      vertex -1.5 10 -5
      vertex -1.5 10 5
      vertex -1.06066 8.93934 -5
    endloop
  endfacet
  facet normal 0.382684 -0.923879 0
    outer loop
      vertex 0 11.5 -5
      vertex 0 11.5 5
      vertex -1.06066 11.0607 5
    endloop
  endfacet
  facet normal 0.382684 -0.923879 0
    outer loop
      vertex -1.06066 11.0607 -5
      vertex 0 11.5 -5
      vertex -1.06066 11.0607 5
    endloop
  endfacet
  facet normal -0.382684 -0.923879 0
    outer loop
      vertex 1.06066 11.0607 -5
      vertex 1.06066 11.0607 5
      vertex 0 11.5 5
    endloop
  endfacet
  facet normal -0.382684 -0.923879 0
    outer loop
      vertex 0 11.5 -5
      vertex 1.06066 11.0607 -5
      vertex 0 11.5 5
    endloop
  endfacet
  facet normal -0.923879 -0.382684 0
    outer loop
      vertex 1.5 10 5
      vertex 1.06066 11.0607 5
      vertex 1.5 10 -5
    endloop
  endfacet
  facet normal -0.923879 -0.382684 0
    outer loop
      vertex 1.5 10 -5
      vertex 1.06066 11.0607 5
      vertex 1.06066 11.0607 -5
    endloop
  endfacet
  facet normal -0.923879 0.382684 0
    outer loop
      vertex 1.5 10 5
      vertex 1.5 10 -5
      vertex 1.06066 8.93934 5
    endloop
  endfacet
  facet normal -0.923879 0.382684 0
    outer loop
      vertex 1.06066 8.93934 5
      vertex 1.5 10 -5
      vertex 1.06066 8.93934 -5
    endloop
  endfacet
  facet normal -0.382684 0.923879 0
    outer loop
      vertex 1.06066 8.93934 5
      vertex 1.06066 8.93934 -5
      vertex 0 8.5 5
    endloop
  endfacet
  facet normal -0.382684 0.923879 0
    outer loop
      vertex 0 8.5 5
      vertex 1.06066 8.93934 -5
      vertex 0 8.5 -5
    endloop
  endfacet
  facet normal 0.382684 0.923879 0
    outer loop
      vertex 0 8.5 5
      vertex 0 8.5 -5
      vertex -1.06066 8.93934 5
    endloop
  endfacet
  facet normal 0.382684 0.923879 0
    outer loop
      vertex -1.06066 8.93934 5
      vertex 0 8.5 -5
      vertex -1.06066 8.93934 -5
    endloop
  endfacet
  facet normal 0 0 -1
    outer loop
      vertex 3.5 2.5 -2.5
      vertex 3.5 -2.5 -2.5
      vertex 0.75 2.5 -2.5
    endloop
  endfacet
  facet normal 0 0 -1
    outer loop
      vertex 0.75 2.5 -2.5
      vertex 3.5 -2.5 -2.5
      vertex 0.75 -2.5 -2.5
    endloop
  endfacet
  facet normal 0 0 -1
    outer loop
      vertex 0.75 5.5 0.5
      vertex 0.75 -5.5 0.5
      vertex -0.75 5.5 0.5
    endloop
  endfacet
  facet normal 0 0 -1
    outer loop
      vertex -0.75 5.5 0.5
      vertex 0.75 -5.5 0.5
      vertex -0.75 -5.5 0.5
    endloop
  endfacet
endsolid OpenSCAD_Model
