solid OpenSCAD_Model
  facet normal -1 0 0
    outer loop
      vertex -12.5 -27.5 -15
      vertex -12.5 -27.5 -13
      vertex -12.5 27.5 -15
    endloop
  endfacet
  facet normal -1 0 0
    outer loop
      vertex -12.5 27.5 -15
      vertex -12.5 -27.5 -13
      vertex -12.5 27.5 -13
    endloop
  endfacet
  facet normal 0 -1 0
    outer loop
      vertex -12.5 -27.5 -13
      vertex -12.5 -27.5 -15
      vertex 12.5 -27.5 -15
    endloop
  endfacet
  facet normal 0 -1 0
    outer loop
      vertex 12.5 -27.5 -13
      vertex -12.5 -27.5 -13
      vertex 12.5 -27.5 -15
    endloop
  endfacet
  facet normal 0 0 -1
    outer loop
      vertex 10.0607 -22.9393 -15
      vertex -12.5 27.5 -15
      vertex 12.5 -27.5 -15
    endloop
  endfacet
  facet normal 0 0 -1
    outer loop
      vertex -7.93934 25.0607 -15
      vertex -12.5 27.5 -15
      vertex 12.5 27.5 -15
    endloop
  endfacet
  facet normal 0 0 -1
    outer loop
      vertex -12.5 -27.5 -15
      vertex -12.5 27.5 -15
      vertex -10.5 -24 -15
    endloop
  endfacet
  facet normal 0 0 -1
    outer loop
      vertex -12.5 -27.5 -15
      vertex -10.5 -24 -15
      vertex -10.0607 -25.0607 -15
    endloop
  endfacet
  facet normal 0 0 -1
    outer loop
      vertex -12.5 -27.5 -15
      vertex -10.0607 -25.0607 -15
      vertex -9 -25.5 -15
    endloop
  endfacet
  facet normal 0 0 -1
    outer loop
      vertex -12.5 -27.5 -15
      vertex -9 -25.5 -15
      vertex 12.5 -27.5 -15
    endloop
  endfacet
  facet normal 0 0 -1
    outer loop
      vertex -7.5 -24 -15
      vertex 12.5 -27.5 -15
      vertex -7.93934 -25.0607 -15
    endloop
  endfacet
  facet normal 0 0 -1
    outer loop
      vertex -7.93934 -22.9393 -15
      vertex -12.5 27.5 -15
      vertex -7.5 -24 -15
    endloop
  endfacet
  facet normal 0 0 -1
    outer loop
      vertex -9 22.5 -15
      vertex 12.5 -27.5 -15
      vertex -10.0607 22.9393 -15
    endloop
  endfacet
  facet normal 0 0 -1
    outer loop
      vertex -9 -22.5 -15
      vertex -12.5 27.5 -15
      vertex -7.93934 -22.9393 -15
    endloop
  endfacet
  facet normal 0 0 -1
    outer loop
      vertex -10.0607 -22.9393 -15
      vertex -12.5 27.5 -15
      vertex -9 -22.5 -15
    endloop
  endfacet
  facet normal 0 0 -1
    outer loop
      vertex -10.5 -24 -15
      vertex -12.5 27.5 -15
      vertex -10.0607 -22.9393 -15
    endloop
  endfacet
  facet normal 0 0 -1
    outer loop
      vertex -10.0607 22.9393 -15
      vertex -12.5 27.5 -15
      vertex -10.5 24 -15
    endloop
  endfacet
  facet normal 0 0 -1
    outer loop
      vertex 12.5 -27.5 -15
      vertex -12.5 27.5 -15
      vertex -10.0607 22.9393 -15
    endloop
  endfacet
  facet normal 0 0 -1
    outer loop
      vertex -7.93934 25.0607 -15
      vertex 12.5 27.5 -15
      vertex -7.5 24 -15
    endloop
  endfacet
  facet normal 0 0 -1
    outer loop
      vertex 9 25.5 -15
      vertex -9 22.5 -15
      vertex 12.5 27.5 -15
    endloop
  endfacet
  facet normal 0 0 -1
    outer loop
      vertex -9 22.5 -15
      vertex -7.93934 22.9393 -15
      vertex 12.5 27.5 -15
    endloop
  endfacet
  facet normal 0 0 -1
    outer loop
      vertex -7.93934 22.9393 -15
      vertex -7.5 24 -15
      vertex 12.5 27.5 -15
    endloop
  endfacet
  facet normal 0 0 -1
    outer loop
      vertex -9 25.5 -15
      vertex -12.5 27.5 -15
      vertex -7.93934 25.0607 -15
    endloop
  endfacet
  facet normal 0 0 -1
    outer loop
      vertex 10.0607 -25.0607 -15
      vertex 12.5 -27.5 -15
      vertex 9 -25.5 -15
    endloop
  endfacet
  facet normal 0 0 -1
    outer loop
      vertex -10.0607 25.0607 -15
      vertex -12.5 27.5 -15
      vertex -9 25.5 -15
    endloop
  endfacet
  facet normal 0 0 -1
    outer loop
      vertex -10.5 24 -15
      vertex -12.5 27.5 -15
      vertex -10.0607 25.0607 -15
    endloop
  endfacet
  facet normal 0 0 -1
    outer loop
      vertex -7.5 -24 -15
      vertex -12.5 27.5 -15
      vertex 7.5 -24 -15
    endloop
  endfacet
  facet normal 0 0 -1
    outer loop
      vertex -7.5 -24 -15
      vertex 7.5 -24 -15
      vertex 7.93934 -25.0607 -15
    endloop
  endfacet
  facet normal 0 0 -1
    outer loop
      vertex -7.5 -24 -15
      vertex 7.93934 -25.0607 -15
      vertex 12.5 -27.5 -15
    endloop
  endfacet
  facet normal 0 0 -1
    outer loop
      vertex 7.93934 -25.0607 -15
      vertex 9 -25.5 -15
      vertex 12.5 -27.5 -15
    endloop
  endfacet
  facet normal 0 0 -1
    outer loop
      vertex 10.0607 25.0607 -15
      vertex 12.5 27.5 -15
      vertex 10.5 24 -15
    endloop
  endfacet
  facet normal 0 0 -1
    outer loop
      vertex 9 -22.5 -15
      vertex -12.5 27.5 -15
      vertex 10.0607 -22.9393 -15
    endloop
  endfacet
  facet normal 0 0 -1
    outer loop
      vertex 7.93934 -22.9393 -15
      vertex -12.5 27.5 -15
      vertex 9 -22.5 -15
    endloop
  endfacet
  facet normal 0 0 -1
    outer loop
      vertex 10.0607 -25.0607 -15
      vertex 10.5 -24 -15
      vertex 12.5 -27.5 -15
    endloop
  endfacet
  facet normal 0 0 -1
    outer loop
      vertex 10.5 -24 -15
      vertex 10.0607 -22.9393 -15
      vertex 12.5 -27.5 -15
    endloop
  endfacet
  facet normal 0 0 -1
    outer loop
      vertex 7.5 -24 -15
      vertex -12.5 27.5 -15
      vertex 7.93934 -22.9393 -15
    endloop
  endfacet
  facet normal 0 0 -1
    outer loop
      vertex 12.5 -27.5 -15
      vertex -9 22.5 -15
      vertex 7.5 24 -15
    endloop
  endfacet
  facet normal 0 0 -1
    outer loop
      vertex 12.5 -27.5 -15
      vertex 7.5 24 -15
      vertex 7.93934 22.9393 -15
    endloop
  endfacet
  facet normal 0 0 -1
    outer loop
      vertex 9 25.5 -15
      vertex 12.5 27.5 -15
      vertex 10.0607 25.0607 -15
    endloop
  endfacet
  facet normal 0 0 -1
    outer loop
      vertex 12.5 -27.5 -15
      vertex 7.93934 22.9393 -15
      vertex 9 22.5 -15
    endloop
  endfacet
  facet normal 0 0 -1
    outer loop
      vertex 12.5 -27.5 -15
      vertex 9 22.5 -15
      vertex 10.0607 22.9393 -15
    endloop
  endfacet
  facet normal 0 0 -1
    outer loop
      vertex 12.5 -27.5 -15
      vertex 10.0607 22.9393 -15
      vertex 12.5 27.5 -15
    endloop
  endfacet
  facet normal 0 0 -1
    outer loop
      vertex 10.0607 22.9393 -15
      vertex 10.5 24 -15
      vertex 12.5 27.5 -15
    endloop
  endfacet
  facet normal 0 0 -1
    outer loop
      vertex 7.93934 25.0607 -15
      vertex -9 22.5 -15
      vertex 9 25.5 -15
    endloop
  endfacet
  facet normal 0 0 -1
    outer loop
      vertex 7.5 24 -15
      vertex -9 22.5 -15
      vertex 7.93934 25.0607 -15
    endloop
  endfacet
  facet normal 0 0 -1
    outer loop
      vertex -7.93934 -25.0607 -15
      vertex 12.5 -27.5 -15
      vertex -9 -25.5 -15
    endloop
  endfacet
  facet normal 0 1 0
    outer loop
      vertex -12.5 27.5 -15
      vertex -12.5 27.5 -13
      vertex 12.5 27.5 -15
    endloop
  endfacet
  facet normal 0 1 0
    outer loop
      vertex 12.5 27.5 -15
      vertex -12.5 27.5 -13
      vertex 12.5 27.5 -13
    endloop
  endfacet
  facet normal 0 0 1
    outer loop
      vertex -9 -25.5 -13
      vertex -12.5 -27.5 -13
      vertex 12.5 -27.5 -13
    endloop
  endfacet
  facet normal 0 0 1
    outer loop
      vertex 6 20 -13
      vertex 6 -20 -13
      vertex 9 -22.5 -13
    endloop
  endfacet
  facet normal 0 0 1
    outer loop
      vertex -9 25.5 -13
      vertex -7.93934 25.0607 -13
      vertex 12.5 27.5 -13
    endloop
  endfacet
  facet normal 0 0 1
    outer loop
      vertex -10.5 -24 -13
      vertex -12.5 -27.5 -13
      vertex -10.0607 -25.0607 -13
    endloop
  endfacet
  facet normal 0 0 1
    outer loop
      vertex -7.93934 -22.9393 -13
      vertex -7.5 -24 -13
      vertex 12.5 -27.5 -13
    endloop
  endfacet
  facet normal 0 0 1
    outer loop
      vertex -12.5 27.5 -13
      vertex -12.5 -27.5 -13
      vertex -10.5 -24 -13
    endloop
  endfacet
  facet normal 0 0 1
    outer loop
      vertex -7.93934 -25.0607 -13
      vertex -9 -25.5 -13
      vertex 12.5 -27.5 -13
    endloop
  endfacet
  facet normal 0 0 1
    outer loop
      vertex -6 -20 -13
      vertex -9 -22.5 -13
      vertex 12.5 -27.5 -13
    endloop
  endfacet
  facet normal 0 0 1
    outer loop
      vertex -12.5 27.5 -13
      vertex -10.0607 -22.9393 -13
      vertex -9 -22.5 -13
    endloop
  endfacet
  facet normal 0 0 1
    outer loop
      vertex -9 -22.5 -13
      vertex -7.93934 -22.9393 -13
      vertex 12.5 -27.5 -13
    endloop
  endfacet
  facet normal 0 0 1
    outer loop
      vertex -7.5 -24 -13
      vertex -7.93934 -25.0607 -13
      vertex 12.5 -27.5 -13
    endloop
  endfacet
  facet normal 0 0 1
    outer loop
      vertex -10.0607 -25.0607 -13
      vertex -12.5 -27.5 -13
      vertex -9 -25.5 -13
    endloop
  endfacet
  facet normal 0 0 1
    outer loop
      vertex 6 20 -13
      vertex 9 -22.5 -13
      vertex 10.0607 -22.9393 -13
    endloop
  endfacet
  facet normal 0 0 1
    outer loop
      vertex -10.5 24 -13
      vertex -12.5 27.5 -13
      vertex -10.0607 22.9393 -13
    endloop
  endfacet
  facet normal 0 0 1
    outer loop
      vertex -10.0607 25.0607 -13
      vertex -12.5 27.5 -13
      vertex -10.5 24 -13
    endloop
  endfacet
  facet normal 0 0 1
    outer loop
      vertex -9 25.5 -13
      vertex -12.5 27.5 -13
      vertex -10.0607 25.0607 -13
    endloop
  endfacet
  facet normal 0 0 1
    outer loop
      vertex -7.93934 25.0607 -13
      vertex -7.5 24 -13
      vertex 12.5 27.5 -13
    endloop
  endfacet
  facet normal 0 0 1
    outer loop
      vertex 12.5 27.5 -13
      vertex -12.5 27.5 -13
      vertex -9 25.5 -13
    endloop
  endfacet
  facet normal 0 0 1
    outer loop
      vertex -7.5 24 -13
      vertex -7.93934 22.9393 -13
      vertex 12.5 27.5 -13
    endloop
  endfacet
  facet normal 0 0 1
    outer loop
      vertex 7.5 -24 -13
      vertex 7.93934 -22.9393 -13
      vertex 6 -20 -13
    endloop
  endfacet
  facet normal 0 0 1
    outer loop
      vertex 7.93934 -22.9393 -13
      vertex 9 -22.5 -13
      vertex 6 -20 -13
    endloop
  endfacet
  facet normal 0 0 1
    outer loop
      vertex 6 20 -13
      vertex 10.0607 -22.9393 -13
      vertex 12.5 -27.5 -13
    endloop
  endfacet
  facet normal 0 0 1
    outer loop
      vertex 7.93934 -25.0607 -13
      vertex -6 -20 -13
      vertex 12.5 -27.5 -13
    endloop
  endfacet
  facet normal 0 0 1
    outer loop
      vertex -12.5 27.5 -13
      vertex -9 -22.5 -13
      vertex -6 -20 -13
    endloop
  endfacet
  facet normal 0 0 1
    outer loop
      vertex 9 22.5 -13
      vertex 7.93934 22.9393 -13
      vertex 6 20 -13
    endloop
  endfacet
  facet normal 0 0 1
    outer loop
      vertex 12.5 27.5 -13
      vertex -7.93934 22.9393 -13
      vertex -6 20 -13
    endloop
  endfacet
  facet normal 0 0 1
    outer loop
      vertex 10.0607 22.9393 -13
      vertex 6 20 -13
      vertex 12.5 -27.5 -13
    endloop
  endfacet
  facet normal 0 0 1
    outer loop
      vertex 7.93934 22.9393 -13
      vertex -6 20 -13
      vertex 6 20 -13
    endloop
  endfacet
  facet normal 0 0 1
    outer loop
      vertex 9 -25.5 -13
      vertex 7.93934 -25.0607 -13
      vertex 12.5 -27.5 -13
    endloop
  endfacet
  facet normal 0 0 1
    outer loop
      vertex 7.5 -24 -13
      vertex -6 -20 -13
      vertex 7.93934 -25.0607 -13
    endloop
  endfacet
  facet normal 0 0 1
    outer loop
      vertex 6 -20 -13
      vertex -6 -20 -13
      vertex 7.5 -24 -13
    endloop
  endfacet
  facet normal 0 0 1
    outer loop
      vertex 10.0607 25.0607 -13
      vertex 10.5 24 -13
      vertex 12.5 27.5 -13
    endloop
  endfacet
  facet normal 0 0 1
    outer loop
      vertex 10.0607 -22.9393 -13
      vertex 10.5 -24 -13
      vertex 12.5 -27.5 -13
    endloop
  endfacet
  facet normal 0 0 1
    outer loop
      vertex 10.5 -24 -13
      vertex 10.0607 -25.0607 -13
      vertex 12.5 -27.5 -13
    endloop
  endfacet
  facet normal 0 0 1
    outer loop
      vertex 10.0607 -25.0607 -13
      vertex 9 -25.5 -13
      vertex 12.5 -27.5 -13
    endloop
  endfacet
  facet normal 0 0 1
    outer loop
      vertex 7.5 24 -13
      vertex -6 20 -13
      vertex 7.93934 22.9393 -13
    endloop
  endfacet
  facet normal 0 0 1
    outer loop
      vertex 7.93934 25.0607 -13
      vertex -6 20 -13
      vertex 7.5 24 -13
    endloop
  endfacet
  facet normal 0 0 1
    outer loop
      vertex 12.5 27.5 -13
      vertex -6 20 -13
      vertex 7.93934 25.0607 -13
    endloop
  endfacet
  facet normal 0 0 1
    outer loop
      vertex 12.5 27.5 -13
      vertex 7.93934 25.0607 -13
      vertex 9 25.5 -13
    endloop
  endfacet
  facet normal 0 0 1
    outer loop
      vertex 9 25.5 -13
      vertex 10.0607 25.0607 -13
      vertex 12.5 27.5 -13
    endloop
  endfacet
  facet normal 0 0 1
    outer loop
      vertex 12.5 27.5 -13
      vertex 10.5 24 -13
      vertex 12.5 -27.5 -13
    endloop
  endfacet
  facet normal 0 0 1
    outer loop
      vertex 10.5 24 -13
      vertex 10.0607 22.9393 -13
      vertex 12.5 -27.5 -13
    endloop
  endfacet
  facet normal 0 0 1
    outer loop
      vertex 9 22.5 -13
      vertex 6 20 -13
      vertex 10.0607 22.9393 -13
    endloop
  endfacet
  facet normal 0 0 1
    outer loop
      vertex -10.5 -24 -13
      vertex -10.0607 -22.9393 -13
      vertex -12.5 27.5 -13
    endloop
  endfacet
  facet normal 0 0 1
    outer loop
      vertex -6 -20 -13
      vertex -10.0607 22.9393 -13
      vertex -12.5 27.5 -13
    endloop
  endfacet
  facet normal 0 0 1
    outer loop
      vertex -6 -20 -13
      vertex -9 22.5 -13
      vertex -10.0607 22.9393 -13
    endloop
  endfacet
  facet normal 0 0 1
    outer loop
      vertex -6 -20 -13
      vertex -7.93934 22.9393 -13
      vertex -9 22.5 -13
    endloop
  endfacet
  facet normal 0 0 1
    outer loop
      vertex -6 -20 -13
      vertex -6 20 -13
      vertex -7.93934 22.9393 -13
    endloop
  endfacet
  facet normal 1 0 0
    outer loop
      vertex 12.5 -27.5 -13
      vertex 12.5 -27.5 -15
      vertex 12.5 27.5 -15
    endloop
  endfacet
  facet normal 1 0 0
    outer loop
      vertex 12.5 27.5 -13
      vertex 12.5 -27.5 -13
      vertex 12.5 27.5 -15
    endloop
  endfacet
  facet normal 0.923879 -0.382684 0
    outer loop
      vertex -10.0607 -22.9393 -15
      vertex -10.0607 -22.9393 -13
      vertex -10.5 -24 -13
    endloop
  endfacet
  facet normal 0.923879 -0.382684 0
    outer loop
      vertex -10.5 -24 -15
      vertex -10.0607 -22.9393 -15
      vertex -10.5 -24 -13
    endloop
  endfacet
  facet normal 0.923879 0.382684 0
    outer loop
      vertex -10.5 -24 -13
      vertex -10.0607 -25.0607 -13
      vertex -10.0607 -25.0607 -15
    endloop
  endfacet
  facet normal 0.923879 0.382684 0
    outer loop
      vertex -10.5 -24 -15
      vertex -10.5 -24 -13
      vertex -10.0607 -25.0607 -15
    endloop
  endfacet
  facet normal 0.382684 -0.923879 0
    outer loop
      vertex -9 -22.5 -15
      vertex -9 -22.5 -13
      vertex -10.0607 -22.9393 -13
    endloop
  endfacet
  facet normal 0.382684 -0.923879 0
    outer loop
      vertex -10.0607 -22.9393 -15
      vertex -9 -22.5 -15
      vertex -10.0607 -22.9393 -13
    endloop
  endfacet
  facet normal -0.382684 -0.923879 0
    outer loop
      vertex -7.93934 -22.9393 -15
      vertex -7.93934 -22.9393 -13
      vertex -9 -22.5 -13
    endloop
  endfacet
  facet normal -0.382684 -0.923879 0
    outer loop
      vertex -9 -22.5 -15
      vertex -7.93934 -22.9393 -15
      vertex -9 -22.5 -13
    endloop
  endfacet
  facet normal -0.923879 -0.382684 0
    outer loop
      vertex -7.5 -24 -13
      vertex -7.93934 -22.9393 -13
      vertex -7.5 -24 -15
    endloop
  endfacet
  facet normal -0.923879 -0.382684 0
    outer loop
      vertex -7.5 -24 -15
      vertex -7.93934 -22.9393 -13
      vertex -7.93934 -22.9393 -15
    endloop
  endfacet
  facet normal -0.923879 0.382684 0
    outer loop
      vertex -7.5 -24 -13
      vertex -7.5 -24 -15
      vertex -7.93934 -25.0607 -13
    endloop
  endfacet
  facet normal -0.923879 0.382684 0
    outer loop
      vertex -7.93934 -25.0607 -13
      vertex -7.5 -24 -15
      vertex -7.93934 -25.0607 -15
    endloop
  endfacet
  facet normal -0.382684 0.923879 0
    outer loop
      vertex -7.93934 -25.0607 -13
      vertex -7.93934 -25.0607 -15
      vertex -9 -25.5 -13
    endloop
  endfacet
  facet normal -0.382684 0.923879 0
    outer loop
      vertex -9 -25.5 -13
      vertex -7.93934 -25.0607 -15
      vertex -9 -25.5 -15
    endloop
  endfacet
  facet normal 0.382684 0.923879 0
    outer loop
      vertex -9 -25.5 -13
      vertex -9 -25.5 -15
      vertex -10.0607 -25.0607 -13
    endloop
  endfacet
  facet normal 0.382684 0.923879 0
    outer loop
      vertex -10.0607 -25.0607 -13
      vertex -9 -25.5 -15
      vertex -10.0607 -25.0607 -15
    endloop
  endfacet
  facet normal 0.923879 -0.382684 0
    outer loop
      vertex -10.0607 25.0607 -15
      vertex -10.0607 25.0607 -13
      vertex -10.5 24 -13
    endloop
  endfacet
  facet normal 0.923879 -0.382684 0
    outer loop
      vertex -10.5 24 -15
      vertex -10.0607 25.0607 -15
      vertex -10.5 24 -13
    endloop
  endfacet
  facet normal 0.923879 0.382684 0
    outer loop
      vertex -10.5 24 -13
      vertex -10.0607 22.9393 -13
      vertex -10.0607 22.9393 -15
    endloop
  endfacet
  facet normal 0.923879 0.382684 0
    outer loop
      vertex -10.5 24 -15
      vertex -10.5 24 -13
      vertex -10.0607 22.9393 -15
    endloop
  endfacet
  facet normal 0.382684 -0.923879 0
    outer loop
      vertex -9 25.5 -15
      vertex -9 25.5 -13
      vertex -10.0607 25.0607 -13
    endloop
  endfacet
  facet normal 0.382684 -0.923879 0
    outer loop
      vertex -10.0607 25.0607 -15
      vertex -9 25.5 -15
      vertex -10.0607 25.0607 -13
    endloop
  endfacet
  facet normal -0.382684 -0.923879 0
    outer loop
      vertex -7.93934 25.0607 -15
      vertex -7.93934 25.0607 -13
      vertex -9 25.5 -13
    endloop
  endfacet
  facet normal -0.382684 -0.923879 0
    outer loop
      vertex -9 25.5 -15
      vertex -7.93934 25.0607 -15
      vertex -9 25.5 -13
    endloop
  endfacet
  facet normal -0.923879 -0.382684 0
    outer loop
      vertex -7.5 24 -13
      vertex -7.93934 25.0607 -13
      vertex -7.5 24 -15
    endloop
  endfacet
  facet normal -0.923879 -0.382684 0
    outer loop
      vertex -7.5 24 -15
      vertex -7.93934 25.0607 -13
      vertex -7.93934 25.0607 -15
    endloop
  endfacet
  facet normal -0.923879 0.382684 0
    outer loop
      vertex -7.5 24 -13
      vertex -7.5 24 -15
      vertex -7.93934 22.9393 -13
    endloop
  endfacet
  facet normal -0.923879 0.382684 0
    outer loop
      vertex -7.93934 22.9393 -13
      vertex -7.5 24 -15
      vertex -7.93934 22.9393 -15
    endloop
  endfacet
  facet normal -0.382684 0.923879 0
    outer loop
      vertex -7.93934 22.9393 -13
      vertex -7.93934 22.9393 -15
      vertex -9 22.5 -13
    endloop
  endfacet
  facet normal -0.382684 0.923879 0
    outer loop
      vertex -9 22.5 -13
      vertex -7.93934 22.9393 -15
      vertex -9 22.5 -15
    endloop
  endfacet
  facet normal 0.382684 0.923879 0
    outer loop
      vertex -9 22.5 -13
      vertex -9 22.5 -15
      vertex -10.0607 22.9393 -13
    endloop
  endfacet
  facet normal 0.382684 0.923879 0
    outer loop
      vertex -10.0607 22.9393 -13
      vertex -9 22.5 -15
      vertex -10.0607 22.9393 -15
    endloop
  endfacet
  facet normal 0.923879 -0.382684 0
    outer loop
      vertex 7.93934 -22.9393 -15
      vertex 7.93934 -22.9393 -13
      vertex 7.5 -24 -13
    endloop
  endfacet
  facet normal 0.923879 -0.382684 0
    outer loop
      vertex 7.5 -24 -15
      vertex 7.93934 -22.9393 -15
      vertex 7.5 -24 -13
    endloop
  endfacet
  facet normal 0.923879 0.382684 0
    outer loop
      vertex 7.5 -24 -13
      vertex 7.93934 -25.0607 -13
      vertex 7.93934 -25.0607 -15
    endloop
  endfacet
  facet normal 0.923879 0.382684 0
    outer loop
      vertex 7.5 -24 -15
      vertex 7.5 -24 -13
      vertex 7.93934 -25.0607 -15
    endloop
  endfacet
  facet normal 0.382684 -0.923879 0
    outer loop
      vertex 9 -22.5 -15
      vertex 9 -22.5 -13
      vertex 7.93934 -22.9393 -13
    endloop
  endfacet
  facet normal 0.382684 -0.923879 0
    outer loop
      vertex 7.93934 -22.9393 -15
      vertex 9 -22.5 -15
      vertex 7.93934 -22.9393 -13
    endloop
  endfacet
  facet normal -0.382684 -0.923879 0
    outer loop
      vertex 10.0607 -22.9393 -15
      vertex 10.0607 -22.9393 -13
      vertex 9 -22.5 -13
    endloop
  endfacet
  facet normal -0.382684 -0.923879 0
    outer loop
      vertex 9 -22.5 -15
      vertex 10.0607 -22.9393 -15
      vertex 9 -22.5 -13
    endloop
  endfacet
  facet normal -0.923879 -0.382684 0
    outer loop
      vertex 10.5 -24 -13
      vertex 10.0607 -22.9393 -13
      vertex 10.5 -24 -15
    endloop
  endfacet
  facet normal -0.923879 -0.382684 0
    outer loop
      vertex 10.5 -24 -15
      vertex 10.0607 -22.9393 -13
      vertex 10.0607 -22.9393 -15
    endloop
  endfacet
  facet normal -0.923879 0.382684 0
    outer loop
      vertex 10.5 -24 -13
      vertex 10.5 -24 -15
      vertex 10.0607 -25.0607 -13
    endloop
  endfacet
  facet normal -0.923879 0.382684 0
    outer loop
      vertex 10.0607 -25.0607 -13
      vertex 10.5 -24 -15
      vertex 10.0607 -25.0607 -15
    endloop
  endfacet
  facet normal -0.382684 0.923879 0
    outer loop
      vertex 10.0607 -25.0607 -13
      vertex 10.0607 -25.0607 -15
      vertex 9 -25.5 -13
    endloop
  endfacet
  facet normal -0.382684 0.923879 0
    outer loop
      vertex 9 -25.5 -13
      vertex 10.0607 -25.0607 -15
      vertex 9 -25.5 -15
    endloop
  endfacet
  facet normal 0.382684 0.923879 0
    outer loop
      vertex 9 -25.5 -13
      vertex 9 -25.5 -15
      vertex 7.93934 -25.0607 -13
    endloop
  endfacet
  facet normal 0.382684 0.923879 0
    outer loop
      vertex 7.93934 -25.0607 -13
      vertex 9 -25.5 -15
      vertex 7.93934 -25.0607 -15
    endloop
  endfacet
  facet normal 0.923879 -0.382684 0
    outer loop
      vertex 7.93934 25.0607 -15
      vertex 7.93934 25.0607 -13
      vertex 7.5 24 -13
    endloop
  endfacet
  facet normal 0.923879 -0.382684 0
    outer loop
      vertex 7.5 24 -15
      vertex 7.93934 25.0607 -15
      vertex 7.5 24 -13
    endloop
  endfacet
  facet normal 0.923879 0.382684 0
    outer loop
      vertex 7.5 24 -13
      vertex 7.93934 22.9393 -13
      vertex 7.93934 22.9393 -15
    endloop
  endfacet
  facet normal 0.923879 0.382684 0
    outer loop
      vertex 7.5 24 -15
      vertex 7.5 24 -13
      vertex 7.93934 22.9393 -15
    endloop
  endfacet
  facet normal 0.382684 -0.923879 0
    outer loop
      vertex 9 25.5 -15
      vertex 9 25.5 -13
      vertex 7.93934 25.0607 -13
    endloop
  endfacet
  facet normal 0.382684 -0.923879 0
    outer loop
      vertex 7.93934 25.0607 -15
      vertex 9 25.5 -15
      vertex 7.93934 25.0607 -13
    endloop
  endfacet
  facet normal -0.382684 -0.923879 0
    outer loop
      vertex 10.0607 25.0607 -15
      vertex 10.0607 25.0607 -13
      vertex 9 25.5 -13
    endloop
  endfacet
  facet normal -0.382684 -0.923879 0
    outer loop
      vertex 9 25.5 -15
      vertex 10.0607 25.0607 -15
      vertex 9 25.5 -13
    endloop
  endfacet
  facet normal -0.923879 -0.382684 0
    outer loop
      vertex 10.5 24 -13
      vertex 10.0607 25.0607 -13
      vertex 10.5 24 -15
    endloop
  endfacet
  facet normal -0.923879 -0.382684 0
    outer loop
      vertex 10.5 24 -15
      vertex 10.0607 25.0607 -13
      vertex 10.0607 25.0607 -15
    endloop
  endfacet
  facet normal -0.923879 0.382684 0
    outer loop
      vertex 10.5 24 -13
      vertex 10.5 24 -15
      vertex 10.0607 22.9393 -13
    endloop
  endfacet
  facet normal -0.923879 0.382684 0
    outer loop
      vertex 10.0607 22.9393 -13
      vertex 10.5 24 -15
      vertex 10.0607 22.9393 -15
    endloop
  endfacet
  facet normal -0.382684 0.923879 0
    outer loop
      vertex 10.0607 22.9393 -13
      vertex 10.0607 22.9393 -15
      vertex 9 22.5 -13
    endloop
  endfacet
  facet normal -0.382684 0.923879 0
    outer loop
      vertex 9 22.5 -13
      vertex 10.0607 22.9393 -15
      vertex 9 22.5 -15
    endloop
  endfacet
  facet normal 0.382684 0.923879 0
    outer loop
      vertex 9 22.5 -13
      vertex 9 22.5 -15
      vertex 7.93934 22.9393 -13
    endloop
  endfacet
  facet normal 0.382684 0.923879 0
    outer loop
      vertex 7.93934 22.9393 -13
      vertex 9 22.5 -15
      vertex 7.93934 22.9393 -15
    endloop
  endfacet
  facet normal -1 0 0
    outer loop
      vertex -6 1.504 -11.9054
      vertex -6 20 -13
      vertex -6 0 -12
    endloop
  endfacet
  facet normal -1 0 0
    outer loop
      vertex -6 -11.9763 -0.753486
      vertex -6 -20 0
      vertex -6 -11.9763 0
    endloop
  endfacet
  facet normal -1 0 0
    outer loop
      vertex -6 -11.7874 -2.24858
      vertex -6 -20 0
      vertex -6 -11.9763 -0.753486
    endloop
  endfacet
  facet normal -1 0 0
    outer loop
      vertex -6 -20 -13
      vertex -6 -20 0
      vertex -6 -11.4127 -3.7082
    endloop
  endfacet
  facet normal -1 0 0
    outer loop
      vertex -6 -20 -13
      vertex -6 -11.4127 -3.7082
      vertex -6 -10.8579 -5.10935
    endloop
  endfacet
  facet normal -1 0 0
    outer loop
      vertex -6 -20 -13
      vertex -6 -10.8579 -5.10935
      vertex -6 -10.1319 -6.42992
    endloop
  endfacet
  facet normal -1 0 0
    outer loop
      vertex -6 -20 -13
      vertex -6 -10.1319 -6.42992
      vertex -6 -9.24616 -7.64909
    endloop
  endfacet
  facet normal -1 0 0
    outer loop
      vertex -6 -20 -13
      vertex -6 -9.24616 -7.64909
      vertex -6 -8.21457 -8.74762
    endloop
  endfacet
  facet normal -1 0 0
    outer loop
      vertex -6 -20 -13
      vertex -6 -8.21457 -8.74762
      vertex -6 -7.05342 -9.7082
    endloop
  endfacet
  facet normal -1 0 0
    outer loop
      vertex -6 -20 -13
      vertex -6 -7.05342 -9.7082
      vertex -6 -5.78104 -10.5157
    endloop
  endfacet
  facet normal -1 0 0
    outer loop
      vertex -6 -20 -13
      vertex -6 -5.78104 -10.5157
      vertex -6 -4.41749 -11.1573
    endloop
  endfacet
  facet normal -1 0 0
    outer loop
      vertex -6 -20 -13
      vertex -6 -4.41749 -11.1573
      vertex -6 -2.98428 -11.623
    endloop
  endfacet
  facet normal -1 0 0
    outer loop
      vertex -6 -20 -13
      vertex -6 -2.98428 -11.623
      vertex -6 -1.504 -11.9054
    endloop
  endfacet
  facet normal -1 0 0
    outer loop
      vertex -6 -20 -13
      vertex -6 -1.504 -11.9054
      vertex -6 0 -12
    endloop
  endfacet
  facet normal -1 0 0
    outer loop
      vertex -6 -20 -13
      vertex -6 0 -12
      vertex -6 20 -13
    endloop
  endfacet
  facet normal -1 0 0
    outer loop
      vertex -6 2.98428 -11.623
      vertex -6 20 -13
      vertex -6 1.504 -11.9054
    endloop
  endfacet
  facet normal -1 0 0
    outer loop
      vertex -6 4.41749 -11.1573
      vertex -6 20 -13
      vertex -6 2.98428 -11.623
    endloop
  endfacet
  facet normal -1 0 0
    outer loop
      vertex -6 5.78104 -10.5157
      vertex -6 20 -13
      vertex -6 4.41749 -11.1573
    endloop
  endfacet
  facet normal -1 0 0
    outer loop
      vertex -6 7.05342 -9.7082
      vertex -6 20 -13
      vertex -6 5.78104 -10.5157
    endloop
  endfacet
  facet normal -1 0 0
    outer loop
      vertex -6 8.21457 -8.74762
      vertex -6 20 -13
      vertex -6 7.05342 -9.7082
    endloop
  endfacet
  facet normal -1 0 0
    outer loop
      vertex -6 9.24616 -7.64909
      vertex -6 20 -13
      vertex -6 8.21457 -8.74762
    endloop
  endfacet
  facet normal -1 0 0
    outer loop
      vertex -6 20 -13
      vertex -6 9.24616 -7.64909
      vertex -6 10.1319 -6.42992
    endloop
  endfacet
  facet normal -1 0 0
    outer loop
      vertex -6 10.1319 -6.42992
      vertex -6 10.8579 -5.10935
      vertex -6 20 -13
    endloop
  endfacet
  facet normal -1 0 0
    outer loop
      vertex -6 10.8579 -5.10935
      vertex -6 11.4127 -3.7082
      vertex -6 20 -13
    endloop
  endfacet
  facet normal -1 0 0
    outer loop
      vertex -6 11.4127 -3.7082
      vertex -6 11.7874 -2.24858
      vertex -6 20 -13
    endloop
  endfacet
  facet normal -1 0 0
    outer loop
      vertex -6 11.7874 -2.24858
      vertex -6 11.9763 -0.753486
      vertex -6 20 -13
    endloop
  endfacet
  facet normal -1 0 0
    outer loop
      vertex -6 11.9763 -0.753486
      vertex -6 11.9763 0
      vertex -6 20 -13
    endloop
  endfacet
  facet normal -1 0 0
    outer loop
      vertex -6 20 -13
      vertex -6 11.9763 0
      vertex -6 20 0
    endloop
  endfacet
  facet normal -1 0 0
    outer loop
      vertex -6 -11.4127 -3.7082
      vertex -6 -20 0
      vertex -6 -11.7874 -2.24858
    endloop
  endfacet
  facet normal 0 -1 0
    outer loop
      vertex -6 -20 0
      vertex -6 -20 -13
      vertex 6 -20 -13
    endloop
  endfacet
  facet normal 0 -1 0
    outer loop
      vertex 3 -20 0
      vertex -6 -20 0
      vertex 6 -20 -13
    endloop
  endfacet
  facet normal 0 -1 0
    outer loop
      vertex 5 -20 0
      vertex 3 -20 0
      vertex 6 -20 -13
    endloop
  endfacet
  facet normal 0 -1 0
    outer loop
      vertex 6 -20 0
      vertex 5 -20 0
      vertex 6 -20 -13
    endloop
  endfacet
  facet normal 0 -1 0
    outer loop
      vertex 5 -20 2
      vertex 3 -20 0
      vertex 5 -20 0
    endloop
  endfacet
  facet normal 0 -1 0
    outer loop
      vertex 3 -20 2
      vertex 3 -20 0
      vertex 5 -20 2
    endloop
  endfacet
  facet normal 1 0 0
    outer loop
      vertex 6 0 -12
      vertex 6 -20 -13
      vertex 6 20 -13
    endloop
  endfacet
  facet normal 1 0 0
    outer loop
      vertex 6 0 -12
      vertex 6 -1.504 -11.9054
      vertex 6 -20 -13
    endloop
  endfacet
  facet normal 1 0 0
    outer loop
      vertex 6 20 0
      vertex 6 11.9763 0
      vertex 6 20 -13
    endloop
  endfacet
  facet normal 1 0 0
    outer loop
      vertex 6 11.9763 0
      vertex 6 11.9763 -0.753486
      vertex 6 20 -13
    endloop
  endfacet
  facet normal 1 0 0
    outer loop
      vertex 6 11.9763 -0.753486
      vertex 6 11.7874 -2.24858
      vertex 6 20 -13
    endloop
  endfacet
  facet normal 1 0 0
    outer loop
      vertex 6 11.7874 -2.24858
      vertex 6 11.4127 -3.7082
      vertex 6 20 -13
    endloop
  endfacet
  facet normal 1 0 0
    outer loop
      vertex 6 11.4127 -3.7082
      vertex 6 10.8579 -5.10935
      vertex 6 20 -13
    endloop
  endfacet
  facet normal 1 0 0
    outer loop
      vertex 6 10.8579 -5.10935
      vertex 6 10.1319 -6.42992
      vertex 6 20 -13
    endloop
  endfacet
  facet normal 1 0 0
    outer loop
      vertex 6 -11.9763 -0.753486
      vertex 6 -11.9763 0
      vertex 6 -20 0
    endloop
  endfacet
  facet normal 1 0 0
    outer loop
      vertex 6 10.1319 -6.42992
      vertex 6 9.24616 -7.64909
      vertex 6 20 -13
    endloop
  endfacet
  facet normal 1 0 0
    outer loop
      vertex 6 9.24616 -7.64909
      vertex 6 8.21457 -8.74762
      vertex 6 20 -13
    endloop
  endfacet
  facet normal 1 0 0
    outer loop
      vertex 6 7.05342 -9.7082
      vertex 6 5.78104 -10.5157
      vertex 6 20 -13
    endloop
  endfacet
  facet normal 1 0 0
    outer loop
      vertex 6 5.78104 -10.5157
      vertex 6 4.41749 -11.1573
      vertex 6 20 -13
    endloop
  endfacet
  facet normal 1 0 0
    outer loop
      vertex 6 4.41749 -11.1573
      vertex 6 2.98428 -11.623
      vertex 6 20 -13
    endloop
  endfacet
  facet normal 1 0 0
    outer loop
      vertex 6 -2.98428 -11.623
      vertex 6 -4.41749 -11.1573
      vertex 6 -20 -13
    endloop
  endfacet
  facet normal 1 0 0
    outer loop
      vertex 6 2.98428 -11.623
      vertex 6 1.504 -11.9054
      vertex 6 20 -13
    endloop
  endfacet
  facet normal 1 0 0
    outer loop
      vertex 6 1.504 -11.9054
      vertex 6 0 -12
      vertex 6 20 -13
    endloop
  endfacet
  facet normal 1 0 0
    outer loop
      vertex 6 -11.4127 -3.7082
      vertex 6 -11.7874 -2.24858
      vertex 6 -20 0
    endloop
  endfacet
  facet normal 1 0 0
    outer loop
      vertex 6 -4.41749 -11.1573
      vertex 6 -5.78104 -10.5157
      vertex 6 -20 -13
    endloop
  endfacet
  facet normal 1 0 0
    outer loop
      vertex 6 -8.21457 -8.74762
      vertex 6 -9.24616 -7.64909
      vertex 6 -20 0
    endloop
  endfacet
  facet normal 1 0 0
    outer loop
      vertex 6 -7.05342 -9.7082
      vertex 6 -20 -13
      vertex 6 -5.78104 -10.5157
    endloop
  endfacet
  facet normal 1 0 0
    outer loop
      vertex 6 -20 0
      vertex 6 -20 -13
      vertex 6 -7.05342 -9.7082
    endloop
  endfacet
  facet normal 1 0 0
    outer loop
      vertex 6 -20 0
      vertex 6 -7.05342 -9.7082
      vertex 6 -8.21457 -8.74762
    endloop
  endfacet
  facet normal 1 0 0
    outer loop
      vertex 6 -20 0
      vertex 6 -9.24616 -7.64909
      vertex 6 -10.1319 -6.42992
    endloop
  endfacet
  facet normal 1 0 0
    outer loop
      vertex 6 -20 0
      vertex 6 -10.1319 -6.42992
      vertex 6 -10.8579 -5.10935
    endloop
  endfacet
  facet normal 1 0 0
    outer loop
      vertex 6 -20 0
      vertex 6 -10.8579 -5.10935
      vertex 6 -11.4127 -3.7082
    endloop
  endfacet
  facet normal 1 0 0
    outer loop
      vertex 6 8.21457 -8.74762
      vertex 6 7.05342 -9.7082
      vertex 6 20 -13
    endloop
  endfacet
  facet normal 1 0 0
    outer loop
      vertex 6 -1.504 -11.9054
      vertex 6 -2.98428 -11.623
      vertex 6 -20 -13
    endloop
  endfacet
  facet normal 1 0 0
    outer loop
      vertex 6 -11.7874 -2.24858
      vertex 6 -11.9763 -0.753486
      vertex 6 -20 0
    endloop
  endfacet
  facet normal 0 1 0
    outer loop
      vertex -2.75 20 -2.25
      vertex 6 20 -13
      vertex -5.25 20 -2.25
    endloop
  endfacet
  facet normal 0 1 0
    outer loop
      vertex -6 20 -13
      vertex -6 20 0
      vertex -5.25 20 -2.25
    endloop
  endfacet
  facet normal 0 1 0
    outer loop
      vertex -6 20 -13
      vertex -5.25 20 -2.25
      vertex 6 20 -13
    endloop
  endfacet
  facet normal 0 1 0
    outer loop
      vertex 6 20 -13
      vertex -2.75 20 -2.25
      vertex -2.75 20 0
    endloop
  endfacet
  facet normal 0 1 0
    outer loop
      vertex 6 20 -13
      vertex -2.75 20 0
      vertex 6 20 0
    endloop
  endfacet
  facet normal 0 1 0
    outer loop
      vertex -5.25 20 -2.25
      vertex -6 20 0
      vertex -5.25 20 0
    endloop
  endfacet
  facet normal 0 0 1
    outer loop
      vertex -5.25 15.75 0
      vertex -6 11.9763 0
      vertex -3.5 11.9763 0
    endloop
  endfacet
  facet normal 0 0 1
    outer loop
      vertex 1.5 16.5 0
      vertex 1.06066 15.4393 0
      vertex 6 11.9763 0
    endloop
  endfacet
  facet normal 0 0 1
    outer loop
      vertex -5.25 15.75 0
      vertex -5.25 20 0
      vertex -6 20 0
    endloop
  endfacet
  facet normal 0 0 1
    outer loop
      vertex 6 11.9763 0
      vertex 3.5 13.4734 0
      vertex 3.5 11.9763 0
    endloop
  endfacet
  facet normal 0 0 1
    outer loop
      vertex 3.5 13.4734 0
      vertex -2.75 15.75 0
      vertex -3.5 13.4734 0
    endloop
  endfacet
  facet normal 0 0 1
    outer loop
      vertex -1.06066 17.5607 0
      vertex 0 18 0
      vertex -2.75 20 0
    endloop
  endfacet
  facet normal 0 0 1
    outer loop
      vertex -6 20 0
      vertex -6 11.9763 0
      vertex -5.25 15.75 0
    endloop
  endfacet
  facet normal 0 0 1
    outer loop
      vertex 3.5 13.4734 0
      vertex -1.06066 15.4393 0
      vertex -2.75 15.75 0
    endloop
  endfacet
  facet normal 0 0 1
    outer loop
      vertex -3.5 13.4734 0
      vertex -5.25 15.75 0
      vertex -3.5 11.9763 0
    endloop
  endfacet
  facet normal 0 0 1
    outer loop
      vertex -2.75 15.75 0
      vertex -5.25 15.75 0
      vertex -3.5 13.4734 0
    endloop
  endfacet
  facet normal 0 0 1
    outer loop
      vertex 6 20 0
      vertex -2.75 20 0
      vertex 0 18 0
    endloop
  endfacet
  facet normal 0 0 1
    outer loop
      vertex 6 20 0
      vertex 1.06066 17.5607 0
      vertex 6 11.9763 0
    endloop
  endfacet
  facet normal 0 0 1
    outer loop
      vertex 6 20 0
      vertex 0 18 0
      vertex 1.06066 17.5607 0
    endloop
  endfacet
  facet normal 0 0 1
    outer loop
      vertex 1.06066 17.5607 0
      vertex 1.5 16.5 0
      vertex 6 11.9763 0
    endloop
  endfacet
  facet normal 0 0 1
    outer loop
      vertex 3.5 13.4734 0
      vertex 0 15 0
      vertex -1.06066 15.4393 0
    endloop
  endfacet
  facet normal 0 0 1
    outer loop
      vertex 1.06066 15.4393 0
      vertex 0 15 0
      vertex 3.5 13.4734 0
    endloop
  endfacet
  facet normal 0 0 1
    outer loop
      vertex 1.06066 15.4393 0
      vertex 3.5 13.4734 0
      vertex 6 11.9763 0
    endloop
  endfacet
  facet normal 0 0 1
    outer loop
      vertex -2.75 20 0
      vertex -1.5 16.5 0
      vertex -1.06066 17.5607 0
    endloop
  endfacet
  facet normal 0 0 1
    outer loop
      vertex -1.5 16.5 0
      vertex -2.75 15.75 0
      vertex -1.06066 15.4393 0
    endloop
  endfacet
  facet normal 0 0 1
    outer loop
      vertex -2.75 20 0
      vertex -2.75 15.75 0
      vertex -1.5 16.5 0
    endloop
  endfacet
  facet normal 0 -1 0
    outer loop
      vertex -3.5 11.9763 -0.753486
      vertex -3.5 11.9763 0
      vertex -6 11.9763 0
    endloop
  endfacet
  facet normal 0 -1 0
    outer loop
      vertex -6 11.9763 -0.753486
      vertex -3.5 11.9763 -0.753486
      vertex -6 11.9763 0
    endloop
  endfacet
  facet normal -2.78296e-017 -0.992115 0.125333
    outer loop
      vertex -3.5 11.7874 -2.24858
      vertex -3.5 11.9763 -0.753486
      vertex -6 11.9763 -0.753486
    endloop
  endfacet
  facet normal -2.78296e-017 -0.992115 0.125333
    outer loop
      vertex -6 11.7874 -2.24858
      vertex -3.5 11.7874 -2.24858
      vertex -6 11.9763 -0.753486
    endloop
  endfacet
  facet normal -5.52203e-017 -0.968583 0.24869
    outer loop
      vertex -3.5 11.4127 -3.7082
      vertex -3.5 11.7874 -2.24858
      vertex -6 11.7874 -2.24858
    endloop
  endfacet
  facet normal -5.52203e-017 -0.968583 0.24869
    outer loop
      vertex -6 11.4127 -3.7082
      vertex -3.5 11.4127 -3.7082
      vertex -6 11.7874 -2.24858
    endloop
  endfacet
  facet normal -8.174e-017 -0.929777 0.368124
    outer loop
      vertex -3.5 10.8579 -5.10935
      vertex -3.5 11.4127 -3.7082
      vertex -6 11.4127 -3.7082
    endloop
  endfacet
  facet normal -8.174e-017 -0.929777 0.368124
    outer loop
      vertex -6 10.8579 -5.10935
      vertex -3.5 10.8579 -5.10935
      vertex -6 11.4127 -3.7082
    endloop
  endfacet
  facet normal -1.06971e-016 -0.876307 0.481754
    outer loop
      vertex -3.5 10.1319 -6.42992
      vertex -3.5 10.8579 -5.10935
      vertex -6 10.8579 -5.10935
    endloop
  endfacet
  facet normal -1.06971e-016 -0.876307 0.481754
    outer loop
      vertex -6 10.1319 -6.42992
      vertex -3.5 10.1319 -6.42992
      vertex -6 10.8579 -5.10935
    endloop
  endfacet
  facet normal -1.30515e-016 -0.809017 0.587785
    outer loop
      vertex -3.5 9.24616 -7.64909
      vertex -3.5 10.1319 -6.42992
      vertex -6 10.1319 -6.42992
    endloop
  endfacet
  facet normal -1.30515e-016 -0.809017 0.587785
    outer loop
      vertex -6 9.24616 -7.64909
      vertex -3.5 9.24616 -7.64909
      vertex -6 10.1319 -6.42992
    endloop
  endfacet
  facet normal -1.52e-016 -0.728969 0.684547
    outer loop
      vertex -3.5 8.21457 -8.74762
      vertex -3.5 9.24616 -7.64909
      vertex -6 9.24616 -7.64909
    endloop
  endfacet
  facet normal -1.52e-016 -0.728969 0.684547
    outer loop
      vertex -6 8.21457 -8.74762
      vertex -3.5 8.21457 -8.74762
      vertex -6 9.24616 -7.64909
    endloop
  endfacet
  facet normal -1.71088e-016 -0.637424 0.770513
    outer loop
      vertex -3.5 7.05342 -9.7082
      vertex -3.5 8.21457 -8.74762
      vertex -6 8.21457 -8.74762
    endloop
  endfacet
  facet normal -1.71088e-016 -0.637424 0.770513
    outer loop
      vertex -6 7.05342 -9.7082
      vertex -3.5 7.05342 -9.7082
      vertex -6 8.21457 -8.74762
    endloop
  endfacet
  facet normal -1.87478e-016 -0.535827 0.844328
    outer loop
      vertex -3.5 5.78104 -10.5157
      vertex -3.5 7.05342 -9.7082
      vertex -6 7.05342 -9.7082
    endloop
  endfacet
  facet normal -1.87478e-016 -0.535827 0.844328
    outer loop
      vertex -6 5.78104 -10.5157
      vertex -3.5 5.78104 -10.5157
      vertex -6 7.05342 -9.7082
    endloop
  endfacet
  facet normal -2.00912e-016 -0.42578 0.904827
    outer loop
      vertex -3.5 4.41749 -11.1573
      vertex -3.5 5.78104 -10.5157
      vertex -6 5.78104 -10.5157
    endloop
  endfacet
  facet normal -2.00912e-016 -0.42578 0.904827
    outer loop
      vertex -6 4.41749 -11.1573
      vertex -3.5 4.41749 -11.1573
      vertex -6 5.78104 -10.5157
    endloop
  endfacet
  facet normal -2.11177e-016 -0.309017 0.951057
    outer loop
      vertex -3.5 2.98428 -11.623
      vertex -3.5 4.41749 -11.1573
      vertex -6 4.41749 -11.1573
    endloop
  endfacet
  facet normal -2.11177e-016 -0.309017 0.951057
    outer loop
      vertex -6 2.98428 -11.623
      vertex -3.5 2.98428 -11.623
      vertex -6 4.41749 -11.1573
    endloop
  endfacet
  facet normal -2.18112e-016 -0.187381 0.982287
    outer loop
      vertex -3.5 1.504 -11.9054
      vertex -3.5 2.98428 -11.623
      vertex -6 2.98428 -11.623
    endloop
  endfacet
  facet normal -2.18112e-016 -0.187381 0.982287
    outer loop
      vertex -6 1.504 -11.9054
      vertex -3.5 1.504 -11.9054
      vertex -6 2.98428 -11.623
    endloop
  endfacet
  facet normal -2.21606e-016 -0.0627908 0.998027
    outer loop
      vertex -3.5 0 -12
      vertex -3.5 1.504 -11.9054
      vertex -6 1.504 -11.9054
    endloop
  endfacet
  facet normal -2.21606e-016 -0.0627908 0.998027
    outer loop
      vertex -6 0 -12
      vertex -3.5 0 -12
      vertex -6 1.504 -11.9054
    endloop
  endfacet
  facet normal -2.21606e-016 0.0627908 0.998027
    outer loop
      vertex -3.5 -1.504 -11.9054
      vertex -3.5 0 -12
      vertex -6 0 -12
    endloop
  endfacet
  facet normal -2.21606e-016 0.0627908 0.998027
    outer loop
      vertex -6 -1.504 -11.9054
      vertex -3.5 -1.504 -11.9054
      vertex -6 0 -12
    endloop
  endfacet
  facet normal -2.18112e-016 0.187381 0.982287
    outer loop
      vertex -3.5 -2.98428 -11.623
      vertex -3.5 -1.504 -11.9054
      vertex -6 -1.504 -11.9054
    endloop
  endfacet
  facet normal -2.18112e-016 0.187381 0.982287
    outer loop
      vertex -6 -2.98428 -11.623
      vertex -3.5 -2.98428 -11.623
      vertex -6 -1.504 -11.9054
    endloop
  endfacet
  facet normal -2.11177e-016 0.309017 0.951057
    outer loop
      vertex -3.5 -4.41749 -11.1573
      vertex -3.5 -2.98428 -11.623
      vertex -6 -2.98428 -11.623
    endloop
  endfacet
  facet normal -2.11177e-016 0.309017 0.951057
    outer loop
      vertex -6 -4.41749 -11.1573
      vertex -3.5 -4.41749 -11.1573
      vertex -6 -2.98428 -11.623
    endloop
  endfacet
  facet normal -2.00912e-016 0.42578 0.904827
    outer loop
      vertex -3.5 -5.78104 -10.5157
      vertex -3.5 -4.41749 -11.1573
      vertex -6 -4.41749 -11.1573
    endloop
  endfacet
  facet normal -2.00912e-016 0.42578 0.904827
    outer loop
      vertex -6 -5.78104 -10.5157
      vertex -3.5 -5.78104 -10.5157
      vertex -6 -4.41749 -11.1573
    endloop
  endfacet
  facet normal -1.87478e-016 0.535827 0.844328
    outer loop
      vertex -3.5 -7.05342 -9.7082
      vertex -3.5 -5.78104 -10.5157
      vertex -6 -5.78104 -10.5157
    endloop
  endfacet
  facet normal -1.87478e-016 0.535827 0.844328
    outer loop
      vertex -6 -7.05342 -9.7082
      vertex -3.5 -7.05342 -9.7082
      vertex -6 -5.78104 -10.5157
    endloop
  endfacet
  facet normal -1.71088e-016 0.637424 0.770513
    outer loop
      vertex -3.5 -8.21457 -8.74762
      vertex -3.5 -7.05342 -9.7082
      vertex -6 -7.05342 -9.7082
    endloop
  endfacet
  facet normal -1.71088e-016 0.637424 0.770513
    outer loop
      vertex -6 -8.21457 -8.74762
      vertex -3.5 -8.21457 -8.74762
      vertex -6 -7.05342 -9.7082
    endloop
  endfacet
  facet normal -1.52e-016 0.728969 0.684547
    outer loop
      vertex -3.5 -8.21457 -8.74762
      vertex -6 -8.21457 -8.74762
      vertex -3.5 -9.24616 -7.64909
    endloop
  endfacet
  facet normal -1.52e-016 0.728969 0.684547
    outer loop
      vertex -3.5 -9.24616 -7.64909
      vertex -6 -8.21457 -8.74762
      vertex -6 -9.24616 -7.64909
    endloop
  endfacet
  facet normal -1.30515e-016 0.809017 0.587785
    outer loop
      vertex -3.5 -9.24616 -7.64909
      vertex -6 -9.24616 -7.64909
      vertex -3.5 -10.1319 -6.42992
    endloop
  endfacet
  facet normal -1.30515e-016 0.809017 0.587785
    outer loop
      vertex -3.5 -10.1319 -6.42992
      vertex -6 -9.24616 -7.64909
      vertex -6 -10.1319 -6.42992
    endloop
  endfacet
  facet normal -1.06971e-016 0.876307 0.481754
    outer loop
      vertex -3.5 -10.1319 -6.42992
      vertex -6 -10.1319 -6.42992
      vertex -3.5 -10.8579 -5.10935
    endloop
  endfacet
  facet normal -1.06971e-016 0.876307 0.481754
    outer loop
      vertex -3.5 -10.8579 -5.10935
      vertex -6 -10.1319 -6.42992
      vertex -6 -10.8579 -5.10935
    endloop
  endfacet
  facet normal -8.174e-017 0.929777 0.368124
    outer loop
      vertex -3.5 -10.8579 -5.10935
      vertex -6 -10.8579 -5.10935
      vertex -3.5 -11.4127 -3.7082
    endloop
  endfacet
  facet normal -8.174e-017 0.929777 0.368124
    outer loop
      vertex -3.5 -11.4127 -3.7082
      vertex -6 -10.8579 -5.10935
      vertex -6 -11.4127 -3.7082
    endloop
  endfacet
  facet normal -5.52203e-017 0.968583 0.24869
    outer loop
      vertex -3.5 -11.4127 -3.7082
      vertex -6 -11.4127 -3.7082
      vertex -3.5 -11.7874 -2.24858
    endloop
  endfacet
  facet normal -5.52203e-017 0.968583 0.24869
    outer loop
      vertex -3.5 -11.7874 -2.24858
      vertex -6 -11.4127 -3.7082
      vertex -6 -11.7874 -2.24858
    endloop
  endfacet
  facet normal -2.78296e-017 0.992115 0.125333
    outer loop
      vertex -3.5 -11.7874 -2.24858
      vertex -6 -11.7874 -2.24858
      vertex -3.5 -11.9763 -0.753486
    endloop
  endfacet
  facet normal -2.78296e-017 0.992115 0.125333
    outer loop
      vertex -3.5 -11.9763 -0.753486
      vertex -6 -11.7874 -2.24858
      vertex -6 -11.9763 -0.753486
    endloop
  endfacet
  facet normal 0 1 0
    outer loop
      vertex -3.5 -11.9763 0
      vertex -3.5 -11.9763 -0.753486
      vertex -6 -11.9763 0
    endloop
  endfacet
  facet normal 0 1 0
    outer loop
      vertex -6 -11.9763 0
      vertex -3.5 -11.9763 -0.753486
      vertex -6 -11.9763 -0.753486
    endloop
  endfacet
  facet normal 0 0 1
    outer loop
      vertex -1.06066 -17.5607 0
      vertex -6 -20 0
      vertex 3 -20 0
    endloop
  endfacet
  facet normal 0 0 1
    outer loop
      vertex -3.5 -13.4734 0
      vertex -3.5 -11.9763 0
      vertex -6 -11.9763 0
    endloop
  endfacet
  facet normal 0 0 1
    outer loop
      vertex 1.06066 -15.4393 0
      vertex 1.5 -16.5 0
      vertex 3 -16 0
    endloop
  endfacet
  facet normal 0 0 1
    outer loop
      vertex -1.5 -16.5 0
      vertex -1.06066 -15.4393 0
      vertex -3.5 -13.4734 0
    endloop
  endfacet
  facet normal 0 0 1
    outer loop
      vertex 6 -20 0
      vertex 5 -16 0
      vertex 5 -20 0
    endloop
  endfacet
  facet normal 0 0 1
    outer loop
      vertex 6 -11.9763 0
      vertex 5 -16 0
      vertex 6 -20 0
    endloop
  endfacet
  facet normal 0 0 1
    outer loop
      vertex 6 -11.9763 0
      vertex 3.5 -11.9763 0
      vertex 5 -16 0
    endloop
  endfacet
  facet normal 0 0 1
    outer loop
      vertex 3.5 -11.9763 0
      vertex 3.5 -13.4734 0
      vertex 5 -16 0
    endloop
  endfacet
  facet normal 0 0 1
    outer loop
      vertex 0 -18 0
      vertex -1.06066 -17.5607 0
      vertex 3 -20 0
    endloop
  endfacet
  facet normal 0 0 1
    outer loop
      vertex -6 -11.9763 0
      vertex -6 -20 0
      vertex -1.06066 -17.5607 0
    endloop
  endfacet
  facet normal 0 0 1
    outer loop
      vertex 1.06066 -17.5607 0
      vertex 0 -18 0
      vertex 3 -20 0
    endloop
  endfacet
  facet normal 0 0 1
    outer loop
      vertex -6 -11.9763 0
      vertex -1.06066 -17.5607 0
      vertex -1.5 -16.5 0
    endloop
  endfacet
  facet normal 0 0 1
    outer loop
      vertex 0 -15 0
      vertex -3.5 -13.4734 0
      vertex -1.06066 -15.4393 0
    endloop
  endfacet
  facet normal 0 0 1
    outer loop
      vertex 3 -16 0
      vertex -3.5 -13.4734 0
      vertex 0 -15 0
    endloop
  endfacet
  facet normal 0 0 1
    outer loop
      vertex 3 -16 0
      vertex 0 -15 0
      vertex 1.06066 -15.4393 0
    endloop
  endfacet
  facet normal 0 0 1
    outer loop
      vertex 3 -16 0
      vertex 1.5 -16.5 0
      vertex 3 -20 0
    endloop
  endfacet
  facet normal 0 0 1
    outer loop
      vertex 1.5 -16.5 0
      vertex 1.06066 -17.5607 0
      vertex 3 -20 0
    endloop
  endfacet
  facet normal 0 0 1
    outer loop
      vertex -1.5 -16.5 0
      vertex -3.5 -13.4734 0
      vertex -6 -11.9763 0
    endloop
  endfacet
  facet normal 0 0 1
    outer loop
      vertex 3.5 -13.4734 0
      vertex 3 -16 0
      vertex 5 -16 0
    endloop
  endfacet
  facet normal 0 0 1
    outer loop
      vertex 3.5 -13.4734 0
      vertex -3.5 -13.4734 0
      vertex 3 -16 0
    endloop
  endfacet
  facet normal -1 0 0
    outer loop
      vertex 3 -20 0
      vertex 3 -20 2
      vertex 3 -16 0
    endloop
  endfacet
  facet normal -1 0 0
    outer loop
      vertex 3 -16 0
      vertex 3 -20 2
      vertex 3 -16 2
    endloop
  endfacet
  facet normal 0 0 1
    outer loop
      vertex 3 -16 2
      vertex 3 -20 2
      vertex 5 -20 2
    endloop
  endfacet
  facet normal 0 0 1
    outer loop
      vertex 5 -16 2
      vertex 3 -16 2
      vertex 5 -20 2
    endloop
  endfacet
  facet normal 1 0 0
    outer loop
      vertex 5 -20 2
      vertex 5 -20 0
      vertex 5 -16 0
    endloop
  endfacet
  facet normal 1 0 0
    outer loop
      vertex 5 -16 2
      vertex 5 -20 2
      vertex 5 -16 0
    endloop
  endfacet
  facet normal 0 1 0
    outer loop
      vertex 6 -11.9763 -0.753486
      vertex 3.5 -11.9763 -0.753486
      vertex 6 -11.9763 0
    endloop
  endfacet
  facet normal 0 1 0
    outer loop
      vertex 6 -11.9763 0
      vertex 3.5 -11.9763 -0.753486
      vertex 3.5 -11.9763 0
    endloop
  endfacet
  facet normal -2.78296e-017 0.992115 0.125333
    outer loop
      vertex 6 -11.7874 -2.24858
      vertex 3.5 -11.7874 -2.24858
      vertex 6 -11.9763 -0.753486
    endloop
  endfacet
  facet normal -2.78296e-017 0.992115 0.125333
    outer loop
      vertex 6 -11.9763 -0.753486
      vertex 3.5 -11.7874 -2.24858
      vertex 3.5 -11.9763 -0.753486
    endloop
  endfacet
  facet normal -5.52203e-017 0.968583 0.24869
    outer loop
      vertex 6 -11.4127 -3.7082
      vertex 3.5 -11.4127 -3.7082
      vertex 6 -11.7874 -2.24858
    endloop
  endfacet
  facet normal -5.52203e-017 0.968583 0.24869
    outer loop
      vertex 6 -11.7874 -2.24858
      vertex 3.5 -11.4127 -3.7082
      vertex 3.5 -11.7874 -2.24858
    endloop
  endfacet
  facet normal -8.174e-017 0.929777 0.368124
    outer loop
      vertex 6 -10.8579 -5.10935
      vertex 3.5 -10.8579 -5.10935
      vertex 6 -11.4127 -3.7082
    endloop
  endfacet
  facet normal -8.174e-017 0.929777 0.368124
    outer loop
      vertex 6 -11.4127 -3.7082
      vertex 3.5 -10.8579 -5.10935
      vertex 3.5 -11.4127 -3.7082
    endloop
  endfacet
  facet normal -1.06971e-016 0.876307 0.481754
    outer loop
      vertex 6 -10.1319 -6.42992
      vertex 3.5 -10.1319 -6.42992
      vertex 6 -10.8579 -5.10935
    endloop
  endfacet
  facet normal -1.06971e-016 0.876307 0.481754
    outer loop
      vertex 6 -10.8579 -5.10935
      vertex 3.5 -10.1319 -6.42992
      vertex 3.5 -10.8579 -5.10935
    endloop
  endfacet
  facet normal -1.30515e-016 0.809017 0.587785
    outer loop
      vertex 6 -9.24616 -7.64909
      vertex 3.5 -9.24616 -7.64909
      vertex 6 -10.1319 -6.42992
    endloop
  endfacet
  facet normal -1.30515e-016 0.809017 0.587785
    outer loop
      vertex 6 -10.1319 -6.42992
      vertex 3.5 -9.24616 -7.64909
      vertex 3.5 -10.1319 -6.42992
    endloop
  endfacet
  facet normal -1.52e-016 0.728969 0.684547
    outer loop
      vertex 6 -8.21457 -8.74762
      vertex 3.5 -8.21457 -8.74762
      vertex 6 -9.24616 -7.64909
    endloop
  endfacet
  facet normal -1.52e-016 0.728969 0.684547
    outer loop
      vertex 6 -9.24616 -7.64909
      vertex 3.5 -8.21457 -8.74762
      vertex 3.5 -9.24616 -7.64909
    endloop
  endfacet
  facet normal -1.71088e-016 0.637424 0.770513
    outer loop
      vertex 6 -8.21457 -8.74762
      vertex 6 -7.05342 -9.7082
      vertex 3.5 -7.05342 -9.7082
    endloop
  endfacet
  facet normal -1.71088e-016 0.637424 0.770513
    outer loop
      vertex 3.5 -8.21457 -8.74762
      vertex 6 -8.21457 -8.74762
      vertex 3.5 -7.05342 -9.7082
    endloop
  endfacet
  facet normal -1.87478e-016 0.535827 0.844328
    outer loop
      vertex 6 -7.05342 -9.7082
      vertex 6 -5.78104 -10.5157
      vertex 3.5 -5.78104 -10.5157
    endloop
  endfacet
  facet normal -1.87478e-016 0.535827 0.844328
    outer loop
      vertex 3.5 -7.05342 -9.7082
      vertex 6 -7.05342 -9.7082
      vertex 3.5 -5.78104 -10.5157
    endloop
  endfacet
  facet normal -2.00912e-016 0.42578 0.904827
    outer loop
      vertex 6 -5.78104 -10.5157
      vertex 6 -4.41749 -11.1573
      vertex 3.5 -4.41749 -11.1573
    endloop
  endfacet
  facet normal -2.00912e-016 0.42578 0.904827
    outer loop
      vertex 3.5 -5.78104 -10.5157
      vertex 6 -5.78104 -10.5157
      vertex 3.5 -4.41749 -11.1573
    endloop
  endfacet
  facet normal -2.11177e-016 0.309017 0.951057
    outer loop
      vertex 6 -4.41749 -11.1573
      vertex 6 -2.98428 -11.623
      vertex 3.5 -2.98428 -11.623
    endloop
  endfacet
  facet normal -2.11177e-016 0.309017 0.951057
    outer loop
      vertex 3.5 -4.41749 -11.1573
      vertex 6 -4.41749 -11.1573
      vertex 3.5 -2.98428 -11.623
    endloop
  endfacet
  facet normal -2.18112e-016 0.187381 0.982287
    outer loop
      vertex 6 -2.98428 -11.623
      vertex 6 -1.504 -11.9054
      vertex 3.5 -1.504 -11.9054
    endloop
  endfacet
  facet normal -2.18112e-016 0.187381 0.982287
    outer loop
      vertex 3.5 -2.98428 -11.623
      vertex 6 -2.98428 -11.623
      vertex 3.5 -1.504 -11.9054
    endloop
  endfacet
  facet normal -2.21606e-016 0.0627908 0.998027
    outer loop
      vertex 6 -1.504 -11.9054
      vertex 6 0 -12
      vertex 3.5 0 -12
    endloop
  endfacet
  facet normal -2.21606e-016 0.0627908 0.998027
    outer loop
      vertex 3.5 -1.504 -11.9054
      vertex 6 -1.504 -11.9054
      vertex 3.5 0 -12
    endloop
  endfacet
  facet normal -2.21606e-016 -0.0627908 0.998027
    outer loop
      vertex 3.5 0 -12
      vertex 6 0 -12
      vertex 6 1.504 -11.9054
    endloop
  endfacet
  facet normal -2.21606e-016 -0.0627908 0.998027
    outer loop
      vertex 3.5 1.504 -11.9054
      vertex 3.5 0 -12
      vertex 6 1.504 -11.9054
    endloop
  endfacet
  facet normal -2.18112e-016 -0.187381 0.982287
    outer loop
      vertex 3.5 1.504 -11.9054
      vertex 6 1.504 -11.9054
      vertex 6 2.98428 -11.623
    endloop
  endfacet
  facet normal -2.18112e-016 -0.187381 0.982287
    outer loop
      vertex 3.5 2.98428 -11.623
      vertex 3.5 1.504 -11.9054
      vertex 6 2.98428 -11.623
    endloop
  endfacet
  facet normal -2.11177e-016 -0.309017 0.951057
    outer loop
      vertex 3.5 2.98428 -11.623
      vertex 6 2.98428 -11.623
      vertex 6 4.41749 -11.1573
    endloop
  endfacet
  facet normal -2.11177e-016 -0.309017 0.951057
    outer loop
      vertex 3.5 4.41749 -11.1573
      vertex 3.5 2.98428 -11.623
      vertex 6 4.41749 -11.1573
    endloop
  endfacet
  facet normal -2.00912e-016 -0.42578 0.904827
    outer loop
      vertex 3.5 4.41749 -11.1573
      vertex 6 4.41749 -11.1573
      vertex 6 5.78104 -10.5157
    endloop
  endfacet
  facet normal -2.00912e-016 -0.42578 0.904827
    outer loop
      vertex 3.5 5.78104 -10.5157
      vertex 3.5 4.41749 -11.1573
      vertex 6 5.78104 -10.5157
    endloop
  endfacet
  facet normal -1.87478e-016 -0.535827 0.844328
    outer loop
      vertex 3.5 5.78104 -10.5157
      vertex 6 5.78104 -10.5157
      vertex 6 7.05342 -9.7082
    endloop
  endfacet
  facet normal -1.87478e-016 -0.535827 0.844328
    outer loop
      vertex 3.5 7.05342 -9.7082
      vertex 3.5 5.78104 -10.5157
      vertex 6 7.05342 -9.7082
    endloop
  endfacet
  facet normal -1.71088e-016 -0.637424 0.770513
    outer loop
      vertex 3.5 7.05342 -9.7082
      vertex 6 7.05342 -9.7082
      vertex 6 8.21457 -8.74762
    endloop
  endfacet
  facet normal -1.71088e-016 -0.637424 0.770513
    outer loop
      vertex 3.5 8.21457 -8.74762
      vertex 3.5 7.05342 -9.7082
      vertex 6 8.21457 -8.74762
    endloop
  endfacet
  facet normal -1.52e-016 -0.728969 0.684547
    outer loop
      vertex 3.5 8.21457 -8.74762
      vertex 6 8.21457 -8.74762
      vertex 6 9.24616 -7.64909
    endloop
  endfacet
  facet normal -1.52e-016 -0.728969 0.684547
    outer loop
      vertex 3.5 9.24616 -7.64909
      vertex 3.5 8.21457 -8.74762
      vertex 6 9.24616 -7.64909
    endloop
  endfacet
  facet normal -1.30515e-016 -0.809017 0.587785
    outer loop
      vertex 3.5 9.24616 -7.64909
      vertex 6 9.24616 -7.64909
      vertex 6 10.1319 -6.42992
    endloop
  endfacet
  facet normal -1.30515e-016 -0.809017 0.587785
    outer loop
      vertex 3.5 10.1319 -6.42992
      vertex 3.5 9.24616 -7.64909
      vertex 6 10.1319 -6.42992
    endloop
  endfacet
  facet normal -1.06971e-016 -0.876307 0.481754
    outer loop
      vertex 3.5 10.1319 -6.42992
      vertex 6 10.1319 -6.42992
      vertex 6 10.8579 -5.10935
    endloop
  endfacet
  facet normal -1.06971e-016 -0.876307 0.481754
    outer loop
      vertex 3.5 10.8579 -5.10935
      vertex 3.5 10.1319 -6.42992
      vertex 6 10.8579 -5.10935
    endloop
  endfacet
  facet normal -8.174e-017 -0.929777 0.368124
    outer loop
      vertex 3.5 10.8579 -5.10935
      vertex 6 10.8579 -5.10935
      vertex 6 11.4127 -3.7082
    endloop
  endfacet
  facet normal -8.174e-017 -0.929777 0.368124
    outer loop
      vertex 3.5 11.4127 -3.7082
      vertex 3.5 10.8579 -5.10935
      vertex 6 11.4127 -3.7082
    endloop
  endfacet
  facet normal -5.52203e-017 -0.968583 0.24869
    outer loop
      vertex 3.5 11.4127 -3.7082
      vertex 6 11.4127 -3.7082
      vertex 6 11.7874 -2.24858
    endloop
  endfacet
  facet normal -5.52203e-017 -0.968583 0.24869
    outer loop
      vertex 3.5 11.7874 -2.24858
      vertex 3.5 11.4127 -3.7082
      vertex 6 11.7874 -2.24858
    endloop
  endfacet
  facet normal -2.78296e-017 -0.992115 0.125333
    outer loop
      vertex 3.5 11.7874 -2.24858
      vertex 6 11.7874 -2.24858
      vertex 6 11.9763 -0.753486
    endloop
  endfacet
  facet normal -2.78296e-017 -0.992115 0.125333
    outer loop
      vertex 3.5 11.9763 -0.753486
      vertex 3.5 11.7874 -2.24858
      vertex 6 11.9763 -0.753486
    endloop
  endfacet
  facet normal 0 -1 0
    outer loop
      vertex 3.5 11.9763 -0.753486
      vertex 6 11.9763 -0.753486
      vertex 6 11.9763 0
    endloop
  endfacet
  facet normal 0 -1 0
    outer loop
      vertex 3.5 11.9763 0
      vertex 3.5 11.9763 -0.753486
      vertex 6 11.9763 0
    endloop
  endfacet
  facet normal -1 0 0
    outer loop
      vertex -2.75 20 0
      vertex -2.75 20 -2.25
      vertex -2.75 15.75 0
    endloop
  endfacet
  facet normal -1 0 0
    outer loop
      vertex -2.75 15.75 0
      vertex -2.75 20 -2.25
      vertex -2.75 15.75 -2.25
    endloop
  endfacet
  facet normal 0 0 1
    outer loop
      vertex -2.75 15.75 -2.25
      vertex -2.75 20 -2.25
      vertex -5.25 20 -2.25
    endloop
  endfacet
  facet normal 0 0 1
    outer loop
      vertex -5.25 15.75 -2.25
      vertex -2.75 15.75 -2.25
      vertex -5.25 20 -2.25
    endloop
  endfacet
  facet normal 1 0 0
    outer loop
      vertex -5.25 20 -2.25
      vertex -5.25 20 0
      vertex -5.25 15.75 0
    endloop
  endfacet
  facet normal 1 0 0
    outer loop
      vertex -5.25 15.75 -2.25
      vertex -5.25 20 -2.25
      vertex -5.25 15.75 0
    endloop
  endfacet
  facet normal 0 1 0
    outer loop
      vertex -2.75 15.75 0
      vertex -2.75 15.75 -2.25
      vertex -5.25 15.75 0
    endloop
  endfacet
  facet normal 0 1 0
    outer loop
      vertex -5.25 15.75 0
      vertex -2.75 15.75 -2.25
      vertex -5.25 15.75 -2.25
    endloop
  endfacet
  facet normal -1 0 -1.77321e-016
    outer loop
      vertex 3.5 -11.3984 -7.23366
      vertex 3.5 -11.7874 -2.24858
      vertex 3.5 -10.4019 -8.60522
    endloop
  endfacet
  facet normal -1 0 -1.77321e-016
    outer loop
      vertex 3.5 -10.4019 -8.60522
      vertex 3.5 -11.4127 -3.7082
      vertex 3.5 -9.24139 -9.84108
    endloop
  endfacet
  facet normal -1 0 -1.77321e-016
    outer loop
      vertex 3.5 -9.24139 -9.84108
      vertex 3.5 -10.8579 -5.10935
      vertex 3.5 -7.9351 -10.9217
    endloop
  endfacet
  facet normal -1 0 -1.77321e-016
    outer loop
      vertex 3.5 -7.9351 -10.9217
      vertex 3.5 -10.1319 -6.42992
      vertex 3.5 -6.50367 -11.8301
    endloop
  endfacet
  facet normal -1 0 -1.77321e-016
    outer loop
      vertex 3.5 -6.50367 -11.8301
      vertex 3.5 -9.24616 -7.64909
      vertex 3.5 -4.96968 -12.552
    endloop
  endfacet
  facet normal -1 0 -1.77321e-016
    outer loop
      vertex 3.5 -4.96968 -12.552
      vertex 3.5 -8.21457 -8.74762
      vertex 3.5 -3.35731 -13.0759
    endloop
  endfacet
  facet normal -1 0 -1.77321e-016
    outer loop
      vertex 3.5 -3.35731 -13.0759
      vertex 3.5 -7.05342 -9.7082
      vertex 3.5 -1.692 -13.3935
    endloop
  endfacet
  facet normal -1 0 -1.77321e-016
    outer loop
      vertex 3.5 -1.692 -13.3935
      vertex 3.5 -5.78104 -10.5157
      vertex 3.5 0 -13.5
    endloop
  endfacet
  facet normal -1 0 -1.77321e-016
    outer loop
      vertex 3.5 0 -13.5
      vertex 3.5 -4.41749 -11.1573
      vertex 3.5 1.692 -13.3935
    endloop
  endfacet
  facet normal -1 0 -1.77321e-016
    outer loop
      vertex 3.5 1.692 -13.3935
      vertex 3.5 -2.98428 -11.623
      vertex 3.5 3.35731 -13.0759
    endloop
  endfacet
  facet normal -1 0 -1.77321e-016
    outer loop
      vertex 3.5 3.35731 -13.0759
      vertex 3.5 -1.504 -11.9054
      vertex 3.5 4.96968 -12.552
    endloop
  endfacet
  facet normal -1 0 -1.77321e-016
    outer loop
      vertex 3.5 4.96968 -12.552
      vertex 3.5 0 -12
      vertex 3.5 6.50367 -11.8301
    endloop
  endfacet
  facet normal -1 0 -1.77321e-016
    outer loop
      vertex 3.5 6.50367 -11.8301
      vertex 3.5 1.504 -11.9054
      vertex 3.5 7.9351 -10.9217
    endloop
  endfacet
  facet normal -1 0 -1.77321e-016
    outer loop
      vertex 3.5 7.9351 -10.9217
      vertex 3.5 2.98428 -11.623
      vertex 3.5 9.24139 -9.84108
    endloop
  endfacet
  facet normal -1 0 -1.77321e-016
    outer loop
      vertex 3.5 9.24139 -9.84108
      vertex 3.5 4.41749 -11.1573
      vertex 3.5 10.4019 -8.60522
    endloop
  endfacet
  facet normal -1 0 -1.77321e-016
    outer loop
      vertex 3.5 10.4019 -8.60522
      vertex 3.5 5.78104 -10.5157
      vertex 3.5 11.3984 -7.23366
    endloop
  endfacet
  facet normal -1 0 -1.77321e-016
    outer loop
      vertex 3.5 11.3984 -7.23366
      vertex 3.5 7.05342 -9.7082
      vertex 3.5 12.2152 -5.74802
    endloop
  endfacet
  facet normal -1 0 -1.77321e-016
    outer loop
      vertex 3.5 12.2152 -5.74802
      vertex 3.5 8.21457 -8.74762
      vertex 3.5 12.8393 -4.17173
    endloop
  endfacet
  facet normal -1 0 -1.77321e-016
    outer loop
      vertex 3.5 12.8393 -4.17173
      vertex 3.5 9.24616 -7.64909
      vertex 3.5 13.2609 -2.52965
    endloop
  endfacet
  facet normal -1 0 -1.77321e-016
    outer loop
      vertex 3.5 13.2609 -2.52965
      vertex 3.5 10.1319 -6.42992
      vertex 3.5 13.4734 -0.847672
    endloop
  endfacet
  facet normal -1 0 -1.77321e-016
    outer loop
      vertex 3.5 13.4734 -0.847672
      vertex 3.5 10.8579 -5.10935
      vertex 3.5 13.4734 0
    endloop
  endfacet
  facet normal -1 0 -1.77321e-016
    outer loop
      vertex 3.5 10.8579 -5.10935
      vertex 3.5 11.4127 -3.7082
      vertex 3.5 13.4734 0
    endloop
  endfacet
  facet normal -1 0 -1.77321e-016
    outer loop
      vertex 3.5 11.4127 -3.7082
      vertex 3.5 11.7874 -2.24858
      vertex 3.5 13.4734 0
    endloop
  endfacet
  facet normal -1 0 -1.77321e-016
    outer loop
      vertex 3.5 13.4734 0
      vertex 3.5 11.9763 -0.753486
      vertex 3.5 11.9763 0
    endloop
  endfacet
  facet normal -1 0 -1.77321e-016
    outer loop
      vertex 3.5 11.7874 -2.24858
      vertex 3.5 11.9763 -0.753486
      vertex 3.5 13.4734 0
    endloop
  endfacet
  facet normal -1 0 -1.77321e-016
    outer loop
      vertex 3.5 10.1319 -6.42992
      vertex 3.5 10.8579 -5.10935
      vertex 3.5 13.4734 -0.847672
    endloop
  endfacet
  facet normal -1 0 -1.77321e-016
    outer loop
      vertex 3.5 9.24616 -7.64909
      vertex 3.5 10.1319 -6.42992
      vertex 3.5 13.2609 -2.52965
    endloop
  endfacet
  facet normal -1 0 -1.77321e-016
    outer loop
      vertex 3.5 8.21457 -8.74762
      vertex 3.5 9.24616 -7.64909
      vertex 3.5 12.8393 -4.17173
    endloop
  endfacet
  facet normal -1 0 -1.77321e-016
    outer loop
      vertex 3.5 7.05342 -9.7082
      vertex 3.5 8.21457 -8.74762
      vertex 3.5 12.2152 -5.74802
    endloop
  endfacet
  facet normal -1 0 -1.77321e-016
    outer loop
      vertex 3.5 5.78104 -10.5157
      vertex 3.5 7.05342 -9.7082
      vertex 3.5 11.3984 -7.23366
    endloop
  endfacet
  facet normal -1 0 -1.77321e-016
    outer loop
      vertex 3.5 4.41749 -11.1573
      vertex 3.5 5.78104 -10.5157
      vertex 3.5 10.4019 -8.60522
    endloop
  endfacet
  facet normal -1 0 -1.77321e-016
    outer loop
      vertex 3.5 2.98428 -11.623
      vertex 3.5 4.41749 -11.1573
      vertex 3.5 9.24139 -9.84108
    endloop
  endfacet
  facet normal -1 0 -1.77321e-016
    outer loop
      vertex 3.5 1.504 -11.9054
      vertex 3.5 2.98428 -11.623
      vertex 3.5 7.9351 -10.9217
    endloop
  endfacet
  facet normal -1 0 -1.77321e-016
    outer loop
      vertex 3.5 0 -12
      vertex 3.5 1.504 -11.9054
      vertex 3.5 6.50367 -11.8301
    endloop
  endfacet
  facet normal -1 0 -1.77321e-016
    outer loop
      vertex 3.5 -1.504 -11.9054
      vertex 3.5 0 -12
      vertex 3.5 4.96968 -12.552
    endloop
  endfacet
  facet normal -1 0 -1.77321e-016
    outer loop
      vertex 3.5 -2.98428 -11.623
      vertex 3.5 -1.504 -11.9054
      vertex 3.5 3.35731 -13.0759
    endloop
  endfacet
  facet normal -1 0 -1.77321e-016
    outer loop
      vertex 3.5 -4.41749 -11.1573
      vertex 3.5 -2.98428 -11.623
      vertex 3.5 1.692 -13.3935
    endloop
  endfacet
  facet normal -1 0 -1.77321e-016
    outer loop
      vertex 3.5 -5.78104 -10.5157
      vertex 3.5 -4.41749 -11.1573
      vertex 3.5 0 -13.5
    endloop
  endfacet
  facet normal -1 0 -1.77321e-016
    outer loop
      vertex 3.5 -7.05342 -9.7082
      vertex 3.5 -5.78104 -10.5157
      vertex 3.5 -1.692 -13.3935
    endloop
  endfacet
  facet normal -1 0 -1.77321e-016
    outer loop
      vertex 3.5 -8.21457 -8.74762
      vertex 3.5 -7.05342 -9.7082
      vertex 3.5 -3.35731 -13.0759
    endloop
  endfacet
  facet normal -1 0 -1.77321e-016
    outer loop
      vertex 3.5 -9.24616 -7.64909
      vertex 3.5 -8.21457 -8.74762
      vertex 3.5 -4.96968 -12.552
    endloop
  endfacet
  facet normal -1 0 -1.77321e-016
    outer loop
      vertex 3.5 -10.1319 -6.42992
      vertex 3.5 -9.24616 -7.64909
      vertex 3.5 -6.50367 -11.8301
    endloop
  endfacet
  facet normal -1 0 -1.77321e-016
    outer loop
      vertex 3.5 -10.8579 -5.10935
      vertex 3.5 -10.1319 -6.42992
      vertex 3.5 -7.9351 -10.9217
    endloop
  endfacet
  facet normal -1 0 -1.77321e-016
    outer loop
      vertex 3.5 -11.4127 -3.7082
      vertex 3.5 -10.8579 -5.10935
      vertex 3.5 -9.24139 -9.84108
    endloop
  endfacet
  facet normal -1 0 -1.77321e-016
    outer loop
      vertex 3.5 -11.7874 -2.24858
      vertex 3.5 -11.4127 -3.7082
      vertex 3.5 -10.4019 -8.60522
    endloop
  endfacet
  facet normal -1 0 -1.77321e-016
    outer loop
      vertex 3.5 -11.9763 -0.753486
      vertex 3.5 -11.7874 -2.24858
      vertex 3.5 -11.3984 -7.23366
    endloop
  endfacet
  facet normal -1 0 -1.77321e-016
    outer loop
      vertex 3.5 -11.9763 -0.753486
      vertex 3.5 -11.3984 -7.23366
      vertex 3.5 -12.2152 -5.74802
    endloop
  endfacet
  facet normal -1 0 -1.77321e-016
    outer loop
      vertex 3.5 -11.9763 -0.753486
      vertex 3.5 -12.2152 -5.74802
      vertex 3.5 -11.9763 0
    endloop
  endfacet
  facet normal -1 0 -1.77321e-016
    outer loop
      vertex 3.5 -12.2152 -5.74802
      vertex 3.5 -12.8393 -4.17173
      vertex 3.5 -11.9763 0
    endloop
  endfacet
  facet normal -1 0 -1.77321e-016
    outer loop
      vertex 3.5 -12.8393 -4.17173
      vertex 3.5 -13.2609 -2.52965
      vertex 3.5 -11.9763 0
    endloop
  endfacet
  facet normal -1 0 -1.77321e-016
    outer loop
      vertex 3.5 -13.2609 -2.52965
      vertex 3.5 -13.4734 -0.847672
      vertex 3.5 -11.9763 0
    endloop
  endfacet
  facet normal -1 0 -1.77321e-016
    outer loop
      vertex 3.5 -13.4734 -0.847672
      vertex 3.5 -13.4734 0
      vertex 3.5 -11.9763 0
    endloop
  endfacet
  facet normal 0 -1 0
    outer loop
      vertex -3.5 13.4734 -0.847672
      vertex 3.5 13.4734 -0.847672
      vertex 3.5 13.4734 0
    endloop
  endfacet
  facet normal 0 -1 0
    outer loop
      vertex -3.5 13.4734 0
      vertex -3.5 13.4734 -0.847672
      vertex 3.5 13.4734 0
    endloop
  endfacet
  facet normal 1 0 1.77321e-016
    outer loop
      vertex -3.5 -13.4734 -0.847672
      vertex -3.5 -13.2609 -2.52965
      vertex -3.5 -12.8393 -4.17173
    endloop
  endfacet
  facet normal 1 0 1.77321e-016
    outer loop
      vertex -3.5 -11.3984 -7.23366
      vertex -3.5 -13.4734 -0.847672
      vertex -3.5 -12.2152 -5.74802
    endloop
  endfacet
  facet normal 1 0 1.77321e-016
    outer loop
      vertex -3.5 -12.2152 -5.74802
      vertex -3.5 -13.4734 -0.847672
      vertex -3.5 -12.8393 -4.17173
    endloop
  endfacet
  facet normal 1 0 1.77321e-016
    outer loop
      vertex -3.5 -10.4019 -8.60522
      vertex -3.5 -13.4734 -0.847672
      vertex -3.5 -11.3984 -7.23366
    endloop
  endfacet
  facet normal 1 0 1.77321e-016
    outer loop
      vertex -3.5 -9.24139 -9.84108
      vertex -3.5 -13.4734 -0.847672
      vertex -3.5 -10.4019 -8.60522
    endloop
  endfacet
  facet normal 1 0 1.77321e-016
    outer loop
      vertex -3.5 -7.9351 -10.9217
      vertex -3.5 -13.4734 -0.847672
      vertex -3.5 -9.24139 -9.84108
    endloop
  endfacet
  facet normal 1 0 1.77321e-016
    outer loop
      vertex -3.5 -10.1319 -6.42992
      vertex -3.5 -13.4734 -0.847672
      vertex -3.5 -7.9351 -10.9217
    endloop
  endfacet
  facet normal 1 0 1.77321e-016
    outer loop
      vertex -3.5 -8.21457 -8.74762
      vertex -3.5 -9.24616 -7.64909
      vertex -3.5 -6.50367 -11.8301
    endloop
  endfacet
  facet normal 1 0 1.77321e-016
    outer loop
      vertex -3.5 -5.78104 -10.5157
      vertex -3.5 -7.05342 -9.7082
      vertex -3.5 -4.96968 -12.552
    endloop
  endfacet
  facet normal 1 0 1.77321e-016
    outer loop
      vertex -3.5 -4.41749 -11.1573
      vertex -3.5 -5.78104 -10.5157
      vertex -3.5 -3.35731 -13.0759
    endloop
  endfacet
  facet normal 1 0 1.77321e-016
    outer loop
      vertex -3.5 -2.98428 -11.623
      vertex -3.5 -4.41749 -11.1573
      vertex -3.5 -1.692 -13.3935
    endloop
  endfacet
  facet normal 1 0 1.77321e-016
    outer loop
      vertex -3.5 -1.504 -11.9054
      vertex -3.5 -2.98428 -11.623
      vertex -3.5 0 -13.5
    endloop
  endfacet
  facet normal 1 0 1.77321e-016
    outer loop
      vertex -3.5 1.504 -11.9054
      vertex -3.5 0 -12
      vertex -3.5 1.692 -13.3935
    endloop
  endfacet
  facet normal 1 0 1.77321e-016
    outer loop
      vertex -3.5 2.98428 -11.623
      vertex -3.5 1.504 -11.9054
      vertex -3.5 3.35731 -13.0759
    endloop
  endfacet
  facet normal 1 0 1.77321e-016
    outer loop
      vertex -3.5 4.41749 -11.1573
      vertex -3.5 2.98428 -11.623
      vertex -3.5 4.96968 -12.552
    endloop
  endfacet
  facet normal 1 0 1.77321e-016
    outer loop
      vertex -3.5 5.78104 -10.5157
      vertex -3.5 4.41749 -11.1573
      vertex -3.5 6.50367 -11.8301
    endloop
  endfacet
  facet normal 1 0 1.77321e-016
    outer loop
      vertex -3.5 7.05342 -9.7082
      vertex -3.5 5.78104 -10.5157
      vertex -3.5 7.9351 -10.9217
    endloop
  endfacet
  facet normal 1 0 1.77321e-016
    outer loop
      vertex -3.5 8.21457 -8.74762
      vertex -3.5 7.05342 -9.7082
      vertex -3.5 9.24139 -9.84108
    endloop
  endfacet
  facet normal 1 0 1.77321e-016
    outer loop
      vertex -3.5 9.24616 -7.64909
      vertex -3.5 8.21457 -8.74762
      vertex -3.5 10.4019 -8.60522
    endloop
  endfacet
  facet normal 1 0 1.77321e-016
    outer loop
      vertex -3.5 10.1319 -6.42992
      vertex -3.5 9.24616 -7.64909
      vertex -3.5 11.3984 -7.23366
    endloop
  endfacet
  facet normal 1 0 1.77321e-016
    outer loop
      vertex -3.5 10.8579 -5.10935
      vertex -3.5 10.1319 -6.42992
      vertex -3.5 12.2152 -5.74802
    endloop
  endfacet
  facet normal 1 0 1.77321e-016
    outer loop
      vertex -3.5 11.4127 -3.7082
      vertex -3.5 10.8579 -5.10935
      vertex -3.5 12.8393 -4.17173
    endloop
  endfacet
  facet normal 1 0 1.77321e-016
    outer loop
      vertex -3.5 11.7874 -2.24858
      vertex -3.5 11.4127 -3.7082
      vertex -3.5 13.2609 -2.52965
    endloop
  endfacet
  facet normal 1 0 1.77321e-016
    outer loop
      vertex -3.5 11.9763 -0.753486
      vertex -3.5 11.7874 -2.24858
      vertex -3.5 13.4734 -0.847672
    endloop
  endfacet
  facet normal 1 0 1.77321e-016
    outer loop
      vertex -3.5 13.4734 0
      vertex -3.5 11.9763 -0.753486
      vertex -3.5 13.4734 -0.847672
    endloop
  endfacet
  facet normal 1 0 1.77321e-016
    outer loop
      vertex -3.5 13.4734 -0.847672
      vertex -3.5 11.7874 -2.24858
      vertex -3.5 13.2609 -2.52965
    endloop
  endfacet
  facet normal 1 0 1.77321e-016
    outer loop
      vertex -3.5 13.2609 -2.52965
      vertex -3.5 11.4127 -3.7082
      vertex -3.5 12.8393 -4.17173
    endloop
  endfacet
  facet normal 1 0 1.77321e-016
    outer loop
      vertex -3.5 12.8393 -4.17173
      vertex -3.5 10.8579 -5.10935
      vertex -3.5 12.2152 -5.74802
    endloop
  endfacet
  facet normal 1 0 1.77321e-016
    outer loop
      vertex -3.5 12.2152 -5.74802
      vertex -3.5 10.1319 -6.42992
      vertex -3.5 11.3984 -7.23366
    endloop
  endfacet
  facet normal 1 0 1.77321e-016
    outer loop
      vertex -3.5 11.3984 -7.23366
      vertex -3.5 9.24616 -7.64909
      vertex -3.5 10.4019 -8.60522
    endloop
  endfacet
  facet normal 1 0 1.77321e-016
    outer loop
      vertex -3.5 10.4019 -8.60522
      vertex -3.5 8.21457 -8.74762
      vertex -3.5 9.24139 -9.84108
    endloop
  endfacet
  facet normal 1 0 1.77321e-016
    outer loop
      vertex -3.5 9.24139 -9.84108
      vertex -3.5 7.05342 -9.7082
      vertex -3.5 7.9351 -10.9217
    endloop
  endfacet
  facet normal 1 0 1.77321e-016
    outer loop
      vertex -3.5 7.9351 -10.9217
      vertex -3.5 5.78104 -10.5157
      vertex -3.5 6.50367 -11.8301
    endloop
  endfacet
  facet normal 1 0 1.77321e-016
    outer loop
      vertex -3.5 6.50367 -11.8301
      vertex -3.5 4.41749 -11.1573
      vertex -3.5 4.96968 -12.552
    endloop
  endfacet
  facet normal 1 0 1.77321e-016
    outer loop
      vertex -3.5 4.96968 -12.552
      vertex -3.5 2.98428 -11.623
      vertex -3.5 3.35731 -13.0759
    endloop
  endfacet
  facet normal 1 0 1.77321e-016
    outer loop
      vertex -3.5 3.35731 -13.0759
      vertex -3.5 1.504 -11.9054
      vertex -3.5 1.692 -13.3935
    endloop
  endfacet
  facet normal 1 0 1.77321e-016
    outer loop
      vertex -3.5 1.692 -13.3935
      vertex -3.5 0 -12
      vertex -3.5 0 -13.5
    endloop
  endfacet
  facet normal 1 0 1.77321e-016
    outer loop
      vertex -3.5 0 -12
      vertex -3.5 -1.504 -11.9054
      vertex -3.5 0 -13.5
    endloop
  endfacet
  facet normal 1 0 1.77321e-016
    outer loop
      vertex -3.5 0 -13.5
      vertex -3.5 -2.98428 -11.623
      vertex -3.5 -1.692 -13.3935
    endloop
  endfacet
  facet normal 1 0 1.77321e-016
    outer loop
      vertex -3.5 -1.692 -13.3935
      vertex -3.5 -4.41749 -11.1573
      vertex -3.5 -3.35731 -13.0759
    endloop
  endfacet
  facet normal 1 0 1.77321e-016
    outer loop
      vertex -3.5 -3.35731 -13.0759
      vertex -3.5 -5.78104 -10.5157
      vertex -3.5 -4.96968 -12.552
    endloop
  endfacet
  facet normal 1 0 1.77321e-016
    outer loop
      vertex -3.5 -4.96968 -12.552
      vertex -3.5 -7.05342 -9.7082
      vertex -3.5 -6.50367 -11.8301
    endloop
  endfacet
  facet normal 1 0 1.77321e-016
    outer loop
      vertex -3.5 -7.05342 -9.7082
      vertex -3.5 -8.21457 -8.74762
      vertex -3.5 -6.50367 -11.8301
    endloop
  endfacet
  facet normal 1 0 1.77321e-016
    outer loop
      vertex -3.5 -6.50367 -11.8301
      vertex -3.5 -9.24616 -7.64909
      vertex -3.5 -7.9351 -10.9217
    endloop
  endfacet
  facet normal 1 0 1.77321e-016
    outer loop
      vertex -3.5 -9.24616 -7.64909
      vertex -3.5 -10.1319 -6.42992
      vertex -3.5 -7.9351 -10.9217
    endloop
  endfacet
  facet normal 1 0 1.77321e-016
    outer loop
      vertex -3.5 -10.8579 -5.10935
      vertex -3.5 -13.4734 -0.847672
      vertex -3.5 -10.1319 -6.42992
    endloop
  endfacet
  facet normal 1 0 1.77321e-016
    outer loop
      vertex -3.5 -11.9763 0
      vertex -3.5 -13.4734 -0.847672
      vertex -3.5 -11.9763 -0.753486
    endloop
  endfacet
  facet normal 1 0 1.77321e-016
    outer loop
      vertex -3.5 -13.4734 0
      vertex -3.5 -13.4734 -0.847672
      vertex -3.5 -11.9763 0
    endloop
  endfacet
  facet normal 1 0 1.77321e-016
    outer loop
      vertex -3.5 11.9763 0
      vertex -3.5 11.9763 -0.753486
      vertex -3.5 13.4734 0
    endloop
  endfacet
  facet normal 1 0 1.77321e-016
    outer loop
      vertex -3.5 -10.8579 -5.10935
      vertex -3.5 -11.4127 -3.7082
      vertex -3.5 -13.4734 -0.847672
    endloop
  endfacet
  facet normal 1 0 1.77321e-016
    outer loop
      vertex -3.5 -11.4127 -3.7082
      vertex -3.5 -11.7874 -2.24858
      vertex -3.5 -13.4734 -0.847672
    endloop
  endfacet
  facet normal 1 0 1.77321e-016
    outer loop
      vertex -3.5 -11.7874 -2.24858
      vertex -3.5 -11.9763 -0.753486
      vertex -3.5 -13.4734 -0.847672
    endloop
  endfacet
  facet normal 0.923879 0.382684 0
    outer loop
      vertex -1.5 16.5 0
      vertex -1.06066 15.4393 0
      vertex -1.06066 15.4393 -7
    endloop
  endfacet
  facet normal 0.923879 0.382684 0
    outer loop
      vertex -1.5 16.5 -7
      vertex -1.5 16.5 0
      vertex -1.06066 15.4393 -7
    endloop
  endfacet
  facet normal 0.382684 0.923879 0
    outer loop
      vertex 0 15 0
      vertex 0 15 -7
      vertex -1.06066 15.4393 0
    endloop
  endfacet
  facet normal 0.382684 0.923879 0
    outer loop
      vertex -1.06066 15.4393 0
      vertex 0 15 -7
      vertex -1.06066 15.4393 -7
    endloop
  endfacet
  facet normal -0.382684 0.923879 0
    outer loop
      vertex 1.06066 15.4393 0
      vertex 1.06066 15.4393 -7
      vertex 0 15 0
    endloop
  endfacet
  facet normal -0.382684 0.923879 0
    outer loop
      vertex 0 15 0
      vertex 1.06066 15.4393 -7
      vertex 0 15 -7
    endloop
  endfacet
  facet normal -0.923879 0.382684 0
    outer loop
      vertex 1.5 16.5 0
      vertex 1.5 16.5 -7
      vertex 1.06066 15.4393 0
    endloop
  endfacet
  facet normal -0.923879 0.382684 0
    outer loop
      vertex 1.06066 15.4393 0
      vertex 1.5 16.5 -7
      vertex 1.06066 15.4393 -7
    endloop
  endfacet
  facet normal -0.923879 -0.382684 0
    outer loop
      vertex 1.5 16.5 0
      vertex 1.06066 17.5607 0
      vertex 1.5 16.5 -7
    endloop
  endfacet
  facet normal -0.923879 -0.382684 0
    outer loop
      vertex 1.5 16.5 -7
      vertex 1.06066 17.5607 0
      vertex 1.06066 17.5607 -7
    endloop
  endfacet
  facet normal -0.382684 -0.923879 0
    outer loop
      vertex 1.06066 17.5607 -7
      vertex 1.06066 17.5607 0
      vertex 0 18 0
    endloop
  endfacet
  facet normal -0.382684 -0.923879 0
    outer loop
      vertex 0 18 -7
      vertex 1.06066 17.5607 -7
      vertex 0 18 0
    endloop
  endfacet
  facet normal 0.382684 -0.923879 0
    outer loop
      vertex 0 18 -7
      vertex 0 18 0
      vertex -1.06066 17.5607 0
    endloop
  endfacet
  facet normal 0.382684 -0.923879 0
    outer loop
      vertex -1.06066 17.5607 -7
      vertex 0 18 -7
      vertex -1.06066 17.5607 0
    endloop
  endfacet
  facet normal 0.923879 -0.382684 0
    outer loop
      vertex -1.06066 17.5607 -7
      vertex -1.06066 17.5607 0
      vertex -1.5 16.5 0
    endloop
  endfacet
  facet normal 0.923879 -0.382684 0
    outer loop
      vertex -1.5 16.5 -7
      vertex -1.06066 17.5607 -7
      vertex -1.5 16.5 0
    endloop
  endfacet
  facet normal 0 1 0
    outer loop
      vertex 3.5 -13.4734 -0.847672
      vertex -3.5 -13.4734 -0.847672
      vertex 3.5 -13.4734 0
    endloop
  endfacet
  facet normal 0 1 0
    outer loop
      vertex 3.5 -13.4734 0
      vertex -3.5 -13.4734 -0.847672
      vertex -3.5 -13.4734 0
    endloop
  endfacet
  facet normal 0 1 0
    outer loop
      vertex 3 -16 0
      vertex 3 -16 2
      vertex 5 -16 0
    endloop
  endfacet
  facet normal 0 1 0
    outer loop
      vertex 5 -16 0
      vertex 3 -16 2
      vertex 5 -16 2
    endloop
  endfacet
  facet normal 0.923879 0.382684 0
    outer loop
      vertex -1.5 -16.5 0
      vertex -1.06066 -17.5607 0
      vertex -1.06066 -17.5607 -7
    endloop
  endfacet
  facet normal 0.923879 0.382684 0
    outer loop
      vertex -1.5 -16.5 -7
      vertex -1.5 -16.5 0
      vertex -1.06066 -17.5607 -7
    endloop
  endfacet
  facet normal 0.382684 0.923879 0
    outer loop
      vertex 0 -18 0
      vertex 0 -18 -7
      vertex -1.06066 -17.5607 0
    endloop
  endfacet
  facet normal 0.382684 0.923879 0
    outer loop
      vertex -1.06066 -17.5607 0
      vertex 0 -18 -7
      vertex -1.06066 -17.5607 -7
    endloop
  endfacet
  facet normal -0.382684 0.923879 0
    outer loop
      vertex 1.06066 -17.5607 0
      vertex 1.06066 -17.5607 -7
      vertex 0 -18 0
    endloop
  endfacet
  facet normal -0.382684 0.923879 0
    outer loop
      vertex 0 -18 0
      vertex 1.06066 -17.5607 -7
      vertex 0 -18 -7
    endloop
  endfacet
  facet normal -0.923879 0.382684 0
    outer loop
      vertex 1.5 -16.5 0
      vertex 1.5 -16.5 -7
      vertex 1.06066 -17.5607 0
    endloop
  endfacet
  facet normal -0.923879 0.382684 0
    outer loop
      vertex 1.06066 -17.5607 0
      vertex 1.5 -16.5 -7
      vertex 1.06066 -17.5607 -7
    endloop
  endfacet
  facet normal -0.923879 -0.382684 0
    outer loop
      vertex 1.5 -16.5 0
      vertex 1.06066 -15.4393 0
      vertex 1.5 -16.5 -7
    endloop
  endfacet
  facet normal -0.923879 -0.382684 0
    outer loop
      vertex 1.5 -16.5 -7
      vertex 1.06066 -15.4393 0
      vertex 1.06066 -15.4393 -7
    endloop
  endfacet
  facet normal -0.382684 -0.923879 0
    outer loop
      vertex 1.06066 -15.4393 -7
      vertex 1.06066 -15.4393 0
      vertex 0 -15 0
    endloop
  endfacet
  facet normal -0.382684 -0.923879 0
    outer loop
      vertex 0 -15 -7
      vertex 1.06066 -15.4393 -7
      vertex 0 -15 0
    endloop
  endfacet
  facet normal 0.382684 -0.923879 0
    outer loop
      vertex 0 -15 -7
      vertex 0 -15 0
      vertex -1.06066 -15.4393 0
    endloop
  endfacet
  facet normal 0.382684 -0.923879 0
    outer loop
      vertex -1.06066 -15.4393 -7
      vertex 0 -15 -7
      vertex -1.06066 -15.4393 0
    endloop
  endfacet
  facet normal 0.923879 -0.382684 0
    outer loop
      vertex -1.06066 -15.4393 -7
      vertex -1.06066 -15.4393 0
      vertex -1.5 -16.5 0
    endloop
  endfacet
  facet normal 0.923879 -0.382684 0
    outer loop
      vertex -1.5 -16.5 -7
      vertex -1.06066 -15.4393 -7
      vertex -1.5 -16.5 0
    endloop
  endfacet
  facet normal -2.78296e-017 0.992115 0.125333
    outer loop
      vertex 3.5 -13.2609 -2.52965
      vertex -3.5 -13.2609 -2.52965
      vertex 3.5 -13.4734 -0.847672
    endloop
  endfacet
  facet normal -2.78296e-017 0.992115 0.125333
    outer loop
      vertex 3.5 -13.4734 -0.847672
      vertex -3.5 -13.2609 -2.52965
      vertex -3.5 -13.4734 -0.847672
    endloop
  endfacet
  facet normal -5.52203e-017 0.968583 0.24869
    outer loop
      vertex 3.5 -12.8393 -4.17173
      vertex -3.5 -12.8393 -4.17173
      vertex 3.5 -13.2609 -2.52965
    endloop
  endfacet
  facet normal -5.52203e-017 0.968583 0.24869
    outer loop
      vertex 3.5 -13.2609 -2.52965
      vertex -3.5 -12.8393 -4.17173
      vertex -3.5 -13.2609 -2.52965
    endloop
  endfacet
  facet normal -8.17401e-017 0.929776 0.368125
    outer loop
      vertex 3.5 -12.2152 -5.74802
      vertex -3.5 -12.2152 -5.74802
      vertex 3.5 -12.8393 -4.17173
    endloop
  endfacet
  facet normal -8.17401e-017 0.929776 0.368125
    outer loop
      vertex 3.5 -12.8393 -4.17173
      vertex -3.5 -12.2152 -5.74802
      vertex -3.5 -12.8393 -4.17173
    endloop
  endfacet
  facet normal -1.06971e-016 0.876307 0.481753
    outer loop
      vertex 3.5 -11.3984 -7.23366
      vertex -3.5 -11.3984 -7.23366
      vertex 3.5 -12.2152 -5.74802
    endloop
  endfacet
  facet normal -1.06971e-016 0.876307 0.481753
    outer loop
      vertex 3.5 -12.2152 -5.74802
      vertex -3.5 -11.3984 -7.23366
      vertex -3.5 -12.2152 -5.74802
    endloop
  endfacet
  facet normal -1.30515e-016 0.809017 0.587785
    outer loop
      vertex 3.5 -10.4019 -8.60522
      vertex -3.5 -10.4019 -8.60522
      vertex 3.5 -11.3984 -7.23366
    endloop
  endfacet
  facet normal -1.30515e-016 0.809017 0.587785
    outer loop
      vertex 3.5 -11.3984 -7.23366
      vertex -3.5 -10.4019 -8.60522
      vertex -3.5 -11.3984 -7.23366
    endloop
  endfacet
  facet normal -1.52e-016 0.728968 0.684547
    outer loop
      vertex 3.5 -9.24139 -9.84108
      vertex -3.5 -9.24139 -9.84108
      vertex 3.5 -10.4019 -8.60522
    endloop
  endfacet
  facet normal -1.52e-016 0.728968 0.684547
    outer loop
      vertex 3.5 -10.4019 -8.60522
      vertex -3.5 -9.24139 -9.84108
      vertex -3.5 -10.4019 -8.60522
    endloop
  endfacet
  facet normal -1.71088e-016 0.637424 0.770513
    outer loop
      vertex 3.5 -9.24139 -9.84108
      vertex 3.5 -7.9351 -10.9217
      vertex -3.5 -7.9351 -10.9217
    endloop
  endfacet
  facet normal -1.71088e-016 0.637424 0.770513
    outer loop
      vertex -3.5 -9.24139 -9.84108
      vertex 3.5 -9.24139 -9.84108
      vertex -3.5 -7.9351 -10.9217
    endloop
  endfacet
  facet normal -1.87478e-016 0.535827 0.844328
    outer loop
      vertex 3.5 -7.9351 -10.9217
      vertex 3.5 -6.50367 -11.8301
      vertex -3.5 -6.50367 -11.8301
    endloop
  endfacet
  facet normal -1.87478e-016 0.535827 0.844328
    outer loop
      vertex -3.5 -7.9351 -10.9217
      vertex 3.5 -7.9351 -10.9217
      vertex -3.5 -6.50367 -11.8301
    endloop
  endfacet
  facet normal -2.00912e-016 0.425779 0.904827
    outer loop
      vertex 3.5 -6.50367 -11.8301
      vertex 3.5 -4.96968 -12.552
      vertex -3.5 -4.96968 -12.552
    endloop
  endfacet
  facet normal -2.00912e-016 0.425779 0.904827
    outer loop
      vertex -3.5 -6.50367 -11.8301
      vertex 3.5 -6.50367 -11.8301
      vertex -3.5 -4.96968 -12.552
    endloop
  endfacet
  facet normal -2.11177e-016 0.309017 0.951057
    outer loop
      vertex 3.5 -4.96968 -12.552
      vertex 3.5 -3.35731 -13.0759
      vertex -3.5 -3.35731 -13.0759
    endloop
  endfacet
  facet normal -2.11177e-016 0.309017 0.951057
    outer loop
      vertex -3.5 -4.96968 -12.552
      vertex 3.5 -4.96968 -12.552
      vertex -3.5 -3.35731 -13.0759
    endloop
  endfacet
  facet normal -2.18112e-016 0.187381 0.982287
    outer loop
      vertex 3.5 -3.35731 -13.0759
      vertex 3.5 -1.692 -13.3935
      vertex -3.5 -1.692 -13.3935
    endloop
  endfacet
  facet normal -2.18112e-016 0.187381 0.982287
    outer loop
      vertex -3.5 -3.35731 -13.0759
      vertex 3.5 -3.35731 -13.0759
      vertex -3.5 -1.692 -13.3935
    endloop
  endfacet
  facet normal -2.21606e-016 0.0627908 0.998027
    outer loop
      vertex 3.5 -1.692 -13.3935
      vertex 3.5 0 -13.5
      vertex -3.5 0 -13.5
    endloop
  endfacet
  facet normal -2.21606e-016 0.0627908 0.998027
    outer loop
      vertex -3.5 -1.692 -13.3935
      vertex 3.5 -1.692 -13.3935
      vertex -3.5 0 -13.5
    endloop
  endfacet
  facet normal -2.21606e-016 -0.0627908 0.998027
    outer loop
      vertex -3.5 0 -13.5
      vertex 3.5 0 -13.5
      vertex 3.5 1.692 -13.3935
    endloop
  endfacet
  facet normal -2.21606e-016 -0.0627908 0.998027
    outer loop
      vertex -3.5 1.692 -13.3935
      vertex -3.5 0 -13.5
      vertex 3.5 1.692 -13.3935
    endloop
  endfacet
  facet normal -2.18112e-016 -0.187381 0.982287
    outer loop
      vertex -3.5 1.692 -13.3935
      vertex 3.5 1.692 -13.3935
      vertex 3.5 3.35731 -13.0759
    endloop
  endfacet
  facet normal -2.18112e-016 -0.187381 0.982287
    outer loop
      vertex -3.5 3.35731 -13.0759
      vertex -3.5 1.692 -13.3935
      vertex 3.5 3.35731 -13.0759
    endloop
  endfacet
  facet normal -2.11177e-016 -0.309017 0.951057
    outer loop
      vertex -3.5 3.35731 -13.0759
      vertex 3.5 3.35731 -13.0759
      vertex 3.5 4.96968 -12.552
    endloop
  endfacet
  facet normal -2.11177e-016 -0.309017 0.951057
    outer loop
      vertex -3.5 4.96968 -12.552
      vertex -3.5 3.35731 -13.0759
      vertex 3.5 4.96968 -12.552
    endloop
  endfacet
  facet normal -2.00912e-016 -0.425779 0.904827
    outer loop
      vertex -3.5 4.96968 -12.552
      vertex 3.5 4.96968 -12.552
      vertex 3.5 6.50367 -11.8301
    endloop
  endfacet
  facet normal -2.00912e-016 -0.425779 0.904827
    outer loop
      vertex -3.5 6.50367 -11.8301
      vertex -3.5 4.96968 -12.552
      vertex 3.5 6.50367 -11.8301
    endloop
  endfacet
  facet normal -1.87478e-016 -0.535827 0.844328
    outer loop
      vertex -3.5 6.50367 -11.8301
      vertex 3.5 6.50367 -11.8301
      vertex 3.5 7.9351 -10.9217
    endloop
  endfacet
  facet normal -1.87478e-016 -0.535827 0.844328
    outer loop
      vertex -3.5 7.9351 -10.9217
      vertex -3.5 6.50367 -11.8301
      vertex 3.5 7.9351 -10.9217
    endloop
  endfacet
  facet normal -1.71088e-016 -0.637424 0.770513
    outer loop
      vertex -3.5 7.9351 -10.9217
      vertex 3.5 7.9351 -10.9217
      vertex 3.5 9.24139 -9.84108
    endloop
  endfacet
  facet normal -1.71088e-016 -0.637424 0.770513
    outer loop
      vertex -3.5 9.24139 -9.84108
      vertex -3.5 7.9351 -10.9217
      vertex 3.5 9.24139 -9.84108
    endloop
  endfacet
  facet normal -1.52e-016 -0.728968 0.684547
    outer loop
      vertex -3.5 9.24139 -9.84108
      vertex 3.5 9.24139 -9.84108
      vertex 3.5 10.4019 -8.60522
    endloop
  endfacet
  facet normal -1.52e-016 -0.728968 0.684547
    outer loop
      vertex -3.5 10.4019 -8.60522
      vertex -3.5 9.24139 -9.84108
      vertex 3.5 10.4019 -8.60522
    endloop
  endfacet
  facet normal -1.30515e-016 -0.809017 0.587785
    outer loop
      vertex -3.5 10.4019 -8.60522
      vertex 3.5 10.4019 -8.60522
      vertex 3.5 11.3984 -7.23366
    endloop
  endfacet
  facet normal -1.30515e-016 -0.809017 0.587785
    outer loop
      vertex -3.5 11.3984 -7.23366
      vertex -3.5 10.4019 -8.60522
      vertex 3.5 11.3984 -7.23366
    endloop
  endfacet
  facet normal -1.06971e-016 -0.876307 0.481753
    outer loop
      vertex -3.5 11.3984 -7.23366
      vertex 3.5 11.3984 -7.23366
      vertex 3.5 12.2152 -5.74802
    endloop
  endfacet
  facet normal -1.06971e-016 -0.876307 0.481753
    outer loop
      vertex -3.5 12.2152 -5.74802
      vertex -3.5 11.3984 -7.23366
      vertex 3.5 12.2152 -5.74802
    endloop
  endfacet
  facet normal -8.17401e-017 -0.929776 0.368125
    outer loop
      vertex -3.5 12.2152 -5.74802
      vertex 3.5 12.2152 -5.74802
      vertex 3.5 12.8393 -4.17173
    endloop
  endfacet
  facet normal -8.17401e-017 -0.929776 0.368125
    outer loop
      vertex -3.5 12.8393 -4.17173
      vertex -3.5 12.2152 -5.74802
      vertex 3.5 12.8393 -4.17173
    endloop
  endfacet
  facet normal -5.52203e-017 -0.968583 0.24869
    outer loop
      vertex -3.5 12.8393 -4.17173
      vertex 3.5 12.8393 -4.17173
      vertex 3.5 13.2609 -2.52965
    endloop
  endfacet
  facet normal -5.52203e-017 -0.968583 0.24869
    outer loop
      vertex -3.5 13.2609 -2.52965
      vertex -3.5 12.8393 -4.17173
      vertex 3.5 13.2609 -2.52965
    endloop
  endfacet
  facet normal -2.78296e-017 -0.992115 0.125333
    outer loop
      vertex -3.5 13.2609 -2.52965
      vertex 3.5 13.2609 -2.52965
      vertex 3.5 13.4734 -0.847672
    endloop
  endfacet
  facet normal -2.78296e-017 -0.992115 0.125333
    outer loop
      vertex -3.5 13.4734 -0.847672
      vertex -3.5 13.2609 -2.52965
      vertex 3.5 13.4734 -0.847672
    endloop
  endfacet
  facet normal 0 0 1
    outer loop
      vertex -1.06066 15.4393 -7
      vertex 0 15 -7
      vertex 1.06066 15.4393 -7
    endloop
  endfacet
  facet normal 0 0 1
    outer loop
      vertex 1.06066 17.5607 -7
      vertex -1.06066 15.4393 -7
      vertex 1.5 16.5 -7
    endloop
  endfacet
  facet normal 0 0 1
    outer loop
      vertex 1.5 16.5 -7
      vertex -1.06066 15.4393 -7
      vertex 1.06066 15.4393 -7
    endloop
  endfacet
  facet normal 0 0 1
    outer loop
      vertex 0 18 -7
      vertex -1.06066 15.4393 -7
      vertex 1.06066 17.5607 -7
    endloop
  endfacet
  facet normal 0 0 1
    outer loop
      vertex -1.06066 17.5607 -7
      vertex -1.06066 15.4393 -7
      vertex 0 18 -7
    endloop
  endfacet
  facet normal 0 0 1
    outer loop
      vertex -1.5 16.5 -7
      vertex -1.06066 15.4393 -7
      vertex -1.06066 17.5607 -7
    endloop
  endfacet
  facet normal 0 0 1
    outer loop
      vertex -1.06066 -17.5607 -7
      vertex 0 -18 -7
      vertex 1.06066 -17.5607 -7
    endloop
  endfacet
  facet normal 0 0 1
    outer loop
      vertex 1.06066 -15.4393 -7
      vertex -1.06066 -17.5607 -7
      vertex 1.5 -16.5 -7
    endloop
  endfacet
  facet normal 0 0 1
    outer loop
      vertex 1.5 -16.5 -7
      vertex -1.06066 -17.5607 -7
      vertex 1.06066 -17.5607 -7
    endloop
  endfacet
  facet normal 0 0 1
    outer loop
      vertex 0 -15 -7
      vertex -1.06066 -17.5607 -7
      vertex 1.06066 -15.4393 -7
    endloop
  endfacet
  facet normal 0 0 1
    outer loop
      vertex -1.06066 -15.4393 -7
      vertex -1.06066 -17.5607 -7
      vertex 0 -15 -7
    endloop
  endfacet
  facet normal 0 0 1
    outer loop
      vertex -1.5 -16.5 -7
      vertex -1.06066 -17.5607 -7
      vertex -1.06066 -15.4393 -7
    endloop
  endfacet
endsolid OpenSCAD_Model
