solid OpenSCAD_Model
  facet normal -1 0 0
    outer loop
      vertex -125 -21 -9
      vertex -125 -21 1
      vertex -125 -19 -9
    endloop
  endfacet
  facet normal -1 0 0
    outer loop
      vertex -125 -19 -1
      vertex -125 -21 1
      vertex -125 21 1
    endloop
  endfacet
  facet normal -1 0 0
    outer loop
      vertex -125 19 -7
      vertex -125 21 1
      vertex -125 21 -7
    endloop
  endfacet
  facet normal -1 0 0
    outer loop
      vertex -125 19 -1
      vertex -125 21 1
      vertex -125 19 -7
    endloop
  endfacet
  facet normal -1 0 0
    outer loop
      vertex -125 -19 -9
      vertex -125 -21 1
      vertex -125 -19 -1
    endloop
  endfacet
  facet normal -1 0 0
    outer loop
      vertex -125 -19 -1
      vertex -125 21 1
      vertex -125 19 -1
    endloop
  endfacet
  facet normal 0 -1 0
    outer loop
      vertex -54 -21 -6
      vertex -125 -21 -9
      vertex 50 -21 -9
    endloop
  endfacet
  facet normal 0 -1 0
    outer loop
      vertex 50 -21 -5
      vertex 25 -21 -5
      vertex 50 -21 -9
    endloop
  endfacet
  facet normal 0 -1 0
    outer loop
      vertex -46 -21 -6
      vertex -54 -21 -6
      vertex 50 -21 -9
    endloop
  endfacet
  facet normal 0 -1 0
    outer loop
      vertex -125 -21 1
      vertex -125 -21 -9
      vertex -54 -21 -6
    endloop
  endfacet
  facet normal 0 -1 0
    outer loop
      vertex -46 -21 -2
      vertex 50 -21 -9
      vertex 25 -21 -5
    endloop
  endfacet
  facet normal 0 -1 0
    outer loop
      vertex -54 -21 -6
      vertex -54 -21 -2
      vertex -125 -21 1
    endloop
  endfacet
  facet normal 0 -1 0
    outer loop
      vertex -54 -21 -2
      vertex -46 -21 -2
      vertex -125 -21 1
    endloop
  endfacet
  facet normal 0 -1 0
    outer loop
      vertex -46 -21 -2
      vertex -46 -21 -6
      vertex 50 -21 -9
    endloop
  endfacet
  facet normal 0 -1 0
    outer loop
      vertex -46 -21 -2
      vertex 25 -21 1
      vertex -125 -21 1
    endloop
  endfacet
  facet normal 0 -1 0
    outer loop
      vertex 25 -21 -5
      vertex 25 -21 1
      vertex -46 -21 -2
    endloop
  endfacet
  facet normal 0 0 -1
    outer loop
      vertex -125 -21 -9
      vertex -125 -19 -9
      vertex 50 -21 -9
    endloop
  endfacet
  facet normal 0 0 -1
    outer loop
      vertex 50 -21 -9
      vertex -125 -19 -9
      vertex 50 -19 -9
    endloop
  endfacet
  facet normal 0 1 0
    outer loop
      vertex -25 -19 -1
      vertex -25 -19 1
      vertex 25 -19 1
    endloop
  endfacet
  facet normal 0 1 0
    outer loop
      vertex -25 -19 -1
      vertex 25 -19 1
      vertex 25 -19 -5
    endloop
  endfacet
  facet normal 0 1 0
    outer loop
      vertex 25 -19 -5
      vertex 50 -19 -5
      vertex 50 -19 -9
    endloop
  endfacet
  facet normal 0 1 0
    outer loop
      vertex -54 -19 -6
      vertex -125 -19 -9
      vertex -125 -19 -1
    endloop
  endfacet
  facet normal 0 1 0
    outer loop
      vertex 50 -19 -9
      vertex -125 -19 -9
      vertex -54 -19 -6
    endloop
  endfacet
  facet normal 0 1 0
    outer loop
      vertex -46 -19 -2
      vertex 25 -19 -5
      vertex 50 -19 -9
    endloop
  endfacet
  facet normal 0 1 0
    outer loop
      vertex 50 -19 -9
      vertex -54 -19 -6
      vertex -46 -19 -6
    endloop
  endfacet
  facet normal 0 1 0
    outer loop
      vertex -46 -19 -2
      vertex 50 -19 -9
      vertex -46 -19 -6
    endloop
  endfacet
  facet normal 0 1 0
    outer loop
      vertex -25 -19 -1
      vertex 25 -19 -5
      vertex -46 -19 -2
    endloop
  endfacet
  facet normal 0 1 0
    outer loop
      vertex -25 -19 -1
      vertex -46 -19 -2
      vertex -125 -19 -1
    endloop
  endfacet
  facet normal 0 1 0
    outer loop
      vertex -46 -19 -2
      vertex -54 -19 -2
      vertex -125 -19 -1
    endloop
  endfacet
  facet normal 0 1 0
    outer loop
      vertex -54 -19 -6
      vertex -125 -19 -1
      vertex -54 -19 -2
    endloop
  endfacet
  facet normal 0 0 -1
    outer loop
      vertex -125 -19 -1
      vertex -125 19 -1
      vertex -25 -19 -1
    endloop
  endfacet
  facet normal 0 0 -1
    outer loop
      vertex -38.9547 9.94522 -1
      vertex -125 19 -1
      vertex -25 19 -1
    endloop
  endfacet
  facet normal 0 0 -1
    outer loop
      vertex -41.0453 -9.94522 -1
      vertex -25 -19 -1
      vertex -43.0902 -9.51056 -1
    endloop
  endfacet
  facet normal 0 0 -1
    outer loop
      vertex -48.0902 5.87785 -1
      vertex -125 19 -1
      vertex -46.6913 7.43145 -1
    endloop
  endfacet
  facet normal 0 0 -1
    outer loop
      vertex -31.403 5 -1
      vertex -31.9098 5.87785 -1
      vertex -25 5 -1
    endloop
  endfacet
  facet normal 0 0 -1
    outer loop
      vertex -46.6913 7.43145 -1
      vertex -125 19 -1
      vertex -45 8.66025 -1
    endloop
  endfacet
  facet normal 0 0 -1
    outer loop
      vertex -25 5 -1
      vertex -33.3087 7.43145 -1
      vertex -25 19 -1
    endloop
  endfacet
  facet normal 0 0 -1
    outer loop
      vertex -45 8.66025 -1
      vertex -125 19 -1
      vertex -43.0902 9.51056 -1
    endloop
  endfacet
  facet normal 0 0 -1
    outer loop
      vertex -33.3087 7.43145 -1
      vertex -35 8.66025 -1
      vertex -25 19 -1
    endloop
  endfacet
  facet normal 0 0 -1
    outer loop
      vertex -43.0902 9.51056 -1
      vertex -125 19 -1
      vertex -41.0453 9.94522 -1
    endloop
  endfacet
  facet normal 0 0 -1
    outer loop
      vertex -35 8.66025 -1
      vertex -36.9098 9.51056 -1
      vertex -25 19 -1
    endloop
  endfacet
  facet normal 0 0 -1
    outer loop
      vertex -36.9098 9.51056 -1
      vertex -38.9547 9.94522 -1
      vertex -25 19 -1
    endloop
  endfacet
  facet normal 0 0 -1
    outer loop
      vertex -41.0453 9.94522 -1
      vertex -125 19 -1
      vertex -38.9547 9.94522 -1
    endloop
  endfacet
  facet normal 0 0 -1
    outer loop
      vertex -49.1355 4.06737 -1
      vertex -125 19 -1
      vertex -48.0902 5.87785 -1
    endloop
  endfacet
  facet normal 0 0 -1
    outer loop
      vertex -49.7815 2.07912 -1
      vertex -125 19 -1
      vertex -49.1355 4.06737 -1
    endloop
  endfacet
  facet normal 0 0 -1
    outer loop
      vertex -50 0 -1
      vertex -125 19 -1
      vertex -49.7815 2.07912 -1
    endloop
  endfacet
  facet normal 0 0 -1
    outer loop
      vertex -49.7815 -2.07912 -1
      vertex -125 19 -1
      vertex -50 0 -1
    endloop
  endfacet
  facet normal 0 0 -1
    outer loop
      vertex -49.1355 -4.06737 -1
      vertex -125 19 -1
      vertex -49.7815 -2.07912 -1
    endloop
  endfacet
  facet normal 0 0 -1
    outer loop
      vertex -48.0902 -5.87785 -1
      vertex -125 19 -1
      vertex -49.1355 -4.06737 -1
    endloop
  endfacet
  facet normal 0 0 -1
    outer loop
      vertex -46.6913 -7.43145 -1
      vertex -125 19 -1
      vertex -48.0902 -5.87785 -1
    endloop
  endfacet
  facet normal 0 0 -1
    outer loop
      vertex -45 -8.66025 -1
      vertex -125 19 -1
      vertex -46.6913 -7.43145 -1
    endloop
  endfacet
  facet normal 0 0 -1
    outer loop
      vertex -25 -19 -1
      vertex -125 19 -1
      vertex -45 -8.66025 -1
    endloop
  endfacet
  facet normal 0 0 -1
    outer loop
      vertex -25 -19 -1
      vertex -45 -8.66025 -1
      vertex -43.0902 -9.51056 -1
    endloop
  endfacet
  facet normal 0 0 -1
    outer loop
      vertex -38.9547 -9.94522 -1
      vertex -25 -19 -1
      vertex -41.0453 -9.94522 -1
    endloop
  endfacet
  facet normal 0 0 -1
    outer loop
      vertex -36.9098 -9.51056 -1
      vertex -25 -19 -1
      vertex -38.9547 -9.94522 -1
    endloop
  endfacet
  facet normal 0 0 -1
    outer loop
      vertex -35 -8.66025 -1
      vertex -25 -19 -1
      vertex -36.9098 -9.51056 -1
    endloop
  endfacet
  facet normal 0 0 -1
    outer loop
      vertex -33.3087 -7.43145 -1
      vertex -25 -19 -1
      vertex -35 -8.66025 -1
    endloop
  endfacet
  facet normal 0 0 -1
    outer loop
      vertex -25 -5 -1
      vertex -25 -19 -1
      vertex -31.403 -5 -1
    endloop
  endfacet
  facet normal 0 0 -1
    outer loop
      vertex -25 -19 -1
      vertex -33.3087 -7.43145 -1
      vertex -31.9098 -5.87785 -1
    endloop
  endfacet
  facet normal 0 0 -1
    outer loop
      vertex -25 -19 -1
      vertex -31.9098 -5.87785 -1
      vertex -31.403 -5 -1
    endloop
  endfacet
  facet normal 0 0 -1
    outer loop
      vertex -33.3087 7.43145 -1
      vertex -25 5 -1
      vertex -31.9098 5.87785 -1
    endloop
  endfacet
  facet normal 0 -1 0
    outer loop
      vertex -25 19 -1
      vertex -125 19 -1
      vertex 25 19 -5
    endloop
  endfacet
  facet normal 0 -1 0
    outer loop
      vertex 50 19 -7
      vertex 50 19 -5
      vertex 25 19 -5
    endloop
  endfacet
  facet normal 0 -1 0
    outer loop
      vertex -125 19 -1
      vertex 50 19 -7
      vertex 25 19 -5
    endloop
  endfacet
  facet normal 0 -1 0
    outer loop
      vertex 25 19 1
      vertex -25 19 1
      vertex 25 19 -5
    endloop
  endfacet
  facet normal 0 -1 0
    outer loop
      vertex -25 19 1
      vertex -25 19 -1
      vertex 25 19 -5
    endloop
  endfacet
  facet normal 0 -1 0
    outer loop
      vertex -125 19 -1
      vertex -125 19 -7
      vertex 50 19 -7
    endloop
  endfacet
  facet normal 0 0 -1
    outer loop
      vertex -125 19 -7
      vertex -125 21 -7
      vertex 50 19 -7
    endloop
  endfacet
  facet normal 0 0 -1
    outer loop
      vertex 50 19 -7
      vertex -125 21 -7
      vertex 50 21 -7
    endloop
  endfacet
  facet normal 0 1 0
    outer loop
      vertex -125 21 -7
      vertex -125 21 1
      vertex 50 21 -7
    endloop
  endfacet
  facet normal 0 1 0
    outer loop
      vertex 25 21 -5
      vertex -125 21 1
      vertex 25 21 1
    endloop
  endfacet
  facet normal 0 1 0
    outer loop
      vertex 50 21 -7
      vertex -125 21 1
      vertex 25 21 -5
    endloop
  endfacet
  facet normal 0 1 0
    outer loop
      vertex 50 21 -5
      vertex 50 21 -7
      vertex 25 21 -5
    endloop
  endfacet
  facet normal 0 0 1
    outer loop
      vertex -25 -19 1
      vertex -125 -21 1
      vertex 25 -21 1
    endloop
  endfacet
  facet normal 0 0 1
    outer loop
      vertex -125 21 1
      vertex -125 -21 1
      vertex -25 -19 1
    endloop
  endfacet
  facet normal 0 0 1
    outer loop
      vertex -31.403 5 1
      vertex -25 5 1
      vertex -31.9098 5.87785 1
    endloop
  endfacet
  facet normal 0 0 1
    outer loop
      vertex -45 -8.66025 1
      vertex -46.6913 -7.43145 1
      vertex -125 21 1
    endloop
  endfacet
  facet normal 0 0 1
    outer loop
      vertex -33.3087 -7.43145 1
      vertex -25 -19 1
      vertex -31.9098 -5.87785 1
    endloop
  endfacet
  facet normal 0 0 1
    outer loop
      vertex -35 -8.66025 1
      vertex -25 -19 1
      vertex -33.3087 -7.43145 1
    endloop
  endfacet
  facet normal 0 0 1
    outer loop
      vertex -49.7815 -2.07912 1
      vertex -50 0 1
      vertex -125 21 1
    endloop
  endfacet
  facet normal 0 0 1
    outer loop
      vertex -36.9098 -9.51056 1
      vertex -25 -19 1
      vertex -35 -8.66025 1
    endloop
  endfacet
  facet normal 0 0 1
    outer loop
      vertex -38.9547 -9.94522 1
      vertex -25 -19 1
      vertex -36.9098 -9.51056 1
    endloop
  endfacet
  facet normal 0 0 1
    outer loop
      vertex -41.0453 -9.94522 1
      vertex -25 -19 1
      vertex -38.9547 -9.94522 1
    endloop
  endfacet
  facet normal 0 0 1
    outer loop
      vertex -43.0902 -9.51056 1
      vertex -25 -19 1
      vertex -41.0453 -9.94522 1
    endloop
  endfacet
  facet normal 0 0 1
    outer loop
      vertex -125 21 1
      vertex -25 -19 1
      vertex -43.0902 -9.51056 1
    endloop
  endfacet
  facet normal 0 0 1
    outer loop
      vertex -46.6913 -7.43145 1
      vertex -48.0902 -5.87785 1
      vertex -125 21 1
    endloop
  endfacet
  facet normal 0 0 1
    outer loop
      vertex -125 21 1
      vertex -43.0902 -9.51056 1
      vertex -45 -8.66025 1
    endloop
  endfacet
  facet normal 0 0 1
    outer loop
      vertex -48.0902 -5.87785 1
      vertex -49.1355 -4.06737 1
      vertex -125 21 1
    endloop
  endfacet
  facet normal 0 0 1
    outer loop
      vertex -50 0 1
      vertex -49.7815 2.07912 1
      vertex -125 21 1
    endloop
  endfacet
  facet normal 0 0 1
    outer loop
      vertex -25 -19 1
      vertex -25 -5 1
      vertex -31.403 -5 1
    endloop
  endfacet
  facet normal 0 0 1
    outer loop
      vertex -49.1355 4.06737 1
      vertex -125 21 1
      vertex -49.7815 2.07912 1
    endloop
  endfacet
  facet normal 0 0 1
    outer loop
      vertex -48.0902 5.87785 1
      vertex -125 21 1
      vertex -49.1355 4.06737 1
    endloop
  endfacet
  facet normal 0 0 1
    outer loop
      vertex -46.6913 7.43145 1
      vertex -125 21 1
      vertex -48.0902 5.87785 1
    endloop
  endfacet
  facet normal 0 0 1
    outer loop
      vertex -45 8.66025 1
      vertex -125 21 1
      vertex -46.6913 7.43145 1
    endloop
  endfacet
  facet normal 0 0 1
    outer loop
      vertex -43.0902 9.51056 1
      vertex -125 21 1
      vertex -45 8.66025 1
    endloop
  endfacet
  facet normal 0 0 1
    outer loop
      vertex -41.0453 9.94522 1
      vertex -125 21 1
      vertex -43.0902 9.51056 1
    endloop
  endfacet
  facet normal 0 0 1
    outer loop
      vertex -33.3087 7.43145 1
      vertex -25 5 1
      vertex -35 8.66025 1
    endloop
  endfacet
  facet normal 0 0 1
    outer loop
      vertex -38.9547 9.94522 1
      vertex -125 21 1
      vertex -41.0453 9.94522 1
    endloop
  endfacet
  facet normal 0 0 1
    outer loop
      vertex -31.9098 5.87785 1
      vertex -25 5 1
      vertex -33.3087 7.43145 1
    endloop
  endfacet
  facet normal 0 0 1
    outer loop
      vertex -25 19 1
      vertex -125 21 1
      vertex -38.9547 9.94522 1
    endloop
  endfacet
  facet normal 0 0 1
    outer loop
      vertex -25 19 1
      vertex -38.9547 9.94522 1
      vertex -36.9098 9.51056 1
    endloop
  endfacet
  facet normal 0 0 1
    outer loop
      vertex -25 5 1
      vertex -36.9098 9.51056 1
      vertex -35 8.66025 1
    endloop
  endfacet
  facet normal 0 0 1
    outer loop
      vertex -25 19 1
      vertex -36.9098 9.51056 1
      vertex -25 5 1
    endloop
  endfacet
  facet normal 0 0 1
    outer loop
      vertex 25 19 1
      vertex -125 21 1
      vertex -25 19 1
    endloop
  endfacet
  facet normal 0 0 1
    outer loop
      vertex 25 21 1
      vertex -125 21 1
      vertex 25 19 1
    endloop
  endfacet
  facet normal 0 0 1
    outer loop
      vertex -25 -19 1
      vertex -31.403 -5 1
      vertex -31.9098 -5.87785 1
    endloop
  endfacet
  facet normal 0 0 1
    outer loop
      vertex -49.1355 -4.06737 1
      vertex -49.7815 -2.07912 1
      vertex -125 21 1
    endloop
  endfacet
  facet normal 0 0 1
    outer loop
      vertex 25 -19 1
      vertex -25 -19 1
      vertex 25 -21 1
    endloop
  endfacet
  facet normal 1 0 0
    outer loop
      vertex 25 -21 1
      vertex 25 -21 -5
      vertex 25 -19 -5
    endloop
  endfacet
  facet normal 1 0 0
    outer loop
      vertex 25 -19 1
      vertex 25 -21 1
      vertex 25 -19 -5
    endloop
  endfacet
  facet normal 0 0 1
    outer loop
      vertex 50 -21 -5
      vertex 50 -19 -5
      vertex 25 -19 -5
    endloop
  endfacet
  facet normal 0 0 1
    outer loop
      vertex 25 -21 -5
      vertex 50 -21 -5
      vertex 25 -19 -5
    endloop
  endfacet
  facet normal 1 0 0
    outer loop
      vertex 50 -21 -5
      vertex 50 -21 -9
      vertex 50 -19 -9
    endloop
  endfacet
  facet normal 1 0 0
    outer loop
      vertex 50 -19 -5
      vertex 50 -21 -5
      vertex 50 -19 -9
    endloop
  endfacet
  facet normal 1 0 0
    outer loop
      vertex -54 -19 -6
      vertex -54 -19 -2
      vertex -54 -21 -2
    endloop
  endfacet
  facet normal 1 0 0
    outer loop
      vertex -54 -21 -6
      vertex -54 -19 -6
      vertex -54 -21 -2
    endloop
  endfacet
  facet normal 0 0 1
    outer loop
      vertex -46 -21 -6
      vertex -46 -19 -6
      vertex -54 -19 -6
    endloop
  endfacet
  facet normal 0 0 1
    outer loop
      vertex -54 -21 -6
      vertex -46 -21 -6
      vertex -54 -19 -6
    endloop
  endfacet
  facet normal -1 0 0
    outer loop
      vertex -46 -19 -2
      vertex -46 -19 -6
      vertex -46 -21 -2
    endloop
  endfacet
  facet normal -1 0 0
    outer loop
      vertex -46 -21 -2
      vertex -46 -19 -6
      vertex -46 -21 -6
    endloop
  endfacet
  facet normal 0 0 -1
    outer loop
      vertex -46 -19 -2
      vertex -46 -21 -2
      vertex -54 -19 -2
    endloop
  endfacet
  facet normal 0 0 -1
    outer loop
      vertex -54 -19 -2
      vertex -46 -21 -2
      vertex -54 -21 -2
    endloop
  endfacet
  facet normal 1 0 0
    outer loop
      vertex -25 -19 1
      vertex -25 -19 -1
      vertex -25 -5 -1
    endloop
  endfacet
  facet normal 1 0 0
    outer loop
      vertex -25 -5 1
      vertex -25 -19 1
      vertex -25 -5 -1
    endloop
  endfacet
  facet normal 0 1 0
    outer loop
      vertex -25 -5 1
      vertex -25 -5 -1
      vertex -31.403 -5 1
    endloop
  endfacet
  facet normal 0 1 0
    outer loop
      vertex -31.403 -5 1
      vertex -25 -5 -1
      vertex -31.403 -5 -1
    endloop
  endfacet
  facet normal -0.866025 0.5 0
    outer loop
      vertex -31.403 -5 1
      vertex -31.403 -5 -1
      vertex -31.9098 -5.87785 1
    endloop
  endfacet
  facet normal -0.866025 0.5 0
    outer loop
      vertex -31.9098 -5.87785 1
      vertex -31.403 -5 -1
      vertex -31.9098 -5.87785 -1
    endloop
  endfacet
  facet normal -0.743145 0.669131 0
    outer loop
      vertex -31.9098 -5.87785 1
      vertex -31.9098 -5.87785 -1
      vertex -33.3087 -7.43145 1
    endloop
  endfacet
  facet normal -0.743145 0.669131 0
    outer loop
      vertex -33.3087 -7.43145 1
      vertex -31.9098 -5.87785 -1
      vertex -33.3087 -7.43145 -1
    endloop
  endfacet
  facet normal -0.587785 0.809017 0
    outer loop
      vertex -33.3087 -7.43145 1
      vertex -33.3087 -7.43145 -1
      vertex -35 -8.66025 1
    endloop
  endfacet
  facet normal -0.587785 0.809017 0
    outer loop
      vertex -35 -8.66025 1
      vertex -33.3087 -7.43145 -1
      vertex -35 -8.66025 -1
    endloop
  endfacet
  facet normal -0.406737 0.913545 0
    outer loop
      vertex -35 -8.66025 1
      vertex -35 -8.66025 -1
      vertex -36.9098 -9.51056 1
    endloop
  endfacet
  facet normal -0.406737 0.913545 0
    outer loop
      vertex -36.9098 -9.51056 1
      vertex -35 -8.66025 -1
      vertex -36.9098 -9.51056 -1
    endloop
  endfacet
  facet normal -0.207912 0.978148 0
    outer loop
      vertex -36.9098 -9.51056 1
      vertex -36.9098 -9.51056 -1
      vertex -38.9547 -9.94522 1
    endloop
  endfacet
  facet normal -0.207912 0.978148 0
    outer loop
      vertex -38.9547 -9.94522 1
      vertex -36.9098 -9.51056 -1
      vertex -38.9547 -9.94522 -1
    endloop
  endfacet
  facet normal 0 1 0
    outer loop
      vertex -38.9547 -9.94522 1
      vertex -38.9547 -9.94522 -1
      vertex -41.0453 -9.94522 1
    endloop
  endfacet
  facet normal 0 1 0
    outer loop
      vertex -41.0453 -9.94522 1
      vertex -38.9547 -9.94522 -1
      vertex -41.0453 -9.94522 -1
    endloop
  endfacet
  facet normal 0.207912 0.978148 0
    outer loop
      vertex -41.0453 -9.94522 1
      vertex -41.0453 -9.94522 -1
      vertex -43.0902 -9.51056 1
    endloop
  endfacet
  facet normal 0.207912 0.978148 0
    outer loop
      vertex -43.0902 -9.51056 1
      vertex -41.0453 -9.94522 -1
      vertex -43.0902 -9.51056 -1
    endloop
  endfacet
  facet normal 0.406737 0.913545 0
    outer loop
      vertex -43.0902 -9.51056 1
      vertex -43.0902 -9.51056 -1
      vertex -45 -8.66025 1
    endloop
  endfacet
  facet normal 0.406737 0.913545 0
    outer loop
      vertex -45 -8.66025 1
      vertex -43.0902 -9.51056 -1
      vertex -45 -8.66025 -1
    endloop
  endfacet
  facet normal 0.587785 0.809017 0
    outer loop
      vertex -45 -8.66025 1
      vertex -45 -8.66025 -1
      vertex -46.6913 -7.43145 1
    endloop
  endfacet
  facet normal 0.587785 0.809017 0
    outer loop
      vertex -46.6913 -7.43145 1
      vertex -45 -8.66025 -1
      vertex -46.6913 -7.43145 -1
    endloop
  endfacet
  facet normal 0.743145 0.669131 0
    outer loop
      vertex -48.0902 -5.87785 1
      vertex -46.6913 -7.43145 1
      vertex -46.6913 -7.43145 -1
    endloop
  endfacet
  facet normal 0.743145 0.669131 0
    outer loop
      vertex -48.0902 -5.87785 -1
      vertex -48.0902 -5.87785 1
      vertex -46.6913 -7.43145 -1
    endloop
  endfacet
  facet normal 0.866025 0.5 0
    outer loop
      vertex -49.1355 -4.06737 1
      vertex -48.0902 -5.87785 1
      vertex -48.0902 -5.87785 -1
    endloop
  endfacet
  facet normal 0.866025 0.5 0
    outer loop
      vertex -49.1355 -4.06737 -1
      vertex -49.1355 -4.06737 1
      vertex -48.0902 -5.87785 -1
    endloop
  endfacet
  facet normal 0.951057 0.309017 0
    outer loop
      vertex -49.7815 -2.07912 1
      vertex -49.1355 -4.06737 1
      vertex -49.1355 -4.06737 -1
    endloop
  endfacet
  facet normal 0.951057 0.309017 0
    outer loop
      vertex -49.7815 -2.07912 -1
      vertex -49.7815 -2.07912 1
      vertex -49.1355 -4.06737 -1
    endloop
  endfacet
  facet normal 0.994522 0.104528 0
    outer loop
      vertex -50 0 1
      vertex -49.7815 -2.07912 1
      vertex -49.7815 -2.07912 -1
    endloop
  endfacet
  facet normal 0.994522 0.104528 0
    outer loop
      vertex -50 0 -1
      vertex -50 0 1
      vertex -49.7815 -2.07912 -1
    endloop
  endfacet
  facet normal 0.994522 -0.104528 0
    outer loop
      vertex -49.7815 2.07912 -1
      vertex -49.7815 2.07912 1
      vertex -50 0 1
    endloop
  endfacet
  facet normal 0.994522 -0.104528 0
    outer loop
      vertex -50 0 -1
      vertex -49.7815 2.07912 -1
      vertex -50 0 1
    endloop
  endfacet
  facet normal 0.951057 -0.309017 0
    outer loop
      vertex -49.1355 4.06737 -1
      vertex -49.1355 4.06737 1
      vertex -49.7815 2.07912 1
    endloop
  endfacet
  facet normal 0.951057 -0.309017 0
    outer loop
      vertex -49.7815 2.07912 -1
      vertex -49.1355 4.06737 -1
      vertex -49.7815 2.07912 1
    endloop
  endfacet
  facet normal 0.866025 -0.5 0
    outer loop
      vertex -48.0902 5.87785 -1
      vertex -48.0902 5.87785 1
      vertex -49.1355 4.06737 1
    endloop
  endfacet
  facet normal 0.866025 -0.5 0
    outer loop
      vertex -49.1355 4.06737 -1
      vertex -48.0902 5.87785 -1
      vertex -49.1355 4.06737 1
    endloop
  endfacet
  facet normal 0.743145 -0.669131 0
    outer loop
      vertex -46.6913 7.43145 -1
      vertex -46.6913 7.43145 1
      vertex -48.0902 5.87785 1
    endloop
  endfacet
  facet normal 0.743145 -0.669131 0
    outer loop
      vertex -48.0902 5.87785 -1
      vertex -46.6913 7.43145 -1
      vertex -48.0902 5.87785 1
    endloop
  endfacet
  facet normal 0.587785 -0.809017 0
    outer loop
      vertex -45 8.66025 -1
      vertex -45 8.66025 1
      vertex -46.6913 7.43145 1
    endloop
  endfacet
  facet normal 0.587785 -0.809017 0
    outer loop
      vertex -46.6913 7.43145 -1
      vertex -45 8.66025 -1
      vertex -46.6913 7.43145 1
    endloop
  endfacet
  facet normal 0.406737 -0.913545 0
    outer loop
      vertex -43.0902 9.51056 -1
      vertex -43.0902 9.51056 1
      vertex -45 8.66025 1
    endloop
  endfacet
  facet normal 0.406737 -0.913545 0
    outer loop
      vertex -45 8.66025 -1
      vertex -43.0902 9.51056 -1
      vertex -45 8.66025 1
    endloop
  endfacet
  facet normal 0.207912 -0.978148 0
    outer loop
      vertex -41.0453 9.94522 -1
      vertex -41.0453 9.94522 1
      vertex -43.0902 9.51056 1
    endloop
  endfacet
  facet normal 0.207912 -0.978148 0
    outer loop
      vertex -43.0902 9.51056 -1
      vertex -41.0453 9.94522 -1
      vertex -43.0902 9.51056 1
    endloop
  endfacet
  facet normal 0 -1 0
    outer loop
      vertex -38.9547 9.94522 -1
      vertex -38.9547 9.94522 1
      vertex -41.0453 9.94522 1
    endloop
  endfacet
  facet normal 0 -1 0
    outer loop
      vertex -41.0453 9.94522 -1
      vertex -38.9547 9.94522 -1
      vertex -41.0453 9.94522 1
    endloop
  endfacet
  facet normal -0.207912 -0.978148 0
    outer loop
      vertex -36.9098 9.51056 -1
      vertex -36.9098 9.51056 1
      vertex -38.9547 9.94522 1
    endloop
  endfacet
  facet normal -0.207912 -0.978148 0
    outer loop
      vertex -38.9547 9.94522 -1
      vertex -36.9098 9.51056 -1
      vertex -38.9547 9.94522 1
    endloop
  endfacet
  facet normal -0.406737 -0.913545 0
    outer loop
      vertex -35 8.66025 -1
      vertex -35 8.66025 1
      vertex -36.9098 9.51056 1
    endloop
  endfacet
  facet normal -0.406737 -0.913545 0
    outer loop
      vertex -36.9098 9.51056 -1
      vertex -35 8.66025 -1
      vertex -36.9098 9.51056 1
    endloop
  endfacet
  facet normal -0.587785 -0.809017 0
    outer loop
      vertex -33.3087 7.43145 -1
      vertex -33.3087 7.43145 1
      vertex -35 8.66025 1
    endloop
  endfacet
  facet normal -0.587785 -0.809017 0
    outer loop
      vertex -35 8.66025 -1
      vertex -33.3087 7.43145 -1
      vertex -35 8.66025 1
    endloop
  endfacet
  facet normal -0.743145 -0.669131 0
    outer loop
      vertex -31.9098 5.87785 1
      vertex -33.3087 7.43145 1
      vertex -31.9098 5.87785 -1
    endloop
  endfacet
  facet normal -0.743145 -0.669131 0
    outer loop
      vertex -31.9098 5.87785 -1
      vertex -33.3087 7.43145 1
      vertex -33.3087 7.43145 -1
    endloop
  endfacet
  facet normal -0.866025 -0.5 0
    outer loop
      vertex -31.403 5 1
      vertex -31.9098 5.87785 1
      vertex -31.403 5 -1
    endloop
  endfacet
  facet normal -0.866025 -0.5 0
    outer loop
      vertex -31.403 5 -1
      vertex -31.9098 5.87785 1
      vertex -31.9098 5.87785 -1
    endloop
  endfacet
  facet normal 0 -1 0
    outer loop
      vertex -25 5 -1
      vertex -25 5 1
      vertex -31.403 5 1
    endloop
  endfacet
  facet normal 0 -1 0
    outer loop
      vertex -31.403 5 -1
      vertex -25 5 -1
      vertex -31.403 5 1
    endloop
  endfacet
  facet normal 1 0 0
    outer loop
      vertex -25 5 1
      vertex -25 5 -1
      vertex -25 19 -1
    endloop
  endfacet
  facet normal 1 0 0
    outer loop
      vertex -25 19 1
      vertex -25 5 1
      vertex -25 19 -1
    endloop
  endfacet
  facet normal 1 0 0
    outer loop
      vertex 50 19 -5
      vertex 50 19 -7
      vertex 50 21 -7
    endloop
  endfacet
  facet normal 1 0 0
    outer loop
      vertex 50 21 -5
      vertex 50 19 -5
      vertex 50 21 -7
    endloop
  endfacet
  facet normal 1 0 0
    outer loop
      vertex 25 19 1
      vertex 25 19 -5
      vertex 25 21 -5
    endloop
  endfacet
  facet normal 1 0 0
    outer loop
      vertex 25 21 1
      vertex 25 19 1
      vertex 25 21 -5
    endloop
  endfacet
  facet normal 0 0 1
    outer loop
      vertex 50 19 -5
      vertex 50 21 -5
      vertex 25 21 -5
    endloop
  endfacet
  facet normal 0 0 1
    outer loop
      vertex 25 19 -5
      vertex 50 19 -5
      vertex 25 21 -5
    endloop
  endfacet
endsolid OpenSCAD_Model
