G75*
G70*
%OFA0B0*%
%FSLAX24Y24*%
%IPPOS*%
%LPD*%
%AMOC8*
5,1,8,0,0,1.08239X$1,22.5*
%
%ADD10C,0.0060*%
%ADD11C,0.0040*%
%ADD12C,0.0050*%
%ADD13C,0.0080*%
%ADD14C,0.0059*%
D10*
X009929Y002737D02*
X010036Y002630D01*
X010143Y002630D01*
X010250Y002737D01*
X010250Y002950D01*
X010356Y003057D01*
X010463Y003057D01*
X010570Y002950D01*
X010570Y002737D01*
X010463Y002630D01*
X009929Y002737D02*
X009929Y002950D01*
X010036Y003057D01*
X009929Y003275D02*
X009929Y003702D01*
X009929Y003488D02*
X010570Y003488D01*
X010677Y003919D02*
X010677Y004346D01*
X010570Y004564D02*
X009929Y004564D01*
X010570Y004991D01*
X009929Y004991D01*
X010143Y005208D02*
X010463Y005208D01*
X010570Y005315D01*
X010570Y005635D01*
X010143Y005635D01*
X010250Y005853D02*
X010143Y005960D01*
X010143Y006280D01*
X009929Y006497D02*
X009929Y006604D01*
X010570Y006604D01*
X010570Y006497D02*
X010570Y006711D01*
X010463Y006927D02*
X010250Y006927D01*
X010143Y007034D01*
X010143Y007247D01*
X010250Y007354D01*
X010356Y007354D01*
X010356Y006927D01*
X010463Y006927D02*
X010570Y007034D01*
X010570Y007247D01*
X010463Y007572D02*
X010570Y007678D01*
X010570Y007892D01*
X010463Y007999D01*
X010250Y007999D01*
X010143Y007892D01*
X010143Y007678D01*
X010250Y007572D01*
X010463Y007572D01*
X010677Y008216D02*
X010677Y008643D01*
X010570Y008861D02*
X009929Y008861D01*
X009929Y009288D01*
X010250Y009074D02*
X010250Y008861D01*
X010250Y009505D02*
X010250Y009932D01*
X010463Y010150D02*
X010036Y010150D01*
X009929Y010257D01*
X009929Y010470D01*
X010036Y010577D01*
X010463Y010150D01*
X010570Y010257D01*
X010570Y010470D01*
X010463Y010577D01*
X010036Y010577D01*
X010143Y010794D02*
X009929Y011008D01*
X010570Y011008D01*
X010570Y011221D02*
X010570Y010794D01*
X010570Y011439D02*
X009929Y011439D01*
X009929Y011759D01*
X010036Y011866D01*
X010250Y011866D01*
X010356Y011759D01*
X010356Y011439D01*
X010356Y011652D02*
X010570Y011866D01*
X010570Y012083D02*
X009929Y012083D01*
X009929Y012510D01*
X010250Y012297D02*
X010250Y012083D01*
X010570Y012083D02*
X010570Y012510D01*
X010570Y009825D02*
X009929Y009825D01*
X010250Y009505D01*
X010570Y006280D02*
X010570Y005960D01*
X010463Y005853D01*
X010250Y005853D01*
X035100Y004350D02*
X035100Y003850D01*
X035350Y003600D01*
X035850Y003600D01*
X036100Y003850D01*
X036100Y004350D01*
X035850Y004600D01*
X035350Y004600D01*
X035100Y004350D01*
X035350Y003600D02*
X035100Y003350D01*
X035100Y002850D01*
X035350Y002600D01*
X035850Y002600D01*
X036100Y002850D01*
X036100Y003350D01*
X035850Y003600D01*
X035850Y002600D02*
X036100Y002350D01*
X036100Y001850D01*
X035850Y001600D01*
X035350Y001600D01*
X035100Y001850D01*
X035100Y002350D01*
X035350Y002600D01*
X028681Y029916D02*
X028574Y029916D01*
X028681Y029916D02*
X028788Y030023D01*
X028788Y030557D01*
X028788Y030130D02*
X028467Y030130D01*
X028361Y030237D01*
X028361Y030557D01*
X028143Y030450D02*
X028143Y030237D01*
X028036Y030130D01*
X027716Y030130D01*
X027716Y030771D01*
X027716Y030557D02*
X028036Y030557D01*
X028143Y030450D01*
X026854Y030557D02*
X026534Y030557D01*
X026427Y030450D01*
X026427Y030237D01*
X026534Y030130D01*
X026854Y030130D01*
X026854Y030771D01*
X026209Y030450D02*
X026209Y030344D01*
X025782Y030344D01*
X025782Y030450D02*
X025782Y030237D01*
X025889Y030130D01*
X026103Y030130D01*
X026209Y030450D02*
X026103Y030557D01*
X025889Y030557D01*
X025782Y030450D01*
X025565Y030450D02*
X025565Y030130D01*
X025565Y030450D02*
X025458Y030557D01*
X025138Y030557D01*
X025138Y030130D01*
X024920Y030130D02*
X024600Y030130D01*
X024493Y030237D01*
X024493Y030450D01*
X024600Y030557D01*
X024920Y030557D01*
X024920Y030023D01*
X024814Y029916D01*
X024707Y029916D01*
X024277Y030130D02*
X024064Y030130D01*
X024170Y030130D02*
X024170Y030557D01*
X024064Y030557D01*
X023846Y030557D02*
X023526Y030557D01*
X023419Y030450D01*
X023526Y030344D01*
X023739Y030344D01*
X023846Y030237D01*
X023739Y030130D01*
X023419Y030130D01*
X023202Y030344D02*
X022775Y030344D01*
X022775Y030450D02*
X022775Y030237D01*
X022881Y030130D01*
X023095Y030130D01*
X023202Y030344D02*
X023202Y030450D01*
X023095Y030557D01*
X022881Y030557D01*
X022775Y030450D01*
X022557Y030557D02*
X022237Y030557D01*
X022130Y030450D01*
X022130Y030237D01*
X022237Y030130D01*
X022557Y030130D01*
X022557Y030771D01*
X024170Y030771D02*
X024170Y030877D01*
X029650Y030450D02*
X029863Y030450D01*
X029757Y030664D02*
X029863Y030771D01*
X029757Y030664D02*
X029757Y030130D01*
X030079Y030130D02*
X030293Y030130D01*
X030186Y030130D02*
X030186Y030771D01*
X030079Y030771D01*
X030509Y030664D02*
X030616Y030771D01*
X030829Y030771D01*
X030936Y030664D01*
X030936Y030450D01*
X030829Y030344D01*
X030829Y030557D01*
X030616Y030557D01*
X030616Y030344D01*
X030829Y030344D01*
X030936Y030237D02*
X030829Y030130D01*
X030616Y030130D01*
X030509Y030237D01*
X030509Y030664D01*
X031154Y030450D02*
X031154Y030237D01*
X031260Y030130D01*
X031581Y030130D01*
X031798Y030237D02*
X031798Y030664D01*
X031905Y030771D01*
X032119Y030771D01*
X032225Y030664D01*
X032225Y030450D01*
X032119Y030344D01*
X032119Y030557D01*
X031905Y030557D01*
X031905Y030344D01*
X032119Y030344D01*
X032225Y030237D02*
X032119Y030130D01*
X031905Y030130D01*
X031798Y030237D01*
X031581Y030557D02*
X031260Y030557D01*
X031154Y030450D01*
X033087Y030664D02*
X033194Y030771D01*
X033408Y030771D01*
X033514Y030664D01*
X033514Y030557D01*
X033087Y030130D01*
X033514Y030130D01*
X033732Y030237D02*
X033732Y030664D01*
X033839Y030771D01*
X034052Y030771D01*
X034159Y030664D01*
X033732Y030237D01*
X033839Y030130D01*
X034052Y030130D01*
X034159Y030237D01*
X034159Y030664D01*
X034376Y030557D02*
X034590Y030771D01*
X034590Y030130D01*
X034803Y030130D02*
X034376Y030130D01*
X035021Y030450D02*
X035341Y030771D01*
X035341Y030130D01*
X035448Y030450D02*
X035021Y030450D01*
X015345Y030737D02*
X015238Y030630D01*
X015024Y030630D01*
X014918Y030737D01*
X015345Y031164D01*
X015345Y030737D01*
X015345Y031164D02*
X015238Y031271D01*
X015024Y031271D01*
X014918Y031164D01*
X014918Y030737D01*
X014702Y030737D02*
X014702Y030630D01*
X014595Y030630D01*
X014595Y030737D01*
X014702Y030737D01*
X014378Y030630D02*
X013951Y030630D01*
X014164Y030630D02*
X014164Y031271D01*
X013951Y031057D01*
X013733Y030844D02*
X013733Y031271D01*
X013306Y031271D02*
X013306Y030844D01*
X013520Y030630D01*
X013733Y030844D01*
X012444Y031057D02*
X012124Y031057D01*
X012017Y030950D01*
X012017Y030737D01*
X012124Y030630D01*
X012444Y030630D01*
X012444Y031271D01*
X011800Y031057D02*
X011693Y031057D01*
X011480Y030844D01*
X011480Y031057D02*
X011480Y030630D01*
X011262Y030630D02*
X010942Y030630D01*
X010835Y030737D01*
X010942Y030844D01*
X011262Y030844D01*
X011262Y030950D02*
X011262Y030630D01*
X011262Y030950D02*
X011156Y031057D01*
X010942Y031057D01*
X010618Y030950D02*
X010511Y031057D01*
X010298Y031057D01*
X010191Y030950D01*
X010191Y030737D01*
X010298Y030630D01*
X010511Y030630D01*
X010618Y030737D01*
X010618Y030950D01*
X009973Y030844D02*
X009973Y030737D01*
X009867Y030630D01*
X009546Y030630D01*
X009546Y031271D01*
X009867Y031271D01*
X009973Y031164D01*
X009973Y031057D01*
X009867Y030950D01*
X009546Y030950D01*
X009329Y031057D02*
X009329Y030523D01*
X009222Y030416D01*
X009115Y030416D01*
X009008Y030630D02*
X009329Y030630D01*
X009008Y030630D02*
X008902Y030737D01*
X008902Y030950D01*
X009008Y031057D01*
X009329Y031057D01*
X008684Y030950D02*
X008684Y030630D01*
X008684Y030950D02*
X008577Y031057D01*
X008257Y031057D01*
X008257Y030630D01*
X008041Y030630D02*
X007827Y030630D01*
X007934Y030630D02*
X007934Y031057D01*
X007827Y031057D01*
X007610Y031057D02*
X007290Y031057D01*
X007183Y030950D01*
X007183Y030737D01*
X007290Y030630D01*
X007610Y030630D01*
X007610Y030523D02*
X007610Y031057D01*
X007934Y031271D02*
X007934Y031377D01*
X006965Y030950D02*
X006965Y030630D01*
X006645Y030630D01*
X006538Y030737D01*
X006645Y030844D01*
X006965Y030844D01*
X006965Y030950D02*
X006859Y031057D01*
X006645Y031057D01*
X006321Y030950D02*
X006321Y030630D01*
X006107Y030630D02*
X006107Y030950D01*
X006214Y031057D01*
X006321Y030950D01*
X006107Y030950D02*
X006001Y031057D01*
X005894Y031057D01*
X005894Y030630D01*
X005678Y030630D02*
X005464Y030630D01*
X005571Y030630D02*
X005571Y031057D01*
X005464Y031057D01*
X005571Y031271D02*
X005571Y031377D01*
X005247Y030523D02*
X004820Y030523D01*
X004603Y030630D02*
X004390Y030630D01*
X004497Y030630D02*
X004497Y031057D01*
X004390Y031057D01*
X004497Y031271D02*
X004497Y031377D01*
X004172Y031164D02*
X004172Y030950D01*
X004066Y030844D01*
X003745Y030844D01*
X003745Y030630D02*
X003745Y031271D01*
X004066Y031271D01*
X004172Y031164D01*
X003528Y030950D02*
X003528Y030630D01*
X003528Y030950D02*
X003421Y031057D01*
X003101Y031057D01*
X003101Y030630D01*
X002883Y030630D02*
X002883Y030950D01*
X002776Y031057D01*
X002563Y031057D01*
X002563Y030844D02*
X002456Y030737D01*
X002563Y030630D01*
X002883Y030630D01*
X002883Y030844D02*
X002563Y030844D01*
X002239Y030950D02*
X002239Y030630D01*
X002025Y030630D02*
X002025Y030950D01*
X002132Y031057D01*
X002239Y030950D01*
X002025Y030950D02*
X001918Y031057D01*
X001812Y031057D01*
X001812Y030630D01*
X001594Y030630D02*
X001594Y030950D01*
X001487Y031057D01*
X001274Y031057D01*
X001274Y030844D02*
X001594Y030844D01*
X001594Y030630D02*
X001274Y030630D01*
X001167Y030737D01*
X001274Y030844D01*
X000950Y031057D02*
X000844Y031057D01*
X000630Y030844D01*
X000630Y031057D02*
X000630Y030630D01*
X007396Y030416D02*
X007503Y030416D01*
X007610Y030523D01*
X009867Y030950D02*
X009973Y030844D01*
D11*
X009828Y030080D02*
X009828Y029620D01*
X010135Y029620D01*
X009674Y029850D02*
X009598Y029773D01*
X009367Y029773D01*
X009367Y029620D02*
X009367Y030080D01*
X009598Y030080D01*
X009674Y030004D01*
X009674Y029850D01*
X009214Y029850D02*
X009214Y029697D01*
X009137Y029620D01*
X008984Y029620D01*
X008907Y029697D01*
X008907Y030004D01*
X008984Y030080D01*
X009137Y030080D01*
X009214Y030004D01*
X009214Y029850D02*
X009061Y029850D01*
X008293Y029850D02*
X008293Y029773D01*
X007986Y029773D01*
X007986Y029697D02*
X007986Y029850D01*
X008063Y029927D01*
X008216Y029927D01*
X008293Y029850D01*
X008216Y029620D02*
X008063Y029620D01*
X007986Y029697D01*
X007833Y029620D02*
X007833Y029850D01*
X007756Y029927D01*
X007603Y029927D01*
X007526Y029850D01*
X007372Y029927D02*
X007219Y029927D01*
X007296Y030004D02*
X007296Y029697D01*
X007372Y029620D01*
X007526Y029620D02*
X007526Y030080D01*
X006605Y029927D02*
X006528Y029927D01*
X006375Y029773D01*
X006375Y029620D02*
X006375Y029927D01*
X006221Y029850D02*
X006221Y029773D01*
X005915Y029773D01*
X005915Y029697D02*
X005915Y029850D01*
X005991Y029927D01*
X006145Y029927D01*
X006221Y029850D01*
X006145Y029620D02*
X005991Y029620D01*
X005915Y029697D01*
X005761Y029620D02*
X005531Y029620D01*
X005454Y029697D01*
X005454Y029850D01*
X005531Y029927D01*
X005761Y029927D01*
X005761Y030080D02*
X005761Y029620D01*
X005301Y029620D02*
X005301Y029850D01*
X005224Y029927D01*
X004994Y029927D01*
X004994Y029620D01*
X004840Y029620D02*
X004840Y029927D01*
X004533Y029927D02*
X004533Y029697D01*
X004610Y029620D01*
X004840Y029620D01*
X004687Y029080D02*
X004687Y028620D01*
X004687Y028773D02*
X004917Y028927D01*
X005147Y028927D02*
X005301Y028927D01*
X005377Y028850D01*
X005377Y028620D01*
X005147Y028620D01*
X005070Y028697D01*
X005147Y028773D01*
X005377Y028773D01*
X005531Y028697D02*
X005531Y028850D01*
X005608Y028927D01*
X005838Y028927D01*
X005838Y029080D02*
X005838Y028620D01*
X005608Y028620D01*
X005531Y028697D01*
X004917Y028620D02*
X004687Y028773D01*
X004533Y028620D02*
X004303Y028620D01*
X004226Y028697D01*
X004226Y028850D01*
X004303Y028927D01*
X004533Y028927D01*
X004073Y028850D02*
X004073Y028620D01*
X003843Y028620D01*
X003766Y028697D01*
X003843Y028773D01*
X004073Y028773D01*
X004073Y028850D02*
X003996Y028927D01*
X003843Y028927D01*
X003613Y028850D02*
X003613Y028620D01*
X003613Y028850D02*
X003536Y028927D01*
X003382Y028927D01*
X003306Y028850D01*
X003306Y029080D02*
X003306Y028620D01*
X002845Y028620D02*
X003152Y029080D01*
X002692Y029080D02*
X002385Y028620D01*
X002231Y028620D02*
X002155Y028620D01*
X002155Y028697D01*
X002231Y028697D01*
X002231Y028620D01*
X002231Y028850D02*
X002155Y028850D01*
X002155Y028927D01*
X002231Y028927D01*
X002231Y028850D01*
X002001Y028850D02*
X002001Y028697D01*
X001924Y028620D01*
X001694Y028620D01*
X001541Y028620D02*
X001464Y028697D01*
X001464Y029004D01*
X001387Y028927D02*
X001541Y028927D01*
X001694Y028927D02*
X001924Y028927D01*
X002001Y028850D01*
X001694Y028927D02*
X001694Y028467D01*
X001234Y028620D02*
X001157Y028697D01*
X001157Y029004D01*
X001080Y028927D02*
X001234Y028927D01*
X000927Y028850D02*
X000927Y028620D01*
X000927Y028850D02*
X000850Y028927D01*
X000697Y028927D01*
X000620Y028850D01*
X000620Y029080D02*
X000620Y028620D01*
X000620Y029620D02*
X000620Y029927D01*
X000773Y029927D02*
X000850Y029927D01*
X000773Y029927D02*
X000620Y029773D01*
X001004Y029773D02*
X001311Y029773D01*
X001311Y029850D01*
X001234Y029927D01*
X001080Y029927D01*
X001004Y029850D01*
X001004Y029697D01*
X001080Y029620D01*
X001234Y029620D01*
X001464Y029620D02*
X001618Y029620D01*
X001541Y029620D02*
X001541Y030080D01*
X001464Y030080D01*
X001771Y029850D02*
X001848Y029927D01*
X002001Y029927D01*
X002078Y029850D01*
X002078Y029773D01*
X001771Y029773D01*
X001771Y029697D02*
X001771Y029850D01*
X001771Y029697D02*
X001848Y029620D01*
X002001Y029620D01*
X002231Y029697D02*
X002308Y029773D01*
X002538Y029773D01*
X002538Y029850D02*
X002538Y029620D01*
X002308Y029620D01*
X002231Y029697D01*
X002308Y029927D02*
X002462Y029927D01*
X002538Y029850D01*
X002692Y029850D02*
X002768Y029927D01*
X002999Y029927D01*
X003152Y029850D02*
X003229Y029927D01*
X003382Y029927D01*
X003459Y029850D01*
X003459Y029773D01*
X003152Y029773D01*
X003152Y029697D02*
X003152Y029850D01*
X003152Y029697D02*
X003229Y029620D01*
X003382Y029620D01*
X003613Y029697D02*
X003613Y029850D01*
X003689Y029927D01*
X003919Y029927D01*
X003919Y030080D02*
X003919Y029620D01*
X003689Y029620D01*
X003613Y029697D01*
X002999Y029697D02*
X002922Y029773D01*
X002768Y029773D01*
X002692Y029850D01*
X002692Y029620D02*
X002922Y029620D01*
X002999Y029697D01*
X005991Y028697D02*
X006068Y028773D01*
X006298Y028773D01*
X006298Y028850D02*
X006298Y028620D01*
X006068Y028620D01*
X005991Y028697D01*
X006068Y028927D02*
X006221Y028927D01*
X006298Y028850D01*
X006452Y028927D02*
X006452Y028697D01*
X006528Y028620D01*
X006759Y028620D01*
X006759Y028543D02*
X006682Y028467D01*
X006605Y028467D01*
X006759Y028543D02*
X006759Y028927D01*
X006912Y028697D02*
X006989Y028697D01*
X006989Y028620D01*
X006912Y028620D01*
X006912Y028697D01*
X007142Y028620D02*
X007296Y028620D01*
X007219Y028620D02*
X007219Y028927D01*
X007142Y028927D01*
X007219Y029080D02*
X007219Y029157D01*
X007449Y028850D02*
X007449Y028697D01*
X007526Y028620D01*
X007679Y028620D01*
X007756Y028697D01*
X007756Y028850D01*
X007679Y028927D01*
X007526Y028927D01*
X007449Y028850D01*
X007910Y028620D02*
X008216Y029080D01*
X008370Y028927D02*
X008600Y028927D01*
X008677Y028850D01*
X008677Y028697D01*
X008600Y028620D01*
X008370Y028620D01*
X008370Y028467D02*
X008370Y028927D01*
X008830Y028927D02*
X008830Y028620D01*
X008830Y028773D02*
X008984Y028927D01*
X009061Y028927D01*
X009214Y028850D02*
X009214Y028697D01*
X009291Y028620D01*
X009444Y028620D01*
X009521Y028697D01*
X009521Y028850D01*
X009444Y028927D01*
X009291Y028927D01*
X009214Y028850D01*
X009674Y028467D02*
X009751Y028467D01*
X009828Y028543D01*
X009828Y028927D01*
X009828Y029080D02*
X009828Y029157D01*
X010058Y028927D02*
X010212Y028927D01*
X010288Y028850D01*
X010288Y028773D01*
X009981Y028773D01*
X009981Y028697D02*
X009981Y028850D01*
X010058Y028927D01*
X009981Y028697D02*
X010058Y028620D01*
X010212Y028620D01*
X010442Y028697D02*
X010442Y028850D01*
X010518Y028927D01*
X010749Y028927D01*
X010902Y028927D02*
X011056Y028927D01*
X010979Y029004D02*
X010979Y028697D01*
X011056Y028620D01*
X011209Y028620D02*
X011516Y029080D01*
X011669Y028927D02*
X011823Y029080D01*
X011823Y028620D01*
X011976Y028620D02*
X011669Y028620D01*
X012130Y028620D02*
X012437Y028927D01*
X012437Y029004D01*
X012360Y029080D01*
X012207Y029080D01*
X012130Y029004D01*
X012130Y028620D02*
X012437Y028620D01*
X012590Y028620D02*
X012590Y028697D01*
X012897Y029004D01*
X012897Y029080D01*
X012590Y029080D01*
X013051Y029004D02*
X013051Y028927D01*
X013127Y028850D01*
X013358Y028850D01*
X013358Y028697D02*
X013358Y029004D01*
X013281Y029080D01*
X013127Y029080D01*
X013051Y029004D01*
X013051Y028697D02*
X013127Y028620D01*
X013281Y028620D01*
X013358Y028697D01*
X013664Y029620D02*
X013971Y029620D01*
X014125Y029620D02*
X014278Y029620D01*
X014202Y029620D02*
X014202Y029927D01*
X014125Y029927D01*
X014202Y030080D02*
X014202Y030157D01*
X014509Y029927D02*
X014432Y029850D01*
X014432Y029697D01*
X014509Y029620D01*
X014739Y029620D01*
X014892Y029697D02*
X014892Y029850D01*
X014969Y029927D01*
X015122Y029927D01*
X015199Y029850D01*
X015199Y029773D01*
X014892Y029773D01*
X014892Y029697D02*
X014969Y029620D01*
X015122Y029620D01*
X015353Y029620D02*
X015353Y029927D01*
X015583Y029927D01*
X015659Y029850D01*
X015659Y029620D01*
X015813Y029620D02*
X016043Y029620D01*
X016120Y029697D01*
X016043Y029773D01*
X015890Y029773D01*
X015813Y029850D01*
X015890Y029927D01*
X016120Y029927D01*
X016273Y029850D02*
X016273Y029697D01*
X016350Y029620D01*
X016504Y029620D01*
X016580Y029773D02*
X016273Y029773D01*
X016273Y029850D02*
X016350Y029927D01*
X016504Y029927D01*
X016580Y029850D01*
X016580Y029773D01*
X017194Y029773D02*
X017348Y029620D01*
X017501Y029773D01*
X017501Y030080D01*
X017655Y030004D02*
X017731Y030080D01*
X017885Y030080D01*
X017961Y030004D01*
X017961Y029927D01*
X017655Y029620D01*
X017961Y029620D01*
X017194Y029773D02*
X017194Y030080D01*
X014739Y029927D02*
X014509Y029927D01*
X013664Y030080D02*
X013664Y029620D01*
X013051Y029620D02*
X012820Y029620D01*
X012744Y029697D01*
X012744Y029850D01*
X012820Y029927D01*
X013051Y029927D01*
X012513Y029927D02*
X012513Y029620D01*
X012437Y029620D02*
X012590Y029620D01*
X012283Y029620D02*
X012130Y029620D01*
X012207Y029620D02*
X012207Y030080D01*
X012130Y030080D01*
X011976Y029850D02*
X011900Y029927D01*
X011669Y029927D01*
X011516Y029927D02*
X011516Y029620D01*
X011286Y029620D01*
X011209Y029697D01*
X011209Y029927D01*
X011056Y030004D02*
X010979Y030080D01*
X010749Y030080D01*
X010749Y029620D01*
X010749Y029773D02*
X010979Y029773D01*
X011056Y029850D01*
X011056Y030004D01*
X011669Y030080D02*
X011669Y029620D01*
X011900Y029620D01*
X011976Y029697D01*
X011976Y029850D01*
X012437Y029927D02*
X012513Y029927D01*
X012513Y030080D02*
X012513Y030157D01*
X010749Y028620D02*
X010518Y028620D01*
X010442Y028697D01*
X010580Y025793D02*
X010580Y025486D01*
X010120Y025486D01*
X010120Y025793D01*
X010350Y025640D02*
X010350Y025486D01*
X010350Y025333D02*
X010427Y025256D01*
X010427Y025026D01*
X010580Y025026D02*
X010120Y025026D01*
X010120Y025256D01*
X010196Y025333D01*
X010350Y025333D01*
X010427Y025179D02*
X010580Y025333D01*
X010350Y024872D02*
X010350Y024565D01*
X010580Y024412D02*
X010580Y024105D01*
X010580Y024259D02*
X010120Y024259D01*
X010273Y024105D01*
X010196Y023952D02*
X010503Y023645D01*
X010580Y023721D01*
X010580Y023875D01*
X010503Y023952D01*
X010196Y023952D01*
X010120Y023875D01*
X010120Y023721D01*
X010196Y023645D01*
X010503Y023645D01*
X010350Y023491D02*
X010350Y023184D01*
X010120Y023415D01*
X010580Y023415D01*
X010350Y022877D02*
X010350Y022724D01*
X010580Y022724D02*
X010120Y022724D01*
X010120Y023031D01*
X010196Y022110D02*
X010120Y022033D01*
X010120Y021880D01*
X010196Y021803D01*
X010503Y021803D01*
X010580Y021880D01*
X010580Y022033D01*
X010503Y022110D01*
X010196Y022110D01*
X010120Y021650D02*
X010120Y021343D01*
X010580Y021343D01*
X010580Y021650D01*
X010350Y021496D02*
X010350Y021343D01*
X010580Y021189D02*
X010580Y020882D01*
X010120Y020882D01*
X010196Y020729D02*
X010120Y020652D01*
X010120Y020499D01*
X010196Y020422D01*
X010503Y020422D01*
X010580Y020499D01*
X010580Y020652D01*
X010503Y020729D01*
X010503Y020268D02*
X010120Y020268D01*
X010120Y019962D02*
X010503Y019962D01*
X010580Y020038D01*
X010580Y020192D01*
X010503Y020268D01*
X010580Y019808D02*
X010120Y019808D01*
X010120Y019501D02*
X010580Y019808D01*
X010580Y019501D02*
X010120Y019501D01*
X010120Y018887D02*
X010120Y018580D01*
X010120Y018734D02*
X010580Y018734D01*
X010503Y018427D02*
X010580Y018350D01*
X010580Y018197D01*
X010503Y018120D01*
X010350Y018197D02*
X010350Y018350D01*
X010427Y018427D01*
X010503Y018427D01*
X010350Y018197D02*
X010273Y018120D01*
X010196Y018120D01*
X010120Y018197D01*
X010120Y018350D01*
X010196Y018427D01*
X022197Y029197D02*
X022273Y029120D01*
X022197Y029197D02*
X022197Y029504D01*
X022120Y029427D02*
X022273Y029427D01*
X022427Y029350D02*
X022504Y029427D01*
X022657Y029427D01*
X022734Y029350D01*
X022734Y029120D01*
X022887Y029197D02*
X022887Y029350D01*
X022964Y029427D01*
X023118Y029427D01*
X023194Y029350D01*
X023194Y029273D01*
X022887Y029273D01*
X022887Y029197D02*
X022964Y029120D01*
X023118Y029120D01*
X023348Y029120D02*
X023348Y029580D01*
X023348Y029350D02*
X023655Y029350D01*
X023808Y029197D02*
X023885Y029273D01*
X024115Y029273D01*
X024115Y029350D02*
X024115Y029120D01*
X023885Y029120D01*
X023808Y029197D01*
X023655Y029120D02*
X023655Y029580D01*
X023885Y029427D02*
X024038Y029427D01*
X024115Y029350D01*
X024268Y029350D02*
X024268Y029197D01*
X024345Y029120D01*
X024575Y029120D01*
X024729Y029120D02*
X024729Y029580D01*
X024575Y029427D02*
X024345Y029427D01*
X024268Y029350D01*
X024729Y029273D02*
X024959Y029427D01*
X025189Y029427D02*
X025343Y029427D01*
X025419Y029350D01*
X025419Y029120D01*
X025189Y029120D01*
X025113Y029197D01*
X025189Y029273D01*
X025419Y029273D01*
X025573Y029197D02*
X025573Y029350D01*
X025650Y029427D01*
X025880Y029427D01*
X025880Y029580D02*
X025880Y029120D01*
X025650Y029120D01*
X025573Y029197D01*
X026033Y029197D02*
X026110Y029273D01*
X026340Y029273D01*
X026340Y029350D02*
X026340Y029120D01*
X026110Y029120D01*
X026033Y029197D01*
X026110Y029427D02*
X026264Y029427D01*
X026340Y029350D01*
X026494Y029427D02*
X026494Y029197D01*
X026570Y029120D01*
X026801Y029120D01*
X026801Y029043D02*
X026724Y028967D01*
X026647Y028967D01*
X026801Y029043D02*
X026801Y029427D01*
X026954Y029580D02*
X026954Y029120D01*
X026954Y029273D02*
X027184Y029273D01*
X027261Y029350D01*
X027261Y029504D01*
X027184Y029580D01*
X026954Y029580D01*
X027415Y029427D02*
X027415Y029120D01*
X027415Y029273D02*
X027568Y029427D01*
X027645Y029427D01*
X027798Y029427D02*
X027875Y029427D01*
X027875Y029120D01*
X027798Y029120D02*
X027952Y029120D01*
X028105Y029120D02*
X028412Y029120D01*
X028565Y029197D02*
X028565Y029350D01*
X028642Y029427D01*
X028796Y029427D01*
X028872Y029350D01*
X028872Y029273D01*
X028565Y029273D01*
X028565Y029197D02*
X028642Y029120D01*
X028796Y029120D01*
X028412Y029427D02*
X028105Y029120D01*
X028105Y029427D02*
X028412Y029427D01*
X027875Y029580D02*
X027875Y029657D01*
X029486Y029504D02*
X029563Y029580D01*
X029716Y029580D01*
X029793Y029504D01*
X029793Y029427D01*
X029486Y029120D01*
X029793Y029120D01*
X029947Y029197D02*
X030254Y029504D01*
X030254Y029197D01*
X030177Y029120D01*
X030023Y029120D01*
X029947Y029197D01*
X029947Y029504D01*
X030023Y029580D01*
X030177Y029580D01*
X030254Y029504D01*
X030407Y029427D02*
X030561Y029580D01*
X030561Y029120D01*
X030714Y029120D02*
X030407Y029120D01*
X030867Y029350D02*
X031098Y029580D01*
X031098Y029120D01*
X031174Y029350D02*
X030867Y029350D01*
X036620Y026761D02*
X037080Y026761D01*
X037080Y026684D02*
X037080Y026838D01*
X037003Y026991D02*
X037080Y027068D01*
X037080Y027221D01*
X037003Y027298D01*
X036850Y027298D01*
X036773Y027221D01*
X036773Y027068D01*
X036850Y026991D01*
X037003Y026991D01*
X036620Y026761D02*
X036620Y026684D01*
X036850Y026531D02*
X036773Y026454D01*
X036773Y026301D01*
X036850Y026224D01*
X037003Y026224D01*
X037080Y026301D01*
X037080Y026454D01*
X037003Y026531D01*
X036850Y026531D01*
X037003Y026070D02*
X037080Y025994D01*
X037080Y025840D01*
X037003Y025764D01*
X036696Y025764D01*
X036620Y025840D01*
X036620Y025994D01*
X036696Y026070D01*
X037157Y025610D02*
X037157Y025303D01*
X037003Y025150D02*
X037080Y025073D01*
X037080Y024919D01*
X037003Y024843D01*
X036850Y024843D02*
X036773Y024996D01*
X036773Y025073D01*
X036850Y025150D01*
X037003Y025150D01*
X036850Y024843D02*
X036620Y024843D01*
X036620Y025150D01*
X036696Y024689D02*
X036620Y024613D01*
X036620Y024459D01*
X036696Y024382D01*
X036696Y024229D02*
X037003Y023922D01*
X037080Y023922D01*
X037080Y023692D02*
X036620Y023692D01*
X036850Y023462D01*
X036850Y023768D01*
X036620Y023922D02*
X036620Y024229D01*
X036696Y024229D01*
X037080Y024382D02*
X036773Y024689D01*
X036696Y024689D01*
X037080Y024689D02*
X037080Y024382D01*
X037003Y023308D02*
X037080Y023231D01*
X037080Y023078D01*
X037003Y023001D01*
X037003Y022848D02*
X037080Y022771D01*
X037080Y022618D01*
X037003Y022541D01*
X037003Y022387D02*
X037080Y022311D01*
X037080Y022157D01*
X037003Y022080D01*
X036696Y022080D01*
X036620Y022157D01*
X036620Y022311D01*
X036696Y022387D01*
X036696Y022541D02*
X036773Y022541D01*
X036850Y022618D01*
X036850Y022771D01*
X036927Y022848D01*
X037003Y022848D01*
X036696Y022848D02*
X036620Y022771D01*
X036620Y022618D01*
X036696Y022541D01*
X036696Y023001D02*
X036620Y023078D01*
X036620Y023231D01*
X036696Y023308D01*
X036773Y023308D01*
X036850Y023231D01*
X036927Y023308D01*
X037003Y023308D01*
X036850Y023231D02*
X036850Y023155D01*
X036620Y021927D02*
X036620Y021620D01*
X036620Y021773D02*
X037080Y021773D01*
X037273Y020308D02*
X037657Y020308D01*
X037733Y020231D01*
X037733Y020155D01*
X037580Y020078D02*
X037580Y020308D01*
X037580Y020078D02*
X037503Y020001D01*
X037273Y020001D01*
X037273Y019848D02*
X037273Y019618D01*
X037350Y019541D01*
X037427Y019618D01*
X037427Y019771D01*
X037503Y019848D01*
X037580Y019771D01*
X037580Y019541D01*
X037580Y019387D02*
X037273Y019387D01*
X037273Y019080D02*
X037503Y019080D01*
X037580Y019157D01*
X037580Y019387D01*
X037503Y018927D02*
X037350Y018927D01*
X037273Y018850D01*
X037273Y018620D01*
X037120Y018620D02*
X037580Y018620D01*
X037580Y018850D01*
X037503Y018927D01*
X039696Y018697D02*
X040003Y018697D01*
X040080Y018773D01*
X040003Y018927D02*
X039850Y018927D01*
X039773Y019004D01*
X039773Y019157D01*
X039850Y019234D01*
X039927Y019234D01*
X039927Y018927D01*
X040003Y018927D02*
X040080Y019004D01*
X040080Y019157D01*
X040080Y019387D02*
X040080Y019618D01*
X040003Y019694D01*
X039927Y019618D01*
X039927Y019464D01*
X039850Y019387D01*
X039773Y019464D01*
X039773Y019694D01*
X039773Y019848D02*
X039773Y020001D01*
X039696Y019924D02*
X040003Y019924D01*
X040080Y020001D01*
X039773Y018773D02*
X039773Y018620D01*
X039696Y021620D02*
X039773Y021620D01*
X039850Y021697D01*
X039850Y021850D01*
X039927Y021927D01*
X040003Y021927D01*
X040080Y021850D01*
X040080Y021697D01*
X040003Y021620D01*
X039696Y021620D02*
X039620Y021697D01*
X039620Y021850D01*
X039696Y021927D01*
X039620Y022080D02*
X039620Y022234D01*
X039620Y022157D02*
X040080Y022157D01*
X040080Y022080D02*
X040080Y022234D01*
X040080Y022387D02*
X040080Y022694D01*
X040080Y022541D02*
X039620Y022541D01*
X039773Y022387D01*
X039773Y022848D02*
X039620Y023001D01*
X040080Y023001D01*
X040080Y022848D02*
X040080Y023155D01*
X039850Y023308D02*
X039850Y023615D01*
X039850Y023768D02*
X039620Y023768D01*
X039620Y024075D01*
X039773Y023999D02*
X039850Y024075D01*
X040003Y024075D01*
X040080Y023999D01*
X040080Y023845D01*
X040003Y023768D01*
X039850Y023768D02*
X039773Y023922D01*
X039773Y023999D01*
X040157Y024229D02*
X040157Y024536D01*
X040003Y024689D02*
X040080Y024766D01*
X040080Y024919D01*
X040003Y024996D01*
X039620Y024996D01*
X039620Y025150D02*
X039927Y025150D01*
X040080Y025303D01*
X039927Y025457D01*
X039620Y025457D01*
X040157Y025610D02*
X040157Y025917D01*
X040080Y026070D02*
X040080Y026224D01*
X040080Y026147D02*
X039620Y026147D01*
X039620Y026070D02*
X039620Y026224D01*
X039773Y026377D02*
X039773Y026608D01*
X039850Y026684D01*
X040080Y026684D01*
X040003Y026838D02*
X039850Y026838D01*
X039773Y026915D01*
X039773Y027145D01*
X039620Y027145D02*
X040080Y027145D01*
X040080Y026915D01*
X040003Y026838D01*
X040080Y026377D02*
X039773Y026377D01*
X039850Y027298D02*
X039773Y027375D01*
X039773Y027528D01*
X039850Y027605D01*
X039927Y027605D01*
X039927Y027298D01*
X040003Y027298D02*
X039850Y027298D01*
X040003Y027298D02*
X040080Y027375D01*
X040080Y027528D01*
X040080Y027759D02*
X039773Y028065D01*
X039773Y027759D02*
X040080Y028065D01*
X037080Y027452D02*
X036773Y027452D01*
X036773Y027605D02*
X036927Y027452D01*
X036773Y027605D02*
X036773Y027682D01*
X039620Y024689D02*
X040003Y024689D01*
X040080Y023538D02*
X039620Y023538D01*
X039850Y023308D01*
X035080Y020845D02*
X035003Y020922D01*
X034927Y020845D01*
X034927Y020692D01*
X034850Y020615D01*
X034773Y020692D01*
X034773Y020922D01*
X035080Y020845D02*
X035080Y020615D01*
X035080Y020462D02*
X034773Y020462D01*
X035080Y020462D02*
X035080Y020231D01*
X035003Y020155D01*
X034773Y020155D01*
X034773Y020001D02*
X034773Y019848D01*
X034696Y019924D02*
X035003Y019924D01*
X035080Y020001D01*
X035080Y019694D02*
X034850Y019694D01*
X034773Y019618D01*
X034773Y019464D01*
X034927Y019464D02*
X034927Y019694D01*
X035080Y019694D02*
X035080Y019464D01*
X035003Y019387D01*
X034927Y019464D01*
X035080Y019234D02*
X035003Y019157D01*
X034696Y019157D01*
X034773Y019080D02*
X034773Y019234D01*
X034773Y018927D02*
X034773Y018697D01*
X034850Y018620D01*
X034927Y018697D01*
X034927Y018850D01*
X035003Y018927D01*
X035080Y018850D01*
X035080Y018620D01*
X041120Y011533D02*
X041580Y011533D01*
X041580Y011303D01*
X041503Y011226D01*
X041350Y011226D01*
X041273Y011303D01*
X041273Y011533D01*
X041273Y011073D02*
X041273Y010996D01*
X041427Y010843D01*
X041580Y010843D02*
X041273Y010843D01*
X041350Y010689D02*
X041580Y010689D01*
X041580Y010459D01*
X041503Y010382D01*
X041427Y010459D01*
X041427Y010689D01*
X041350Y010689D02*
X041273Y010613D01*
X041273Y010459D01*
X041350Y010229D02*
X041273Y010152D01*
X041273Y009999D01*
X041350Y009922D01*
X041503Y009922D01*
X041580Y009999D01*
X041580Y010152D01*
X041503Y010229D01*
X041350Y010229D01*
X041427Y009768D02*
X041350Y009692D01*
X041350Y009462D01*
X041350Y009692D02*
X041273Y009768D01*
X041196Y009768D01*
X041120Y009692D01*
X041120Y009462D01*
X041580Y009462D01*
X041580Y009692D01*
X041503Y009768D01*
X041427Y009768D01*
X041657Y009308D02*
X041657Y009001D01*
X041503Y008848D02*
X041196Y008848D01*
X041120Y008771D01*
X041120Y008541D01*
X041580Y008541D01*
X041580Y008771D01*
X041503Y008848D01*
X041503Y008387D02*
X041580Y008311D01*
X041580Y008157D01*
X041503Y008080D01*
X041196Y008080D01*
X041120Y008157D01*
X041120Y008311D01*
X041196Y008387D01*
X041196Y007927D02*
X041120Y007850D01*
X041120Y007697D01*
X041196Y007620D01*
X041503Y007620D01*
X041580Y007697D01*
X041580Y007850D01*
X041503Y007927D01*
X037080Y004573D02*
X037080Y004343D01*
X037233Y004343D02*
X036773Y004343D01*
X036773Y004573D01*
X036850Y004650D01*
X037003Y004650D01*
X037080Y004573D01*
X037080Y004189D02*
X036850Y004189D01*
X036773Y004113D01*
X036850Y004036D01*
X037080Y004036D01*
X037080Y003882D02*
X036773Y003882D01*
X036773Y003959D01*
X036850Y004036D01*
X036850Y003729D02*
X036927Y003729D01*
X036927Y003422D01*
X037003Y003422D02*
X036850Y003422D01*
X036773Y003499D01*
X036773Y003652D01*
X036850Y003729D01*
X037080Y003652D02*
X037080Y003499D01*
X037003Y003422D01*
X037080Y003115D02*
X036620Y003115D01*
X036620Y002962D02*
X036620Y003268D01*
X037157Y002808D02*
X037157Y002501D01*
X037003Y002348D02*
X036696Y002348D01*
X036620Y002271D01*
X036620Y002041D01*
X037080Y002041D01*
X037080Y002271D01*
X037003Y002348D01*
X037003Y001887D02*
X037080Y001811D01*
X037080Y001657D01*
X037003Y001580D01*
X036696Y001580D01*
X036620Y001657D01*
X036620Y001811D01*
X036696Y001887D01*
X036696Y001427D02*
X036620Y001350D01*
X036620Y001197D01*
X036696Y001120D01*
X037003Y001120D01*
X037080Y001197D01*
X037080Y001350D01*
X037003Y001427D01*
X041120Y001620D02*
X041120Y001850D01*
X041196Y001927D01*
X041350Y001927D01*
X041427Y001850D01*
X041427Y001620D01*
X041580Y001620D02*
X041120Y001620D01*
X041120Y002080D02*
X041580Y002080D01*
X041427Y002234D01*
X041580Y002387D01*
X041120Y002387D01*
X041120Y002541D02*
X041120Y002771D01*
X041196Y002848D01*
X041350Y002848D01*
X041427Y002771D01*
X041427Y002541D01*
X041580Y002541D02*
X041120Y002541D01*
X041427Y002694D02*
X041580Y002848D01*
X041657Y003001D02*
X041657Y003308D01*
X041580Y003462D02*
X041580Y003615D01*
X041580Y003538D02*
X041120Y003538D01*
X041120Y003462D02*
X041120Y003615D01*
X041273Y003768D02*
X041273Y003999D01*
X041350Y004075D01*
X041580Y004075D01*
X041580Y003768D02*
X041273Y003768D01*
X024959Y029120D02*
X024729Y029273D01*
X022427Y029120D02*
X022427Y029580D01*
D12*
X001100Y027600D02*
X001100Y000600D01*
X011600Y000600D01*
X011600Y027600D01*
X001100Y027600D01*
X011600Y027600D02*
X033600Y027600D01*
X033600Y000600D01*
X011600Y000600D01*
D13*
X019470Y004088D02*
X020730Y004088D01*
X020730Y005112D02*
X019470Y005112D01*
X025470Y005112D02*
X026730Y005112D01*
X026730Y004088D02*
X025470Y004088D01*
X037328Y005624D02*
X040872Y005624D01*
X040872Y013576D01*
X040832Y013576D02*
X037328Y013576D01*
X037328Y010466D01*
X037919Y010466D01*
X037919Y008734D01*
X037328Y008734D01*
X037328Y010466D01*
X038007Y011350D02*
X038007Y011850D01*
X037328Y008734D02*
X037328Y005624D01*
X037761Y004167D02*
X040202Y004167D01*
X040202Y001411D01*
X037761Y001411D01*
X037761Y004167D01*
X040202Y004167D02*
X040517Y004167D01*
X040517Y001411D01*
X040202Y001411D01*
X040986Y015939D02*
X039214Y015939D01*
X039214Y018261D01*
X040986Y018261D01*
X040986Y017494D01*
X040789Y017494D01*
X040789Y016706D01*
X040986Y016706D01*
X040986Y015939D01*
X038486Y015939D02*
X038486Y016706D01*
X038289Y016706D01*
X038289Y017494D01*
X038486Y017494D01*
X038486Y018261D01*
X036714Y018261D01*
X036714Y015939D01*
X038486Y015939D01*
X035986Y015939D02*
X035986Y016706D01*
X035789Y016706D01*
X035789Y017494D01*
X035986Y017494D01*
X035986Y018261D01*
X034214Y018261D01*
X034214Y015939D01*
X035986Y015939D01*
X035850Y021100D02*
X035350Y021100D01*
X035100Y021350D01*
X035100Y021850D01*
X035350Y022100D01*
X035100Y022350D01*
X035100Y022850D01*
X035350Y023100D01*
X035100Y023350D01*
X035100Y023850D01*
X035350Y024100D01*
X035100Y024350D01*
X035100Y024850D01*
X035350Y025100D01*
X035100Y025350D01*
X035100Y025850D01*
X035350Y026100D01*
X035100Y026350D01*
X035100Y026850D01*
X035350Y027100D01*
X035100Y027350D01*
X035100Y027850D01*
X035350Y028100D01*
X035850Y028100D01*
X036100Y027850D01*
X036100Y027350D01*
X035850Y027100D01*
X036100Y026850D01*
X036100Y026350D01*
X035850Y026100D01*
X036100Y025850D01*
X036100Y025350D01*
X035850Y025100D01*
X036100Y024850D01*
X036100Y024350D01*
X035850Y024100D01*
X036100Y023850D01*
X036100Y023350D01*
X035850Y023100D01*
X036100Y022850D01*
X036100Y022350D01*
X035850Y022100D01*
X036100Y021850D01*
X036100Y021350D01*
X035850Y021100D01*
X038100Y021350D02*
X038350Y021100D01*
X038850Y021100D01*
X039100Y021350D01*
X039100Y021850D01*
X038850Y022100D01*
X039100Y022350D01*
X039100Y022850D01*
X038850Y023100D01*
X039100Y023350D01*
X039100Y023850D01*
X038850Y024100D01*
X039100Y024350D01*
X039100Y024850D01*
X038850Y025100D01*
X039100Y025350D01*
X039100Y025850D01*
X038850Y026100D01*
X039100Y026350D01*
X039100Y026850D01*
X038850Y027100D01*
X039100Y027350D01*
X039100Y027850D01*
X038850Y028100D01*
X038350Y028100D01*
X038100Y027850D01*
X038100Y027350D01*
X038350Y027100D01*
X038100Y026850D01*
X038100Y026350D01*
X038350Y026100D01*
X038100Y025850D01*
X038100Y025350D01*
X038350Y025100D01*
X038100Y024850D01*
X038100Y024350D01*
X038350Y024100D01*
X038100Y023850D01*
X038100Y023350D01*
X038350Y023100D01*
X038100Y022850D01*
X038100Y022350D01*
X038350Y022100D01*
X038100Y021850D01*
X038100Y021350D01*
D14*
X021034Y028799D02*
X020751Y029145D01*
X020802Y029237D01*
X020842Y029334D01*
X020871Y029434D01*
X021316Y029479D01*
X021316Y029815D01*
X020871Y029860D01*
X020842Y029961D01*
X020802Y030058D01*
X020751Y030149D01*
X021034Y030496D01*
X020796Y030733D01*
X020450Y030451D01*
X020358Y030501D01*
X020262Y030541D01*
X020161Y030570D01*
X020116Y031015D01*
X019780Y031015D01*
X019735Y030570D01*
X019634Y030541D01*
X019538Y030501D01*
X019446Y030451D01*
X019100Y030733D01*
X018862Y030496D01*
X019144Y030149D01*
X019094Y030058D01*
X019054Y029961D01*
X019025Y029860D01*
X018580Y029815D01*
X018580Y029479D01*
X019025Y029434D01*
X019054Y029334D01*
X019094Y029237D01*
X019144Y029145D01*
X018862Y028799D01*
X019100Y028561D01*
X019446Y028844D01*
X019514Y028805D01*
X019585Y028772D01*
X019783Y029249D01*
X019719Y029283D01*
X019661Y029326D01*
X019611Y029379D01*
X019571Y029439D01*
X019541Y029505D01*
X019523Y029575D01*
X019517Y029647D01*
X019525Y029728D01*
X019547Y029805D01*
X019584Y029877D01*
X019633Y029941D01*
X019694Y029995D01*
X019763Y030036D01*
X019839Y030064D01*
X019919Y030077D01*
X019999Y030075D01*
X020078Y030058D01*
X020153Y030026D01*
X020220Y029981D01*
X020277Y029925D01*
X020323Y029858D01*
X020356Y029785D01*
X020375Y029706D01*
X020378Y029625D01*
X020366Y029545D01*
X020340Y029469D01*
X020300Y029399D01*
X020247Y029338D01*
X020184Y029287D01*
X020113Y029249D01*
X020310Y028772D01*
X020382Y028805D01*
X020450Y028844D01*
X020796Y028561D01*
X021034Y028799D01*
X021016Y028820D02*
X020479Y028820D01*
X020408Y028820D02*
X020291Y028820D01*
X020267Y028878D02*
X020970Y028878D01*
X020923Y028935D02*
X020243Y028935D01*
X020219Y028993D02*
X020876Y028993D01*
X020829Y029050D02*
X020195Y029050D01*
X020171Y029108D02*
X020782Y029108D01*
X020762Y029165D02*
X020148Y029165D01*
X020124Y029223D02*
X020794Y029223D01*
X020820Y029281D02*
X020172Y029281D01*
X020248Y029338D02*
X020843Y029338D01*
X020860Y029396D02*
X020297Y029396D01*
X020331Y029453D02*
X021058Y029453D01*
X021316Y029511D02*
X020354Y029511D01*
X020370Y029568D02*
X021316Y029568D01*
X021316Y029626D02*
X020378Y029626D01*
X020375Y029683D02*
X021316Y029683D01*
X021316Y029741D02*
X020366Y029741D01*
X020350Y029799D02*
X021316Y029799D01*
X020913Y029856D02*
X020324Y029856D01*
X020285Y029914D02*
X020856Y029914D01*
X020838Y029971D02*
X020230Y029971D01*
X020146Y030029D02*
X020814Y030029D01*
X020786Y030086D02*
X019110Y030086D01*
X019082Y030029D02*
X019751Y030029D01*
X019667Y029971D02*
X019058Y029971D01*
X019040Y029914D02*
X019612Y029914D01*
X019573Y029856D02*
X018983Y029856D01*
X019142Y030144D02*
X020754Y030144D01*
X020794Y030201D02*
X019102Y030201D01*
X019055Y030259D02*
X020841Y030259D01*
X020888Y030317D02*
X019008Y030317D01*
X018961Y030374D02*
X020935Y030374D01*
X020982Y030432D02*
X018914Y030432D01*
X018867Y030489D02*
X019399Y030489D01*
X019328Y030547D02*
X018913Y030547D01*
X018971Y030604D02*
X019258Y030604D01*
X019187Y030662D02*
X019028Y030662D01*
X019086Y030719D02*
X019116Y030719D01*
X019516Y030489D02*
X020380Y030489D01*
X020497Y030489D02*
X021029Y030489D01*
X020983Y030547D02*
X020568Y030547D01*
X020638Y030604D02*
X020925Y030604D01*
X020867Y030662D02*
X020709Y030662D01*
X020779Y030719D02*
X020810Y030719D01*
X020242Y030547D02*
X019653Y030547D01*
X019738Y030604D02*
X020158Y030604D01*
X020152Y030662D02*
X019744Y030662D01*
X019750Y030719D02*
X020146Y030719D01*
X020140Y030777D02*
X019756Y030777D01*
X019762Y030835D02*
X020134Y030835D01*
X020128Y030892D02*
X019768Y030892D01*
X019773Y030950D02*
X020122Y030950D01*
X020117Y031007D02*
X019779Y031007D01*
X019545Y029799D02*
X018580Y029799D01*
X018580Y029741D02*
X019529Y029741D01*
X019521Y029683D02*
X018580Y029683D01*
X018580Y029626D02*
X019519Y029626D01*
X019525Y029568D02*
X018580Y029568D01*
X018580Y029511D02*
X019540Y029511D01*
X019565Y029453D02*
X018837Y029453D01*
X019036Y029396D02*
X019600Y029396D01*
X019650Y029338D02*
X019053Y029338D01*
X019076Y029281D02*
X019723Y029281D01*
X019772Y029223D02*
X019102Y029223D01*
X019133Y029165D02*
X019748Y029165D01*
X019724Y029108D02*
X019114Y029108D01*
X019067Y029050D02*
X019701Y029050D01*
X019677Y028993D02*
X019020Y028993D01*
X018973Y028935D02*
X019653Y028935D01*
X019629Y028878D02*
X018926Y028878D01*
X018879Y028820D02*
X019417Y028820D01*
X019488Y028820D02*
X019605Y028820D01*
X019346Y028763D02*
X018898Y028763D01*
X018956Y028705D02*
X019276Y028705D01*
X019205Y028647D02*
X019014Y028647D01*
X019071Y028590D02*
X019134Y028590D01*
X020550Y028763D02*
X020997Y028763D01*
X020940Y028705D02*
X020620Y028705D01*
X020691Y028647D02*
X020882Y028647D01*
X020825Y028590D02*
X020761Y028590D01*
M02*
