G75*
G70*
%OFA0B0*%
%FSLAX24Y24*%
%IPPOS*%
%LPD*%
%AMOC8*
5,1,8,0,0,1.08239X$1,22.5*
%
%ADD10C,0.0000*%
%ADD11R,0.0515X0.0515*%
%ADD12C,0.0740*%
%ADD13R,0.0630X0.0787*%
%ADD14C,0.0600*%
%ADD15OC8,0.0740*%
%ADD16R,0.0800X0.0800*%
%ADD17C,0.0800*%
%ADD18C,0.0640*%
%ADD19R,0.0472X0.0787*%
%ADD20C,0.0160*%
%ADD21C,0.0436*%
D10*
X000100Y000100D02*
X000100Y031470D01*
X042592Y031470D01*
X042592Y000100D01*
X000100Y000100D01*
X011982Y004600D02*
X011984Y004621D01*
X011990Y004641D01*
X011999Y004661D01*
X012011Y004678D01*
X012026Y004692D01*
X012044Y004704D01*
X012064Y004712D01*
X012084Y004717D01*
X012105Y004718D01*
X012126Y004715D01*
X012146Y004709D01*
X012165Y004698D01*
X012182Y004685D01*
X012195Y004669D01*
X012206Y004651D01*
X012214Y004631D01*
X012218Y004611D01*
X012218Y004589D01*
X012214Y004569D01*
X012206Y004549D01*
X012195Y004531D01*
X012182Y004515D01*
X012165Y004502D01*
X012146Y004491D01*
X012126Y004485D01*
X012105Y004482D01*
X012084Y004483D01*
X012064Y004488D01*
X012044Y004496D01*
X012026Y004508D01*
X012011Y004522D01*
X011999Y004539D01*
X011990Y004559D01*
X011984Y004579D01*
X011982Y004600D01*
X032982Y019100D02*
X032984Y019121D01*
X032990Y019141D01*
X032999Y019161D01*
X033011Y019178D01*
X033026Y019192D01*
X033044Y019204D01*
X033064Y019212D01*
X033084Y019217D01*
X033105Y019218D01*
X033126Y019215D01*
X033146Y019209D01*
X033165Y019198D01*
X033182Y019185D01*
X033195Y019169D01*
X033206Y019151D01*
X033214Y019131D01*
X033218Y019111D01*
X033218Y019089D01*
X033214Y019069D01*
X033206Y019049D01*
X033195Y019031D01*
X033182Y019015D01*
X033165Y019002D01*
X033146Y018991D01*
X033126Y018985D01*
X033105Y018982D01*
X033084Y018983D01*
X033064Y018988D01*
X033044Y018996D01*
X033026Y019008D01*
X033011Y019022D01*
X032999Y019039D01*
X032990Y019059D01*
X032984Y019079D01*
X032982Y019100D01*
X012982Y024100D02*
X012984Y024121D01*
X012990Y024141D01*
X012999Y024161D01*
X013011Y024178D01*
X013026Y024192D01*
X013044Y024204D01*
X013064Y024212D01*
X013084Y024217D01*
X013105Y024218D01*
X013126Y024215D01*
X013146Y024209D01*
X013165Y024198D01*
X013182Y024185D01*
X013195Y024169D01*
X013206Y024151D01*
X013214Y024131D01*
X013218Y024111D01*
X013218Y024089D01*
X013214Y024069D01*
X013206Y024049D01*
X013195Y024031D01*
X013182Y024015D01*
X013165Y024002D01*
X013146Y023991D01*
X013126Y023985D01*
X013105Y023982D01*
X013084Y023983D01*
X013064Y023988D01*
X013044Y023996D01*
X013026Y024008D01*
X013011Y024022D01*
X012999Y024039D01*
X012990Y024059D01*
X012984Y024079D01*
X012982Y024100D01*
D11*
X014100Y026100D03*
X015100Y026100D03*
X016100Y026100D03*
X016100Y027100D03*
X015100Y027100D03*
X014100Y027100D03*
X017100Y027100D03*
X018100Y027100D03*
X019100Y027100D03*
X019100Y026100D03*
X018100Y026100D03*
X017100Y026100D03*
X020100Y026100D03*
X021100Y026100D03*
X022100Y026100D03*
X022100Y027100D03*
X021100Y027100D03*
X020100Y027100D03*
X023100Y027100D03*
X024100Y027100D03*
X025100Y027100D03*
X025100Y026100D03*
X024100Y026100D03*
X023100Y026100D03*
X026100Y026100D03*
X027100Y026100D03*
X028100Y026100D03*
X028100Y027100D03*
X027100Y027100D03*
X026100Y027100D03*
X029100Y027100D03*
X030100Y027100D03*
X031100Y027100D03*
X031100Y026100D03*
X030100Y026100D03*
X029100Y026100D03*
X032100Y026100D03*
X032100Y027100D03*
X004100Y026600D03*
X003100Y026600D03*
X014100Y002600D03*
X015100Y002600D03*
X016100Y002600D03*
X016100Y001600D03*
X015100Y001600D03*
X014100Y001600D03*
X017100Y001600D03*
X018100Y001600D03*
X019100Y001600D03*
X019100Y002600D03*
X018100Y002600D03*
X017100Y002600D03*
X020100Y002600D03*
X021100Y002600D03*
X022100Y002600D03*
X022100Y001600D03*
X021100Y001600D03*
X020100Y001600D03*
X023100Y001600D03*
X024100Y001600D03*
X025100Y001600D03*
X025100Y002600D03*
X024100Y002600D03*
X023100Y002600D03*
X026100Y002600D03*
X027100Y002600D03*
X028100Y002600D03*
X028100Y001600D03*
X027100Y001600D03*
X026100Y001600D03*
X029100Y001600D03*
X030100Y001600D03*
X031100Y001600D03*
X031100Y002600D03*
X030100Y002600D03*
X029100Y002600D03*
X032100Y002600D03*
X032100Y001600D03*
X004100Y001600D03*
X003100Y001600D03*
D12*
X035600Y021600D03*
X035600Y022600D03*
X035600Y023600D03*
X035600Y024600D03*
X035600Y025600D03*
X035600Y026600D03*
X035600Y027600D03*
X038550Y027600D03*
X038650Y026600D03*
X038550Y025600D03*
X038650Y024600D03*
X038550Y023600D03*
X038650Y022600D03*
X038550Y021600D03*
D13*
X038151Y014600D03*
X037049Y014600D03*
X035651Y014600D03*
X034549Y014600D03*
X039549Y014600D03*
X040651Y014600D03*
X015151Y028600D03*
X014049Y028600D03*
D14*
X035600Y004100D03*
X035600Y003100D03*
X035600Y002100D03*
D15*
X038600Y007600D03*
X039600Y007600D03*
X039600Y008600D03*
X038600Y008600D03*
X038600Y009600D03*
X039600Y009600D03*
X039600Y010600D03*
X038600Y010600D03*
X038600Y011600D03*
X039600Y011600D03*
D16*
X039100Y002100D03*
D17*
X039100Y003478D03*
D18*
X040317Y016706D03*
X040317Y017494D03*
X037817Y017494D03*
X037817Y016706D03*
X035317Y016706D03*
X035317Y017494D03*
D19*
X026730Y004600D03*
X025470Y004600D03*
X020730Y004600D03*
X019470Y004600D03*
D20*
X019470Y003730D01*
X019600Y003600D01*
X023100Y003600D01*
X023100Y002600D01*
X024100Y002600D01*
X024100Y002600D01*
X024100Y003037D01*
X024381Y003037D01*
X024427Y003025D01*
X024468Y003002D01*
X024502Y002968D01*
X024525Y002927D01*
X024537Y002881D01*
X024537Y002600D01*
X024100Y002600D01*
X024100Y002600D01*
X024100Y003037D01*
X023819Y003037D01*
X023773Y003025D01*
X023732Y003002D01*
X023698Y002968D01*
X023675Y002927D01*
X023663Y002881D01*
X023663Y002600D01*
X023663Y002319D01*
X023537Y002319D01*
X023537Y002600D01*
X023537Y002881D01*
X023525Y002927D01*
X023502Y002968D01*
X023468Y003002D01*
X023427Y003025D01*
X023381Y003037D01*
X023100Y003037D01*
X023100Y002600D01*
X023100Y001600D01*
X023100Y001600D01*
X023100Y002037D01*
X022819Y002037D01*
X022773Y002025D01*
X022732Y002002D01*
X022698Y001968D01*
X022675Y001927D01*
X022663Y001881D01*
X022663Y001600D01*
X022663Y001319D01*
X022675Y001273D01*
X022698Y001232D01*
X022732Y001198D01*
X022773Y001175D01*
X022819Y001163D01*
X023100Y001163D01*
X023381Y001163D01*
X023427Y001175D01*
X023468Y001198D01*
X023502Y001232D01*
X023525Y001273D01*
X023537Y001319D01*
X023537Y001600D01*
X023537Y001881D01*
X023525Y001927D01*
X023502Y001968D01*
X023468Y002002D01*
X023427Y002025D01*
X023381Y002037D01*
X023100Y002037D01*
X023100Y001600D01*
X023537Y001600D01*
X023100Y001600D01*
X023100Y001600D01*
X023100Y001163D01*
X023100Y001600D01*
X023100Y001600D01*
X023100Y001600D01*
X022663Y001600D01*
X023100Y001600D01*
X023100Y001527D02*
X023100Y001527D01*
X023100Y001685D02*
X023100Y001685D01*
X023100Y001844D02*
X023100Y001844D01*
X023100Y002002D02*
X023100Y002002D01*
X023100Y002163D02*
X023381Y002163D01*
X023427Y002175D01*
X023468Y002198D01*
X023502Y002232D01*
X023525Y002273D01*
X023537Y002319D01*
X023663Y002319D02*
X023675Y002273D01*
X023698Y002232D01*
X023732Y002198D01*
X023773Y002175D01*
X023819Y002163D01*
X024100Y002163D01*
X024381Y002163D01*
X024427Y002175D01*
X024468Y002198D01*
X024502Y002232D01*
X024525Y002273D01*
X024537Y002319D01*
X024683Y002319D01*
X024683Y002276D02*
X024776Y002183D01*
X025424Y002183D01*
X025517Y002276D01*
X025517Y002924D01*
X025424Y003017D01*
X024776Y003017D01*
X024683Y002924D01*
X024683Y002276D01*
X024537Y002319D02*
X024537Y002600D01*
X024100Y002600D01*
X024100Y002163D01*
X024100Y002600D01*
X024100Y002600D01*
X024100Y002600D01*
X023663Y002600D01*
X024100Y002600D01*
X024100Y002636D02*
X024100Y002636D01*
X024100Y002478D02*
X024100Y002478D01*
X024100Y002319D02*
X024100Y002319D01*
X023776Y002017D02*
X023683Y001924D01*
X023683Y001276D01*
X023776Y001183D01*
X024424Y001183D01*
X024517Y001276D01*
X024517Y001924D01*
X024424Y002017D01*
X023776Y002017D01*
X023761Y002002D02*
X023467Y002002D01*
X023537Y001844D02*
X023683Y001844D01*
X023683Y001685D02*
X023537Y001685D01*
X023537Y001527D02*
X023683Y001527D01*
X023683Y001368D02*
X023537Y001368D01*
X023479Y001210D02*
X023749Y001210D01*
X023100Y001210D02*
X023100Y001210D01*
X023100Y001368D02*
X023100Y001368D01*
X022721Y001210D02*
X022451Y001210D01*
X022424Y001183D02*
X022517Y001276D01*
X022517Y001924D01*
X022424Y002017D01*
X021776Y002017D01*
X021683Y001924D01*
X021683Y001276D01*
X021776Y001183D01*
X022424Y001183D01*
X022517Y001368D02*
X022663Y001368D01*
X022663Y001527D02*
X022517Y001527D01*
X022517Y001685D02*
X022663Y001685D01*
X022663Y001844D02*
X022517Y001844D01*
X022439Y002002D02*
X022733Y002002D01*
X022773Y002175D02*
X022819Y002163D01*
X023100Y002163D01*
X023100Y002600D01*
X023100Y002600D01*
X023537Y002600D01*
X023100Y002600D01*
X023100Y002600D01*
X023100Y003037D01*
X022819Y003037D01*
X022773Y003025D01*
X022732Y003002D01*
X022698Y002968D01*
X022675Y002927D01*
X022663Y002881D01*
X022663Y002600D01*
X022663Y002319D01*
X022517Y002319D01*
X022517Y002276D02*
X022517Y002924D01*
X022424Y003017D01*
X021776Y003017D01*
X021683Y002924D01*
X021683Y002276D01*
X021776Y002183D01*
X022424Y002183D01*
X022517Y002276D01*
X022663Y002319D02*
X022675Y002273D01*
X022698Y002232D01*
X022732Y002198D01*
X022773Y002175D01*
X022663Y002478D02*
X022517Y002478D01*
X022517Y002636D02*
X022663Y002636D01*
X022663Y002600D02*
X023100Y002600D01*
X023100Y002600D01*
X023100Y002600D01*
X023100Y002163D01*
X023100Y002319D02*
X023100Y002319D01*
X023100Y002478D02*
X023100Y002478D01*
X023100Y002600D02*
X022663Y002600D01*
X022663Y002795D02*
X022517Y002795D01*
X022488Y002953D02*
X022690Y002953D01*
X023100Y002953D02*
X023100Y002953D01*
X023100Y002795D02*
X023100Y002795D01*
X023100Y002636D02*
X023100Y002636D01*
X023537Y002636D02*
X023663Y002636D01*
X023663Y002478D02*
X023537Y002478D01*
X023537Y002795D02*
X023663Y002795D01*
X023690Y002953D02*
X023510Y002953D01*
X024100Y002953D02*
X024100Y002953D01*
X024100Y002795D02*
X024100Y002795D01*
X024537Y002795D02*
X024683Y002795D01*
X024683Y002636D02*
X024537Y002636D01*
X024537Y002478D02*
X024683Y002478D01*
X024776Y002017D02*
X024683Y001924D01*
X024683Y001276D01*
X024776Y001183D01*
X025424Y001183D01*
X025517Y001276D01*
X025517Y001924D01*
X025424Y002017D01*
X024776Y002017D01*
X024761Y002002D02*
X024439Y002002D01*
X024517Y001844D02*
X024683Y001844D01*
X024683Y001685D02*
X024517Y001685D01*
X024517Y001527D02*
X024683Y001527D01*
X024683Y001368D02*
X024517Y001368D01*
X024451Y001210D02*
X024749Y001210D01*
X025451Y001210D02*
X025749Y001210D01*
X025776Y001183D02*
X026424Y001183D01*
X026517Y001276D01*
X026517Y001924D01*
X026424Y002017D01*
X025776Y002017D01*
X025683Y001924D01*
X025683Y001276D01*
X025776Y001183D01*
X025683Y001368D02*
X025517Y001368D01*
X025517Y001527D02*
X025683Y001527D01*
X025683Y001685D02*
X025517Y001685D01*
X025517Y001844D02*
X025683Y001844D01*
X025761Y002002D02*
X025439Y002002D01*
X025517Y002319D02*
X025683Y002319D01*
X025683Y002276D02*
X025776Y002183D01*
X026424Y002183D01*
X026517Y002276D01*
X026517Y002924D01*
X026424Y003017D01*
X025776Y003017D01*
X025683Y002924D01*
X025683Y002276D01*
X025683Y002478D02*
X025517Y002478D01*
X025517Y002636D02*
X025683Y002636D01*
X025683Y002795D02*
X025517Y002795D01*
X025488Y002953D02*
X025712Y002953D01*
X026488Y002953D02*
X026712Y002953D01*
X026683Y002924D02*
X026683Y002276D01*
X026776Y002183D01*
X027424Y002183D01*
X027517Y002276D01*
X027517Y002924D01*
X027424Y003017D01*
X027340Y003017D01*
X027340Y004278D01*
X027303Y004366D01*
X027126Y004543D01*
X027126Y004787D01*
X027199Y004860D01*
X027306Y004860D01*
X027386Y004780D01*
X027525Y004722D01*
X027675Y004722D01*
X027814Y004780D01*
X027920Y004886D01*
X027978Y005025D01*
X027978Y005175D01*
X027920Y005314D01*
X027814Y005420D01*
X027675Y005478D01*
X027525Y005478D01*
X027386Y005420D01*
X027306Y005340D01*
X027052Y005340D01*
X026964Y005303D01*
X026897Y005236D01*
X026814Y005154D01*
X026427Y005154D01*
X026334Y005060D01*
X026334Y004140D01*
X026427Y004046D01*
X026860Y004046D01*
X026860Y003017D01*
X026776Y003017D01*
X026683Y002924D01*
X026683Y002795D02*
X026517Y002795D01*
X026517Y002636D02*
X026683Y002636D01*
X026683Y002478D02*
X026517Y002478D01*
X026517Y002319D02*
X026683Y002319D01*
X026776Y002017D02*
X026683Y001924D01*
X026683Y001276D01*
X026776Y001183D01*
X027424Y001183D01*
X027517Y001276D01*
X027517Y001924D01*
X027424Y002017D01*
X026776Y002017D01*
X026761Y002002D02*
X026439Y002002D01*
X026517Y001844D02*
X026683Y001844D01*
X026683Y001685D02*
X026517Y001685D01*
X026517Y001527D02*
X026683Y001527D01*
X026683Y001368D02*
X026517Y001368D01*
X026451Y001210D02*
X026749Y001210D01*
X027451Y001210D02*
X027749Y001210D01*
X027776Y001183D02*
X027683Y001276D01*
X027683Y001924D01*
X027776Y002017D01*
X028424Y002017D01*
X028517Y001924D01*
X028517Y001276D01*
X028424Y001183D01*
X028357Y001183D01*
X028699Y000840D01*
X034001Y000840D01*
X035149Y001988D01*
X035140Y002008D01*
X035140Y002191D01*
X035210Y002361D01*
X035339Y002490D01*
X035508Y002560D01*
X035691Y002560D01*
X035861Y002490D01*
X035990Y002361D01*
X036060Y002191D01*
X036060Y002008D01*
X035990Y001839D01*
X035861Y001710D01*
X035691Y001640D01*
X035508Y001640D01*
X035488Y001649D01*
X034439Y000600D01*
X042100Y000600D01*
X042100Y030990D01*
X000600Y030990D01*
X000600Y000600D01*
X028261Y000600D01*
X027897Y000964D01*
X027860Y001052D01*
X027860Y001183D01*
X027776Y001183D01*
X027861Y001051D02*
X000600Y001051D01*
X000600Y000893D02*
X027968Y000893D01*
X028127Y000734D02*
X000600Y000734D01*
X000600Y001210D02*
X002749Y001210D01*
X002776Y001183D02*
X003424Y001183D01*
X003517Y001276D01*
X003517Y001924D01*
X003424Y002017D01*
X002776Y002017D01*
X002683Y001924D01*
X002683Y001276D01*
X002776Y001183D01*
X002683Y001368D02*
X000600Y001368D01*
X000600Y001527D02*
X002683Y001527D01*
X002683Y001685D02*
X000600Y001685D01*
X000600Y001844D02*
X002683Y001844D01*
X002761Y002002D02*
X000600Y002002D01*
X000600Y002161D02*
X035140Y002161D01*
X035143Y002002D02*
X032439Y002002D01*
X032424Y002017D02*
X032517Y001924D01*
X032517Y001276D01*
X032424Y001183D01*
X031776Y001183D01*
X031683Y001276D01*
X031683Y001924D01*
X031776Y002017D01*
X032424Y002017D01*
X032424Y002183D02*
X032517Y002276D01*
X032517Y002924D01*
X032424Y003017D01*
X031776Y003017D01*
X031683Y002924D01*
X031683Y002276D01*
X031776Y002183D01*
X032424Y002183D01*
X032517Y002319D02*
X035193Y002319D01*
X035327Y002478D02*
X032517Y002478D01*
X032517Y002636D02*
X038225Y002636D01*
X038383Y002478D02*
X035873Y002478D01*
X036007Y002319D02*
X038540Y002319D01*
X038540Y002321D02*
X038540Y001634D01*
X038634Y001540D01*
X039566Y001540D01*
X039660Y001634D01*
X039660Y002321D01*
X041736Y004397D01*
X041803Y004464D01*
X041840Y004552D01*
X041840Y012148D01*
X041803Y012236D01*
X041236Y012803D01*
X041148Y012840D01*
X039552Y012840D01*
X039464Y012803D01*
X038791Y012130D01*
X038380Y012130D01*
X038090Y011840D01*
X037052Y011840D01*
X036964Y011803D01*
X036501Y011340D01*
X034699Y011340D01*
X033340Y012699D01*
X033340Y017001D01*
X035736Y019397D01*
X035803Y019464D01*
X035840Y019552D01*
X035840Y021126D01*
X035900Y021151D01*
X036049Y021300D01*
X036074Y021360D01*
X038076Y021360D01*
X038101Y021300D01*
X038250Y021151D01*
X038445Y021070D01*
X038655Y021070D01*
X038850Y021151D01*
X038999Y021300D01*
X039080Y021495D01*
X039080Y021705D01*
X038999Y021900D01*
X038850Y022049D01*
X038800Y022070D01*
X038861Y022090D01*
X038938Y022130D01*
X039008Y022180D01*
X039070Y022242D01*
X039120Y022312D01*
X039160Y022389D01*
X039186Y022471D01*
X039200Y022557D01*
X039200Y022580D01*
X038670Y022580D01*
X038670Y022620D01*
X039200Y022620D01*
X039200Y022643D01*
X039186Y022729D01*
X039160Y022811D01*
X039120Y022888D01*
X039070Y022958D01*
X039008Y023020D01*
X038938Y023070D01*
X038861Y023110D01*
X038800Y023130D01*
X038850Y023151D01*
X038999Y023300D01*
X039080Y023495D01*
X039080Y023705D01*
X038999Y023900D01*
X038850Y024049D01*
X038778Y024079D01*
X038950Y024151D01*
X039099Y024300D01*
X039180Y024495D01*
X039180Y024705D01*
X039099Y024900D01*
X038950Y025049D01*
X038778Y025121D01*
X038850Y025151D01*
X038999Y025300D01*
X039080Y025495D01*
X039080Y025705D01*
X038999Y025900D01*
X038850Y026049D01*
X038778Y026079D01*
X038950Y026151D01*
X039099Y026300D01*
X039180Y026495D01*
X039180Y026705D01*
X039099Y026900D01*
X038950Y027049D01*
X038778Y027121D01*
X038850Y027151D01*
X038999Y027300D01*
X039080Y027495D01*
X039080Y027705D01*
X038999Y027900D01*
X038850Y028049D01*
X038655Y028130D01*
X038445Y028130D01*
X038250Y028049D01*
X038101Y027900D01*
X038076Y027840D01*
X038052Y027840D01*
X037964Y027803D01*
X037897Y027736D01*
X036053Y025892D01*
X036049Y025900D01*
X035900Y026049D01*
X035778Y026100D01*
X035900Y026151D01*
X036049Y026300D01*
X036130Y026495D01*
X036130Y026705D01*
X036049Y026900D01*
X035900Y027049D01*
X035778Y027100D01*
X035900Y027151D01*
X036049Y027300D01*
X036130Y027495D01*
X036130Y027705D01*
X036049Y027900D01*
X035900Y028049D01*
X035705Y028130D01*
X035495Y028130D01*
X035300Y028049D01*
X035151Y027900D01*
X035070Y027705D01*
X035070Y027495D01*
X035151Y027300D01*
X035300Y027151D01*
X035422Y027100D01*
X035300Y027049D01*
X035151Y026900D01*
X035070Y026705D01*
X035070Y026495D01*
X035151Y026300D01*
X035300Y026151D01*
X035422Y026100D01*
X035300Y026049D01*
X035151Y025900D01*
X035070Y025705D01*
X035070Y025495D01*
X035151Y025300D01*
X035300Y025151D01*
X035422Y025100D01*
X035300Y025049D01*
X035151Y024900D01*
X035070Y024705D01*
X035070Y024495D01*
X035151Y024300D01*
X035300Y024151D01*
X035422Y024100D01*
X035300Y024049D01*
X035151Y023900D01*
X035070Y023705D01*
X035070Y023495D01*
X035151Y023300D01*
X035300Y023151D01*
X035394Y023111D01*
X035389Y023110D01*
X035312Y023070D01*
X035242Y023020D01*
X035180Y022958D01*
X035130Y022888D01*
X035090Y022811D01*
X035064Y022729D01*
X035050Y022643D01*
X035050Y022620D01*
X035580Y022620D01*
X035580Y022580D01*
X035050Y022580D01*
X035050Y022557D01*
X035064Y022471D01*
X035090Y022389D01*
X035130Y022312D01*
X035180Y022242D01*
X035242Y022180D01*
X035312Y022130D01*
X035389Y022090D01*
X035394Y022089D01*
X035300Y022049D01*
X035151Y021900D01*
X035070Y021705D01*
X035070Y021495D01*
X035151Y021300D01*
X035300Y021151D01*
X035360Y021126D01*
X035360Y019699D01*
X032897Y017236D01*
X032860Y017148D01*
X032860Y012552D01*
X032897Y012464D01*
X034464Y010897D01*
X034552Y010860D01*
X036648Y010860D01*
X036736Y010897D01*
X036803Y010964D01*
X037199Y011360D01*
X038090Y011360D01*
X038350Y011100D01*
X038090Y010840D01*
X034199Y010840D01*
X027840Y017199D01*
X027840Y021501D01*
X029236Y022897D01*
X029303Y022964D01*
X029340Y023052D01*
X029340Y025683D01*
X029424Y025683D01*
X029517Y025776D01*
X029517Y026424D01*
X029424Y026517D01*
X028776Y026517D01*
X028683Y026424D01*
X028683Y025776D01*
X028776Y025683D01*
X028860Y025683D01*
X028860Y023199D01*
X027397Y021736D01*
X027360Y021648D01*
X027360Y017052D01*
X027397Y016964D01*
X027464Y016897D01*
X033964Y010397D01*
X034052Y010360D01*
X038090Y010360D01*
X038110Y010340D01*
X033699Y010340D01*
X027340Y016699D01*
X027340Y025683D01*
X027424Y025683D01*
X027517Y025776D01*
X027517Y026424D01*
X027424Y026517D01*
X026776Y026517D01*
X026683Y026424D01*
X026683Y025776D01*
X026776Y025683D01*
X026860Y025683D01*
X026860Y016552D01*
X026897Y016464D01*
X026964Y016397D01*
X033464Y009897D01*
X033552Y009860D01*
X038001Y009860D01*
X038070Y009791D01*
X038070Y009380D01*
X038350Y009100D01*
X038090Y008840D01*
X034199Y008840D01*
X023803Y019236D01*
X023736Y019303D01*
X023648Y019340D01*
X019199Y019340D01*
X015340Y023199D01*
X015340Y025683D01*
X015424Y025683D01*
X015517Y025776D01*
X015517Y026424D01*
X015424Y026517D01*
X014776Y026517D01*
X014683Y026424D01*
X014683Y025776D01*
X014776Y025683D01*
X014860Y025683D01*
X014860Y023052D01*
X014897Y022964D01*
X014964Y022897D01*
X018964Y018897D01*
X019052Y018860D01*
X023501Y018860D01*
X033897Y008464D01*
X033964Y008397D01*
X034052Y008360D01*
X038090Y008360D01*
X038336Y008114D01*
X038050Y007828D01*
X038050Y007620D01*
X038580Y007620D01*
X038580Y007580D01*
X038620Y007580D01*
X038620Y007620D01*
X039580Y007620D01*
X039580Y008150D01*
X039580Y008580D01*
X039620Y008580D01*
X039620Y008620D01*
X040150Y008620D01*
X040150Y008828D01*
X039878Y009100D01*
X040150Y009372D01*
X040150Y009580D01*
X039620Y009580D01*
X039620Y009620D01*
X040150Y009620D01*
X040150Y009828D01*
X039878Y010100D01*
X040150Y010372D01*
X040150Y010580D01*
X039620Y010580D01*
X039620Y010620D01*
X040150Y010620D01*
X040150Y010828D01*
X039864Y011114D01*
X040130Y011380D01*
X040130Y011820D01*
X039820Y012130D01*
X039469Y012130D01*
X039699Y012360D01*
X041001Y012360D01*
X041360Y012001D01*
X041360Y004699D01*
X039321Y002660D01*
X038879Y002660D01*
X038236Y003303D01*
X038148Y003340D01*
X035998Y003340D01*
X035990Y003361D01*
X035861Y003490D01*
X035691Y003560D01*
X035508Y003560D01*
X035339Y003490D01*
X035210Y003361D01*
X035140Y003191D01*
X035140Y003008D01*
X035210Y002839D01*
X035339Y002710D01*
X035508Y002640D01*
X035691Y002640D01*
X035861Y002710D01*
X035990Y002839D01*
X035998Y002860D01*
X038001Y002860D01*
X038540Y002321D01*
X038540Y002161D02*
X036060Y002161D01*
X036057Y002002D02*
X038540Y002002D01*
X038540Y001844D02*
X035992Y001844D01*
X035800Y001685D02*
X038540Y001685D01*
X039100Y002100D02*
X041600Y004600D01*
X041600Y012100D01*
X041100Y012600D01*
X039600Y012600D01*
X038600Y011600D01*
X037100Y011600D01*
X036600Y011100D01*
X034600Y011100D01*
X033100Y012600D01*
X033100Y017100D01*
X035600Y019600D01*
X035600Y021600D01*
X038550Y021600D01*
X038926Y021973D02*
X042100Y021973D01*
X042100Y021815D02*
X039035Y021815D01*
X039080Y021656D02*
X042100Y021656D01*
X042100Y021498D02*
X039080Y021498D01*
X039016Y021339D02*
X042100Y021339D01*
X042100Y021181D02*
X038880Y021181D01*
X038220Y021181D02*
X035930Y021181D01*
X035840Y021022D02*
X042100Y021022D01*
X042100Y020864D02*
X035840Y020864D01*
X035840Y020705D02*
X042100Y020705D01*
X042100Y020547D02*
X035840Y020547D01*
X035840Y020388D02*
X042100Y020388D01*
X042100Y020230D02*
X035840Y020230D01*
X035840Y020071D02*
X042100Y020071D01*
X042100Y019913D02*
X035840Y019913D01*
X035840Y019754D02*
X042100Y019754D01*
X042100Y019596D02*
X035840Y019596D01*
X035776Y019437D02*
X042100Y019437D01*
X042100Y019279D02*
X035618Y019279D01*
X035736Y019397D02*
X035736Y019397D01*
X035459Y019120D02*
X042100Y019120D01*
X042100Y018962D02*
X035301Y018962D01*
X035142Y018803D02*
X042100Y018803D01*
X042100Y018645D02*
X034984Y018645D01*
X034825Y018486D02*
X042100Y018486D01*
X042100Y018328D02*
X034667Y018328D01*
X034508Y018169D02*
X042100Y018169D01*
X042100Y018011D02*
X034350Y018011D01*
X034191Y017852D02*
X034968Y017852D01*
X034991Y017875D02*
X034935Y017819D01*
X034889Y017756D01*
X034853Y017686D01*
X034829Y017611D01*
X034817Y017533D01*
X034817Y017494D01*
X035317Y017494D01*
X035817Y017494D01*
X035817Y017533D01*
X035804Y017611D01*
X035780Y017686D01*
X035744Y017756D01*
X035698Y017819D01*
X035642Y017875D01*
X035579Y017921D01*
X035508Y017957D01*
X035434Y017981D01*
X035356Y017994D01*
X035317Y017994D01*
X035317Y017494D01*
X035317Y017494D01*
X035317Y017494D01*
X035817Y017494D01*
X035817Y017454D01*
X035804Y017377D01*
X035780Y017302D01*
X035744Y017232D01*
X035698Y017168D01*
X035642Y017112D01*
X035612Y017090D01*
X035723Y016978D01*
X035797Y016802D01*
X035797Y016611D01*
X035783Y016579D01*
X035787Y016575D01*
X035855Y016508D01*
X035891Y016419D01*
X035891Y015154D01*
X036032Y015154D01*
X036126Y015060D01*
X036126Y014140D01*
X036032Y014046D01*
X035270Y014046D01*
X035176Y014140D01*
X035176Y015060D01*
X035270Y015154D01*
X035411Y015154D01*
X035411Y016226D01*
X035221Y016226D01*
X035045Y016299D01*
X034910Y016434D01*
X034837Y016611D01*
X034837Y016802D01*
X034910Y016978D01*
X035021Y017090D01*
X034991Y017112D01*
X034935Y017168D01*
X034889Y017232D01*
X034853Y017302D01*
X034829Y017377D01*
X034817Y017454D01*
X034817Y017494D01*
X035317Y017494D01*
X035317Y017994D01*
X035277Y017994D01*
X035199Y017981D01*
X035125Y017957D01*
X035054Y017921D01*
X034991Y017875D01*
X034857Y017694D02*
X034033Y017694D01*
X033874Y017535D02*
X034817Y017535D01*
X034829Y017377D02*
X033716Y017377D01*
X033557Y017218D02*
X034899Y017218D01*
X034991Y017060D02*
X033399Y017060D01*
X033340Y016901D02*
X034878Y016901D01*
X034837Y016743D02*
X033340Y016743D01*
X033340Y016584D02*
X034848Y016584D01*
X034918Y016426D02*
X033340Y016426D01*
X033340Y016267D02*
X035123Y016267D01*
X035411Y016109D02*
X033340Y016109D01*
X033340Y015950D02*
X035411Y015950D01*
X035411Y015792D02*
X033340Y015792D01*
X033340Y015633D02*
X035411Y015633D01*
X035411Y015475D02*
X033340Y015475D01*
X033340Y015316D02*
X035411Y015316D01*
X035411Y015158D02*
X033340Y015158D01*
X033340Y014999D02*
X034074Y014999D01*
X034074Y015060D02*
X034168Y015154D01*
X034930Y015154D01*
X035024Y015060D01*
X035024Y014140D01*
X034930Y014046D01*
X034789Y014046D01*
X034789Y012431D01*
X034814Y012420D01*
X034920Y012314D01*
X034978Y012175D01*
X034978Y012025D01*
X034920Y011886D01*
X034814Y011780D01*
X034675Y011722D01*
X034525Y011722D01*
X034386Y011780D01*
X034280Y011886D01*
X034222Y012025D01*
X034222Y012175D01*
X034280Y012314D01*
X034309Y012343D01*
X034309Y014046D01*
X034168Y014046D01*
X034074Y014140D01*
X034074Y015060D01*
X034074Y014841D02*
X033340Y014841D01*
X033340Y014682D02*
X034074Y014682D01*
X034074Y014524D02*
X033340Y014524D01*
X033340Y014365D02*
X034074Y014365D01*
X034074Y014207D02*
X033340Y014207D01*
X033340Y014048D02*
X034166Y014048D01*
X034309Y013890D02*
X033340Y013890D01*
X033340Y013731D02*
X034309Y013731D01*
X034309Y013573D02*
X033340Y013573D01*
X033340Y013414D02*
X034309Y013414D01*
X034309Y013256D02*
X033340Y013256D01*
X033340Y013097D02*
X034309Y013097D01*
X034309Y012939D02*
X033340Y012939D01*
X033340Y012780D02*
X034309Y012780D01*
X034309Y012622D02*
X033418Y012622D01*
X033576Y012463D02*
X034309Y012463D01*
X034276Y012305D02*
X033735Y012305D01*
X033893Y012146D02*
X034222Y012146D01*
X034238Y011988D02*
X034052Y011988D01*
X034210Y011829D02*
X034337Y011829D01*
X034369Y011671D02*
X036831Y011671D01*
X036673Y011512D02*
X034527Y011512D01*
X034686Y011354D02*
X036514Y011354D01*
X036876Y011037D02*
X038287Y011037D01*
X038255Y011195D02*
X037034Y011195D01*
X037193Y011354D02*
X038097Y011354D01*
X038128Y010878D02*
X036691Y010878D01*
X037026Y011829D02*
X034863Y011829D01*
X034962Y011988D02*
X038238Y011988D01*
X038807Y012146D02*
X034978Y012146D01*
X034924Y012305D02*
X035861Y012305D01*
X035886Y012280D02*
X035780Y012386D01*
X035722Y012525D01*
X035722Y012675D01*
X035780Y012814D01*
X035886Y012920D01*
X036025Y012978D01*
X036138Y012978D01*
X036809Y013648D01*
X036809Y014046D01*
X036668Y014046D01*
X036574Y014140D01*
X036574Y015060D01*
X036668Y015154D01*
X037430Y015154D01*
X037524Y015060D01*
X037524Y014140D01*
X037430Y014046D01*
X037289Y014046D01*
X037289Y013501D01*
X037252Y013413D01*
X037185Y013345D01*
X036478Y012638D01*
X036478Y012525D01*
X036420Y012386D01*
X036314Y012280D01*
X036175Y012222D01*
X036025Y012222D01*
X035886Y012280D01*
X035748Y012463D02*
X034789Y012463D01*
X034789Y012622D02*
X035722Y012622D01*
X035766Y012780D02*
X034789Y012780D01*
X034789Y012939D02*
X035930Y012939D01*
X036258Y013097D02*
X034789Y013097D01*
X034789Y013256D02*
X036416Y013256D01*
X036575Y013414D02*
X034789Y013414D01*
X034789Y013573D02*
X036733Y013573D01*
X036809Y013731D02*
X034789Y013731D01*
X034789Y013890D02*
X036809Y013890D01*
X036666Y014048D02*
X036034Y014048D01*
X036126Y014207D02*
X036574Y014207D01*
X036574Y014365D02*
X036126Y014365D01*
X036126Y014524D02*
X036574Y014524D01*
X036574Y014682D02*
X036126Y014682D01*
X036126Y014841D02*
X036574Y014841D01*
X036574Y014999D02*
X036126Y014999D01*
X035891Y015158D02*
X037911Y015158D01*
X037911Y015154D02*
X037770Y015154D01*
X037676Y015060D01*
X037676Y014140D01*
X037770Y014046D01*
X038532Y014046D01*
X038626Y014140D01*
X038626Y015060D01*
X038532Y015154D01*
X038391Y015154D01*
X038391Y016419D01*
X038355Y016508D01*
X038287Y016575D01*
X038283Y016579D01*
X038297Y016611D01*
X038297Y016802D01*
X038223Y016978D01*
X038112Y017090D01*
X038142Y017112D01*
X038198Y017168D01*
X038244Y017232D01*
X038280Y017302D01*
X038304Y017377D01*
X038317Y017454D01*
X038317Y017494D01*
X038317Y017533D01*
X038304Y017611D01*
X038280Y017686D01*
X038244Y017756D01*
X038198Y017819D01*
X038142Y017875D01*
X038079Y017921D01*
X038008Y017957D01*
X037934Y017981D01*
X037856Y017994D01*
X037817Y017994D01*
X037817Y017494D01*
X038317Y017494D01*
X037817Y017494D01*
X037817Y017494D01*
X037817Y017494D01*
X037817Y017994D01*
X037777Y017994D01*
X037699Y017981D01*
X037625Y017957D01*
X037554Y017921D01*
X037491Y017875D01*
X037435Y017819D01*
X037389Y017756D01*
X037353Y017686D01*
X037329Y017611D01*
X037317Y017533D01*
X037317Y017494D01*
X037817Y017494D01*
X040317Y017494D01*
X040817Y017494D01*
X040817Y017533D01*
X040804Y017611D01*
X040780Y017686D01*
X040744Y017756D01*
X040698Y017819D01*
X040642Y017875D01*
X040579Y017921D01*
X040508Y017957D01*
X040434Y017981D01*
X040356Y017994D01*
X040317Y017994D01*
X040317Y017494D01*
X040317Y017494D01*
X040317Y017494D01*
X040817Y017494D01*
X040817Y017454D01*
X040804Y017377D01*
X040780Y017302D01*
X040744Y017232D01*
X040698Y017168D01*
X040642Y017112D01*
X040612Y017090D01*
X040723Y016978D01*
X040797Y016802D01*
X040797Y016743D01*
X040855Y016685D01*
X040891Y016597D01*
X040891Y015154D01*
X041032Y015154D01*
X041126Y015060D01*
X041126Y014140D01*
X041032Y014046D01*
X040270Y014046D01*
X040176Y014140D01*
X040176Y015060D01*
X040270Y015154D01*
X040411Y015154D01*
X040411Y016226D01*
X040221Y016226D01*
X040045Y016299D01*
X039910Y016434D01*
X039837Y016611D01*
X039837Y016802D01*
X039910Y016978D01*
X040021Y017090D01*
X039991Y017112D01*
X039935Y017168D01*
X039889Y017232D01*
X039853Y017302D01*
X039829Y017377D01*
X039817Y017454D01*
X039817Y017494D01*
X040317Y017494D01*
X040317Y017994D01*
X040277Y017994D01*
X040199Y017981D01*
X040125Y017957D01*
X040054Y017921D01*
X039991Y017875D01*
X039935Y017819D01*
X039889Y017756D01*
X039853Y017686D01*
X039829Y017611D01*
X039817Y017533D01*
X039817Y017494D01*
X040317Y017494D01*
X040317Y021383D01*
X039100Y022600D01*
X038650Y022600D01*
X035600Y022600D01*
X035100Y022600D01*
X034100Y023600D01*
X034100Y026600D01*
X032600Y028100D01*
X030100Y028100D01*
X024100Y028100D01*
X023100Y027100D01*
X023100Y027100D01*
X023100Y027537D01*
X022819Y027537D01*
X022773Y027525D01*
X022732Y027502D01*
X022698Y027468D01*
X022675Y027427D01*
X022663Y027381D01*
X022663Y027100D01*
X022663Y026819D01*
X022675Y026773D01*
X022698Y026732D01*
X022732Y026698D01*
X022773Y026675D01*
X022819Y026663D01*
X023100Y026663D01*
X023381Y026663D01*
X023427Y026675D01*
X023468Y026698D01*
X023502Y026732D01*
X023525Y026773D01*
X023537Y026819D01*
X023537Y027100D01*
X023537Y027381D01*
X023525Y027427D01*
X023502Y027468D01*
X023468Y027502D01*
X023427Y027525D01*
X023381Y027537D01*
X023100Y027537D01*
X023100Y027100D01*
X023537Y027100D01*
X023100Y027100D01*
X023100Y027100D01*
X023100Y026663D01*
X023100Y027100D01*
X023100Y027100D01*
X023100Y027100D01*
X022663Y027100D01*
X023100Y027100D01*
X023100Y027045D02*
X023100Y027045D01*
X023100Y026887D02*
X023100Y026887D01*
X023100Y026728D02*
X023100Y026728D01*
X023424Y026517D02*
X022776Y026517D01*
X022683Y026424D01*
X022683Y025776D01*
X022776Y025683D01*
X023424Y025683D01*
X023517Y025776D01*
X023517Y026424D01*
X023424Y026517D01*
X023517Y026411D02*
X023683Y026411D01*
X023683Y026424D02*
X023683Y025776D01*
X023776Y025683D01*
X024424Y025683D01*
X024517Y025776D01*
X024517Y026424D01*
X024424Y026517D01*
X023776Y026517D01*
X023683Y026424D01*
X023683Y026253D02*
X023517Y026253D01*
X023517Y026094D02*
X023683Y026094D01*
X023683Y025936D02*
X023517Y025936D01*
X023517Y025777D02*
X023683Y025777D01*
X024517Y025777D02*
X024683Y025777D01*
X024683Y025776D02*
X024776Y025683D01*
X025424Y025683D01*
X025517Y025776D01*
X025517Y026424D01*
X025424Y026517D01*
X024776Y026517D01*
X024683Y026424D01*
X024683Y025776D01*
X024683Y025936D02*
X024517Y025936D01*
X024517Y026094D02*
X024683Y026094D01*
X024683Y026253D02*
X024517Y026253D01*
X024517Y026411D02*
X024683Y026411D01*
X024776Y026683D02*
X024683Y026776D01*
X024683Y027424D01*
X024776Y027517D01*
X025424Y027517D01*
X025517Y027424D01*
X025517Y026776D01*
X025424Y026683D01*
X024776Y026683D01*
X024731Y026728D02*
X024469Y026728D01*
X024424Y026683D02*
X024517Y026776D01*
X024517Y027424D01*
X024424Y027517D01*
X023776Y027517D01*
X023683Y027424D01*
X023683Y026776D01*
X023776Y026683D01*
X024424Y026683D01*
X024517Y026887D02*
X024683Y026887D01*
X024683Y027045D02*
X024517Y027045D01*
X024517Y027204D02*
X024683Y027204D01*
X024683Y027362D02*
X024517Y027362D01*
X023683Y027362D02*
X023537Y027362D01*
X023537Y027204D02*
X023683Y027204D01*
X023683Y027045D02*
X023537Y027045D01*
X023537Y026887D02*
X023683Y026887D01*
X023731Y026728D02*
X023498Y026728D01*
X023100Y027204D02*
X023100Y027204D01*
X023100Y027362D02*
X023100Y027362D01*
X023100Y027521D02*
X023100Y027521D01*
X022765Y027521D02*
X015391Y027521D01*
X015391Y027517D02*
X015391Y028046D01*
X015532Y028046D01*
X015626Y028140D01*
X015626Y029060D01*
X015532Y029154D01*
X014770Y029154D01*
X014676Y029060D01*
X014676Y028140D01*
X014770Y028046D01*
X014911Y028046D01*
X014911Y027517D01*
X014776Y027517D01*
X014683Y027424D01*
X014683Y026776D01*
X014776Y026683D01*
X015424Y026683D01*
X015517Y026776D01*
X015517Y027424D01*
X015424Y027517D01*
X015391Y027517D01*
X015391Y027679D02*
X035070Y027679D01*
X035070Y027521D02*
X029435Y027521D01*
X029427Y027525D02*
X029381Y027537D01*
X029100Y027537D01*
X028819Y027537D01*
X028773Y027525D01*
X028732Y027502D01*
X028698Y027468D01*
X028675Y027427D01*
X028663Y027381D01*
X028663Y027100D01*
X028663Y026819D01*
X028675Y026773D01*
X028698Y026732D01*
X028732Y026698D01*
X028773Y026675D01*
X028819Y026663D01*
X029100Y026663D01*
X029381Y026663D01*
X029427Y026675D01*
X029468Y026698D01*
X029502Y026732D01*
X029525Y026773D01*
X029537Y026819D01*
X029537Y027100D01*
X029537Y027381D01*
X029525Y027427D01*
X029502Y027468D01*
X029468Y027502D01*
X029427Y027525D01*
X029537Y027362D02*
X029683Y027362D01*
X029683Y027424D02*
X029683Y026776D01*
X029776Y026683D01*
X030424Y026683D01*
X030517Y026776D01*
X030517Y027424D01*
X030424Y027517D01*
X029776Y027517D01*
X029683Y027424D01*
X029683Y027204D02*
X029537Y027204D01*
X029537Y027100D02*
X029100Y027100D01*
X030100Y028100D01*
X030517Y027362D02*
X030683Y027362D01*
X030683Y027424D02*
X030683Y026776D01*
X030776Y026683D01*
X031424Y026683D01*
X031517Y026776D01*
X031517Y027424D01*
X031424Y027517D01*
X030776Y027517D01*
X030683Y027424D01*
X030683Y027204D02*
X030517Y027204D01*
X030517Y027045D02*
X030683Y027045D01*
X030683Y026887D02*
X030517Y026887D01*
X030469Y026728D02*
X030731Y026728D01*
X030776Y026517D02*
X030683Y026424D01*
X030683Y025776D01*
X030776Y025683D01*
X031424Y025683D01*
X031517Y025776D01*
X031517Y026424D01*
X031424Y026517D01*
X030776Y026517D01*
X030683Y026411D02*
X030517Y026411D01*
X030517Y026424D02*
X030424Y026517D01*
X029776Y026517D01*
X029683Y026424D01*
X029683Y025776D01*
X029776Y025683D01*
X030424Y025683D01*
X030517Y025776D01*
X030517Y026424D01*
X030517Y026253D02*
X030683Y026253D01*
X030683Y026094D02*
X030517Y026094D01*
X030517Y025936D02*
X030683Y025936D01*
X030683Y025777D02*
X030517Y025777D01*
X029683Y025777D02*
X029517Y025777D01*
X029517Y025936D02*
X029683Y025936D01*
X029683Y026094D02*
X029517Y026094D01*
X029517Y026253D02*
X029683Y026253D01*
X029683Y026411D02*
X029517Y026411D01*
X029498Y026728D02*
X029731Y026728D01*
X029683Y026887D02*
X029537Y026887D01*
X029537Y027045D02*
X029683Y027045D01*
X029537Y027100D02*
X029100Y027100D01*
X029100Y027100D01*
X029100Y027537D01*
X029100Y027100D01*
X029100Y027100D01*
X029100Y026663D01*
X029100Y027100D01*
X029100Y027100D01*
X029100Y027100D01*
X028663Y027100D01*
X029100Y027100D01*
X029100Y027045D02*
X029100Y027045D01*
X029100Y026887D02*
X029100Y026887D01*
X029100Y026728D02*
X029100Y026728D01*
X028702Y026728D02*
X028469Y026728D01*
X028424Y026683D02*
X028517Y026776D01*
X028517Y027424D01*
X028424Y027517D01*
X027776Y027517D01*
X027683Y027424D01*
X027683Y026776D01*
X027776Y026683D01*
X028424Y026683D01*
X028424Y026517D02*
X027776Y026517D01*
X027683Y026424D01*
X027683Y025776D01*
X027776Y025683D01*
X028424Y025683D01*
X028517Y025776D01*
X028517Y026424D01*
X028424Y026517D01*
X028517Y026411D02*
X028683Y026411D01*
X028683Y026253D02*
X028517Y026253D01*
X028517Y026094D02*
X028683Y026094D01*
X028683Y025936D02*
X028517Y025936D01*
X028517Y025777D02*
X028683Y025777D01*
X028860Y025619D02*
X027340Y025619D01*
X027340Y025460D02*
X028860Y025460D01*
X028860Y025302D02*
X027340Y025302D01*
X027340Y025143D02*
X028860Y025143D01*
X028860Y024985D02*
X027340Y024985D01*
X027340Y024826D02*
X028860Y024826D01*
X028860Y024668D02*
X027340Y024668D01*
X027340Y024509D02*
X028860Y024509D01*
X028860Y024351D02*
X027340Y024351D01*
X027340Y024192D02*
X028860Y024192D01*
X028860Y024034D02*
X027340Y024034D01*
X027340Y023875D02*
X028860Y023875D01*
X028860Y023717D02*
X027340Y023717D01*
X027340Y023558D02*
X028860Y023558D01*
X028860Y023400D02*
X027340Y023400D01*
X027340Y023241D02*
X028860Y023241D01*
X028743Y023083D02*
X027340Y023083D01*
X027340Y022924D02*
X028585Y022924D01*
X028426Y022766D02*
X027340Y022766D01*
X027340Y022607D02*
X028268Y022607D01*
X028109Y022449D02*
X027340Y022449D01*
X027340Y022290D02*
X027951Y022290D01*
X027792Y022132D02*
X027340Y022132D01*
X027340Y021973D02*
X027634Y021973D01*
X027475Y021815D02*
X027340Y021815D01*
X027340Y021656D02*
X027363Y021656D01*
X027360Y021498D02*
X027340Y021498D01*
X027340Y021339D02*
X027360Y021339D01*
X027360Y021181D02*
X027340Y021181D01*
X027340Y021022D02*
X027360Y021022D01*
X027360Y020864D02*
X027340Y020864D01*
X027340Y020705D02*
X027360Y020705D01*
X027360Y020547D02*
X027340Y020547D01*
X027340Y020388D02*
X027360Y020388D01*
X027360Y020230D02*
X027340Y020230D01*
X027340Y020071D02*
X027360Y020071D01*
X027360Y019913D02*
X027340Y019913D01*
X027340Y019754D02*
X027360Y019754D01*
X027360Y019596D02*
X027340Y019596D01*
X027340Y019437D02*
X027360Y019437D01*
X027360Y019279D02*
X027340Y019279D01*
X027340Y019120D02*
X027360Y019120D01*
X027360Y018962D02*
X027340Y018962D01*
X027340Y018803D02*
X027360Y018803D01*
X027360Y018645D02*
X027340Y018645D01*
X027340Y018486D02*
X027360Y018486D01*
X027360Y018328D02*
X027340Y018328D01*
X027340Y018169D02*
X027360Y018169D01*
X027360Y018011D02*
X027340Y018011D01*
X027340Y017852D02*
X027360Y017852D01*
X027360Y017694D02*
X027340Y017694D01*
X027340Y017535D02*
X027360Y017535D01*
X027360Y017377D02*
X027340Y017377D01*
X027340Y017218D02*
X027360Y017218D01*
X027360Y017060D02*
X027340Y017060D01*
X027340Y016901D02*
X027460Y016901D01*
X027340Y016743D02*
X027618Y016743D01*
X027777Y016584D02*
X027455Y016584D01*
X027614Y016426D02*
X027935Y016426D01*
X028094Y016267D02*
X027772Y016267D01*
X027931Y016109D02*
X028252Y016109D01*
X028411Y015950D02*
X028089Y015950D01*
X028248Y015792D02*
X028569Y015792D01*
X028728Y015633D02*
X028406Y015633D01*
X028565Y015475D02*
X028886Y015475D01*
X029045Y015316D02*
X028723Y015316D01*
X028882Y015158D02*
X029203Y015158D01*
X029362Y014999D02*
X029040Y014999D01*
X029199Y014841D02*
X029520Y014841D01*
X029679Y014682D02*
X029357Y014682D01*
X029516Y014524D02*
X029837Y014524D01*
X029996Y014365D02*
X029674Y014365D01*
X029833Y014207D02*
X030154Y014207D01*
X030313Y014048D02*
X029991Y014048D01*
X030150Y013890D02*
X030471Y013890D01*
X030630Y013731D02*
X030308Y013731D01*
X030467Y013573D02*
X030788Y013573D01*
X030947Y013414D02*
X030625Y013414D01*
X030784Y013256D02*
X031105Y013256D01*
X031264Y013097D02*
X030942Y013097D01*
X031101Y012939D02*
X031422Y012939D01*
X031581Y012780D02*
X031259Y012780D01*
X031418Y012622D02*
X031739Y012622D01*
X031898Y012463D02*
X031576Y012463D01*
X031735Y012305D02*
X032056Y012305D01*
X032215Y012146D02*
X031893Y012146D01*
X032052Y011988D02*
X032373Y011988D01*
X032532Y011829D02*
X032210Y011829D01*
X032369Y011671D02*
X032690Y011671D01*
X032849Y011512D02*
X032527Y011512D01*
X032686Y011354D02*
X033007Y011354D01*
X033166Y011195D02*
X032844Y011195D01*
X033003Y011037D02*
X033324Y011037D01*
X033483Y010878D02*
X033161Y010878D01*
X033320Y010720D02*
X033641Y010720D01*
X033800Y010561D02*
X033478Y010561D01*
X033637Y010403D02*
X033958Y010403D01*
X034100Y010600D02*
X027600Y017100D01*
X027600Y021600D01*
X029100Y023100D01*
X029100Y026100D01*
X029340Y025619D02*
X035070Y025619D01*
X035084Y025460D02*
X029340Y025460D01*
X029340Y025302D02*
X035150Y025302D01*
X035318Y025143D02*
X029340Y025143D01*
X029340Y024985D02*
X035235Y024985D01*
X035120Y024826D02*
X029340Y024826D01*
X029340Y024668D02*
X035070Y024668D01*
X035070Y024509D02*
X029340Y024509D01*
X029340Y024351D02*
X035130Y024351D01*
X035258Y024192D02*
X029340Y024192D01*
X029340Y024034D02*
X035284Y024034D01*
X035140Y023875D02*
X029340Y023875D01*
X029340Y023717D02*
X035075Y023717D01*
X035070Y023558D02*
X029340Y023558D01*
X029340Y023400D02*
X035109Y023400D01*
X035209Y023241D02*
X029340Y023241D01*
X029340Y023083D02*
X035336Y023083D01*
X035156Y022924D02*
X029263Y022924D01*
X029105Y022766D02*
X035075Y022766D01*
X035071Y022449D02*
X028788Y022449D01*
X028946Y022607D02*
X035580Y022607D01*
X035620Y022607D02*
X038630Y022607D01*
X038630Y022620D02*
X038630Y022580D01*
X038100Y022580D01*
X038100Y022557D01*
X038114Y022471D01*
X038140Y022389D01*
X038180Y022312D01*
X038230Y022242D01*
X038292Y022180D01*
X038362Y022130D01*
X038398Y022111D01*
X038250Y022049D01*
X038101Y021900D01*
X038076Y021840D01*
X036074Y021840D01*
X036049Y021900D01*
X035900Y022049D01*
X035806Y022089D01*
X035811Y022090D01*
X035888Y022130D01*
X035958Y022180D01*
X036020Y022242D01*
X036070Y022312D01*
X036110Y022389D01*
X036136Y022471D01*
X036150Y022557D01*
X036150Y022580D01*
X035620Y022580D01*
X035620Y022620D01*
X036150Y022620D01*
X036150Y022643D01*
X036136Y022729D01*
X036110Y022811D01*
X036070Y022888D01*
X036020Y022958D01*
X035958Y023020D01*
X035888Y023070D01*
X035811Y023110D01*
X035806Y023111D01*
X035900Y023151D01*
X036049Y023300D01*
X036130Y023495D01*
X036130Y023705D01*
X036049Y023900D01*
X035900Y024049D01*
X035778Y024100D01*
X035900Y024151D01*
X036049Y024300D01*
X036074Y024360D01*
X036148Y024360D01*
X036236Y024397D01*
X038183Y026343D01*
X038201Y026300D01*
X038350Y026151D01*
X038422Y026121D01*
X038250Y026049D01*
X038101Y025900D01*
X038020Y025705D01*
X038020Y025495D01*
X038101Y025300D01*
X038250Y025151D01*
X038422Y025079D01*
X038350Y025049D01*
X038201Y024900D01*
X038120Y024705D01*
X038120Y024495D01*
X038201Y024300D01*
X038350Y024151D01*
X038422Y024121D01*
X038250Y024049D01*
X038101Y023900D01*
X038020Y023705D01*
X038020Y023495D01*
X038101Y023300D01*
X038250Y023151D01*
X038398Y023089D01*
X038362Y023070D01*
X038292Y023020D01*
X038230Y022958D01*
X038180Y022888D01*
X038140Y022811D01*
X038114Y022729D01*
X038100Y022643D01*
X038100Y022620D01*
X038630Y022620D01*
X038670Y022607D02*
X042100Y022607D01*
X042100Y022449D02*
X039179Y022449D01*
X039105Y022290D02*
X042100Y022290D01*
X042100Y022132D02*
X038941Y022132D01*
X038359Y022132D02*
X035891Y022132D01*
X035976Y021973D02*
X038174Y021973D01*
X038195Y022290D02*
X036055Y022290D01*
X036129Y022449D02*
X038121Y022449D01*
X038125Y022766D02*
X036125Y022766D01*
X036044Y022924D02*
X038206Y022924D01*
X038386Y023083D02*
X035864Y023083D01*
X035991Y023241D02*
X038159Y023241D01*
X038059Y023400D02*
X036091Y023400D01*
X036130Y023558D02*
X038020Y023558D01*
X038025Y023717D02*
X036125Y023717D01*
X036060Y023875D02*
X038090Y023875D01*
X038234Y024034D02*
X035916Y024034D01*
X035942Y024192D02*
X038308Y024192D01*
X038180Y024351D02*
X036070Y024351D01*
X036100Y024600D02*
X035600Y024600D01*
X036100Y024600D02*
X038100Y026600D01*
X038650Y026600D01*
X039145Y026411D02*
X042100Y026411D01*
X042100Y026253D02*
X039052Y026253D01*
X038813Y026094D02*
X042100Y026094D01*
X042100Y025936D02*
X038964Y025936D01*
X039050Y025777D02*
X042100Y025777D01*
X042100Y025619D02*
X039080Y025619D01*
X039066Y025460D02*
X042100Y025460D01*
X042100Y025302D02*
X039000Y025302D01*
X038832Y025143D02*
X042100Y025143D01*
X042100Y024985D02*
X039015Y024985D01*
X039130Y024826D02*
X042100Y024826D01*
X042100Y024668D02*
X039180Y024668D01*
X039180Y024509D02*
X042100Y024509D01*
X042100Y024351D02*
X039120Y024351D01*
X038992Y024192D02*
X042100Y024192D01*
X042100Y024034D02*
X038866Y024034D01*
X039010Y023875D02*
X042100Y023875D01*
X042100Y023717D02*
X039075Y023717D01*
X039080Y023558D02*
X042100Y023558D01*
X042100Y023400D02*
X039041Y023400D01*
X038941Y023241D02*
X042100Y023241D01*
X042100Y023083D02*
X038914Y023083D01*
X039094Y022924D02*
X042100Y022924D01*
X042100Y022766D02*
X039175Y022766D01*
X038084Y021339D02*
X036066Y021339D01*
X035360Y021022D02*
X027840Y021022D01*
X027840Y020864D02*
X035360Y020864D01*
X035360Y020705D02*
X027840Y020705D01*
X027840Y020547D02*
X035360Y020547D01*
X035360Y020388D02*
X027840Y020388D01*
X027840Y020230D02*
X035360Y020230D01*
X035360Y020071D02*
X027840Y020071D01*
X027840Y019913D02*
X035360Y019913D01*
X035360Y019754D02*
X027840Y019754D01*
X027840Y019596D02*
X032750Y019596D01*
X032761Y019607D02*
X032593Y019439D01*
X032502Y019219D01*
X032502Y018981D01*
X032593Y018761D01*
X032761Y018593D01*
X032981Y018502D01*
X033219Y018502D01*
X033439Y018593D01*
X033607Y018761D01*
X033698Y018981D01*
X033698Y019219D01*
X033607Y019439D01*
X033439Y019607D01*
X033219Y019698D01*
X032981Y019698D01*
X032761Y019607D01*
X032592Y019437D02*
X027840Y019437D01*
X027840Y019279D02*
X032527Y019279D01*
X032502Y019120D02*
X027840Y019120D01*
X027840Y018962D02*
X032510Y018962D01*
X032576Y018803D02*
X027840Y018803D01*
X027840Y018645D02*
X032710Y018645D01*
X033490Y018645D02*
X034305Y018645D01*
X034464Y018803D02*
X033624Y018803D01*
X033690Y018962D02*
X034622Y018962D01*
X034781Y019120D02*
X033698Y019120D01*
X033673Y019279D02*
X034939Y019279D01*
X035098Y019437D02*
X033608Y019437D01*
X033450Y019596D02*
X035256Y019596D01*
X034147Y018486D02*
X027840Y018486D01*
X027840Y018328D02*
X033988Y018328D01*
X033830Y018169D02*
X027840Y018169D01*
X027840Y018011D02*
X033671Y018011D01*
X033513Y017852D02*
X027840Y017852D01*
X027840Y017694D02*
X033354Y017694D01*
X033196Y017535D02*
X027840Y017535D01*
X027840Y017377D02*
X033037Y017377D01*
X032889Y017218D02*
X027840Y017218D01*
X027980Y017060D02*
X032860Y017060D01*
X032860Y016901D02*
X028138Y016901D01*
X028297Y016743D02*
X032860Y016743D01*
X032860Y016584D02*
X028455Y016584D01*
X028614Y016426D02*
X032860Y016426D01*
X032860Y016267D02*
X028772Y016267D01*
X028931Y016109D02*
X032860Y016109D01*
X032860Y015950D02*
X029089Y015950D01*
X029248Y015792D02*
X032860Y015792D01*
X032860Y015633D02*
X029406Y015633D01*
X029565Y015475D02*
X032860Y015475D01*
X032860Y015316D02*
X029723Y015316D01*
X029882Y015158D02*
X032860Y015158D01*
X032860Y014999D02*
X030040Y014999D01*
X030199Y014841D02*
X032860Y014841D01*
X032860Y014682D02*
X030357Y014682D01*
X030516Y014524D02*
X032860Y014524D01*
X032860Y014365D02*
X030674Y014365D01*
X030833Y014207D02*
X032860Y014207D01*
X032860Y014048D02*
X030991Y014048D01*
X031150Y013890D02*
X032860Y013890D01*
X032860Y013731D02*
X031308Y013731D01*
X031467Y013573D02*
X032860Y013573D01*
X032860Y013414D02*
X031625Y013414D01*
X031784Y013256D02*
X032860Y013256D01*
X032860Y013097D02*
X031942Y013097D01*
X032101Y012939D02*
X032860Y012939D01*
X032860Y012780D02*
X032259Y012780D01*
X032418Y012622D02*
X032860Y012622D01*
X032898Y012463D02*
X032576Y012463D01*
X032735Y012305D02*
X033056Y012305D01*
X033215Y012146D02*
X032893Y012146D01*
X033052Y011988D02*
X033373Y011988D01*
X033532Y011829D02*
X033210Y011829D01*
X033369Y011671D02*
X033690Y011671D01*
X033849Y011512D02*
X033527Y011512D01*
X033686Y011354D02*
X034007Y011354D01*
X034166Y011195D02*
X033844Y011195D01*
X034003Y011037D02*
X034324Y011037D01*
X034161Y010878D02*
X034509Y010878D01*
X034100Y010600D02*
X038600Y010600D01*
X038100Y010100D02*
X038600Y009600D01*
X038070Y009610D02*
X033429Y009610D01*
X033271Y009769D02*
X038070Y009769D01*
X038070Y009452D02*
X033588Y009452D01*
X033746Y009293D02*
X038157Y009293D01*
X038316Y009135D02*
X033905Y009135D01*
X034063Y008976D02*
X038226Y008976D01*
X038600Y008600D02*
X034100Y008600D01*
X023600Y019100D01*
X019100Y019100D01*
X015100Y023100D01*
X015100Y026100D01*
X015517Y026094D02*
X015683Y026094D01*
X015683Y025936D02*
X015517Y025936D01*
X015517Y025777D02*
X015683Y025777D01*
X015683Y025776D02*
X015776Y025683D01*
X016424Y025683D01*
X016517Y025776D01*
X016517Y026424D01*
X016424Y026517D01*
X015776Y026517D01*
X015683Y026424D01*
X015683Y025776D01*
X015340Y025619D02*
X026860Y025619D01*
X026860Y025460D02*
X015340Y025460D01*
X015340Y025302D02*
X026860Y025302D01*
X026860Y025143D02*
X015340Y025143D01*
X015340Y024985D02*
X026860Y024985D01*
X026860Y024826D02*
X015340Y024826D01*
X015340Y024668D02*
X026860Y024668D01*
X026860Y024509D02*
X015340Y024509D01*
X015340Y024351D02*
X026860Y024351D01*
X026860Y024192D02*
X015340Y024192D01*
X015340Y024034D02*
X026860Y024034D01*
X026860Y023875D02*
X015340Y023875D01*
X015340Y023717D02*
X026860Y023717D01*
X026860Y023558D02*
X015340Y023558D01*
X015340Y023400D02*
X026860Y023400D01*
X026860Y023241D02*
X015340Y023241D01*
X015457Y023083D02*
X026860Y023083D01*
X026860Y022924D02*
X015615Y022924D01*
X015774Y022766D02*
X026860Y022766D01*
X026860Y022607D02*
X015932Y022607D01*
X016091Y022449D02*
X026860Y022449D01*
X026860Y022290D02*
X016249Y022290D01*
X016408Y022132D02*
X026860Y022132D01*
X026860Y021973D02*
X016566Y021973D01*
X016725Y021815D02*
X026860Y021815D01*
X026860Y021656D02*
X016883Y021656D01*
X017042Y021498D02*
X026860Y021498D01*
X026860Y021339D02*
X017200Y021339D01*
X017359Y021181D02*
X026860Y021181D01*
X026860Y021022D02*
X017517Y021022D01*
X017676Y020864D02*
X026860Y020864D01*
X026860Y020705D02*
X017834Y020705D01*
X017993Y020547D02*
X026860Y020547D01*
X026860Y020388D02*
X018151Y020388D01*
X018310Y020230D02*
X026860Y020230D01*
X026860Y020071D02*
X018468Y020071D01*
X018627Y019913D02*
X026860Y019913D01*
X026860Y019754D02*
X018785Y019754D01*
X018944Y019596D02*
X026860Y019596D01*
X026860Y019437D02*
X019102Y019437D01*
X018741Y019120D02*
X000600Y019120D01*
X000600Y018962D02*
X018899Y018962D01*
X018582Y019279D02*
X000600Y019279D01*
X000600Y019437D02*
X018424Y019437D01*
X018265Y019596D02*
X000600Y019596D01*
X000600Y019754D02*
X018107Y019754D01*
X017948Y019913D02*
X000600Y019913D01*
X000600Y020071D02*
X017790Y020071D01*
X017631Y020230D02*
X000600Y020230D01*
X000600Y020388D02*
X017473Y020388D01*
X017314Y020547D02*
X000600Y020547D01*
X000600Y020705D02*
X017156Y020705D01*
X016997Y020864D02*
X000600Y020864D01*
X000600Y021022D02*
X016839Y021022D01*
X016680Y021181D02*
X000600Y021181D01*
X000600Y021339D02*
X016522Y021339D01*
X016363Y021498D02*
X000600Y021498D01*
X000600Y021656D02*
X016205Y021656D01*
X016046Y021815D02*
X000600Y021815D01*
X000600Y021973D02*
X015888Y021973D01*
X015729Y022132D02*
X000600Y022132D01*
X000600Y022290D02*
X015571Y022290D01*
X015412Y022449D02*
X000600Y022449D01*
X000600Y022607D02*
X015254Y022607D01*
X015095Y022766D02*
X000600Y022766D01*
X000600Y022924D02*
X014937Y022924D01*
X014860Y023083D02*
X000600Y023083D01*
X000600Y023241D02*
X014860Y023241D01*
X014860Y023400D02*
X000600Y023400D01*
X000600Y023558D02*
X012845Y023558D01*
X012761Y023593D02*
X012981Y023502D01*
X013219Y023502D01*
X013439Y023593D01*
X013607Y023761D01*
X013698Y023981D01*
X013698Y024219D01*
X013607Y024439D01*
X013439Y024607D01*
X013219Y024698D01*
X012981Y024698D01*
X012761Y024607D01*
X012593Y024439D01*
X012502Y024219D01*
X012502Y023981D01*
X012593Y023761D01*
X012761Y023593D01*
X012638Y023717D02*
X000600Y023717D01*
X000600Y023875D02*
X012546Y023875D01*
X012502Y024034D02*
X000600Y024034D01*
X000600Y024192D02*
X012502Y024192D01*
X012556Y024351D02*
X000600Y024351D01*
X000600Y024509D02*
X012663Y024509D01*
X012907Y024668D02*
X000600Y024668D01*
X000600Y024826D02*
X014860Y024826D01*
X014860Y024668D02*
X013293Y024668D01*
X013537Y024509D02*
X014860Y024509D01*
X014860Y024351D02*
X013644Y024351D01*
X013698Y024192D02*
X014860Y024192D01*
X014860Y024034D02*
X013698Y024034D01*
X013654Y023875D02*
X014860Y023875D01*
X014860Y023717D02*
X013562Y023717D01*
X013355Y023558D02*
X014860Y023558D01*
X014860Y024985D02*
X000600Y024985D01*
X000600Y025143D02*
X014860Y025143D01*
X014860Y025302D02*
X000600Y025302D01*
X000600Y025460D02*
X014860Y025460D01*
X014860Y025619D02*
X000600Y025619D01*
X000600Y025777D02*
X013683Y025777D01*
X013683Y025776D02*
X013776Y025683D01*
X014424Y025683D01*
X014517Y025776D01*
X014517Y026424D01*
X014424Y026517D01*
X013776Y026517D01*
X013683Y026424D01*
X013683Y025776D01*
X013683Y025936D02*
X000600Y025936D01*
X000600Y026094D02*
X013683Y026094D01*
X013683Y026253D02*
X004494Y026253D01*
X004517Y026276D02*
X004424Y026183D01*
X003776Y026183D01*
X003683Y026276D01*
X003683Y026924D01*
X003776Y027017D01*
X004424Y027017D01*
X004517Y026924D01*
X004517Y026276D01*
X004517Y026411D02*
X013683Y026411D01*
X013776Y026683D02*
X014424Y026683D01*
X014517Y026776D01*
X014517Y027424D01*
X014424Y027517D01*
X014289Y027517D01*
X014289Y028046D01*
X014430Y028046D01*
X014524Y028140D01*
X014524Y029060D01*
X014430Y029154D01*
X013668Y029154D01*
X013574Y029060D01*
X013574Y028140D01*
X013668Y028046D01*
X013809Y028046D01*
X013809Y027517D01*
X013776Y027517D01*
X013683Y027424D01*
X013683Y026776D01*
X013776Y026683D01*
X013731Y026728D02*
X004517Y026728D01*
X004517Y026570D02*
X035070Y026570D01*
X035079Y026728D02*
X032469Y026728D01*
X032424Y026683D02*
X032517Y026776D01*
X032517Y027424D01*
X032424Y027517D01*
X031776Y027517D01*
X031683Y027424D01*
X031683Y026776D01*
X031776Y026683D01*
X032424Y026683D01*
X032424Y026517D02*
X031776Y026517D01*
X031683Y026424D01*
X031683Y025776D01*
X031776Y025683D01*
X032424Y025683D01*
X032517Y025776D01*
X032517Y026424D01*
X032424Y026517D01*
X032517Y026411D02*
X035105Y026411D01*
X035198Y026253D02*
X032517Y026253D01*
X032517Y026094D02*
X035408Y026094D01*
X035186Y025936D02*
X032517Y025936D01*
X032517Y025777D02*
X035100Y025777D01*
X035600Y025600D02*
X036100Y025600D01*
X038100Y027600D01*
X038550Y027600D01*
X038903Y027996D02*
X042100Y027996D01*
X042100Y027838D02*
X039025Y027838D01*
X039080Y027679D02*
X042100Y027679D01*
X042100Y027521D02*
X039080Y027521D01*
X039025Y027362D02*
X042100Y027362D01*
X042100Y027204D02*
X038903Y027204D01*
X038954Y027045D02*
X042100Y027045D01*
X042100Y026887D02*
X039105Y026887D01*
X039171Y026728D02*
X042100Y026728D01*
X042100Y026570D02*
X039180Y026570D01*
X038358Y026094D02*
X037933Y026094D01*
X037775Y025936D02*
X038136Y025936D01*
X038050Y025777D02*
X037616Y025777D01*
X037458Y025619D02*
X038020Y025619D01*
X038034Y025460D02*
X037299Y025460D01*
X037141Y025302D02*
X038100Y025302D01*
X038268Y025143D02*
X036982Y025143D01*
X036824Y024985D02*
X038285Y024985D01*
X038170Y024826D02*
X036665Y024826D01*
X036507Y024668D02*
X038120Y024668D01*
X038120Y024509D02*
X036348Y024509D01*
X036096Y025936D02*
X036014Y025936D01*
X035792Y026094D02*
X036255Y026094D01*
X036413Y026253D02*
X036002Y026253D01*
X036095Y026411D02*
X036572Y026411D01*
X036730Y026570D02*
X036130Y026570D01*
X036121Y026728D02*
X036889Y026728D01*
X037047Y026887D02*
X036055Y026887D01*
X035904Y027045D02*
X037206Y027045D01*
X037364Y027204D02*
X035953Y027204D01*
X036075Y027362D02*
X037523Y027362D01*
X037681Y027521D02*
X036130Y027521D01*
X036130Y027679D02*
X037840Y027679D01*
X038046Y027838D02*
X036075Y027838D01*
X035953Y027996D02*
X038197Y027996D01*
X038248Y026253D02*
X038092Y026253D01*
X035296Y027045D02*
X032517Y027045D01*
X032517Y026887D02*
X035145Y026887D01*
X035247Y027204D02*
X032517Y027204D01*
X032517Y027362D02*
X035125Y027362D01*
X035125Y027838D02*
X015391Y027838D01*
X015391Y027996D02*
X035247Y027996D01*
X031683Y027362D02*
X031517Y027362D01*
X031517Y027204D02*
X031683Y027204D01*
X031683Y027045D02*
X031517Y027045D01*
X031517Y026887D02*
X031683Y026887D01*
X031731Y026728D02*
X031469Y026728D01*
X031517Y026411D02*
X031683Y026411D01*
X031683Y026253D02*
X031517Y026253D01*
X031517Y026094D02*
X031683Y026094D01*
X031683Y025936D02*
X031517Y025936D01*
X031517Y025777D02*
X031683Y025777D01*
X029100Y027204D02*
X029100Y027204D01*
X029100Y027362D02*
X029100Y027362D01*
X029100Y027521D02*
X029100Y027521D01*
X028765Y027521D02*
X023435Y027521D01*
X022663Y027362D02*
X022517Y027362D01*
X022517Y027424D02*
X022424Y027517D01*
X021776Y027517D01*
X021683Y027424D01*
X021683Y026776D01*
X021776Y026683D01*
X022424Y026683D01*
X022517Y026776D01*
X022517Y027424D01*
X022517Y027204D02*
X022663Y027204D01*
X022663Y027045D02*
X022517Y027045D01*
X022517Y026887D02*
X022663Y026887D01*
X022702Y026728D02*
X022469Y026728D01*
X022424Y026517D02*
X021776Y026517D01*
X021683Y026424D01*
X021683Y025776D01*
X021776Y025683D01*
X022424Y025683D01*
X022517Y025776D01*
X022517Y026424D01*
X022424Y026517D01*
X022517Y026411D02*
X022683Y026411D01*
X022683Y026253D02*
X022517Y026253D01*
X022517Y026094D02*
X022683Y026094D01*
X022683Y025936D02*
X022517Y025936D01*
X022517Y025777D02*
X022683Y025777D01*
X021683Y025777D02*
X021517Y025777D01*
X021517Y025776D02*
X021517Y026424D01*
X021424Y026517D01*
X020776Y026517D01*
X020683Y026424D01*
X020683Y025776D01*
X020776Y025683D01*
X021424Y025683D01*
X021517Y025776D01*
X021517Y025936D02*
X021683Y025936D01*
X021683Y026094D02*
X021517Y026094D01*
X021517Y026253D02*
X021683Y026253D01*
X021683Y026411D02*
X021517Y026411D01*
X021424Y026683D02*
X021517Y026776D01*
X021517Y027424D01*
X021424Y027517D01*
X020776Y027517D01*
X020683Y027424D01*
X020683Y026776D01*
X020776Y026683D01*
X021424Y026683D01*
X021469Y026728D02*
X021731Y026728D01*
X021683Y026887D02*
X021517Y026887D01*
X021517Y027045D02*
X021683Y027045D01*
X021683Y027204D02*
X021517Y027204D01*
X021517Y027362D02*
X021683Y027362D01*
X020683Y027362D02*
X020517Y027362D01*
X020517Y027424D02*
X020424Y027517D01*
X019776Y027517D01*
X019683Y027424D01*
X019683Y026776D01*
X019776Y026683D01*
X020424Y026683D01*
X020517Y026776D01*
X020517Y027424D01*
X020517Y027204D02*
X020683Y027204D01*
X020683Y027045D02*
X020517Y027045D01*
X020517Y026887D02*
X020683Y026887D01*
X020731Y026728D02*
X020469Y026728D01*
X020424Y026517D02*
X019776Y026517D01*
X019683Y026424D01*
X019683Y025776D01*
X019776Y025683D01*
X020424Y025683D01*
X020517Y025776D01*
X020517Y026424D01*
X020424Y026517D01*
X020517Y026411D02*
X020683Y026411D01*
X020683Y026253D02*
X020517Y026253D01*
X020517Y026094D02*
X020683Y026094D01*
X020683Y025936D02*
X020517Y025936D01*
X020517Y025777D02*
X020683Y025777D01*
X019683Y025777D02*
X019517Y025777D01*
X019517Y025776D02*
X019517Y026424D01*
X019424Y026517D01*
X018776Y026517D01*
X018683Y026424D01*
X018683Y025776D01*
X018776Y025683D01*
X019424Y025683D01*
X019517Y025776D01*
X019517Y025936D02*
X019683Y025936D01*
X019683Y026094D02*
X019517Y026094D01*
X019517Y026253D02*
X019683Y026253D01*
X019683Y026411D02*
X019517Y026411D01*
X019424Y026683D02*
X019517Y026776D01*
X019517Y027424D01*
X019424Y027517D01*
X018776Y027517D01*
X018683Y027424D01*
X018683Y026776D01*
X018776Y026683D01*
X019424Y026683D01*
X019469Y026728D02*
X019731Y026728D01*
X019683Y026887D02*
X019517Y026887D01*
X019517Y027045D02*
X019683Y027045D01*
X019683Y027204D02*
X019517Y027204D01*
X019517Y027362D02*
X019683Y027362D01*
X018683Y027362D02*
X018517Y027362D01*
X018517Y027424D02*
X018424Y027517D01*
X017776Y027517D01*
X017683Y027424D01*
X017683Y026776D01*
X017776Y026683D01*
X018424Y026683D01*
X018517Y026776D01*
X018517Y027424D01*
X018517Y027204D02*
X018683Y027204D01*
X018683Y027045D02*
X018517Y027045D01*
X018517Y026887D02*
X018683Y026887D01*
X018731Y026728D02*
X018469Y026728D01*
X018427Y026525D02*
X018381Y026537D01*
X018100Y026537D01*
X017819Y026537D01*
X017773Y026525D01*
X017732Y026502D01*
X017698Y026468D01*
X017675Y026427D01*
X017663Y026381D01*
X017663Y026100D01*
X017663Y025819D01*
X017675Y025773D01*
X017698Y025732D01*
X017732Y025698D01*
X017773Y025675D01*
X017819Y025663D01*
X018100Y025663D01*
X018381Y025663D01*
X018427Y025675D01*
X018468Y025698D01*
X018502Y025732D01*
X018525Y025773D01*
X018537Y025819D01*
X018537Y026100D01*
X018537Y026381D01*
X018525Y026427D01*
X018502Y026468D01*
X018468Y026502D01*
X018427Y026525D01*
X018529Y026411D02*
X018683Y026411D01*
X018683Y026253D02*
X018537Y026253D01*
X018537Y026100D02*
X018100Y026100D01*
X018100Y026100D01*
X018100Y026537D01*
X018100Y026100D01*
X018100Y026100D01*
X018537Y026100D01*
X018537Y026094D02*
X018683Y026094D01*
X018683Y025936D02*
X018537Y025936D01*
X018526Y025777D02*
X018683Y025777D01*
X018100Y025777D02*
X018100Y025777D01*
X018100Y025663D02*
X018100Y026100D01*
X018100Y026100D01*
X018100Y026100D01*
X017663Y026100D01*
X018100Y026100D01*
X018100Y025663D01*
X018100Y025936D02*
X018100Y025936D01*
X018100Y026094D02*
X018100Y026094D01*
X018100Y026253D02*
X018100Y026253D01*
X018100Y026411D02*
X018100Y026411D01*
X017671Y026411D02*
X017517Y026411D01*
X017517Y026424D02*
X017424Y026517D01*
X016776Y026517D01*
X016683Y026424D01*
X016683Y025776D01*
X016776Y025683D01*
X017424Y025683D01*
X017517Y025776D01*
X017517Y026424D01*
X017517Y026253D02*
X017663Y026253D01*
X017663Y026094D02*
X017517Y026094D01*
X017517Y025936D02*
X017663Y025936D01*
X017674Y025777D02*
X017517Y025777D01*
X016683Y025777D02*
X016517Y025777D01*
X016517Y025936D02*
X016683Y025936D01*
X016683Y026094D02*
X016517Y026094D01*
X016517Y026253D02*
X016683Y026253D01*
X016683Y026411D02*
X016517Y026411D01*
X016424Y026683D02*
X016517Y026776D01*
X016517Y027424D01*
X016424Y027517D01*
X015776Y027517D01*
X015683Y027424D01*
X015683Y026776D01*
X015776Y026683D01*
X016424Y026683D01*
X016469Y026728D02*
X016731Y026728D01*
X016776Y026683D02*
X017424Y026683D01*
X017517Y026776D01*
X017517Y027424D01*
X017424Y027517D01*
X016776Y027517D01*
X016683Y027424D01*
X016683Y026776D01*
X016776Y026683D01*
X016683Y026887D02*
X016517Y026887D01*
X016517Y027045D02*
X016683Y027045D01*
X016683Y027204D02*
X016517Y027204D01*
X016517Y027362D02*
X016683Y027362D01*
X017517Y027362D02*
X017683Y027362D01*
X017683Y027204D02*
X017517Y027204D01*
X017517Y027045D02*
X017683Y027045D01*
X017683Y026887D02*
X017517Y026887D01*
X017469Y026728D02*
X017731Y026728D01*
X015731Y026728D02*
X015469Y026728D01*
X015517Y026887D02*
X015683Y026887D01*
X015683Y027045D02*
X015517Y027045D01*
X015517Y027204D02*
X015683Y027204D01*
X015683Y027362D02*
X015517Y027362D01*
X015151Y027151D02*
X015151Y028600D01*
X014676Y028630D02*
X014524Y028630D01*
X014524Y028472D02*
X014676Y028472D01*
X014676Y028313D02*
X014524Y028313D01*
X014524Y028155D02*
X014676Y028155D01*
X014911Y027996D02*
X014289Y027996D01*
X014289Y027838D02*
X014911Y027838D01*
X014911Y027679D02*
X014289Y027679D01*
X014289Y027521D02*
X014911Y027521D01*
X014683Y027362D02*
X014517Y027362D01*
X014517Y027204D02*
X014683Y027204D01*
X014683Y027045D02*
X014517Y027045D01*
X014517Y026887D02*
X014683Y026887D01*
X014731Y026728D02*
X014469Y026728D01*
X014517Y026411D02*
X014683Y026411D01*
X014683Y026253D02*
X014517Y026253D01*
X014517Y026094D02*
X014683Y026094D01*
X014683Y025936D02*
X014517Y025936D01*
X014517Y025777D02*
X014683Y025777D01*
X015517Y026253D02*
X015683Y026253D01*
X015683Y026411D02*
X015517Y026411D01*
X015100Y027100D02*
X015151Y027151D01*
X014100Y027100D02*
X014049Y027151D01*
X014049Y028600D01*
X013574Y028630D02*
X000600Y028630D01*
X000600Y028472D02*
X013574Y028472D01*
X013574Y028313D02*
X000600Y028313D01*
X000600Y028155D02*
X013574Y028155D01*
X013809Y027996D02*
X000600Y027996D01*
X000600Y027838D02*
X013809Y027838D01*
X013809Y027679D02*
X000600Y027679D01*
X000600Y027521D02*
X013809Y027521D01*
X013683Y027362D02*
X000600Y027362D01*
X000600Y027204D02*
X013683Y027204D01*
X013683Y027045D02*
X000600Y027045D01*
X000600Y026887D02*
X002683Y026887D01*
X002683Y026924D02*
X002683Y026276D01*
X002776Y026183D01*
X003424Y026183D01*
X003517Y026276D01*
X003517Y026924D01*
X003424Y027017D01*
X002776Y027017D01*
X002683Y026924D01*
X002683Y026728D02*
X000600Y026728D01*
X000600Y026570D02*
X002683Y026570D01*
X002683Y026411D02*
X000600Y026411D01*
X000600Y026253D02*
X002706Y026253D01*
X003494Y026253D02*
X003706Y026253D01*
X003683Y026411D02*
X003517Y026411D01*
X003517Y026570D02*
X003683Y026570D01*
X003683Y026728D02*
X003517Y026728D01*
X003517Y026887D02*
X003683Y026887D01*
X004517Y026887D02*
X013683Y026887D01*
X015626Y028155D02*
X042100Y028155D01*
X042100Y028313D02*
X015626Y028313D01*
X015626Y028472D02*
X042100Y028472D01*
X042100Y028630D02*
X015626Y028630D01*
X015626Y028789D02*
X042100Y028789D01*
X042100Y028947D02*
X015626Y028947D01*
X015581Y029106D02*
X042100Y029106D01*
X042100Y029264D02*
X000600Y029264D01*
X000600Y029106D02*
X013619Y029106D01*
X013574Y028947D02*
X000600Y028947D01*
X000600Y028789D02*
X013574Y028789D01*
X014478Y029106D02*
X014722Y029106D01*
X014676Y028947D02*
X014524Y028947D01*
X014524Y028789D02*
X014676Y028789D01*
X025517Y027362D02*
X025683Y027362D01*
X025683Y027424D02*
X025683Y026776D01*
X025776Y026683D01*
X026424Y026683D01*
X026517Y026776D01*
X026517Y027424D01*
X026424Y027517D01*
X025776Y027517D01*
X025683Y027424D01*
X025683Y027204D02*
X025517Y027204D01*
X025517Y027045D02*
X025683Y027045D01*
X025683Y026887D02*
X025517Y026887D01*
X025469Y026728D02*
X025731Y026728D01*
X025776Y026517D02*
X025683Y026424D01*
X025683Y025776D01*
X025776Y025683D01*
X026424Y025683D01*
X026517Y025776D01*
X026517Y026424D01*
X026424Y026517D01*
X025776Y026517D01*
X025683Y026411D02*
X025517Y026411D01*
X025517Y026253D02*
X025683Y026253D01*
X025683Y026094D02*
X025517Y026094D01*
X025517Y025936D02*
X025683Y025936D01*
X025683Y025777D02*
X025517Y025777D01*
X026517Y025777D02*
X026683Y025777D01*
X026683Y025936D02*
X026517Y025936D01*
X026517Y026094D02*
X026683Y026094D01*
X026683Y026253D02*
X026517Y026253D01*
X026517Y026411D02*
X026683Y026411D01*
X026776Y026683D02*
X027424Y026683D01*
X027517Y026776D01*
X027517Y027424D01*
X027424Y027517D01*
X026776Y027517D01*
X026683Y027424D01*
X026683Y026776D01*
X026776Y026683D01*
X026731Y026728D02*
X026469Y026728D01*
X026517Y026887D02*
X026683Y026887D01*
X026683Y027045D02*
X026517Y027045D01*
X026517Y027204D02*
X026683Y027204D01*
X026683Y027362D02*
X026517Y027362D01*
X027517Y027362D02*
X027683Y027362D01*
X027683Y027204D02*
X027517Y027204D01*
X027517Y027045D02*
X027683Y027045D01*
X027683Y026887D02*
X027517Y026887D01*
X027469Y026728D02*
X027731Y026728D01*
X027683Y026411D02*
X027517Y026411D01*
X027517Y026253D02*
X027683Y026253D01*
X027683Y026094D02*
X027517Y026094D01*
X027517Y025936D02*
X027683Y025936D01*
X027683Y025777D02*
X027517Y025777D01*
X027100Y026100D02*
X027100Y016600D01*
X033600Y010100D01*
X038100Y010100D01*
X039580Y010086D02*
X039620Y010086D01*
X039580Y010150D02*
X039580Y009620D01*
X039620Y009620D01*
X039620Y010580D01*
X039580Y010580D01*
X039580Y010150D01*
X039580Y010244D02*
X039620Y010244D01*
X039620Y010403D02*
X039580Y010403D01*
X039580Y010561D02*
X039620Y010561D01*
X039600Y010600D02*
X039600Y009600D01*
X039600Y008600D01*
X039600Y007600D01*
X038600Y007600D01*
X038620Y007580D02*
X038620Y007050D01*
X038828Y007050D01*
X039100Y007322D01*
X039372Y007050D01*
X039580Y007050D01*
X039580Y007580D01*
X039620Y007580D01*
X039620Y007620D01*
X040150Y007620D01*
X040150Y007828D01*
X039878Y008100D01*
X040150Y008372D01*
X040150Y008580D01*
X039620Y008580D01*
X039620Y007620D01*
X039580Y007620D01*
X039580Y007580D01*
X039050Y007580D01*
X038620Y007580D01*
X038620Y007550D02*
X038580Y007550D01*
X038580Y007580D02*
X038580Y007050D01*
X038372Y007050D01*
X038050Y007372D01*
X038050Y007580D01*
X038580Y007580D01*
X038580Y007391D02*
X038620Y007391D01*
X038620Y007233D02*
X038580Y007233D01*
X038580Y007074D02*
X038620Y007074D01*
X038852Y007074D02*
X039348Y007074D01*
X039190Y007233D02*
X039010Y007233D01*
X039580Y007233D02*
X039620Y007233D01*
X039620Y007391D02*
X039580Y007391D01*
X039580Y007550D02*
X039620Y007550D01*
X039620Y007580D02*
X039620Y007050D01*
X039828Y007050D01*
X040150Y007372D01*
X040150Y007580D01*
X039620Y007580D01*
X039600Y007600D02*
X039600Y004100D01*
X039100Y003600D01*
X038978Y003600D01*
X038478Y004100D01*
X035600Y004100D01*
X033600Y006100D01*
X025600Y006100D01*
X024600Y005100D01*
X025100Y004600D01*
X025470Y004600D01*
X025432Y004638D02*
X025432Y004562D01*
X025054Y004562D01*
X025054Y004183D01*
X025066Y004137D01*
X025090Y004096D01*
X025123Y004062D01*
X025164Y004039D01*
X025210Y004026D01*
X025432Y004026D01*
X025432Y004562D01*
X025508Y004562D01*
X025508Y004026D01*
X025730Y004026D01*
X025776Y004039D01*
X025817Y004062D01*
X025850Y004096D01*
X025874Y004137D01*
X025886Y004183D01*
X025886Y004562D01*
X025508Y004562D01*
X025508Y004638D01*
X025432Y004638D01*
X025054Y004638D01*
X025054Y005017D01*
X025066Y005063D01*
X025090Y005104D01*
X025123Y005138D01*
X025164Y005161D01*
X025210Y005174D01*
X025432Y005174D01*
X025432Y004638D01*
X025432Y004697D02*
X025508Y004697D01*
X025508Y004638D02*
X025508Y005174D01*
X025730Y005174D01*
X025776Y005161D01*
X025817Y005138D01*
X025850Y005104D01*
X025874Y005063D01*
X025886Y005017D01*
X025886Y004638D01*
X025508Y004638D01*
X025508Y004538D02*
X025432Y004538D01*
X025432Y004380D02*
X025508Y004380D01*
X025508Y004221D02*
X025432Y004221D01*
X025432Y004063D02*
X025508Y004063D01*
X025817Y004063D02*
X026411Y004063D01*
X026334Y004221D02*
X025886Y004221D01*
X025886Y004380D02*
X026334Y004380D01*
X026334Y004538D02*
X025886Y004538D01*
X025886Y004697D02*
X026334Y004697D01*
X026334Y004855D02*
X025886Y004855D01*
X025886Y005014D02*
X026334Y005014D01*
X026730Y004730D02*
X027100Y005100D01*
X027600Y005100D01*
X027889Y004855D02*
X041360Y004855D01*
X041360Y005014D02*
X027973Y005014D01*
X027978Y005172D02*
X041360Y005172D01*
X041360Y005331D02*
X027904Y005331D01*
X027311Y004855D02*
X027194Y004855D01*
X027126Y004697D02*
X041357Y004697D01*
X041199Y004538D02*
X035798Y004538D01*
X035784Y004545D02*
X035712Y004568D01*
X035638Y004580D01*
X035620Y004580D01*
X035620Y004120D01*
X036080Y004120D01*
X036080Y004138D01*
X036068Y004212D01*
X036045Y004284D01*
X036011Y004352D01*
X035966Y004413D01*
X035913Y004466D01*
X035852Y004511D01*
X035784Y004545D01*
X035620Y004538D02*
X035580Y004538D01*
X035580Y004580D02*
X035562Y004580D01*
X035488Y004568D01*
X035416Y004545D01*
X035348Y004511D01*
X035287Y004466D01*
X035234Y004413D01*
X035189Y004352D01*
X035155Y004284D01*
X035132Y004212D01*
X035120Y004138D01*
X035120Y004120D01*
X035580Y004120D01*
X035580Y004580D01*
X035402Y004538D02*
X027131Y004538D01*
X027290Y004380D02*
X035210Y004380D01*
X035135Y004221D02*
X027340Y004221D01*
X027340Y004063D02*
X035120Y004063D01*
X035120Y004062D02*
X035132Y003988D01*
X035155Y003916D01*
X035189Y003848D01*
X035234Y003787D01*
X035287Y003734D01*
X035348Y003689D01*
X035416Y003655D01*
X035488Y003632D01*
X035562Y003620D01*
X035580Y003620D01*
X035580Y004080D01*
X035620Y004080D01*
X035620Y004120D01*
X035580Y004120D01*
X035580Y004080D01*
X035120Y004080D01*
X035120Y004062D01*
X035161Y003904D02*
X027340Y003904D01*
X027340Y003746D02*
X035276Y003746D01*
X035580Y003746D02*
X035620Y003746D01*
X035620Y003620D02*
X035638Y003620D01*
X035712Y003632D01*
X035784Y003655D01*
X035852Y003689D01*
X035913Y003734D01*
X035966Y003787D01*
X036011Y003848D01*
X036045Y003916D01*
X036068Y003988D01*
X036080Y004062D01*
X036080Y004080D01*
X035620Y004080D01*
X035620Y003620D01*
X035620Y003904D02*
X035580Y003904D01*
X035580Y004063D02*
X035620Y004063D01*
X035620Y004221D02*
X035580Y004221D01*
X035580Y004380D02*
X035620Y004380D01*
X035990Y004380D02*
X041040Y004380D01*
X040882Y004221D02*
X036065Y004221D01*
X036080Y004063D02*
X040723Y004063D01*
X040565Y003904D02*
X039494Y003904D01*
X039478Y003920D02*
X039404Y003974D01*
X039323Y004015D01*
X039236Y004044D01*
X039146Y004058D01*
X039138Y004058D01*
X039138Y003516D01*
X039062Y003516D01*
X039062Y004058D01*
X039054Y004058D01*
X038964Y004044D01*
X038877Y004015D01*
X038796Y003974D01*
X038722Y003920D01*
X038658Y003856D01*
X038604Y003782D01*
X038562Y003701D01*
X038534Y003614D01*
X038520Y003524D01*
X038520Y003516D01*
X039062Y003516D01*
X039062Y003440D01*
X038520Y003440D01*
X038520Y003432D01*
X038534Y003342D01*
X038562Y003255D01*
X038604Y003174D01*
X038658Y003100D01*
X038722Y003036D01*
X038796Y002982D01*
X038877Y002940D01*
X038964Y002912D01*
X039054Y002898D01*
X039062Y002898D01*
X039062Y003440D01*
X039138Y003440D01*
X039138Y003516D01*
X039680Y003516D01*
X039680Y003524D01*
X039666Y003614D01*
X039638Y003701D01*
X039596Y003782D01*
X039542Y003856D01*
X039478Y003920D01*
X039615Y003746D02*
X040406Y003746D01*
X040248Y003587D02*
X039670Y003587D01*
X039680Y003440D02*
X039138Y003440D01*
X039138Y002898D01*
X039146Y002898D01*
X039236Y002912D01*
X039323Y002940D01*
X039404Y002982D01*
X039478Y003036D01*
X039542Y003100D01*
X039596Y003174D01*
X039638Y003255D01*
X039666Y003342D01*
X039680Y003432D01*
X039680Y003440D01*
X039679Y003429D02*
X040089Y003429D01*
X039931Y003270D02*
X039642Y003270D01*
X039551Y003112D02*
X039772Y003112D01*
X039614Y002953D02*
X039347Y002953D01*
X039455Y002795D02*
X038745Y002795D01*
X038853Y002953D02*
X038586Y002953D01*
X038649Y003112D02*
X038428Y003112D01*
X038558Y003270D02*
X038269Y003270D01*
X038100Y003100D02*
X039100Y002100D01*
X039660Y002161D02*
X042100Y002161D01*
X042100Y002319D02*
X039660Y002319D01*
X039817Y002478D02*
X042100Y002478D01*
X042100Y002636D02*
X039975Y002636D01*
X040134Y002795D02*
X042100Y002795D01*
X042100Y002953D02*
X040292Y002953D01*
X040451Y003112D02*
X042100Y003112D01*
X042100Y003270D02*
X040609Y003270D01*
X040768Y003429D02*
X042100Y003429D01*
X042100Y003587D02*
X040926Y003587D01*
X041085Y003746D02*
X042100Y003746D01*
X042100Y003904D02*
X041243Y003904D01*
X041402Y004063D02*
X042100Y004063D01*
X042100Y004221D02*
X041560Y004221D01*
X041719Y004380D02*
X042100Y004380D01*
X042100Y004538D02*
X041834Y004538D01*
X041840Y004697D02*
X042100Y004697D01*
X042100Y004855D02*
X041840Y004855D01*
X041840Y005014D02*
X042100Y005014D01*
X042100Y005172D02*
X041840Y005172D01*
X041840Y005331D02*
X042100Y005331D01*
X042100Y005489D02*
X041840Y005489D01*
X041840Y005648D02*
X042100Y005648D01*
X042100Y005806D02*
X041840Y005806D01*
X041840Y005965D02*
X042100Y005965D01*
X042100Y006123D02*
X041840Y006123D01*
X041840Y006282D02*
X042100Y006282D01*
X042100Y006440D02*
X041840Y006440D01*
X041840Y006599D02*
X042100Y006599D01*
X042100Y006757D02*
X041840Y006757D01*
X041840Y006916D02*
X042100Y006916D01*
X042100Y007074D02*
X041840Y007074D01*
X041840Y007233D02*
X042100Y007233D01*
X042100Y007391D02*
X041840Y007391D01*
X041840Y007550D02*
X042100Y007550D01*
X042100Y007708D02*
X041840Y007708D01*
X041840Y007867D02*
X042100Y007867D01*
X042100Y008025D02*
X041840Y008025D01*
X041840Y008184D02*
X042100Y008184D01*
X042100Y008342D02*
X041840Y008342D01*
X041840Y008501D02*
X042100Y008501D01*
X042100Y008659D02*
X041840Y008659D01*
X041840Y008818D02*
X042100Y008818D01*
X042100Y008976D02*
X041840Y008976D01*
X041840Y009135D02*
X042100Y009135D01*
X042100Y009293D02*
X041840Y009293D01*
X041840Y009452D02*
X042100Y009452D01*
X042100Y009610D02*
X041840Y009610D01*
X041840Y009769D02*
X042100Y009769D01*
X042100Y009927D02*
X041840Y009927D01*
X041840Y010086D02*
X042100Y010086D01*
X042100Y010244D02*
X041840Y010244D01*
X041840Y010403D02*
X042100Y010403D01*
X042100Y010561D02*
X041840Y010561D01*
X041840Y010720D02*
X042100Y010720D01*
X042100Y010878D02*
X041840Y010878D01*
X041840Y011037D02*
X042100Y011037D01*
X042100Y011195D02*
X041840Y011195D01*
X041840Y011354D02*
X042100Y011354D01*
X042100Y011512D02*
X041840Y011512D01*
X041840Y011671D02*
X042100Y011671D01*
X042100Y011829D02*
X041840Y011829D01*
X041840Y011988D02*
X042100Y011988D01*
X042100Y012146D02*
X041840Y012146D01*
X041735Y012305D02*
X042100Y012305D01*
X042100Y012463D02*
X041576Y012463D01*
X041418Y012622D02*
X042100Y012622D01*
X042100Y012780D02*
X041259Y012780D01*
X041056Y012305D02*
X039644Y012305D01*
X039485Y012146D02*
X041215Y012146D01*
X041360Y011988D02*
X039962Y011988D01*
X040121Y011829D02*
X041360Y011829D01*
X041360Y011671D02*
X040130Y011671D01*
X040130Y011512D02*
X041360Y011512D01*
X041360Y011354D02*
X040103Y011354D01*
X039945Y011195D02*
X041360Y011195D01*
X041360Y011037D02*
X039941Y011037D01*
X040100Y010878D02*
X041360Y010878D01*
X041360Y010720D02*
X040150Y010720D01*
X040150Y010561D02*
X041360Y010561D01*
X041360Y010403D02*
X040150Y010403D01*
X040022Y010244D02*
X041360Y010244D01*
X041360Y010086D02*
X039892Y010086D01*
X040051Y009927D02*
X041360Y009927D01*
X041360Y009769D02*
X040150Y009769D01*
X040150Y009452D02*
X041360Y009452D01*
X041360Y009610D02*
X039620Y009610D01*
X039620Y009580D02*
X039620Y008620D01*
X039580Y008620D01*
X039580Y009150D01*
X039580Y009580D01*
X039620Y009580D01*
X039620Y009452D02*
X039580Y009452D01*
X039580Y009293D02*
X039620Y009293D01*
X039620Y009135D02*
X039580Y009135D01*
X039580Y008976D02*
X039620Y008976D01*
X039620Y008818D02*
X039580Y008818D01*
X039580Y008659D02*
X039620Y008659D01*
X039620Y008501D02*
X039580Y008501D01*
X039580Y008342D02*
X039620Y008342D01*
X039620Y008184D02*
X039580Y008184D01*
X039580Y008025D02*
X039620Y008025D01*
X039620Y007867D02*
X039580Y007867D01*
X039580Y007708D02*
X039620Y007708D01*
X039953Y008025D02*
X041360Y008025D01*
X041360Y007867D02*
X040111Y007867D01*
X040150Y007708D02*
X041360Y007708D01*
X041360Y007550D02*
X040150Y007550D01*
X040150Y007391D02*
X041360Y007391D01*
X041360Y007233D02*
X040010Y007233D01*
X039852Y007074D02*
X041360Y007074D01*
X041360Y006916D02*
X000600Y006916D01*
X000600Y007074D02*
X038348Y007074D01*
X038190Y007233D02*
X000600Y007233D01*
X000600Y007391D02*
X038050Y007391D01*
X038050Y007550D02*
X000600Y007550D01*
X000600Y007708D02*
X038050Y007708D01*
X038089Y007867D02*
X000600Y007867D01*
X000600Y008025D02*
X038247Y008025D01*
X038267Y008184D02*
X000600Y008184D01*
X000600Y008342D02*
X038108Y008342D01*
X039961Y008184D02*
X041360Y008184D01*
X041360Y008342D02*
X040120Y008342D01*
X040150Y008501D02*
X041360Y008501D01*
X041360Y008659D02*
X040150Y008659D01*
X040150Y008818D02*
X041360Y008818D01*
X041360Y008976D02*
X040002Y008976D01*
X039912Y009135D02*
X041360Y009135D01*
X041360Y009293D02*
X040071Y009293D01*
X039620Y009769D02*
X039580Y009769D01*
X039580Y009927D02*
X039620Y009927D01*
X038965Y012305D02*
X036339Y012305D01*
X036452Y012463D02*
X039124Y012463D01*
X039282Y012622D02*
X036478Y012622D01*
X036619Y012780D02*
X038886Y012780D01*
X039025Y012722D01*
X039175Y012722D01*
X039314Y012780D01*
X039420Y012886D01*
X039478Y013025D01*
X039478Y013138D01*
X039685Y013345D01*
X039752Y013413D01*
X039789Y013501D01*
X039789Y014046D01*
X039930Y014046D01*
X040024Y014140D01*
X040024Y015060D01*
X039930Y015154D01*
X039168Y015154D01*
X039074Y015060D01*
X039074Y014140D01*
X039168Y014046D01*
X039309Y014046D01*
X039309Y013648D01*
X039138Y013478D01*
X039025Y013478D01*
X038886Y013420D01*
X038780Y013314D01*
X038722Y013175D01*
X038722Y013025D01*
X038780Y012886D01*
X038886Y012780D01*
X038758Y012939D02*
X036778Y012939D01*
X036936Y013097D02*
X038722Y013097D01*
X038755Y013256D02*
X037095Y013256D01*
X037253Y013414D02*
X038880Y013414D01*
X039100Y013100D02*
X039549Y013549D01*
X039549Y014600D01*
X040024Y014524D02*
X040176Y014524D01*
X040176Y014682D02*
X040024Y014682D01*
X040024Y014841D02*
X040176Y014841D01*
X040176Y014999D02*
X040024Y014999D01*
X040411Y015158D02*
X038391Y015158D01*
X038391Y015316D02*
X040411Y015316D01*
X040411Y015475D02*
X038391Y015475D01*
X038391Y015633D02*
X040411Y015633D01*
X040411Y015792D02*
X038391Y015792D01*
X038391Y015950D02*
X040411Y015950D01*
X040411Y016109D02*
X038391Y016109D01*
X038391Y016267D02*
X040123Y016267D01*
X039918Y016426D02*
X038389Y016426D01*
X038285Y016584D02*
X039848Y016584D01*
X039837Y016743D02*
X038297Y016743D01*
X038255Y016901D02*
X039878Y016901D01*
X039991Y017060D02*
X038142Y017060D01*
X038234Y017218D02*
X039899Y017218D01*
X039829Y017377D02*
X038304Y017377D01*
X038316Y017535D02*
X039817Y017535D01*
X039857Y017694D02*
X038276Y017694D01*
X038165Y017852D02*
X039968Y017852D01*
X040317Y017852D02*
X040317Y017852D01*
X040317Y017694D02*
X040317Y017694D01*
X040317Y017535D02*
X040317Y017535D01*
X040317Y017494D02*
X040317Y017494D01*
X040665Y017852D02*
X042100Y017852D01*
X042100Y017694D02*
X040776Y017694D01*
X040816Y017535D02*
X042100Y017535D01*
X042100Y017377D02*
X040804Y017377D01*
X040734Y017218D02*
X042100Y017218D01*
X042100Y017060D02*
X040642Y017060D01*
X040755Y016901D02*
X042100Y016901D01*
X042100Y016743D02*
X040797Y016743D01*
X040891Y016584D02*
X042100Y016584D01*
X042100Y016426D02*
X040891Y016426D01*
X040891Y016267D02*
X042100Y016267D01*
X042100Y016109D02*
X040891Y016109D01*
X040891Y015950D02*
X042100Y015950D01*
X042100Y015792D02*
X040891Y015792D01*
X040891Y015633D02*
X042100Y015633D01*
X042100Y015475D02*
X040891Y015475D01*
X040891Y015316D02*
X042100Y015316D01*
X042100Y015158D02*
X040891Y015158D01*
X041126Y014999D02*
X042100Y014999D01*
X042100Y014841D02*
X041126Y014841D01*
X041126Y014682D02*
X042100Y014682D01*
X042100Y014524D02*
X041126Y014524D01*
X041126Y014365D02*
X042100Y014365D01*
X042100Y014207D02*
X041126Y014207D01*
X041034Y014048D02*
X042100Y014048D01*
X042100Y013890D02*
X039789Y013890D01*
X039789Y013731D02*
X042100Y013731D01*
X042100Y013573D02*
X039789Y013573D01*
X039753Y013414D02*
X042100Y013414D01*
X042100Y013256D02*
X039595Y013256D01*
X039478Y013097D02*
X042100Y013097D01*
X042100Y012939D02*
X039442Y012939D01*
X039441Y012780D02*
X039314Y012780D01*
X039233Y013573D02*
X037289Y013573D01*
X037289Y013731D02*
X039309Y013731D01*
X039309Y013890D02*
X037289Y013890D01*
X037432Y014048D02*
X037768Y014048D01*
X037676Y014207D02*
X037524Y014207D01*
X037524Y014365D02*
X037676Y014365D01*
X037676Y014524D02*
X037524Y014524D01*
X037524Y014682D02*
X037676Y014682D01*
X037676Y014841D02*
X037524Y014841D01*
X037524Y014999D02*
X037676Y014999D01*
X037911Y015154D02*
X037911Y016226D01*
X037721Y016226D01*
X037545Y016299D01*
X037410Y016434D01*
X037337Y016611D01*
X037337Y016802D01*
X037410Y016978D01*
X037521Y017090D01*
X037491Y017112D01*
X037435Y017168D01*
X037389Y017232D01*
X037353Y017302D01*
X037329Y017377D01*
X037317Y017454D01*
X037317Y017494D01*
X037817Y017494D01*
X035317Y017494D01*
X035317Y017494D01*
X035317Y017535D02*
X035317Y017535D01*
X035317Y017694D02*
X035317Y017694D01*
X035317Y017852D02*
X035317Y017852D01*
X035665Y017852D02*
X037468Y017852D01*
X037357Y017694D02*
X035776Y017694D01*
X035816Y017535D02*
X037317Y017535D01*
X037329Y017377D02*
X035804Y017377D01*
X035734Y017218D02*
X037399Y017218D01*
X037491Y017060D02*
X035642Y017060D01*
X035755Y016901D02*
X037378Y016901D01*
X037337Y016743D02*
X035797Y016743D01*
X035785Y016584D02*
X037348Y016584D01*
X037418Y016426D02*
X035889Y016426D01*
X035891Y016267D02*
X037623Y016267D01*
X037911Y016109D02*
X035891Y016109D01*
X035891Y015950D02*
X037911Y015950D01*
X037911Y015792D02*
X035891Y015792D01*
X035891Y015633D02*
X037911Y015633D01*
X037911Y015475D02*
X035891Y015475D01*
X035891Y015316D02*
X037911Y015316D01*
X038151Y014600D02*
X038151Y016372D01*
X037817Y016706D01*
X037817Y017494D02*
X037817Y017494D01*
X037817Y017535D02*
X037817Y017535D01*
X037817Y017694D02*
X037817Y017694D01*
X037817Y017852D02*
X037817Y017852D01*
X035651Y016372D02*
X035651Y014600D01*
X035176Y014524D02*
X035024Y014524D01*
X035024Y014682D02*
X035176Y014682D01*
X035176Y014841D02*
X035024Y014841D01*
X035024Y014999D02*
X035176Y014999D01*
X034600Y014600D02*
X034549Y014600D01*
X034549Y012151D01*
X034600Y012100D01*
X036100Y012600D02*
X037049Y013549D01*
X037049Y014600D01*
X038626Y014524D02*
X039074Y014524D01*
X039074Y014682D02*
X038626Y014682D01*
X038626Y014841D02*
X039074Y014841D01*
X039074Y014999D02*
X038626Y014999D01*
X038626Y014365D02*
X039074Y014365D01*
X039074Y014207D02*
X038626Y014207D01*
X038534Y014048D02*
X039166Y014048D01*
X039932Y014048D02*
X040268Y014048D01*
X040176Y014207D02*
X040024Y014207D01*
X040024Y014365D02*
X040176Y014365D01*
X040651Y014600D02*
X040651Y016549D01*
X040600Y016600D01*
X040423Y016600D01*
X040317Y016706D01*
X035651Y016372D02*
X035317Y016706D01*
X035176Y014365D02*
X035024Y014365D01*
X035024Y014207D02*
X035176Y014207D01*
X035268Y014048D02*
X034932Y014048D01*
X031849Y011512D02*
X031527Y011512D01*
X031369Y011671D02*
X031690Y011671D01*
X031532Y011829D02*
X031210Y011829D01*
X031052Y011988D02*
X031373Y011988D01*
X031215Y012146D02*
X030893Y012146D01*
X030735Y012305D02*
X031056Y012305D01*
X030898Y012463D02*
X030576Y012463D01*
X030418Y012622D02*
X030739Y012622D01*
X030581Y012780D02*
X030259Y012780D01*
X030101Y012939D02*
X030422Y012939D01*
X030264Y013097D02*
X029942Y013097D01*
X029784Y013256D02*
X030105Y013256D01*
X029947Y013414D02*
X029625Y013414D01*
X029467Y013573D02*
X029788Y013573D01*
X029630Y013731D02*
X029308Y013731D01*
X029150Y013890D02*
X029471Y013890D01*
X029313Y014048D02*
X028991Y014048D01*
X028833Y014207D02*
X029154Y014207D01*
X028996Y014365D02*
X028674Y014365D01*
X028516Y014524D02*
X028837Y014524D01*
X028679Y014682D02*
X028357Y014682D01*
X028199Y014841D02*
X028520Y014841D01*
X028362Y014999D02*
X028040Y014999D01*
X027882Y015158D02*
X028203Y015158D01*
X028045Y015316D02*
X027723Y015316D01*
X027565Y015475D02*
X027886Y015475D01*
X027728Y015633D02*
X027406Y015633D01*
X027248Y015792D02*
X027569Y015792D01*
X027411Y015950D02*
X027089Y015950D01*
X026931Y016109D02*
X027252Y016109D01*
X027094Y016267D02*
X026772Y016267D01*
X026614Y016426D02*
X026935Y016426D01*
X026860Y016584D02*
X026455Y016584D01*
X026297Y016743D02*
X026860Y016743D01*
X026860Y016901D02*
X026138Y016901D01*
X025980Y017060D02*
X026860Y017060D01*
X026860Y017218D02*
X025821Y017218D01*
X025663Y017377D02*
X026860Y017377D01*
X026860Y017535D02*
X025504Y017535D01*
X025346Y017694D02*
X026860Y017694D01*
X026860Y017852D02*
X025187Y017852D01*
X025029Y018011D02*
X026860Y018011D01*
X026860Y018169D02*
X024870Y018169D01*
X024712Y018328D02*
X026860Y018328D01*
X026860Y018486D02*
X024553Y018486D01*
X024395Y018645D02*
X026860Y018645D01*
X026860Y018803D02*
X024236Y018803D01*
X024078Y018962D02*
X026860Y018962D01*
X026860Y019120D02*
X023919Y019120D01*
X023803Y019236D02*
X023803Y019236D01*
X023761Y019279D02*
X026860Y019279D01*
X024826Y017535D02*
X000600Y017535D01*
X000600Y017377D02*
X024984Y017377D01*
X025143Y017218D02*
X000600Y017218D01*
X000600Y017060D02*
X025301Y017060D01*
X025460Y016901D02*
X000600Y016901D01*
X000600Y016743D02*
X025618Y016743D01*
X025777Y016584D02*
X000600Y016584D01*
X000600Y016426D02*
X025935Y016426D01*
X026094Y016267D02*
X000600Y016267D01*
X000600Y016109D02*
X026252Y016109D01*
X026411Y015950D02*
X000600Y015950D01*
X000600Y015792D02*
X026569Y015792D01*
X026728Y015633D02*
X000600Y015633D01*
X000600Y015475D02*
X026886Y015475D01*
X027045Y015316D02*
X000600Y015316D01*
X000600Y015158D02*
X027203Y015158D01*
X027362Y014999D02*
X000600Y014999D01*
X000600Y014841D02*
X027520Y014841D01*
X027679Y014682D02*
X000600Y014682D01*
X000600Y014524D02*
X027837Y014524D01*
X027996Y014365D02*
X000600Y014365D01*
X000600Y014207D02*
X028154Y014207D01*
X028313Y014048D02*
X000600Y014048D01*
X000600Y013890D02*
X028471Y013890D01*
X028630Y013731D02*
X000600Y013731D01*
X000600Y013573D02*
X028788Y013573D01*
X028947Y013414D02*
X000600Y013414D01*
X000600Y013256D02*
X029105Y013256D01*
X029264Y013097D02*
X000600Y013097D01*
X000600Y012939D02*
X029422Y012939D01*
X029581Y012780D02*
X000600Y012780D01*
X000600Y012622D02*
X029739Y012622D01*
X029898Y012463D02*
X000600Y012463D01*
X000600Y012305D02*
X030056Y012305D01*
X030215Y012146D02*
X000600Y012146D01*
X000600Y011988D02*
X030373Y011988D01*
X030532Y011829D02*
X000600Y011829D01*
X000600Y011671D02*
X030690Y011671D01*
X030849Y011512D02*
X000600Y011512D01*
X000600Y011354D02*
X031007Y011354D01*
X031166Y011195D02*
X000600Y011195D01*
X000600Y011037D02*
X031324Y011037D01*
X031483Y010878D02*
X000600Y010878D01*
X000600Y010720D02*
X031641Y010720D01*
X031800Y010561D02*
X000600Y010561D01*
X000600Y010403D02*
X031958Y010403D01*
X032117Y010244D02*
X000600Y010244D01*
X000600Y010086D02*
X032275Y010086D01*
X032434Y009927D02*
X000600Y009927D01*
X000600Y009769D02*
X032592Y009769D01*
X032751Y009610D02*
X000600Y009610D01*
X000600Y009452D02*
X032909Y009452D01*
X033068Y009293D02*
X000600Y009293D01*
X000600Y009135D02*
X033226Y009135D01*
X033385Y008976D02*
X000600Y008976D01*
X000600Y008818D02*
X033543Y008818D01*
X033702Y008659D02*
X000600Y008659D01*
X000600Y008501D02*
X033860Y008501D01*
X033897Y008464D02*
X033897Y008464D01*
X033434Y009927D02*
X033112Y009927D01*
X032954Y010086D02*
X033275Y010086D01*
X033117Y010244D02*
X032795Y010244D01*
X032637Y010403D02*
X032958Y010403D01*
X032800Y010561D02*
X032478Y010561D01*
X032320Y010720D02*
X032641Y010720D01*
X032483Y010878D02*
X032161Y010878D01*
X032003Y011037D02*
X032324Y011037D01*
X032166Y011195D02*
X031844Y011195D01*
X031686Y011354D02*
X032007Y011354D01*
X039580Y007074D02*
X039620Y007074D01*
X041360Y006757D02*
X000600Y006757D01*
X000600Y006599D02*
X041360Y006599D01*
X041360Y006440D02*
X000600Y006440D01*
X000600Y006282D02*
X041360Y006282D01*
X041360Y006123D02*
X000600Y006123D01*
X000600Y005965D02*
X041360Y005965D01*
X041360Y005806D02*
X000600Y005806D01*
X000600Y005648D02*
X041360Y005648D01*
X041360Y005489D02*
X000600Y005489D01*
X000600Y005331D02*
X027029Y005331D01*
X026833Y005172D02*
X025736Y005172D01*
X025508Y005172D02*
X025432Y005172D01*
X025432Y005014D02*
X025508Y005014D01*
X025508Y004855D02*
X025432Y004855D01*
X025054Y004855D02*
X021879Y004855D01*
X021920Y004814D02*
X021814Y004920D01*
X021675Y004978D01*
X021525Y004978D01*
X021386Y004920D01*
X021306Y004840D01*
X021126Y004840D01*
X021126Y005060D01*
X021032Y005154D01*
X020427Y005154D01*
X020334Y005060D01*
X020334Y004140D01*
X020427Y004046D01*
X021032Y004046D01*
X021126Y004140D01*
X021126Y004360D01*
X021306Y004360D01*
X021386Y004280D01*
X021525Y004222D01*
X021675Y004222D01*
X021814Y004280D01*
X021920Y004386D01*
X021978Y004525D01*
X021978Y004675D01*
X021920Y004814D01*
X021969Y004697D02*
X025054Y004697D01*
X025054Y004538D02*
X021978Y004538D01*
X021914Y004380D02*
X025054Y004380D01*
X025054Y004221D02*
X021126Y004221D01*
X021049Y004063D02*
X025123Y004063D01*
X025054Y005014D02*
X021126Y005014D01*
X021126Y004855D02*
X021321Y004855D01*
X021600Y004600D02*
X020730Y004600D01*
X020334Y004538D02*
X019886Y004538D01*
X019886Y004562D02*
X019508Y004562D01*
X019508Y004026D01*
X019730Y004026D01*
X019776Y004039D01*
X019817Y004062D01*
X019850Y004096D01*
X019874Y004137D01*
X019886Y004183D01*
X019886Y004562D01*
X019886Y004638D02*
X019886Y005017D01*
X019874Y005063D01*
X019850Y005104D01*
X019817Y005138D01*
X019776Y005161D01*
X019730Y005174D01*
X019508Y005174D01*
X019508Y004638D01*
X019432Y004638D01*
X019432Y004562D01*
X019054Y004562D01*
X019054Y004183D01*
X019066Y004137D01*
X019090Y004096D01*
X019123Y004062D01*
X019164Y004039D01*
X019210Y004026D01*
X019432Y004026D01*
X019432Y004562D01*
X019508Y004562D01*
X019508Y004638D01*
X019886Y004638D01*
X019886Y004697D02*
X020334Y004697D01*
X020334Y004855D02*
X019886Y004855D01*
X019886Y005014D02*
X020334Y005014D01*
X019736Y005172D02*
X025204Y005172D01*
X024600Y005100D02*
X023100Y003600D01*
X024510Y002953D02*
X024712Y002953D01*
X026860Y003112D02*
X000600Y003112D01*
X000600Y003270D02*
X026860Y003270D01*
X026860Y003429D02*
X000600Y003429D01*
X000600Y003587D02*
X026860Y003587D01*
X026860Y003746D02*
X000600Y003746D01*
X000600Y003904D02*
X026860Y003904D01*
X027100Y004230D02*
X026730Y004600D01*
X026730Y004730D01*
X027100Y004230D02*
X027100Y002600D01*
X027517Y002636D02*
X027683Y002636D01*
X027683Y002478D02*
X027517Y002478D01*
X027517Y002319D02*
X027683Y002319D01*
X027683Y002276D02*
X027776Y002183D01*
X028424Y002183D01*
X028517Y002276D01*
X028517Y002924D01*
X028424Y003017D01*
X027776Y003017D01*
X027683Y002924D01*
X027683Y002276D01*
X027761Y002002D02*
X027439Y002002D01*
X027517Y001844D02*
X027683Y001844D01*
X027683Y001685D02*
X027517Y001685D01*
X027517Y001527D02*
X027683Y001527D01*
X027683Y001368D02*
X027517Y001368D01*
X028100Y001600D02*
X028100Y001100D01*
X028600Y000600D01*
X034100Y000600D01*
X035600Y002100D01*
X035366Y001527D02*
X042100Y001527D01*
X042100Y001685D02*
X039660Y001685D01*
X039660Y001844D02*
X042100Y001844D01*
X042100Y002002D02*
X039660Y002002D01*
X039138Y002953D02*
X039062Y002953D01*
X039062Y003112D02*
X039138Y003112D01*
X039138Y003270D02*
X039062Y003270D01*
X039062Y003429D02*
X039138Y003429D01*
X039100Y003478D02*
X038978Y003600D01*
X039062Y003587D02*
X039138Y003587D01*
X039138Y003746D02*
X039062Y003746D01*
X039062Y003904D02*
X039138Y003904D01*
X038706Y003904D02*
X036039Y003904D01*
X035924Y003746D02*
X038585Y003746D01*
X038530Y003587D02*
X027340Y003587D01*
X027340Y003429D02*
X035278Y003429D01*
X035173Y003270D02*
X027340Y003270D01*
X027340Y003112D02*
X035140Y003112D01*
X035163Y002953D02*
X032488Y002953D01*
X032517Y002795D02*
X035255Y002795D01*
X035600Y003100D02*
X038100Y003100D01*
X038066Y002795D02*
X035945Y002795D01*
X035922Y003429D02*
X038521Y003429D01*
X035207Y001368D02*
X042100Y001368D01*
X042100Y001210D02*
X035049Y001210D01*
X034890Y001051D02*
X042100Y001051D01*
X042100Y000893D02*
X034732Y000893D01*
X034573Y000734D02*
X042100Y000734D01*
X035004Y001844D02*
X032517Y001844D01*
X032517Y001685D02*
X034846Y001685D01*
X034687Y001527D02*
X032517Y001527D01*
X032517Y001368D02*
X034529Y001368D01*
X034370Y001210D02*
X032451Y001210D01*
X031749Y001210D02*
X031451Y001210D01*
X031424Y001183D02*
X031517Y001276D01*
X031517Y001924D01*
X031424Y002017D01*
X030776Y002017D01*
X030683Y001924D01*
X030683Y001276D01*
X030776Y001183D01*
X031424Y001183D01*
X031517Y001368D02*
X031683Y001368D01*
X031683Y001527D02*
X031517Y001527D01*
X031517Y001685D02*
X031683Y001685D01*
X031683Y001844D02*
X031517Y001844D01*
X031439Y002002D02*
X031761Y002002D01*
X031683Y002319D02*
X031517Y002319D01*
X031517Y002276D02*
X031517Y002924D01*
X031424Y003017D01*
X030776Y003017D01*
X030683Y002924D01*
X030683Y002276D01*
X030776Y002183D01*
X031424Y002183D01*
X031517Y002276D01*
X031517Y002478D02*
X031683Y002478D01*
X031683Y002636D02*
X031517Y002636D01*
X031517Y002795D02*
X031683Y002795D01*
X031712Y002953D02*
X031488Y002953D01*
X030712Y002953D02*
X030488Y002953D01*
X030517Y002924D02*
X030424Y003017D01*
X029776Y003017D01*
X029683Y002924D01*
X029683Y002276D01*
X029776Y002183D01*
X030424Y002183D01*
X030517Y002276D01*
X030517Y002924D01*
X030517Y002795D02*
X030683Y002795D01*
X030683Y002636D02*
X030517Y002636D01*
X030517Y002478D02*
X030683Y002478D01*
X030683Y002319D02*
X030517Y002319D01*
X030424Y002017D02*
X030517Y001924D01*
X030517Y001276D01*
X030424Y001183D01*
X029776Y001183D01*
X029683Y001276D01*
X029683Y001924D01*
X029776Y002017D01*
X030424Y002017D01*
X030439Y002002D02*
X030761Y002002D01*
X030683Y001844D02*
X030517Y001844D01*
X030517Y001685D02*
X030683Y001685D01*
X030683Y001527D02*
X030517Y001527D01*
X030517Y001368D02*
X030683Y001368D01*
X030749Y001210D02*
X030451Y001210D01*
X029749Y001210D02*
X029451Y001210D01*
X029424Y001183D02*
X029517Y001276D01*
X029517Y001924D01*
X029424Y002017D01*
X028776Y002017D01*
X028683Y001924D01*
X028683Y001276D01*
X028776Y001183D01*
X029424Y001183D01*
X029517Y001368D02*
X029683Y001368D01*
X029683Y001527D02*
X029517Y001527D01*
X029517Y001685D02*
X029683Y001685D01*
X029683Y001844D02*
X029517Y001844D01*
X029439Y002002D02*
X029761Y002002D01*
X029683Y002319D02*
X029517Y002319D01*
X029517Y002276D02*
X029517Y002924D01*
X029424Y003017D01*
X028776Y003017D01*
X028683Y002924D01*
X028683Y002276D01*
X028776Y002183D01*
X029424Y002183D01*
X029517Y002276D01*
X029517Y002478D02*
X029683Y002478D01*
X029683Y002636D02*
X029517Y002636D01*
X029517Y002795D02*
X029683Y002795D01*
X029712Y002953D02*
X029488Y002953D01*
X028712Y002953D02*
X028488Y002953D01*
X028517Y002795D02*
X028683Y002795D01*
X028683Y002636D02*
X028517Y002636D01*
X028517Y002478D02*
X028683Y002478D01*
X028683Y002319D02*
X028517Y002319D01*
X028439Y002002D02*
X028761Y002002D01*
X028683Y001844D02*
X028517Y001844D01*
X028517Y001685D02*
X028683Y001685D01*
X028683Y001527D02*
X028517Y001527D01*
X028517Y001368D02*
X028683Y001368D01*
X028749Y001210D02*
X028451Y001210D01*
X028488Y001051D02*
X034212Y001051D01*
X034053Y000893D02*
X028647Y000893D01*
X027683Y002795D02*
X027517Y002795D01*
X027488Y002953D02*
X027712Y002953D01*
X021712Y002953D02*
X021488Y002953D01*
X021517Y002924D02*
X021424Y003017D01*
X020776Y003017D01*
X020683Y002924D01*
X020683Y002276D01*
X020776Y002183D01*
X021424Y002183D01*
X021517Y002276D01*
X021517Y002924D01*
X021517Y002795D02*
X021683Y002795D01*
X021683Y002636D02*
X021517Y002636D01*
X021517Y002478D02*
X021683Y002478D01*
X021683Y002319D02*
X021517Y002319D01*
X021424Y002017D02*
X021517Y001924D01*
X021517Y001276D01*
X021424Y001183D01*
X020776Y001183D01*
X020683Y001276D01*
X020683Y001924D01*
X020776Y002017D01*
X021424Y002017D01*
X021439Y002002D02*
X021761Y002002D01*
X021683Y001844D02*
X021517Y001844D01*
X021517Y001685D02*
X021683Y001685D01*
X021683Y001527D02*
X021517Y001527D01*
X021517Y001368D02*
X021683Y001368D01*
X021749Y001210D02*
X021451Y001210D01*
X020749Y001210D02*
X020451Y001210D01*
X020424Y001183D02*
X020517Y001276D01*
X020517Y001924D01*
X020424Y002017D01*
X019776Y002017D01*
X019683Y001924D01*
X019683Y001276D01*
X019776Y001183D01*
X020424Y001183D01*
X020517Y001368D02*
X020683Y001368D01*
X020683Y001527D02*
X020517Y001527D01*
X020517Y001685D02*
X020683Y001685D01*
X020683Y001844D02*
X020517Y001844D01*
X020439Y002002D02*
X020761Y002002D01*
X020683Y002319D02*
X020517Y002319D01*
X020517Y002276D02*
X020517Y002924D01*
X020424Y003017D01*
X019776Y003017D01*
X019683Y002924D01*
X019683Y002276D01*
X019776Y002183D01*
X020424Y002183D01*
X020517Y002276D01*
X020517Y002478D02*
X020683Y002478D01*
X020683Y002636D02*
X020517Y002636D01*
X020517Y002795D02*
X020683Y002795D01*
X020712Y002953D02*
X020488Y002953D01*
X019712Y002953D02*
X019488Y002953D01*
X019517Y002924D02*
X019424Y003017D01*
X018776Y003017D01*
X018683Y002924D01*
X018683Y002276D01*
X018776Y002183D01*
X019424Y002183D01*
X019517Y002276D01*
X019517Y002924D01*
X019517Y002795D02*
X019683Y002795D01*
X019683Y002636D02*
X019517Y002636D01*
X019517Y002478D02*
X019683Y002478D01*
X019683Y002319D02*
X019517Y002319D01*
X019424Y002017D02*
X019517Y001924D01*
X019517Y001276D01*
X019424Y001183D01*
X018776Y001183D01*
X018683Y001276D01*
X018683Y001924D01*
X018776Y002017D01*
X019424Y002017D01*
X019439Y002002D02*
X019761Y002002D01*
X019683Y001844D02*
X019517Y001844D01*
X019517Y001685D02*
X019683Y001685D01*
X019683Y001527D02*
X019517Y001527D01*
X019517Y001368D02*
X019683Y001368D01*
X019749Y001210D02*
X019451Y001210D01*
X018749Y001210D02*
X018451Y001210D01*
X018424Y001183D02*
X018517Y001276D01*
X018517Y001924D01*
X018424Y002017D01*
X017776Y002017D01*
X017683Y001924D01*
X017683Y001276D01*
X017776Y001183D01*
X018424Y001183D01*
X018517Y001368D02*
X018683Y001368D01*
X018683Y001527D02*
X018517Y001527D01*
X018517Y001685D02*
X018683Y001685D01*
X018683Y001844D02*
X018517Y001844D01*
X018439Y002002D02*
X018761Y002002D01*
X018683Y002319D02*
X018517Y002319D01*
X018517Y002276D02*
X018517Y002924D01*
X018424Y003017D01*
X017776Y003017D01*
X017683Y002924D01*
X017683Y002276D01*
X017776Y002183D01*
X018424Y002183D01*
X018517Y002276D01*
X018517Y002478D02*
X018683Y002478D01*
X018683Y002636D02*
X018517Y002636D01*
X018517Y002795D02*
X018683Y002795D01*
X018712Y002953D02*
X018488Y002953D01*
X017712Y002953D02*
X017510Y002953D01*
X017502Y002968D02*
X017525Y002927D01*
X017537Y002881D01*
X017537Y002600D01*
X017100Y002600D01*
X017100Y003100D01*
X017600Y003600D01*
X019600Y003600D01*
X019508Y004063D02*
X019432Y004063D01*
X019432Y004221D02*
X019508Y004221D01*
X019508Y004380D02*
X019432Y004380D01*
X019432Y004538D02*
X019508Y004538D01*
X019432Y004638D02*
X019054Y004638D01*
X019054Y005017D01*
X019066Y005063D01*
X019090Y005104D01*
X019123Y005138D01*
X019164Y005161D01*
X019210Y005174D01*
X019432Y005174D01*
X019432Y004638D01*
X019432Y004697D02*
X019508Y004697D01*
X019508Y004855D02*
X019432Y004855D01*
X019432Y005014D02*
X019508Y005014D01*
X019508Y005172D02*
X019432Y005172D01*
X019204Y005172D02*
X012282Y005172D01*
X012219Y005198D02*
X011981Y005198D01*
X011761Y005107D01*
X011593Y004939D01*
X011502Y004719D01*
X011502Y004481D01*
X011593Y004261D01*
X011761Y004093D01*
X011981Y004002D01*
X012219Y004002D01*
X012439Y004093D01*
X012607Y004261D01*
X012698Y004481D01*
X012698Y004719D01*
X012607Y004939D01*
X012439Y005107D01*
X012219Y005198D01*
X011918Y005172D02*
X000600Y005172D01*
X000600Y005014D02*
X011668Y005014D01*
X011558Y004855D02*
X000600Y004855D01*
X000600Y004697D02*
X011502Y004697D01*
X011502Y004538D02*
X000600Y004538D01*
X000600Y004380D02*
X011544Y004380D01*
X011633Y004221D02*
X000600Y004221D01*
X000600Y004063D02*
X011835Y004063D01*
X012365Y004063D02*
X019123Y004063D01*
X019054Y004221D02*
X012567Y004221D01*
X012656Y004380D02*
X019054Y004380D01*
X019054Y004538D02*
X012698Y004538D01*
X012698Y004697D02*
X019054Y004697D01*
X019054Y004855D02*
X012642Y004855D01*
X012532Y005014D02*
X019054Y005014D01*
X019886Y004380D02*
X020334Y004380D01*
X020334Y004221D02*
X019886Y004221D01*
X019817Y004063D02*
X020411Y004063D01*
X017683Y002795D02*
X017537Y002795D01*
X017537Y002636D02*
X017683Y002636D01*
X017537Y002600D02*
X017100Y002600D01*
X017100Y002600D01*
X017100Y003037D01*
X017381Y003037D01*
X017427Y003025D01*
X017468Y003002D01*
X017502Y002968D01*
X017537Y002600D02*
X017537Y002319D01*
X017683Y002319D01*
X017537Y002319D02*
X017525Y002273D01*
X017502Y002232D01*
X017468Y002198D01*
X017427Y002175D01*
X017381Y002163D01*
X017100Y002163D01*
X017100Y002600D01*
X017100Y002600D01*
X017100Y003037D01*
X016819Y003037D01*
X016773Y003025D01*
X016732Y003002D01*
X016698Y002968D01*
X016675Y002927D01*
X016663Y002881D01*
X016663Y002600D01*
X016663Y002319D01*
X016517Y002319D01*
X016517Y002276D02*
X016517Y002924D01*
X016424Y003017D01*
X015776Y003017D01*
X015683Y002924D01*
X015683Y002276D01*
X015776Y002183D01*
X016424Y002183D01*
X016517Y002276D01*
X016663Y002319D02*
X016675Y002273D01*
X016698Y002232D01*
X016732Y002198D01*
X016773Y002175D01*
X016819Y002163D01*
X017100Y002163D01*
X017100Y002600D01*
X017100Y002600D01*
X017100Y002600D01*
X016663Y002600D01*
X017100Y002600D01*
X017100Y002636D02*
X017100Y002636D01*
X017100Y002478D02*
X017100Y002478D01*
X017100Y002319D02*
X017100Y002319D01*
X016776Y002017D02*
X016683Y001924D01*
X016683Y001276D01*
X016776Y001183D01*
X017424Y001183D01*
X017517Y001276D01*
X017517Y001924D01*
X017424Y002017D01*
X016776Y002017D01*
X016761Y002002D02*
X016439Y002002D01*
X016424Y002017D02*
X016517Y001924D01*
X016517Y001276D01*
X016424Y001183D01*
X015776Y001183D01*
X015683Y001276D01*
X015683Y001924D01*
X015776Y002017D01*
X016424Y002017D01*
X016517Y001844D02*
X016683Y001844D01*
X016683Y001685D02*
X016517Y001685D01*
X016517Y001527D02*
X016683Y001527D01*
X016683Y001368D02*
X016517Y001368D01*
X016451Y001210D02*
X016749Y001210D01*
X017451Y001210D02*
X017749Y001210D01*
X017683Y001368D02*
X017517Y001368D01*
X017517Y001527D02*
X017683Y001527D01*
X017683Y001685D02*
X017517Y001685D01*
X017517Y001844D02*
X017683Y001844D01*
X017761Y002002D02*
X017439Y002002D01*
X017537Y002478D02*
X017683Y002478D01*
X017100Y002795D02*
X017100Y002795D01*
X017100Y002953D02*
X017100Y002953D01*
X016690Y002953D02*
X016488Y002953D01*
X016517Y002795D02*
X016663Y002795D01*
X016663Y002636D02*
X016517Y002636D01*
X016517Y002478D02*
X016663Y002478D01*
X015683Y002478D02*
X015517Y002478D01*
X015517Y002636D02*
X015683Y002636D01*
X015683Y002795D02*
X015517Y002795D01*
X015517Y002924D02*
X015517Y002276D01*
X015424Y002183D01*
X014776Y002183D01*
X014683Y002276D01*
X014683Y002924D01*
X014776Y003017D01*
X015424Y003017D01*
X015517Y002924D01*
X015488Y002953D02*
X015712Y002953D01*
X015683Y002319D02*
X015517Y002319D01*
X015424Y002017D02*
X015517Y001924D01*
X015517Y001276D01*
X015424Y001183D01*
X014776Y001183D01*
X014683Y001276D01*
X014683Y001924D01*
X014776Y002017D01*
X015424Y002017D01*
X015439Y002002D02*
X015761Y002002D01*
X015683Y001844D02*
X015517Y001844D01*
X015517Y001685D02*
X015683Y001685D01*
X015683Y001527D02*
X015517Y001527D01*
X015517Y001368D02*
X015683Y001368D01*
X015749Y001210D02*
X015451Y001210D01*
X014749Y001210D02*
X014451Y001210D01*
X014424Y001183D02*
X014517Y001276D01*
X014517Y001924D01*
X014424Y002017D01*
X013776Y002017D01*
X013683Y001924D01*
X013683Y001276D01*
X013776Y001183D01*
X014424Y001183D01*
X014517Y001368D02*
X014683Y001368D01*
X014683Y001527D02*
X014517Y001527D01*
X014517Y001685D02*
X014683Y001685D01*
X014683Y001844D02*
X014517Y001844D01*
X014439Y002002D02*
X014761Y002002D01*
X014683Y002319D02*
X014517Y002319D01*
X014517Y002276D02*
X014517Y002924D01*
X014424Y003017D01*
X013776Y003017D01*
X013683Y002924D01*
X013683Y002276D01*
X013776Y002183D01*
X014424Y002183D01*
X014517Y002276D01*
X014517Y002478D02*
X014683Y002478D01*
X014683Y002636D02*
X014517Y002636D01*
X014517Y002795D02*
X014683Y002795D01*
X014712Y002953D02*
X014488Y002953D01*
X013712Y002953D02*
X000600Y002953D01*
X000600Y002795D02*
X013683Y002795D01*
X013683Y002636D02*
X000600Y002636D01*
X000600Y002478D02*
X013683Y002478D01*
X013683Y002319D02*
X000600Y002319D01*
X003439Y002002D02*
X003761Y002002D01*
X003776Y002017D02*
X003683Y001924D01*
X003683Y001276D01*
X003776Y001183D01*
X004424Y001183D01*
X004517Y001276D01*
X004517Y001924D01*
X004424Y002017D01*
X003776Y002017D01*
X003683Y001844D02*
X003517Y001844D01*
X003517Y001685D02*
X003683Y001685D01*
X003683Y001527D02*
X003517Y001527D01*
X003517Y001368D02*
X003683Y001368D01*
X003749Y001210D02*
X003451Y001210D01*
X004451Y001210D02*
X013749Y001210D01*
X013683Y001368D02*
X004517Y001368D01*
X004517Y001527D02*
X013683Y001527D01*
X013683Y001685D02*
X004517Y001685D01*
X004517Y001844D02*
X013683Y001844D01*
X013761Y002002D02*
X004439Y002002D01*
X000600Y017694D02*
X024667Y017694D01*
X024509Y017852D02*
X000600Y017852D01*
X000600Y018011D02*
X024350Y018011D01*
X024192Y018169D02*
X000600Y018169D01*
X000600Y018328D02*
X024033Y018328D01*
X023875Y018486D02*
X000600Y018486D01*
X000600Y018645D02*
X023716Y018645D01*
X023558Y018803D02*
X000600Y018803D01*
X000600Y029423D02*
X042100Y029423D01*
X042100Y029581D02*
X000600Y029581D01*
X000600Y029740D02*
X042100Y029740D01*
X042100Y029898D02*
X000600Y029898D01*
X000600Y030057D02*
X042100Y030057D01*
X042100Y030215D02*
X000600Y030215D01*
X000600Y030374D02*
X042100Y030374D01*
X042100Y030532D02*
X000600Y030532D01*
X000600Y030691D02*
X042100Y030691D01*
X042100Y030849D02*
X000600Y030849D01*
X027840Y021498D02*
X035070Y021498D01*
X035070Y021656D02*
X027995Y021656D01*
X028154Y021815D02*
X035115Y021815D01*
X035224Y021973D02*
X028312Y021973D01*
X028471Y022132D02*
X035309Y022132D01*
X035145Y022290D02*
X028629Y022290D01*
X027840Y021339D02*
X035134Y021339D01*
X035270Y021181D02*
X027840Y021181D01*
X028517Y026887D02*
X028663Y026887D01*
X028663Y027045D02*
X028517Y027045D01*
X028517Y027204D02*
X028663Y027204D01*
X028663Y027362D02*
X028517Y027362D01*
D21*
X032100Y025100D03*
X032100Y020100D03*
X032100Y014600D03*
X034600Y012100D03*
X036100Y012600D03*
X039100Y013100D03*
X041100Y008100D03*
X032100Y008100D03*
X027600Y005100D03*
X021600Y004600D03*
X021600Y008100D03*
X021600Y014600D03*
X021600Y020100D03*
X021600Y025100D03*
X021600Y030600D03*
X012100Y030600D03*
X001600Y030600D03*
X001600Y025600D03*
X001600Y020100D03*
X001600Y014600D03*
X001600Y008100D03*
X001600Y001100D03*
X012100Y001100D03*
X012100Y008100D03*
X012100Y014600D03*
X012100Y020100D03*
X032100Y030600D03*
X041100Y030100D03*
X041100Y025100D03*
X041100Y020100D03*
X041100Y001100D03*
M02*
