G75*
G70*
%OFA0B0*%
%FSLAX24Y24*%
%IPPOS*%
%LPD*%
%AMOC8*
5,1,8,0,0,1.08239X$1,22.5*
%
%ADD10R,0.0714X0.0714*%
%ADD11C,0.0316*%
%ADD12C,0.0820*%
%ADD13R,0.0710X0.0867*%
%ADD14C,0.0720*%
%ADD15OC8,0.0820*%
%ADD16R,0.0880X0.0880*%
%ADD17C,0.0880*%
%ADD18R,0.0552X0.0867*%
%ADD19R,0.0474X0.0631*%
%ADD20C,0.0556*%
D10*
X003100Y001600D03*
X004100Y001600D03*
X014100Y001600D03*
X015100Y001600D03*
X016100Y001600D03*
X016100Y002600D03*
X015100Y002600D03*
X014100Y002600D03*
X017100Y002600D03*
X018100Y002600D03*
X019100Y002600D03*
X019100Y001600D03*
X018100Y001600D03*
X017100Y001600D03*
X020100Y001600D03*
X021100Y001600D03*
X022100Y001600D03*
X022100Y002600D03*
X021100Y002600D03*
X020100Y002600D03*
X023100Y002600D03*
X024100Y002600D03*
X025100Y002600D03*
X025100Y001600D03*
X024100Y001600D03*
X023100Y001600D03*
X026100Y001600D03*
X027100Y001600D03*
X028100Y001600D03*
X028100Y002600D03*
X027100Y002600D03*
X026100Y002600D03*
X029100Y002600D03*
X030100Y002600D03*
X031100Y002600D03*
X031100Y001600D03*
X030100Y001600D03*
X029100Y001600D03*
X032100Y001600D03*
X032100Y002600D03*
X032100Y025600D03*
X031100Y025600D03*
X030100Y025600D03*
X029100Y025600D03*
X028100Y025600D03*
X027100Y025600D03*
X026100Y025600D03*
X025100Y025600D03*
X024100Y025600D03*
X023100Y025600D03*
X022100Y025600D03*
X021100Y025600D03*
X020100Y025600D03*
X019100Y025600D03*
X018100Y025600D03*
X017100Y025600D03*
X016100Y025600D03*
X015100Y025600D03*
X014100Y025600D03*
X014100Y026600D03*
X015100Y026600D03*
X016100Y026600D03*
X017100Y026600D03*
X018100Y026600D03*
X019100Y026600D03*
X020100Y026600D03*
X021100Y026600D03*
X022100Y026600D03*
X023100Y026600D03*
X024100Y026600D03*
X025100Y026600D03*
X026100Y026600D03*
X027100Y026600D03*
X028100Y026600D03*
X029100Y026600D03*
X030100Y026600D03*
X031100Y026600D03*
X032100Y026600D03*
X004100Y026600D03*
X003100Y026600D03*
D11*
X013100Y024100D03*
X033100Y019100D03*
X012100Y004600D03*
D12*
X035600Y021600D03*
X035600Y022600D03*
X035600Y023600D03*
X035600Y024600D03*
X035600Y025600D03*
X035600Y026600D03*
X035600Y027600D03*
X038550Y027600D03*
X038650Y026600D03*
X038550Y025600D03*
X038650Y024600D03*
X038550Y023600D03*
X038650Y022600D03*
X038550Y021600D03*
D13*
X038151Y014600D03*
X037049Y014600D03*
X035651Y014600D03*
X034549Y014600D03*
X039549Y014600D03*
X040651Y014600D03*
X020651Y006100D03*
X019549Y006100D03*
X015151Y028600D03*
X014049Y028600D03*
D14*
X035317Y017494D03*
X035317Y016706D03*
X037817Y016706D03*
X037817Y017494D03*
X040317Y017494D03*
X040317Y016706D03*
X035383Y007494D03*
X035383Y006706D03*
X035600Y004100D03*
X035600Y003100D03*
X035600Y002100D03*
D15*
X038600Y007600D03*
X039600Y007600D03*
X039600Y008600D03*
X038600Y008600D03*
X038600Y009600D03*
X039600Y009600D03*
X039600Y010600D03*
X038600Y010600D03*
X038600Y011600D03*
X039600Y011600D03*
D16*
X039100Y002100D03*
D17*
X039100Y003478D03*
D18*
X026730Y004600D03*
X025470Y004600D03*
X020730Y004600D03*
X019470Y004600D03*
D19*
X018100Y006667D03*
X017726Y007533D03*
X018474Y007533D03*
D20*
X001600Y001100D03*
X001600Y008100D03*
X001600Y014600D03*
X001600Y020100D03*
X001600Y025600D03*
X001600Y030600D03*
X012100Y030600D03*
X021600Y030600D03*
X021600Y024600D03*
X021600Y020100D03*
X021600Y014600D03*
X021600Y008100D03*
X021600Y004600D03*
X018600Y004600D03*
X012100Y001100D03*
X012100Y008100D03*
X012100Y014600D03*
X012100Y020100D03*
X032100Y020100D03*
X032100Y014600D03*
X034600Y012100D03*
X036100Y012600D03*
X039100Y013100D03*
X041100Y008100D03*
X032100Y008100D03*
X027600Y005100D03*
X041100Y001100D03*
X041100Y020100D03*
X041100Y025100D03*
X041100Y030100D03*
X032100Y030600D03*
X032100Y027600D03*
M02*
