G75*
G70*
%OFA0B0*%
%FSLAX24Y24*%
%IPPOS*%
%LPD*%
%AMOC8*
5,1,8,0,0,1.08239X$1,22.5*
%
%ADD10C,0.0000*%
%ADD11R,0.0515X0.0515*%
%ADD12C,0.0740*%
%ADD13R,0.0630X0.0787*%
%ADD14C,0.0600*%
%ADD15OC8,0.0740*%
%ADD16R,0.0800X0.0800*%
%ADD17C,0.0800*%
%ADD18C,0.0640*%
%ADD19C,0.0160*%
%ADD20C,0.0436*%
D10*
X000100Y000100D02*
X000100Y031470D01*
X042592Y031470D01*
X042592Y000100D01*
X000100Y000100D01*
X011982Y004600D02*
X011984Y004621D01*
X011990Y004641D01*
X011999Y004661D01*
X012011Y004678D01*
X012026Y004692D01*
X012044Y004704D01*
X012064Y004712D01*
X012084Y004717D01*
X012105Y004718D01*
X012126Y004715D01*
X012146Y004709D01*
X012165Y004698D01*
X012182Y004685D01*
X012195Y004669D01*
X012206Y004651D01*
X012214Y004631D01*
X012218Y004611D01*
X012218Y004589D01*
X012214Y004569D01*
X012206Y004549D01*
X012195Y004531D01*
X012182Y004515D01*
X012165Y004502D01*
X012146Y004491D01*
X012126Y004485D01*
X012105Y004482D01*
X012084Y004483D01*
X012064Y004488D01*
X012044Y004496D01*
X012026Y004508D01*
X012011Y004522D01*
X011999Y004539D01*
X011990Y004559D01*
X011984Y004579D01*
X011982Y004600D01*
X032982Y019100D02*
X032984Y019121D01*
X032990Y019141D01*
X032999Y019161D01*
X033011Y019178D01*
X033026Y019192D01*
X033044Y019204D01*
X033064Y019212D01*
X033084Y019217D01*
X033105Y019218D01*
X033126Y019215D01*
X033146Y019209D01*
X033165Y019198D01*
X033182Y019185D01*
X033195Y019169D01*
X033206Y019151D01*
X033214Y019131D01*
X033218Y019111D01*
X033218Y019089D01*
X033214Y019069D01*
X033206Y019049D01*
X033195Y019031D01*
X033182Y019015D01*
X033165Y019002D01*
X033146Y018991D01*
X033126Y018985D01*
X033105Y018982D01*
X033084Y018983D01*
X033064Y018988D01*
X033044Y018996D01*
X033026Y019008D01*
X033011Y019022D01*
X032999Y019039D01*
X032990Y019059D01*
X032984Y019079D01*
X032982Y019100D01*
X012982Y024100D02*
X012984Y024121D01*
X012990Y024141D01*
X012999Y024161D01*
X013011Y024178D01*
X013026Y024192D01*
X013044Y024204D01*
X013064Y024212D01*
X013084Y024217D01*
X013105Y024218D01*
X013126Y024215D01*
X013146Y024209D01*
X013165Y024198D01*
X013182Y024185D01*
X013195Y024169D01*
X013206Y024151D01*
X013214Y024131D01*
X013218Y024111D01*
X013218Y024089D01*
X013214Y024069D01*
X013206Y024049D01*
X013195Y024031D01*
X013182Y024015D01*
X013165Y024002D01*
X013146Y023991D01*
X013126Y023985D01*
X013105Y023982D01*
X013084Y023983D01*
X013064Y023988D01*
X013044Y023996D01*
X013026Y024008D01*
X013011Y024022D01*
X012999Y024039D01*
X012990Y024059D01*
X012984Y024079D01*
X012982Y024100D01*
D11*
X014100Y026100D03*
X015100Y026100D03*
X016100Y026100D03*
X016100Y027100D03*
X015100Y027100D03*
X014100Y027100D03*
X017100Y027100D03*
X018100Y027100D03*
X019100Y027100D03*
X019100Y026100D03*
X018100Y026100D03*
X017100Y026100D03*
X020100Y026100D03*
X021100Y026100D03*
X022100Y026100D03*
X022100Y027100D03*
X021100Y027100D03*
X020100Y027100D03*
X023100Y027100D03*
X024100Y027100D03*
X025100Y027100D03*
X025100Y026100D03*
X024100Y026100D03*
X023100Y026100D03*
X026100Y026100D03*
X027100Y026100D03*
X028100Y026100D03*
X028100Y027100D03*
X027100Y027100D03*
X026100Y027100D03*
X029100Y027100D03*
X030100Y027100D03*
X031100Y027100D03*
X031100Y026100D03*
X030100Y026100D03*
X029100Y026100D03*
X032100Y026100D03*
X032100Y027100D03*
X004100Y026600D03*
X003100Y026600D03*
X014100Y002600D03*
X015100Y002600D03*
X016100Y002600D03*
X016100Y001600D03*
X015100Y001600D03*
X014100Y001600D03*
X017100Y001600D03*
X018100Y001600D03*
X019100Y001600D03*
X019100Y002600D03*
X018100Y002600D03*
X017100Y002600D03*
X020100Y002600D03*
X021100Y002600D03*
X022100Y002600D03*
X022100Y001600D03*
X021100Y001600D03*
X020100Y001600D03*
X023100Y001600D03*
X024100Y001600D03*
X025100Y001600D03*
X025100Y002600D03*
X024100Y002600D03*
X023100Y002600D03*
X026100Y002600D03*
X027100Y002600D03*
X028100Y002600D03*
X028100Y001600D03*
X027100Y001600D03*
X026100Y001600D03*
X029100Y001600D03*
X030100Y001600D03*
X031100Y001600D03*
X031100Y002600D03*
X030100Y002600D03*
X029100Y002600D03*
X032100Y002600D03*
X032100Y001600D03*
X004100Y001600D03*
X003100Y001600D03*
D12*
X035600Y021600D03*
X035600Y022600D03*
X035600Y023600D03*
X035600Y024600D03*
X035600Y025600D03*
X035600Y026600D03*
X035600Y027600D03*
X038550Y027600D03*
X038650Y026600D03*
X038550Y025600D03*
X038650Y024600D03*
X038550Y023600D03*
X038650Y022600D03*
X038550Y021600D03*
D13*
X038151Y014600D03*
X037049Y014600D03*
X035651Y014600D03*
X034549Y014600D03*
X039549Y014600D03*
X040651Y014600D03*
X015151Y028600D03*
X014049Y028600D03*
D14*
X035600Y004100D03*
X035600Y003100D03*
X035600Y002100D03*
D15*
X038600Y007600D03*
X039600Y007600D03*
X039600Y008600D03*
X038600Y008600D03*
X038600Y009600D03*
X039600Y009600D03*
X039600Y010600D03*
X038600Y010600D03*
X038600Y011600D03*
X039600Y011600D03*
D16*
X039100Y002100D03*
D17*
X039100Y003478D03*
D18*
X040317Y016706D03*
X040317Y017494D03*
X037817Y017494D03*
X037817Y016706D03*
X035317Y016706D03*
X035317Y017494D03*
D19*
X037817Y017494D01*
X040317Y017494D01*
X040706Y017494D01*
X041600Y016600D01*
X041600Y013600D01*
X039600Y011600D01*
X040100Y011600D01*
X040600Y011100D01*
X040600Y010100D01*
X040100Y009600D01*
X039600Y009600D01*
X038600Y008600D01*
X038600Y007600D01*
X039600Y007600D01*
X039600Y004100D01*
X039100Y003600D01*
X038978Y003600D01*
X038478Y004100D01*
X035600Y004100D01*
X033600Y006100D01*
X025600Y006100D01*
X023100Y003600D01*
X017600Y003600D01*
X017100Y003100D01*
X017100Y002600D01*
X023100Y002600D02*
X023100Y001600D01*
X023100Y002600D02*
X023100Y003600D01*
X023100Y002600D02*
X024100Y002600D01*
X027100Y002600D02*
X027100Y003100D01*
X029600Y005600D01*
X032600Y005600D01*
X035600Y003100D02*
X038100Y003100D01*
X039100Y002100D01*
X040100Y002100D01*
X041100Y003100D01*
X041100Y007600D01*
X040100Y008600D01*
X039600Y008600D01*
X038600Y009600D02*
X033100Y009600D01*
X023600Y019100D01*
X019100Y019100D01*
X015100Y023100D01*
X015100Y026100D01*
X015100Y027100D02*
X015151Y027151D01*
X015151Y028600D01*
X014049Y028600D02*
X014049Y027151D01*
X014100Y027100D01*
X023100Y027100D02*
X024100Y028100D01*
X030100Y028100D01*
X032600Y028100D01*
X034100Y026600D01*
X034100Y023600D01*
X035100Y022600D01*
X035600Y022600D01*
X038650Y022600D01*
X039100Y022600D01*
X040317Y021383D01*
X040317Y017494D01*
X040317Y016706D02*
X040423Y016600D01*
X040600Y016600D01*
X040651Y016549D01*
X040651Y014600D01*
X039549Y014600D02*
X039549Y013549D01*
X039100Y013100D01*
X038600Y011600D02*
X038100Y011600D01*
X037100Y010600D01*
X034100Y010600D01*
X027600Y017100D01*
X027600Y023100D01*
X029100Y024600D01*
X029100Y026100D01*
X029100Y027100D02*
X030100Y028100D01*
X027100Y026100D02*
X027100Y016600D01*
X033600Y010100D01*
X038100Y010100D01*
X038600Y010600D01*
X036100Y012600D02*
X037049Y013549D01*
X037049Y014600D01*
X038151Y014600D02*
X038151Y016372D01*
X037817Y016706D01*
X035651Y016372D02*
X035651Y014600D01*
X034600Y014600D02*
X034549Y014600D01*
X034549Y012151D01*
X034600Y012100D01*
X035651Y016372D02*
X035317Y016706D01*
X035600Y021600D02*
X038550Y021600D01*
X036100Y024600D02*
X035600Y024600D01*
X036100Y024600D02*
X038100Y026600D01*
X038650Y026600D01*
X038550Y027600D02*
X038100Y027600D01*
X036100Y025600D01*
X035600Y025600D01*
X038978Y003600D02*
X039100Y003478D01*
X035600Y002100D02*
X034100Y000600D01*
X028600Y000600D01*
X028100Y001100D01*
X028100Y001600D01*
D20*
X032600Y005600D03*
X034600Y012100D03*
X036100Y012600D03*
X039100Y013100D03*
M02*
