G75*
G70*
%OFA0B0*%
%FSLAX24Y24*%
%IPPOS*%
%LPD*%
%AMOC8*
5,1,8,0,0,1.08239X$1,22.5*
%
%ADD10R,0.0594X0.0594*%
%ADD11C,0.0740*%
%ADD12C,0.0600*%
%ADD13OC8,0.0740*%
%ADD14R,0.0800X0.0800*%
%ADD15C,0.0800*%
%ADD16C,0.0640*%
%ADD17R,0.0787X0.0472*%
%ADD18C,0.0160*%
%ADD19C,0.0436*%
D10*
X003100Y001600D03*
X004100Y001600D03*
X014100Y001600D03*
X015100Y001600D03*
X016100Y001600D03*
X016100Y002600D03*
X015100Y002600D03*
X014100Y002600D03*
X017100Y002600D03*
X018100Y002600D03*
X019100Y002600D03*
X019100Y001600D03*
X018100Y001600D03*
X017100Y001600D03*
X020100Y001600D03*
X021100Y001600D03*
X022100Y001600D03*
X022100Y002600D03*
X021100Y002600D03*
X020100Y002600D03*
X023100Y002600D03*
X024100Y002600D03*
X025100Y002600D03*
X025100Y001600D03*
X024100Y001600D03*
X023100Y001600D03*
X026100Y001600D03*
X027100Y001600D03*
X028100Y001600D03*
X028100Y002600D03*
X027100Y002600D03*
X026100Y002600D03*
X029100Y002600D03*
X030100Y002600D03*
X031100Y002600D03*
X031100Y001600D03*
X030100Y001600D03*
X029100Y001600D03*
X032100Y001600D03*
X032100Y002600D03*
X032100Y025600D03*
X031100Y025600D03*
X030100Y025600D03*
X029100Y025600D03*
X028100Y025600D03*
X027100Y025600D03*
X026100Y025600D03*
X025100Y025600D03*
X024100Y025600D03*
X023100Y025600D03*
X022100Y025600D03*
X021100Y025600D03*
X020100Y025600D03*
X019100Y025600D03*
X018100Y025600D03*
X017100Y025600D03*
X016100Y025600D03*
X015100Y025600D03*
X014100Y025600D03*
X014100Y026600D03*
X015100Y026600D03*
X016100Y026600D03*
X017100Y026600D03*
X018100Y026600D03*
X019100Y026600D03*
X020100Y026600D03*
X021100Y026600D03*
X022100Y026600D03*
X023100Y026600D03*
X024100Y026600D03*
X025100Y026600D03*
X026100Y026600D03*
X027100Y026600D03*
X028100Y026600D03*
X029100Y026600D03*
X030100Y026600D03*
X031100Y026600D03*
X032100Y026600D03*
X004100Y026600D03*
X003100Y026600D03*
D11*
X035600Y026600D03*
X035600Y027600D03*
X035600Y025600D03*
X035600Y024600D03*
X035600Y023600D03*
X035600Y022600D03*
X035600Y021600D03*
X038550Y021600D03*
X038650Y022600D03*
X038550Y023600D03*
X038650Y024600D03*
X038550Y025600D03*
X038650Y026600D03*
X038550Y027600D03*
D12*
X035600Y004100D03*
X035600Y003100D03*
X035600Y002100D03*
D13*
X038600Y007600D03*
X039600Y007600D03*
X039600Y008600D03*
X038600Y008600D03*
X038600Y009600D03*
X039600Y009600D03*
X039600Y010600D03*
X038600Y010600D03*
X038600Y011600D03*
X039600Y011600D03*
D14*
X039100Y002100D03*
D15*
X039100Y003478D03*
D16*
X040317Y016706D03*
X040317Y017494D03*
X037817Y017494D03*
X037817Y016706D03*
X035317Y016706D03*
X035317Y017494D03*
D17*
X037100Y011230D03*
X037100Y009970D03*
D18*
X000600Y000600D02*
X000600Y030990D01*
X042100Y030990D01*
X042100Y000600D01*
X039439Y000600D01*
X041803Y002964D01*
X041840Y003052D01*
X041840Y026148D01*
X041803Y026236D01*
X040303Y027736D01*
X040236Y027803D01*
X040148Y027840D01*
X039024Y027840D01*
X038999Y027900D01*
X038850Y028049D01*
X038655Y028130D01*
X038445Y028130D01*
X038250Y028049D01*
X038101Y027900D01*
X038020Y027705D01*
X038020Y027495D01*
X038101Y027300D01*
X038250Y027151D01*
X038422Y027079D01*
X038350Y027049D01*
X038201Y026900D01*
X038120Y026705D01*
X038120Y026495D01*
X038201Y026300D01*
X038350Y026151D01*
X038422Y026121D01*
X038250Y026049D01*
X038101Y025900D01*
X038020Y025705D01*
X038020Y025495D01*
X038101Y025300D01*
X038250Y025151D01*
X038422Y025079D01*
X038350Y025049D01*
X038201Y024900D01*
X038183Y024857D01*
X036840Y026199D01*
X036840Y028148D01*
X036803Y028236D01*
X036236Y028803D01*
X036148Y028840D01*
X035052Y028840D01*
X034964Y028803D01*
X032964Y026803D01*
X032897Y026736D01*
X032860Y026648D01*
X032860Y025199D01*
X032501Y024840D01*
X025699Y024840D01*
X025396Y025143D01*
X025463Y025143D01*
X025557Y025237D01*
X025557Y025963D01*
X025463Y026057D01*
X024737Y026057D01*
X024643Y025963D01*
X024643Y025237D01*
X024737Y025143D01*
X024860Y025143D01*
X024396Y025143D01*
X024463Y025143D01*
X024557Y025237D01*
X024557Y025963D01*
X024463Y026057D01*
X023737Y026057D01*
X023643Y025963D01*
X023643Y025237D01*
X023737Y025143D01*
X023860Y025143D01*
X023396Y025143D01*
X023463Y025143D01*
X023557Y025237D01*
X023557Y025963D01*
X023463Y026057D01*
X022737Y026057D01*
X022643Y025963D01*
X022643Y025237D01*
X022737Y025143D01*
X022860Y025143D01*
X022396Y025143D01*
X022463Y025143D01*
X022557Y025237D01*
X022557Y025963D01*
X022463Y026057D01*
X021737Y026057D01*
X021643Y025963D01*
X021643Y025237D01*
X021737Y025143D01*
X021860Y025143D01*
X018480Y025143D01*
X018466Y025135D02*
X018507Y025159D01*
X018541Y025193D01*
X018565Y025234D01*
X018577Y025279D01*
X018577Y025582D01*
X018118Y025582D01*
X018118Y025618D01*
X018082Y025618D01*
X018082Y026077D01*
X017779Y026077D01*
X017734Y026065D01*
X017693Y026041D01*
X017659Y026007D01*
X017635Y025966D01*
X017623Y025921D01*
X017623Y025618D01*
X018082Y025618D01*
X018082Y025582D01*
X018118Y025582D01*
X018118Y025123D01*
X018421Y025123D01*
X018466Y025135D01*
X018577Y025302D02*
X018643Y025302D01*
X018643Y025237D02*
X018737Y025143D01*
X019463Y025143D01*
X019557Y025237D01*
X019557Y025963D01*
X019463Y026057D01*
X018737Y026057D01*
X018643Y025963D01*
X018643Y025237D01*
X018643Y025460D02*
X018577Y025460D01*
X018577Y025618D02*
X018577Y025921D01*
X018565Y025966D01*
X018541Y026007D01*
X018507Y026041D01*
X018466Y026065D01*
X018421Y026077D01*
X018118Y026077D01*
X018118Y025618D01*
X018577Y025618D01*
X018577Y025619D02*
X018643Y025619D01*
X018643Y025777D02*
X018577Y025777D01*
X018573Y025936D02*
X018643Y025936D01*
X018737Y026143D02*
X019463Y026143D01*
X019557Y026237D01*
X019557Y026924D01*
X019643Y026809D01*
X019643Y026237D01*
X019737Y026143D01*
X020463Y026143D01*
X020557Y026237D01*
X020557Y026963D01*
X020463Y027057D01*
X020057Y027057D01*
X018810Y028720D01*
X018803Y028736D01*
X018782Y028758D01*
X018763Y028782D01*
X018748Y028791D01*
X018736Y028803D01*
X018708Y028815D01*
X018681Y028831D01*
X018664Y028833D01*
X018648Y028840D01*
X018617Y028840D01*
X018587Y028844D01*
X018570Y028840D01*
X013052Y028840D01*
X012964Y028803D01*
X012464Y028303D01*
X012397Y028236D01*
X012360Y028148D01*
X012360Y025052D01*
X012397Y024964D01*
X012757Y024603D01*
X012597Y024443D01*
X012340Y024699D01*
X012340Y028501D01*
X012699Y028860D01*
X025985Y028860D01*
X027427Y027057D01*
X026737Y027057D01*
X026643Y026963D01*
X026643Y026237D01*
X026737Y026143D01*
X027463Y026143D01*
X027557Y026237D01*
X027557Y026895D01*
X027643Y026787D01*
X027643Y026237D01*
X027737Y026143D01*
X028463Y026143D01*
X028557Y026237D01*
X028557Y026963D01*
X028463Y027057D01*
X028042Y027057D01*
X026309Y029223D01*
X026303Y029236D01*
X026279Y029260D01*
X026258Y029287D01*
X026246Y029294D01*
X026236Y029303D01*
X026204Y029317D01*
X026174Y029333D01*
X026160Y029335D01*
X026148Y029340D01*
X026113Y029340D01*
X026079Y029344D01*
X026066Y029340D01*
X012552Y029340D01*
X012464Y029303D01*
X011964Y028803D01*
X011897Y028736D01*
X011860Y028648D01*
X011860Y024552D01*
X011897Y024464D01*
X012588Y023772D01*
X012593Y023761D01*
X012761Y023593D01*
X012772Y023588D01*
X017897Y018464D01*
X017964Y018397D01*
X018052Y018360D01*
X022001Y018360D01*
X028897Y011464D01*
X028964Y011397D01*
X029052Y011360D01*
X036148Y011360D01*
X036236Y011397D01*
X037699Y012860D01*
X038806Y012860D01*
X038886Y012780D01*
X039025Y012722D01*
X039175Y012722D01*
X039314Y012780D01*
X039420Y012886D01*
X039478Y013025D01*
X039478Y013175D01*
X039420Y013314D01*
X039314Y013420D01*
X039175Y013478D01*
X039025Y013478D01*
X038886Y013420D01*
X038806Y013340D01*
X037552Y013340D01*
X037464Y013303D01*
X037397Y013236D01*
X036001Y011840D01*
X034874Y011840D01*
X034920Y011886D01*
X034978Y012025D01*
X034978Y012175D01*
X034920Y012314D01*
X034874Y012360D01*
X035806Y012360D01*
X035886Y012280D01*
X036025Y012222D01*
X036175Y012222D01*
X036314Y012280D01*
X036420Y012386D01*
X036478Y012525D01*
X036478Y012675D01*
X036420Y012814D01*
X036314Y012920D01*
X036175Y012978D01*
X036025Y012978D01*
X035886Y012920D01*
X035806Y012840D01*
X030199Y012840D01*
X023236Y019803D01*
X023148Y019840D01*
X019199Y019840D01*
X013896Y025143D01*
X014463Y025143D01*
X014557Y025237D01*
X014557Y025963D01*
X014463Y026057D01*
X013737Y026057D01*
X013643Y025963D01*
X013643Y025396D01*
X013340Y025699D01*
X013340Y027501D01*
X013699Y027860D01*
X017972Y027860D01*
X018643Y026853D01*
X018643Y026237D01*
X018737Y026143D01*
X018643Y026253D02*
X018557Y026253D01*
X018557Y026237D02*
X018557Y026963D01*
X018463Y027057D01*
X017737Y027057D01*
X017643Y026963D01*
X017643Y026237D01*
X017737Y026143D01*
X018463Y026143D01*
X018557Y026237D01*
X018557Y026411D02*
X018643Y026411D01*
X018643Y026570D02*
X018557Y026570D01*
X018557Y026728D02*
X018643Y026728D01*
X018621Y026887D02*
X018557Y026887D01*
X018515Y027045D02*
X018475Y027045D01*
X018409Y027204D02*
X013340Y027204D01*
X013340Y027362D02*
X018304Y027362D01*
X018198Y027521D02*
X013360Y027521D01*
X013518Y027679D02*
X018092Y027679D01*
X017987Y027838D02*
X013677Y027838D01*
X013600Y028100D02*
X013100Y027600D01*
X013100Y025600D01*
X019100Y019600D01*
X023100Y019600D01*
X030100Y012600D01*
X036100Y012600D01*
X036452Y012463D02*
X036624Y012463D01*
X036478Y012622D02*
X036782Y012622D01*
X036941Y012780D02*
X036434Y012780D01*
X036270Y012939D02*
X037099Y012939D01*
X037258Y013097D02*
X029942Y013097D01*
X029784Y013256D02*
X037416Y013256D01*
X037600Y013100D02*
X039100Y013100D01*
X039478Y013097D02*
X041360Y013097D01*
X041360Y012939D02*
X039442Y012939D01*
X039314Y012780D02*
X041360Y012780D01*
X041360Y012622D02*
X038918Y012622D01*
X038886Y012780D02*
X038759Y012780D01*
X038736Y012803D02*
X038648Y012840D01*
X038052Y012840D01*
X037964Y012803D01*
X037897Y012736D01*
X036897Y011736D01*
X036860Y011648D01*
X036860Y011626D01*
X036640Y011626D01*
X036546Y011532D01*
X036546Y011340D01*
X035052Y011340D01*
X034964Y011303D01*
X033001Y009340D01*
X031552Y009340D01*
X031464Y009303D01*
X027638Y005478D01*
X027525Y005478D01*
X027386Y005420D01*
X027280Y005314D01*
X027222Y005175D01*
X027222Y005025D01*
X027280Y004886D01*
X027386Y004780D01*
X027525Y004722D01*
X027675Y004722D01*
X027814Y004780D01*
X027920Y004886D01*
X027978Y005025D01*
X027978Y005138D01*
X031699Y008860D01*
X033148Y008860D01*
X033236Y008897D01*
X033303Y008964D01*
X035199Y010860D01*
X036614Y010860D01*
X036640Y010834D01*
X037560Y010834D01*
X037654Y010927D01*
X037654Y011532D01*
X037560Y011626D01*
X037466Y011626D01*
X038199Y012360D01*
X038501Y012360D01*
X038731Y012130D01*
X038380Y012130D01*
X038070Y011820D01*
X038070Y011380D01*
X038350Y011100D01*
X038070Y010820D01*
X038070Y010380D01*
X038350Y010100D01*
X038070Y009820D01*
X038070Y009380D01*
X038350Y009100D01*
X038070Y008820D01*
X038070Y008380D01*
X038336Y008114D01*
X038050Y007828D01*
X038050Y007620D01*
X038580Y007620D01*
X038580Y007580D01*
X038050Y007580D01*
X038050Y007372D01*
X038372Y007050D01*
X038580Y007050D01*
X038580Y007580D01*
X038620Y007580D01*
X038620Y007620D01*
X039580Y007620D01*
X039580Y008150D01*
X039580Y008580D01*
X039620Y008580D01*
X039620Y008620D01*
X040150Y008620D01*
X040150Y008828D01*
X039878Y009100D01*
X040150Y009372D01*
X040150Y009580D01*
X039620Y009580D01*
X039620Y009620D01*
X040150Y009620D01*
X040150Y009828D01*
X039878Y010100D01*
X040150Y010372D01*
X040150Y010580D01*
X039620Y010580D01*
X039620Y010620D01*
X040150Y010620D01*
X040150Y010828D01*
X039864Y011114D01*
X040130Y011380D01*
X040130Y011820D01*
X039820Y012130D01*
X039409Y012130D01*
X038736Y012803D01*
X038600Y012600D02*
X038100Y012600D01*
X037100Y011600D01*
X037100Y011230D01*
X036970Y011100D01*
X035100Y011100D01*
X033100Y009100D01*
X031600Y009100D01*
X027600Y005100D01*
X027889Y004855D02*
X041360Y004855D01*
X041360Y004697D02*
X021969Y004697D01*
X021978Y004675D02*
X021920Y004814D01*
X021814Y004920D01*
X021675Y004978D01*
X021525Y004978D01*
X021386Y004920D01*
X021280Y004814D01*
X021222Y004675D01*
X021222Y004525D01*
X021280Y004386D01*
X021386Y004280D01*
X021525Y004222D01*
X021638Y004222D01*
X021860Y004001D01*
X021860Y003057D01*
X021737Y003057D01*
X021643Y002963D01*
X021643Y002237D01*
X021737Y002143D01*
X022463Y002143D01*
X022557Y002237D01*
X022557Y002963D01*
X022463Y003057D01*
X022396Y003057D01*
X022699Y003360D01*
X034001Y003360D01*
X034464Y002897D01*
X034552Y002860D01*
X035202Y002860D01*
X035210Y002839D01*
X035339Y002710D01*
X035508Y002640D01*
X035691Y002640D01*
X035861Y002710D01*
X035990Y002839D01*
X036060Y003008D01*
X036060Y003191D01*
X035990Y003361D01*
X035861Y003490D01*
X035691Y003560D01*
X035508Y003560D01*
X035339Y003490D01*
X035210Y003361D01*
X035202Y003340D01*
X034699Y003340D01*
X034303Y003736D01*
X034236Y003803D01*
X034148Y003840D01*
X022552Y003840D01*
X022464Y003803D01*
X022340Y003679D01*
X022340Y004148D01*
X022303Y004236D01*
X021978Y004562D01*
X021978Y004675D01*
X022001Y004538D02*
X035402Y004538D01*
X035416Y004545D02*
X035348Y004511D01*
X035287Y004466D01*
X035234Y004413D01*
X035189Y004352D01*
X035155Y004284D01*
X035132Y004212D01*
X035120Y004138D01*
X035120Y004120D01*
X035580Y004120D01*
X035580Y004580D01*
X035562Y004580D01*
X035488Y004568D01*
X035416Y004545D01*
X035580Y004538D02*
X035620Y004538D01*
X035620Y004580D02*
X035638Y004580D01*
X035712Y004568D01*
X035784Y004545D01*
X035852Y004511D01*
X035913Y004466D01*
X035966Y004413D01*
X036011Y004352D01*
X036045Y004284D01*
X036068Y004212D01*
X036080Y004138D01*
X036080Y004120D01*
X035620Y004120D01*
X035620Y004080D01*
X036080Y004080D01*
X036080Y004062D01*
X036068Y003988D01*
X036045Y003916D01*
X036011Y003848D01*
X035966Y003787D01*
X035913Y003734D01*
X035852Y003689D01*
X035784Y003655D01*
X035712Y003632D01*
X035638Y003620D01*
X035620Y003620D01*
X035620Y004080D01*
X035580Y004080D01*
X035580Y003620D01*
X035562Y003620D01*
X035488Y003632D01*
X035416Y003655D01*
X035348Y003689D01*
X035287Y003734D01*
X035234Y003787D01*
X035189Y003848D01*
X035155Y003916D01*
X035132Y003988D01*
X035120Y004062D01*
X035120Y004080D01*
X035580Y004080D01*
X035580Y004120D01*
X035620Y004120D01*
X035620Y004580D01*
X035798Y004538D02*
X041360Y004538D01*
X041360Y004380D02*
X035990Y004380D01*
X036065Y004221D02*
X041360Y004221D01*
X041360Y004063D02*
X036080Y004063D01*
X036039Y003904D02*
X038706Y003904D01*
X038722Y003920D02*
X038658Y003856D01*
X038604Y003782D01*
X038562Y003701D01*
X038534Y003614D01*
X038520Y003524D01*
X038520Y003516D01*
X039062Y003516D01*
X039062Y004058D01*
X039054Y004058D01*
X038964Y004044D01*
X038877Y004015D01*
X038796Y003974D01*
X038722Y003920D01*
X038585Y003746D02*
X035924Y003746D01*
X035620Y003746D02*
X035580Y003746D01*
X035580Y003904D02*
X035620Y003904D01*
X035620Y004063D02*
X035580Y004063D01*
X035580Y004221D02*
X035620Y004221D01*
X035620Y004380D02*
X035580Y004380D01*
X035210Y004380D02*
X022160Y004380D01*
X022310Y004221D02*
X035135Y004221D01*
X035120Y004063D02*
X022340Y004063D01*
X022340Y003904D02*
X035161Y003904D01*
X035276Y003746D02*
X034294Y003746D01*
X034452Y003587D02*
X038530Y003587D01*
X038520Y003440D02*
X038520Y003432D01*
X038534Y003342D01*
X038562Y003255D01*
X038604Y003174D01*
X038658Y003100D01*
X038722Y003036D01*
X038796Y002982D01*
X038877Y002940D01*
X038964Y002912D01*
X039054Y002898D01*
X039062Y002898D01*
X039062Y003440D01*
X038520Y003440D01*
X038521Y003429D02*
X035922Y003429D01*
X036027Y003270D02*
X038558Y003270D01*
X038649Y003112D02*
X036060Y003112D01*
X036037Y002953D02*
X038853Y002953D01*
X039062Y002953D02*
X039138Y002953D01*
X039138Y002898D02*
X039146Y002898D01*
X039236Y002912D01*
X039323Y002940D01*
X039404Y002982D01*
X039478Y003036D01*
X039542Y003100D01*
X039596Y003174D01*
X039638Y003255D01*
X039666Y003342D01*
X039680Y003432D01*
X039680Y003440D01*
X039138Y003440D01*
X039138Y003516D01*
X039062Y003516D01*
X039062Y003440D01*
X039138Y003440D01*
X039138Y002898D01*
X039138Y003112D02*
X039062Y003112D01*
X039062Y003270D02*
X039138Y003270D01*
X039138Y003429D02*
X039062Y003429D01*
X039138Y003516D02*
X039680Y003516D01*
X039680Y003524D01*
X039666Y003614D01*
X039638Y003701D01*
X039596Y003782D01*
X039542Y003856D01*
X039478Y003920D01*
X039404Y003974D01*
X039323Y004015D01*
X039236Y004044D01*
X039146Y004058D01*
X039138Y004058D01*
X039138Y003516D01*
X039138Y003587D02*
X039062Y003587D01*
X039062Y003746D02*
X039138Y003746D01*
X039138Y003904D02*
X039062Y003904D01*
X039494Y003904D02*
X041360Y003904D01*
X041360Y003746D02*
X039615Y003746D01*
X039670Y003587D02*
X041360Y003587D01*
X041360Y003429D02*
X039679Y003429D01*
X039642Y003270D02*
X041360Y003270D01*
X041360Y003199D02*
X039001Y000840D01*
X025199Y000840D01*
X024896Y001143D01*
X025463Y001143D01*
X025557Y001237D01*
X025557Y001963D01*
X025463Y002057D01*
X024737Y002057D01*
X024643Y001963D01*
X024643Y001396D01*
X024557Y001483D01*
X024557Y001963D01*
X024463Y002057D01*
X023737Y002057D01*
X023643Y001963D01*
X023643Y001237D01*
X023737Y001143D01*
X024217Y001143D01*
X024761Y000600D01*
X000600Y000600D01*
X000600Y000734D02*
X024627Y000734D01*
X024468Y000893D02*
X000600Y000893D01*
X000600Y001051D02*
X024310Y001051D01*
X024557Y001527D02*
X024643Y001527D01*
X024643Y001685D02*
X024557Y001685D01*
X024557Y001844D02*
X024643Y001844D01*
X024682Y002002D02*
X024518Y002002D01*
X024466Y002135D02*
X024507Y002159D01*
X024541Y002193D01*
X024565Y002234D01*
X024577Y002279D01*
X024577Y002582D01*
X024118Y002582D01*
X024118Y002618D01*
X024082Y002618D01*
X024082Y003077D01*
X023779Y003077D01*
X023734Y003065D01*
X023693Y003041D01*
X023659Y003007D01*
X023635Y002966D01*
X023623Y002921D01*
X023623Y002618D01*
X024082Y002618D01*
X024082Y002582D01*
X024118Y002582D01*
X024118Y002123D01*
X024421Y002123D01*
X024466Y002135D01*
X024509Y002161D02*
X024720Y002161D01*
X024737Y002143D02*
X025463Y002143D01*
X025557Y002237D01*
X025557Y002963D01*
X025463Y003057D01*
X024737Y003057D01*
X024643Y002963D01*
X024643Y002237D01*
X024737Y002143D01*
X024643Y002319D02*
X024577Y002319D01*
X024577Y002478D02*
X024643Y002478D01*
X024577Y002618D02*
X024118Y002618D01*
X024118Y003077D01*
X024421Y003077D01*
X024466Y003065D01*
X024507Y003041D01*
X024541Y003007D01*
X024565Y002966D01*
X024577Y002921D01*
X024577Y002618D01*
X024577Y002636D02*
X024643Y002636D01*
X024643Y002795D02*
X024577Y002795D01*
X024568Y002953D02*
X024643Y002953D01*
X024118Y002953D02*
X024082Y002953D01*
X024082Y002795D02*
X024118Y002795D01*
X024118Y002636D02*
X024082Y002636D01*
X024082Y002582D02*
X023623Y002582D01*
X023623Y002279D01*
X023635Y002234D01*
X023659Y002193D01*
X023693Y002159D01*
X023734Y002135D01*
X023779Y002123D01*
X024082Y002123D01*
X024082Y002582D01*
X024082Y002478D02*
X024118Y002478D01*
X024118Y002319D02*
X024082Y002319D01*
X024082Y002161D02*
X024118Y002161D01*
X023691Y002161D02*
X023509Y002161D01*
X023507Y002159D02*
X023541Y002193D01*
X023565Y002234D01*
X023577Y002279D01*
X023577Y002582D01*
X023118Y002582D01*
X023118Y002618D01*
X023082Y002618D01*
X023082Y003077D01*
X022779Y003077D01*
X022734Y003065D01*
X022693Y003041D01*
X022659Y003007D01*
X022635Y002966D01*
X022623Y002921D01*
X022623Y002618D01*
X023082Y002618D01*
X023082Y002582D01*
X023118Y002582D01*
X023118Y002123D01*
X023421Y002123D01*
X023466Y002135D01*
X023507Y002159D01*
X023466Y002065D02*
X023507Y002041D01*
X023541Y002007D01*
X023565Y001966D01*
X023577Y001921D01*
X023577Y001618D01*
X023118Y001618D01*
X023082Y001618D01*
X023082Y002077D01*
X022779Y002077D01*
X022734Y002065D01*
X022693Y002041D01*
X022659Y002007D01*
X022635Y001966D01*
X022623Y001921D01*
X022623Y001618D01*
X023082Y001618D01*
X023082Y001582D01*
X023118Y001582D01*
X023118Y001618D01*
X023118Y002077D01*
X023421Y002077D01*
X023466Y002065D01*
X023544Y002002D02*
X023682Y002002D01*
X023643Y001844D02*
X023577Y001844D01*
X023577Y001685D02*
X023643Y001685D01*
X023577Y001582D02*
X023118Y001582D01*
X023118Y001123D01*
X023421Y001123D01*
X023466Y001135D01*
X023507Y001159D01*
X023541Y001193D01*
X023565Y001234D01*
X023577Y001279D01*
X023577Y001582D01*
X023577Y001527D02*
X023643Y001527D01*
X023643Y001368D02*
X023577Y001368D01*
X023551Y001210D02*
X023671Y001210D01*
X023118Y001210D02*
X023082Y001210D01*
X023082Y001123D02*
X023082Y001582D01*
X022623Y001582D01*
X022623Y001279D01*
X022635Y001234D01*
X022659Y001193D01*
X022693Y001159D01*
X022734Y001135D01*
X022779Y001123D01*
X023082Y001123D01*
X023082Y001368D02*
X023118Y001368D01*
X023118Y001527D02*
X023082Y001527D01*
X023082Y001685D02*
X023118Y001685D01*
X023118Y001844D02*
X023082Y001844D01*
X023082Y002002D02*
X023118Y002002D01*
X023082Y002123D02*
X023082Y002582D01*
X022623Y002582D01*
X022623Y002279D01*
X022635Y002234D01*
X022659Y002193D01*
X022693Y002159D01*
X022734Y002135D01*
X022779Y002123D01*
X023082Y002123D01*
X023082Y002161D02*
X023118Y002161D01*
X023118Y002319D02*
X023082Y002319D01*
X023082Y002478D02*
X023118Y002478D01*
X023118Y002618D02*
X023577Y002618D01*
X023577Y002921D01*
X023565Y002966D01*
X023541Y003007D01*
X023507Y003041D01*
X023466Y003065D01*
X023421Y003077D01*
X023118Y003077D01*
X023118Y002618D01*
X023118Y002636D02*
X023082Y002636D01*
X023082Y002795D02*
X023118Y002795D01*
X023118Y002953D02*
X023082Y002953D01*
X022632Y002953D02*
X022557Y002953D01*
X022557Y002795D02*
X022623Y002795D01*
X022623Y002636D02*
X022557Y002636D01*
X022557Y002478D02*
X022623Y002478D01*
X022623Y002319D02*
X022557Y002319D01*
X022480Y002161D02*
X022691Y002161D01*
X022656Y002002D02*
X022518Y002002D01*
X022557Y001963D02*
X022463Y002057D01*
X021737Y002057D01*
X021643Y001963D01*
X021643Y001237D01*
X021737Y001143D01*
X022463Y001143D01*
X022557Y001237D01*
X022557Y001963D01*
X022557Y001844D02*
X022623Y001844D01*
X022623Y001685D02*
X022557Y001685D01*
X022557Y001527D02*
X022623Y001527D01*
X022623Y001368D02*
X022557Y001368D01*
X022529Y001210D02*
X022649Y001210D01*
X021671Y001210D02*
X021529Y001210D01*
X021557Y001237D02*
X021557Y001963D01*
X021463Y002057D01*
X020737Y002057D01*
X020643Y001963D01*
X020643Y001237D01*
X020737Y001143D01*
X021463Y001143D01*
X021557Y001237D01*
X021557Y001368D02*
X021643Y001368D01*
X021643Y001527D02*
X021557Y001527D01*
X021557Y001685D02*
X021643Y001685D01*
X021643Y001844D02*
X021557Y001844D01*
X021518Y002002D02*
X021682Y002002D01*
X021720Y002161D02*
X021480Y002161D01*
X021463Y002143D02*
X021557Y002237D01*
X021557Y002963D01*
X021463Y003057D01*
X020737Y003057D01*
X020643Y002963D01*
X020643Y002237D01*
X020737Y002143D01*
X021463Y002143D01*
X021557Y002319D02*
X021643Y002319D01*
X021643Y002478D02*
X021557Y002478D01*
X021557Y002636D02*
X021643Y002636D01*
X021643Y002795D02*
X021557Y002795D01*
X021557Y002953D02*
X021643Y002953D01*
X021860Y003112D02*
X000600Y003112D01*
X000600Y003270D02*
X021860Y003270D01*
X021860Y003429D02*
X000600Y003429D01*
X000600Y003587D02*
X021860Y003587D01*
X021860Y003746D02*
X000600Y003746D01*
X000600Y003904D02*
X021860Y003904D01*
X021798Y004063D02*
X012365Y004063D01*
X012439Y004093D02*
X012219Y004002D01*
X011981Y004002D01*
X011761Y004093D01*
X011593Y004261D01*
X011502Y004481D01*
X011502Y004719D01*
X011593Y004939D01*
X011761Y005107D01*
X011981Y005198D01*
X012219Y005198D01*
X012439Y005107D01*
X012607Y004939D01*
X012698Y004719D01*
X012698Y004481D01*
X012607Y004261D01*
X012439Y004093D01*
X012567Y004221D02*
X021640Y004221D01*
X021600Y004600D02*
X022100Y004100D01*
X022100Y003100D01*
X022100Y002600D01*
X022100Y003100D02*
X022600Y003600D01*
X034100Y003600D01*
X034600Y003100D01*
X035600Y003100D01*
X035278Y003429D02*
X034611Y003429D01*
X034249Y003112D02*
X022451Y003112D01*
X022609Y003270D02*
X034091Y003270D01*
X034408Y002953D02*
X032557Y002953D01*
X032557Y002963D02*
X032463Y003057D01*
X031737Y003057D01*
X031643Y002963D01*
X031643Y002237D01*
X031737Y002143D01*
X032463Y002143D01*
X032557Y002237D01*
X032557Y002963D01*
X032557Y002795D02*
X035255Y002795D01*
X035339Y002490D02*
X035210Y002361D01*
X035140Y002191D01*
X035140Y002008D01*
X035210Y001839D01*
X035339Y001710D01*
X035508Y001640D01*
X035691Y001640D01*
X035861Y001710D01*
X035990Y001839D01*
X036060Y002008D01*
X036060Y002191D01*
X035990Y002361D01*
X035861Y002490D01*
X035691Y002560D01*
X035508Y002560D01*
X035339Y002490D01*
X035327Y002478D02*
X032557Y002478D01*
X032557Y002636D02*
X038610Y002636D01*
X038634Y002660D02*
X038540Y002566D01*
X038540Y001634D01*
X038634Y001540D01*
X039566Y001540D01*
X039660Y001634D01*
X039660Y002566D01*
X039566Y002660D01*
X038634Y002660D01*
X038540Y002478D02*
X035873Y002478D01*
X036007Y002319D02*
X038540Y002319D01*
X038540Y002161D02*
X036060Y002161D01*
X036057Y002002D02*
X038540Y002002D01*
X038540Y001844D02*
X035992Y001844D01*
X035800Y001685D02*
X038540Y001685D01*
X039212Y001051D02*
X024988Y001051D01*
X025147Y000893D02*
X039053Y000893D01*
X039100Y000600D02*
X041600Y003100D01*
X041600Y026100D01*
X040100Y027600D01*
X038550Y027600D01*
X038903Y027996D02*
X042100Y027996D01*
X042100Y027838D02*
X040154Y027838D01*
X040303Y027736D02*
X040303Y027736D01*
X040360Y027679D02*
X042100Y027679D01*
X042100Y027521D02*
X040519Y027521D01*
X040677Y027362D02*
X042100Y027362D01*
X042100Y027204D02*
X040836Y027204D01*
X040994Y027045D02*
X042100Y027045D01*
X042100Y026887D02*
X041153Y026887D01*
X041311Y026728D02*
X042100Y026728D01*
X042100Y026570D02*
X041470Y026570D01*
X041628Y026411D02*
X042100Y026411D01*
X042100Y026253D02*
X041787Y026253D01*
X041840Y026094D02*
X042100Y026094D01*
X042100Y025936D02*
X041840Y025936D01*
X041840Y025777D02*
X042100Y025777D01*
X042100Y025619D02*
X041840Y025619D01*
X041840Y025460D02*
X042100Y025460D01*
X042100Y025302D02*
X041840Y025302D01*
X041840Y025143D02*
X042100Y025143D01*
X042100Y024985D02*
X041840Y024985D01*
X041840Y024826D02*
X042100Y024826D01*
X042100Y024668D02*
X041840Y024668D01*
X041840Y024509D02*
X042100Y024509D01*
X042100Y024351D02*
X041840Y024351D01*
X041840Y024192D02*
X042100Y024192D01*
X042100Y024034D02*
X041840Y024034D01*
X041840Y023875D02*
X042100Y023875D01*
X042100Y023717D02*
X041840Y023717D01*
X041840Y023558D02*
X042100Y023558D01*
X042100Y023400D02*
X041840Y023400D01*
X041840Y023241D02*
X042100Y023241D01*
X042100Y023083D02*
X041840Y023083D01*
X041840Y022924D02*
X042100Y022924D01*
X042100Y022766D02*
X041840Y022766D01*
X041840Y022607D02*
X042100Y022607D01*
X042100Y022449D02*
X041840Y022449D01*
X041840Y022290D02*
X042100Y022290D01*
X042100Y022132D02*
X041840Y022132D01*
X041840Y021973D02*
X042100Y021973D01*
X042100Y021815D02*
X041840Y021815D01*
X041840Y021656D02*
X042100Y021656D01*
X042100Y021498D02*
X041840Y021498D01*
X041840Y021339D02*
X042100Y021339D01*
X042100Y021181D02*
X041840Y021181D01*
X041840Y021022D02*
X042100Y021022D01*
X042100Y020864D02*
X041840Y020864D01*
X041840Y020705D02*
X042100Y020705D01*
X042100Y020547D02*
X041840Y020547D01*
X041840Y020388D02*
X042100Y020388D01*
X042100Y020230D02*
X041840Y020230D01*
X041840Y020071D02*
X042100Y020071D01*
X042100Y019913D02*
X041840Y019913D01*
X041840Y019754D02*
X042100Y019754D01*
X042100Y019596D02*
X041840Y019596D01*
X041840Y019437D02*
X042100Y019437D01*
X042100Y019279D02*
X041840Y019279D01*
X041840Y019120D02*
X042100Y019120D01*
X042100Y018962D02*
X041840Y018962D01*
X041840Y018803D02*
X042100Y018803D01*
X042100Y018645D02*
X041840Y018645D01*
X041840Y018486D02*
X042100Y018486D01*
X042100Y018328D02*
X041840Y018328D01*
X041840Y018169D02*
X042100Y018169D01*
X042100Y018011D02*
X041840Y018011D01*
X041840Y017852D02*
X042100Y017852D01*
X042100Y017694D02*
X041840Y017694D01*
X041840Y017535D02*
X042100Y017535D01*
X042100Y017377D02*
X041840Y017377D01*
X041840Y017218D02*
X042100Y017218D01*
X042100Y017060D02*
X041840Y017060D01*
X041840Y016901D02*
X042100Y016901D01*
X042100Y016743D02*
X041840Y016743D01*
X041840Y016584D02*
X042100Y016584D01*
X042100Y016426D02*
X041840Y016426D01*
X041840Y016267D02*
X042100Y016267D01*
X042100Y016109D02*
X041840Y016109D01*
X041840Y015950D02*
X042100Y015950D01*
X042100Y015792D02*
X041840Y015792D01*
X041840Y015633D02*
X042100Y015633D01*
X042100Y015475D02*
X041840Y015475D01*
X041840Y015316D02*
X042100Y015316D01*
X042100Y015158D02*
X041840Y015158D01*
X041840Y014999D02*
X042100Y014999D01*
X042100Y014841D02*
X041840Y014841D01*
X041840Y014682D02*
X042100Y014682D01*
X042100Y014524D02*
X041840Y014524D01*
X041840Y014365D02*
X042100Y014365D01*
X042100Y014207D02*
X041840Y014207D01*
X041840Y014048D02*
X042100Y014048D01*
X042100Y013890D02*
X041840Y013890D01*
X041840Y013731D02*
X042100Y013731D01*
X042100Y013573D02*
X041840Y013573D01*
X041840Y013414D02*
X042100Y013414D01*
X042100Y013256D02*
X041840Y013256D01*
X041840Y013097D02*
X042100Y013097D01*
X042100Y012939D02*
X041840Y012939D01*
X041840Y012780D02*
X042100Y012780D01*
X042100Y012622D02*
X041840Y012622D01*
X041840Y012463D02*
X042100Y012463D01*
X042100Y012305D02*
X041840Y012305D01*
X041840Y012146D02*
X042100Y012146D01*
X042100Y011988D02*
X041840Y011988D01*
X041840Y011829D02*
X042100Y011829D01*
X042100Y011671D02*
X041840Y011671D01*
X041840Y011512D02*
X042100Y011512D01*
X042100Y011354D02*
X041840Y011354D01*
X041840Y011195D02*
X042100Y011195D01*
X042100Y011037D02*
X041840Y011037D01*
X041840Y010878D02*
X042100Y010878D01*
X042100Y010720D02*
X041840Y010720D01*
X041840Y010561D02*
X042100Y010561D01*
X042100Y010403D02*
X041840Y010403D01*
X041840Y010244D02*
X042100Y010244D01*
X042100Y010086D02*
X041840Y010086D01*
X041840Y009927D02*
X042100Y009927D01*
X042100Y009769D02*
X041840Y009769D01*
X041840Y009610D02*
X042100Y009610D01*
X042100Y009452D02*
X041840Y009452D01*
X041840Y009293D02*
X042100Y009293D01*
X042100Y009135D02*
X041840Y009135D01*
X041840Y008976D02*
X042100Y008976D01*
X042100Y008818D02*
X041840Y008818D01*
X041840Y008659D02*
X042100Y008659D01*
X042100Y008501D02*
X041840Y008501D01*
X041840Y008342D02*
X042100Y008342D01*
X042100Y008184D02*
X041840Y008184D01*
X041840Y008025D02*
X042100Y008025D01*
X042100Y007867D02*
X041840Y007867D01*
X041840Y007708D02*
X042100Y007708D01*
X042100Y007550D02*
X041840Y007550D01*
X041840Y007391D02*
X042100Y007391D01*
X042100Y007233D02*
X041840Y007233D01*
X041840Y007074D02*
X042100Y007074D01*
X042100Y006916D02*
X041840Y006916D01*
X041840Y006757D02*
X042100Y006757D01*
X042100Y006599D02*
X041840Y006599D01*
X041840Y006440D02*
X042100Y006440D01*
X042100Y006282D02*
X041840Y006282D01*
X041840Y006123D02*
X042100Y006123D01*
X042100Y005965D02*
X041840Y005965D01*
X041840Y005806D02*
X042100Y005806D01*
X042100Y005648D02*
X041840Y005648D01*
X041840Y005489D02*
X042100Y005489D01*
X042100Y005331D02*
X041840Y005331D01*
X041840Y005172D02*
X042100Y005172D01*
X042100Y005014D02*
X041840Y005014D01*
X041840Y004855D02*
X042100Y004855D01*
X042100Y004697D02*
X041840Y004697D01*
X041840Y004538D02*
X042100Y004538D01*
X042100Y004380D02*
X041840Y004380D01*
X041840Y004221D02*
X042100Y004221D01*
X042100Y004063D02*
X041840Y004063D01*
X041840Y003904D02*
X042100Y003904D01*
X042100Y003746D02*
X041840Y003746D01*
X041840Y003587D02*
X042100Y003587D01*
X042100Y003429D02*
X041840Y003429D01*
X041840Y003270D02*
X042100Y003270D01*
X042100Y003112D02*
X041840Y003112D01*
X041792Y002953D02*
X042100Y002953D01*
X042100Y002795D02*
X041634Y002795D01*
X041475Y002636D02*
X042100Y002636D01*
X042100Y002478D02*
X041317Y002478D01*
X041158Y002319D02*
X042100Y002319D01*
X042100Y002161D02*
X041000Y002161D01*
X040841Y002002D02*
X042100Y002002D01*
X042100Y001844D02*
X040683Y001844D01*
X040524Y001685D02*
X042100Y001685D01*
X042100Y001527D02*
X040366Y001527D01*
X040207Y001368D02*
X042100Y001368D01*
X042100Y001210D02*
X040049Y001210D01*
X039890Y001051D02*
X042100Y001051D01*
X042100Y000893D02*
X039732Y000893D01*
X039573Y000734D02*
X042100Y000734D01*
X040321Y002161D02*
X039660Y002161D01*
X039660Y002319D02*
X040480Y002319D01*
X040638Y002478D02*
X039660Y002478D01*
X039590Y002636D02*
X040797Y002636D01*
X040955Y002795D02*
X035945Y002795D01*
X035193Y002319D02*
X032557Y002319D01*
X032480Y002161D02*
X035140Y002161D01*
X035143Y002002D02*
X032518Y002002D01*
X032557Y001963D02*
X032463Y002057D01*
X031737Y002057D01*
X031643Y001963D01*
X031643Y001237D01*
X031737Y001143D01*
X032463Y001143D01*
X032557Y001237D01*
X032557Y001963D01*
X032557Y001844D02*
X035208Y001844D01*
X035400Y001685D02*
X032557Y001685D01*
X032557Y001527D02*
X039687Y001527D01*
X039660Y001685D02*
X039846Y001685D01*
X040004Y001844D02*
X039660Y001844D01*
X039660Y002002D02*
X040163Y002002D01*
X039529Y001368D02*
X032557Y001368D01*
X032529Y001210D02*
X039370Y001210D01*
X039100Y000600D02*
X025100Y000600D01*
X024100Y001600D01*
X023623Y002319D02*
X023577Y002319D01*
X023577Y002478D02*
X023623Y002478D01*
X023623Y002636D02*
X023577Y002636D01*
X023577Y002795D02*
X023623Y002795D01*
X023632Y002953D02*
X023568Y002953D01*
X022406Y003746D02*
X022340Y003746D01*
X021286Y004380D02*
X012656Y004380D01*
X012698Y004538D02*
X021222Y004538D01*
X021231Y004697D02*
X012698Y004697D01*
X012642Y004855D02*
X021321Y004855D01*
X021879Y004855D02*
X027311Y004855D01*
X027227Y005014D02*
X012532Y005014D01*
X012282Y005172D02*
X027222Y005172D01*
X027296Y005331D02*
X000600Y005331D01*
X000600Y005489D02*
X027650Y005489D01*
X027808Y005648D02*
X000600Y005648D01*
X000600Y005806D02*
X027967Y005806D01*
X028125Y005965D02*
X000600Y005965D01*
X000600Y006123D02*
X028284Y006123D01*
X028442Y006282D02*
X000600Y006282D01*
X000600Y006440D02*
X028601Y006440D01*
X028759Y006599D02*
X000600Y006599D01*
X000600Y006757D02*
X028918Y006757D01*
X029076Y006916D02*
X000600Y006916D01*
X000600Y007074D02*
X029235Y007074D01*
X029393Y007233D02*
X000600Y007233D01*
X000600Y007391D02*
X029552Y007391D01*
X029710Y007550D02*
X000600Y007550D01*
X000600Y007708D02*
X029869Y007708D01*
X030027Y007867D02*
X000600Y007867D01*
X000600Y008025D02*
X030186Y008025D01*
X030344Y008184D02*
X000600Y008184D01*
X000600Y008342D02*
X030503Y008342D01*
X030661Y008501D02*
X000600Y008501D01*
X000600Y008659D02*
X030820Y008659D01*
X030978Y008818D02*
X000600Y008818D01*
X000600Y008976D02*
X031137Y008976D01*
X031295Y009135D02*
X000600Y009135D01*
X000600Y009293D02*
X031454Y009293D01*
X031657Y008818D02*
X038070Y008818D01*
X038070Y008659D02*
X031498Y008659D01*
X031340Y008501D02*
X038070Y008501D01*
X038108Y008342D02*
X031181Y008342D01*
X031023Y008184D02*
X038267Y008184D01*
X038247Y008025D02*
X030864Y008025D01*
X030706Y007867D02*
X038089Y007867D01*
X038050Y007708D02*
X030547Y007708D01*
X030389Y007550D02*
X038050Y007550D01*
X038050Y007391D02*
X030230Y007391D01*
X030072Y007233D02*
X038190Y007233D01*
X038348Y007074D02*
X029913Y007074D01*
X029755Y006916D02*
X041360Y006916D01*
X041360Y007074D02*
X039852Y007074D01*
X039828Y007050D02*
X040150Y007372D01*
X040150Y007580D01*
X039620Y007580D01*
X039620Y007620D01*
X040150Y007620D01*
X040150Y007828D01*
X039878Y008100D01*
X040150Y008372D01*
X040150Y008580D01*
X039620Y008580D01*
X039620Y007620D01*
X039580Y007620D01*
X039580Y007580D01*
X039620Y007580D01*
X039620Y007050D01*
X039828Y007050D01*
X039620Y007074D02*
X039580Y007074D01*
X039580Y007050D02*
X039580Y007580D01*
X039050Y007580D01*
X038620Y007580D01*
X038620Y007050D01*
X038828Y007050D01*
X039100Y007322D01*
X039372Y007050D01*
X039580Y007050D01*
X039580Y007233D02*
X039620Y007233D01*
X039620Y007391D02*
X039580Y007391D01*
X039580Y007550D02*
X039620Y007550D01*
X039620Y007708D02*
X039580Y007708D01*
X039580Y007867D02*
X039620Y007867D01*
X039620Y008025D02*
X039580Y008025D01*
X039580Y008184D02*
X039620Y008184D01*
X039620Y008342D02*
X039580Y008342D01*
X039580Y008501D02*
X039620Y008501D01*
X039620Y008620D02*
X039580Y008620D01*
X039580Y009150D01*
X039580Y009580D01*
X039620Y009580D01*
X039620Y008620D01*
X039620Y008659D02*
X039580Y008659D01*
X039580Y008818D02*
X039620Y008818D01*
X039620Y008976D02*
X039580Y008976D01*
X039580Y009135D02*
X039620Y009135D01*
X039620Y009293D02*
X039580Y009293D01*
X039580Y009452D02*
X039620Y009452D01*
X039620Y009610D02*
X041360Y009610D01*
X041360Y009452D02*
X040150Y009452D01*
X040071Y009293D02*
X041360Y009293D01*
X041360Y009135D02*
X039912Y009135D01*
X040002Y008976D02*
X041360Y008976D01*
X041360Y008818D02*
X040150Y008818D01*
X040150Y008659D02*
X041360Y008659D01*
X041360Y008501D02*
X040150Y008501D01*
X040120Y008342D02*
X041360Y008342D01*
X041360Y008184D02*
X039961Y008184D01*
X039953Y008025D02*
X041360Y008025D01*
X041360Y007867D02*
X040111Y007867D01*
X040150Y007708D02*
X041360Y007708D01*
X041360Y007550D02*
X040150Y007550D01*
X040150Y007391D02*
X041360Y007391D01*
X041360Y007233D02*
X040010Y007233D01*
X039348Y007074D02*
X038852Y007074D01*
X039010Y007233D02*
X039190Y007233D01*
X038620Y007233D02*
X038580Y007233D01*
X038580Y007391D02*
X038620Y007391D01*
X038620Y007550D02*
X038580Y007550D01*
X038600Y007600D02*
X037600Y007600D01*
X037100Y008100D01*
X037100Y009970D01*
X037138Y009932D02*
X037138Y009554D01*
X037517Y009554D01*
X037563Y009566D01*
X037604Y009590D01*
X037638Y009623D01*
X037661Y009664D01*
X037674Y009710D01*
X037674Y009932D01*
X037138Y009932D01*
X037062Y009932D01*
X037062Y009554D01*
X036683Y009554D01*
X036637Y009566D01*
X036596Y009590D01*
X036562Y009623D01*
X036539Y009664D01*
X036526Y009710D01*
X036526Y009932D01*
X037062Y009932D01*
X037062Y010008D01*
X036526Y010008D01*
X036526Y010230D01*
X036539Y010276D01*
X036562Y010317D01*
X036596Y010350D01*
X036637Y010374D01*
X036683Y010386D01*
X037062Y010386D01*
X037062Y010008D01*
X037138Y010008D01*
X037674Y010008D01*
X037674Y010230D01*
X037661Y010276D01*
X037638Y010317D01*
X037604Y010350D01*
X037563Y010374D01*
X037517Y010386D01*
X037138Y010386D01*
X037138Y010008D01*
X037138Y009932D01*
X037138Y009927D02*
X037062Y009927D01*
X037062Y009769D02*
X037138Y009769D01*
X037138Y009610D02*
X037062Y009610D01*
X037062Y010086D02*
X037138Y010086D01*
X037138Y010244D02*
X037062Y010244D01*
X036530Y010244D02*
X034583Y010244D01*
X034425Y010086D02*
X036526Y010086D01*
X036526Y009927D02*
X034266Y009927D01*
X034108Y009769D02*
X036526Y009769D01*
X036576Y009610D02*
X033949Y009610D01*
X033791Y009452D02*
X038070Y009452D01*
X038070Y009610D02*
X037624Y009610D01*
X037674Y009769D02*
X038070Y009769D01*
X038177Y009927D02*
X037674Y009927D01*
X037674Y010086D02*
X038336Y010086D01*
X038206Y010244D02*
X037670Y010244D01*
X038070Y010403D02*
X034742Y010403D01*
X034900Y010561D02*
X038070Y010561D01*
X038070Y010720D02*
X035059Y010720D01*
X034697Y011037D02*
X000600Y011037D01*
X000600Y011195D02*
X034856Y011195D01*
X034539Y010878D02*
X000600Y010878D01*
X000600Y010720D02*
X034380Y010720D01*
X034222Y010561D02*
X000600Y010561D01*
X000600Y010403D02*
X034063Y010403D01*
X033905Y010244D02*
X000600Y010244D01*
X000600Y010086D02*
X033746Y010086D01*
X033588Y009927D02*
X000600Y009927D01*
X000600Y009769D02*
X033429Y009769D01*
X033271Y009610D02*
X000600Y009610D01*
X000600Y009452D02*
X033112Y009452D01*
X033474Y009135D02*
X038316Y009135D01*
X038226Y008976D02*
X033315Y008976D01*
X033632Y009293D02*
X038157Y009293D01*
X039580Y009620D02*
X039580Y010150D01*
X039580Y010580D01*
X039620Y010580D01*
X039620Y009620D01*
X039580Y009620D01*
X039580Y009769D02*
X039620Y009769D01*
X039620Y009927D02*
X039580Y009927D01*
X039580Y010086D02*
X039620Y010086D01*
X039620Y010244D02*
X039580Y010244D01*
X039580Y010403D02*
X039620Y010403D01*
X039620Y010561D02*
X039580Y010561D01*
X039600Y010600D02*
X040100Y010600D01*
X040600Y011100D01*
X040600Y014600D01*
X039100Y016100D01*
X039100Y016994D01*
X039600Y017494D01*
X040317Y017494D01*
X040817Y017494D01*
X040817Y017533D01*
X040804Y017611D01*
X040780Y017686D01*
X040744Y017756D01*
X040698Y017819D01*
X040642Y017875D01*
X040579Y017921D01*
X040508Y017957D01*
X040434Y017981D01*
X040356Y017994D01*
X040317Y017994D01*
X040317Y017494D01*
X040317Y017494D01*
X040317Y017494D01*
X040817Y017494D01*
X040817Y017454D01*
X040804Y017377D01*
X040780Y017302D01*
X040744Y017232D01*
X040698Y017168D01*
X040642Y017112D01*
X040612Y017090D01*
X040723Y016978D01*
X040797Y016802D01*
X040797Y016611D01*
X040723Y016434D01*
X040588Y016299D01*
X040412Y016226D01*
X040221Y016226D01*
X040045Y016299D01*
X039910Y016434D01*
X039837Y016611D01*
X039837Y016802D01*
X039910Y016978D01*
X040021Y017090D01*
X039991Y017112D01*
X039935Y017168D01*
X039889Y017232D01*
X039853Y017302D01*
X039829Y017377D01*
X039817Y017454D01*
X039817Y017494D01*
X040317Y017494D01*
X040317Y017994D01*
X040277Y017994D01*
X040199Y017981D01*
X040125Y017957D01*
X040054Y017921D01*
X039991Y017875D01*
X039935Y017819D01*
X039889Y017756D01*
X039853Y017686D01*
X039829Y017611D01*
X039817Y017533D01*
X039817Y017494D01*
X040317Y017494D01*
X040317Y017494D01*
X040317Y017535D02*
X040317Y017535D01*
X040317Y017694D02*
X040317Y017694D01*
X040317Y017852D02*
X040317Y017852D01*
X040665Y017852D02*
X041360Y017852D01*
X041360Y017694D02*
X040776Y017694D01*
X040816Y017535D02*
X041360Y017535D01*
X041360Y017377D02*
X040804Y017377D01*
X040734Y017218D02*
X041360Y017218D01*
X041360Y017060D02*
X040642Y017060D01*
X040755Y016901D02*
X041360Y016901D01*
X041360Y016743D02*
X040797Y016743D01*
X040785Y016584D02*
X041360Y016584D01*
X041360Y016426D02*
X040715Y016426D01*
X040510Y016267D02*
X041360Y016267D01*
X041360Y016109D02*
X026931Y016109D01*
X026772Y016267D02*
X035123Y016267D01*
X035045Y016299D02*
X035221Y016226D01*
X035412Y016226D01*
X035588Y016299D01*
X035723Y016434D01*
X035797Y016611D01*
X035797Y016802D01*
X035723Y016978D01*
X035612Y017090D01*
X035642Y017112D01*
X035698Y017168D01*
X035744Y017232D01*
X035780Y017302D01*
X035804Y017377D01*
X035817Y017454D01*
X035817Y017494D01*
X035817Y017533D01*
X035804Y017611D01*
X035780Y017686D01*
X035744Y017756D01*
X035698Y017819D01*
X035642Y017875D01*
X035579Y017921D01*
X035508Y017957D01*
X035434Y017981D01*
X035356Y017994D01*
X035317Y017994D01*
X035317Y017494D01*
X035817Y017494D01*
X035317Y017494D01*
X035317Y017494D01*
X035317Y017494D01*
X035317Y017994D01*
X035277Y017994D01*
X035199Y017981D01*
X035125Y017957D01*
X035054Y017921D01*
X034991Y017875D01*
X034935Y017819D01*
X034889Y017756D01*
X034853Y017686D01*
X034829Y017611D01*
X034817Y017533D01*
X034817Y017494D01*
X035317Y017494D01*
X035317Y017494D01*
X034817Y017494D01*
X034817Y017454D01*
X034829Y017377D01*
X034853Y017302D01*
X034889Y017232D01*
X034935Y017168D01*
X034991Y017112D01*
X035021Y017090D01*
X034910Y016978D01*
X034837Y016802D01*
X034837Y016611D01*
X034910Y016434D01*
X035045Y016299D01*
X034918Y016426D02*
X026614Y016426D01*
X026455Y016584D02*
X034848Y016584D01*
X034837Y016743D02*
X026297Y016743D01*
X026138Y016901D02*
X034878Y016901D01*
X034991Y017060D02*
X025980Y017060D01*
X025821Y017218D02*
X034899Y017218D01*
X034829Y017377D02*
X025663Y017377D01*
X025504Y017535D02*
X034817Y017535D01*
X034857Y017694D02*
X025346Y017694D01*
X025187Y017852D02*
X034968Y017852D01*
X035317Y017852D02*
X035317Y017852D01*
X035317Y017694D02*
X035317Y017694D01*
X035317Y017535D02*
X035317Y017535D01*
X035665Y017852D02*
X037468Y017852D01*
X037491Y017875D02*
X037435Y017819D01*
X037389Y017756D01*
X037353Y017686D01*
X037329Y017611D01*
X037317Y017533D01*
X037317Y017494D01*
X037817Y017494D01*
X038317Y017494D01*
X038317Y017533D01*
X038304Y017611D01*
X038280Y017686D01*
X038244Y017756D01*
X038198Y017819D01*
X038142Y017875D01*
X038079Y017921D01*
X038008Y017957D01*
X037934Y017981D01*
X037856Y017994D01*
X037817Y017994D01*
X037817Y017494D01*
X037817Y017494D01*
X037817Y017494D01*
X038317Y017494D01*
X038317Y017454D01*
X038304Y017377D01*
X038280Y017302D01*
X038244Y017232D01*
X038198Y017168D01*
X038142Y017112D01*
X038112Y017090D01*
X038223Y016978D01*
X038297Y016802D01*
X038297Y016611D01*
X038223Y016434D01*
X038088Y016299D01*
X037912Y016226D01*
X037721Y016226D01*
X037545Y016299D01*
X037410Y016434D01*
X037337Y016611D01*
X037337Y016802D01*
X037410Y016978D01*
X037521Y017090D01*
X037491Y017112D01*
X037435Y017168D01*
X037389Y017232D01*
X037353Y017302D01*
X037329Y017377D01*
X037317Y017454D01*
X037317Y017494D01*
X037817Y017494D01*
X037817Y017994D01*
X037777Y017994D01*
X037699Y017981D01*
X037625Y017957D01*
X037554Y017921D01*
X037491Y017875D01*
X037357Y017694D02*
X035776Y017694D01*
X035816Y017535D02*
X037317Y017535D01*
X037329Y017377D02*
X035804Y017377D01*
X035734Y017218D02*
X037399Y017218D01*
X037491Y017060D02*
X035642Y017060D01*
X035755Y016901D02*
X037378Y016901D01*
X037337Y016743D02*
X035797Y016743D01*
X035785Y016584D02*
X037348Y016584D01*
X037418Y016426D02*
X035715Y016426D01*
X035510Y016267D02*
X037623Y016267D01*
X038010Y016267D02*
X040123Y016267D01*
X039918Y016426D02*
X038215Y016426D01*
X038285Y016584D02*
X039848Y016584D01*
X039837Y016743D02*
X038297Y016743D01*
X038255Y016901D02*
X039878Y016901D01*
X039991Y017060D02*
X038142Y017060D01*
X038234Y017218D02*
X039899Y017218D01*
X039829Y017377D02*
X038304Y017377D01*
X038316Y017535D02*
X039817Y017535D01*
X039857Y017694D02*
X038276Y017694D01*
X038165Y017852D02*
X039968Y017852D01*
X041360Y018011D02*
X025029Y018011D01*
X024870Y018169D02*
X041360Y018169D01*
X041360Y018328D02*
X024712Y018328D01*
X024553Y018486D02*
X041360Y018486D01*
X041360Y018645D02*
X033490Y018645D01*
X033439Y018593D02*
X033607Y018761D01*
X033698Y018981D01*
X033698Y019219D01*
X033607Y019439D01*
X033439Y019607D01*
X033219Y019698D01*
X032981Y019698D01*
X032761Y019607D01*
X032593Y019439D01*
X032502Y019219D01*
X032502Y018981D01*
X032593Y018761D01*
X032761Y018593D01*
X032981Y018502D01*
X033219Y018502D01*
X033439Y018593D01*
X033624Y018803D02*
X041360Y018803D01*
X041360Y018962D02*
X033690Y018962D01*
X033698Y019120D02*
X041360Y019120D01*
X041360Y019279D02*
X033673Y019279D01*
X033608Y019437D02*
X041360Y019437D01*
X041360Y019596D02*
X033450Y019596D01*
X032750Y019596D02*
X023444Y019596D01*
X023285Y019754D02*
X041360Y019754D01*
X041360Y019913D02*
X019127Y019913D01*
X018968Y020071D02*
X041360Y020071D01*
X041360Y020230D02*
X018810Y020230D01*
X018651Y020388D02*
X041360Y020388D01*
X041360Y020547D02*
X018493Y020547D01*
X018334Y020705D02*
X041360Y020705D01*
X041360Y020864D02*
X018176Y020864D01*
X018017Y021022D02*
X041360Y021022D01*
X041360Y021181D02*
X038880Y021181D01*
X038850Y021151D02*
X038999Y021300D01*
X039080Y021495D01*
X039080Y021705D01*
X038999Y021900D01*
X038850Y022049D01*
X038800Y022070D01*
X038861Y022090D01*
X038938Y022130D01*
X039008Y022180D01*
X039070Y022242D01*
X039120Y022312D01*
X039160Y022389D01*
X039186Y022471D01*
X039200Y022557D01*
X039200Y022580D01*
X038670Y022580D01*
X038670Y022620D01*
X039200Y022620D01*
X039200Y022643D01*
X039186Y022729D01*
X039160Y022811D01*
X039120Y022888D01*
X039070Y022958D01*
X039008Y023020D01*
X038938Y023070D01*
X038861Y023110D01*
X038800Y023130D01*
X038850Y023151D01*
X038999Y023300D01*
X039080Y023495D01*
X039080Y023705D01*
X038999Y023900D01*
X038850Y024049D01*
X038778Y024079D01*
X038950Y024151D01*
X039099Y024300D01*
X039180Y024495D01*
X039180Y024705D01*
X039099Y024900D01*
X038950Y025049D01*
X038778Y025121D01*
X038850Y025151D01*
X038999Y025300D01*
X039080Y025495D01*
X039080Y025705D01*
X038999Y025900D01*
X038850Y026049D01*
X038778Y026079D01*
X038950Y026151D01*
X039099Y026300D01*
X039180Y026495D01*
X039180Y026705D01*
X039099Y026900D01*
X038950Y027049D01*
X038778Y027121D01*
X038850Y027151D01*
X038999Y027300D01*
X039024Y027360D01*
X040001Y027360D01*
X041360Y026001D01*
X041360Y003199D01*
X041272Y003112D02*
X039551Y003112D01*
X039347Y002953D02*
X041114Y002953D01*
X041360Y005014D02*
X027973Y005014D01*
X028011Y005172D02*
X041360Y005172D01*
X041360Y005331D02*
X028170Y005331D01*
X028328Y005489D02*
X041360Y005489D01*
X041360Y005648D02*
X028487Y005648D01*
X028645Y005806D02*
X041360Y005806D01*
X041360Y005965D02*
X028804Y005965D01*
X028962Y006123D02*
X041360Y006123D01*
X041360Y006282D02*
X029121Y006282D01*
X029279Y006440D02*
X041360Y006440D01*
X041360Y006599D02*
X029438Y006599D01*
X029596Y006757D02*
X041360Y006757D01*
X038620Y007074D02*
X038580Y007074D01*
X040150Y009769D02*
X041360Y009769D01*
X041360Y009927D02*
X040051Y009927D01*
X039892Y010086D02*
X041360Y010086D01*
X041360Y010244D02*
X040022Y010244D01*
X040150Y010403D02*
X041360Y010403D01*
X041360Y010561D02*
X040150Y010561D01*
X040150Y010720D02*
X041360Y010720D01*
X041360Y010878D02*
X040100Y010878D01*
X039941Y011037D02*
X041360Y011037D01*
X041360Y011195D02*
X039945Y011195D01*
X040103Y011354D02*
X041360Y011354D01*
X041360Y011512D02*
X040130Y011512D01*
X040130Y011671D02*
X041360Y011671D01*
X041360Y011829D02*
X040121Y011829D01*
X039962Y011988D02*
X041360Y011988D01*
X041360Y012146D02*
X039393Y012146D01*
X039235Y012305D02*
X041360Y012305D01*
X041360Y012463D02*
X039076Y012463D01*
X038715Y012146D02*
X037985Y012146D01*
X037827Y011988D02*
X038238Y011988D01*
X038079Y011829D02*
X037668Y011829D01*
X037510Y011671D02*
X038070Y011671D01*
X038070Y011512D02*
X037654Y011512D01*
X037654Y011354D02*
X038097Y011354D01*
X038255Y011195D02*
X037654Y011195D01*
X037654Y011037D02*
X038287Y011037D01*
X038128Y010878D02*
X037604Y010878D01*
X036869Y011671D02*
X036510Y011671D01*
X036546Y011512D02*
X036351Y011512D01*
X036546Y011354D02*
X000600Y011354D01*
X000600Y011512D02*
X028849Y011512D01*
X028690Y011671D02*
X000600Y011671D01*
X000600Y011829D02*
X028532Y011829D01*
X028373Y011988D02*
X000600Y011988D01*
X000600Y012146D02*
X028215Y012146D01*
X028056Y012305D02*
X000600Y012305D01*
X000600Y012463D02*
X027898Y012463D01*
X027739Y012622D02*
X000600Y012622D01*
X000600Y012780D02*
X027581Y012780D01*
X027422Y012939D02*
X000600Y012939D01*
X000600Y013097D02*
X027264Y013097D01*
X027105Y013256D02*
X000600Y013256D01*
X000600Y013414D02*
X026947Y013414D01*
X026788Y013573D02*
X000600Y013573D01*
X000600Y013731D02*
X026630Y013731D01*
X026471Y013890D02*
X000600Y013890D01*
X000600Y014048D02*
X026313Y014048D01*
X026154Y014207D02*
X000600Y014207D01*
X000600Y014365D02*
X025996Y014365D01*
X025837Y014524D02*
X000600Y014524D01*
X000600Y014682D02*
X025679Y014682D01*
X025520Y014841D02*
X000600Y014841D01*
X000600Y014999D02*
X025362Y014999D01*
X025203Y015158D02*
X000600Y015158D01*
X000600Y015316D02*
X025045Y015316D01*
X024886Y015475D02*
X000600Y015475D01*
X000600Y015633D02*
X024728Y015633D01*
X024569Y015792D02*
X000600Y015792D01*
X000600Y015950D02*
X024411Y015950D01*
X024252Y016109D02*
X000600Y016109D01*
X000600Y016267D02*
X024094Y016267D01*
X023935Y016426D02*
X000600Y016426D01*
X000600Y016584D02*
X023777Y016584D01*
X023618Y016743D02*
X000600Y016743D01*
X000600Y016901D02*
X023460Y016901D01*
X023301Y017060D02*
X000600Y017060D01*
X000600Y017218D02*
X023143Y017218D01*
X022984Y017377D02*
X000600Y017377D01*
X000600Y017535D02*
X022826Y017535D01*
X022667Y017694D02*
X000600Y017694D01*
X000600Y017852D02*
X022509Y017852D01*
X022350Y018011D02*
X000600Y018011D01*
X000600Y018169D02*
X022192Y018169D01*
X022033Y018328D02*
X000600Y018328D01*
X000600Y018486D02*
X017875Y018486D01*
X017716Y018645D02*
X000600Y018645D01*
X000600Y018803D02*
X017558Y018803D01*
X017399Y018962D02*
X000600Y018962D01*
X000600Y019120D02*
X017241Y019120D01*
X017082Y019279D02*
X000600Y019279D01*
X000600Y019437D02*
X016924Y019437D01*
X016765Y019596D02*
X000600Y019596D01*
X000600Y019754D02*
X016607Y019754D01*
X016448Y019913D02*
X000600Y019913D01*
X000600Y020071D02*
X016290Y020071D01*
X016131Y020230D02*
X000600Y020230D01*
X000600Y020388D02*
X015973Y020388D01*
X015814Y020547D02*
X000600Y020547D01*
X000600Y020705D02*
X015656Y020705D01*
X015497Y020864D02*
X000600Y020864D01*
X000600Y021022D02*
X015339Y021022D01*
X015180Y021181D02*
X000600Y021181D01*
X000600Y021339D02*
X015022Y021339D01*
X014863Y021498D02*
X000600Y021498D01*
X000600Y021656D02*
X014705Y021656D01*
X014546Y021815D02*
X000600Y021815D01*
X000600Y021973D02*
X014388Y021973D01*
X014229Y022132D02*
X000600Y022132D01*
X000600Y022290D02*
X014071Y022290D01*
X013912Y022449D02*
X000600Y022449D01*
X000600Y022607D02*
X013754Y022607D01*
X013595Y022766D02*
X000600Y022766D01*
X000600Y022924D02*
X013437Y022924D01*
X013278Y023083D02*
X000600Y023083D01*
X000600Y023241D02*
X013120Y023241D01*
X012961Y023400D02*
X000600Y023400D01*
X000600Y023558D02*
X012803Y023558D01*
X012638Y023717D02*
X000600Y023717D01*
X000600Y023875D02*
X012486Y023875D01*
X012327Y024034D02*
X000600Y024034D01*
X000600Y024192D02*
X012169Y024192D01*
X012010Y024351D02*
X000600Y024351D01*
X000600Y024509D02*
X011878Y024509D01*
X011860Y024668D02*
X000600Y024668D01*
X000600Y024826D02*
X011860Y024826D01*
X011860Y024985D02*
X000600Y024985D01*
X000600Y025143D02*
X011860Y025143D01*
X011860Y025302D02*
X000600Y025302D01*
X000600Y025460D02*
X011860Y025460D01*
X011860Y025619D02*
X000600Y025619D01*
X000600Y025777D02*
X011860Y025777D01*
X011860Y025936D02*
X000600Y025936D01*
X000600Y026094D02*
X011860Y026094D01*
X011860Y026253D02*
X004557Y026253D01*
X004557Y026237D02*
X004557Y026963D01*
X004463Y027057D01*
X003737Y027057D01*
X003643Y026963D01*
X003643Y026237D01*
X003737Y026143D01*
X004463Y026143D01*
X004557Y026237D01*
X004557Y026411D02*
X011860Y026411D01*
X011860Y026570D02*
X004557Y026570D01*
X004557Y026728D02*
X011860Y026728D01*
X011860Y026887D02*
X004557Y026887D01*
X004475Y027045D02*
X011860Y027045D01*
X011860Y027204D02*
X000600Y027204D01*
X000600Y027362D02*
X011860Y027362D01*
X011860Y027521D02*
X000600Y027521D01*
X000600Y027679D02*
X011860Y027679D01*
X011860Y027838D02*
X000600Y027838D01*
X000600Y027996D02*
X011860Y027996D01*
X011860Y028155D02*
X000600Y028155D01*
X000600Y028313D02*
X011860Y028313D01*
X011860Y028472D02*
X000600Y028472D01*
X000600Y028630D02*
X011860Y028630D01*
X011949Y028789D02*
X000600Y028789D01*
X000600Y028947D02*
X012108Y028947D01*
X012266Y029106D02*
X000600Y029106D01*
X000600Y029264D02*
X012425Y029264D01*
X012600Y029100D02*
X012100Y028600D01*
X012100Y024600D01*
X018100Y018600D01*
X022100Y018600D01*
X029100Y011600D01*
X036100Y011600D01*
X037600Y013100D01*
X037619Y012780D02*
X037941Y012780D01*
X037782Y012622D02*
X037461Y012622D01*
X037302Y012463D02*
X037624Y012463D01*
X037465Y012305D02*
X037144Y012305D01*
X036985Y012146D02*
X037307Y012146D01*
X037148Y011988D02*
X036827Y011988D01*
X036668Y011829D02*
X036990Y011829D01*
X036465Y012305D02*
X036339Y012305D01*
X036307Y012146D02*
X034978Y012146D01*
X034962Y011988D02*
X036148Y011988D01*
X035861Y012305D02*
X034924Y012305D01*
X034600Y012100D02*
X029600Y012100D01*
X022600Y019100D01*
X018600Y019100D01*
X012600Y025100D01*
X012600Y028100D01*
X013100Y028600D01*
X018600Y028600D01*
X020100Y026600D01*
X020557Y026570D02*
X020643Y026570D01*
X020643Y026728D02*
X020557Y026728D01*
X020557Y026887D02*
X020643Y026887D01*
X020643Y026963D02*
X020643Y026237D01*
X020737Y026143D01*
X021463Y026143D01*
X021557Y026237D01*
X021557Y026963D01*
X021463Y027057D01*
X020737Y027057D01*
X020643Y026963D01*
X020725Y027045D02*
X020475Y027045D01*
X019947Y027204D02*
X027310Y027204D01*
X027183Y027362D02*
X019828Y027362D01*
X019710Y027521D02*
X027056Y027521D01*
X026929Y027679D02*
X019591Y027679D01*
X019472Y027838D02*
X026803Y027838D01*
X026676Y027996D02*
X019353Y027996D01*
X019234Y028155D02*
X026549Y028155D01*
X026422Y028313D02*
X019115Y028313D01*
X018996Y028472D02*
X026295Y028472D01*
X026169Y028630D02*
X018877Y028630D01*
X018753Y028789D02*
X026042Y028789D01*
X026100Y029100D02*
X012600Y029100D01*
X012628Y028789D02*
X012949Y028789D01*
X012791Y028630D02*
X012469Y028630D01*
X012340Y028472D02*
X012632Y028472D01*
X012474Y028313D02*
X012340Y028313D01*
X012340Y028155D02*
X012363Y028155D01*
X012360Y027996D02*
X012340Y027996D01*
X012340Y027838D02*
X012360Y027838D01*
X012360Y027679D02*
X012340Y027679D01*
X012340Y027521D02*
X012360Y027521D01*
X012360Y027362D02*
X012340Y027362D01*
X012340Y027204D02*
X012360Y027204D01*
X012360Y027045D02*
X012340Y027045D01*
X012340Y026887D02*
X012360Y026887D01*
X012360Y026728D02*
X012340Y026728D01*
X012340Y026570D02*
X012360Y026570D01*
X012360Y026411D02*
X012340Y026411D01*
X012340Y026253D02*
X012360Y026253D01*
X012360Y026094D02*
X012340Y026094D01*
X012340Y025936D02*
X012360Y025936D01*
X012360Y025777D02*
X012340Y025777D01*
X012340Y025619D02*
X012360Y025619D01*
X012360Y025460D02*
X012340Y025460D01*
X012340Y025302D02*
X012360Y025302D01*
X012360Y025143D02*
X012340Y025143D01*
X012340Y024985D02*
X012388Y024985D01*
X012340Y024826D02*
X012535Y024826D01*
X012693Y024668D02*
X012372Y024668D01*
X012530Y024509D02*
X012663Y024509D01*
X013579Y025460D02*
X013643Y025460D01*
X013643Y025619D02*
X013421Y025619D01*
X013340Y025777D02*
X013643Y025777D01*
X013643Y025936D02*
X013340Y025936D01*
X013340Y026094D02*
X032860Y026094D01*
X032860Y025936D02*
X032557Y025936D01*
X032557Y025963D02*
X032463Y026057D01*
X031737Y026057D01*
X031643Y025963D01*
X031643Y025237D01*
X031737Y025143D01*
X032463Y025143D01*
X032557Y025237D01*
X032557Y025963D01*
X032557Y025777D02*
X032860Y025777D01*
X032860Y025619D02*
X032557Y025619D01*
X032557Y025460D02*
X032860Y025460D01*
X032860Y025302D02*
X032557Y025302D01*
X032804Y025143D02*
X025396Y025143D01*
X025555Y024985D02*
X032645Y024985D01*
X032600Y024600D02*
X025600Y024600D01*
X025100Y025100D01*
X025100Y025600D01*
X025557Y025619D02*
X025643Y025619D01*
X025643Y025777D02*
X025557Y025777D01*
X025557Y025936D02*
X025643Y025936D01*
X025643Y025963D02*
X025643Y025237D01*
X025737Y025143D01*
X026463Y025143D01*
X026557Y025237D01*
X026557Y025963D01*
X026463Y026057D01*
X025737Y026057D01*
X025643Y025963D01*
X025737Y026143D02*
X026463Y026143D01*
X026557Y026237D01*
X026557Y026963D01*
X026463Y027057D01*
X025737Y027057D01*
X025643Y026963D01*
X025643Y026237D01*
X025737Y026143D01*
X025643Y026253D02*
X025557Y026253D01*
X025557Y026237D02*
X025557Y026963D01*
X025463Y027057D01*
X024737Y027057D01*
X024643Y026963D01*
X024643Y026237D01*
X024737Y026143D01*
X025463Y026143D01*
X025557Y026237D01*
X025557Y026411D02*
X025643Y026411D01*
X025643Y026570D02*
X025557Y026570D01*
X025557Y026728D02*
X025643Y026728D01*
X025643Y026887D02*
X025557Y026887D01*
X025475Y027045D02*
X025725Y027045D01*
X026475Y027045D02*
X026725Y027045D01*
X026643Y026887D02*
X026557Y026887D01*
X026557Y026728D02*
X026643Y026728D01*
X026643Y026570D02*
X026557Y026570D01*
X026557Y026411D02*
X026643Y026411D01*
X026643Y026253D02*
X026557Y026253D01*
X026737Y026057D02*
X026643Y025963D01*
X026643Y025237D01*
X026737Y025143D01*
X027463Y025143D01*
X027557Y025237D01*
X027557Y025963D01*
X027463Y026057D01*
X026737Y026057D01*
X026643Y025936D02*
X026557Y025936D01*
X026557Y025777D02*
X026643Y025777D01*
X026643Y025619D02*
X026557Y025619D01*
X026557Y025460D02*
X026643Y025460D01*
X026643Y025302D02*
X026557Y025302D01*
X025643Y025302D02*
X025557Y025302D01*
X025557Y025460D02*
X025643Y025460D01*
X024860Y025143D02*
X024860Y025052D01*
X024897Y024964D01*
X024964Y024897D01*
X025464Y024397D01*
X025552Y024360D01*
X032648Y024360D01*
X032736Y024397D01*
X032803Y024464D01*
X033303Y024964D01*
X033340Y025052D01*
X033340Y026501D01*
X035199Y028360D01*
X036001Y028360D01*
X036360Y028001D01*
X036360Y026052D01*
X036397Y025964D01*
X036464Y025897D01*
X037964Y024397D01*
X038052Y024360D01*
X038176Y024360D01*
X038201Y024300D01*
X038350Y024151D01*
X038422Y024121D01*
X038250Y024049D01*
X038101Y023900D01*
X038020Y023705D01*
X038020Y023495D01*
X038101Y023300D01*
X038250Y023151D01*
X038398Y023089D01*
X038362Y023070D01*
X038292Y023020D01*
X038230Y022958D01*
X038180Y022888D01*
X038140Y022811D01*
X038114Y022729D01*
X038100Y022643D01*
X038100Y022620D01*
X038630Y022620D01*
X038630Y022580D01*
X038100Y022580D01*
X038100Y022557D01*
X038114Y022471D01*
X038140Y022389D01*
X038180Y022312D01*
X038230Y022242D01*
X038292Y022180D01*
X038362Y022130D01*
X038398Y022111D01*
X038250Y022049D01*
X038101Y021900D01*
X038020Y021705D01*
X038020Y021495D01*
X038101Y021300D01*
X038250Y021151D01*
X038445Y021070D01*
X038655Y021070D01*
X038850Y021151D01*
X039016Y021339D02*
X041360Y021339D01*
X041360Y021498D02*
X039080Y021498D01*
X039080Y021656D02*
X041360Y021656D01*
X041360Y021815D02*
X039035Y021815D01*
X038926Y021973D02*
X041360Y021973D01*
X041360Y022132D02*
X038941Y022132D01*
X039105Y022290D02*
X041360Y022290D01*
X041360Y022449D02*
X039179Y022449D01*
X039175Y022766D02*
X041360Y022766D01*
X041360Y022924D02*
X039094Y022924D01*
X038914Y023083D02*
X041360Y023083D01*
X041360Y023241D02*
X038941Y023241D01*
X039041Y023400D02*
X041360Y023400D01*
X041360Y023558D02*
X039080Y023558D01*
X039075Y023717D02*
X041360Y023717D01*
X041360Y023875D02*
X039010Y023875D01*
X038866Y024034D02*
X041360Y024034D01*
X041360Y024192D02*
X038992Y024192D01*
X039120Y024351D02*
X041360Y024351D01*
X041360Y024509D02*
X039180Y024509D01*
X039180Y024668D02*
X041360Y024668D01*
X041360Y024826D02*
X039130Y024826D01*
X039015Y024985D02*
X041360Y024985D01*
X041360Y025143D02*
X038832Y025143D01*
X039000Y025302D02*
X041360Y025302D01*
X041360Y025460D02*
X039066Y025460D01*
X039080Y025619D02*
X041360Y025619D01*
X041360Y025777D02*
X039050Y025777D01*
X038964Y025936D02*
X041360Y025936D01*
X041267Y026094D02*
X038813Y026094D01*
X039052Y026253D02*
X041108Y026253D01*
X040950Y026411D02*
X039145Y026411D01*
X039180Y026570D02*
X040791Y026570D01*
X040633Y026728D02*
X039171Y026728D01*
X039105Y026887D02*
X040474Y026887D01*
X040316Y027045D02*
X038954Y027045D01*
X038903Y027204D02*
X040157Y027204D01*
X042100Y028155D02*
X036837Y028155D01*
X036840Y027996D02*
X038197Y027996D01*
X038075Y027838D02*
X036840Y027838D01*
X036840Y027679D02*
X038020Y027679D01*
X038020Y027521D02*
X036840Y027521D01*
X036840Y027362D02*
X038075Y027362D01*
X038197Y027204D02*
X036840Y027204D01*
X036840Y027045D02*
X038346Y027045D01*
X038195Y026887D02*
X036840Y026887D01*
X036840Y026728D02*
X038129Y026728D01*
X038120Y026570D02*
X036840Y026570D01*
X036840Y026411D02*
X038155Y026411D01*
X038248Y026253D02*
X036840Y026253D01*
X036945Y026094D02*
X038358Y026094D01*
X038136Y025936D02*
X037104Y025936D01*
X037262Y025777D02*
X038050Y025777D01*
X038020Y025619D02*
X037421Y025619D01*
X037579Y025460D02*
X038034Y025460D01*
X038100Y025302D02*
X037738Y025302D01*
X037896Y025143D02*
X038268Y025143D01*
X038285Y024985D02*
X038055Y024985D01*
X038100Y024600D02*
X036600Y026100D01*
X036600Y028100D01*
X036100Y028600D01*
X035100Y028600D01*
X033100Y026600D01*
X033100Y025100D01*
X032600Y024600D01*
X032848Y024509D02*
X033170Y024509D01*
X033328Y024668D02*
X033007Y024668D01*
X033165Y024826D02*
X033360Y024826D01*
X033360Y024699D02*
X033001Y024340D01*
X025199Y024340D01*
X024396Y025143D01*
X024555Y024985D02*
X024888Y024985D01*
X025035Y024826D02*
X024713Y024826D01*
X024872Y024668D02*
X025193Y024668D01*
X025352Y024509D02*
X025030Y024509D01*
X025189Y024351D02*
X033011Y024351D01*
X033100Y024100D02*
X025100Y024100D01*
X024100Y025100D01*
X024100Y025600D01*
X024557Y025619D02*
X024643Y025619D01*
X024643Y025777D02*
X024557Y025777D01*
X024557Y025936D02*
X024643Y025936D01*
X024463Y026143D02*
X024557Y026237D01*
X024557Y026963D01*
X024463Y027057D01*
X023737Y027057D01*
X023643Y026963D01*
X023643Y026237D01*
X023737Y026143D01*
X024463Y026143D01*
X024557Y026253D02*
X024643Y026253D01*
X024643Y026411D02*
X024557Y026411D01*
X024557Y026570D02*
X024643Y026570D01*
X024643Y026728D02*
X024557Y026728D01*
X024557Y026887D02*
X024643Y026887D01*
X024725Y027045D02*
X024475Y027045D01*
X023725Y027045D02*
X023500Y027045D01*
X023507Y027041D02*
X023466Y027065D01*
X023421Y027077D01*
X023118Y027077D01*
X023118Y026618D01*
X023082Y026618D01*
X023082Y027077D01*
X022779Y027077D01*
X022734Y027065D01*
X022693Y027041D01*
X022659Y027007D01*
X022635Y026966D01*
X022623Y026921D01*
X022623Y026618D01*
X023082Y026618D01*
X023082Y026582D01*
X023118Y026582D01*
X023118Y026618D01*
X023577Y026618D01*
X023577Y026921D01*
X023565Y026966D01*
X023541Y027007D01*
X023507Y027041D01*
X023577Y026887D02*
X023643Y026887D01*
X023643Y026728D02*
X023577Y026728D01*
X023577Y026582D02*
X023118Y026582D01*
X023118Y026123D01*
X023421Y026123D01*
X023466Y026135D01*
X023507Y026159D01*
X023541Y026193D01*
X023565Y026234D01*
X023577Y026279D01*
X023577Y026582D01*
X023577Y026570D02*
X023643Y026570D01*
X023643Y026411D02*
X023577Y026411D01*
X023570Y026253D02*
X023643Y026253D01*
X023643Y025936D02*
X023557Y025936D01*
X023557Y025777D02*
X023643Y025777D01*
X023643Y025619D02*
X023557Y025619D01*
X023557Y025460D02*
X023643Y025460D01*
X023643Y025302D02*
X023557Y025302D01*
X023396Y025143D02*
X024699Y023840D01*
X033501Y023840D01*
X033860Y024199D01*
X033860Y025648D01*
X033897Y025736D01*
X033964Y025803D01*
X034964Y026803D01*
X035052Y026840D01*
X035126Y026840D01*
X035151Y026900D01*
X035300Y027049D01*
X035422Y027100D01*
X035300Y027151D01*
X035151Y027300D01*
X035147Y027308D01*
X033840Y026001D01*
X033840Y024552D01*
X033803Y024464D01*
X033303Y023964D01*
X033236Y023897D01*
X033148Y023860D01*
X025052Y023860D01*
X024964Y023897D01*
X023964Y024897D01*
X023897Y024964D01*
X023860Y025052D01*
X023860Y025143D01*
X023888Y024985D02*
X023555Y024985D01*
X023713Y024826D02*
X024035Y024826D01*
X024193Y024668D02*
X023872Y024668D01*
X024030Y024509D02*
X024352Y024509D01*
X024510Y024351D02*
X024189Y024351D01*
X024347Y024192D02*
X024669Y024192D01*
X024827Y024034D02*
X024506Y024034D01*
X024664Y023875D02*
X025016Y023875D01*
X024600Y023600D02*
X023100Y025100D01*
X023100Y025600D01*
X022643Y025619D02*
X022557Y025619D01*
X022557Y025777D02*
X022643Y025777D01*
X022643Y025936D02*
X022557Y025936D01*
X022463Y026143D02*
X022557Y026237D01*
X022557Y026963D01*
X022463Y027057D01*
X021737Y027057D01*
X021643Y026963D01*
X021643Y026237D01*
X021737Y026143D01*
X022463Y026143D01*
X022557Y026253D02*
X022630Y026253D01*
X022635Y026234D02*
X022659Y026193D01*
X022693Y026159D01*
X022734Y026135D01*
X022779Y026123D01*
X023082Y026123D01*
X023082Y026582D01*
X022623Y026582D01*
X022623Y026279D01*
X022635Y026234D01*
X022623Y026411D02*
X022557Y026411D01*
X022557Y026570D02*
X022623Y026570D01*
X022623Y026728D02*
X022557Y026728D01*
X022557Y026887D02*
X022623Y026887D01*
X022700Y027045D02*
X022475Y027045D01*
X023082Y027045D02*
X023118Y027045D01*
X023118Y026887D02*
X023082Y026887D01*
X023082Y026728D02*
X023118Y026728D01*
X023118Y026570D02*
X023082Y026570D01*
X023082Y026411D02*
X023118Y026411D01*
X023118Y026253D02*
X023082Y026253D01*
X022643Y025460D02*
X022557Y025460D01*
X022557Y025302D02*
X022643Y025302D01*
X022860Y025143D02*
X022860Y025052D01*
X022897Y024964D01*
X022964Y024897D01*
X024464Y023397D01*
X024552Y023360D01*
X033648Y023360D01*
X033736Y023397D01*
X033803Y023464D01*
X034303Y023964D01*
X034340Y024052D01*
X034340Y025501D01*
X035147Y026308D01*
X035151Y026300D01*
X035300Y026151D01*
X035422Y026100D01*
X035300Y026049D01*
X035151Y025900D01*
X035070Y025705D01*
X035070Y025495D01*
X035151Y025300D01*
X035300Y025151D01*
X035422Y025100D01*
X035300Y025049D01*
X035151Y024900D01*
X035126Y024840D01*
X035052Y024840D01*
X034964Y024803D01*
X034464Y024303D01*
X034397Y024236D01*
X034360Y024148D01*
X034360Y023699D01*
X034001Y023340D01*
X024199Y023340D01*
X022396Y025143D01*
X022555Y024985D02*
X022888Y024985D01*
X023035Y024826D02*
X022713Y024826D01*
X022872Y024668D02*
X023193Y024668D01*
X023352Y024509D02*
X023030Y024509D01*
X023189Y024351D02*
X023510Y024351D01*
X023669Y024192D02*
X023347Y024192D01*
X023506Y024034D02*
X023827Y024034D01*
X023986Y023875D02*
X023664Y023875D01*
X023823Y023717D02*
X024144Y023717D01*
X024303Y023558D02*
X023981Y023558D01*
X024140Y023400D02*
X024461Y023400D01*
X024600Y023600D02*
X033600Y023600D01*
X034100Y024100D01*
X034100Y025600D01*
X035100Y026600D01*
X035600Y026600D01*
X036095Y026411D02*
X036360Y026411D01*
X036360Y026253D02*
X036002Y026253D01*
X036049Y026300D02*
X035900Y026151D01*
X035778Y026100D01*
X035900Y026049D01*
X036049Y025900D01*
X036130Y025705D01*
X036130Y025495D01*
X036049Y025300D01*
X035900Y025151D01*
X035778Y025100D01*
X035900Y025049D01*
X036049Y024900D01*
X036130Y024705D01*
X036130Y024495D01*
X036049Y024300D01*
X035900Y024151D01*
X035778Y024100D01*
X035900Y024049D01*
X036049Y023900D01*
X036130Y023705D01*
X036130Y023495D01*
X036049Y023300D01*
X035900Y023151D01*
X035806Y023111D01*
X035811Y023110D01*
X035888Y023070D01*
X035958Y023020D01*
X036020Y022958D01*
X036070Y022888D01*
X036110Y022811D01*
X036136Y022729D01*
X036150Y022643D01*
X036150Y022620D01*
X035620Y022620D01*
X035620Y022580D01*
X036150Y022580D01*
X036150Y022557D01*
X036136Y022471D01*
X036110Y022389D01*
X036070Y022312D01*
X036020Y022242D01*
X035958Y022180D01*
X035888Y022130D01*
X035811Y022090D01*
X035806Y022089D01*
X035900Y022049D01*
X036049Y021900D01*
X036130Y021705D01*
X036130Y021495D01*
X036049Y021300D01*
X035900Y021151D01*
X035705Y021070D01*
X035495Y021070D01*
X035300Y021151D01*
X035151Y021300D01*
X035070Y021495D01*
X035070Y021705D01*
X035151Y021900D01*
X035300Y022049D01*
X035394Y022089D01*
X035389Y022090D01*
X035312Y022130D01*
X035242Y022180D01*
X035180Y022242D01*
X035130Y022312D01*
X035090Y022389D01*
X035064Y022471D01*
X035050Y022557D01*
X035050Y022580D01*
X035580Y022580D01*
X035580Y022620D01*
X035050Y022620D01*
X035050Y022643D01*
X035064Y022729D01*
X035090Y022811D01*
X035130Y022888D01*
X035180Y022958D01*
X035242Y023020D01*
X035312Y023070D01*
X035389Y023110D01*
X035394Y023111D01*
X035300Y023151D01*
X035151Y023300D01*
X035070Y023495D01*
X035070Y023705D01*
X035151Y023900D01*
X035300Y024049D01*
X035422Y024100D01*
X035300Y024151D01*
X035151Y024300D01*
X035147Y024308D01*
X034840Y024001D01*
X034840Y023552D01*
X034803Y023464D01*
X034303Y022964D01*
X034236Y022897D01*
X034148Y022860D01*
X024052Y022860D01*
X023964Y022897D01*
X021964Y024897D01*
X021897Y024964D01*
X021860Y025052D01*
X021860Y025143D01*
X021888Y024985D02*
X014055Y024985D01*
X013896Y025143D02*
X017720Y025143D01*
X017734Y025135D02*
X017779Y025123D01*
X018082Y025123D01*
X018082Y025582D01*
X017623Y025582D01*
X017623Y025279D01*
X017635Y025234D01*
X017659Y025193D01*
X017693Y025159D01*
X017734Y025135D01*
X017623Y025302D02*
X017557Y025302D01*
X017557Y025237D02*
X017557Y025963D01*
X017463Y026057D01*
X016737Y026057D01*
X016643Y025963D01*
X016643Y025237D01*
X016737Y025143D01*
X017463Y025143D01*
X017557Y025237D01*
X017557Y025460D02*
X017623Y025460D01*
X017623Y025619D02*
X017557Y025619D01*
X017557Y025777D02*
X017623Y025777D01*
X017627Y025936D02*
X017557Y025936D01*
X017463Y026143D02*
X017557Y026237D01*
X017557Y026963D01*
X017463Y027057D01*
X016737Y027057D01*
X016643Y026963D01*
X016643Y026237D01*
X016737Y026143D01*
X017463Y026143D01*
X017557Y026253D02*
X017643Y026253D01*
X017643Y026411D02*
X017557Y026411D01*
X017557Y026570D02*
X017643Y026570D01*
X017643Y026728D02*
X017557Y026728D01*
X017557Y026887D02*
X017643Y026887D01*
X017725Y027045D02*
X017475Y027045D01*
X016725Y027045D02*
X016475Y027045D01*
X016463Y027057D02*
X016557Y026963D01*
X016557Y026237D01*
X016463Y026143D01*
X015737Y026143D01*
X015643Y026237D01*
X015643Y026963D01*
X015737Y027057D01*
X016463Y027057D01*
X016557Y026887D02*
X016643Y026887D01*
X016643Y026728D02*
X016557Y026728D01*
X016557Y026570D02*
X016643Y026570D01*
X016643Y026411D02*
X016557Y026411D01*
X016557Y026253D02*
X016643Y026253D01*
X016463Y026057D02*
X016557Y025963D01*
X016557Y025237D01*
X016463Y025143D01*
X015737Y025143D01*
X015643Y025237D01*
X015643Y025963D01*
X015737Y026057D01*
X016463Y026057D01*
X016557Y025936D02*
X016643Y025936D01*
X016643Y025777D02*
X016557Y025777D01*
X016557Y025619D02*
X016643Y025619D01*
X016643Y025460D02*
X016557Y025460D01*
X016557Y025302D02*
X016643Y025302D01*
X015643Y025302D02*
X015557Y025302D01*
X015557Y025237D02*
X015557Y025963D01*
X015463Y026057D01*
X014737Y026057D01*
X014643Y025963D01*
X014643Y025237D01*
X014737Y025143D01*
X015463Y025143D01*
X015557Y025237D01*
X015557Y025460D02*
X015643Y025460D01*
X015643Y025619D02*
X015557Y025619D01*
X015557Y025777D02*
X015643Y025777D01*
X015643Y025936D02*
X015557Y025936D01*
X015463Y026143D02*
X015557Y026237D01*
X015557Y026963D01*
X015463Y027057D01*
X014737Y027057D01*
X014643Y026963D01*
X014643Y026237D01*
X014737Y026143D01*
X015463Y026143D01*
X015557Y026253D02*
X015643Y026253D01*
X015643Y026411D02*
X015557Y026411D01*
X015557Y026570D02*
X015643Y026570D01*
X015643Y026728D02*
X015557Y026728D01*
X015557Y026887D02*
X015643Y026887D01*
X015725Y027045D02*
X015475Y027045D01*
X014725Y027045D02*
X014475Y027045D01*
X014463Y027057D02*
X014557Y026963D01*
X014557Y026237D01*
X014463Y026143D01*
X013737Y026143D01*
X013643Y026237D01*
X013643Y026963D01*
X013737Y027057D01*
X014463Y027057D01*
X014557Y026887D02*
X014643Y026887D01*
X014643Y026728D02*
X014557Y026728D01*
X014557Y026570D02*
X014643Y026570D01*
X014643Y026411D02*
X014557Y026411D01*
X014557Y026253D02*
X014643Y026253D01*
X014643Y025936D02*
X014557Y025936D01*
X014557Y025777D02*
X014643Y025777D01*
X014643Y025619D02*
X014557Y025619D01*
X014557Y025460D02*
X014643Y025460D01*
X014643Y025302D02*
X014557Y025302D01*
X014213Y024826D02*
X022035Y024826D01*
X022193Y024668D02*
X014372Y024668D01*
X014530Y024509D02*
X022352Y024509D01*
X022510Y024351D02*
X014689Y024351D01*
X014847Y024192D02*
X022669Y024192D01*
X022827Y024034D02*
X015006Y024034D01*
X015164Y023875D02*
X022986Y023875D01*
X023144Y023717D02*
X015323Y023717D01*
X015481Y023558D02*
X023303Y023558D01*
X023461Y023400D02*
X015640Y023400D01*
X015798Y023241D02*
X023620Y023241D01*
X023778Y023083D02*
X015957Y023083D01*
X016115Y022924D02*
X023937Y022924D01*
X024100Y023100D02*
X022100Y025100D01*
X022100Y025600D01*
X021643Y025619D02*
X021557Y025619D01*
X021557Y025777D02*
X021643Y025777D01*
X021643Y025936D02*
X021557Y025936D01*
X021557Y025963D02*
X021463Y026057D01*
X020737Y026057D01*
X020643Y025963D01*
X020643Y025237D01*
X020737Y025143D01*
X021463Y025143D01*
X021557Y025237D01*
X021557Y025963D01*
X021557Y026253D02*
X021643Y026253D01*
X021643Y026411D02*
X021557Y026411D01*
X021557Y026570D02*
X021643Y026570D01*
X021643Y026728D02*
X021557Y026728D01*
X021557Y026887D02*
X021643Y026887D01*
X021725Y027045D02*
X021475Y027045D01*
X020643Y026411D02*
X020557Y026411D01*
X020557Y026253D02*
X020643Y026253D01*
X020463Y026057D02*
X020557Y025963D01*
X020557Y025237D01*
X020463Y025143D01*
X019737Y025143D01*
X019643Y025237D01*
X019643Y025963D01*
X019737Y026057D01*
X020463Y026057D01*
X020557Y025936D02*
X020643Y025936D01*
X020643Y025777D02*
X020557Y025777D01*
X020557Y025619D02*
X020643Y025619D01*
X020643Y025460D02*
X020557Y025460D01*
X020557Y025302D02*
X020643Y025302D01*
X021557Y025302D02*
X021643Y025302D01*
X021643Y025460D02*
X021557Y025460D01*
X019643Y025460D02*
X019557Y025460D01*
X019557Y025302D02*
X019643Y025302D01*
X019643Y025619D02*
X019557Y025619D01*
X019557Y025777D02*
X019643Y025777D01*
X019643Y025936D02*
X019557Y025936D01*
X019557Y026253D02*
X019643Y026253D01*
X019643Y026411D02*
X019557Y026411D01*
X019557Y026570D02*
X019643Y026570D01*
X019643Y026728D02*
X019557Y026728D01*
X019557Y026887D02*
X019585Y026887D01*
X019100Y026600D02*
X018100Y028100D01*
X013600Y028100D01*
X013725Y027045D02*
X013340Y027045D01*
X013340Y026887D02*
X013643Y026887D01*
X013643Y026728D02*
X013340Y026728D01*
X013340Y026570D02*
X013643Y026570D01*
X013643Y026411D02*
X013340Y026411D01*
X013340Y026253D02*
X013643Y026253D01*
X016274Y022766D02*
X035075Y022766D01*
X035156Y022924D02*
X034263Y022924D01*
X034422Y023083D02*
X035336Y023083D01*
X035209Y023241D02*
X034580Y023241D01*
X034739Y023400D02*
X035109Y023400D01*
X035070Y023558D02*
X034840Y023558D01*
X034840Y023717D02*
X035075Y023717D01*
X035140Y023875D02*
X034840Y023875D01*
X034873Y024034D02*
X035284Y024034D01*
X035258Y024192D02*
X035031Y024192D01*
X035100Y024600D02*
X034600Y024100D01*
X034600Y023600D01*
X034100Y023100D01*
X024100Y023100D01*
X024557Y025302D02*
X024643Y025302D01*
X024643Y025460D02*
X024557Y025460D01*
X027557Y025460D02*
X027643Y025460D01*
X027643Y025302D02*
X027557Y025302D01*
X027643Y025237D02*
X027737Y025143D01*
X028463Y025143D01*
X028557Y025237D01*
X028557Y025963D01*
X028463Y026057D01*
X027737Y026057D01*
X027643Y025963D01*
X027643Y025237D01*
X027643Y025619D02*
X027557Y025619D01*
X027557Y025777D02*
X027643Y025777D01*
X027643Y025936D02*
X027557Y025936D01*
X027557Y026253D02*
X027643Y026253D01*
X027643Y026411D02*
X027557Y026411D01*
X027557Y026570D02*
X027643Y026570D01*
X027643Y026728D02*
X027557Y026728D01*
X027557Y026887D02*
X027563Y026887D01*
X027925Y027204D02*
X033364Y027204D01*
X033523Y027362D02*
X027798Y027362D01*
X027671Y027521D02*
X033681Y027521D01*
X033840Y027679D02*
X027544Y027679D01*
X027417Y027838D02*
X033998Y027838D01*
X034157Y027996D02*
X027291Y027996D01*
X027164Y028155D02*
X034315Y028155D01*
X034474Y028313D02*
X027037Y028313D01*
X026910Y028472D02*
X034632Y028472D01*
X034791Y028630D02*
X026783Y028630D01*
X026657Y028789D02*
X034949Y028789D01*
X035152Y028313D02*
X036048Y028313D01*
X036206Y028155D02*
X034994Y028155D01*
X034835Y027996D02*
X035247Y027996D01*
X035300Y028049D02*
X035151Y027900D01*
X035126Y027840D01*
X035052Y027840D01*
X034964Y027803D01*
X033464Y026303D01*
X033397Y026236D01*
X033360Y026148D01*
X033360Y024699D01*
X033600Y024600D02*
X033100Y024100D01*
X033184Y023875D02*
X033536Y023875D01*
X033694Y024034D02*
X033373Y024034D01*
X033531Y024192D02*
X033853Y024192D01*
X033860Y024351D02*
X033690Y024351D01*
X033822Y024509D02*
X033860Y024509D01*
X033860Y024668D02*
X033840Y024668D01*
X033840Y024826D02*
X033860Y024826D01*
X033860Y024985D02*
X033840Y024985D01*
X033840Y025143D02*
X033860Y025143D01*
X033860Y025302D02*
X033840Y025302D01*
X033840Y025460D02*
X033860Y025460D01*
X033860Y025619D02*
X033840Y025619D01*
X033840Y025777D02*
X033938Y025777D01*
X033840Y025936D02*
X034096Y025936D01*
X034255Y026094D02*
X033933Y026094D01*
X034092Y026253D02*
X034413Y026253D01*
X034572Y026411D02*
X034250Y026411D01*
X034409Y026570D02*
X034730Y026570D01*
X034889Y026728D02*
X034567Y026728D01*
X034726Y026887D02*
X035145Y026887D01*
X035296Y027045D02*
X034884Y027045D01*
X035043Y027204D02*
X035247Y027204D01*
X035778Y027100D02*
X035900Y027151D01*
X036049Y027300D01*
X036130Y027495D01*
X036130Y027705D01*
X036049Y027900D01*
X035900Y028049D01*
X035705Y028130D01*
X035495Y028130D01*
X035300Y028049D01*
X035046Y027838D02*
X034677Y027838D01*
X034518Y027679D02*
X034840Y027679D01*
X034681Y027521D02*
X034360Y027521D01*
X034201Y027362D02*
X034523Y027362D01*
X034364Y027204D02*
X034043Y027204D01*
X033884Y027045D02*
X034206Y027045D01*
X034047Y026887D02*
X033726Y026887D01*
X033567Y026728D02*
X033889Y026728D01*
X033730Y026570D02*
X033409Y026570D01*
X033340Y026411D02*
X033572Y026411D01*
X033413Y026253D02*
X033340Y026253D01*
X033340Y026094D02*
X033360Y026094D01*
X033360Y025936D02*
X033340Y025936D01*
X033340Y025777D02*
X033360Y025777D01*
X033360Y025619D02*
X033340Y025619D01*
X033340Y025460D02*
X033360Y025460D01*
X033360Y025302D02*
X033340Y025302D01*
X033340Y025143D02*
X033360Y025143D01*
X033360Y024985D02*
X033312Y024985D01*
X033600Y024600D02*
X033600Y026100D01*
X035100Y027600D01*
X035600Y027600D01*
X035953Y027996D02*
X036360Y027996D01*
X036360Y027838D02*
X036075Y027838D01*
X036130Y027679D02*
X036360Y027679D01*
X036360Y027521D02*
X036130Y027521D01*
X036075Y027362D02*
X036360Y027362D01*
X036360Y027204D02*
X035953Y027204D01*
X035900Y027049D02*
X035778Y027100D01*
X035900Y027049D02*
X036049Y026900D01*
X036130Y026705D01*
X036130Y026495D01*
X036049Y026300D01*
X036130Y026570D02*
X036360Y026570D01*
X036360Y026728D02*
X036121Y026728D01*
X036055Y026887D02*
X036360Y026887D01*
X036360Y027045D02*
X035904Y027045D01*
X035792Y026094D02*
X036360Y026094D01*
X036425Y025936D02*
X036014Y025936D01*
X036100Y025777D02*
X036584Y025777D01*
X036742Y025619D02*
X036130Y025619D01*
X036116Y025460D02*
X036901Y025460D01*
X037059Y025302D02*
X036050Y025302D01*
X035882Y025143D02*
X037218Y025143D01*
X037376Y024985D02*
X035965Y024985D01*
X036080Y024826D02*
X037535Y024826D01*
X037693Y024668D02*
X036130Y024668D01*
X036130Y024509D02*
X037852Y024509D01*
X038100Y024600D02*
X038650Y024600D01*
X038308Y024192D02*
X035942Y024192D01*
X035916Y024034D02*
X038234Y024034D01*
X038090Y023875D02*
X036060Y023875D01*
X036125Y023717D02*
X038025Y023717D01*
X038020Y023558D02*
X036130Y023558D01*
X036091Y023400D02*
X038059Y023400D01*
X038159Y023241D02*
X035991Y023241D01*
X035864Y023083D02*
X038386Y023083D01*
X038206Y022924D02*
X036044Y022924D01*
X036125Y022766D02*
X038125Y022766D01*
X038121Y022449D02*
X036129Y022449D01*
X036055Y022290D02*
X038195Y022290D01*
X038359Y022132D02*
X035891Y022132D01*
X035976Y021973D02*
X038174Y021973D01*
X038065Y021815D02*
X036085Y021815D01*
X036130Y021656D02*
X038020Y021656D01*
X038020Y021498D02*
X036130Y021498D01*
X036066Y021339D02*
X038084Y021339D01*
X038220Y021181D02*
X035930Y021181D01*
X035270Y021181D02*
X017859Y021181D01*
X017700Y021339D02*
X035134Y021339D01*
X035070Y021498D02*
X017542Y021498D01*
X017383Y021656D02*
X035070Y021656D01*
X035115Y021815D02*
X017225Y021815D01*
X017066Y021973D02*
X035224Y021973D01*
X035309Y022132D02*
X016908Y022132D01*
X016749Y022290D02*
X035145Y022290D01*
X035071Y022449D02*
X016591Y022449D01*
X016432Y022607D02*
X035580Y022607D01*
X035600Y022600D02*
X020600Y022600D01*
X018100Y025100D01*
X018100Y025600D01*
X018082Y025619D02*
X018118Y025619D01*
X018118Y025777D02*
X018082Y025777D01*
X018082Y025936D02*
X018118Y025936D01*
X018118Y025460D02*
X018082Y025460D01*
X018082Y025302D02*
X018118Y025302D01*
X018118Y025143D02*
X018082Y025143D01*
X023602Y019437D02*
X032592Y019437D01*
X032527Y019279D02*
X023761Y019279D01*
X023919Y019120D02*
X032502Y019120D01*
X032510Y018962D02*
X024078Y018962D01*
X024236Y018803D02*
X032576Y018803D01*
X032710Y018645D02*
X024395Y018645D01*
X027089Y015950D02*
X041360Y015950D01*
X041360Y015792D02*
X027248Y015792D01*
X027406Y015633D02*
X041360Y015633D01*
X041360Y015475D02*
X027565Y015475D01*
X027723Y015316D02*
X041360Y015316D01*
X041360Y015158D02*
X027882Y015158D01*
X028040Y014999D02*
X041360Y014999D01*
X041360Y014841D02*
X028199Y014841D01*
X028357Y014682D02*
X041360Y014682D01*
X041360Y014524D02*
X028516Y014524D01*
X028674Y014365D02*
X041360Y014365D01*
X041360Y014207D02*
X028833Y014207D01*
X028991Y014048D02*
X041360Y014048D01*
X041360Y013890D02*
X029150Y013890D01*
X029308Y013731D02*
X041360Y013731D01*
X041360Y013573D02*
X029467Y013573D01*
X029625Y013414D02*
X038880Y013414D01*
X039320Y013414D02*
X041360Y013414D01*
X041360Y013256D02*
X039445Y013256D01*
X038600Y012600D02*
X039600Y011600D01*
X038556Y012305D02*
X038144Y012305D01*
X035930Y012939D02*
X030101Y012939D01*
X037817Y017494D02*
X037817Y017494D01*
X037817Y017535D02*
X037817Y017535D01*
X037817Y017694D02*
X037817Y017694D01*
X037817Y017852D02*
X037817Y017852D01*
X038630Y022607D02*
X035620Y022607D01*
X034360Y023717D02*
X034056Y023717D01*
X034214Y023875D02*
X034360Y023875D01*
X034360Y024034D02*
X034332Y024034D01*
X034340Y024192D02*
X034378Y024192D01*
X034340Y024351D02*
X034511Y024351D01*
X034670Y024509D02*
X034340Y024509D01*
X034340Y024668D02*
X034828Y024668D01*
X035019Y024826D02*
X034340Y024826D01*
X034340Y024985D02*
X035235Y024985D01*
X035318Y025143D02*
X034340Y025143D01*
X034340Y025302D02*
X035150Y025302D01*
X035084Y025460D02*
X034340Y025460D01*
X034458Y025619D02*
X035070Y025619D01*
X035100Y025777D02*
X034616Y025777D01*
X034775Y025936D02*
X035186Y025936D01*
X035408Y026094D02*
X034933Y026094D01*
X035092Y026253D02*
X035198Y026253D01*
X035100Y024600D02*
X035600Y024600D01*
X036070Y024351D02*
X038180Y024351D01*
X038670Y022607D02*
X041360Y022607D01*
X034219Y023558D02*
X033897Y023558D01*
X033739Y023400D02*
X034060Y023400D01*
X031643Y025302D02*
X031557Y025302D01*
X031557Y025237D02*
X031557Y025963D01*
X031463Y026057D01*
X030737Y026057D01*
X030643Y025963D01*
X030643Y025237D01*
X030737Y025143D01*
X031463Y025143D01*
X031557Y025237D01*
X031557Y025460D02*
X031643Y025460D01*
X031643Y025619D02*
X031557Y025619D01*
X031557Y025777D02*
X031643Y025777D01*
X031643Y025936D02*
X031557Y025936D01*
X031463Y026143D02*
X031557Y026237D01*
X031557Y026963D01*
X031463Y027057D01*
X030737Y027057D01*
X030643Y026963D01*
X030643Y026237D01*
X030737Y026143D01*
X031463Y026143D01*
X031557Y026253D02*
X031643Y026253D01*
X031643Y026237D02*
X031737Y026143D01*
X032463Y026143D01*
X032557Y026237D01*
X032557Y026963D01*
X032463Y027057D01*
X031737Y027057D01*
X031643Y026963D01*
X031643Y026237D01*
X031643Y026411D02*
X031557Y026411D01*
X031557Y026570D02*
X031643Y026570D01*
X031643Y026728D02*
X031557Y026728D01*
X031557Y026887D02*
X031643Y026887D01*
X031725Y027045D02*
X031475Y027045D01*
X030725Y027045D02*
X030475Y027045D01*
X030463Y027057D02*
X030557Y026963D01*
X030557Y026237D01*
X030463Y026143D01*
X029737Y026143D01*
X029643Y026237D01*
X029643Y026963D01*
X029737Y027057D01*
X030463Y027057D01*
X030557Y026887D02*
X030643Y026887D01*
X030643Y026728D02*
X030557Y026728D01*
X030557Y026570D02*
X030643Y026570D01*
X030643Y026411D02*
X030557Y026411D01*
X030557Y026253D02*
X030643Y026253D01*
X030463Y026057D02*
X030557Y025963D01*
X030557Y025237D01*
X030463Y025143D01*
X029737Y025143D01*
X029643Y025237D01*
X029643Y025963D01*
X029737Y026057D01*
X030463Y026057D01*
X030557Y025936D02*
X030643Y025936D01*
X030643Y025777D02*
X030557Y025777D01*
X030557Y025619D02*
X030643Y025619D01*
X030643Y025460D02*
X030557Y025460D01*
X030557Y025302D02*
X030643Y025302D01*
X029643Y025302D02*
X029557Y025302D01*
X029557Y025237D02*
X029557Y025963D01*
X029463Y026057D01*
X028737Y026057D01*
X028643Y025963D01*
X028643Y025237D01*
X028737Y025143D01*
X029463Y025143D01*
X029557Y025237D01*
X029557Y025460D02*
X029643Y025460D01*
X029643Y025619D02*
X029557Y025619D01*
X029557Y025777D02*
X029643Y025777D01*
X029643Y025936D02*
X029557Y025936D01*
X029466Y026135D02*
X029421Y026123D01*
X029118Y026123D01*
X029118Y026582D01*
X029118Y026618D01*
X029082Y026618D01*
X029082Y027077D01*
X028779Y027077D01*
X028734Y027065D01*
X028693Y027041D01*
X028659Y027007D01*
X028635Y026966D01*
X028623Y026921D01*
X028623Y026618D01*
X029082Y026618D01*
X029082Y026582D01*
X029118Y026582D01*
X029577Y026582D01*
X029577Y026279D01*
X029565Y026234D01*
X029541Y026193D01*
X029507Y026159D01*
X029466Y026135D01*
X029570Y026253D02*
X029643Y026253D01*
X029643Y026411D02*
X029577Y026411D01*
X029577Y026570D02*
X029643Y026570D01*
X029577Y026618D02*
X029118Y026618D01*
X029118Y027077D01*
X029421Y027077D01*
X029466Y027065D01*
X029507Y027041D01*
X029541Y027007D01*
X029565Y026966D01*
X029577Y026921D01*
X029577Y026618D01*
X029577Y026728D02*
X029643Y026728D01*
X029643Y026887D02*
X029577Y026887D01*
X029500Y027045D02*
X029725Y027045D01*
X029118Y027045D02*
X029082Y027045D01*
X029082Y026887D02*
X029118Y026887D01*
X029118Y026728D02*
X029082Y026728D01*
X029082Y026582D02*
X028623Y026582D01*
X028623Y026279D01*
X028635Y026234D01*
X028659Y026193D01*
X028693Y026159D01*
X028734Y026135D01*
X028779Y026123D01*
X029082Y026123D01*
X029082Y026582D01*
X029082Y026570D02*
X029118Y026570D01*
X029118Y026411D02*
X029082Y026411D01*
X029082Y026253D02*
X029118Y026253D01*
X028630Y026253D02*
X028557Y026253D01*
X028557Y026411D02*
X028623Y026411D01*
X028623Y026570D02*
X028557Y026570D01*
X028557Y026728D02*
X028623Y026728D01*
X028623Y026887D02*
X028557Y026887D01*
X028475Y027045D02*
X028700Y027045D01*
X028100Y026600D02*
X026100Y029100D01*
X026276Y029264D02*
X042100Y029264D01*
X042100Y029106D02*
X026403Y029106D01*
X026530Y028947D02*
X042100Y028947D01*
X042100Y028789D02*
X036251Y028789D01*
X036409Y028630D02*
X042100Y028630D01*
X042100Y028472D02*
X036568Y028472D01*
X036726Y028313D02*
X042100Y028313D01*
X042100Y029423D02*
X000600Y029423D01*
X000600Y029581D02*
X042100Y029581D01*
X042100Y029740D02*
X000600Y029740D01*
X000600Y029898D02*
X042100Y029898D01*
X042100Y030057D02*
X000600Y030057D01*
X000600Y030215D02*
X042100Y030215D01*
X042100Y030374D02*
X000600Y030374D01*
X000600Y030532D02*
X042100Y030532D01*
X042100Y030691D02*
X000600Y030691D01*
X000600Y030849D02*
X042100Y030849D01*
X033206Y027045D02*
X032475Y027045D01*
X032557Y026887D02*
X033047Y026887D01*
X032964Y026803D02*
X032964Y026803D01*
X032893Y026728D02*
X032557Y026728D01*
X032557Y026570D02*
X032860Y026570D01*
X032860Y026411D02*
X032557Y026411D01*
X032557Y026253D02*
X032860Y026253D01*
X028643Y025936D02*
X028557Y025936D01*
X028557Y025777D02*
X028643Y025777D01*
X028643Y025619D02*
X028557Y025619D01*
X028557Y025460D02*
X028643Y025460D01*
X028643Y025302D02*
X028557Y025302D01*
X003725Y027045D02*
X003475Y027045D01*
X003463Y027057D02*
X003557Y026963D01*
X003557Y026237D01*
X003463Y026143D01*
X002737Y026143D01*
X002643Y026237D01*
X002643Y026963D01*
X002737Y027057D01*
X003463Y027057D01*
X003557Y026887D02*
X003643Y026887D01*
X003643Y026728D02*
X003557Y026728D01*
X003557Y026570D02*
X003643Y026570D01*
X003643Y026411D02*
X003557Y026411D01*
X003557Y026253D02*
X003643Y026253D01*
X002643Y026253D02*
X000600Y026253D01*
X000600Y026411D02*
X002643Y026411D01*
X002643Y026570D02*
X000600Y026570D01*
X000600Y026728D02*
X002643Y026728D01*
X002643Y026887D02*
X000600Y026887D01*
X000600Y027045D02*
X002725Y027045D01*
X000600Y005172D02*
X011918Y005172D01*
X011668Y005014D02*
X000600Y005014D01*
X000600Y004855D02*
X011558Y004855D01*
X011502Y004697D02*
X000600Y004697D01*
X000600Y004538D02*
X011502Y004538D01*
X011544Y004380D02*
X000600Y004380D01*
X000600Y004221D02*
X011633Y004221D01*
X011835Y004063D02*
X000600Y004063D01*
X000600Y002953D02*
X013643Y002953D01*
X013643Y002963D02*
X013643Y002237D01*
X013737Y002143D01*
X014463Y002143D01*
X014557Y002237D01*
X014557Y002963D01*
X014463Y003057D01*
X013737Y003057D01*
X013643Y002963D01*
X013643Y002795D02*
X000600Y002795D01*
X000600Y002636D02*
X013643Y002636D01*
X013643Y002478D02*
X000600Y002478D01*
X000600Y002319D02*
X013643Y002319D01*
X013720Y002161D02*
X000600Y002161D01*
X000600Y002002D02*
X002682Y002002D01*
X002643Y001963D02*
X002643Y001237D01*
X002737Y001143D01*
X003463Y001143D01*
X003557Y001237D01*
X003557Y001963D01*
X003463Y002057D01*
X002737Y002057D01*
X002643Y001963D01*
X002643Y001844D02*
X000600Y001844D01*
X000600Y001685D02*
X002643Y001685D01*
X002643Y001527D02*
X000600Y001527D01*
X000600Y001368D02*
X002643Y001368D01*
X002671Y001210D02*
X000600Y001210D01*
X003529Y001210D02*
X003671Y001210D01*
X003643Y001237D02*
X003737Y001143D01*
X004463Y001143D01*
X004557Y001237D01*
X004557Y001963D01*
X004463Y002057D01*
X003737Y002057D01*
X003643Y001963D01*
X003643Y001237D01*
X003643Y001368D02*
X003557Y001368D01*
X003557Y001527D02*
X003643Y001527D01*
X003643Y001685D02*
X003557Y001685D01*
X003557Y001844D02*
X003643Y001844D01*
X003682Y002002D02*
X003518Y002002D01*
X004518Y002002D02*
X013682Y002002D01*
X013643Y001963D02*
X013737Y002057D01*
X014463Y002057D01*
X014557Y001963D01*
X014557Y001237D01*
X014463Y001143D01*
X013737Y001143D01*
X013643Y001237D01*
X013643Y001963D01*
X013643Y001844D02*
X004557Y001844D01*
X004557Y001685D02*
X013643Y001685D01*
X013643Y001527D02*
X004557Y001527D01*
X004557Y001368D02*
X013643Y001368D01*
X013671Y001210D02*
X004529Y001210D01*
X014480Y002161D02*
X014720Y002161D01*
X014737Y002143D02*
X015463Y002143D01*
X015557Y002237D01*
X015557Y002963D01*
X015463Y003057D01*
X014737Y003057D01*
X014643Y002963D01*
X014643Y002237D01*
X014737Y002143D01*
X014737Y002057D02*
X014643Y001963D01*
X014643Y001237D01*
X014737Y001143D01*
X015463Y001143D01*
X015557Y001237D01*
X015557Y001963D01*
X015463Y002057D01*
X014737Y002057D01*
X014682Y002002D02*
X014518Y002002D01*
X014557Y001844D02*
X014643Y001844D01*
X014643Y001685D02*
X014557Y001685D01*
X014557Y001527D02*
X014643Y001527D01*
X014643Y001368D02*
X014557Y001368D01*
X014529Y001210D02*
X014671Y001210D01*
X015529Y001210D02*
X015671Y001210D01*
X015643Y001237D02*
X015737Y001143D01*
X016463Y001143D01*
X016557Y001237D01*
X016557Y001963D01*
X016463Y002057D01*
X015737Y002057D01*
X015643Y001963D01*
X015643Y001237D01*
X015643Y001368D02*
X015557Y001368D01*
X015557Y001527D02*
X015643Y001527D01*
X015643Y001685D02*
X015557Y001685D01*
X015557Y001844D02*
X015643Y001844D01*
X015682Y002002D02*
X015518Y002002D01*
X015480Y002161D02*
X015720Y002161D01*
X015737Y002143D02*
X016463Y002143D01*
X016557Y002237D01*
X016557Y002963D01*
X016463Y003057D01*
X015737Y003057D01*
X015643Y002963D01*
X015643Y002237D01*
X015737Y002143D01*
X015643Y002319D02*
X015557Y002319D01*
X015557Y002478D02*
X015643Y002478D01*
X015643Y002636D02*
X015557Y002636D01*
X015557Y002795D02*
X015643Y002795D01*
X015643Y002953D02*
X015557Y002953D01*
X014643Y002953D02*
X014557Y002953D01*
X014557Y002795D02*
X014643Y002795D01*
X014643Y002636D02*
X014557Y002636D01*
X014557Y002478D02*
X014643Y002478D01*
X014643Y002319D02*
X014557Y002319D01*
X016480Y002161D02*
X016691Y002161D01*
X016693Y002159D02*
X016734Y002135D01*
X016779Y002123D01*
X017082Y002123D01*
X017082Y002582D01*
X017118Y002582D01*
X017118Y002618D01*
X017082Y002618D01*
X017082Y003077D01*
X016779Y003077D01*
X016734Y003065D01*
X016693Y003041D01*
X016659Y003007D01*
X016635Y002966D01*
X016623Y002921D01*
X016623Y002618D01*
X017082Y002618D01*
X017082Y002582D01*
X016623Y002582D01*
X016623Y002279D01*
X016635Y002234D01*
X016659Y002193D01*
X016693Y002159D01*
X016737Y002057D02*
X016643Y001963D01*
X016643Y001237D01*
X016737Y001143D01*
X017463Y001143D01*
X017557Y001237D01*
X017557Y001963D01*
X017463Y002057D01*
X016737Y002057D01*
X016682Y002002D02*
X016518Y002002D01*
X016557Y001844D02*
X016643Y001844D01*
X016643Y001685D02*
X016557Y001685D01*
X016557Y001527D02*
X016643Y001527D01*
X016643Y001368D02*
X016557Y001368D01*
X016529Y001210D02*
X016671Y001210D01*
X017529Y001210D02*
X017671Y001210D01*
X017643Y001237D02*
X017737Y001143D01*
X018463Y001143D01*
X018557Y001237D01*
X018557Y001963D01*
X018463Y002057D01*
X017737Y002057D01*
X017643Y001963D01*
X017643Y001237D01*
X017643Y001368D02*
X017557Y001368D01*
X017557Y001527D02*
X017643Y001527D01*
X017643Y001685D02*
X017557Y001685D01*
X017557Y001844D02*
X017643Y001844D01*
X017682Y002002D02*
X017518Y002002D01*
X017466Y002135D02*
X017507Y002159D01*
X017541Y002193D01*
X017565Y002234D01*
X017577Y002279D01*
X017577Y002582D01*
X017118Y002582D01*
X017118Y002123D01*
X017421Y002123D01*
X017466Y002135D01*
X017509Y002161D02*
X017720Y002161D01*
X017737Y002143D02*
X018463Y002143D01*
X018557Y002237D01*
X018557Y002963D01*
X018463Y003057D01*
X017737Y003057D01*
X017643Y002963D01*
X017643Y002237D01*
X017737Y002143D01*
X017643Y002319D02*
X017577Y002319D01*
X017577Y002478D02*
X017643Y002478D01*
X017577Y002618D02*
X017118Y002618D01*
X017118Y003077D01*
X017421Y003077D01*
X017466Y003065D01*
X017507Y003041D01*
X017541Y003007D01*
X017565Y002966D01*
X017577Y002921D01*
X017577Y002618D01*
X017577Y002636D02*
X017643Y002636D01*
X017643Y002795D02*
X017577Y002795D01*
X017568Y002953D02*
X017643Y002953D01*
X017118Y002953D02*
X017082Y002953D01*
X017082Y002795D02*
X017118Y002795D01*
X017118Y002636D02*
X017082Y002636D01*
X017082Y002478D02*
X017118Y002478D01*
X017118Y002319D02*
X017082Y002319D01*
X017082Y002161D02*
X017118Y002161D01*
X016623Y002319D02*
X016557Y002319D01*
X016557Y002478D02*
X016623Y002478D01*
X016623Y002636D02*
X016557Y002636D01*
X016557Y002795D02*
X016623Y002795D01*
X016632Y002953D02*
X016557Y002953D01*
X018557Y002953D02*
X018643Y002953D01*
X018643Y002963D02*
X018643Y002237D01*
X018737Y002143D01*
X019463Y002143D01*
X019557Y002237D01*
X019557Y002963D01*
X019463Y003057D01*
X018737Y003057D01*
X018643Y002963D01*
X018643Y002795D02*
X018557Y002795D01*
X018557Y002636D02*
X018643Y002636D01*
X018643Y002478D02*
X018557Y002478D01*
X018557Y002319D02*
X018643Y002319D01*
X018720Y002161D02*
X018480Y002161D01*
X018518Y002002D02*
X018682Y002002D01*
X018643Y001963D02*
X018643Y001237D01*
X018737Y001143D01*
X019463Y001143D01*
X019557Y001237D01*
X019557Y001963D01*
X019463Y002057D01*
X018737Y002057D01*
X018643Y001963D01*
X018643Y001844D02*
X018557Y001844D01*
X018557Y001685D02*
X018643Y001685D01*
X018643Y001527D02*
X018557Y001527D01*
X018557Y001368D02*
X018643Y001368D01*
X018671Y001210D02*
X018529Y001210D01*
X019529Y001210D02*
X019671Y001210D01*
X019643Y001237D02*
X019737Y001143D01*
X020463Y001143D01*
X020557Y001237D01*
X020557Y001963D01*
X020463Y002057D01*
X019737Y002057D01*
X019643Y001963D01*
X019643Y001237D01*
X019643Y001368D02*
X019557Y001368D01*
X019557Y001527D02*
X019643Y001527D01*
X019643Y001685D02*
X019557Y001685D01*
X019557Y001844D02*
X019643Y001844D01*
X019682Y002002D02*
X019518Y002002D01*
X019480Y002161D02*
X019720Y002161D01*
X019737Y002143D02*
X020463Y002143D01*
X020557Y002237D01*
X020557Y002963D01*
X020463Y003057D01*
X019737Y003057D01*
X019643Y002963D01*
X019643Y002237D01*
X019737Y002143D01*
X019643Y002319D02*
X019557Y002319D01*
X019557Y002478D02*
X019643Y002478D01*
X019643Y002636D02*
X019557Y002636D01*
X019557Y002795D02*
X019643Y002795D01*
X019643Y002953D02*
X019557Y002953D01*
X020557Y002953D02*
X020643Y002953D01*
X020643Y002795D02*
X020557Y002795D01*
X020557Y002636D02*
X020643Y002636D01*
X020643Y002478D02*
X020557Y002478D01*
X020557Y002319D02*
X020643Y002319D01*
X020720Y002161D02*
X020480Y002161D01*
X020518Y002002D02*
X020682Y002002D01*
X020643Y001844D02*
X020557Y001844D01*
X020557Y001685D02*
X020643Y001685D01*
X020643Y001527D02*
X020557Y001527D01*
X020557Y001368D02*
X020643Y001368D01*
X020671Y001210D02*
X020529Y001210D01*
X025529Y001210D02*
X025671Y001210D01*
X025643Y001237D02*
X025737Y001143D01*
X026463Y001143D01*
X026557Y001237D01*
X026557Y001963D01*
X026463Y002057D01*
X025737Y002057D01*
X025643Y001963D01*
X025643Y001237D01*
X025643Y001368D02*
X025557Y001368D01*
X025557Y001527D02*
X025643Y001527D01*
X025643Y001685D02*
X025557Y001685D01*
X025557Y001844D02*
X025643Y001844D01*
X025682Y002002D02*
X025518Y002002D01*
X025480Y002161D02*
X025720Y002161D01*
X025737Y002143D02*
X026463Y002143D01*
X026557Y002237D01*
X026557Y002963D01*
X026463Y003057D01*
X025737Y003057D01*
X025643Y002963D01*
X025643Y002237D01*
X025737Y002143D01*
X025643Y002319D02*
X025557Y002319D01*
X025557Y002478D02*
X025643Y002478D01*
X025643Y002636D02*
X025557Y002636D01*
X025557Y002795D02*
X025643Y002795D01*
X025643Y002953D02*
X025557Y002953D01*
X026557Y002953D02*
X026643Y002953D01*
X026643Y002963D02*
X026643Y002237D01*
X026737Y002143D01*
X027463Y002143D01*
X027557Y002237D01*
X027557Y002963D01*
X027463Y003057D01*
X026737Y003057D01*
X026643Y002963D01*
X026643Y002795D02*
X026557Y002795D01*
X026557Y002636D02*
X026643Y002636D01*
X026643Y002478D02*
X026557Y002478D01*
X026557Y002319D02*
X026643Y002319D01*
X026720Y002161D02*
X026480Y002161D01*
X026518Y002002D02*
X026682Y002002D01*
X026643Y001963D02*
X026643Y001237D01*
X026737Y001143D01*
X027463Y001143D01*
X027557Y001237D01*
X027557Y001963D01*
X027463Y002057D01*
X026737Y002057D01*
X026643Y001963D01*
X026643Y001844D02*
X026557Y001844D01*
X026557Y001685D02*
X026643Y001685D01*
X026643Y001527D02*
X026557Y001527D01*
X026557Y001368D02*
X026643Y001368D01*
X026671Y001210D02*
X026529Y001210D01*
X027529Y001210D02*
X027671Y001210D01*
X027643Y001237D02*
X027737Y001143D01*
X028463Y001143D01*
X028557Y001237D01*
X028557Y001963D01*
X028463Y002057D01*
X027737Y002057D01*
X027643Y001963D01*
X027643Y001237D01*
X027643Y001368D02*
X027557Y001368D01*
X027557Y001527D02*
X027643Y001527D01*
X027643Y001685D02*
X027557Y001685D01*
X027557Y001844D02*
X027643Y001844D01*
X027682Y002002D02*
X027518Y002002D01*
X027480Y002161D02*
X027720Y002161D01*
X027737Y002143D02*
X028463Y002143D01*
X028557Y002237D01*
X028557Y002963D01*
X028463Y003057D01*
X027737Y003057D01*
X027643Y002963D01*
X027643Y002237D01*
X027737Y002143D01*
X027643Y002319D02*
X027557Y002319D01*
X027557Y002478D02*
X027643Y002478D01*
X027643Y002636D02*
X027557Y002636D01*
X027557Y002795D02*
X027643Y002795D01*
X027643Y002953D02*
X027557Y002953D01*
X028557Y002953D02*
X028643Y002953D01*
X028643Y002963D02*
X028643Y002237D01*
X028737Y002143D01*
X029463Y002143D01*
X029557Y002237D01*
X029557Y002963D01*
X029463Y003057D01*
X028737Y003057D01*
X028643Y002963D01*
X028643Y002795D02*
X028557Y002795D01*
X028557Y002636D02*
X028643Y002636D01*
X028643Y002478D02*
X028557Y002478D01*
X028557Y002319D02*
X028643Y002319D01*
X028720Y002161D02*
X028480Y002161D01*
X028518Y002002D02*
X028682Y002002D01*
X028643Y001963D02*
X028643Y001237D01*
X028737Y001143D01*
X029463Y001143D01*
X029557Y001237D01*
X029557Y001963D01*
X029463Y002057D01*
X028737Y002057D01*
X028643Y001963D01*
X028643Y001844D02*
X028557Y001844D01*
X028557Y001685D02*
X028643Y001685D01*
X028643Y001527D02*
X028557Y001527D01*
X028557Y001368D02*
X028643Y001368D01*
X028671Y001210D02*
X028529Y001210D01*
X029529Y001210D02*
X029671Y001210D01*
X029643Y001237D02*
X029737Y001143D01*
X030463Y001143D01*
X030557Y001237D01*
X030557Y001963D01*
X030463Y002057D01*
X029737Y002057D01*
X029643Y001963D01*
X029643Y001237D01*
X029643Y001368D02*
X029557Y001368D01*
X029557Y001527D02*
X029643Y001527D01*
X029643Y001685D02*
X029557Y001685D01*
X029557Y001844D02*
X029643Y001844D01*
X029682Y002002D02*
X029518Y002002D01*
X029480Y002161D02*
X029720Y002161D01*
X029737Y002143D02*
X030463Y002143D01*
X030557Y002237D01*
X030557Y002963D01*
X030463Y003057D01*
X029737Y003057D01*
X029643Y002963D01*
X029643Y002237D01*
X029737Y002143D01*
X029643Y002319D02*
X029557Y002319D01*
X029557Y002478D02*
X029643Y002478D01*
X029643Y002636D02*
X029557Y002636D01*
X029557Y002795D02*
X029643Y002795D01*
X029643Y002953D02*
X029557Y002953D01*
X030557Y002953D02*
X030643Y002953D01*
X030643Y002963D02*
X030643Y002237D01*
X030737Y002143D01*
X031463Y002143D01*
X031557Y002237D01*
X031557Y002963D01*
X031463Y003057D01*
X030737Y003057D01*
X030643Y002963D01*
X030643Y002795D02*
X030557Y002795D01*
X030557Y002636D02*
X030643Y002636D01*
X030643Y002478D02*
X030557Y002478D01*
X030557Y002319D02*
X030643Y002319D01*
X030720Y002161D02*
X030480Y002161D01*
X030518Y002002D02*
X030682Y002002D01*
X030643Y001963D02*
X030643Y001237D01*
X030737Y001143D01*
X031463Y001143D01*
X031557Y001237D01*
X031557Y001963D01*
X031463Y002057D01*
X030737Y002057D01*
X030643Y001963D01*
X030643Y001844D02*
X030557Y001844D01*
X030557Y001685D02*
X030643Y001685D01*
X030643Y001527D02*
X030557Y001527D01*
X030557Y001368D02*
X030643Y001368D01*
X030671Y001210D02*
X030529Y001210D01*
X031529Y001210D02*
X031671Y001210D01*
X031643Y001368D02*
X031557Y001368D01*
X031557Y001527D02*
X031643Y001527D01*
X031643Y001685D02*
X031557Y001685D01*
X031557Y001844D02*
X031643Y001844D01*
X031682Y002002D02*
X031518Y002002D01*
X031480Y002161D02*
X031720Y002161D01*
X031643Y002319D02*
X031557Y002319D01*
X031557Y002478D02*
X031643Y002478D01*
X031643Y002636D02*
X031557Y002636D01*
X031557Y002795D02*
X031643Y002795D01*
X031643Y002953D02*
X031557Y002953D01*
D19*
X027600Y005100D03*
X032100Y008100D03*
X034600Y012100D03*
X036100Y012600D03*
X039100Y013100D03*
X041100Y008100D03*
X032100Y014600D03*
X032100Y020100D03*
X041100Y020100D03*
X041100Y025100D03*
X041100Y030100D03*
X032100Y030600D03*
X032100Y027600D03*
X021600Y024600D03*
X021600Y020100D03*
X021600Y014600D03*
X021600Y008100D03*
X021600Y004600D03*
X012100Y001100D03*
X012100Y008100D03*
X012100Y014600D03*
X012100Y020100D03*
X001600Y020100D03*
X001600Y014600D03*
X001600Y008100D03*
X001600Y001100D03*
X001600Y025600D03*
X001600Y030600D03*
X012100Y030600D03*
X021600Y030600D03*
X041100Y001100D03*
M02*
