%
M48
M72
T01C0.0236
T02C0.0276
T03C0.0315
T04C0.0400
T05C0.0472
%
T01
X12100Y4600
X33100Y19100
X13100Y24100
T02
X1600Y1100
X1600Y8100
X1600Y14600
X1600Y20100
X1600Y25600
X1600Y30600
X12100Y30600
X21600Y30600
X21600Y25100
X21600Y20100
X21600Y14600
X21600Y8100
X21600Y4600
X27600Y5100
X32100Y8100
X34600Y12100
X36100Y12600
X39100Y13100
X40317Y16706
X40317Y17494
X37817Y17494
X37817Y16706
X35317Y16706
X35317Y17494
X32100Y20100
X32100Y25100
X32100Y30600
X41100Y30100
X41100Y25100
X41100Y20100
X32100Y14600
X41100Y8100
X41100Y1100
X12100Y1100
X12100Y8100
X12100Y14600
X12100Y20100
T03
X14100Y26100
X15100Y26100
X16100Y26100
X16100Y27100
X15100Y27100
X14100Y27100
X17100Y27100
X18100Y27100
X19100Y27100
X19100Y26100
X18100Y26100
X17100Y26100
X20100Y26100
X21100Y26100
X22100Y26100
X22100Y27100
X21100Y27100
X20100Y27100
X23100Y27100
X24100Y27100
X25100Y27100
X25100Y26100
X24100Y26100
X23100Y26100
X26100Y26100
X27100Y26100
X28100Y26100
X28100Y27100
X27100Y27100
X26100Y27100
X29100Y27100
X30100Y27100
X31100Y27100
X31100Y26100
X30100Y26100
X29100Y26100
X32100Y26100
X32100Y27100
X4100Y26600
X3100Y26600
X14100Y2600
X15100Y2600
X16100Y2600
X16100Y1600
X15100Y1600
X14100Y1600
X17100Y1600
X18100Y1600
X19100Y1600
X19100Y2600
X18100Y2600
X17100Y2600
X20100Y2600
X21100Y2600
X22100Y2600
X22100Y1600
X21100Y1600
X20100Y1600
X23100Y1600
X24100Y1600
X25100Y1600
X25100Y2600
X24100Y2600
X23100Y2600
X26100Y2600
X27100Y2600
X28100Y2600
X28100Y1600
X27100Y1600
X26100Y1600
X29100Y1600
X30100Y1600
X31100Y1600
X31100Y2600
X30100Y2600
X29100Y2600
X32100Y2600
X32100Y1600
X4100Y1600
X3100Y1600
T04
X35600Y2100
X35600Y3100
X35600Y4100
X38600Y7600
X39600Y7600
X39600Y8600
X38600Y8600
X38600Y9600
X39600Y9600
X39600Y10600
X38600Y10600
X38600Y11600
X39600Y11600
X38550Y21600
X38650Y22600
X38550Y23600
X38650Y24600
X38550Y25600
X38650Y26600
X38550Y27600
X35600Y27600
X35600Y26600
X35600Y25600
X35600Y24600
X35600Y23600
X35600Y22600
X35600Y21600
T05
X39100Y3478
X39100Y2100
M30
