G75*
G70*
%OFA0B0*%
%FSLAX24Y24*%
%IPPOS*%
%LPD*%
%AMOC8*
5,1,8,0,0,1.08239X$1,22.5*
%
%ADD10C,0.0000*%
%ADD11R,0.0634X0.0634*%
%ADD12C,0.0740*%
%ADD13R,0.0630X0.0787*%
%ADD14C,0.0640*%
%ADD15OC8,0.0740*%
%ADD16R,0.0800X0.0800*%
%ADD17C,0.0800*%
%ADD18R,0.0472X0.0787*%
%ADD19R,0.0394X0.0551*%
%ADD20C,0.0160*%
%ADD21C,0.0476*%
D10*
X000100Y000100D02*
X000100Y031470D01*
X042592Y031470D01*
X042592Y000100D01*
X000100Y000100D01*
X011982Y004600D02*
X011984Y004621D01*
X011990Y004641D01*
X011999Y004661D01*
X012011Y004678D01*
X012026Y004692D01*
X012044Y004704D01*
X012064Y004712D01*
X012084Y004717D01*
X012105Y004718D01*
X012126Y004715D01*
X012146Y004709D01*
X012165Y004698D01*
X012182Y004685D01*
X012195Y004669D01*
X012206Y004651D01*
X012214Y004631D01*
X012218Y004611D01*
X012218Y004589D01*
X012214Y004569D01*
X012206Y004549D01*
X012195Y004531D01*
X012182Y004515D01*
X012165Y004502D01*
X012146Y004491D01*
X012126Y004485D01*
X012105Y004482D01*
X012084Y004483D01*
X012064Y004488D01*
X012044Y004496D01*
X012026Y004508D01*
X012011Y004522D01*
X011999Y004539D01*
X011990Y004559D01*
X011984Y004579D01*
X011982Y004600D01*
X032982Y019100D02*
X032984Y019121D01*
X032990Y019141D01*
X032999Y019161D01*
X033011Y019178D01*
X033026Y019192D01*
X033044Y019204D01*
X033064Y019212D01*
X033084Y019217D01*
X033105Y019218D01*
X033126Y019215D01*
X033146Y019209D01*
X033165Y019198D01*
X033182Y019185D01*
X033195Y019169D01*
X033206Y019151D01*
X033214Y019131D01*
X033218Y019111D01*
X033218Y019089D01*
X033214Y019069D01*
X033206Y019049D01*
X033195Y019031D01*
X033182Y019015D01*
X033165Y019002D01*
X033146Y018991D01*
X033126Y018985D01*
X033105Y018982D01*
X033084Y018983D01*
X033064Y018988D01*
X033044Y018996D01*
X033026Y019008D01*
X033011Y019022D01*
X032999Y019039D01*
X032990Y019059D01*
X032984Y019079D01*
X032982Y019100D01*
X012982Y024100D02*
X012984Y024121D01*
X012990Y024141D01*
X012999Y024161D01*
X013011Y024178D01*
X013026Y024192D01*
X013044Y024204D01*
X013064Y024212D01*
X013084Y024217D01*
X013105Y024218D01*
X013126Y024215D01*
X013146Y024209D01*
X013165Y024198D01*
X013182Y024185D01*
X013195Y024169D01*
X013206Y024151D01*
X013214Y024131D01*
X013218Y024111D01*
X013218Y024089D01*
X013214Y024069D01*
X013206Y024049D01*
X013195Y024031D01*
X013182Y024015D01*
X013165Y024002D01*
X013146Y023991D01*
X013126Y023985D01*
X013105Y023982D01*
X013084Y023983D01*
X013064Y023988D01*
X013044Y023996D01*
X013026Y024008D01*
X013011Y024022D01*
X012999Y024039D01*
X012990Y024059D01*
X012984Y024079D01*
X012982Y024100D01*
D11*
X014100Y025600D03*
X015100Y025600D03*
X016100Y025600D03*
X017100Y025600D03*
X018100Y025600D03*
X019100Y025600D03*
X020100Y025600D03*
X021100Y025600D03*
X022100Y025600D03*
X023100Y025600D03*
X024100Y025600D03*
X025100Y025600D03*
X026100Y025600D03*
X027100Y025600D03*
X028100Y025600D03*
X029100Y025600D03*
X030100Y025600D03*
X031100Y025600D03*
X032100Y025600D03*
X032100Y026600D03*
X031100Y026600D03*
X030100Y026600D03*
X029100Y026600D03*
X028100Y026600D03*
X027100Y026600D03*
X026100Y026600D03*
X025100Y026600D03*
X024100Y026600D03*
X023100Y026600D03*
X022100Y026600D03*
X021100Y026600D03*
X020100Y026600D03*
X019100Y026600D03*
X018100Y026600D03*
X017100Y026600D03*
X016100Y026600D03*
X015100Y026600D03*
X014100Y026600D03*
X004100Y026600D03*
X003100Y026600D03*
X014100Y002600D03*
X015100Y002600D03*
X016100Y002600D03*
X016100Y001600D03*
X015100Y001600D03*
X014100Y001600D03*
X017100Y001600D03*
X018100Y001600D03*
X019100Y001600D03*
X019100Y002600D03*
X018100Y002600D03*
X017100Y002600D03*
X020100Y002600D03*
X021100Y002600D03*
X022100Y002600D03*
X022100Y001600D03*
X021100Y001600D03*
X020100Y001600D03*
X023100Y001600D03*
X024100Y001600D03*
X025100Y001600D03*
X025100Y002600D03*
X024100Y002600D03*
X023100Y002600D03*
X026100Y002600D03*
X027100Y002600D03*
X028100Y002600D03*
X028100Y001600D03*
X027100Y001600D03*
X026100Y001600D03*
X029100Y001600D03*
X030100Y001600D03*
X031100Y001600D03*
X031100Y002600D03*
X030100Y002600D03*
X029100Y002600D03*
X032100Y002600D03*
X032100Y001600D03*
X004100Y001600D03*
X003100Y001600D03*
D12*
X035600Y021600D03*
X035600Y022600D03*
X035600Y023600D03*
X035600Y024600D03*
X035600Y025600D03*
X035600Y026600D03*
X035600Y027600D03*
X038550Y027600D03*
X038650Y026600D03*
X038550Y025600D03*
X038650Y024600D03*
X038550Y023600D03*
X038650Y022600D03*
X038550Y021600D03*
D13*
X038151Y014600D03*
X037049Y014600D03*
X035651Y014600D03*
X034549Y014600D03*
X039549Y014600D03*
X040651Y014600D03*
X020651Y006100D03*
X019549Y006100D03*
X015151Y028600D03*
X014049Y028600D03*
D14*
X035317Y017494D03*
X035317Y016706D03*
X037817Y016706D03*
X037817Y017494D03*
X040317Y017494D03*
X040317Y016706D03*
X035383Y007494D03*
X035383Y006706D03*
X035600Y004100D03*
X035600Y003100D03*
X035600Y002100D03*
D15*
X038600Y007600D03*
X039600Y007600D03*
X039600Y008600D03*
X038600Y008600D03*
X038600Y009600D03*
X039600Y009600D03*
X039600Y010600D03*
X038600Y010600D03*
X038600Y011600D03*
X039600Y011600D03*
D16*
X039100Y002100D03*
D17*
X039100Y003478D03*
D18*
X026730Y004600D03*
X025470Y004600D03*
X020730Y004600D03*
X019470Y004600D03*
D19*
X018100Y006667D03*
X017726Y007533D03*
X018474Y007533D03*
D20*
X018541Y007600D01*
X019100Y007600D01*
X019600Y007100D01*
X034100Y007100D01*
X034494Y007494D01*
X035383Y007494D01*
X035814Y007708D02*
X038050Y007708D01*
X038050Y007620D02*
X038580Y007620D01*
X038580Y007580D01*
X038620Y007580D01*
X038620Y007620D01*
X039580Y007620D01*
X039580Y008150D01*
X039580Y008580D01*
X039620Y008580D01*
X039620Y008620D01*
X040150Y008620D01*
X040150Y008828D01*
X039878Y009100D01*
X040150Y009372D01*
X040150Y009580D01*
X039620Y009580D01*
X039620Y009620D01*
X040150Y009620D01*
X040150Y009828D01*
X039878Y010100D01*
X040150Y010372D01*
X040150Y010580D01*
X039620Y010580D01*
X039620Y010620D01*
X040150Y010620D01*
X040150Y010828D01*
X039864Y011114D01*
X040130Y011380D01*
X040130Y011820D01*
X039820Y012130D01*
X039469Y012130D01*
X039699Y012360D01*
X041001Y012360D01*
X041360Y012001D01*
X041360Y004699D01*
X039321Y002660D01*
X038879Y002660D01*
X038236Y003303D01*
X038148Y003340D01*
X036020Y003340D01*
X036007Y003372D01*
X035872Y003507D01*
X035695Y003580D01*
X035505Y003580D01*
X035328Y003507D01*
X035193Y003372D01*
X035120Y003195D01*
X035120Y003005D01*
X035193Y002828D01*
X035328Y002693D01*
X035505Y002620D01*
X035695Y002620D01*
X035872Y002693D01*
X036007Y002828D01*
X036020Y002860D01*
X038001Y002860D01*
X038540Y002321D01*
X038540Y001634D01*
X038634Y001540D01*
X039566Y001540D01*
X039660Y001634D01*
X039660Y002321D01*
X041736Y004397D01*
X041803Y004464D01*
X041840Y004552D01*
X041840Y012148D01*
X041803Y012236D01*
X041236Y012803D01*
X041148Y012840D01*
X039552Y012840D01*
X039464Y012803D01*
X038791Y012130D01*
X038380Y012130D01*
X038090Y011840D01*
X037052Y011840D01*
X036964Y011803D01*
X036501Y011340D01*
X034699Y011340D01*
X033340Y012699D01*
X033340Y017001D01*
X035736Y019397D01*
X035803Y019464D01*
X035840Y019552D01*
X035840Y021126D01*
X035900Y021151D01*
X036049Y021300D01*
X036074Y021360D01*
X038076Y021360D01*
X038101Y021300D01*
X038250Y021151D01*
X038445Y021070D01*
X038655Y021070D01*
X038850Y021151D01*
X038999Y021300D01*
X039080Y021495D01*
X039080Y021705D01*
X038999Y021900D01*
X038850Y022049D01*
X038800Y022070D01*
X038861Y022090D01*
X038938Y022130D01*
X039008Y022180D01*
X039070Y022242D01*
X039120Y022312D01*
X039160Y022389D01*
X039186Y022471D01*
X039200Y022557D01*
X039200Y022580D01*
X038670Y022580D01*
X038670Y022620D01*
X039200Y022620D01*
X039200Y022643D01*
X039186Y022729D01*
X039160Y022811D01*
X039120Y022888D01*
X039070Y022958D01*
X039008Y023020D01*
X038938Y023070D01*
X038861Y023110D01*
X038800Y023130D01*
X038850Y023151D01*
X038999Y023300D01*
X039080Y023495D01*
X039080Y023705D01*
X038999Y023900D01*
X038850Y024049D01*
X038778Y024079D01*
X038950Y024151D01*
X039099Y024300D01*
X039180Y024495D01*
X039180Y024705D01*
X039099Y024900D01*
X038950Y025049D01*
X038778Y025121D01*
X038850Y025151D01*
X038999Y025300D01*
X039080Y025495D01*
X039080Y025705D01*
X038999Y025900D01*
X038850Y026049D01*
X038778Y026079D01*
X038950Y026151D01*
X039099Y026300D01*
X039180Y026495D01*
X039180Y026705D01*
X039099Y026900D01*
X038950Y027049D01*
X038778Y027121D01*
X038850Y027151D01*
X038999Y027300D01*
X039080Y027495D01*
X039080Y027705D01*
X038999Y027900D01*
X038850Y028049D01*
X038655Y028130D01*
X038445Y028130D01*
X038250Y028049D01*
X038101Y027900D01*
X038076Y027840D01*
X038052Y027840D01*
X037964Y027803D01*
X037897Y027736D01*
X036053Y025892D01*
X036049Y025900D01*
X035900Y026049D01*
X035778Y026100D01*
X035900Y026151D01*
X036049Y026300D01*
X036130Y026495D01*
X036130Y026705D01*
X036049Y026900D01*
X035900Y027049D01*
X035778Y027100D01*
X035900Y027151D01*
X036049Y027300D01*
X036130Y027495D01*
X036130Y027705D01*
X036049Y027900D01*
X035900Y028049D01*
X035705Y028130D01*
X035495Y028130D01*
X035300Y028049D01*
X035151Y027900D01*
X035070Y027705D01*
X035070Y027495D01*
X035151Y027300D01*
X035300Y027151D01*
X035422Y027100D01*
X035300Y027049D01*
X035151Y026900D01*
X035070Y026705D01*
X035070Y026495D01*
X035151Y026300D01*
X035300Y026151D01*
X035422Y026100D01*
X035300Y026049D01*
X035151Y025900D01*
X035070Y025705D01*
X035070Y025495D01*
X035151Y025300D01*
X035300Y025151D01*
X035422Y025100D01*
X035300Y025049D01*
X035151Y024900D01*
X035070Y024705D01*
X035070Y024495D01*
X035151Y024300D01*
X035300Y024151D01*
X035422Y024100D01*
X035300Y024049D01*
X035151Y023900D01*
X035070Y023705D01*
X035070Y023495D01*
X035151Y023300D01*
X035300Y023151D01*
X035394Y023111D01*
X035389Y023110D01*
X035312Y023070D01*
X035242Y023020D01*
X035180Y022958D01*
X035130Y022888D01*
X035090Y022811D01*
X035064Y022729D01*
X035050Y022643D01*
X035050Y022620D01*
X035580Y022620D01*
X035580Y022580D01*
X035050Y022580D01*
X035050Y022557D01*
X035064Y022471D01*
X035090Y022389D01*
X035130Y022312D01*
X035180Y022242D01*
X035242Y022180D01*
X035312Y022130D01*
X035389Y022090D01*
X035394Y022089D01*
X035300Y022049D01*
X035151Y021900D01*
X035070Y021705D01*
X035070Y021495D01*
X035151Y021300D01*
X035300Y021151D01*
X035360Y021126D01*
X035360Y019699D01*
X032897Y017236D01*
X032860Y017148D01*
X032860Y012552D01*
X032897Y012464D01*
X032964Y012397D01*
X034464Y010897D01*
X034552Y010860D01*
X036648Y010860D01*
X036736Y010897D01*
X036803Y010964D01*
X037199Y011360D01*
X038090Y011360D01*
X038350Y011100D01*
X038090Y010840D01*
X034199Y010840D01*
X027840Y017199D01*
X027840Y021501D01*
X029236Y022897D01*
X029303Y022964D01*
X029340Y023052D01*
X029340Y025123D01*
X029483Y025123D01*
X029577Y025217D01*
X029577Y025983D01*
X029483Y026077D01*
X028717Y026077D01*
X028623Y025983D01*
X028623Y025217D01*
X028717Y025123D01*
X028860Y025123D01*
X028860Y023199D01*
X027397Y021736D01*
X027360Y021648D01*
X027360Y017052D01*
X027397Y016964D01*
X027464Y016897D01*
X033964Y010397D01*
X034052Y010360D01*
X038090Y010360D01*
X038110Y010340D01*
X033699Y010340D01*
X027340Y016699D01*
X027340Y025123D01*
X027483Y025123D01*
X027577Y025217D01*
X027577Y025983D01*
X027483Y026077D01*
X026717Y026077D01*
X026623Y025983D01*
X026623Y025217D01*
X026717Y025123D01*
X026860Y025123D01*
X026860Y016552D01*
X026897Y016464D01*
X026964Y016397D01*
X033464Y009897D01*
X033552Y009860D01*
X038001Y009860D01*
X038070Y009791D01*
X038070Y009380D01*
X038350Y009100D01*
X038090Y008840D01*
X034199Y008840D01*
X023803Y019236D01*
X023736Y019303D01*
X023648Y019340D01*
X019199Y019340D01*
X015340Y023199D01*
X015340Y025123D01*
X015483Y025123D01*
X015577Y025217D01*
X015577Y025983D01*
X015483Y026077D01*
X014717Y026077D01*
X014623Y025983D01*
X014623Y025217D01*
X014717Y025123D01*
X014860Y025123D01*
X014860Y023052D01*
X014897Y022964D01*
X014964Y022897D01*
X018964Y018897D01*
X019052Y018860D01*
X023501Y018860D01*
X033897Y008464D01*
X033964Y008397D01*
X034052Y008360D01*
X038090Y008360D01*
X038336Y008114D01*
X038050Y007828D01*
X038050Y007620D01*
X038050Y007580D02*
X038050Y007372D01*
X038372Y007050D01*
X038580Y007050D01*
X038580Y007580D01*
X038050Y007580D01*
X038050Y007550D02*
X035863Y007550D01*
X035863Y007589D02*
X035790Y007766D01*
X035655Y007901D01*
X035479Y007974D01*
X035288Y007974D01*
X035112Y007901D01*
X034977Y007766D01*
X034963Y007734D01*
X034446Y007734D01*
X034358Y007697D01*
X034001Y007340D01*
X019699Y007340D01*
X019303Y007736D01*
X019236Y007803D01*
X019148Y007840D01*
X018831Y007840D01*
X018831Y007875D01*
X018737Y007969D01*
X018211Y007969D01*
X018117Y007875D01*
X018117Y007191D01*
X018206Y007103D01*
X018014Y007103D01*
X018033Y007113D01*
X018067Y007147D01*
X018091Y007188D01*
X018103Y007234D01*
X018103Y007515D01*
X017744Y007515D01*
X017744Y007077D01*
X017812Y007077D01*
X017743Y007009D01*
X017743Y006325D01*
X017837Y006231D01*
X018196Y006231D01*
X018531Y005897D01*
X018549Y005889D01*
X018464Y005803D01*
X018397Y005736D01*
X018360Y005648D01*
X018360Y004923D01*
X018263Y004825D01*
X018202Y004679D01*
X018202Y004521D01*
X018263Y004375D01*
X018375Y004263D01*
X018521Y004202D01*
X018679Y004202D01*
X018825Y004263D01*
X018937Y004375D01*
X018998Y004521D01*
X018998Y004679D01*
X018937Y004825D01*
X018840Y004923D01*
X018840Y005501D01*
X019074Y005734D01*
X019074Y005640D01*
X019168Y005546D01*
X019930Y005546D01*
X020024Y005640D01*
X020024Y006560D01*
X019930Y006654D01*
X019168Y006654D01*
X019074Y006560D01*
X019074Y006340D01*
X018766Y006340D01*
X018457Y006649D01*
X018457Y007009D01*
X018368Y007097D01*
X018737Y007097D01*
X018831Y007191D01*
X018831Y007360D01*
X019001Y007360D01*
X019464Y006897D01*
X019552Y006860D01*
X034148Y006860D01*
X034236Y006897D01*
X034303Y006964D01*
X034593Y007254D01*
X034963Y007254D01*
X034977Y007222D01*
X035088Y007110D01*
X035058Y007088D01*
X035002Y007032D01*
X034956Y006968D01*
X034920Y006898D01*
X034896Y006823D01*
X034883Y006746D01*
X034883Y006706D01*
X034883Y006667D01*
X034896Y006589D01*
X034920Y006514D01*
X034956Y006444D01*
X035002Y006381D01*
X035058Y006325D01*
X035121Y006279D01*
X035192Y006243D01*
X035266Y006219D01*
X035344Y006206D01*
X035383Y006206D01*
X035383Y006706D01*
X034883Y006706D01*
X035383Y006706D01*
X035383Y006706D01*
X035383Y006706D01*
X035383Y006206D01*
X035423Y006206D01*
X035501Y006219D01*
X035575Y006243D01*
X035646Y006279D01*
X035709Y006325D01*
X035765Y006381D01*
X035811Y006444D01*
X035847Y006514D01*
X035871Y006589D01*
X035883Y006667D01*
X035883Y006706D01*
X035383Y006706D01*
X035383Y006706D01*
X035883Y006706D01*
X035883Y006746D01*
X035871Y006823D01*
X035847Y006898D01*
X035811Y006968D01*
X035765Y007032D01*
X035709Y007088D01*
X035679Y007110D01*
X035790Y007222D01*
X035863Y007398D01*
X035863Y007589D01*
X035860Y007391D02*
X038050Y007391D01*
X038190Y007233D02*
X035795Y007233D01*
X035723Y007074D02*
X038348Y007074D01*
X038580Y007074D02*
X038620Y007074D01*
X038620Y007050D02*
X038828Y007050D01*
X039100Y007322D01*
X039372Y007050D01*
X039580Y007050D01*
X039580Y007580D01*
X039620Y007580D01*
X039620Y007620D01*
X040150Y007620D01*
X040150Y007828D01*
X039878Y008100D01*
X040150Y008372D01*
X040150Y008580D01*
X039620Y008580D01*
X039620Y007620D01*
X039580Y007620D01*
X039580Y007580D01*
X039050Y007580D01*
X038620Y007580D01*
X038620Y007050D01*
X038620Y007233D02*
X038580Y007233D01*
X038580Y007391D02*
X038620Y007391D01*
X038620Y007550D02*
X038580Y007550D01*
X038600Y007600D02*
X039600Y007600D01*
X039600Y008600D01*
X039600Y009600D01*
X039600Y010600D01*
X039620Y010580D02*
X039620Y009620D01*
X039580Y009620D01*
X039580Y010150D01*
X039580Y010580D01*
X039620Y010580D01*
X039620Y010561D02*
X039580Y010561D01*
X039580Y010403D02*
X039620Y010403D01*
X039620Y010244D02*
X039580Y010244D01*
X039580Y010086D02*
X039620Y010086D01*
X039620Y009927D02*
X039580Y009927D01*
X039580Y009769D02*
X039620Y009769D01*
X039620Y009610D02*
X041360Y009610D01*
X041360Y009452D02*
X040150Y009452D01*
X040071Y009293D02*
X041360Y009293D01*
X041360Y009135D02*
X039912Y009135D01*
X040002Y008976D02*
X041360Y008976D01*
X041360Y008818D02*
X040150Y008818D01*
X040150Y008659D02*
X041360Y008659D01*
X041360Y008501D02*
X040150Y008501D01*
X040120Y008342D02*
X041360Y008342D01*
X041360Y008184D02*
X039961Y008184D01*
X039953Y008025D02*
X041360Y008025D01*
X041360Y007867D02*
X040111Y007867D01*
X040150Y007708D02*
X041360Y007708D01*
X041360Y007550D02*
X040150Y007550D01*
X040150Y007580D02*
X039620Y007580D01*
X039620Y007050D01*
X039828Y007050D01*
X040150Y007372D01*
X040150Y007580D01*
X040150Y007391D02*
X041360Y007391D01*
X041360Y007233D02*
X040010Y007233D01*
X039852Y007074D02*
X041360Y007074D01*
X041360Y006916D02*
X035838Y006916D01*
X035882Y006757D02*
X041360Y006757D01*
X041360Y006599D02*
X035873Y006599D01*
X035808Y006440D02*
X041360Y006440D01*
X041360Y006282D02*
X035649Y006282D01*
X035383Y006282D02*
X035383Y006282D01*
X035383Y006440D02*
X035383Y006440D01*
X035383Y006599D02*
X035383Y006599D01*
X035117Y006282D02*
X021126Y006282D01*
X021126Y006440D02*
X034959Y006440D01*
X034894Y006599D02*
X021088Y006599D01*
X021126Y006560D02*
X021032Y006654D01*
X020270Y006654D01*
X020176Y006560D01*
X020176Y005640D01*
X020270Y005546D01*
X020490Y005546D01*
X020490Y005154D01*
X020427Y005154D01*
X020334Y005060D01*
X020334Y004140D01*
X020427Y004046D01*
X021032Y004046D01*
X021126Y004140D01*
X021126Y004360D01*
X021277Y004360D01*
X021375Y004263D01*
X021521Y004202D01*
X021679Y004202D01*
X021825Y004263D01*
X021937Y004375D01*
X021998Y004521D01*
X021998Y004679D01*
X021937Y004825D01*
X021825Y004937D01*
X021679Y004998D01*
X021521Y004998D01*
X021375Y004937D01*
X021277Y004840D01*
X021126Y004840D01*
X021126Y005060D01*
X021032Y005154D01*
X020970Y005154D01*
X020970Y005546D01*
X021032Y005546D01*
X021126Y005640D01*
X021126Y006560D01*
X021126Y006123D02*
X041360Y006123D01*
X041360Y005965D02*
X021126Y005965D01*
X021126Y005806D02*
X041360Y005806D01*
X041360Y005648D02*
X021126Y005648D01*
X020970Y005489D02*
X027500Y005489D01*
X027521Y005498D02*
X027375Y005437D01*
X027277Y005340D01*
X027052Y005340D01*
X026964Y005303D01*
X026897Y005236D01*
X026814Y005154D01*
X026427Y005154D01*
X026334Y005060D01*
X026334Y004140D01*
X026427Y004046D01*
X026860Y004046D01*
X026860Y003077D01*
X026717Y003077D01*
X026623Y002983D01*
X026623Y002217D01*
X026717Y002123D01*
X027483Y002123D01*
X027577Y002217D01*
X027577Y002983D01*
X027483Y003077D01*
X027340Y003077D01*
X027340Y004278D01*
X027303Y004366D01*
X027126Y004543D01*
X027126Y004787D01*
X027199Y004860D01*
X027277Y004860D01*
X027375Y004763D01*
X027521Y004702D01*
X027679Y004702D01*
X027825Y004763D01*
X027937Y004875D01*
X027998Y005021D01*
X027998Y005179D01*
X027937Y005325D01*
X027825Y005437D01*
X027679Y005498D01*
X027521Y005498D01*
X027700Y005489D02*
X041360Y005489D01*
X041360Y005331D02*
X027932Y005331D01*
X027998Y005172D02*
X041360Y005172D01*
X041360Y005014D02*
X027995Y005014D01*
X027918Y004855D02*
X041360Y004855D01*
X041357Y004697D02*
X027126Y004697D01*
X027131Y004538D02*
X035358Y004538D01*
X035338Y004528D02*
X035274Y004481D01*
X035219Y004426D01*
X035172Y004362D01*
X035137Y004292D01*
X035112Y004217D01*
X035100Y004139D01*
X035100Y004120D01*
X035580Y004120D01*
X035580Y004600D01*
X035561Y004600D01*
X035483Y004588D01*
X035408Y004563D01*
X035338Y004528D01*
X035185Y004380D02*
X027290Y004380D01*
X027340Y004221D02*
X035114Y004221D01*
X035100Y004080D02*
X035100Y004061D01*
X035112Y003983D01*
X035137Y003908D01*
X035172Y003838D01*
X035219Y003774D01*
X035274Y003719D01*
X035338Y003672D01*
X035408Y003637D01*
X035483Y003612D01*
X035561Y003600D01*
X035580Y003600D01*
X035580Y004080D01*
X035620Y004080D01*
X035620Y004120D01*
X036100Y004120D01*
X036100Y004139D01*
X036088Y004217D01*
X036063Y004292D01*
X036028Y004362D01*
X035981Y004426D01*
X035926Y004481D01*
X035862Y004528D01*
X035792Y004563D01*
X035717Y004588D01*
X035639Y004600D01*
X035620Y004600D01*
X035620Y004120D01*
X035580Y004120D01*
X035580Y004080D01*
X035100Y004080D01*
X035100Y004063D02*
X027340Y004063D01*
X027340Y003904D02*
X035139Y003904D01*
X035247Y003746D02*
X027340Y003746D01*
X027340Y003587D02*
X038530Y003587D01*
X038534Y003614D02*
X038520Y003524D01*
X038520Y003516D01*
X039062Y003516D01*
X039062Y004058D01*
X039054Y004058D01*
X038964Y004044D01*
X038877Y004015D01*
X038796Y003974D01*
X038722Y003920D01*
X038658Y003856D01*
X038604Y003782D01*
X038562Y003701D01*
X038534Y003614D01*
X038585Y003746D02*
X035953Y003746D01*
X035926Y003719D02*
X035981Y003774D01*
X036028Y003838D01*
X036063Y003908D01*
X036088Y003983D01*
X036100Y004061D01*
X036100Y004080D01*
X035620Y004080D01*
X035620Y003600D01*
X035639Y003600D01*
X035717Y003612D01*
X035792Y003637D01*
X035862Y003672D01*
X035926Y003719D01*
X036061Y003904D02*
X038706Y003904D01*
X038478Y004100D02*
X038978Y003600D01*
X039100Y003600D01*
X039600Y004100D01*
X039600Y007600D01*
X039580Y007550D02*
X039620Y007550D01*
X039620Y007708D02*
X039580Y007708D01*
X039580Y007867D02*
X039620Y007867D01*
X039620Y008025D02*
X039580Y008025D01*
X039580Y008184D02*
X039620Y008184D01*
X039620Y008342D02*
X039580Y008342D01*
X039580Y008501D02*
X039620Y008501D01*
X039620Y008620D02*
X039580Y008620D01*
X039580Y009150D01*
X039580Y009580D01*
X039620Y009580D01*
X039620Y008620D01*
X039620Y008659D02*
X039580Y008659D01*
X039580Y008818D02*
X039620Y008818D01*
X039620Y008976D02*
X039580Y008976D01*
X039580Y009135D02*
X039620Y009135D01*
X039620Y009293D02*
X039580Y009293D01*
X039580Y009452D02*
X039620Y009452D01*
X040150Y009769D02*
X041360Y009769D01*
X041360Y009927D02*
X040051Y009927D01*
X039892Y010086D02*
X041360Y010086D01*
X041360Y010244D02*
X040022Y010244D01*
X040150Y010403D02*
X041360Y010403D01*
X041360Y010561D02*
X040150Y010561D01*
X040150Y010720D02*
X041360Y010720D01*
X041360Y010878D02*
X040100Y010878D01*
X039941Y011037D02*
X041360Y011037D01*
X041360Y011195D02*
X039945Y011195D01*
X040103Y011354D02*
X041360Y011354D01*
X041360Y011512D02*
X040130Y011512D01*
X040130Y011671D02*
X041360Y011671D01*
X041360Y011829D02*
X040121Y011829D01*
X039962Y011988D02*
X041360Y011988D01*
X041215Y012146D02*
X039485Y012146D01*
X039644Y012305D02*
X041056Y012305D01*
X041100Y012600D02*
X041600Y012100D01*
X041600Y004600D01*
X039100Y002100D01*
X038100Y003100D01*
X035600Y003100D01*
X035120Y003112D02*
X027340Y003112D01*
X027340Y003270D02*
X035151Y003270D01*
X035250Y003429D02*
X027340Y003429D01*
X027717Y003077D02*
X027623Y002983D01*
X027623Y002217D01*
X027717Y002123D01*
X028483Y002123D01*
X028577Y002217D01*
X028577Y002983D01*
X028483Y003077D01*
X027717Y003077D01*
X027623Y002953D02*
X027577Y002953D01*
X027577Y002795D02*
X027623Y002795D01*
X027623Y002636D02*
X027577Y002636D01*
X027577Y002478D02*
X027623Y002478D01*
X027623Y002319D02*
X027577Y002319D01*
X027520Y002161D02*
X027680Y002161D01*
X027717Y002077D02*
X027623Y001983D01*
X027623Y001217D01*
X027717Y001123D01*
X027860Y001123D01*
X027860Y001052D01*
X027897Y000964D01*
X028261Y000600D01*
X000600Y000600D01*
X000600Y031100D01*
X042100Y031100D01*
X042100Y000600D01*
X034439Y000600D01*
X035473Y001633D01*
X035505Y001620D01*
X035695Y001620D01*
X035872Y001693D01*
X036007Y001828D01*
X036080Y002005D01*
X036080Y002195D01*
X036007Y002372D01*
X035872Y002507D01*
X035695Y002580D01*
X035505Y002580D01*
X035328Y002507D01*
X035193Y002372D01*
X035120Y002195D01*
X035120Y002005D01*
X035133Y001973D01*
X034001Y000840D01*
X028699Y000840D01*
X028416Y001123D01*
X028483Y001123D01*
X028577Y001217D01*
X028577Y001983D01*
X028483Y002077D01*
X027717Y002077D01*
X027642Y002002D02*
X027558Y002002D01*
X027577Y001983D02*
X027483Y002077D01*
X026717Y002077D01*
X026623Y001983D01*
X026623Y001217D01*
X026717Y001123D01*
X027483Y001123D01*
X027577Y001217D01*
X027577Y001983D01*
X027577Y001844D02*
X027623Y001844D01*
X027623Y001685D02*
X027577Y001685D01*
X027577Y001527D02*
X027623Y001527D01*
X027623Y001368D02*
X027577Y001368D01*
X027569Y001210D02*
X027631Y001210D01*
X027861Y001051D02*
X000600Y001051D01*
X000600Y000893D02*
X027968Y000893D01*
X028127Y000734D02*
X000600Y000734D01*
X000600Y001210D02*
X002631Y001210D01*
X002623Y001217D02*
X002717Y001123D01*
X003483Y001123D01*
X003577Y001217D01*
X003577Y001983D01*
X003483Y002077D01*
X002717Y002077D01*
X002623Y001983D01*
X002623Y001217D01*
X002623Y001368D02*
X000600Y001368D01*
X000600Y001527D02*
X002623Y001527D01*
X002623Y001685D02*
X000600Y001685D01*
X000600Y001844D02*
X002623Y001844D01*
X002642Y002002D02*
X000600Y002002D01*
X000600Y002161D02*
X013680Y002161D01*
X013717Y002123D02*
X014483Y002123D01*
X014577Y002217D01*
X014577Y002983D01*
X014483Y003077D01*
X013717Y003077D01*
X013623Y002983D01*
X013623Y002217D01*
X013717Y002123D01*
X013717Y002077D02*
X013623Y001983D01*
X013623Y001217D01*
X013717Y001123D01*
X014483Y001123D01*
X014577Y001217D01*
X014577Y001983D01*
X014483Y002077D01*
X013717Y002077D01*
X013642Y002002D02*
X004558Y002002D01*
X004577Y001983D02*
X004483Y002077D01*
X003717Y002077D01*
X003623Y001983D01*
X003623Y001217D01*
X003717Y001123D01*
X004483Y001123D01*
X004577Y001217D01*
X004577Y001983D01*
X004577Y001844D02*
X013623Y001844D01*
X013623Y001685D02*
X004577Y001685D01*
X004577Y001527D02*
X013623Y001527D01*
X013623Y001368D02*
X004577Y001368D01*
X004569Y001210D02*
X013631Y001210D01*
X014569Y001210D02*
X014631Y001210D01*
X014623Y001217D02*
X014717Y001123D01*
X015483Y001123D01*
X015577Y001217D01*
X015577Y001983D01*
X015483Y002077D01*
X014717Y002077D01*
X014623Y001983D01*
X014623Y001217D01*
X014623Y001368D02*
X014577Y001368D01*
X014577Y001527D02*
X014623Y001527D01*
X014623Y001685D02*
X014577Y001685D01*
X014577Y001844D02*
X014623Y001844D01*
X014642Y002002D02*
X014558Y002002D01*
X014520Y002161D02*
X014680Y002161D01*
X014717Y002123D02*
X015483Y002123D01*
X015577Y002217D01*
X015577Y002983D01*
X015483Y003077D01*
X014717Y003077D01*
X014623Y002983D01*
X014623Y002217D01*
X014717Y002123D01*
X014623Y002319D02*
X014577Y002319D01*
X014577Y002478D02*
X014623Y002478D01*
X014623Y002636D02*
X014577Y002636D01*
X014577Y002795D02*
X014623Y002795D01*
X014623Y002953D02*
X014577Y002953D01*
X015577Y002953D02*
X015623Y002953D01*
X015623Y002983D02*
X015623Y002217D01*
X015717Y002123D01*
X016483Y002123D01*
X016577Y002217D01*
X016577Y002983D01*
X016483Y003077D01*
X015717Y003077D01*
X015623Y002983D01*
X015623Y002795D02*
X015577Y002795D01*
X015577Y002636D02*
X015623Y002636D01*
X015623Y002478D02*
X015577Y002478D01*
X015577Y002319D02*
X015623Y002319D01*
X015680Y002161D02*
X015520Y002161D01*
X015558Y002002D02*
X015642Y002002D01*
X015623Y001983D02*
X015623Y001217D01*
X015717Y001123D01*
X016483Y001123D01*
X016577Y001217D01*
X016577Y001983D01*
X016483Y002077D01*
X015717Y002077D01*
X015623Y001983D01*
X015623Y001844D02*
X015577Y001844D01*
X015577Y001685D02*
X015623Y001685D01*
X015623Y001527D02*
X015577Y001527D01*
X015577Y001368D02*
X015623Y001368D01*
X015631Y001210D02*
X015569Y001210D01*
X016569Y001210D02*
X016631Y001210D01*
X016623Y001217D02*
X016717Y001123D01*
X017483Y001123D01*
X017577Y001217D01*
X017577Y001983D01*
X017483Y002077D01*
X016717Y002077D01*
X016623Y001983D01*
X016623Y001217D01*
X016623Y001368D02*
X016577Y001368D01*
X016577Y001527D02*
X016623Y001527D01*
X016623Y001685D02*
X016577Y001685D01*
X016577Y001844D02*
X016623Y001844D01*
X016642Y002002D02*
X016558Y002002D01*
X016520Y002161D02*
X016651Y002161D01*
X016639Y002173D02*
X016673Y002139D01*
X016714Y002115D01*
X016759Y002103D01*
X017082Y002103D01*
X017082Y002582D01*
X017118Y002582D01*
X017118Y002618D01*
X017082Y002618D01*
X017082Y003097D01*
X016759Y003097D01*
X016714Y003085D01*
X016673Y003061D01*
X016639Y003027D01*
X016615Y002986D01*
X016603Y002941D01*
X016603Y002618D01*
X017082Y002618D01*
X017082Y002582D01*
X016603Y002582D01*
X016603Y002259D01*
X016615Y002214D01*
X016639Y002173D01*
X016603Y002319D02*
X016577Y002319D01*
X016577Y002478D02*
X016603Y002478D01*
X016603Y002636D02*
X016577Y002636D01*
X016577Y002795D02*
X016603Y002795D01*
X016606Y002953D02*
X016577Y002953D01*
X017082Y002953D02*
X017118Y002953D01*
X017118Y003097D02*
X017118Y002618D01*
X017597Y002618D01*
X017597Y002941D01*
X017585Y002986D01*
X017561Y003027D01*
X017527Y003061D01*
X017486Y003085D01*
X017441Y003097D01*
X017118Y003097D01*
X017100Y003100D02*
X017600Y003600D01*
X019600Y003600D01*
X019470Y003730D01*
X019470Y004600D01*
X019432Y004638D02*
X019432Y004562D01*
X019054Y004562D01*
X019054Y004183D01*
X019066Y004137D01*
X019090Y004096D01*
X019123Y004062D01*
X019164Y004039D01*
X019210Y004026D01*
X019432Y004026D01*
X019432Y004562D01*
X019508Y004562D01*
X019508Y004026D01*
X019730Y004026D01*
X019776Y004039D01*
X019817Y004062D01*
X019850Y004096D01*
X019874Y004137D01*
X019886Y004183D01*
X019886Y004562D01*
X019508Y004562D01*
X019508Y004638D01*
X019432Y004638D01*
X019054Y004638D01*
X019054Y005017D01*
X019066Y005063D01*
X019090Y005104D01*
X019123Y005138D01*
X019164Y005161D01*
X019210Y005174D01*
X019432Y005174D01*
X019432Y004638D01*
X019432Y004697D02*
X019508Y004697D01*
X019508Y004638D02*
X019508Y005174D01*
X019730Y005174D01*
X019776Y005161D01*
X019817Y005138D01*
X019850Y005104D01*
X019874Y005063D01*
X019886Y005017D01*
X019886Y004638D01*
X019508Y004638D01*
X019508Y004538D02*
X019432Y004538D01*
X019432Y004380D02*
X019508Y004380D01*
X019508Y004221D02*
X019432Y004221D01*
X019432Y004063D02*
X019508Y004063D01*
X019817Y004063D02*
X020411Y004063D01*
X020334Y004221D02*
X019886Y004221D01*
X019886Y004380D02*
X020334Y004380D01*
X020334Y004538D02*
X019886Y004538D01*
X019886Y004697D02*
X020334Y004697D01*
X020334Y004855D02*
X019886Y004855D01*
X019886Y005014D02*
X020334Y005014D01*
X020490Y005172D02*
X019736Y005172D01*
X019508Y005172D02*
X019432Y005172D01*
X019432Y005014D02*
X019508Y005014D01*
X019508Y004855D02*
X019432Y004855D01*
X019054Y004855D02*
X018908Y004855D01*
X018840Y005014D02*
X019054Y005014D01*
X019204Y005172D02*
X018840Y005172D01*
X018840Y005331D02*
X020490Y005331D01*
X020490Y005489D02*
X018840Y005489D01*
X018987Y005648D02*
X019074Y005648D01*
X019100Y006100D02*
X018600Y005600D01*
X018600Y004600D01*
X018725Y004221D02*
X019054Y004221D01*
X019054Y004380D02*
X018939Y004380D01*
X018998Y004538D02*
X019054Y004538D01*
X019054Y004697D02*
X018991Y004697D01*
X018475Y004221D02*
X000600Y004221D01*
X000600Y004063D02*
X019123Y004063D01*
X019600Y003600D02*
X023100Y003600D01*
X023100Y002600D01*
X024100Y002600D01*
X024118Y002618D02*
X024082Y002618D01*
X024082Y003097D01*
X023759Y003097D01*
X023714Y003085D01*
X023673Y003061D01*
X023639Y003027D01*
X023615Y002986D01*
X023603Y002941D01*
X023603Y002618D01*
X024082Y002618D01*
X024082Y002582D01*
X024118Y002582D01*
X024118Y002618D01*
X024118Y003097D01*
X024441Y003097D01*
X024486Y003085D01*
X024527Y003061D01*
X024561Y003027D01*
X024585Y002986D01*
X024597Y002941D01*
X024597Y002618D01*
X024118Y002618D01*
X024118Y002636D02*
X024082Y002636D01*
X024082Y002582D02*
X023603Y002582D01*
X023603Y002259D01*
X023615Y002214D01*
X023639Y002173D01*
X023673Y002139D01*
X023714Y002115D01*
X023759Y002103D01*
X024082Y002103D01*
X024082Y002582D01*
X024118Y002582D02*
X024118Y002103D01*
X024441Y002103D01*
X024486Y002115D01*
X024527Y002139D01*
X024561Y002173D01*
X024585Y002214D01*
X024597Y002259D01*
X024597Y002582D01*
X024118Y002582D01*
X024118Y002478D02*
X024082Y002478D01*
X024082Y002319D02*
X024118Y002319D01*
X024118Y002161D02*
X024082Y002161D01*
X023717Y002077D02*
X023623Y001983D01*
X023623Y001217D01*
X023717Y001123D01*
X024483Y001123D01*
X024577Y001217D01*
X024577Y001983D01*
X024483Y002077D01*
X023717Y002077D01*
X023642Y002002D02*
X023576Y002002D01*
X023585Y001986D02*
X023561Y002027D01*
X023527Y002061D01*
X023486Y002085D01*
X023441Y002097D01*
X023118Y002097D01*
X023118Y001618D01*
X023082Y001618D01*
X023082Y002097D01*
X022759Y002097D01*
X022714Y002085D01*
X022673Y002061D01*
X022639Y002027D01*
X022615Y001986D01*
X022603Y001941D01*
X022603Y001618D01*
X023082Y001618D01*
X023082Y001582D01*
X023118Y001582D01*
X023118Y001618D01*
X023597Y001618D01*
X023597Y001941D01*
X023585Y001986D01*
X023597Y001844D02*
X023623Y001844D01*
X023623Y001685D02*
X023597Y001685D01*
X023597Y001582D02*
X023118Y001582D01*
X023118Y001103D01*
X023441Y001103D01*
X023486Y001115D01*
X023527Y001139D01*
X023561Y001173D01*
X023585Y001214D01*
X023597Y001259D01*
X023597Y001582D01*
X023597Y001527D02*
X023623Y001527D01*
X023623Y001368D02*
X023597Y001368D01*
X023582Y001210D02*
X023631Y001210D01*
X023118Y001210D02*
X023082Y001210D01*
X023082Y001103D02*
X023082Y001582D01*
X022603Y001582D01*
X022603Y001259D01*
X022615Y001214D01*
X022639Y001173D01*
X022673Y001139D01*
X022714Y001115D01*
X022759Y001103D01*
X023082Y001103D01*
X023082Y001368D02*
X023118Y001368D01*
X023118Y001527D02*
X023082Y001527D01*
X023100Y001600D02*
X023100Y002600D01*
X023118Y002618D02*
X023082Y002618D01*
X023082Y003097D01*
X022759Y003097D01*
X022714Y003085D01*
X022673Y003061D01*
X022639Y003027D01*
X022615Y002986D01*
X022603Y002941D01*
X022603Y002618D01*
X023082Y002618D01*
X023082Y002582D01*
X023118Y002582D01*
X023118Y002618D01*
X023118Y003097D01*
X023441Y003097D01*
X023486Y003085D01*
X023527Y003061D01*
X023561Y003027D01*
X023585Y002986D01*
X023597Y002941D01*
X023597Y002618D01*
X023118Y002618D01*
X023118Y002636D02*
X023082Y002636D01*
X023082Y002582D02*
X022603Y002582D01*
X022603Y002259D01*
X022615Y002214D01*
X022639Y002173D01*
X022673Y002139D01*
X022714Y002115D01*
X022759Y002103D01*
X023082Y002103D01*
X023082Y002582D01*
X023118Y002582D02*
X023118Y002103D01*
X023441Y002103D01*
X023486Y002115D01*
X023527Y002139D01*
X023561Y002173D01*
X023585Y002214D01*
X023597Y002259D01*
X023597Y002582D01*
X023118Y002582D01*
X023118Y002478D02*
X023082Y002478D01*
X023082Y002319D02*
X023118Y002319D01*
X023118Y002161D02*
X023082Y002161D01*
X023082Y002002D02*
X023118Y002002D01*
X023118Y001844D02*
X023082Y001844D01*
X023082Y001685D02*
X023118Y001685D01*
X023549Y002161D02*
X023651Y002161D01*
X023603Y002319D02*
X023597Y002319D01*
X023597Y002478D02*
X023603Y002478D01*
X023597Y002636D02*
X023603Y002636D01*
X023597Y002795D02*
X023603Y002795D01*
X023594Y002953D02*
X023606Y002953D01*
X024082Y002953D02*
X024118Y002953D01*
X024118Y002795D02*
X024082Y002795D01*
X024597Y002795D02*
X024623Y002795D01*
X024623Y002953D02*
X024594Y002953D01*
X024623Y002983D02*
X024623Y002217D01*
X024717Y002123D01*
X025483Y002123D01*
X025577Y002217D01*
X025577Y002983D01*
X025483Y003077D01*
X024717Y003077D01*
X024623Y002983D01*
X024597Y002636D02*
X024623Y002636D01*
X024623Y002478D02*
X024597Y002478D01*
X024597Y002319D02*
X024623Y002319D01*
X024680Y002161D02*
X024549Y002161D01*
X024558Y002002D02*
X024642Y002002D01*
X024623Y001983D02*
X024623Y001217D01*
X024717Y001123D01*
X025483Y001123D01*
X025577Y001217D01*
X025577Y001983D01*
X025483Y002077D01*
X024717Y002077D01*
X024623Y001983D01*
X024623Y001844D02*
X024577Y001844D01*
X024577Y001685D02*
X024623Y001685D01*
X024623Y001527D02*
X024577Y001527D01*
X024577Y001368D02*
X024623Y001368D01*
X024631Y001210D02*
X024569Y001210D01*
X025569Y001210D02*
X025631Y001210D01*
X025623Y001217D02*
X025717Y001123D01*
X026483Y001123D01*
X026577Y001217D01*
X026577Y001983D01*
X026483Y002077D01*
X025717Y002077D01*
X025623Y001983D01*
X025623Y001217D01*
X025623Y001368D02*
X025577Y001368D01*
X025577Y001527D02*
X025623Y001527D01*
X025623Y001685D02*
X025577Y001685D01*
X025577Y001844D02*
X025623Y001844D01*
X025642Y002002D02*
X025558Y002002D01*
X025520Y002161D02*
X025680Y002161D01*
X025717Y002123D02*
X026483Y002123D01*
X026577Y002217D01*
X026577Y002983D01*
X026483Y003077D01*
X025717Y003077D01*
X025623Y002983D01*
X025623Y002217D01*
X025717Y002123D01*
X025623Y002319D02*
X025577Y002319D01*
X025577Y002478D02*
X025623Y002478D01*
X025623Y002636D02*
X025577Y002636D01*
X025577Y002795D02*
X025623Y002795D01*
X025623Y002953D02*
X025577Y002953D01*
X026577Y002953D02*
X026623Y002953D01*
X026623Y002795D02*
X026577Y002795D01*
X026577Y002636D02*
X026623Y002636D01*
X026623Y002478D02*
X026577Y002478D01*
X026577Y002319D02*
X026623Y002319D01*
X026680Y002161D02*
X026520Y002161D01*
X026558Y002002D02*
X026642Y002002D01*
X026623Y001844D02*
X026577Y001844D01*
X026577Y001685D02*
X026623Y001685D01*
X026623Y001527D02*
X026577Y001527D01*
X026577Y001368D02*
X026623Y001368D01*
X026631Y001210D02*
X026569Y001210D01*
X028100Y001100D02*
X028600Y000600D01*
X034100Y000600D01*
X035600Y002100D01*
X035171Y002319D02*
X032577Y002319D01*
X032577Y002217D02*
X032577Y002983D01*
X032483Y003077D01*
X031717Y003077D01*
X031623Y002983D01*
X031623Y002217D01*
X031717Y002123D01*
X032483Y002123D01*
X032577Y002217D01*
X032520Y002161D02*
X035120Y002161D01*
X035121Y002002D02*
X032558Y002002D01*
X032577Y001983D02*
X032483Y002077D01*
X031717Y002077D01*
X031623Y001983D01*
X031623Y001217D01*
X031717Y001123D01*
X032483Y001123D01*
X032577Y001217D01*
X032577Y001983D01*
X032577Y001844D02*
X035004Y001844D01*
X034846Y001685D02*
X032577Y001685D01*
X032577Y001527D02*
X034687Y001527D01*
X034529Y001368D02*
X032577Y001368D01*
X032569Y001210D02*
X034370Y001210D01*
X034212Y001051D02*
X028488Y001051D01*
X028569Y001210D02*
X028631Y001210D01*
X028623Y001217D02*
X028717Y001123D01*
X029483Y001123D01*
X029577Y001217D01*
X029577Y001983D01*
X029483Y002077D01*
X028717Y002077D01*
X028623Y001983D01*
X028623Y001217D01*
X028623Y001368D02*
X028577Y001368D01*
X028577Y001527D02*
X028623Y001527D01*
X028623Y001685D02*
X028577Y001685D01*
X028577Y001844D02*
X028623Y001844D01*
X028642Y002002D02*
X028558Y002002D01*
X028520Y002161D02*
X028680Y002161D01*
X028717Y002123D02*
X029483Y002123D01*
X029577Y002217D01*
X029577Y002983D01*
X029483Y003077D01*
X028717Y003077D01*
X028623Y002983D01*
X028623Y002217D01*
X028717Y002123D01*
X028623Y002319D02*
X028577Y002319D01*
X028577Y002478D02*
X028623Y002478D01*
X028623Y002636D02*
X028577Y002636D01*
X028577Y002795D02*
X028623Y002795D01*
X028623Y002953D02*
X028577Y002953D01*
X029577Y002953D02*
X029623Y002953D01*
X029623Y002983D02*
X029623Y002217D01*
X029717Y002123D01*
X030483Y002123D01*
X030577Y002217D01*
X030577Y002983D01*
X030483Y003077D01*
X029717Y003077D01*
X029623Y002983D01*
X029623Y002795D02*
X029577Y002795D01*
X029577Y002636D02*
X029623Y002636D01*
X029623Y002478D02*
X029577Y002478D01*
X029577Y002319D02*
X029623Y002319D01*
X029680Y002161D02*
X029520Y002161D01*
X029558Y002002D02*
X029642Y002002D01*
X029623Y001983D02*
X029623Y001217D01*
X029717Y001123D01*
X030483Y001123D01*
X030577Y001217D01*
X030577Y001983D01*
X030483Y002077D01*
X029717Y002077D01*
X029623Y001983D01*
X029623Y001844D02*
X029577Y001844D01*
X029577Y001685D02*
X029623Y001685D01*
X029623Y001527D02*
X029577Y001527D01*
X029577Y001368D02*
X029623Y001368D01*
X029631Y001210D02*
X029569Y001210D01*
X028647Y000893D02*
X034053Y000893D01*
X034573Y000734D02*
X042100Y000734D01*
X042100Y000893D02*
X034732Y000893D01*
X034890Y001051D02*
X042100Y001051D01*
X042100Y001210D02*
X035049Y001210D01*
X035207Y001368D02*
X042100Y001368D01*
X042100Y001527D02*
X035366Y001527D01*
X035852Y001685D02*
X038540Y001685D01*
X038540Y001844D02*
X036013Y001844D01*
X036079Y002002D02*
X038540Y002002D01*
X038540Y002161D02*
X036080Y002161D01*
X036029Y002319D02*
X038540Y002319D01*
X038383Y002478D02*
X035901Y002478D01*
X035734Y002636D02*
X038225Y002636D01*
X038066Y002795D02*
X035973Y002795D01*
X035466Y002636D02*
X032577Y002636D01*
X032577Y002478D02*
X035299Y002478D01*
X035227Y002795D02*
X032577Y002795D01*
X032577Y002953D02*
X035141Y002953D01*
X035580Y003746D02*
X035620Y003746D01*
X035620Y003904D02*
X035580Y003904D01*
X035580Y004063D02*
X035620Y004063D01*
X035600Y004100D02*
X033600Y006100D01*
X025600Y006100D01*
X024600Y005100D01*
X025100Y004600D01*
X025470Y004600D01*
X025432Y004638D02*
X025432Y004562D01*
X025054Y004562D01*
X025054Y004183D01*
X025066Y004137D01*
X025090Y004096D01*
X025123Y004062D01*
X025164Y004039D01*
X025210Y004026D01*
X025432Y004026D01*
X025432Y004562D01*
X025508Y004562D01*
X025508Y004026D01*
X025730Y004026D01*
X025776Y004039D01*
X025817Y004062D01*
X025850Y004096D01*
X025874Y004137D01*
X025886Y004183D01*
X025886Y004562D01*
X025508Y004562D01*
X025508Y004638D01*
X025432Y004638D01*
X025054Y004638D01*
X025054Y005017D01*
X025066Y005063D01*
X025090Y005104D01*
X025123Y005138D01*
X025164Y005161D01*
X025210Y005174D01*
X025432Y005174D01*
X025432Y004638D01*
X025432Y004697D02*
X025508Y004697D01*
X025508Y004638D02*
X025508Y005174D01*
X025730Y005174D01*
X025776Y005161D01*
X025817Y005138D01*
X025850Y005104D01*
X025874Y005063D01*
X025886Y005017D01*
X025886Y004638D01*
X025508Y004638D01*
X025508Y004538D02*
X025432Y004538D01*
X025432Y004380D02*
X025508Y004380D01*
X025508Y004221D02*
X025432Y004221D01*
X025432Y004063D02*
X025508Y004063D01*
X025817Y004063D02*
X026411Y004063D01*
X026334Y004221D02*
X025886Y004221D01*
X025886Y004380D02*
X026334Y004380D01*
X026334Y004538D02*
X025886Y004538D01*
X025886Y004697D02*
X026334Y004697D01*
X026334Y004855D02*
X025886Y004855D01*
X025886Y005014D02*
X026334Y005014D01*
X026730Y004730D02*
X027100Y005100D01*
X027600Y005100D01*
X027282Y004855D02*
X027194Y004855D01*
X026730Y004730D02*
X026730Y004600D01*
X027100Y004230D01*
X027100Y002600D01*
X026860Y003112D02*
X000600Y003112D01*
X000600Y003270D02*
X026860Y003270D01*
X026860Y003429D02*
X000600Y003429D01*
X000600Y003587D02*
X026860Y003587D01*
X026860Y003746D02*
X000600Y003746D01*
X000600Y003904D02*
X026860Y003904D01*
X025508Y004855D02*
X025432Y004855D01*
X025432Y005014D02*
X025508Y005014D01*
X025508Y005172D02*
X025432Y005172D01*
X025204Y005172D02*
X020970Y005172D01*
X020970Y005331D02*
X027029Y005331D01*
X026833Y005172D02*
X025736Y005172D01*
X025054Y005014D02*
X021126Y005014D01*
X021126Y004855D02*
X021292Y004855D01*
X021600Y004600D02*
X020730Y004600D01*
X020730Y006021D01*
X020651Y006100D01*
X020176Y006123D02*
X020024Y006123D01*
X020024Y005965D02*
X020176Y005965D01*
X020176Y005806D02*
X020024Y005806D01*
X020024Y005648D02*
X020176Y005648D01*
X020176Y006282D02*
X020024Y006282D01*
X020024Y006440D02*
X020176Y006440D01*
X020215Y006599D02*
X019985Y006599D01*
X019445Y006916D02*
X018457Y006916D01*
X018457Y006757D02*
X034885Y006757D01*
X034929Y006916D02*
X034255Y006916D01*
X034413Y007074D02*
X035044Y007074D01*
X034972Y007233D02*
X034572Y007233D01*
X034210Y007550D02*
X019490Y007550D01*
X019331Y007708D02*
X034384Y007708D01*
X034052Y007391D02*
X019648Y007391D01*
X019287Y007074D02*
X018392Y007074D01*
X018117Y007233D02*
X018102Y007233D01*
X018103Y007391D02*
X018117Y007391D01*
X018117Y007550D02*
X017744Y007550D01*
X017744Y007551D02*
X018103Y007551D01*
X018103Y007832D01*
X018091Y007878D01*
X018067Y007919D01*
X018033Y007953D01*
X017992Y007976D01*
X017947Y007989D01*
X017744Y007989D01*
X017744Y007552D01*
X017708Y007552D01*
X017708Y007989D01*
X017505Y007989D01*
X017460Y007976D01*
X017419Y007953D01*
X017385Y007919D01*
X017361Y007878D01*
X017349Y007832D01*
X017349Y007551D01*
X017708Y007551D01*
X017708Y007515D01*
X017744Y007515D01*
X017744Y007551D01*
X017708Y007550D02*
X000600Y007550D01*
X000600Y007708D02*
X017349Y007708D01*
X017358Y007867D02*
X000600Y007867D01*
X000600Y008025D02*
X038247Y008025D01*
X038267Y008184D02*
X000600Y008184D01*
X000600Y008342D02*
X038108Y008342D01*
X038600Y008600D02*
X034100Y008600D01*
X023600Y019100D01*
X019100Y019100D01*
X015100Y023100D01*
X015100Y025600D01*
X015577Y025619D02*
X015623Y025619D01*
X015623Y025777D02*
X015577Y025777D01*
X015577Y025936D02*
X015623Y025936D01*
X015623Y025983D02*
X015623Y025217D01*
X015717Y025123D01*
X016483Y025123D01*
X016577Y025217D01*
X016577Y025983D01*
X016483Y026077D01*
X015717Y026077D01*
X015623Y025983D01*
X015717Y026123D02*
X016483Y026123D01*
X016577Y026217D01*
X016577Y026983D01*
X016483Y027077D01*
X015717Y027077D01*
X015623Y026983D01*
X015623Y026217D01*
X015717Y026123D01*
X015623Y026253D02*
X015577Y026253D01*
X015577Y026217D02*
X015577Y026983D01*
X015483Y027077D01*
X015385Y027077D01*
X015387Y027093D01*
X015391Y027103D01*
X015391Y027140D01*
X015395Y027177D01*
X015391Y027187D01*
X015391Y028046D01*
X015532Y028046D01*
X015626Y028140D01*
X015626Y029060D01*
X015532Y029154D01*
X014770Y029154D01*
X014676Y029060D01*
X014676Y028140D01*
X014770Y028046D01*
X014911Y028046D01*
X014911Y027162D01*
X014903Y027077D01*
X014717Y027077D01*
X014623Y026983D01*
X014623Y026217D01*
X014717Y026123D01*
X015483Y026123D01*
X015577Y026217D01*
X015577Y026411D02*
X015623Y026411D01*
X015623Y026570D02*
X015577Y026570D01*
X015577Y026728D02*
X015623Y026728D01*
X015623Y026887D02*
X015577Y026887D01*
X015515Y027045D02*
X015685Y027045D01*
X015391Y027204D02*
X035247Y027204D01*
X035296Y027045D02*
X032515Y027045D01*
X032483Y027077D02*
X032577Y026983D01*
X032577Y026217D01*
X032483Y026123D01*
X031717Y026123D01*
X031623Y026217D01*
X031623Y026983D01*
X031717Y027077D01*
X032483Y027077D01*
X032577Y026887D02*
X035145Y026887D01*
X035079Y026728D02*
X032577Y026728D01*
X032577Y026570D02*
X035070Y026570D01*
X035105Y026411D02*
X032577Y026411D01*
X032577Y026253D02*
X035198Y026253D01*
X035408Y026094D02*
X018451Y026094D01*
X018441Y026097D02*
X018118Y026097D01*
X018118Y025618D01*
X018082Y025618D01*
X018082Y026097D01*
X017759Y026097D01*
X017714Y026085D01*
X017673Y026061D01*
X017639Y026027D01*
X017615Y025986D01*
X017603Y025941D01*
X017603Y025618D01*
X018082Y025618D01*
X018082Y025582D01*
X018118Y025582D01*
X018118Y025618D01*
X018597Y025618D01*
X018597Y025941D01*
X018585Y025986D01*
X018561Y026027D01*
X018527Y026061D01*
X018486Y026085D01*
X018441Y026097D01*
X018483Y026123D02*
X018577Y026217D01*
X018577Y026983D01*
X018483Y027077D01*
X017717Y027077D01*
X017623Y026983D01*
X017623Y026217D01*
X017717Y026123D01*
X018483Y026123D01*
X018577Y026253D02*
X018623Y026253D01*
X018623Y026217D02*
X018717Y026123D01*
X019483Y026123D01*
X019577Y026217D01*
X019577Y026983D01*
X019483Y027077D01*
X018717Y027077D01*
X018623Y026983D01*
X018623Y026217D01*
X018717Y026077D02*
X018623Y025983D01*
X018623Y025217D01*
X018717Y025123D01*
X019483Y025123D01*
X019577Y025217D01*
X019577Y025983D01*
X019483Y026077D01*
X018717Y026077D01*
X018623Y025936D02*
X018597Y025936D01*
X018597Y025777D02*
X018623Y025777D01*
X018623Y025619D02*
X018597Y025619D01*
X018597Y025582D02*
X018118Y025582D01*
X018118Y025103D01*
X018441Y025103D01*
X018486Y025115D01*
X018527Y025139D01*
X018561Y025173D01*
X018585Y025214D01*
X018597Y025259D01*
X018597Y025582D01*
X018597Y025460D02*
X018623Y025460D01*
X018623Y025302D02*
X018597Y025302D01*
X018531Y025143D02*
X018697Y025143D01*
X018118Y025143D02*
X018082Y025143D01*
X018082Y025103D02*
X018082Y025582D01*
X017603Y025582D01*
X017603Y025259D01*
X017615Y025214D01*
X017639Y025173D01*
X017673Y025139D01*
X017714Y025115D01*
X017759Y025103D01*
X018082Y025103D01*
X018082Y025302D02*
X018118Y025302D01*
X018118Y025460D02*
X018082Y025460D01*
X018082Y025619D02*
X018118Y025619D01*
X018118Y025777D02*
X018082Y025777D01*
X018082Y025936D02*
X018118Y025936D01*
X018118Y026094D02*
X018082Y026094D01*
X017749Y026094D02*
X000600Y026094D01*
X000600Y025936D02*
X013623Y025936D01*
X013623Y025983D02*
X013623Y025217D01*
X013717Y025123D01*
X014483Y025123D01*
X014577Y025217D01*
X014577Y025983D01*
X014483Y026077D01*
X013717Y026077D01*
X013623Y025983D01*
X013717Y026123D02*
X013623Y026217D01*
X013623Y026983D01*
X013717Y027077D01*
X013815Y027077D01*
X013813Y027093D01*
X013809Y027103D01*
X013809Y027140D01*
X013805Y027177D01*
X013809Y027187D01*
X013809Y028046D01*
X013668Y028046D01*
X013574Y028140D01*
X013574Y029060D01*
X013668Y029154D01*
X014430Y029154D01*
X014524Y029060D01*
X014524Y028140D01*
X014430Y028046D01*
X014289Y028046D01*
X014289Y027162D01*
X014297Y027077D01*
X014483Y027077D01*
X014577Y026983D01*
X014577Y026217D01*
X014483Y026123D01*
X013717Y026123D01*
X013623Y026253D02*
X004577Y026253D01*
X004577Y026217D02*
X004577Y026983D01*
X004483Y027077D01*
X003717Y027077D01*
X003623Y026983D01*
X003623Y026217D01*
X003717Y026123D01*
X004483Y026123D01*
X004577Y026217D01*
X004577Y026411D02*
X013623Y026411D01*
X013623Y026570D02*
X004577Y026570D01*
X004577Y026728D02*
X013623Y026728D01*
X013623Y026887D02*
X004577Y026887D01*
X004515Y027045D02*
X013685Y027045D01*
X013809Y027204D02*
X000600Y027204D01*
X000600Y027362D02*
X013809Y027362D01*
X013809Y027521D02*
X000600Y027521D01*
X000600Y027679D02*
X013809Y027679D01*
X013809Y027838D02*
X000600Y027838D01*
X000600Y027996D02*
X013809Y027996D01*
X013574Y028155D02*
X000600Y028155D01*
X000600Y028313D02*
X013574Y028313D01*
X013574Y028472D02*
X000600Y028472D01*
X000600Y028630D02*
X013574Y028630D01*
X013574Y028789D02*
X000600Y028789D01*
X000600Y028947D02*
X013574Y028947D01*
X013619Y029106D02*
X000600Y029106D01*
X000600Y029264D02*
X042100Y029264D01*
X042100Y029106D02*
X015581Y029106D01*
X015626Y028947D02*
X042100Y028947D01*
X042100Y028789D02*
X015626Y028789D01*
X015626Y028630D02*
X042100Y028630D01*
X042100Y028472D02*
X015626Y028472D01*
X015626Y028313D02*
X042100Y028313D01*
X042100Y028155D02*
X015626Y028155D01*
X015391Y027996D02*
X035247Y027996D01*
X035125Y027838D02*
X015391Y027838D01*
X015391Y027679D02*
X035070Y027679D01*
X035070Y027521D02*
X015391Y027521D01*
X015391Y027362D02*
X035125Y027362D01*
X035904Y027045D02*
X037206Y027045D01*
X037364Y027204D02*
X035953Y027204D01*
X036075Y027362D02*
X037523Y027362D01*
X037681Y027521D02*
X036130Y027521D01*
X036130Y027679D02*
X037840Y027679D01*
X038046Y027838D02*
X036075Y027838D01*
X035953Y027996D02*
X038197Y027996D01*
X038100Y027600D02*
X038550Y027600D01*
X038100Y027600D02*
X036100Y025600D01*
X035600Y025600D01*
X035070Y025619D02*
X032577Y025619D01*
X032577Y025777D02*
X035100Y025777D01*
X035186Y025936D02*
X032577Y025936D01*
X032577Y025983D02*
X032483Y026077D01*
X031717Y026077D01*
X031623Y025983D01*
X031623Y025217D01*
X031717Y025123D01*
X032483Y025123D01*
X032577Y025217D01*
X032577Y025983D01*
X032577Y025460D02*
X035084Y025460D01*
X035150Y025302D02*
X032577Y025302D01*
X032503Y025143D02*
X035318Y025143D01*
X035235Y024985D02*
X029340Y024985D01*
X029340Y024826D02*
X035120Y024826D01*
X035070Y024668D02*
X029340Y024668D01*
X029340Y024509D02*
X035070Y024509D01*
X035130Y024351D02*
X029340Y024351D01*
X029340Y024192D02*
X035258Y024192D01*
X035284Y024034D02*
X029340Y024034D01*
X029340Y023875D02*
X035140Y023875D01*
X035075Y023717D02*
X029340Y023717D01*
X029340Y023558D02*
X035070Y023558D01*
X035109Y023400D02*
X029340Y023400D01*
X029340Y023241D02*
X035209Y023241D01*
X035336Y023083D02*
X029340Y023083D01*
X029263Y022924D02*
X035156Y022924D01*
X035075Y022766D02*
X029105Y022766D01*
X028946Y022607D02*
X035580Y022607D01*
X035600Y022600D02*
X035100Y022600D01*
X034100Y023600D01*
X034100Y026600D01*
X032600Y028100D01*
X029100Y028100D01*
X029100Y026600D01*
X029118Y026618D02*
X029082Y026618D01*
X029082Y027097D01*
X028759Y027097D01*
X028714Y027085D01*
X028673Y027061D01*
X028639Y027027D01*
X028615Y026986D01*
X028603Y026941D01*
X028603Y026618D01*
X029082Y026618D01*
X029082Y026582D01*
X029118Y026582D01*
X029118Y026618D01*
X029118Y027097D01*
X029441Y027097D01*
X029486Y027085D01*
X029527Y027061D01*
X029561Y027027D01*
X029585Y026986D01*
X029597Y026941D01*
X029597Y026618D01*
X029118Y026618D01*
X029118Y026582D02*
X029597Y026582D01*
X029597Y026259D01*
X029585Y026214D01*
X029561Y026173D01*
X029527Y026139D01*
X029486Y026115D01*
X029441Y026103D01*
X029118Y026103D01*
X029118Y026582D01*
X029118Y026570D02*
X029082Y026570D01*
X029082Y026582D02*
X029082Y026103D01*
X028759Y026103D01*
X028714Y026115D01*
X028673Y026139D01*
X028639Y026173D01*
X028615Y026214D01*
X028603Y026259D01*
X028603Y026582D01*
X029082Y026582D01*
X029082Y026728D02*
X029118Y026728D01*
X029118Y026887D02*
X029082Y026887D01*
X029082Y027045D02*
X029118Y027045D01*
X029543Y027045D02*
X029685Y027045D01*
X029717Y027077D02*
X029623Y026983D01*
X029623Y026217D01*
X029717Y026123D01*
X030483Y026123D01*
X030577Y026217D01*
X030577Y026983D01*
X030483Y027077D01*
X029717Y027077D01*
X029623Y026887D02*
X029597Y026887D01*
X029597Y026728D02*
X029623Y026728D01*
X029623Y026570D02*
X029597Y026570D01*
X029597Y026411D02*
X029623Y026411D01*
X029623Y026253D02*
X029595Y026253D01*
X029717Y026077D02*
X029623Y025983D01*
X029623Y025217D01*
X029717Y025123D01*
X030483Y025123D01*
X030577Y025217D01*
X030577Y025983D01*
X030483Y026077D01*
X029717Y026077D01*
X029623Y025936D02*
X029577Y025936D01*
X029577Y025777D02*
X029623Y025777D01*
X029623Y025619D02*
X029577Y025619D01*
X029577Y025460D02*
X029623Y025460D01*
X029623Y025302D02*
X029577Y025302D01*
X029503Y025143D02*
X029697Y025143D01*
X029100Y025600D02*
X029100Y023100D01*
X027600Y021600D01*
X027600Y017100D01*
X034100Y010600D01*
X038600Y010600D01*
X038287Y011037D02*
X036876Y011037D01*
X037034Y011195D02*
X038255Y011195D01*
X038097Y011354D02*
X037193Y011354D01*
X037100Y011600D02*
X036600Y011100D01*
X034600Y011100D01*
X033100Y012600D01*
X033100Y017100D01*
X035600Y019600D01*
X035600Y021600D01*
X038550Y021600D01*
X038926Y021973D02*
X042100Y021973D01*
X042100Y021815D02*
X039035Y021815D01*
X039080Y021656D02*
X042100Y021656D01*
X042100Y021498D02*
X039080Y021498D01*
X039016Y021339D02*
X042100Y021339D01*
X042100Y021181D02*
X038880Y021181D01*
X038220Y021181D02*
X035930Y021181D01*
X035840Y021022D02*
X042100Y021022D01*
X042100Y020864D02*
X035840Y020864D01*
X035840Y020705D02*
X042100Y020705D01*
X042100Y020547D02*
X035840Y020547D01*
X035840Y020388D02*
X042100Y020388D01*
X042100Y020230D02*
X035840Y020230D01*
X035840Y020071D02*
X042100Y020071D01*
X042100Y019913D02*
X035840Y019913D01*
X035840Y019754D02*
X042100Y019754D01*
X042100Y019596D02*
X035840Y019596D01*
X035776Y019437D02*
X042100Y019437D01*
X042100Y019279D02*
X035618Y019279D01*
X035459Y019120D02*
X042100Y019120D01*
X042100Y018962D02*
X035301Y018962D01*
X035142Y018803D02*
X042100Y018803D01*
X042100Y018645D02*
X034984Y018645D01*
X034825Y018486D02*
X042100Y018486D01*
X042100Y018328D02*
X034667Y018328D01*
X034508Y018169D02*
X042100Y018169D01*
X042100Y018011D02*
X034350Y018011D01*
X034191Y017852D02*
X034968Y017852D01*
X034991Y017875D02*
X034935Y017819D01*
X034889Y017756D01*
X034853Y017686D01*
X034829Y017611D01*
X034817Y017533D01*
X034817Y017494D01*
X035317Y017494D01*
X035817Y017494D01*
X035817Y017533D01*
X035804Y017611D01*
X035780Y017686D01*
X035744Y017756D01*
X035698Y017819D01*
X035642Y017875D01*
X035579Y017921D01*
X035508Y017957D01*
X035434Y017981D01*
X035356Y017994D01*
X035317Y017994D01*
X035317Y017494D01*
X035317Y017494D01*
X035317Y017494D01*
X035817Y017494D01*
X035817Y017454D01*
X035804Y017377D01*
X035780Y017302D01*
X035744Y017232D01*
X035698Y017168D01*
X035642Y017112D01*
X035612Y017090D01*
X035723Y016978D01*
X035797Y016802D01*
X035797Y016611D01*
X035783Y016579D01*
X035787Y016575D01*
X035855Y016508D01*
X035891Y016419D01*
X035891Y015154D01*
X036032Y015154D01*
X036126Y015060D01*
X036126Y014140D01*
X036032Y014046D01*
X035270Y014046D01*
X035176Y014140D01*
X035176Y015060D01*
X035270Y015154D01*
X035411Y015154D01*
X035411Y016226D01*
X035221Y016226D01*
X035045Y016299D01*
X034910Y016434D01*
X034837Y016611D01*
X034837Y016802D01*
X034910Y016978D01*
X035021Y017090D01*
X034991Y017112D01*
X034935Y017168D01*
X034889Y017232D01*
X034853Y017302D01*
X034829Y017377D01*
X034817Y017454D01*
X034817Y017494D01*
X035317Y017494D01*
X035317Y017994D01*
X035277Y017994D01*
X035199Y017981D01*
X035125Y017957D01*
X035054Y017921D01*
X034991Y017875D01*
X034857Y017694D02*
X034033Y017694D01*
X033874Y017535D02*
X034817Y017535D01*
X034829Y017377D02*
X033716Y017377D01*
X033557Y017218D02*
X034899Y017218D01*
X034991Y017060D02*
X033399Y017060D01*
X033340Y016901D02*
X034878Y016901D01*
X034837Y016743D02*
X033340Y016743D01*
X033340Y016584D02*
X034848Y016584D01*
X034918Y016426D02*
X033340Y016426D01*
X033340Y016267D02*
X035123Y016267D01*
X035411Y016109D02*
X033340Y016109D01*
X033340Y015950D02*
X035411Y015950D01*
X035411Y015792D02*
X033340Y015792D01*
X033340Y015633D02*
X035411Y015633D01*
X035411Y015475D02*
X033340Y015475D01*
X033340Y015316D02*
X035411Y015316D01*
X035411Y015158D02*
X033340Y015158D01*
X033340Y014999D02*
X034074Y014999D01*
X034074Y015060D02*
X034168Y015154D01*
X034930Y015154D01*
X035024Y015060D01*
X035024Y014140D01*
X034930Y014046D01*
X034789Y014046D01*
X034789Y012452D01*
X034825Y012437D01*
X034937Y012325D01*
X034998Y012179D01*
X034998Y012021D01*
X034937Y011875D01*
X034825Y011763D01*
X034679Y011702D01*
X034521Y011702D01*
X034375Y011763D01*
X034263Y011875D01*
X034202Y012021D01*
X034202Y012179D01*
X034263Y012325D01*
X034309Y012371D01*
X034309Y014046D01*
X034168Y014046D01*
X034074Y014140D01*
X034074Y015060D01*
X034074Y014841D02*
X033340Y014841D01*
X033340Y014682D02*
X034074Y014682D01*
X034074Y014524D02*
X033340Y014524D01*
X033340Y014365D02*
X034074Y014365D01*
X034074Y014207D02*
X033340Y014207D01*
X033340Y014048D02*
X034166Y014048D01*
X034309Y013890D02*
X033340Y013890D01*
X033340Y013731D02*
X034309Y013731D01*
X034309Y013573D02*
X033340Y013573D01*
X033340Y013414D02*
X034309Y013414D01*
X034309Y013256D02*
X033340Y013256D01*
X033340Y013097D02*
X034309Y013097D01*
X034309Y012939D02*
X033340Y012939D01*
X033340Y012780D02*
X034309Y012780D01*
X034309Y012622D02*
X033418Y012622D01*
X033576Y012463D02*
X034309Y012463D01*
X034254Y012305D02*
X033735Y012305D01*
X033893Y012146D02*
X034202Y012146D01*
X034216Y011988D02*
X034052Y011988D01*
X034210Y011829D02*
X034308Y011829D01*
X034369Y011671D02*
X036831Y011671D01*
X036673Y011512D02*
X034527Y011512D01*
X034686Y011354D02*
X036514Y011354D01*
X036691Y010878D02*
X038128Y010878D01*
X038600Y011600D02*
X037100Y011600D01*
X037026Y011829D02*
X034892Y011829D01*
X034984Y011988D02*
X038238Y011988D01*
X038600Y011600D02*
X039600Y012600D01*
X041100Y012600D01*
X041259Y012780D02*
X042100Y012780D01*
X042100Y012622D02*
X041418Y012622D01*
X041576Y012463D02*
X042100Y012463D01*
X042100Y012305D02*
X041735Y012305D01*
X041840Y012146D02*
X042100Y012146D01*
X042100Y011988D02*
X041840Y011988D01*
X041840Y011829D02*
X042100Y011829D01*
X042100Y011671D02*
X041840Y011671D01*
X041840Y011512D02*
X042100Y011512D01*
X042100Y011354D02*
X041840Y011354D01*
X041840Y011195D02*
X042100Y011195D01*
X042100Y011037D02*
X041840Y011037D01*
X041840Y010878D02*
X042100Y010878D01*
X042100Y010720D02*
X041840Y010720D01*
X041840Y010561D02*
X042100Y010561D01*
X042100Y010403D02*
X041840Y010403D01*
X041840Y010244D02*
X042100Y010244D01*
X042100Y010086D02*
X041840Y010086D01*
X041840Y009927D02*
X042100Y009927D01*
X042100Y009769D02*
X041840Y009769D01*
X041840Y009610D02*
X042100Y009610D01*
X042100Y009452D02*
X041840Y009452D01*
X041840Y009293D02*
X042100Y009293D01*
X042100Y009135D02*
X041840Y009135D01*
X041840Y008976D02*
X042100Y008976D01*
X042100Y008818D02*
X041840Y008818D01*
X041840Y008659D02*
X042100Y008659D01*
X042100Y008501D02*
X041840Y008501D01*
X041840Y008342D02*
X042100Y008342D01*
X042100Y008184D02*
X041840Y008184D01*
X041840Y008025D02*
X042100Y008025D01*
X042100Y007867D02*
X041840Y007867D01*
X041840Y007708D02*
X042100Y007708D01*
X042100Y007550D02*
X041840Y007550D01*
X041840Y007391D02*
X042100Y007391D01*
X042100Y007233D02*
X041840Y007233D01*
X041840Y007074D02*
X042100Y007074D01*
X042100Y006916D02*
X041840Y006916D01*
X041840Y006757D02*
X042100Y006757D01*
X042100Y006599D02*
X041840Y006599D01*
X041840Y006440D02*
X042100Y006440D01*
X042100Y006282D02*
X041840Y006282D01*
X041840Y006123D02*
X042100Y006123D01*
X042100Y005965D02*
X041840Y005965D01*
X041840Y005806D02*
X042100Y005806D01*
X042100Y005648D02*
X041840Y005648D01*
X041840Y005489D02*
X042100Y005489D01*
X042100Y005331D02*
X041840Y005331D01*
X041840Y005172D02*
X042100Y005172D01*
X042100Y005014D02*
X041840Y005014D01*
X041840Y004855D02*
X042100Y004855D01*
X042100Y004697D02*
X041840Y004697D01*
X041834Y004538D02*
X042100Y004538D01*
X042100Y004380D02*
X041719Y004380D01*
X041560Y004221D02*
X042100Y004221D01*
X042100Y004063D02*
X041402Y004063D01*
X041243Y003904D02*
X042100Y003904D01*
X042100Y003746D02*
X041085Y003746D01*
X040926Y003587D02*
X042100Y003587D01*
X042100Y003429D02*
X040768Y003429D01*
X040609Y003270D02*
X042100Y003270D01*
X042100Y003112D02*
X040451Y003112D01*
X040292Y002953D02*
X042100Y002953D01*
X042100Y002795D02*
X040134Y002795D01*
X039975Y002636D02*
X042100Y002636D01*
X042100Y002478D02*
X039817Y002478D01*
X039660Y002319D02*
X042100Y002319D01*
X042100Y002161D02*
X039660Y002161D01*
X039660Y002002D02*
X042100Y002002D01*
X042100Y001844D02*
X039660Y001844D01*
X039660Y001685D02*
X042100Y001685D01*
X040089Y003429D02*
X039679Y003429D01*
X039680Y003432D02*
X039680Y003440D01*
X039138Y003440D01*
X039138Y003516D01*
X039062Y003516D01*
X039062Y003440D01*
X038520Y003440D01*
X038520Y003432D01*
X038534Y003342D01*
X038562Y003255D01*
X038604Y003174D01*
X038658Y003100D01*
X038722Y003036D01*
X038796Y002982D01*
X038877Y002940D01*
X038964Y002912D01*
X039054Y002898D01*
X039062Y002898D01*
X039062Y003440D01*
X039138Y003440D01*
X039138Y002898D01*
X039146Y002898D01*
X039236Y002912D01*
X039323Y002940D01*
X039404Y002982D01*
X039478Y003036D01*
X039542Y003100D01*
X039596Y003174D01*
X039638Y003255D01*
X039666Y003342D01*
X039680Y003432D01*
X039680Y003516D02*
X039138Y003516D01*
X039138Y004058D01*
X039146Y004058D01*
X039236Y004044D01*
X039323Y004015D01*
X039404Y003974D01*
X039478Y003920D01*
X039542Y003856D01*
X039596Y003782D01*
X039638Y003701D01*
X039666Y003614D01*
X039680Y003524D01*
X039680Y003516D01*
X039670Y003587D02*
X040248Y003587D01*
X040406Y003746D02*
X039615Y003746D01*
X039494Y003904D02*
X040565Y003904D01*
X040723Y004063D02*
X036100Y004063D01*
X036086Y004221D02*
X040882Y004221D01*
X041040Y004380D02*
X036015Y004380D01*
X035842Y004538D02*
X041199Y004538D01*
X039931Y003270D02*
X039642Y003270D01*
X039551Y003112D02*
X039772Y003112D01*
X039614Y002953D02*
X039347Y002953D01*
X039455Y002795D02*
X038745Y002795D01*
X038853Y002953D02*
X038586Y002953D01*
X038649Y003112D02*
X038428Y003112D01*
X038558Y003270D02*
X038269Y003270D01*
X038521Y003429D02*
X035950Y003429D01*
X035600Y004100D02*
X038478Y004100D01*
X039062Y003904D02*
X039138Y003904D01*
X039138Y003746D02*
X039062Y003746D01*
X039062Y003587D02*
X039138Y003587D01*
X039100Y003478D02*
X038978Y003600D01*
X039062Y003429D02*
X039138Y003429D01*
X039138Y003270D02*
X039062Y003270D01*
X039062Y003112D02*
X039138Y003112D01*
X039138Y002953D02*
X039062Y002953D01*
X035620Y004221D02*
X035580Y004221D01*
X035580Y004380D02*
X035620Y004380D01*
X035620Y004538D02*
X035580Y004538D01*
X038852Y007074D02*
X039348Y007074D01*
X039190Y007233D02*
X039010Y007233D01*
X039580Y007233D02*
X039620Y007233D01*
X039620Y007391D02*
X039580Y007391D01*
X039580Y007074D02*
X039620Y007074D01*
X038089Y007867D02*
X035689Y007867D01*
X035077Y007867D02*
X018831Y007867D01*
X018831Y007233D02*
X019128Y007233D01*
X019112Y006599D02*
X018508Y006599D01*
X018666Y006440D02*
X019074Y006440D01*
X019100Y006100D02*
X019549Y006100D01*
X018667Y006100D01*
X018100Y006667D01*
X017743Y006599D02*
X000600Y006599D01*
X000600Y006757D02*
X017743Y006757D01*
X017743Y006916D02*
X000600Y006916D01*
X000600Y007074D02*
X017808Y007074D01*
X017708Y007077D02*
X017708Y007515D01*
X017349Y007515D01*
X017349Y007234D01*
X017361Y007188D01*
X017385Y007147D01*
X017419Y007113D01*
X017460Y007090D01*
X017505Y007077D01*
X017708Y007077D01*
X017708Y007233D02*
X017744Y007233D01*
X017744Y007391D02*
X017708Y007391D01*
X017708Y007708D02*
X017744Y007708D01*
X017744Y007867D02*
X017708Y007867D01*
X018094Y007867D02*
X018117Y007867D01*
X018103Y007708D02*
X018117Y007708D01*
X017349Y007391D02*
X000600Y007391D01*
X000600Y007233D02*
X017349Y007233D01*
X017743Y006440D02*
X000600Y006440D01*
X000600Y006282D02*
X017787Y006282D01*
X018305Y006123D02*
X000600Y006123D01*
X000600Y005965D02*
X018463Y005965D01*
X018467Y005806D02*
X000600Y005806D01*
X000600Y005648D02*
X018360Y005648D01*
X018360Y005489D02*
X000600Y005489D01*
X000600Y005331D02*
X018360Y005331D01*
X018360Y005172D02*
X000600Y005172D01*
X000600Y005014D02*
X018360Y005014D01*
X018292Y004855D02*
X012263Y004855D01*
X012269Y004853D02*
X012159Y004898D01*
X012041Y004898D01*
X011931Y004853D01*
X011847Y004769D01*
X011802Y004659D01*
X011802Y004541D01*
X011847Y004431D01*
X011931Y004347D01*
X012041Y004302D01*
X012159Y004302D01*
X012269Y004347D01*
X012353Y004431D01*
X012398Y004541D01*
X012398Y004659D01*
X012353Y004769D01*
X012269Y004853D01*
X012383Y004697D02*
X018209Y004697D01*
X018202Y004538D02*
X012397Y004538D01*
X012301Y004380D02*
X018261Y004380D01*
X018483Y003077D02*
X017717Y003077D01*
X017623Y002983D01*
X017623Y002217D01*
X017717Y002123D01*
X018483Y002123D01*
X018577Y002217D01*
X018577Y002983D01*
X018483Y003077D01*
X018577Y002953D02*
X018623Y002953D01*
X018623Y002983D02*
X018623Y002217D01*
X018717Y002123D01*
X019483Y002123D01*
X019577Y002217D01*
X019577Y002983D01*
X019483Y003077D01*
X018717Y003077D01*
X018623Y002983D01*
X018623Y002795D02*
X018577Y002795D01*
X018577Y002636D02*
X018623Y002636D01*
X018623Y002478D02*
X018577Y002478D01*
X018577Y002319D02*
X018623Y002319D01*
X018680Y002161D02*
X018520Y002161D01*
X018483Y002077D02*
X018577Y001983D01*
X018577Y001217D01*
X018483Y001123D01*
X017717Y001123D01*
X017623Y001217D01*
X017623Y001983D01*
X017717Y002077D01*
X018483Y002077D01*
X018558Y002002D02*
X018642Y002002D01*
X018623Y001983D02*
X018623Y001217D01*
X018717Y001123D01*
X019483Y001123D01*
X019577Y001217D01*
X019577Y001983D01*
X019483Y002077D01*
X018717Y002077D01*
X018623Y001983D01*
X018623Y001844D02*
X018577Y001844D01*
X018577Y001685D02*
X018623Y001685D01*
X018623Y001527D02*
X018577Y001527D01*
X018577Y001368D02*
X018623Y001368D01*
X018631Y001210D02*
X018569Y001210D01*
X017631Y001210D02*
X017569Y001210D01*
X017577Y001368D02*
X017623Y001368D01*
X017623Y001527D02*
X017577Y001527D01*
X017577Y001685D02*
X017623Y001685D01*
X017623Y001844D02*
X017577Y001844D01*
X017558Y002002D02*
X017642Y002002D01*
X017680Y002161D02*
X017549Y002161D01*
X017561Y002173D02*
X017585Y002214D01*
X017597Y002259D01*
X017597Y002582D01*
X017118Y002582D01*
X017118Y002103D01*
X017441Y002103D01*
X017486Y002115D01*
X017527Y002139D01*
X017561Y002173D01*
X017597Y002319D02*
X017623Y002319D01*
X017623Y002478D02*
X017597Y002478D01*
X017597Y002636D02*
X017623Y002636D01*
X017623Y002795D02*
X017597Y002795D01*
X017594Y002953D02*
X017623Y002953D01*
X017118Y002795D02*
X017082Y002795D01*
X017082Y002636D02*
X017118Y002636D01*
X017100Y002600D02*
X017100Y003100D01*
X017082Y002478D02*
X017118Y002478D01*
X017118Y002319D02*
X017082Y002319D01*
X017082Y002161D02*
X017118Y002161D01*
X019520Y002161D02*
X019680Y002161D01*
X019717Y002123D02*
X020483Y002123D01*
X020577Y002217D01*
X020577Y002983D01*
X020483Y003077D01*
X019717Y003077D01*
X019623Y002983D01*
X019623Y002217D01*
X019717Y002123D01*
X019717Y002077D02*
X019623Y001983D01*
X019623Y001217D01*
X019717Y001123D01*
X020483Y001123D01*
X020577Y001217D01*
X020577Y001983D01*
X020483Y002077D01*
X019717Y002077D01*
X019642Y002002D02*
X019558Y002002D01*
X019577Y001844D02*
X019623Y001844D01*
X019623Y001685D02*
X019577Y001685D01*
X019577Y001527D02*
X019623Y001527D01*
X019623Y001368D02*
X019577Y001368D01*
X019569Y001210D02*
X019631Y001210D01*
X020569Y001210D02*
X020631Y001210D01*
X020623Y001217D02*
X020717Y001123D01*
X021483Y001123D01*
X021577Y001217D01*
X021577Y001983D01*
X021483Y002077D01*
X020717Y002077D01*
X020623Y001983D01*
X020623Y001217D01*
X020623Y001368D02*
X020577Y001368D01*
X020577Y001527D02*
X020623Y001527D01*
X020623Y001685D02*
X020577Y001685D01*
X020577Y001844D02*
X020623Y001844D01*
X020642Y002002D02*
X020558Y002002D01*
X020520Y002161D02*
X020680Y002161D01*
X020717Y002123D02*
X021483Y002123D01*
X021577Y002217D01*
X021577Y002983D01*
X021483Y003077D01*
X020717Y003077D01*
X020623Y002983D01*
X020623Y002217D01*
X020717Y002123D01*
X020623Y002319D02*
X020577Y002319D01*
X020577Y002478D02*
X020623Y002478D01*
X020623Y002636D02*
X020577Y002636D01*
X020577Y002795D02*
X020623Y002795D01*
X020623Y002953D02*
X020577Y002953D01*
X021577Y002953D02*
X021623Y002953D01*
X021623Y002983D02*
X021623Y002217D01*
X021717Y002123D01*
X022483Y002123D01*
X022577Y002217D01*
X022577Y002983D01*
X022483Y003077D01*
X021717Y003077D01*
X021623Y002983D01*
X021623Y002795D02*
X021577Y002795D01*
X021577Y002636D02*
X021623Y002636D01*
X021623Y002478D02*
X021577Y002478D01*
X021577Y002319D02*
X021623Y002319D01*
X021680Y002161D02*
X021520Y002161D01*
X021558Y002002D02*
X021642Y002002D01*
X021623Y001983D02*
X021623Y001217D01*
X021717Y001123D01*
X022483Y001123D01*
X022577Y001217D01*
X022577Y001983D01*
X022483Y002077D01*
X021717Y002077D01*
X021623Y001983D01*
X021623Y001844D02*
X021577Y001844D01*
X021577Y001685D02*
X021623Y001685D01*
X021623Y001527D02*
X021577Y001527D01*
X021577Y001368D02*
X021623Y001368D01*
X021631Y001210D02*
X021569Y001210D01*
X022569Y001210D02*
X022618Y001210D01*
X022603Y001368D02*
X022577Y001368D01*
X022577Y001527D02*
X022603Y001527D01*
X022603Y001685D02*
X022577Y001685D01*
X022577Y001844D02*
X022603Y001844D01*
X022624Y002002D02*
X022558Y002002D01*
X022520Y002161D02*
X022651Y002161D01*
X022603Y002319D02*
X022577Y002319D01*
X022577Y002478D02*
X022603Y002478D01*
X022603Y002636D02*
X022577Y002636D01*
X022577Y002795D02*
X022603Y002795D01*
X022606Y002953D02*
X022577Y002953D01*
X023082Y002953D02*
X023118Y002953D01*
X023118Y002795D02*
X023082Y002795D01*
X023100Y003600D02*
X024600Y005100D01*
X025054Y004855D02*
X021908Y004855D01*
X021991Y004697D02*
X025054Y004697D01*
X025054Y004538D02*
X021998Y004538D01*
X021939Y004380D02*
X025054Y004380D01*
X025054Y004221D02*
X021725Y004221D01*
X021475Y004221D02*
X021126Y004221D01*
X021049Y004063D02*
X025123Y004063D01*
X028100Y001600D02*
X028100Y001100D01*
X030569Y001210D02*
X030631Y001210D01*
X030623Y001217D02*
X030717Y001123D01*
X031483Y001123D01*
X031577Y001217D01*
X031577Y001983D01*
X031483Y002077D01*
X030717Y002077D01*
X030623Y001983D01*
X030623Y001217D01*
X030623Y001368D02*
X030577Y001368D01*
X030577Y001527D02*
X030623Y001527D01*
X030623Y001685D02*
X030577Y001685D01*
X030577Y001844D02*
X030623Y001844D01*
X030642Y002002D02*
X030558Y002002D01*
X030520Y002161D02*
X030680Y002161D01*
X030717Y002123D02*
X031483Y002123D01*
X031577Y002217D01*
X031577Y002983D01*
X031483Y003077D01*
X030717Y003077D01*
X030623Y002983D01*
X030623Y002217D01*
X030717Y002123D01*
X030623Y002319D02*
X030577Y002319D01*
X030577Y002478D02*
X030623Y002478D01*
X030623Y002636D02*
X030577Y002636D01*
X030577Y002795D02*
X030623Y002795D01*
X030623Y002953D02*
X030577Y002953D01*
X031577Y002953D02*
X031623Y002953D01*
X031623Y002795D02*
X031577Y002795D01*
X031577Y002636D02*
X031623Y002636D01*
X031623Y002478D02*
X031577Y002478D01*
X031577Y002319D02*
X031623Y002319D01*
X031680Y002161D02*
X031520Y002161D01*
X031558Y002002D02*
X031642Y002002D01*
X031623Y001844D02*
X031577Y001844D01*
X031577Y001685D02*
X031623Y001685D01*
X031623Y001527D02*
X031577Y001527D01*
X031577Y001368D02*
X031623Y001368D01*
X031631Y001210D02*
X031569Y001210D01*
X033860Y008501D02*
X000600Y008501D01*
X000600Y008659D02*
X033702Y008659D01*
X033543Y008818D02*
X000600Y008818D01*
X000600Y008976D02*
X033385Y008976D01*
X033226Y009135D02*
X000600Y009135D01*
X000600Y009293D02*
X033068Y009293D01*
X032909Y009452D02*
X000600Y009452D01*
X000600Y009610D02*
X032751Y009610D01*
X032592Y009769D02*
X000600Y009769D01*
X000600Y009927D02*
X032434Y009927D01*
X032275Y010086D02*
X000600Y010086D01*
X000600Y010244D02*
X032117Y010244D01*
X031958Y010403D02*
X000600Y010403D01*
X000600Y010561D02*
X031800Y010561D01*
X031641Y010720D02*
X000600Y010720D01*
X000600Y010878D02*
X031483Y010878D01*
X031324Y011037D02*
X000600Y011037D01*
X000600Y011195D02*
X031166Y011195D01*
X031007Y011354D02*
X000600Y011354D01*
X000600Y011512D02*
X030849Y011512D01*
X030690Y011671D02*
X000600Y011671D01*
X000600Y011829D02*
X030532Y011829D01*
X030373Y011988D02*
X000600Y011988D01*
X000600Y012146D02*
X030215Y012146D01*
X030056Y012305D02*
X000600Y012305D01*
X000600Y012463D02*
X029898Y012463D01*
X029739Y012622D02*
X000600Y012622D01*
X000600Y012780D02*
X029581Y012780D01*
X029422Y012939D02*
X000600Y012939D01*
X000600Y013097D02*
X029264Y013097D01*
X029105Y013256D02*
X000600Y013256D01*
X000600Y013414D02*
X028947Y013414D01*
X028788Y013573D02*
X000600Y013573D01*
X000600Y013731D02*
X028630Y013731D01*
X028471Y013890D02*
X000600Y013890D01*
X000600Y014048D02*
X028313Y014048D01*
X028154Y014207D02*
X000600Y014207D01*
X000600Y014365D02*
X027996Y014365D01*
X027837Y014524D02*
X000600Y014524D01*
X000600Y014682D02*
X027679Y014682D01*
X027520Y014841D02*
X000600Y014841D01*
X000600Y014999D02*
X027362Y014999D01*
X027203Y015158D02*
X000600Y015158D01*
X000600Y015316D02*
X027045Y015316D01*
X026886Y015475D02*
X000600Y015475D01*
X000600Y015633D02*
X026728Y015633D01*
X026569Y015792D02*
X000600Y015792D01*
X000600Y015950D02*
X026411Y015950D01*
X026252Y016109D02*
X000600Y016109D01*
X000600Y016267D02*
X026094Y016267D01*
X025935Y016426D02*
X000600Y016426D01*
X000600Y016584D02*
X025777Y016584D01*
X025618Y016743D02*
X000600Y016743D01*
X000600Y016901D02*
X025460Y016901D01*
X025301Y017060D02*
X000600Y017060D01*
X000600Y017218D02*
X025143Y017218D01*
X024984Y017377D02*
X000600Y017377D01*
X000600Y017535D02*
X024826Y017535D01*
X024667Y017694D02*
X000600Y017694D01*
X000600Y017852D02*
X024509Y017852D01*
X024350Y018011D02*
X000600Y018011D01*
X000600Y018169D02*
X024192Y018169D01*
X024033Y018328D02*
X000600Y018328D01*
X000600Y018486D02*
X023875Y018486D01*
X023716Y018645D02*
X000600Y018645D01*
X000600Y018803D02*
X023558Y018803D01*
X023919Y019120D02*
X026860Y019120D01*
X026860Y018962D02*
X024078Y018962D01*
X024236Y018803D02*
X026860Y018803D01*
X026860Y018645D02*
X024395Y018645D01*
X024553Y018486D02*
X026860Y018486D01*
X026860Y018328D02*
X024712Y018328D01*
X024870Y018169D02*
X026860Y018169D01*
X026860Y018011D02*
X025029Y018011D01*
X025187Y017852D02*
X026860Y017852D01*
X026860Y017694D02*
X025346Y017694D01*
X025504Y017535D02*
X026860Y017535D01*
X026860Y017377D02*
X025663Y017377D01*
X025821Y017218D02*
X026860Y017218D01*
X026860Y017060D02*
X025980Y017060D01*
X026138Y016901D02*
X026860Y016901D01*
X026860Y016743D02*
X026297Y016743D01*
X026455Y016584D02*
X026860Y016584D01*
X026935Y016426D02*
X026614Y016426D01*
X026772Y016267D02*
X027094Y016267D01*
X027252Y016109D02*
X026931Y016109D01*
X027089Y015950D02*
X027411Y015950D01*
X027569Y015792D02*
X027248Y015792D01*
X027406Y015633D02*
X027728Y015633D01*
X027886Y015475D02*
X027565Y015475D01*
X027723Y015316D02*
X028045Y015316D01*
X028203Y015158D02*
X027882Y015158D01*
X028040Y014999D02*
X028362Y014999D01*
X028520Y014841D02*
X028199Y014841D01*
X028357Y014682D02*
X028679Y014682D01*
X028837Y014524D02*
X028516Y014524D01*
X028674Y014365D02*
X028996Y014365D01*
X029154Y014207D02*
X028833Y014207D01*
X028991Y014048D02*
X029313Y014048D01*
X029471Y013890D02*
X029150Y013890D01*
X029308Y013731D02*
X029630Y013731D01*
X029788Y013573D02*
X029467Y013573D01*
X029625Y013414D02*
X029947Y013414D01*
X030105Y013256D02*
X029784Y013256D01*
X029942Y013097D02*
X030264Y013097D01*
X030422Y012939D02*
X030101Y012939D01*
X030259Y012780D02*
X030581Y012780D01*
X030739Y012622D02*
X030418Y012622D01*
X030576Y012463D02*
X030898Y012463D01*
X031056Y012305D02*
X030735Y012305D01*
X030893Y012146D02*
X031215Y012146D01*
X031373Y011988D02*
X031052Y011988D01*
X031210Y011829D02*
X031532Y011829D01*
X031690Y011671D02*
X031369Y011671D01*
X031527Y011512D02*
X031849Y011512D01*
X032007Y011354D02*
X031686Y011354D01*
X031844Y011195D02*
X032166Y011195D01*
X032324Y011037D02*
X032003Y011037D01*
X032161Y010878D02*
X032483Y010878D01*
X032641Y010720D02*
X032320Y010720D01*
X032478Y010561D02*
X032800Y010561D01*
X032958Y010403D02*
X032637Y010403D01*
X032795Y010244D02*
X033117Y010244D01*
X033275Y010086D02*
X032954Y010086D01*
X033112Y009927D02*
X033434Y009927D01*
X033271Y009769D02*
X038070Y009769D01*
X038070Y009610D02*
X033429Y009610D01*
X033588Y009452D02*
X038070Y009452D01*
X038157Y009293D02*
X033746Y009293D01*
X033905Y009135D02*
X038316Y009135D01*
X038226Y008976D02*
X034063Y008976D01*
X033600Y010100D02*
X027100Y016600D01*
X027100Y025600D01*
X027577Y025619D02*
X027623Y025619D01*
X027623Y025777D02*
X027577Y025777D01*
X027577Y025936D02*
X027623Y025936D01*
X027623Y025983D02*
X027623Y025217D01*
X027717Y025123D01*
X028483Y025123D01*
X028577Y025217D01*
X028577Y025983D01*
X028483Y026077D01*
X027717Y026077D01*
X027623Y025983D01*
X027717Y026123D02*
X028483Y026123D01*
X028577Y026217D01*
X028577Y026983D01*
X028483Y027077D01*
X027717Y027077D01*
X027623Y026983D01*
X027623Y026217D01*
X027717Y026123D01*
X027623Y026253D02*
X027577Y026253D01*
X027577Y026217D02*
X027577Y026983D01*
X027483Y027077D01*
X026717Y027077D01*
X026623Y026983D01*
X026623Y026217D01*
X026717Y026123D01*
X027483Y026123D01*
X027577Y026217D01*
X027577Y026411D02*
X027623Y026411D01*
X027623Y026570D02*
X027577Y026570D01*
X027577Y026728D02*
X027623Y026728D01*
X027623Y026887D02*
X027577Y026887D01*
X027515Y027045D02*
X027685Y027045D01*
X028515Y027045D02*
X028657Y027045D01*
X028603Y026887D02*
X028577Y026887D01*
X028577Y026728D02*
X028603Y026728D01*
X028603Y026570D02*
X028577Y026570D01*
X028577Y026411D02*
X028603Y026411D01*
X028605Y026253D02*
X028577Y026253D01*
X028577Y025936D02*
X028623Y025936D01*
X028623Y025777D02*
X028577Y025777D01*
X028577Y025619D02*
X028623Y025619D01*
X028623Y025460D02*
X028577Y025460D01*
X028577Y025302D02*
X028623Y025302D01*
X028697Y025143D02*
X028503Y025143D01*
X028860Y024985D02*
X027340Y024985D01*
X027340Y024826D02*
X028860Y024826D01*
X028860Y024668D02*
X027340Y024668D01*
X027340Y024509D02*
X028860Y024509D01*
X028860Y024351D02*
X027340Y024351D01*
X027340Y024192D02*
X028860Y024192D01*
X028860Y024034D02*
X027340Y024034D01*
X027340Y023875D02*
X028860Y023875D01*
X028860Y023717D02*
X027340Y023717D01*
X027340Y023558D02*
X028860Y023558D01*
X028860Y023400D02*
X027340Y023400D01*
X027340Y023241D02*
X028860Y023241D01*
X028743Y023083D02*
X027340Y023083D01*
X027340Y022924D02*
X028585Y022924D01*
X028426Y022766D02*
X027340Y022766D01*
X027340Y022607D02*
X028268Y022607D01*
X028109Y022449D02*
X027340Y022449D01*
X027340Y022290D02*
X027951Y022290D01*
X027792Y022132D02*
X027340Y022132D01*
X027340Y021973D02*
X027634Y021973D01*
X027475Y021815D02*
X027340Y021815D01*
X027340Y021656D02*
X027363Y021656D01*
X027360Y021498D02*
X027340Y021498D01*
X027340Y021339D02*
X027360Y021339D01*
X027360Y021181D02*
X027340Y021181D01*
X027340Y021022D02*
X027360Y021022D01*
X027360Y020864D02*
X027340Y020864D01*
X027340Y020705D02*
X027360Y020705D01*
X027360Y020547D02*
X027340Y020547D01*
X027340Y020388D02*
X027360Y020388D01*
X027360Y020230D02*
X027340Y020230D01*
X027340Y020071D02*
X027360Y020071D01*
X027360Y019913D02*
X027340Y019913D01*
X027340Y019754D02*
X027360Y019754D01*
X027360Y019596D02*
X027340Y019596D01*
X027340Y019437D02*
X027360Y019437D01*
X027360Y019279D02*
X027340Y019279D01*
X027340Y019120D02*
X027360Y019120D01*
X027360Y018962D02*
X027340Y018962D01*
X027340Y018803D02*
X027360Y018803D01*
X027360Y018645D02*
X027340Y018645D01*
X027340Y018486D02*
X027360Y018486D01*
X027360Y018328D02*
X027340Y018328D01*
X027340Y018169D02*
X027360Y018169D01*
X027360Y018011D02*
X027340Y018011D01*
X027340Y017852D02*
X027360Y017852D01*
X027360Y017694D02*
X027340Y017694D01*
X027340Y017535D02*
X027360Y017535D01*
X027360Y017377D02*
X027340Y017377D01*
X027340Y017218D02*
X027360Y017218D01*
X027360Y017060D02*
X027340Y017060D01*
X027340Y016901D02*
X027460Y016901D01*
X027340Y016743D02*
X027618Y016743D01*
X027777Y016584D02*
X027455Y016584D01*
X027614Y016426D02*
X027935Y016426D01*
X028094Y016267D02*
X027772Y016267D01*
X027931Y016109D02*
X028252Y016109D01*
X028411Y015950D02*
X028089Y015950D01*
X028248Y015792D02*
X028569Y015792D01*
X028728Y015633D02*
X028406Y015633D01*
X028565Y015475D02*
X028886Y015475D01*
X029045Y015316D02*
X028723Y015316D01*
X028882Y015158D02*
X029203Y015158D01*
X029362Y014999D02*
X029040Y014999D01*
X029199Y014841D02*
X029520Y014841D01*
X029679Y014682D02*
X029357Y014682D01*
X029516Y014524D02*
X029837Y014524D01*
X029996Y014365D02*
X029674Y014365D01*
X029833Y014207D02*
X030154Y014207D01*
X030313Y014048D02*
X029991Y014048D01*
X030150Y013890D02*
X030471Y013890D01*
X030630Y013731D02*
X030308Y013731D01*
X030467Y013573D02*
X030788Y013573D01*
X030947Y013414D02*
X030625Y013414D01*
X030784Y013256D02*
X031105Y013256D01*
X031264Y013097D02*
X030942Y013097D01*
X031101Y012939D02*
X031422Y012939D01*
X031581Y012780D02*
X031259Y012780D01*
X031418Y012622D02*
X031739Y012622D01*
X031898Y012463D02*
X031576Y012463D01*
X031735Y012305D02*
X032056Y012305D01*
X032215Y012146D02*
X031893Y012146D01*
X032052Y011988D02*
X032373Y011988D01*
X032532Y011829D02*
X032210Y011829D01*
X032369Y011671D02*
X032690Y011671D01*
X032849Y011512D02*
X032527Y011512D01*
X032686Y011354D02*
X033007Y011354D01*
X033166Y011195D02*
X032844Y011195D01*
X033003Y011037D02*
X033324Y011037D01*
X033483Y010878D02*
X033161Y010878D01*
X033320Y010720D02*
X033641Y010720D01*
X033800Y010561D02*
X033478Y010561D01*
X033637Y010403D02*
X033958Y010403D01*
X033600Y010100D02*
X038100Y010100D01*
X038600Y009600D01*
X038807Y012146D02*
X034998Y012146D01*
X034946Y012305D02*
X035833Y012305D01*
X035875Y012263D02*
X035763Y012375D01*
X035702Y012521D01*
X035702Y012679D01*
X035763Y012825D01*
X035875Y012937D01*
X036021Y012998D01*
X036158Y012998D01*
X036809Y013648D01*
X036809Y014046D01*
X036668Y014046D01*
X036574Y014140D01*
X036574Y015060D01*
X036668Y015154D01*
X037430Y015154D01*
X037524Y015060D01*
X037524Y014140D01*
X037430Y014046D01*
X037289Y014046D01*
X037289Y013501D01*
X037252Y013413D01*
X037185Y013345D01*
X037185Y013345D01*
X036498Y012658D01*
X036498Y012521D01*
X036437Y012375D01*
X036325Y012263D01*
X036179Y012202D01*
X036021Y012202D01*
X035875Y012263D01*
X035726Y012463D02*
X034789Y012463D01*
X034789Y012622D02*
X035702Y012622D01*
X035744Y012780D02*
X034789Y012780D01*
X034789Y012939D02*
X035878Y012939D01*
X036100Y012600D02*
X037049Y013549D01*
X037049Y014600D01*
X037524Y014524D02*
X037676Y014524D01*
X037676Y014682D02*
X037524Y014682D01*
X037524Y014841D02*
X037676Y014841D01*
X037676Y014999D02*
X037524Y014999D01*
X037676Y015060D02*
X037770Y015154D01*
X037911Y015154D01*
X037911Y016226D01*
X037721Y016226D01*
X037545Y016299D01*
X037410Y016434D01*
X037337Y016611D01*
X037337Y016802D01*
X037410Y016978D01*
X037521Y017090D01*
X037491Y017112D01*
X037435Y017168D01*
X037389Y017232D01*
X037353Y017302D01*
X037329Y017377D01*
X037317Y017454D01*
X037317Y017494D01*
X037817Y017494D01*
X038317Y017494D01*
X038317Y017533D01*
X038304Y017611D01*
X038280Y017686D01*
X038244Y017756D01*
X038198Y017819D01*
X038142Y017875D01*
X038079Y017921D01*
X038008Y017957D01*
X037934Y017981D01*
X037856Y017994D01*
X037817Y017994D01*
X037817Y017494D01*
X037817Y017494D01*
X037817Y017494D01*
X038317Y017494D01*
X038317Y017454D01*
X038304Y017377D01*
X038280Y017302D01*
X038244Y017232D01*
X038198Y017168D01*
X038142Y017112D01*
X038112Y017090D01*
X038223Y016978D01*
X038297Y016802D01*
X038297Y016611D01*
X038283Y016579D01*
X038287Y016575D01*
X038355Y016508D01*
X038391Y016419D01*
X038391Y015154D01*
X038532Y015154D01*
X038626Y015060D01*
X038626Y014140D01*
X038532Y014046D01*
X037770Y014046D01*
X037676Y014140D01*
X037676Y015060D01*
X037911Y015158D02*
X035891Y015158D01*
X035891Y015316D02*
X037911Y015316D01*
X037911Y015475D02*
X035891Y015475D01*
X035891Y015633D02*
X037911Y015633D01*
X037911Y015792D02*
X035891Y015792D01*
X035891Y015950D02*
X037911Y015950D01*
X037911Y016109D02*
X035891Y016109D01*
X035891Y016267D02*
X037623Y016267D01*
X037418Y016426D02*
X035889Y016426D01*
X035785Y016584D02*
X037348Y016584D01*
X037337Y016743D02*
X035797Y016743D01*
X035755Y016901D02*
X037378Y016901D01*
X037491Y017060D02*
X035642Y017060D01*
X035734Y017218D02*
X037399Y017218D01*
X037329Y017377D02*
X035804Y017377D01*
X035816Y017535D02*
X037317Y017535D01*
X037317Y017533D02*
X037317Y017494D01*
X037817Y017494D01*
X037817Y017994D01*
X037777Y017994D01*
X037699Y017981D01*
X037625Y017957D01*
X037554Y017921D01*
X037491Y017875D01*
X037435Y017819D01*
X037389Y017756D01*
X037353Y017686D01*
X037329Y017611D01*
X037317Y017533D01*
X037357Y017694D02*
X035776Y017694D01*
X035665Y017852D02*
X037468Y017852D01*
X037817Y017852D02*
X037817Y017852D01*
X037817Y017694D02*
X037817Y017694D01*
X037817Y017535D02*
X037817Y017535D01*
X037817Y017494D02*
X037817Y017494D01*
X040317Y017494D01*
X040817Y017494D01*
X040817Y017533D01*
X040804Y017611D01*
X040780Y017686D01*
X040744Y017756D01*
X040698Y017819D01*
X040642Y017875D01*
X040579Y017921D01*
X040508Y017957D01*
X040434Y017981D01*
X040356Y017994D01*
X040317Y017994D01*
X040317Y017494D01*
X040317Y017494D01*
X040317Y017494D01*
X040817Y017494D01*
X040817Y017454D01*
X040804Y017377D01*
X040780Y017302D01*
X040744Y017232D01*
X040698Y017168D01*
X040642Y017112D01*
X040612Y017090D01*
X040723Y016978D01*
X040797Y016802D01*
X040797Y016743D01*
X040855Y016685D01*
X040891Y016597D01*
X040891Y015154D01*
X041032Y015154D01*
X041126Y015060D01*
X041126Y014140D01*
X041032Y014046D01*
X040270Y014046D01*
X040176Y014140D01*
X040176Y015060D01*
X040270Y015154D01*
X040411Y015154D01*
X040411Y016226D01*
X040221Y016226D01*
X040045Y016299D01*
X039910Y016434D01*
X039837Y016611D01*
X039837Y016802D01*
X039910Y016978D01*
X040021Y017090D01*
X039991Y017112D01*
X039935Y017168D01*
X039889Y017232D01*
X039853Y017302D01*
X039829Y017377D01*
X039817Y017454D01*
X039817Y017494D01*
X040317Y017494D01*
X040317Y017994D01*
X040277Y017994D01*
X040199Y017981D01*
X040125Y017957D01*
X040054Y017921D01*
X039991Y017875D01*
X039935Y017819D01*
X039889Y017756D01*
X039853Y017686D01*
X039829Y017611D01*
X039817Y017533D01*
X039817Y017494D01*
X040317Y017494D01*
X040317Y021383D01*
X039100Y022600D01*
X038650Y022600D01*
X035600Y022600D01*
X035620Y022607D02*
X038630Y022607D01*
X038630Y022620D02*
X038630Y022580D01*
X038100Y022580D01*
X038100Y022557D01*
X038114Y022471D01*
X038140Y022389D01*
X038180Y022312D01*
X038230Y022242D01*
X038292Y022180D01*
X038362Y022130D01*
X038398Y022111D01*
X038250Y022049D01*
X038101Y021900D01*
X038076Y021840D01*
X036074Y021840D01*
X036049Y021900D01*
X035900Y022049D01*
X035806Y022089D01*
X035811Y022090D01*
X035888Y022130D01*
X035958Y022180D01*
X036020Y022242D01*
X036070Y022312D01*
X036110Y022389D01*
X036136Y022471D01*
X036150Y022557D01*
X036150Y022580D01*
X035620Y022580D01*
X035620Y022620D01*
X036150Y022620D01*
X036150Y022643D01*
X036136Y022729D01*
X036110Y022811D01*
X036070Y022888D01*
X036020Y022958D01*
X035958Y023020D01*
X035888Y023070D01*
X035811Y023110D01*
X035806Y023111D01*
X035900Y023151D01*
X036049Y023300D01*
X036130Y023495D01*
X036130Y023705D01*
X036049Y023900D01*
X035900Y024049D01*
X035778Y024100D01*
X035900Y024151D01*
X036049Y024300D01*
X036074Y024360D01*
X036148Y024360D01*
X036236Y024397D01*
X038183Y026343D01*
X038201Y026300D01*
X038350Y026151D01*
X038422Y026121D01*
X038250Y026049D01*
X038101Y025900D01*
X038020Y025705D01*
X038020Y025495D01*
X038101Y025300D01*
X038250Y025151D01*
X038422Y025079D01*
X038350Y025049D01*
X038201Y024900D01*
X038120Y024705D01*
X038120Y024495D01*
X038201Y024300D01*
X038350Y024151D01*
X038422Y024121D01*
X038250Y024049D01*
X038101Y023900D01*
X038020Y023705D01*
X038020Y023495D01*
X038101Y023300D01*
X038250Y023151D01*
X038398Y023089D01*
X038362Y023070D01*
X038292Y023020D01*
X038230Y022958D01*
X038180Y022888D01*
X038140Y022811D01*
X038114Y022729D01*
X038100Y022643D01*
X038100Y022620D01*
X038630Y022620D01*
X038670Y022607D02*
X042100Y022607D01*
X042100Y022449D02*
X039179Y022449D01*
X039105Y022290D02*
X042100Y022290D01*
X042100Y022132D02*
X038941Y022132D01*
X038359Y022132D02*
X035891Y022132D01*
X035976Y021973D02*
X038174Y021973D01*
X038195Y022290D02*
X036055Y022290D01*
X036129Y022449D02*
X038121Y022449D01*
X038125Y022766D02*
X036125Y022766D01*
X036044Y022924D02*
X038206Y022924D01*
X038386Y023083D02*
X035864Y023083D01*
X035991Y023241D02*
X038159Y023241D01*
X038059Y023400D02*
X036091Y023400D01*
X036130Y023558D02*
X038020Y023558D01*
X038025Y023717D02*
X036125Y023717D01*
X036060Y023875D02*
X038090Y023875D01*
X038234Y024034D02*
X035916Y024034D01*
X035942Y024192D02*
X038308Y024192D01*
X038180Y024351D02*
X036070Y024351D01*
X036100Y024600D02*
X035600Y024600D01*
X036100Y024600D02*
X038100Y026600D01*
X038650Y026600D01*
X039145Y026411D02*
X042100Y026411D01*
X042100Y026253D02*
X039052Y026253D01*
X038813Y026094D02*
X042100Y026094D01*
X042100Y025936D02*
X038964Y025936D01*
X039050Y025777D02*
X042100Y025777D01*
X042100Y025619D02*
X039080Y025619D01*
X039066Y025460D02*
X042100Y025460D01*
X042100Y025302D02*
X039000Y025302D01*
X038832Y025143D02*
X042100Y025143D01*
X042100Y024985D02*
X039015Y024985D01*
X039130Y024826D02*
X042100Y024826D01*
X042100Y024668D02*
X039180Y024668D01*
X039180Y024509D02*
X042100Y024509D01*
X042100Y024351D02*
X039120Y024351D01*
X038992Y024192D02*
X042100Y024192D01*
X042100Y024034D02*
X038866Y024034D01*
X039010Y023875D02*
X042100Y023875D01*
X042100Y023717D02*
X039075Y023717D01*
X039080Y023558D02*
X042100Y023558D01*
X042100Y023400D02*
X039041Y023400D01*
X038941Y023241D02*
X042100Y023241D01*
X042100Y023083D02*
X038914Y023083D01*
X039094Y022924D02*
X042100Y022924D01*
X042100Y022766D02*
X039175Y022766D01*
X038084Y021339D02*
X036066Y021339D01*
X035360Y021022D02*
X027840Y021022D01*
X027840Y020864D02*
X035360Y020864D01*
X035360Y020705D02*
X027840Y020705D01*
X027840Y020547D02*
X035360Y020547D01*
X035360Y020388D02*
X027840Y020388D01*
X027840Y020230D02*
X035360Y020230D01*
X035360Y020071D02*
X027840Y020071D01*
X027840Y019913D02*
X035360Y019913D01*
X035360Y019754D02*
X027840Y019754D01*
X027840Y019596D02*
X035256Y019596D01*
X035098Y019437D02*
X027840Y019437D01*
X027840Y019279D02*
X032857Y019279D01*
X032847Y019269D02*
X032802Y019159D01*
X032802Y019041D01*
X032847Y018931D01*
X032931Y018847D01*
X033041Y018802D01*
X033159Y018802D01*
X033269Y018847D01*
X033353Y018931D01*
X033398Y019041D01*
X033398Y019159D01*
X033353Y019269D01*
X033269Y019353D01*
X033159Y019398D01*
X033041Y019398D01*
X032931Y019353D01*
X032847Y019269D01*
X032802Y019120D02*
X027840Y019120D01*
X027840Y018962D02*
X032835Y018962D01*
X033038Y018803D02*
X027840Y018803D01*
X027840Y018645D02*
X034305Y018645D01*
X034464Y018803D02*
X033162Y018803D01*
X033365Y018962D02*
X034622Y018962D01*
X034781Y019120D02*
X033398Y019120D01*
X033343Y019279D02*
X034939Y019279D01*
X034147Y018486D02*
X027840Y018486D01*
X027840Y018328D02*
X033988Y018328D01*
X033830Y018169D02*
X027840Y018169D01*
X027840Y018011D02*
X033671Y018011D01*
X033513Y017852D02*
X027840Y017852D01*
X027840Y017694D02*
X033354Y017694D01*
X033196Y017535D02*
X027840Y017535D01*
X027840Y017377D02*
X033037Y017377D01*
X032889Y017218D02*
X027840Y017218D01*
X027980Y017060D02*
X032860Y017060D01*
X032860Y016901D02*
X028138Y016901D01*
X028297Y016743D02*
X032860Y016743D01*
X032860Y016584D02*
X028455Y016584D01*
X028614Y016426D02*
X032860Y016426D01*
X032860Y016267D02*
X028772Y016267D01*
X028931Y016109D02*
X032860Y016109D01*
X032860Y015950D02*
X029089Y015950D01*
X029248Y015792D02*
X032860Y015792D01*
X032860Y015633D02*
X029406Y015633D01*
X029565Y015475D02*
X032860Y015475D01*
X032860Y015316D02*
X029723Y015316D01*
X029882Y015158D02*
X032860Y015158D01*
X032860Y014999D02*
X030040Y014999D01*
X030199Y014841D02*
X032860Y014841D01*
X032860Y014682D02*
X030357Y014682D01*
X030516Y014524D02*
X032860Y014524D01*
X032860Y014365D02*
X030674Y014365D01*
X030833Y014207D02*
X032860Y014207D01*
X032860Y014048D02*
X030991Y014048D01*
X031150Y013890D02*
X032860Y013890D01*
X032860Y013731D02*
X031308Y013731D01*
X031467Y013573D02*
X032860Y013573D01*
X032860Y013414D02*
X031625Y013414D01*
X031784Y013256D02*
X032860Y013256D01*
X032860Y013097D02*
X031942Y013097D01*
X032101Y012939D02*
X032860Y012939D01*
X032860Y012780D02*
X032259Y012780D01*
X032418Y012622D02*
X032860Y012622D01*
X032898Y012463D02*
X032576Y012463D01*
X032735Y012305D02*
X033056Y012305D01*
X033215Y012146D02*
X032893Y012146D01*
X033052Y011988D02*
X033373Y011988D01*
X033532Y011829D02*
X033210Y011829D01*
X033369Y011671D02*
X033690Y011671D01*
X033849Y011512D02*
X033527Y011512D01*
X033686Y011354D02*
X034007Y011354D01*
X034166Y011195D02*
X033844Y011195D01*
X034003Y011037D02*
X034324Y011037D01*
X034161Y010878D02*
X034509Y010878D01*
X034600Y012100D02*
X034549Y012151D01*
X034549Y014600D01*
X034600Y014600D01*
X035024Y014524D02*
X035176Y014524D01*
X035176Y014682D02*
X035024Y014682D01*
X035024Y014841D02*
X035176Y014841D01*
X035176Y014999D02*
X035024Y014999D01*
X035651Y014600D02*
X035651Y016372D01*
X035317Y016706D01*
X035317Y017494D02*
X035317Y017494D01*
X037817Y017494D01*
X038165Y017852D02*
X039968Y017852D01*
X039857Y017694D02*
X038276Y017694D01*
X038316Y017535D02*
X039817Y017535D01*
X039829Y017377D02*
X038304Y017377D01*
X038234Y017218D02*
X039899Y017218D01*
X039991Y017060D02*
X038142Y017060D01*
X038255Y016901D02*
X039878Y016901D01*
X039837Y016743D02*
X038297Y016743D01*
X038285Y016584D02*
X039848Y016584D01*
X039918Y016426D02*
X038389Y016426D01*
X038391Y016267D02*
X040123Y016267D01*
X040411Y016109D02*
X038391Y016109D01*
X038391Y015950D02*
X040411Y015950D01*
X040411Y015792D02*
X038391Y015792D01*
X038391Y015633D02*
X040411Y015633D01*
X040411Y015475D02*
X038391Y015475D01*
X038391Y015316D02*
X040411Y015316D01*
X040411Y015158D02*
X038391Y015158D01*
X038626Y014999D02*
X039074Y014999D01*
X039074Y015060D02*
X039168Y015154D01*
X039930Y015154D01*
X040024Y015060D01*
X040024Y014140D01*
X039930Y014046D01*
X039789Y014046D01*
X039789Y013501D01*
X039752Y013413D01*
X039685Y013345D01*
X039498Y013158D01*
X039498Y013021D01*
X039437Y012875D01*
X039325Y012763D01*
X039179Y012702D01*
X039021Y012702D01*
X038875Y012763D01*
X038763Y012875D01*
X038702Y013021D01*
X038702Y013179D01*
X038763Y013325D01*
X038875Y013437D01*
X039021Y013498D01*
X039158Y013498D01*
X039309Y013648D01*
X039309Y014046D01*
X039168Y014046D01*
X039074Y014140D01*
X039074Y015060D01*
X039074Y014841D02*
X038626Y014841D01*
X038626Y014682D02*
X039074Y014682D01*
X039074Y014524D02*
X038626Y014524D01*
X038626Y014365D02*
X039074Y014365D01*
X039074Y014207D02*
X038626Y014207D01*
X038534Y014048D02*
X039166Y014048D01*
X039309Y013890D02*
X037289Y013890D01*
X037289Y013731D02*
X039309Y013731D01*
X039233Y013573D02*
X037289Y013573D01*
X037253Y013414D02*
X038851Y013414D01*
X038734Y013256D02*
X037095Y013256D01*
X036936Y013097D02*
X038702Y013097D01*
X038736Y012939D02*
X036778Y012939D01*
X036619Y012780D02*
X038857Y012780D01*
X039100Y013100D02*
X039549Y013549D01*
X039549Y014600D01*
X040024Y014524D02*
X040176Y014524D01*
X040176Y014682D02*
X040024Y014682D01*
X040024Y014841D02*
X040176Y014841D01*
X040176Y014999D02*
X040024Y014999D01*
X040024Y014365D02*
X040176Y014365D01*
X040176Y014207D02*
X040024Y014207D01*
X039932Y014048D02*
X040268Y014048D01*
X039789Y013890D02*
X042100Y013890D01*
X042100Y014048D02*
X041034Y014048D01*
X041126Y014207D02*
X042100Y014207D01*
X042100Y014365D02*
X041126Y014365D01*
X041126Y014524D02*
X042100Y014524D01*
X042100Y014682D02*
X041126Y014682D01*
X041126Y014841D02*
X042100Y014841D01*
X042100Y014999D02*
X041126Y014999D01*
X040891Y015158D02*
X042100Y015158D01*
X042100Y015316D02*
X040891Y015316D01*
X040891Y015475D02*
X042100Y015475D01*
X042100Y015633D02*
X040891Y015633D01*
X040891Y015792D02*
X042100Y015792D01*
X042100Y015950D02*
X040891Y015950D01*
X040891Y016109D02*
X042100Y016109D01*
X042100Y016267D02*
X040891Y016267D01*
X040891Y016426D02*
X042100Y016426D01*
X042100Y016584D02*
X040891Y016584D01*
X040797Y016743D02*
X042100Y016743D01*
X042100Y016901D02*
X040755Y016901D01*
X040642Y017060D02*
X042100Y017060D01*
X042100Y017218D02*
X040734Y017218D01*
X040804Y017377D02*
X042100Y017377D01*
X042100Y017535D02*
X040816Y017535D01*
X040776Y017694D02*
X042100Y017694D01*
X042100Y017852D02*
X040665Y017852D01*
X040317Y017852D02*
X040317Y017852D01*
X040317Y017694D02*
X040317Y017694D01*
X040317Y017535D02*
X040317Y017535D01*
X040317Y017494D02*
X040317Y017494D01*
X040317Y016706D02*
X040423Y016600D01*
X040600Y016600D01*
X040651Y016549D01*
X040651Y014600D01*
X039789Y013731D02*
X042100Y013731D01*
X042100Y013573D02*
X039789Y013573D01*
X039753Y013414D02*
X042100Y013414D01*
X042100Y013256D02*
X039595Y013256D01*
X039498Y013097D02*
X042100Y013097D01*
X042100Y012939D02*
X039464Y012939D01*
X039441Y012780D02*
X039343Y012780D01*
X039282Y012622D02*
X036498Y012622D01*
X036474Y012463D02*
X039124Y012463D01*
X038965Y012305D02*
X036367Y012305D01*
X036258Y013097D02*
X034789Y013097D01*
X034789Y013256D02*
X036416Y013256D01*
X036575Y013414D02*
X034789Y013414D01*
X034789Y013573D02*
X036733Y013573D01*
X036809Y013731D02*
X034789Y013731D01*
X034789Y013890D02*
X036809Y013890D01*
X036666Y014048D02*
X036034Y014048D01*
X036126Y014207D02*
X036574Y014207D01*
X036574Y014365D02*
X036126Y014365D01*
X036126Y014524D02*
X036574Y014524D01*
X036574Y014682D02*
X036126Y014682D01*
X036126Y014841D02*
X036574Y014841D01*
X036574Y014999D02*
X036126Y014999D01*
X035176Y014365D02*
X035024Y014365D01*
X035024Y014207D02*
X035176Y014207D01*
X035268Y014048D02*
X034932Y014048D01*
X037432Y014048D02*
X037768Y014048D01*
X037676Y014207D02*
X037524Y014207D01*
X037524Y014365D02*
X037676Y014365D01*
X038151Y014600D02*
X038151Y016372D01*
X037817Y016706D01*
X035317Y017535D02*
X035317Y017535D01*
X035317Y017694D02*
X035317Y017694D01*
X035317Y017852D02*
X035317Y017852D01*
X035270Y021181D02*
X027840Y021181D01*
X027840Y021339D02*
X035134Y021339D01*
X035070Y021498D02*
X027840Y021498D01*
X027995Y021656D02*
X035070Y021656D01*
X035115Y021815D02*
X028154Y021815D01*
X028312Y021973D02*
X035224Y021973D01*
X035309Y022132D02*
X028471Y022132D01*
X028629Y022290D02*
X035145Y022290D01*
X035071Y022449D02*
X028788Y022449D01*
X026860Y022449D02*
X016091Y022449D01*
X015932Y022607D02*
X026860Y022607D01*
X026860Y022766D02*
X015774Y022766D01*
X015615Y022924D02*
X026860Y022924D01*
X026860Y023083D02*
X015457Y023083D01*
X015340Y023241D02*
X026860Y023241D01*
X026860Y023400D02*
X015340Y023400D01*
X015340Y023558D02*
X026860Y023558D01*
X026860Y023717D02*
X015340Y023717D01*
X015340Y023875D02*
X026860Y023875D01*
X026860Y024034D02*
X015340Y024034D01*
X015340Y024192D02*
X026860Y024192D01*
X026860Y024351D02*
X015340Y024351D01*
X015340Y024509D02*
X026860Y024509D01*
X026860Y024668D02*
X015340Y024668D01*
X015340Y024826D02*
X026860Y024826D01*
X026860Y024985D02*
X015340Y024985D01*
X015503Y025143D02*
X015697Y025143D01*
X015623Y025302D02*
X015577Y025302D01*
X015577Y025460D02*
X015623Y025460D01*
X014860Y024985D02*
X000600Y024985D01*
X000600Y025143D02*
X013697Y025143D01*
X013623Y025302D02*
X000600Y025302D01*
X000600Y025460D02*
X013623Y025460D01*
X013623Y025619D02*
X000600Y025619D01*
X000600Y025777D02*
X013623Y025777D01*
X014503Y025143D02*
X014697Y025143D01*
X014623Y025302D02*
X014577Y025302D01*
X014577Y025460D02*
X014623Y025460D01*
X014623Y025619D02*
X014577Y025619D01*
X014577Y025777D02*
X014623Y025777D01*
X014623Y025936D02*
X014577Y025936D01*
X014577Y026253D02*
X014623Y026253D01*
X014623Y026411D02*
X014577Y026411D01*
X014577Y026570D02*
X014623Y026570D01*
X014623Y026728D02*
X014577Y026728D01*
X014577Y026887D02*
X014623Y026887D01*
X014685Y027045D02*
X014515Y027045D01*
X014289Y027204D02*
X014911Y027204D01*
X014911Y027362D02*
X014289Y027362D01*
X014289Y027521D02*
X014911Y027521D01*
X014911Y027679D02*
X014289Y027679D01*
X014289Y027838D02*
X014911Y027838D01*
X014911Y027996D02*
X014289Y027996D01*
X014524Y028155D02*
X014676Y028155D01*
X014676Y028313D02*
X014524Y028313D01*
X014524Y028472D02*
X014676Y028472D01*
X014676Y028630D02*
X014524Y028630D01*
X014524Y028789D02*
X014676Y028789D01*
X014676Y028947D02*
X014524Y028947D01*
X014478Y029106D02*
X014722Y029106D01*
X015151Y028600D02*
X015151Y027151D01*
X015100Y026600D01*
X014100Y026600D02*
X014049Y027151D01*
X014049Y028600D01*
X016515Y027045D02*
X016685Y027045D01*
X016717Y027077D02*
X016623Y026983D01*
X016623Y026217D01*
X016717Y026123D01*
X017483Y026123D01*
X017577Y026217D01*
X017577Y026983D01*
X017483Y027077D01*
X016717Y027077D01*
X016623Y026887D02*
X016577Y026887D01*
X016577Y026728D02*
X016623Y026728D01*
X016623Y026570D02*
X016577Y026570D01*
X016577Y026411D02*
X016623Y026411D01*
X016623Y026253D02*
X016577Y026253D01*
X016717Y026077D02*
X016623Y025983D01*
X016623Y025217D01*
X016717Y025123D01*
X017483Y025123D01*
X017577Y025217D01*
X017577Y025983D01*
X017483Y026077D01*
X016717Y026077D01*
X016623Y025936D02*
X016577Y025936D01*
X016577Y025777D02*
X016623Y025777D01*
X016623Y025619D02*
X016577Y025619D01*
X016577Y025460D02*
X016623Y025460D01*
X016623Y025302D02*
X016577Y025302D01*
X016503Y025143D02*
X016697Y025143D01*
X017503Y025143D02*
X017669Y025143D01*
X017603Y025302D02*
X017577Y025302D01*
X017577Y025460D02*
X017603Y025460D01*
X017603Y025619D02*
X017577Y025619D01*
X017577Y025777D02*
X017603Y025777D01*
X017603Y025936D02*
X017577Y025936D01*
X017577Y026253D02*
X017623Y026253D01*
X017623Y026411D02*
X017577Y026411D01*
X017577Y026570D02*
X017623Y026570D01*
X017623Y026728D02*
X017577Y026728D01*
X017577Y026887D02*
X017623Y026887D01*
X017685Y027045D02*
X017515Y027045D01*
X018515Y027045D02*
X018685Y027045D01*
X018623Y026887D02*
X018577Y026887D01*
X018577Y026728D02*
X018623Y026728D01*
X018623Y026570D02*
X018577Y026570D01*
X018577Y026411D02*
X018623Y026411D01*
X019577Y026411D02*
X019623Y026411D01*
X019623Y026253D02*
X019577Y026253D01*
X019623Y026217D02*
X019717Y026123D01*
X020483Y026123D01*
X020577Y026217D01*
X020577Y026983D01*
X020483Y027077D01*
X019717Y027077D01*
X019623Y026983D01*
X019623Y026217D01*
X019717Y026077D02*
X019623Y025983D01*
X019623Y025217D01*
X019717Y025123D01*
X020483Y025123D01*
X020577Y025217D01*
X020577Y025983D01*
X020483Y026077D01*
X019717Y026077D01*
X019623Y025936D02*
X019577Y025936D01*
X019577Y025777D02*
X019623Y025777D01*
X019623Y025619D02*
X019577Y025619D01*
X019577Y025460D02*
X019623Y025460D01*
X019623Y025302D02*
X019577Y025302D01*
X019503Y025143D02*
X019697Y025143D01*
X020503Y025143D02*
X020697Y025143D01*
X020717Y025123D02*
X021483Y025123D01*
X021577Y025217D01*
X021577Y025983D01*
X021483Y026077D01*
X020717Y026077D01*
X020623Y025983D01*
X020623Y025217D01*
X020717Y025123D01*
X020623Y025302D02*
X020577Y025302D01*
X020577Y025460D02*
X020623Y025460D01*
X020623Y025619D02*
X020577Y025619D01*
X020577Y025777D02*
X020623Y025777D01*
X020623Y025936D02*
X020577Y025936D01*
X020717Y026123D02*
X021483Y026123D01*
X021577Y026217D01*
X021577Y026983D01*
X021483Y027077D01*
X020717Y027077D01*
X020623Y026983D01*
X020623Y026217D01*
X020717Y026123D01*
X020623Y026253D02*
X020577Y026253D01*
X020577Y026411D02*
X020623Y026411D01*
X020623Y026570D02*
X020577Y026570D01*
X020577Y026728D02*
X020623Y026728D01*
X020623Y026887D02*
X020577Y026887D01*
X020515Y027045D02*
X020685Y027045D01*
X021515Y027045D02*
X021685Y027045D01*
X021717Y027077D02*
X021623Y026983D01*
X021623Y026217D01*
X021717Y026123D01*
X022483Y026123D01*
X022577Y026217D01*
X022577Y026983D01*
X022483Y027077D01*
X021717Y027077D01*
X021623Y026887D02*
X021577Y026887D01*
X021577Y026728D02*
X021623Y026728D01*
X021623Y026570D02*
X021577Y026570D01*
X021577Y026411D02*
X021623Y026411D01*
X021623Y026253D02*
X021577Y026253D01*
X021717Y026077D02*
X021623Y025983D01*
X021623Y025217D01*
X021717Y025123D01*
X022483Y025123D01*
X022577Y025217D01*
X022577Y025983D01*
X022483Y026077D01*
X021717Y026077D01*
X021623Y025936D02*
X021577Y025936D01*
X021577Y025777D02*
X021623Y025777D01*
X021623Y025619D02*
X021577Y025619D01*
X021577Y025460D02*
X021623Y025460D01*
X021623Y025302D02*
X021577Y025302D01*
X021503Y025143D02*
X021697Y025143D01*
X022503Y025143D02*
X022697Y025143D01*
X022717Y025123D02*
X023483Y025123D01*
X023577Y025217D01*
X023577Y025983D01*
X023483Y026077D01*
X022717Y026077D01*
X022623Y025983D01*
X022623Y025217D01*
X022717Y025123D01*
X022623Y025302D02*
X022577Y025302D01*
X022577Y025460D02*
X022623Y025460D01*
X022623Y025619D02*
X022577Y025619D01*
X022577Y025777D02*
X022623Y025777D01*
X022623Y025936D02*
X022577Y025936D01*
X022673Y026139D02*
X022714Y026115D01*
X022759Y026103D01*
X023082Y026103D01*
X023082Y026582D01*
X023118Y026582D01*
X023118Y026618D01*
X023082Y026618D01*
X023082Y027097D01*
X022759Y027097D01*
X022714Y027085D01*
X022673Y027061D01*
X022639Y027027D01*
X022615Y026986D01*
X022603Y026941D01*
X022603Y026618D01*
X023082Y026618D01*
X023082Y026582D01*
X022603Y026582D01*
X022603Y026259D01*
X022615Y026214D01*
X022639Y026173D01*
X022673Y026139D01*
X022605Y026253D02*
X022577Y026253D01*
X022577Y026411D02*
X022603Y026411D01*
X022603Y026570D02*
X022577Y026570D01*
X022577Y026728D02*
X022603Y026728D01*
X022603Y026887D02*
X022577Y026887D01*
X022515Y027045D02*
X022657Y027045D01*
X023082Y027045D02*
X023118Y027045D01*
X023118Y027097D02*
X023118Y026618D01*
X023597Y026618D01*
X023597Y026941D01*
X023585Y026986D01*
X023561Y027027D01*
X023527Y027061D01*
X023486Y027085D01*
X023441Y027097D01*
X023118Y027097D01*
X023118Y026887D02*
X023082Y026887D01*
X023082Y026728D02*
X023118Y026728D01*
X023100Y026600D02*
X024100Y028100D01*
X029100Y028100D01*
X030515Y027045D02*
X030685Y027045D01*
X030717Y027077D02*
X030623Y026983D01*
X030623Y026217D01*
X030717Y026123D01*
X031483Y026123D01*
X031577Y026217D01*
X031577Y026983D01*
X031483Y027077D01*
X030717Y027077D01*
X030623Y026887D02*
X030577Y026887D01*
X030577Y026728D02*
X030623Y026728D01*
X030623Y026570D02*
X030577Y026570D01*
X030577Y026411D02*
X030623Y026411D01*
X030623Y026253D02*
X030577Y026253D01*
X030717Y026077D02*
X030623Y025983D01*
X030623Y025217D01*
X030717Y025123D01*
X031483Y025123D01*
X031577Y025217D01*
X031577Y025983D01*
X031483Y026077D01*
X030717Y026077D01*
X030623Y025936D02*
X030577Y025936D01*
X030577Y025777D02*
X030623Y025777D01*
X030623Y025619D02*
X030577Y025619D01*
X030577Y025460D02*
X030623Y025460D01*
X030623Y025302D02*
X030577Y025302D01*
X030503Y025143D02*
X030697Y025143D01*
X031503Y025143D02*
X031697Y025143D01*
X031623Y025302D02*
X031577Y025302D01*
X031577Y025460D02*
X031623Y025460D01*
X031623Y025619D02*
X031577Y025619D01*
X031577Y025777D02*
X031623Y025777D01*
X031623Y025936D02*
X031577Y025936D01*
X031577Y026253D02*
X031623Y026253D01*
X031623Y026411D02*
X031577Y026411D01*
X031577Y026570D02*
X031623Y026570D01*
X031623Y026728D02*
X031577Y026728D01*
X031577Y026887D02*
X031623Y026887D01*
X031685Y027045D02*
X031515Y027045D01*
X029118Y026411D02*
X029082Y026411D01*
X029082Y026253D02*
X029118Y026253D01*
X027623Y025460D02*
X027577Y025460D01*
X027577Y025302D02*
X027623Y025302D01*
X027697Y025143D02*
X027503Y025143D01*
X026697Y025143D02*
X026503Y025143D01*
X026483Y025123D02*
X026577Y025217D01*
X026577Y025983D01*
X026483Y026077D01*
X025717Y026077D01*
X025623Y025983D01*
X025623Y025217D01*
X025717Y025123D01*
X026483Y025123D01*
X026577Y025302D02*
X026623Y025302D01*
X026623Y025460D02*
X026577Y025460D01*
X026577Y025619D02*
X026623Y025619D01*
X026623Y025777D02*
X026577Y025777D01*
X026577Y025936D02*
X026623Y025936D01*
X026483Y026123D02*
X026577Y026217D01*
X026577Y026983D01*
X026483Y027077D01*
X025717Y027077D01*
X025623Y026983D01*
X025623Y026217D01*
X025717Y026123D01*
X026483Y026123D01*
X026577Y026253D02*
X026623Y026253D01*
X026623Y026411D02*
X026577Y026411D01*
X026577Y026570D02*
X026623Y026570D01*
X026623Y026728D02*
X026577Y026728D01*
X026577Y026887D02*
X026623Y026887D01*
X026685Y027045D02*
X026515Y027045D01*
X025685Y027045D02*
X025515Y027045D01*
X025483Y027077D02*
X025577Y026983D01*
X025577Y026217D01*
X025483Y026123D01*
X024717Y026123D01*
X024623Y026217D01*
X024623Y026983D01*
X024717Y027077D01*
X025483Y027077D01*
X025577Y026887D02*
X025623Y026887D01*
X025623Y026728D02*
X025577Y026728D01*
X025577Y026570D02*
X025623Y026570D01*
X025623Y026411D02*
X025577Y026411D01*
X025577Y026253D02*
X025623Y026253D01*
X025483Y026077D02*
X025577Y025983D01*
X025577Y025217D01*
X025483Y025123D01*
X024717Y025123D01*
X024623Y025217D01*
X024623Y025983D01*
X024717Y026077D01*
X025483Y026077D01*
X025577Y025936D02*
X025623Y025936D01*
X025623Y025777D02*
X025577Y025777D01*
X025577Y025619D02*
X025623Y025619D01*
X025623Y025460D02*
X025577Y025460D01*
X025577Y025302D02*
X025623Y025302D01*
X025697Y025143D02*
X025503Y025143D01*
X024697Y025143D02*
X024503Y025143D01*
X024483Y025123D02*
X024577Y025217D01*
X024577Y025983D01*
X024483Y026077D01*
X023717Y026077D01*
X023623Y025983D01*
X023623Y025217D01*
X023717Y025123D01*
X024483Y025123D01*
X024577Y025302D02*
X024623Y025302D01*
X024623Y025460D02*
X024577Y025460D01*
X024577Y025619D02*
X024623Y025619D01*
X024623Y025777D02*
X024577Y025777D01*
X024577Y025936D02*
X024623Y025936D01*
X024483Y026123D02*
X024577Y026217D01*
X024577Y026983D01*
X024483Y027077D01*
X023717Y027077D01*
X023623Y026983D01*
X023623Y026217D01*
X023717Y026123D01*
X024483Y026123D01*
X024577Y026253D02*
X024623Y026253D01*
X024623Y026411D02*
X024577Y026411D01*
X024577Y026570D02*
X024623Y026570D01*
X024623Y026728D02*
X024577Y026728D01*
X024577Y026887D02*
X024623Y026887D01*
X024685Y027045D02*
X024515Y027045D01*
X023685Y027045D02*
X023543Y027045D01*
X023597Y026887D02*
X023623Y026887D01*
X023623Y026728D02*
X023597Y026728D01*
X023597Y026582D02*
X023118Y026582D01*
X023118Y026103D01*
X023441Y026103D01*
X023486Y026115D01*
X023527Y026139D01*
X023561Y026173D01*
X023585Y026214D01*
X023597Y026259D01*
X023597Y026582D01*
X023597Y026570D02*
X023623Y026570D01*
X023623Y026411D02*
X023597Y026411D01*
X023595Y026253D02*
X023623Y026253D01*
X023623Y025936D02*
X023577Y025936D01*
X023577Y025777D02*
X023623Y025777D01*
X023623Y025619D02*
X023577Y025619D01*
X023577Y025460D02*
X023623Y025460D01*
X023623Y025302D02*
X023577Y025302D01*
X023503Y025143D02*
X023697Y025143D01*
X023118Y026253D02*
X023082Y026253D01*
X023082Y026411D02*
X023118Y026411D01*
X023118Y026570D02*
X023082Y026570D01*
X019685Y027045D02*
X019515Y027045D01*
X019577Y026887D02*
X019623Y026887D01*
X019623Y026728D02*
X019577Y026728D01*
X019577Y026570D02*
X019623Y026570D01*
X014860Y024826D02*
X000600Y024826D01*
X000600Y024668D02*
X014860Y024668D01*
X014860Y024509D02*
X000600Y024509D01*
X000600Y024351D02*
X012929Y024351D01*
X012931Y024353D02*
X012847Y024269D01*
X012802Y024159D01*
X012802Y024041D01*
X012847Y023931D01*
X012931Y023847D01*
X013041Y023802D01*
X013159Y023802D01*
X013269Y023847D01*
X013353Y023931D01*
X013398Y024041D01*
X013398Y024159D01*
X013353Y024269D01*
X013269Y024353D01*
X013159Y024398D01*
X013041Y024398D01*
X012931Y024353D01*
X012815Y024192D02*
X000600Y024192D01*
X000600Y024034D02*
X012805Y024034D01*
X012903Y023875D02*
X000600Y023875D01*
X000600Y023717D02*
X014860Y023717D01*
X014860Y023875D02*
X013297Y023875D01*
X013395Y024034D02*
X014860Y024034D01*
X014860Y024192D02*
X013385Y024192D01*
X013271Y024351D02*
X014860Y024351D01*
X014860Y023558D02*
X000600Y023558D01*
X000600Y023400D02*
X014860Y023400D01*
X014860Y023241D02*
X000600Y023241D01*
X000600Y023083D02*
X014860Y023083D01*
X014937Y022924D02*
X000600Y022924D01*
X000600Y022766D02*
X015095Y022766D01*
X015254Y022607D02*
X000600Y022607D01*
X000600Y022449D02*
X015412Y022449D01*
X015571Y022290D02*
X000600Y022290D01*
X000600Y022132D02*
X015729Y022132D01*
X015888Y021973D02*
X000600Y021973D01*
X000600Y021815D02*
X016046Y021815D01*
X016205Y021656D02*
X000600Y021656D01*
X000600Y021498D02*
X016363Y021498D01*
X016522Y021339D02*
X000600Y021339D01*
X000600Y021181D02*
X016680Y021181D01*
X016839Y021022D02*
X000600Y021022D01*
X000600Y020864D02*
X016997Y020864D01*
X017156Y020705D02*
X000600Y020705D01*
X000600Y020547D02*
X017314Y020547D01*
X017473Y020388D02*
X000600Y020388D01*
X000600Y020230D02*
X017631Y020230D01*
X017790Y020071D02*
X000600Y020071D01*
X000600Y019913D02*
X017948Y019913D01*
X018107Y019754D02*
X000600Y019754D01*
X000600Y019596D02*
X018265Y019596D01*
X018424Y019437D02*
X000600Y019437D01*
X000600Y019279D02*
X018582Y019279D01*
X018741Y019120D02*
X000600Y019120D01*
X000600Y018962D02*
X018899Y018962D01*
X019102Y019437D02*
X026860Y019437D01*
X026860Y019279D02*
X023761Y019279D01*
X026860Y019596D02*
X018944Y019596D01*
X018785Y019754D02*
X026860Y019754D01*
X026860Y019913D02*
X018627Y019913D01*
X018468Y020071D02*
X026860Y020071D01*
X026860Y020230D02*
X018310Y020230D01*
X018151Y020388D02*
X026860Y020388D01*
X026860Y020547D02*
X017993Y020547D01*
X017834Y020705D02*
X026860Y020705D01*
X026860Y020864D02*
X017676Y020864D01*
X017517Y021022D02*
X026860Y021022D01*
X026860Y021181D02*
X017359Y021181D01*
X017200Y021339D02*
X026860Y021339D01*
X026860Y021498D02*
X017042Y021498D01*
X016883Y021656D02*
X026860Y021656D01*
X026860Y021815D02*
X016725Y021815D01*
X016566Y021973D02*
X026860Y021973D01*
X026860Y022132D02*
X016408Y022132D01*
X016249Y022290D02*
X026860Y022290D01*
X035792Y026094D02*
X036255Y026094D01*
X036413Y026253D02*
X036002Y026253D01*
X036095Y026411D02*
X036572Y026411D01*
X036730Y026570D02*
X036130Y026570D01*
X036121Y026728D02*
X036889Y026728D01*
X037047Y026887D02*
X036055Y026887D01*
X036014Y025936D02*
X036096Y025936D01*
X036982Y025143D02*
X038268Y025143D01*
X038285Y024985D02*
X036824Y024985D01*
X036665Y024826D02*
X038170Y024826D01*
X038120Y024668D02*
X036507Y024668D01*
X036348Y024509D02*
X038120Y024509D01*
X038100Y025302D02*
X037141Y025302D01*
X037299Y025460D02*
X038034Y025460D01*
X038020Y025619D02*
X037458Y025619D01*
X037616Y025777D02*
X038050Y025777D01*
X038136Y025936D02*
X037775Y025936D01*
X037933Y026094D02*
X038358Y026094D01*
X038248Y026253D02*
X038092Y026253D01*
X039180Y026570D02*
X042100Y026570D01*
X042100Y026728D02*
X039171Y026728D01*
X039105Y026887D02*
X042100Y026887D01*
X042100Y027045D02*
X038954Y027045D01*
X038903Y027204D02*
X042100Y027204D01*
X042100Y027362D02*
X039025Y027362D01*
X039080Y027521D02*
X042100Y027521D01*
X042100Y027679D02*
X039080Y027679D01*
X039025Y027838D02*
X042100Y027838D01*
X042100Y027996D02*
X038903Y027996D01*
X042100Y029423D02*
X000600Y029423D01*
X000600Y029581D02*
X042100Y029581D01*
X042100Y029740D02*
X000600Y029740D01*
X000600Y029898D02*
X042100Y029898D01*
X042100Y030057D02*
X000600Y030057D01*
X000600Y030215D02*
X042100Y030215D01*
X042100Y030374D02*
X000600Y030374D01*
X000600Y030532D02*
X042100Y030532D01*
X042100Y030691D02*
X000600Y030691D01*
X000600Y030849D02*
X042100Y030849D01*
X042100Y031008D02*
X000600Y031008D01*
X000600Y027045D02*
X002685Y027045D01*
X002717Y027077D02*
X002623Y026983D01*
X002623Y026217D01*
X002717Y026123D01*
X003483Y026123D01*
X003577Y026217D01*
X003577Y026983D01*
X003483Y027077D01*
X002717Y027077D01*
X002623Y026887D02*
X000600Y026887D01*
X000600Y026728D02*
X002623Y026728D01*
X002623Y026570D02*
X000600Y026570D01*
X000600Y026411D02*
X002623Y026411D01*
X002623Y026253D02*
X000600Y026253D01*
X003577Y026253D02*
X003623Y026253D01*
X003623Y026411D02*
X003577Y026411D01*
X003577Y026570D02*
X003623Y026570D01*
X003623Y026728D02*
X003577Y026728D01*
X003577Y026887D02*
X003623Y026887D01*
X003685Y027045D02*
X003515Y027045D01*
X000600Y004855D02*
X011937Y004855D01*
X011817Y004697D02*
X000600Y004697D01*
X000600Y004538D02*
X011803Y004538D01*
X011899Y004380D02*
X000600Y004380D01*
X000600Y002953D02*
X013623Y002953D01*
X013623Y002795D02*
X000600Y002795D01*
X000600Y002636D02*
X013623Y002636D01*
X013623Y002478D02*
X000600Y002478D01*
X000600Y002319D02*
X013623Y002319D01*
X019577Y002319D02*
X019623Y002319D01*
X019623Y002478D02*
X019577Y002478D01*
X019577Y002636D02*
X019623Y002636D01*
X019623Y002795D02*
X019577Y002795D01*
X019577Y002953D02*
X019623Y002953D01*
X003642Y002002D02*
X003558Y002002D01*
X003577Y001844D02*
X003623Y001844D01*
X003623Y001685D02*
X003577Y001685D01*
X003577Y001527D02*
X003623Y001527D01*
X003623Y001368D02*
X003577Y001368D01*
X003569Y001210D02*
X003631Y001210D01*
D21*
X001600Y001100D03*
X001600Y008100D03*
X001600Y014600D03*
X001600Y020100D03*
X001600Y025600D03*
X001600Y030600D03*
X012100Y030600D03*
X021600Y030600D03*
X021600Y024600D03*
X021600Y020100D03*
X021600Y014600D03*
X021600Y008100D03*
X021600Y004600D03*
X018600Y004600D03*
X012100Y001100D03*
X012100Y008100D03*
X012100Y014600D03*
X012100Y020100D03*
X032100Y020100D03*
X032100Y014600D03*
X034600Y012100D03*
X036100Y012600D03*
X039100Y013100D03*
X041100Y008100D03*
X032100Y008100D03*
X027600Y005100D03*
X041100Y001100D03*
X041100Y020100D03*
X041100Y025100D03*
X041100Y030100D03*
X032100Y030600D03*
X032100Y027600D03*
M02*
