solid OpenSCAD_Model
  facet normal -1 0 0
    outer loop
      vertex -30 -30 -13.5
      vertex -30 -30 -11.5
      vertex -30 30 -13.5
    endloop
  endfacet
  facet normal -1 0 0
    outer loop
      vertex -30 30 -13.5
      vertex -30 -30 -11.5
      vertex -30 30 -11.5
    endloop
  endfacet
  facet normal 0 -1 0
    outer loop
      vertex -30 -30 -11.5
      vertex -30 -30 -13.5
      vertex 30 -30 -13.5
    endloop
  endfacet
  facet normal 0 -1 0
    outer loop
      vertex 30 -30 -11.5
      vertex -30 -30 -11.5
      vertex 30 -30 -13.5
    endloop
  endfacet
  facet normal 0 0 -1
    outer loop
      vertex -24.753 26.5637 -13.5
      vertex -30 30 -13.5
      vertex 30 30 -13.5
    endloop
  endfacet
  facet normal 0 0 -1
    outer loop
      vertex -30 -30 -13.5
      vertex -30 30 -13.5
      vertex -27.8019 -24.1322 -13.5
    endloop
  endfacet
  facet normal 0 0 -1
    outer loop
      vertex -30 -30 -13.5
      vertex -27.8019 -24.1322 -13.5
      vertex -27.8019 -25.8678 -13.5
    endloop
  endfacet
  facet normal 0 0 -1
    outer loop
      vertex -30 -30 -13.5
      vertex -27.8019 -25.8678 -13.5
      vertex -26.445 -26.9499 -13.5
    endloop
  endfacet
  facet normal 0 0 -1
    outer loop
      vertex -30 -30 -13.5
      vertex -26.445 -26.9499 -13.5
      vertex 30 -30 -13.5
    endloop
  endfacet
  facet normal 0 0 -1
    outer loop
      vertex -26.445 -26.9499 -13.5
      vertex -24.753 -26.5637 -13.5
      vertex 30 -30 -13.5
    endloop
  endfacet
  facet normal 0 0 -1
    outer loop
      vertex -24.753 -23.4363 -13.5
      vertex 30 -30 -13.5
      vertex -24 -25 -13.5
    endloop
  endfacet
  facet normal 0 0 -1
    outer loop
      vertex -26.445 -23.0501 -13.5
      vertex -30 30 -13.5
      vertex -24.753 -23.4363 -13.5
    endloop
  endfacet
  facet normal 0 0 -1
    outer loop
      vertex -27.8019 25.8678 -13.5
      vertex -30 30 -13.5
      vertex -26.445 26.9499 -13.5
    endloop
  endfacet
  facet normal 0 0 -1
    outer loop
      vertex -27.8019 -24.1322 -13.5
      vertex -30 30 -13.5
      vertex -26.445 -23.0501 -13.5
    endloop
  endfacet
  facet normal 0 0 -1
    outer loop
      vertex -27.8019 24.1322 -13.5
      vertex -30 30 -13.5
      vertex -27.8019 25.8678 -13.5
    endloop
  endfacet
  facet normal 0 0 -1
    outer loop
      vertex -24 25 -13.5
      vertex 24.1981 -24.1322 -13.5
      vertex -24.753 23.4363 -13.5
    endloop
  endfacet
  facet normal 0 0 -1
    outer loop
      vertex -24.753 -23.4363 -13.5
      vertex -30 30 -13.5
      vertex -27.8019 24.1322 -13.5
    endloop
  endfacet
  facet normal 0 0 -1
    outer loop
      vertex 27.247 -26.5637 -13.5
      vertex 30 -30 -13.5
      vertex 25.555 -26.9499 -13.5
    endloop
  endfacet
  facet normal 0 0 -1
    outer loop
      vertex -26.445 23.0501 -13.5
      vertex -24.753 -23.4363 -13.5
      vertex -27.8019 24.1322 -13.5
    endloop
  endfacet
  facet normal 0 0 -1
    outer loop
      vertex 24.1981 -24.1322 -13.5
      vertex -24 25 -13.5
      vertex 25.555 -23.0501 -13.5
    endloop
  endfacet
  facet normal 0 0 -1
    outer loop
      vertex 25.555 26.9499 -13.5
      vertex -24 25 -13.5
      vertex 30 30 -13.5
    endloop
  endfacet
  facet normal 0 0 -1
    outer loop
      vertex 27.247 -23.4363 -13.5
      vertex 30 30 -13.5
      vertex 28 -25 -13.5
    endloop
  endfacet
  facet normal 0 0 -1
    outer loop
      vertex -24 25 -13.5
      vertex -24.753 26.5637 -13.5
      vertex 30 30 -13.5
    endloop
  endfacet
  facet normal 0 0 -1
    outer loop
      vertex -26.445 26.9499 -13.5
      vertex -30 30 -13.5
      vertex -24.753 26.5637 -13.5
    endloop
  endfacet
  facet normal 0 0 -1
    outer loop
      vertex 24.1981 -25.8678 -13.5
      vertex -26.445 23.0501 -13.5
      vertex -24.753 23.4363 -13.5
    endloop
  endfacet
  facet normal 0 0 -1
    outer loop
      vertex -24.753 -23.4363 -13.5
      vertex -26.445 23.0501 -13.5
      vertex 24.1981 -25.8678 -13.5
    endloop
  endfacet
  facet normal 0 0 -1
    outer loop
      vertex -24.753 -23.4363 -13.5
      vertex 24.1981 -25.8678 -13.5
      vertex 25.555 -26.9499 -13.5
    endloop
  endfacet
  facet normal 0 0 -1
    outer loop
      vertex -24.753 -23.4363 -13.5
      vertex 25.555 -26.9499 -13.5
      vertex 30 -30 -13.5
    endloop
  endfacet
  facet normal 0 0 -1
    outer loop
      vertex 24.1981 -25.8678 -13.5
      vertex -24.753 23.4363 -13.5
      vertex 24.1981 -24.1322 -13.5
    endloop
  endfacet
  facet normal 0 0 -1
    outer loop
      vertex 30 -30 -13.5
      vertex 27.247 -26.5637 -13.5
      vertex 28 -25 -13.5
    endloop
  endfacet
  facet normal 0 0 -1
    outer loop
      vertex 30 -30 -13.5
      vertex 28 -25 -13.5
      vertex 30 30 -13.5
    endloop
  endfacet
  facet normal 0 0 -1
    outer loop
      vertex 25.555 -23.0501 -13.5
      vertex -24 25 -13.5
      vertex 27.247 -23.4363 -13.5
    endloop
  endfacet
  facet normal 0 0 -1
    outer loop
      vertex 25.555 23.0501 -13.5
      vertex 27.247 -23.4363 -13.5
      vertex 24.1981 24.1322 -13.5
    endloop
  endfacet
  facet normal 0 0 -1
    outer loop
      vertex 24.1981 24.1322 -13.5
      vertex -24 25 -13.5
      vertex 24.1981 25.8678 -13.5
    endloop
  endfacet
  facet normal 0 0 -1
    outer loop
      vertex 27.247 -23.4363 -13.5
      vertex -24 25 -13.5
      vertex 24.1981 24.1322 -13.5
    endloop
  endfacet
  facet normal 0 0 -1
    outer loop
      vertex 27.247 26.5637 -13.5
      vertex 30 30 -13.5
      vertex 28 25 -13.5
    endloop
  endfacet
  facet normal 0 0 -1
    outer loop
      vertex 27.247 -23.4363 -13.5
      vertex 25.555 23.0501 -13.5
      vertex 27.247 23.4363 -13.5
    endloop
  endfacet
  facet normal 0 0 -1
    outer loop
      vertex 27.247 -23.4363 -13.5
      vertex 27.247 23.4363 -13.5
      vertex 28 25 -13.5
    endloop
  endfacet
  facet normal 0 0 -1
    outer loop
      vertex 27.247 -23.4363 -13.5
      vertex 28 25 -13.5
      vertex 30 30 -13.5
    endloop
  endfacet
  facet normal 0 0 -1
    outer loop
      vertex 25.555 26.9499 -13.5
      vertex 30 30 -13.5
      vertex 27.247 26.5637 -13.5
    endloop
  endfacet
  facet normal 0 0 -1
    outer loop
      vertex 24.1981 25.8678 -13.5
      vertex -24 25 -13.5
      vertex 25.555 26.9499 -13.5
    endloop
  endfacet
  facet normal 0 0 -1
    outer loop
      vertex -24 -25 -13.5
      vertex 30 -30 -13.5
      vertex -24.753 -26.5637 -13.5
    endloop
  endfacet
  facet normal 0 1 0
    outer loop
      vertex -30 30 -13.5
      vertex -30 30 -11.5
      vertex 30 30 -13.5
    endloop
  endfacet
  facet normal 0 1 0
    outer loop
      vertex 30 30 -13.5
      vertex -30 30 -11.5
      vertex 30 30 -11.5
    endloop
  endfacet
  facet normal 0 0 1
    outer loop
      vertex -22 -28 -11.5
      vertex -30 -30 -11.5
      vertex 30 -30 -11.5
    endloop
  endfacet
  facet normal 0 0 1
    outer loop
      vertex -30 30 -11.5
      vertex -30 -30 -11.5
      vertex -27.8019 -25.8678 -11.5
    endloop
  endfacet
  facet normal 0 0 1
    outer loop
      vertex -30 30 -11.5
      vertex -27.8019 -25.8678 -11.5
      vertex -27.8019 -24.1322 -11.5
    endloop
  endfacet
  facet normal 0 0 1
    outer loop
      vertex 28 -25 -11.5
      vertex 27.247 -26.5637 -11.5
      vertex 30 -30 -11.5
    endloop
  endfacet
  facet normal 0 0 1
    outer loop
      vertex -30 30 -11.5
      vertex -27.8019 -24.1322 -11.5
      vertex -26.445 -23.0501 -11.5
    endloop
  endfacet
  facet normal 0 0 1
    outer loop
      vertex -26.445 -26.9499 -11.5
      vertex -30 -30 -11.5
      vertex -24.753 -26.5637 -11.5
    endloop
  endfacet
  facet normal 0 0 1
    outer loop
      vertex -27.8019 -25.8678 -11.5
      vertex -30 -30 -11.5
      vertex -26.445 -26.9499 -11.5
    endloop
  endfacet
  facet normal 0 0 1
    outer loop
      vertex -30 30 -11.5
      vertex -26.445 -23.0501 -11.5
      vertex -27.8019 24.1322 -11.5
    endloop
  endfacet
  facet normal 0 0 1
    outer loop
      vertex -22 -28 -11.5
      vertex -24.753 -23.4363 -11.5
      vertex -24 -25 -11.5
    endloop
  endfacet
  facet normal 0 0 1
    outer loop
      vertex -30 30 -11.5
      vertex -27.8019 24.1322 -11.5
      vertex -27.8019 25.8678 -11.5
    endloop
  endfacet
  facet normal 0 0 1
    outer loop
      vertex -22 28 -11.5
      vertex -30 30 -11.5
      vertex -26.445 26.9499 -11.5
    endloop
  endfacet
  facet normal 0 0 1
    outer loop
      vertex 22 28 -11.5
      vertex 22 -28 -11.5
      vertex 24.1981 -25.8678 -11.5
    endloop
  endfacet
  facet normal 0 0 1
    outer loop
      vertex 25.555 26.9499 -11.5
      vertex 27.247 26.5637 -11.5
      vertex 30 30 -11.5
    endloop
  endfacet
  facet normal 0 0 1
    outer loop
      vertex -22 -28 -11.5
      vertex -24 -25 -11.5
      vertex -24.753 -26.5637 -11.5
    endloop
  endfacet
  facet normal 0 0 1
    outer loop
      vertex -22 28 -11.5
      vertex 22 28 -11.5
      vertex 30 30 -11.5
    endloop
  endfacet
  facet normal 0 0 1
    outer loop
      vertex -24.753 -26.5637 -11.5
      vertex -30 -30 -11.5
      vertex -22 -28 -11.5
    endloop
  endfacet
  facet normal 0 0 1
    outer loop
      vertex 30 30 -11.5
      vertex -30 30 -11.5
      vertex -22 28 -11.5
    endloop
  endfacet
  facet normal 0 0 1
    outer loop
      vertex 24.1981 24.1322 -11.5
      vertex 22 28 -11.5
      vertex 30 -30 -11.5
    endloop
  endfacet
  facet normal 0 0 1
    outer loop
      vertex 25.555 -26.9499 -11.5
      vertex 22 -28 -11.5
      vertex 30 -30 -11.5
    endloop
  endfacet
  facet normal 0 0 1
    outer loop
      vertex 22 28 -11.5
      vertex 24.1981 -24.1322 -11.5
      vertex 25.555 -23.0501 -11.5
    endloop
  endfacet
  facet normal 0 0 1
    outer loop
      vertex 27.247 -26.5637 -11.5
      vertex 25.555 -26.9499 -11.5
      vertex 30 -30 -11.5
    endloop
  endfacet
  facet normal 0 0 1
    outer loop
      vertex 22 28 -11.5
      vertex 25.555 -23.0501 -11.5
      vertex 27.247 -23.4363 -11.5
    endloop
  endfacet
  facet normal 0 0 1
    outer loop
      vertex 22 28 -11.5
      vertex 28 -25 -11.5
      vertex 30 -30 -11.5
    endloop
  endfacet
  facet normal 0 0 1
    outer loop
      vertex 22 28 -11.5
      vertex 27.247 -23.4363 -11.5
      vertex 28 -25 -11.5
    endloop
  endfacet
  facet normal 0 0 1
    outer loop
      vertex 22 28 -11.5
      vertex 24.1981 -25.8678 -11.5
      vertex 24.1981 -24.1322 -11.5
    endloop
  endfacet
  facet normal 0 0 1
    outer loop
      vertex 24.1981 -25.8678 -11.5
      vertex 22 -28 -11.5
      vertex 25.555 -26.9499 -11.5
    endloop
  endfacet
  facet normal 0 0 1
    outer loop
      vertex 25.555 23.0501 -11.5
      vertex 24.1981 24.1322 -11.5
      vertex 30 -30 -11.5
    endloop
  endfacet
  facet normal 0 0 1
    outer loop
      vertex 24.1981 25.8678 -11.5
      vertex 22 28 -11.5
      vertex 24.1981 24.1322 -11.5
    endloop
  endfacet
  facet normal 0 0 1
    outer loop
      vertex 28 25 -11.5
      vertex 27.247 23.4363 -11.5
      vertex 30 -30 -11.5
    endloop
  endfacet
  facet normal 0 0 1
    outer loop
      vertex 25.555 26.9499 -11.5
      vertex 22 28 -11.5
      vertex 24.1981 25.8678 -11.5
    endloop
  endfacet
  facet normal 0 0 1
    outer loop
      vertex 30 30 -11.5
      vertex 22 28 -11.5
      vertex 25.555 26.9499 -11.5
    endloop
  endfacet
  facet normal 0 0 1
    outer loop
      vertex 30 30 -11.5
      vertex 28 25 -11.5
      vertex 30 -30 -11.5
    endloop
  endfacet
  facet normal 0 0 1
    outer loop
      vertex 30 30 -11.5
      vertex 27.247 26.5637 -11.5
      vertex 28 25 -11.5
    endloop
  endfacet
  facet normal 0 0 1
    outer loop
      vertex 27.247 23.4363 -11.5
      vertex 25.555 23.0501 -11.5
      vertex 30 -30 -11.5
    endloop
  endfacet
  facet normal 0 0 1
    outer loop
      vertex -27.8019 25.8678 -11.5
      vertex -26.445 26.9499 -11.5
      vertex -30 30 -11.5
    endloop
  endfacet
  facet normal 0 0 1
    outer loop
      vertex 22 -28 -11.5
      vertex -22 -28 -11.5
      vertex 30 -30 -11.5
    endloop
  endfacet
  facet normal 0 0 1
    outer loop
      vertex -24.753 -23.4363 -11.5
      vertex -27.8019 24.1322 -11.5
      vertex -26.445 -23.0501 -11.5
    endloop
  endfacet
  facet normal 0 0 1
    outer loop
      vertex -22 -28 -11.5
      vertex -27.8019 24.1322 -11.5
      vertex -24.753 -23.4363 -11.5
    endloop
  endfacet
  facet normal 0 0 1
    outer loop
      vertex -22 -28 -11.5
      vertex -26.445 23.0501 -11.5
      vertex -27.8019 24.1322 -11.5
    endloop
  endfacet
  facet normal 0 0 1
    outer loop
      vertex -22 -28 -11.5
      vertex -24.753 23.4363 -11.5
      vertex -26.445 23.0501 -11.5
    endloop
  endfacet
  facet normal 0 0 1
    outer loop
      vertex -22 -28 -11.5
      vertex -24 25 -11.5
      vertex -24.753 23.4363 -11.5
    endloop
  endfacet
  facet normal 0 0 1
    outer loop
      vertex -24.753 26.5637 -11.5
      vertex -22 28 -11.5
      vertex -26.445 26.9499 -11.5
    endloop
  endfacet
  facet normal 0 0 1
    outer loop
      vertex -24 25 -11.5
      vertex -22 28 -11.5
      vertex -24.753 26.5637 -11.5
    endloop
  endfacet
  facet normal 0 0 1
    outer loop
      vertex -22 -28 -11.5
      vertex -22 28 -11.5
      vertex -24 25 -11.5
    endloop
  endfacet
  facet normal 1 0 0
    outer loop
      vertex 30 -30 -11.5
      vertex 30 -30 -13.5
      vertex 30 30 -13.5
    endloop
  endfacet
  facet normal 1 0 0
    outer loop
      vertex 30 30 -11.5
      vertex 30 -30 -11.5
      vertex 30 30 -13.5
    endloop
  endfacet
  facet normal 0.62349 -0.781831 0
    outer loop
      vertex -26.445 -23.0501 -13.5
      vertex -26.445 -23.0501 -11.5
      vertex -27.8019 -24.1322 -11.5
    endloop
  endfacet
  facet normal 0.62349 -0.781831 0
    outer loop
      vertex -27.8019 -24.1322 -13.5
      vertex -26.445 -23.0501 -13.5
      vertex -27.8019 -24.1322 -11.5
    endloop
  endfacet
  facet normal 1 0 0
    outer loop
      vertex -27.8019 -24.1322 -13.5
      vertex -27.8019 -24.1322 -11.5
      vertex -27.8019 -25.8678 -11.5
    endloop
  endfacet
  facet normal 1 0 0
    outer loop
      vertex -27.8019 -25.8678 -13.5
      vertex -27.8019 -24.1322 -13.5
      vertex -27.8019 -25.8678 -11.5
    endloop
  endfacet
  facet normal -0.222521 -0.974928 0
    outer loop
      vertex -24.753 -23.4363 -13.5
      vertex -24.753 -23.4363 -11.5
      vertex -26.445 -23.0501 -11.5
    endloop
  endfacet
  facet normal -0.222521 -0.974928 0
    outer loop
      vertex -26.445 -23.0501 -13.5
      vertex -24.753 -23.4363 -13.5
      vertex -26.445 -23.0501 -11.5
    endloop
  endfacet
  facet normal -0.900969 -0.433884 0
    outer loop
      vertex -24 -25 -11.5
      vertex -24.753 -23.4363 -11.5
      vertex -24 -25 -13.5
    endloop
  endfacet
  facet normal -0.900969 -0.433884 0
    outer loop
      vertex -24 -25 -13.5
      vertex -24.753 -23.4363 -11.5
      vertex -24.753 -23.4363 -13.5
    endloop
  endfacet
  facet normal -0.900969 0.433884 0
    outer loop
      vertex -24 -25 -11.5
      vertex -24 -25 -13.5
      vertex -24.753 -26.5637 -11.5
    endloop
  endfacet
  facet normal -0.900969 0.433884 0
    outer loop
      vertex -24.753 -26.5637 -11.5
      vertex -24 -25 -13.5
      vertex -24.753 -26.5637 -13.5
    endloop
  endfacet
  facet normal -0.222521 0.974928 0
    outer loop
      vertex -24.753 -26.5637 -11.5
      vertex -24.753 -26.5637 -13.5
      vertex -26.445 -26.9499 -11.5
    endloop
  endfacet
  facet normal -0.222521 0.974928 0
    outer loop
      vertex -26.445 -26.9499 -11.5
      vertex -24.753 -26.5637 -13.5
      vertex -26.445 -26.9499 -13.5
    endloop
  endfacet
  facet normal 0.62349 0.781831 0
    outer loop
      vertex -26.445 -26.9499 -11.5
      vertex -26.445 -26.9499 -13.5
      vertex -27.8019 -25.8678 -11.5
    endloop
  endfacet
  facet normal 0.62349 0.781831 0
    outer loop
      vertex -27.8019 -25.8678 -11.5
      vertex -26.445 -26.9499 -13.5
      vertex -27.8019 -25.8678 -13.5
    endloop
  endfacet
  facet normal 0.62349 -0.781831 0
    outer loop
      vertex -26.445 26.9499 -13.5
      vertex -26.445 26.9499 -11.5
      vertex -27.8019 25.8678 -11.5
    endloop
  endfacet
  facet normal 0.62349 -0.781831 0
    outer loop
      vertex -27.8019 25.8678 -13.5
      vertex -26.445 26.9499 -13.5
      vertex -27.8019 25.8678 -11.5
    endloop
  endfacet
  facet normal 1 0 0
    outer loop
      vertex -27.8019 25.8678 -13.5
      vertex -27.8019 25.8678 -11.5
      vertex -27.8019 24.1322 -11.5
    endloop
  endfacet
  facet normal 1 0 0
    outer loop
      vertex -27.8019 24.1322 -13.5
      vertex -27.8019 25.8678 -13.5
      vertex -27.8019 24.1322 -11.5
    endloop
  endfacet
  facet normal -0.222521 -0.974928 0
    outer loop
      vertex -24.753 26.5637 -13.5
      vertex -24.753 26.5637 -11.5
      vertex -26.445 26.9499 -11.5
    endloop
  endfacet
  facet normal -0.222521 -0.974928 0
    outer loop
      vertex -26.445 26.9499 -13.5
      vertex -24.753 26.5637 -13.5
      vertex -26.445 26.9499 -11.5
    endloop
  endfacet
  facet normal -0.900969 -0.433884 0
    outer loop
      vertex -24 25 -11.5
      vertex -24.753 26.5637 -11.5
      vertex -24 25 -13.5
    endloop
  endfacet
  facet normal -0.900969 -0.433884 0
    outer loop
      vertex -24 25 -13.5
      vertex -24.753 26.5637 -11.5
      vertex -24.753 26.5637 -13.5
    endloop
  endfacet
  facet normal -0.900969 0.433884 0
    outer loop
      vertex -24 25 -11.5
      vertex -24 25 -13.5
      vertex -24.753 23.4363 -11.5
    endloop
  endfacet
  facet normal -0.900969 0.433884 0
    outer loop
      vertex -24.753 23.4363 -11.5
      vertex -24 25 -13.5
      vertex -24.753 23.4363 -13.5
    endloop
  endfacet
  facet normal -0.222521 0.974928 0
    outer loop
      vertex -24.753 23.4363 -11.5
      vertex -24.753 23.4363 -13.5
      vertex -26.445 23.0501 -11.5
    endloop
  endfacet
  facet normal -0.222521 0.974928 0
    outer loop
      vertex -26.445 23.0501 -11.5
      vertex -24.753 23.4363 -13.5
      vertex -26.445 23.0501 -13.5
    endloop
  endfacet
  facet normal 0.62349 0.781831 0
    outer loop
      vertex -26.445 23.0501 -11.5
      vertex -26.445 23.0501 -13.5
      vertex -27.8019 24.1322 -11.5
    endloop
  endfacet
  facet normal 0.62349 0.781831 0
    outer loop
      vertex -27.8019 24.1322 -11.5
      vertex -26.445 23.0501 -13.5
      vertex -27.8019 24.1322 -13.5
    endloop
  endfacet
  facet normal 0.62349 -0.781831 0
    outer loop
      vertex 25.555 -23.0501 -13.5
      vertex 25.555 -23.0501 -11.5
      vertex 24.1981 -24.1322 -11.5
    endloop
  endfacet
  facet normal 0.62349 -0.781831 0
    outer loop
      vertex 24.1981 -24.1322 -13.5
      vertex 25.555 -23.0501 -13.5
      vertex 24.1981 -24.1322 -11.5
    endloop
  endfacet
  facet normal 1 0 0
    outer loop
      vertex 24.1981 -24.1322 -13.5
      vertex 24.1981 -24.1322 -11.5
      vertex 24.1981 -25.8678 -11.5
    endloop
  endfacet
  facet normal 1 0 0
    outer loop
      vertex 24.1981 -25.8678 -13.5
      vertex 24.1981 -24.1322 -13.5
      vertex 24.1981 -25.8678 -11.5
    endloop
  endfacet
  facet normal -0.222521 -0.974928 0
    outer loop
      vertex 27.247 -23.4363 -13.5
      vertex 27.247 -23.4363 -11.5
      vertex 25.555 -23.0501 -11.5
    endloop
  endfacet
  facet normal -0.222521 -0.974928 0
    outer loop
      vertex 25.555 -23.0501 -13.5
      vertex 27.247 -23.4363 -13.5
      vertex 25.555 -23.0501 -11.5
    endloop
  endfacet
  facet normal -0.900969 -0.433884 0
    outer loop
      vertex 28 -25 -11.5
      vertex 27.247 -23.4363 -11.5
      vertex 28 -25 -13.5
    endloop
  endfacet
  facet normal -0.900969 -0.433884 0
    outer loop
      vertex 28 -25 -13.5
      vertex 27.247 -23.4363 -11.5
      vertex 27.247 -23.4363 -13.5
    endloop
  endfacet
  facet normal -0.900969 0.433884 0
    outer loop
      vertex 28 -25 -11.5
      vertex 28 -25 -13.5
      vertex 27.247 -26.5637 -11.5
    endloop
  endfacet
  facet normal -0.900969 0.433884 0
    outer loop
      vertex 27.247 -26.5637 -11.5
      vertex 28 -25 -13.5
      vertex 27.247 -26.5637 -13.5
    endloop
  endfacet
  facet normal -0.222521 0.974928 0
    outer loop
      vertex 27.247 -26.5637 -11.5
      vertex 27.247 -26.5637 -13.5
      vertex 25.555 -26.9499 -11.5
    endloop
  endfacet
  facet normal -0.222521 0.974928 0
    outer loop
      vertex 25.555 -26.9499 -11.5
      vertex 27.247 -26.5637 -13.5
      vertex 25.555 -26.9499 -13.5
    endloop
  endfacet
  facet normal 0.62349 0.781831 0
    outer loop
      vertex 25.555 -26.9499 -11.5
      vertex 25.555 -26.9499 -13.5
      vertex 24.1981 -25.8678 -11.5
    endloop
  endfacet
  facet normal 0.62349 0.781831 0
    outer loop
      vertex 24.1981 -25.8678 -11.5
      vertex 25.555 -26.9499 -13.5
      vertex 24.1981 -25.8678 -13.5
    endloop
  endfacet
  facet normal 0.62349 -0.781831 0
    outer loop
      vertex 25.555 26.9499 -13.5
      vertex 25.555 26.9499 -11.5
      vertex 24.1981 25.8678 -11.5
    endloop
  endfacet
  facet normal 0.62349 -0.781831 0
    outer loop
      vertex 24.1981 25.8678 -13.5
      vertex 25.555 26.9499 -13.5
      vertex 24.1981 25.8678 -11.5
    endloop
  endfacet
  facet normal 1 0 0
    outer loop
      vertex 24.1981 25.8678 -13.5
      vertex 24.1981 25.8678 -11.5
      vertex 24.1981 24.1322 -11.5
    endloop
  endfacet
  facet normal 1 0 0
    outer loop
      vertex 24.1981 24.1322 -13.5
      vertex 24.1981 25.8678 -13.5
      vertex 24.1981 24.1322 -11.5
    endloop
  endfacet
  facet normal -0.222521 -0.974928 0
    outer loop
      vertex 27.247 26.5637 -13.5
      vertex 27.247 26.5637 -11.5
      vertex 25.555 26.9499 -11.5
    endloop
  endfacet
  facet normal -0.222521 -0.974928 0
    outer loop
      vertex 25.555 26.9499 -13.5
      vertex 27.247 26.5637 -13.5
      vertex 25.555 26.9499 -11.5
    endloop
  endfacet
  facet normal -0.900969 -0.433884 0
    outer loop
      vertex 28 25 -11.5
      vertex 27.247 26.5637 -11.5
      vertex 28 25 -13.5
    endloop
  endfacet
  facet normal -0.900969 -0.433884 0
    outer loop
      vertex 28 25 -13.5
      vertex 27.247 26.5637 -11.5
      vertex 27.247 26.5637 -13.5
    endloop
  endfacet
  facet normal -0.900969 0.433884 0
    outer loop
      vertex 28 25 -11.5
      vertex 28 25 -13.5
      vertex 27.247 23.4363 -11.5
    endloop
  endfacet
  facet normal -0.900969 0.433884 0
    outer loop
      vertex 27.247 23.4363 -11.5
      vertex 28 25 -13.5
      vertex 27.247 23.4363 -13.5
    endloop
  endfacet
  facet normal -0.222521 0.974928 0
    outer loop
      vertex 27.247 23.4363 -11.5
      vertex 27.247 23.4363 -13.5
      vertex 25.555 23.0501 -11.5
    endloop
  endfacet
  facet normal -0.222521 0.974928 0
    outer loop
      vertex 25.555 23.0501 -11.5
      vertex 27.247 23.4363 -13.5
      vertex 25.555 23.0501 -13.5
    endloop
  endfacet
  facet normal 0.62349 0.781831 0
    outer loop
      vertex 25.555 23.0501 -11.5
      vertex 25.555 23.0501 -13.5
      vertex 24.1981 24.1322 -11.5
    endloop
  endfacet
  facet normal 0.62349 0.781831 0
    outer loop
      vertex 24.1981 24.1322 -11.5
      vertex 25.555 23.0501 -13.5
      vertex 24.1981 24.1322 -13.5
    endloop
  endfacet
  facet normal -1 0 0
    outer loop
      vertex -22 -28 -11.5
      vertex -22 -28 13.5
      vertex -22 28 -11.5
    endloop
  endfacet
  facet normal -1 0 0
    outer loop
      vertex -22 28 -11.5
      vertex -22 -28 13.5
      vertex -22 28 13.5
    endloop
  endfacet
  facet normal 0 -1 0
    outer loop
      vertex -22 -28 13.5
      vertex -22 -28 -11.5
      vertex 22 -28 -11.5
    endloop
  endfacet
  facet normal 0 -1 0
    outer loop
      vertex 22 -28 13.5
      vertex -22 -28 13.5
      vertex 22 -28 -11.5
    endloop
  endfacet
  facet normal 1 0 0
    outer loop
      vertex 22 -28 13.5
      vertex 22 -28 -11.5
      vertex 22 28 -11.5
    endloop
  endfacet
  facet normal 1 0 0
    outer loop
      vertex 22 28 13.5
      vertex 22 -28 13.5
      vertex 22 28 -11.5
    endloop
  endfacet
  facet normal 0 1 0
    outer loop
      vertex 15 28 -7.5
      vertex 22 28 -11.5
      vertex -15 28 -7.5
    endloop
  endfacet
  facet normal 0 1 0
    outer loop
      vertex 15 28 -0.5
      vertex -22 28 13.5
      vertex 22 28 13.5
    endloop
  endfacet
  facet normal 0 1 0
    outer loop
      vertex -22 28 -11.5
      vertex -22 28 13.5
      vertex -15 28 -0.5
    endloop
  endfacet
  facet normal 0 1 0
    outer loop
      vertex -22 28 -11.5
      vertex -15 28 -0.5
      vertex -15 28 -7.5
    endloop
  endfacet
  facet normal 0 1 0
    outer loop
      vertex -22 28 -11.5
      vertex -15 28 -7.5
      vertex 22 28 -11.5
    endloop
  endfacet
  facet normal 0 1 0
    outer loop
      vertex 22 28 -11.5
      vertex 15 28 -7.5
      vertex 22 28 13.5
    endloop
  endfacet
  facet normal 0 1 0
    outer loop
      vertex 15 28 -7.5
      vertex 15 28 -0.5
      vertex 22 28 13.5
    endloop
  endfacet
  facet normal 0 1 0
    outer loop
      vertex -15 28 -0.5
      vertex -22 28 13.5
      vertex 15 28 -0.5
    endloop
  endfacet
  facet normal 0 0 1
    outer loop
      vertex -20 -26 13.5
      vertex -22 -28 13.5
      vertex 22 -28 13.5
    endloop
  endfacet
  facet normal 0 0 1
    outer loop
      vertex 20 -26 13.5
      vertex -20 -26 13.5
      vertex 22 -28 13.5
    endloop
  endfacet
  facet normal 0 0 1
    outer loop
      vertex -22 28 13.5
      vertex -22 -28 13.5
      vertex -20 -26 13.5
    endloop
  endfacet
  facet normal 0 0 1
    outer loop
      vertex 22 28 13.5
      vertex -22 28 13.5
      vertex -20 26 13.5
    endloop
  endfacet
  facet normal 0 0 1
    outer loop
      vertex 22 28 13.5
      vertex 20 26 13.5
      vertex 22 -28 13.5
    endloop
  endfacet
  facet normal 0 0 1
    outer loop
      vertex 22 28 13.5
      vertex -20 26 13.5
      vertex 20 26 13.5
    endloop
  endfacet
  facet normal 0 0 1
    outer loop
      vertex 20 26 13.5
      vertex 20 -26 13.5
      vertex 22 -28 13.5
    endloop
  endfacet
  facet normal 0 0 1
    outer loop
      vertex -20 -26 13.5
      vertex -20 26 13.5
      vertex -22 28 13.5
    endloop
  endfacet
  facet normal 1 0 0
    outer loop
      vertex -15 28 -7.5
      vertex -15 28 -0.5
      vertex -15 26 -0.5
    endloop
  endfacet
  facet normal 1 0 0
    outer loop
      vertex -15 26 -7.5
      vertex -15 28 -7.5
      vertex -15 26 -0.5
    endloop
  endfacet
  facet normal 0 0 -1
    outer loop
      vertex 15 28 -0.5
      vertex 15 26 -0.5
      vertex -15 28 -0.5
    endloop
  endfacet
  facet normal 0 0 -1
    outer loop
      vertex -15 28 -0.5
      vertex 15 26 -0.5
      vertex -15 26 -0.5
    endloop
  endfacet
  facet normal -1 0 0
    outer loop
      vertex 15 28 -0.5
      vertex 15 28 -7.5
      vertex 15 26 -0.5
    endloop
  endfacet
  facet normal -1 0 0
    outer loop
      vertex 15 26 -0.5
      vertex 15 28 -7.5
      vertex 15 26 -7.5
    endloop
  endfacet
  facet normal 0 0 1
    outer loop
      vertex 15 26 -7.5
      vertex 15 28 -7.5
      vertex -15 28 -7.5
    endloop
  endfacet
  facet normal 0 0 1
    outer loop
      vertex -15 26 -7.5
      vertex 15 26 -7.5
      vertex -15 28 -7.5
    endloop
  endfacet
  facet normal 1 0 0
    outer loop
      vertex -20 26 -10
      vertex -20 26 13.5
      vertex -20 -26 13.5
    endloop
  endfacet
  facet normal 1 0 0
    outer loop
      vertex -20 -26 -10
      vertex -20 26 -10
      vertex -20 -26 13.5
    endloop
  endfacet
  facet normal 0 1 0
    outer loop
      vertex 20 -26 13.5
      vertex 20 -26 -10
      vertex -20 -26 13.5
    endloop
  endfacet
  facet normal 0 1 0
    outer loop
      vertex -20 -26 13.5
      vertex 20 -26 -10
      vertex -20 -26 -10
    endloop
  endfacet
  facet normal -1 0 0
    outer loop
      vertex 20 26 13.5
      vertex 20 26 -10
      vertex 20 -26 13.5
    endloop
  endfacet
  facet normal -1 0 0
    outer loop
      vertex 20 -26 13.5
      vertex 20 26 -10
      vertex 20 -26 -10
    endloop
  endfacet
  facet normal 0 -1 0
    outer loop
      vertex 15 26 -0.5
      vertex 20 26 13.5
      vertex -20 26 13.5
    endloop
  endfacet
  facet normal 0 -1 0
    outer loop
      vertex 15 26 -7.5
      vertex -15 26 -7.5
      vertex 20 26 -10
    endloop
  endfacet
  facet normal 0 -1 0
    outer loop
      vertex -20 26 -10
      vertex -15 26 -0.5
      vertex -20 26 13.5
    endloop
  endfacet
  facet normal 0 -1 0
    outer loop
      vertex 20 26 -10
      vertex 20 26 13.5
      vertex 15 26 -0.5
    endloop
  endfacet
  facet normal 0 -1 0
    outer loop
      vertex -20 26 -10
      vertex -15 26 -7.5
      vertex -15 26 -0.5
    endloop
  endfacet
  facet normal 0 -1 0
    outer loop
      vertex -20 26 -10
      vertex 20 26 -10
      vertex -15 26 -7.5
    endloop
  endfacet
  facet normal 0 -1 0
    outer loop
      vertex 15 26 -0.5
      vertex 15 26 -7.5
      vertex 20 26 -10
    endloop
  endfacet
  facet normal 0 -1 0
    outer loop
      vertex -15 26 -0.5
      vertex 15 26 -0.5
      vertex -20 26 13.5
    endloop
  endfacet
  facet normal 0 0 1
    outer loop
      vertex 20 -26 -10
      vertex 20 26 -10
      vertex -20 26 -10
    endloop
  endfacet
  facet normal 0 0 1
    outer loop
      vertex -20 -26 -10
      vertex 20 -26 -10
      vertex -20 26 -10
    endloop
  endfacet
endsolid OpenSCAD_Model
