solid OpenSCAD_Model
  facet normal 1 -1.22461e-016 0
    outer loop
      vertex 25 5 62
      vertex 25 -5 62
      vertex 25 -5 37
    endloop
  endfacet
  facet normal 1 -1.22461e-016 0
    outer loop
      vertex 25 5 37
      vertex 25 5 62
      vertex 25 -5 37
    endloop
  endfacet
  facet normal -1.22461e-016 -1 -1.22461e-016
    outer loop
      vertex 3.39919 -5 47.9616
      vertex 25 -5 62
      vertex -25 -5 62
    endloop
  endfacet
  facet normal -1.22461e-016 -1 -1.22461e-016
    outer loop
      vertex 5.89409 -5 46.7876
      vertex 7.01166 -5 45.9756
      vertex 25 -5 37
    endloop
  endfacet
  facet normal -1.22461e-016 -1 -1.22461e-016
    outer loop
      vertex -25 -5 37
      vertex -10.9685 -5 37
      vertex -25 -5 62
    endloop
  endfacet
  facet normal -1.22461e-016 -1 -1.22461e-016
    outer loop
      vertex -10.9685 -5 37
      vertex -11 -5 37.5
      vertex -25 -5 62
    endloop
  endfacet
  facet normal -1.22461e-016 -1 -1.22461e-016
    outer loop
      vertex -11 -5 37.5
      vertex -10.9133 -5 38.8787
      vertex -25 -5 62
    endloop
  endfacet
  facet normal -1.22461e-016 -1 -1.22461e-016
    outer loop
      vertex -10.9133 -5 38.8787
      vertex -10.6544 -5 40.2356
      vertex -25 -5 62
    endloop
  endfacet
  facet normal -1.22461e-016 -1 -1.22461e-016
    outer loop
      vertex 11 -5 37.5
      vertex 10.9685 -5 37
      vertex 25 -5 37
    endloop
  endfacet
  facet normal -1.22461e-016 -1 -1.22461e-016
    outer loop
      vertex -10.6544 -5 40.2356
      vertex -10.2275 -5 41.5494
      vertex -25 -5 62
    endloop
  endfacet
  facet normal -1.22461e-016 -1 -1.22461e-016
    outer loop
      vertex -10.2275 -5 41.5494
      vertex -9.63937 -5 42.7993
      vertex -25 -5 62
    endloop
  endfacet
  facet normal -1.22461e-016 -1 -1.22461e-016
    outer loop
      vertex -9.63937 -5 42.7993
      vertex -8.89919 -5 43.9656
      vertex -25 -5 62
    endloop
  endfacet
  facet normal -1.22461e-016 -1 -1.22461e-016
    outer loop
      vertex -8.89919 -5 43.9656
      vertex -8.01865 -5 45.03
      vertex -25 -5 62
    endloop
  endfacet
  facet normal -1.22461e-016 -1 -1.22461e-016
    outer loop
      vertex -8.01865 -5 45.03
      vertex -7.01166 -5 45.9756
      vertex -25 -5 62
    endloop
  endfacet
  facet normal -1.22461e-016 -1 -1.22461e-016
    outer loop
      vertex -7.01166 -5 45.9756
      vertex -5.8941 -5 46.7876
      vertex -25 -5 62
    endloop
  endfacet
  facet normal -1.22461e-016 -1 -1.22461e-016
    outer loop
      vertex -5.8941 -5 46.7876
      vertex -4.68357 -5 47.4531
      vertex -25 -5 62
    endloop
  endfacet
  facet normal -1.22461e-016 -1 -1.22461e-016
    outer loop
      vertex -4.68357 -5 47.4531
      vertex -3.39919 -5 47.9616
      vertex -25 -5 62
    endloop
  endfacet
  facet normal -1.22461e-016 -1 -1.22461e-016
    outer loop
      vertex -3.39919 -5 47.9616
      vertex -2.06119 -5 48.3052
      vertex -25 -5 62
    endloop
  endfacet
  facet normal -1.22461e-016 -1 -1.22461e-016
    outer loop
      vertex -2.06119 -5 48.3052
      vertex -0.690696 -5 48.4783
      vertex -25 -5 62
    endloop
  endfacet
  facet normal -1.22461e-016 -1 -1.22461e-016
    outer loop
      vertex -0.690696 -5 48.4783
      vertex 0.690696 -5 48.4783
      vertex -25 -5 62
    endloop
  endfacet
  facet normal -1.22461e-016 -1 -1.22461e-016
    outer loop
      vertex 0.690696 -5 48.4783
      vertex 2.06119 -5 48.3052
      vertex -25 -5 62
    endloop
  endfacet
  facet normal -1.22461e-016 -1 -1.22461e-016
    outer loop
      vertex 4.68357 -5 47.4531
      vertex 25 -5 62
      vertex 3.39919 -5 47.9616
    endloop
  endfacet
  facet normal -1.22461e-016 -1 -1.22461e-016
    outer loop
      vertex 25 -5 37
      vertex 25 -5 62
      vertex 4.68357 -5 47.4531
    endloop
  endfacet
  facet normal -1.22461e-016 -1 -1.22461e-016
    outer loop
      vertex 7.01166 -5 45.9756
      vertex 8.01865 -5 45.03
      vertex 25 -5 37
    endloop
  endfacet
  facet normal -1.22461e-016 -1 -1.22461e-016
    outer loop
      vertex 25 -5 37
      vertex 4.68357 -5 47.4531
      vertex 5.89409 -5 46.7876
    endloop
  endfacet
  facet normal -1.22461e-016 -1 -1.22461e-016
    outer loop
      vertex 8.01865 -5 45.03
      vertex 8.89919 -5 43.9656
      vertex 25 -5 37
    endloop
  endfacet
  facet normal -1.22461e-016 -1 -1.22461e-016
    outer loop
      vertex 8.89919 -5 43.9656
      vertex 9.63937 -5 42.7993
      vertex 25 -5 37
    endloop
  endfacet
  facet normal -1.22461e-016 -1 -1.22461e-016
    outer loop
      vertex 9.63937 -5 42.7993
      vertex 10.2275 -5 41.5494
      vertex 25 -5 37
    endloop
  endfacet
  facet normal -1.22461e-016 -1 -1.22461e-016
    outer loop
      vertex 10.2275 -5 41.5494
      vertex 10.6544 -5 40.2356
      vertex 25 -5 37
    endloop
  endfacet
  facet normal -1.22461e-016 -1 -1.22461e-016
    outer loop
      vertex 10.6544 -5 40.2356
      vertex 10.9133 -5 38.8787
      vertex 25 -5 37
    endloop
  endfacet
  facet normal -1.22461e-016 -1 -1.22461e-016
    outer loop
      vertex 2.06119 -5 48.3052
      vertex 3.39919 -5 47.9616
      vertex -25 -5 62
    endloop
  endfacet
  facet normal -1.22461e-016 -1 -1.22461e-016
    outer loop
      vertex 10.9133 -5 38.8787
      vertex 11 -5 37.5
      vertex 25 -5 37
    endloop
  endfacet
  facet normal -1.49966e-032 -1.22461e-016 1
    outer loop
      vertex -25 -5 62
      vertex 25 -5 62
      vertex 25 5 62
    endloop
  endfacet
  facet normal -1.49966e-032 -1.22461e-016 1
    outer loop
      vertex -25 5 62
      vertex -25 -5 62
      vertex 25 5 62
    endloop
  endfacet
  facet normal 1.22461e-016 1 1.22461e-016
    outer loop
      vertex 11 5 37.5
      vertex 25 5 37
      vertex 10.9685 5 37
    endloop
  endfacet
  facet normal 1.22461e-016 1 1.22461e-016
    outer loop
      vertex 10.9133 5 38.8787
      vertex 25 5 37
      vertex 11 5 37.5
    endloop
  endfacet
  facet normal 1.22461e-016 1 1.22461e-016
    outer loop
      vertex 10.6544 5 40.2356
      vertex 25 5 37
      vertex 10.9133 5 38.8787
    endloop
  endfacet
  facet normal 1.22461e-016 1 1.22461e-016
    outer loop
      vertex 10.2275 5 41.5494
      vertex 25 5 37
      vertex 10.6544 5 40.2356
    endloop
  endfacet
  facet normal 1.22461e-016 1 1.22461e-016
    outer loop
      vertex 9.63937 5 42.7993
      vertex 25 5 37
      vertex 10.2275 5 41.5494
    endloop
  endfacet
  facet normal 1.22461e-016 1 1.22461e-016
    outer loop
      vertex 8.89919 5 43.9656
      vertex 25 5 37
      vertex 9.63937 5 42.7993
    endloop
  endfacet
  facet normal 1.22461e-016 1 1.22461e-016
    outer loop
      vertex 8.01865 5 45.03
      vertex 25 5 37
      vertex 8.89919 5 43.9656
    endloop
  endfacet
  facet normal 1.22461e-016 1 1.22461e-016
    outer loop
      vertex 7.01166 5 45.9756
      vertex 25 5 37
      vertex 8.01865 5 45.03
    endloop
  endfacet
  facet normal 1.22461e-016 1 1.22461e-016
    outer loop
      vertex 25 5 62
      vertex 25 5 37
      vertex 5.8941 5 46.7876
    endloop
  endfacet
  facet normal 1.22461e-016 1 1.22461e-016
    outer loop
      vertex 25 5 62
      vertex 5.8941 5 46.7876
      vertex 4.68357 5 47.4531
    endloop
  endfacet
  facet normal 1.22461e-016 1 1.22461e-016
    outer loop
      vertex 25 5 62
      vertex 4.68357 5 47.4531
      vertex -25 5 62
    endloop
  endfacet
  facet normal 1.22461e-016 1 1.22461e-016
    outer loop
      vertex 3.39919 5 47.9616
      vertex -25 5 62
      vertex 4.68357 5 47.4531
    endloop
  endfacet
  facet normal 1.22461e-016 1 1.22461e-016
    outer loop
      vertex 2.06119 5 48.3052
      vertex -25 5 62
      vertex 3.39919 5 47.9616
    endloop
  endfacet
  facet normal 1.22461e-016 1 1.22461e-016
    outer loop
      vertex 0.690696 5 48.4783
      vertex -25 5 62
      vertex 2.06119 5 48.3052
    endloop
  endfacet
  facet normal 1.22461e-016 1 1.22461e-016
    outer loop
      vertex -0.690696 5 48.4783
      vertex -25 5 62
      vertex 0.690696 5 48.4783
    endloop
  endfacet
  facet normal 1.22461e-016 1 1.22461e-016
    outer loop
      vertex -2.06119 5 48.3052
      vertex -25 5 62
      vertex -0.690696 5 48.4783
    endloop
  endfacet
  facet normal 1.22461e-016 1 1.22461e-016
    outer loop
      vertex -3.39919 5 47.9616
      vertex -25 5 62
      vertex -2.06119 5 48.3052
    endloop
  endfacet
  facet normal 1.22461e-016 1 1.22461e-016
    outer loop
      vertex -4.68357 5 47.4531
      vertex -25 5 62
      vertex -3.39919 5 47.9616
    endloop
  endfacet
  facet normal 1.22461e-016 1 1.22461e-016
    outer loop
      vertex -25 5 62
      vertex -4.68357 5 47.4531
      vertex -5.89409 5 46.7876
    endloop
  endfacet
  facet normal 1.22461e-016 1 1.22461e-016
    outer loop
      vertex -5.89409 5 46.7876
      vertex -7.01166 5 45.9756
      vertex -25 5 62
    endloop
  endfacet
  facet normal 1.22461e-016 1 1.22461e-016
    outer loop
      vertex -7.01166 5 45.9756
      vertex -8.01865 5 45.03
      vertex -25 5 62
    endloop
  endfacet
  facet normal 1.22461e-016 1 1.22461e-016
    outer loop
      vertex -8.01865 5 45.03
      vertex -8.89919 5 43.9656
      vertex -25 5 62
    endloop
  endfacet
  facet normal 1.22461e-016 1 1.22461e-016
    outer loop
      vertex -8.89919 5 43.9656
      vertex -9.63937 5 42.7993
      vertex -25 5 62
    endloop
  endfacet
  facet normal 1.22461e-016 1 1.22461e-016
    outer loop
      vertex -9.63937 5 42.7993
      vertex -10.2275 5 41.5494
      vertex -25 5 62
    endloop
  endfacet
  facet normal 1.22461e-016 1 1.22461e-016
    outer loop
      vertex -10.2275 5 41.5494
      vertex -10.6544 5 40.2356
      vertex -25 5 62
    endloop
  endfacet
  facet normal 1.22461e-016 1 1.22461e-016
    outer loop
      vertex -10.6544 5 40.2356
      vertex -10.9133 5 38.8787
      vertex -25 5 62
    endloop
  endfacet
  facet normal 1.22461e-016 1 1.22461e-016
    outer loop
      vertex -10.9133 5 38.8787
      vertex -11 5 37.5
      vertex -25 5 62
    endloop
  endfacet
  facet normal 1.22461e-016 1 1.22461e-016
    outer loop
      vertex -11 5 37.5
      vertex -10.9685 5 37
      vertex -25 5 62
    endloop
  endfacet
  facet normal 1.22461e-016 1 1.22461e-016
    outer loop
      vertex -25 5 62
      vertex -10.9685 5 37
      vertex -25 5 37
    endloop
  endfacet
  facet normal 1.22461e-016 1 1.22461e-016
    outer loop
      vertex 5.8941 5 46.7876
      vertex 25 5 37
      vertex 7.01166 5 45.9756
    endloop
  endfacet
  facet normal 1.49966e-032 1.22461e-016 -1
    outer loop
      vertex 12.9685 -2 37
      vertex 10.9685 -5 37
      vertex 10.9685 -2 37
    endloop
  endfacet
  facet normal 1.49966e-032 1.22461e-016 -1
    outer loop
      vertex 15.5 -2.5 37
      vertex 12.9685 2 37
      vertex 15.5 2.5 37
    endloop
  endfacet
  facet normal 1.49966e-032 1.22461e-016 -1
    outer loop
      vertex 20.5 2.5 37
      vertex 25 5 37
      vertex 20.5 -2.5 37
    endloop
  endfacet
  facet normal 1.49966e-032 1.22461e-016 -1
    outer loop
      vertex 25 5 37
      vertex 12.9685 2 37
      vertex 10.9685 2 37
    endloop
  endfacet
  facet normal 1.49966e-032 1.22461e-016 -1
    outer loop
      vertex 25 5 37
      vertex 10.9685 2 37
      vertex 10.9685 5 37
    endloop
  endfacet
  facet normal 1.49966e-032 1.22461e-016 -1
    outer loop
      vertex 25 -5 37
      vertex 10.9685 -5 37
      vertex 20.5 -2.5 37
    endloop
  endfacet
  facet normal 1.49966e-032 1.22461e-016 -1
    outer loop
      vertex 25 -5 37
      vertex 20.5 -2.5 37
      vertex 25 5 37
    endloop
  endfacet
  facet normal 1.49966e-032 1.22461e-016 -1
    outer loop
      vertex 15.5 -2.5 37
      vertex 12.9685 -2 37
      vertex 12.9685 2 37
    endloop
  endfacet
  facet normal 1.49966e-032 1.22461e-016 -1
    outer loop
      vertex 15.5 -2.5 37
      vertex 10.9685 -5 37
      vertex 12.9685 -2 37
    endloop
  endfacet
  facet normal 1.49966e-032 1.22461e-016 -1
    outer loop
      vertex 25 5 37
      vertex 15.5 2.5 37
      vertex 12.9685 2 37
    endloop
  endfacet
  facet normal 1.49966e-032 1.22461e-016 -1
    outer loop
      vertex 20.5 -2.5 37
      vertex 10.9685 -5 37
      vertex 15.5 -2.5 37
    endloop
  endfacet
  facet normal 1.49966e-032 1.22461e-016 -1
    outer loop
      vertex 15.5 2.5 37
      vertex 25 5 37
      vertex 20.5 2.5 37
    endloop
  endfacet
  facet normal -0.998027 1.00587e-016 0.0627903
    outer loop
      vertex 10.9685 -2 37
      vertex 10.9685 -5 37
      vertex 11 -2 37.5
    endloop
  endfacet
  facet normal -0.998027 1.00587e-016 0.0627903
    outer loop
      vertex 11 -2 37.5
      vertex 10.9685 -5 37
      vertex 11 -5 37.5
    endloop
  endfacet
  facet normal -0.998027 1.43851e-016 -0.0627903
    outer loop
      vertex 10.9133 -2 38.8787
      vertex 11 -2 37.5
      vertex 10.9133 -5 38.8787
    endloop
  endfacet
  facet normal -0.998027 1.43851e-016 -0.0627903
    outer loop
      vertex 10.9133 -5 38.8787
      vertex 11 -2 37.5
      vertex 11 -5 37.5
    endloop
  endfacet
  facet normal -0.982287 1.84845e-016 -0.187381
    outer loop
      vertex 10.6544 -2 40.2356
      vertex 10.9133 -2 38.8787
      vertex 10.6544 -5 40.2356
    endloop
  endfacet
  facet normal -0.982287 1.84845e-016 -0.187381
    outer loop
      vertex 10.6544 -5 40.2356
      vertex 10.9133 -2 38.8787
      vertex 10.9133 -5 38.8787
    endloop
  endfacet
  facet normal -0.951056 2.22925e-016 -0.309017
    outer loop
      vertex 10.2275 -2 41.5494
      vertex 10.6544 -2 40.2356
      vertex 10.2275 -5 41.5494
    endloop
  endfacet
  facet normal -0.951056 2.22925e-016 -0.309017
    outer loop
      vertex 10.2275 -5 41.5494
      vertex 10.6544 -2 40.2356
      vertex 10.6544 -5 40.2356
    endloop
  endfacet
  facet normal -0.904827 2.57489e-016 -0.425779
    outer loop
      vertex 9.63937 -2 42.7993
      vertex 10.2275 -2 41.5494
      vertex 9.63937 -5 42.7993
    endloop
  endfacet
  facet normal -0.904827 2.57489e-016 -0.425779
    outer loop
      vertex 9.63937 -5 42.7993
      vertex 10.2275 -2 41.5494
      vertex 10.2275 -5 41.5494
    endloop
  endfacet
  facet normal -0.844328 2.87992e-016 -0.535826
    outer loop
      vertex 8.89919 -2 43.9656
      vertex 9.63937 -2 42.7993
      vertex 8.89919 -5 43.9656
    endloop
  endfacet
  facet normal -0.844328 2.87992e-016 -0.535826
    outer loop
      vertex 8.89919 -5 43.9656
      vertex 9.63937 -2 42.7993
      vertex 9.63937 -5 42.7993
    endloop
  endfacet
  facet normal -0.770513 3.13953e-016 -0.637424
    outer loop
      vertex 8.01865 -2 45.03
      vertex 8.89919 -2 43.9656
      vertex 8.01865 -5 45.03
    endloop
  endfacet
  facet normal -0.770513 3.13953e-016 -0.637424
    outer loop
      vertex 8.01865 -5 45.03
      vertex 8.89919 -2 43.9656
      vertex 8.89919 -5 43.9656
    endloop
  endfacet
  facet normal -0.684547 3.34964e-016 -0.728968
    outer loop
      vertex 7.01166 -2 45.9756
      vertex 8.01865 -2 45.03
      vertex 7.01166 -5 45.9756
    endloop
  endfacet
  facet normal -0.684547 3.34964e-016 -0.728968
    outer loop
      vertex 7.01166 -5 45.9756
      vertex 8.01865 -2 45.03
      vertex 8.01865 -5 45.03
    endloop
  endfacet
  facet normal -0.587785 3.50691e-016 -0.809017
    outer loop
      vertex 5.89409 -2 46.7876
      vertex 7.01166 -2 45.9756
      vertex 5.89409 -5 46.7876
    endloop
  endfacet
  facet normal -0.587785 3.50691e-016 -0.809017
    outer loop
      vertex 5.89409 -5 46.7876
      vertex 7.01166 -2 45.9756
      vertex 7.01166 -5 45.9756
    endloop
  endfacet
  facet normal -0.481754 3.60888e-016 -0.876307
    outer loop
      vertex 4.68357 -2 47.4531
      vertex 5.89409 -2 46.7876
      vertex 4.68357 -5 47.4531
    endloop
  endfacet
  facet normal -0.481754 3.60888e-016 -0.876307
    outer loop
      vertex 4.68357 -5 47.4531
      vertex 5.89409 -2 46.7876
      vertex 5.89409 -5 46.7876
    endloop
  endfacet
  facet normal -0.368125 3.65394e-016 -0.929776
    outer loop
      vertex 3.39919 -2 47.9616
      vertex 4.68357 -2 47.4531
      vertex 3.39919 -5 47.9616
    endloop
  endfacet
  facet normal -0.368125 3.65394e-016 -0.929776
    outer loop
      vertex 3.39919 -5 47.9616
      vertex 4.68357 -2 47.4531
      vertex 4.68357 -5 47.4531
    endloop
  endfacet
  facet normal -0.24869 3.64137e-016 -0.968583
    outer loop
      vertex 2.06119 -2 48.3052
      vertex 3.39919 -2 47.9616
      vertex 2.06119 -5 48.3052
    endloop
  endfacet
  facet normal -0.24869 3.64137e-016 -0.968583
    outer loop
      vertex 2.06119 -5 48.3052
      vertex 3.39919 -2 47.9616
      vertex 3.39919 -5 47.9616
    endloop
  endfacet
  facet normal -0.125333 3.57137e-016 -0.992115
    outer loop
      vertex 0.690696 -2 48.4783
      vertex 2.06119 -2 48.3052
      vertex 0.690696 -5 48.4783
    endloop
  endfacet
  facet normal -0.125333 3.57137e-016 -0.992115
    outer loop
      vertex 0.690696 -5 48.4783
      vertex 2.06119 -2 48.3052
      vertex 2.06119 -5 48.3052
    endloop
  endfacet
  facet normal 4.21883e-032 3.44505e-016 -1
    outer loop
      vertex -0.690696 -2 48.4783
      vertex 0.690696 -2 48.4783
      vertex -0.690696 -5 48.4783
    endloop
  endfacet
  facet normal 4.21883e-032 3.44505e-016 -1
    outer loop
      vertex -0.690696 -5 48.4783
      vertex 0.690696 -2 48.4783
      vertex 0.690696 -5 48.4783
    endloop
  endfacet
  facet normal 0.125333 3.2644e-016 -0.992115
    outer loop
      vertex -2.06119 -2 48.3052
      vertex -0.690696 -2 48.4783
      vertex -2.06119 -5 48.3052
    endloop
  endfacet
  facet normal 0.125333 3.2644e-016 -0.992115
    outer loop
      vertex -2.06119 -5 48.3052
      vertex -0.690696 -2 48.4783
      vertex -0.690696 -5 48.4783
    endloop
  endfacet
  facet normal 0.24869 3.03227e-016 -0.968583
    outer loop
      vertex -3.39919 -2 47.9616
      vertex -2.06119 -2 48.3052
      vertex -3.39919 -5 47.9616
    endloop
  endfacet
  facet normal 0.24869 3.03227e-016 -0.968583
    outer loop
      vertex -3.39919 -5 47.9616
      vertex -2.06119 -2 48.3052
      vertex -2.06119 -5 48.3052
    endloop
  endfacet
  facet normal 0.368125 2.75232e-016 -0.929776
    outer loop
      vertex -4.68357 -2 47.4531
      vertex -3.39919 -2 47.9616
      vertex -4.68357 -5 47.4531
    endloop
  endfacet
  facet normal 0.368125 2.75232e-016 -0.929776
    outer loop
      vertex -4.68357 -5 47.4531
      vertex -3.39919 -2 47.9616
      vertex -3.39919 -5 47.9616
    endloop
  endfacet
  facet normal 0.481754 2.42896e-016 -0.876307
    outer loop
      vertex -5.8941 -2 46.7876
      vertex -4.68357 -2 47.4531
      vertex -5.8941 -5 46.7876
    endloop
  endfacet
  facet normal 0.481754 2.42896e-016 -0.876307
    outer loop
      vertex -5.8941 -5 46.7876
      vertex -4.68357 -2 47.4531
      vertex -4.68357 -5 47.4531
    endloop
  endfacet
  facet normal 0.587785 2.0673e-016 -0.809017
    outer loop
      vertex -7.01166 -2 45.9756
      vertex -5.8941 -2 46.7876
      vertex -7.01166 -5 45.9756
    endloop
  endfacet
  facet normal 0.587785 2.0673e-016 -0.809017
    outer loop
      vertex -7.01166 -5 45.9756
      vertex -5.8941 -2 46.7876
      vertex -5.8941 -5 46.7876
    endloop
  endfacet
  facet normal 0.684547 1.67303e-016 -0.728968
    outer loop
      vertex -8.01865 -2 45.03
      vertex -7.01166 -2 45.9756
      vertex -8.01865 -5 45.03
    endloop
  endfacet
  facet normal 0.684547 1.67303e-016 -0.728968
    outer loop
      vertex -8.01865 -5 45.03
      vertex -7.01166 -2 45.9756
      vertex -7.01166 -5 45.9756
    endloop
  endfacet
  facet normal 0.770513 1.25238e-016 -0.637424
    outer loop
      vertex -8.89919 -5 43.9656
      vertex -8.89919 -2 43.9656
      vertex -8.01865 -2 45.03
    endloop
  endfacet
  facet normal 0.770513 1.25238e-016 -0.637424
    outer loop
      vertex -8.01865 -5 45.03
      vertex -8.89919 -5 43.9656
      vertex -8.01865 -2 45.03
    endloop
  endfacet
  facet normal 0.844328 8.1198e-017 -0.535826
    outer loop
      vertex -9.63937 -5 42.7993
      vertex -9.63937 -2 42.7993
      vertex -8.89919 -2 43.9656
    endloop
  endfacet
  facet normal 0.844328 8.1198e-017 -0.535826
    outer loop
      vertex -8.89919 -5 43.9656
      vertex -9.63937 -5 42.7993
      vertex -8.89919 -2 43.9656
    endloop
  endfacet
  facet normal 0.904827 3.58776e-017 -0.425779
    outer loop
      vertex -10.2275 -5 41.5494
      vertex -10.2275 -2 41.5494
      vertex -9.63937 -2 42.7993
    endloop
  endfacet
  facet normal 0.904827 3.58776e-017 -0.425779
    outer loop
      vertex -9.63937 -5 42.7993
      vertex -10.2275 -5 41.5494
      vertex -9.63937 -2 42.7993
    endloop
  endfacet
  facet normal 0.951056 -1.00088e-017 -0.309017
    outer loop
      vertex -10.6544 -5 40.2356
      vertex -10.6544 -2 40.2356
      vertex -10.2275 -2 41.5494
    endloop
  endfacet
  facet normal 0.951056 -1.00088e-017 -0.309017
    outer loop
      vertex -10.2275 -5 41.5494
      vertex -10.6544 -5 40.2356
      vertex -10.2275 -2 41.5494
    endloop
  endfacet
  facet normal 0.982287 -5.57377e-017 -0.187381
    outer loop
      vertex -10.9133 -5 38.8787
      vertex -10.9133 -2 38.8787
      vertex -10.6544 -2 40.2356
    endloop
  endfacet
  facet normal 0.982287 -5.57377e-017 -0.187381
    outer loop
      vertex -10.6544 -5 40.2356
      vertex -10.9133 -5 38.8787
      vertex -10.6544 -2 40.2356
    endloop
  endfacet
  facet normal 0.998027 -1.00587e-016 -0.0627903
    outer loop
      vertex -11 -5 37.5
      vertex -11 -2 37.5
      vertex -10.9133 -2 38.8787
    endloop
  endfacet
  facet normal 0.998027 -1.00587e-016 -0.0627903
    outer loop
      vertex -10.9133 -5 38.8787
      vertex -11 -5 37.5
      vertex -10.9133 -2 38.8787
    endloop
  endfacet
  facet normal 0.998027 -1.43851e-016 0.0627903
    outer loop
      vertex -11 -2 37.5
      vertex -11 -5 37.5
      vertex -10.9685 -5 37
    endloop
  endfacet
  facet normal 0.998027 -1.43851e-016 0.0627903
    outer loop
      vertex -10.9685 -2 37
      vertex -11 -2 37.5
      vertex -10.9685 -5 37
    endloop
  endfacet
  facet normal 1.49966e-032 1.22461e-016 -1
    outer loop
      vertex -10.9685 5 37
      vertex -10.9685 2 37
      vertex -25 5 37
    endloop
  endfacet
  facet normal 1.49966e-032 1.22461e-016 -1
    outer loop
      vertex -15.25 2.75 37
      vertex -10.9685 2 37
      vertex -12.9685 2 37
    endloop
  endfacet
  facet normal 1.49966e-032 1.22461e-016 -1
    outer loop
      vertex -12.9685 -2 37
      vertex -10.9685 -2 37
      vertex -10.9685 -5 37
    endloop
  endfacet
  facet normal 1.49966e-032 1.22461e-016 -1
    outer loop
      vertex -15.25 -2.75 37
      vertex -10.9685 -5 37
      vertex -25 -5 37
    endloop
  endfacet
  facet normal 1.49966e-032 1.22461e-016 -1
    outer loop
      vertex -20.75 -2.75 37
      vertex -15.25 -2.75 37
      vertex -25 -5 37
    endloop
  endfacet
  facet normal 1.49966e-032 1.22461e-016 -1
    outer loop
      vertex -25 5 37
      vertex -10.9685 2 37
      vertex -15.25 2.75 37
    endloop
  endfacet
  facet normal 1.49966e-032 1.22461e-016 -1
    outer loop
      vertex -20.75 -2.75 37
      vertex -25 5 37
      vertex -20.75 2.75 37
    endloop
  endfacet
  facet normal 1.49966e-032 1.22461e-016 -1
    outer loop
      vertex -25 5 37
      vertex -20.75 -2.75 37
      vertex -25 -5 37
    endloop
  endfacet
  facet normal 1.49966e-032 1.22461e-016 -1
    outer loop
      vertex -15.25 2.75 37
      vertex -12.9685 2 37
      vertex -12.9685 -2 37
    endloop
  endfacet
  facet normal 1.49966e-032 1.22461e-016 -1
    outer loop
      vertex -12.9685 -2 37
      vertex -10.9685 -5 37
      vertex -15.25 -2.75 37
    endloop
  endfacet
  facet normal 1.49966e-032 1.22461e-016 -1
    outer loop
      vertex -15.25 2.75 37
      vertex -12.9685 -2 37
      vertex -15.25 -2.75 37
    endloop
  endfacet
  facet normal 1.49966e-032 1.22461e-016 -1
    outer loop
      vertex -20.75 2.75 37
      vertex -25 5 37
      vertex -15.25 2.75 37
    endloop
  endfacet
  facet normal -1 1.22461e-016 0
    outer loop
      vertex -25 -5 62
      vertex -25 5 62
      vertex -25 -5 37
    endloop
  endfacet
  facet normal -1 1.22461e-016 0
    outer loop
      vertex -25 -5 37
      vertex -25 5 62
      vertex -25 5 37
    endloop
  endfacet
  facet normal 0.998027 -1.43851e-016 0.0627903
    outer loop
      vertex -11 5 37.5
      vertex -11 2 37.5
      vertex -10.9685 2 37
    endloop
  endfacet
  facet normal 0.998027 -1.43851e-016 0.0627903
    outer loop
      vertex -10.9685 5 37
      vertex -11 5 37.5
      vertex -10.9685 2 37
    endloop
  endfacet
  facet normal 0.998027 -1.00587e-016 -0.0627903
    outer loop
      vertex -11 2 37.5
      vertex -11 5 37.5
      vertex -10.9133 5 38.8787
    endloop
  endfacet
  facet normal 0.998027 -1.00587e-016 -0.0627903
    outer loop
      vertex -10.9133 2 38.8787
      vertex -11 2 37.5
      vertex -10.9133 5 38.8787
    endloop
  endfacet
  facet normal 0.982287 -5.57377e-017 -0.187381
    outer loop
      vertex -10.9133 2 38.8787
      vertex -10.9133 5 38.8787
      vertex -10.6544 5 40.2356
    endloop
  endfacet
  facet normal 0.982287 -5.57377e-017 -0.187381
    outer loop
      vertex -10.6544 2 40.2356
      vertex -10.9133 2 38.8787
      vertex -10.6544 5 40.2356
    endloop
  endfacet
  facet normal 0.951056 -1.00088e-017 -0.309017
    outer loop
      vertex -10.6544 2 40.2356
      vertex -10.6544 5 40.2356
      vertex -10.2275 5 41.5494
    endloop
  endfacet
  facet normal 0.951056 -1.00088e-017 -0.309017
    outer loop
      vertex -10.2275 2 41.5494
      vertex -10.6544 2 40.2356
      vertex -10.2275 5 41.5494
    endloop
  endfacet
  facet normal 0.904827 3.58776e-017 -0.425779
    outer loop
      vertex -10.2275 2 41.5494
      vertex -10.2275 5 41.5494
      vertex -9.63937 5 42.7993
    endloop
  endfacet
  facet normal 0.904827 3.58776e-017 -0.425779
    outer loop
      vertex -9.63937 2 42.7993
      vertex -10.2275 2 41.5494
      vertex -9.63937 5 42.7993
    endloop
  endfacet
  facet normal 0.844328 8.1198e-017 -0.535826
    outer loop
      vertex -9.63937 2 42.7993
      vertex -9.63937 5 42.7993
      vertex -8.89919 5 43.9656
    endloop
  endfacet
  facet normal 0.844328 8.1198e-017 -0.535826
    outer loop
      vertex -8.89919 2 43.9656
      vertex -9.63937 2 42.7993
      vertex -8.89919 5 43.9656
    endloop
  endfacet
  facet normal 0.770513 1.25238e-016 -0.637424
    outer loop
      vertex -8.89919 2 43.9656
      vertex -8.89919 5 43.9656
      vertex -8.01865 5 45.03
    endloop
  endfacet
  facet normal 0.770513 1.25238e-016 -0.637424
    outer loop
      vertex -8.01865 2 45.03
      vertex -8.89919 2 43.9656
      vertex -8.01865 5 45.03
    endloop
  endfacet
  facet normal 0.684547 1.67303e-016 -0.728968
    outer loop
      vertex -8.01865 5 45.03
      vertex -7.01166 5 45.9756
      vertex -8.01865 2 45.03
    endloop
  endfacet
  facet normal 0.684547 1.67303e-016 -0.728968
    outer loop
      vertex -8.01865 2 45.03
      vertex -7.01166 5 45.9756
      vertex -7.01166 2 45.9756
    endloop
  endfacet
  facet normal 0.587785 2.0673e-016 -0.809017
    outer loop
      vertex -7.01166 5 45.9756
      vertex -5.89409 5 46.7876
      vertex -7.01166 2 45.9756
    endloop
  endfacet
  facet normal 0.587785 2.0673e-016 -0.809017
    outer loop
      vertex -7.01166 2 45.9756
      vertex -5.89409 5 46.7876
      vertex -5.89409 2 46.7876
    endloop
  endfacet
  facet normal 0.481754 2.42896e-016 -0.876307
    outer loop
      vertex -5.89409 5 46.7876
      vertex -4.68357 5 47.4531
      vertex -5.89409 2 46.7876
    endloop
  endfacet
  facet normal 0.481754 2.42896e-016 -0.876307
    outer loop
      vertex -5.89409 2 46.7876
      vertex -4.68357 5 47.4531
      vertex -4.68357 2 47.4531
    endloop
  endfacet
  facet normal 0.368125 2.75232e-016 -0.929776
    outer loop
      vertex -4.68357 5 47.4531
      vertex -3.39919 5 47.9616
      vertex -4.68357 2 47.4531
    endloop
  endfacet
  facet normal 0.368125 2.75232e-016 -0.929776
    outer loop
      vertex -4.68357 2 47.4531
      vertex -3.39919 5 47.9616
      vertex -3.39919 2 47.9616
    endloop
  endfacet
  facet normal 0.24869 3.03227e-016 -0.968583
    outer loop
      vertex -3.39919 5 47.9616
      vertex -2.06119 5 48.3052
      vertex -3.39919 2 47.9616
    endloop
  endfacet
  facet normal 0.24869 3.03227e-016 -0.968583
    outer loop
      vertex -3.39919 2 47.9616
      vertex -2.06119 5 48.3052
      vertex -2.06119 2 48.3052
    endloop
  endfacet
  facet normal 0.125333 3.2644e-016 -0.992115
    outer loop
      vertex -2.06119 5 48.3052
      vertex -0.690696 5 48.4783
      vertex -2.06119 2 48.3052
    endloop
  endfacet
  facet normal 0.125333 3.2644e-016 -0.992115
    outer loop
      vertex -2.06119 2 48.3052
      vertex -0.690696 5 48.4783
      vertex -0.690696 2 48.4783
    endloop
  endfacet
  facet normal 4.21883e-032 3.44505e-016 -1
    outer loop
      vertex -0.690696 5 48.4783
      vertex 0.690696 5 48.4783
      vertex -0.690696 2 48.4783
    endloop
  endfacet
  facet normal 4.21883e-032 3.44505e-016 -1
    outer loop
      vertex -0.690696 2 48.4783
      vertex 0.690696 5 48.4783
      vertex 0.690696 2 48.4783
    endloop
  endfacet
  facet normal -0.125333 3.57137e-016 -0.992115
    outer loop
      vertex 0.690696 5 48.4783
      vertex 2.06119 5 48.3052
      vertex 0.690696 2 48.4783
    endloop
  endfacet
  facet normal -0.125333 3.57137e-016 -0.992115
    outer loop
      vertex 0.690696 2 48.4783
      vertex 2.06119 5 48.3052
      vertex 2.06119 2 48.3052
    endloop
  endfacet
  facet normal -0.24869 3.64137e-016 -0.968583
    outer loop
      vertex 2.06119 5 48.3052
      vertex 3.39919 5 47.9616
      vertex 2.06119 2 48.3052
    endloop
  endfacet
  facet normal -0.24869 3.64137e-016 -0.968583
    outer loop
      vertex 2.06119 2 48.3052
      vertex 3.39919 5 47.9616
      vertex 3.39919 2 47.9616
    endloop
  endfacet
  facet normal -0.368125 3.65394e-016 -0.929776
    outer loop
      vertex 3.39919 5 47.9616
      vertex 4.68357 5 47.4531
      vertex 3.39919 2 47.9616
    endloop
  endfacet
  facet normal -0.368125 3.65394e-016 -0.929776
    outer loop
      vertex 3.39919 2 47.9616
      vertex 4.68357 5 47.4531
      vertex 4.68357 2 47.4531
    endloop
  endfacet
  facet normal -0.481754 3.60888e-016 -0.876307
    outer loop
      vertex 4.68357 5 47.4531
      vertex 5.8941 5 46.7876
      vertex 4.68357 2 47.4531
    endloop
  endfacet
  facet normal -0.481754 3.60888e-016 -0.876307
    outer loop
      vertex 4.68357 2 47.4531
      vertex 5.8941 5 46.7876
      vertex 5.8941 2 46.7876
    endloop
  endfacet
  facet normal -0.587785 3.50691e-016 -0.809017
    outer loop
      vertex 5.8941 5 46.7876
      vertex 7.01166 5 45.9756
      vertex 5.8941 2 46.7876
    endloop
  endfacet
  facet normal -0.587785 3.50691e-016 -0.809017
    outer loop
      vertex 5.8941 2 46.7876
      vertex 7.01166 5 45.9756
      vertex 7.01166 2 45.9756
    endloop
  endfacet
  facet normal -0.684547 3.34964e-016 -0.728968
    outer loop
      vertex 7.01166 5 45.9756
      vertex 8.01865 5 45.03
      vertex 7.01166 2 45.9756
    endloop
  endfacet
  facet normal -0.684547 3.34964e-016 -0.728968
    outer loop
      vertex 7.01166 2 45.9756
      vertex 8.01865 5 45.03
      vertex 8.01865 2 45.03
    endloop
  endfacet
  facet normal -0.770513 3.13953e-016 -0.637424
    outer loop
      vertex 8.01865 5 45.03
      vertex 8.89919 5 43.9656
      vertex 8.01865 2 45.03
    endloop
  endfacet
  facet normal -0.770513 3.13953e-016 -0.637424
    outer loop
      vertex 8.01865 2 45.03
      vertex 8.89919 5 43.9656
      vertex 8.89919 2 43.9656
    endloop
  endfacet
  facet normal -0.844328 2.87992e-016 -0.535826
    outer loop
      vertex 8.89919 5 43.9656
      vertex 9.63937 5 42.7993
      vertex 8.89919 2 43.9656
    endloop
  endfacet
  facet normal -0.844328 2.87992e-016 -0.535826
    outer loop
      vertex 8.89919 2 43.9656
      vertex 9.63937 5 42.7993
      vertex 9.63937 2 42.7993
    endloop
  endfacet
  facet normal -0.904827 2.57489e-016 -0.425779
    outer loop
      vertex 9.63937 5 42.7993
      vertex 10.2275 5 41.5494
      vertex 9.63937 2 42.7993
    endloop
  endfacet
  facet normal -0.904827 2.57489e-016 -0.425779
    outer loop
      vertex 9.63937 2 42.7993
      vertex 10.2275 5 41.5494
      vertex 10.2275 2 41.5494
    endloop
  endfacet
  facet normal -0.951056 2.22925e-016 -0.309017
    outer loop
      vertex 10.2275 5 41.5494
      vertex 10.6544 5 40.2356
      vertex 10.2275 2 41.5494
    endloop
  endfacet
  facet normal -0.951056 2.22925e-016 -0.309017
    outer loop
      vertex 10.2275 2 41.5494
      vertex 10.6544 5 40.2356
      vertex 10.6544 2 40.2356
    endloop
  endfacet
  facet normal -0.982287 1.84845e-016 -0.187381
    outer loop
      vertex 10.6544 5 40.2356
      vertex 10.9133 5 38.8787
      vertex 10.6544 2 40.2356
    endloop
  endfacet
  facet normal -0.982287 1.84845e-016 -0.187381
    outer loop
      vertex 10.6544 2 40.2356
      vertex 10.9133 5 38.8787
      vertex 10.9133 2 38.8787
    endloop
  endfacet
  facet normal -0.998027 1.43851e-016 -0.0627903
    outer loop
      vertex 10.9133 5 38.8787
      vertex 11 5 37.5
      vertex 10.9133 2 38.8787
    endloop
  endfacet
  facet normal -0.998027 1.43851e-016 -0.0627903
    outer loop
      vertex 10.9133 2 38.8787
      vertex 11 5 37.5
      vertex 11 2 37.5
    endloop
  endfacet
  facet normal -0.998027 1.00587e-016 0.0627903
    outer loop
      vertex 10.9685 5 37
      vertex 10.9685 2 37
      vertex 11 5 37.5
    endloop
  endfacet
  facet normal -0.998027 1.00587e-016 0.0627903
    outer loop
      vertex 11 5 37.5
      vertex 10.9685 2 37
      vertex 11 2 37.5
    endloop
  endfacet
  facet normal -1.22461e-016 -1 -3.44505e-016
    outer loop
      vertex 12.8975 2 39.1293
      vertex 12.5916 2 40.733
      vertex 12.0871 2 42.2856
    endloop
  endfacet
  facet normal -1.22461e-016 -1 -3.44505e-016
    outer loop
      vertex 10.5172 2 45.1412
      vertex 12.8975 2 39.1293
      vertex 11.392 2 43.7628
    endloop
  endfacet
  facet normal -1.22461e-016 -1 -3.44505e-016
    outer loop
      vertex 11.392 2 43.7628
      vertex 12.8975 2 39.1293
      vertex 12.0871 2 42.2856
    endloop
  endfacet
  facet normal -1.22461e-016 -1 -3.44505e-016
    outer loop
      vertex 9.47659 2 46.3991
      vertex 12.8975 2 39.1293
      vertex 10.5172 2 45.1412
    endloop
  endfacet
  facet normal -1.22461e-016 -1 -3.44505e-016
    outer loop
      vertex 8.28651 2 47.5167
      vertex 12.8975 2 39.1293
      vertex 9.47659 2 46.3991
    endloop
  endfacet
  facet normal -1.22461e-016 -1 -3.44505e-016
    outer loop
      vertex 6.96575 2 48.4763
      vertex 12.8975 2 39.1293
      vertex 8.28651 2 47.5167
    endloop
  endfacet
  facet normal -1.22461e-016 -1 -3.44505e-016
    outer loop
      vertex 5.53513 2 49.2628
      vertex 12.8975 2 39.1293
      vertex 6.96575 2 48.4763
    endloop
  endfacet
  facet normal -1.22461e-016 -1 -3.44505e-016
    outer loop
      vertex 8.89919 2 43.9656
      vertex 12.8975 2 39.1293
      vertex 5.53513 2 49.2628
    endloop
  endfacet
  facet normal -1.22461e-016 -1 -3.44505e-016
    outer loop
      vertex 7.01166 2 45.9756
      vertex 8.01865 2 45.03
      vertex 4.01722 2 49.8637
    endloop
  endfacet
  facet normal -1.22461e-016 -1 -3.44505e-016
    outer loop
      vertex 4.68357 2 47.4531
      vertex 5.8941 2 46.7876
      vertex 2.43596 2 50.2697
    endloop
  endfacet
  facet normal -1.22461e-016 -1 -3.44505e-016
    outer loop
      vertex 3.39919 2 47.9616
      vertex 4.68357 2 47.4531
      vertex 0.816277 2 50.4743
    endloop
  endfacet
  facet normal -1.22461e-016 -1 -3.44505e-016
    outer loop
      vertex 0.690696 2 48.4783
      vertex 2.06119 2 48.3052
      vertex -0.816277 2 50.4743
    endloop
  endfacet
  facet normal -1.22461e-016 -1 -3.44505e-016
    outer loop
      vertex -0.690696 2 48.4783
      vertex 0.690696 2 48.4783
      vertex -2.43596 2 50.2697
    endloop
  endfacet
  facet normal -1.22461e-016 -1 -3.44505e-016
    outer loop
      vertex -2.06119 2 48.3052
      vertex -0.690696 2 48.4783
      vertex -4.01722 2 49.8637
    endloop
  endfacet
  facet normal -1.22461e-016 -1 -3.44505e-016
    outer loop
      vertex -3.39919 2 47.9616
      vertex -2.06119 2 48.3052
      vertex -5.53513 2 49.2628
    endloop
  endfacet
  facet normal -1.22461e-016 -1 -3.44505e-016
    outer loop
      vertex -5.89409 2 46.7876
      vertex -4.68357 2 47.4531
      vertex -6.96575 2 48.4763
    endloop
  endfacet
  facet normal -1.22461e-016 -1 -3.44505e-016
    outer loop
      vertex -7.01166 2 45.9756
      vertex -5.89409 2 46.7876
      vertex -8.28651 2 47.5167
    endloop
  endfacet
  facet normal -1.22461e-016 -1 -3.44505e-016
    outer loop
      vertex -8.01865 2 45.03
      vertex -7.01166 2 45.9756
      vertex -9.47659 2 46.3991
    endloop
  endfacet
  facet normal -1.22461e-016 -1 -3.44505e-016
    outer loop
      vertex -8.89919 2 43.9656
      vertex -8.01865 2 45.03
      vertex -10.5172 2 45.1412
    endloop
  endfacet
  facet normal -1.22461e-016 -1 -3.44505e-016
    outer loop
      vertex -9.63937 2 42.7993
      vertex -8.89919 2 43.9656
      vertex -11.392 2 43.7628
    endloop
  endfacet
  facet normal -1.22461e-016 -1 -3.44505e-016
    outer loop
      vertex -10.2275 2 41.5494
      vertex -9.63937 2 42.7993
      vertex -12.0871 2 42.2856
    endloop
  endfacet
  facet normal -1.22461e-016 -1 -3.44505e-016
    outer loop
      vertex -10.6544 2 40.2356
      vertex -10.2275 2 41.5494
      vertex -12.5916 2 40.733
    endloop
  endfacet
  facet normal -1.22461e-016 -1 -3.44505e-016
    outer loop
      vertex -10.9133 2 38.8787
      vertex -10.6544 2 40.2356
      vertex -12.8975 2 39.1293
    endloop
  endfacet
  facet normal -1.22461e-016 -1 -3.44505e-016
    outer loop
      vertex -11 2 37.5
      vertex -10.9133 2 38.8787
      vertex -13 2 37.5
    endloop
  endfacet
  facet normal -1.22461e-016 -1 -3.44505e-016
    outer loop
      vertex -12.9685 2 37
      vertex -11 2 37.5
      vertex -13 2 37.5
    endloop
  endfacet
  facet normal -1.22461e-016 -1 -3.44505e-016
    outer loop
      vertex -13 2 37.5
      vertex -10.9133 2 38.8787
      vertex -12.8975 2 39.1293
    endloop
  endfacet
  facet normal -1.22461e-016 -1 -3.44505e-016
    outer loop
      vertex -12.8975 2 39.1293
      vertex -10.6544 2 40.2356
      vertex -12.5916 2 40.733
    endloop
  endfacet
  facet normal -1.22461e-016 -1 -3.44505e-016
    outer loop
      vertex -12.5916 2 40.733
      vertex -10.2275 2 41.5494
      vertex -12.0871 2 42.2856
    endloop
  endfacet
  facet normal -1.22461e-016 -1 -3.44505e-016
    outer loop
      vertex -12.0871 2 42.2856
      vertex -9.63937 2 42.7993
      vertex -11.392 2 43.7628
    endloop
  endfacet
  facet normal -1.22461e-016 -1 -3.44505e-016
    outer loop
      vertex -11.392 2 43.7628
      vertex -8.89919 2 43.9656
      vertex -10.5172 2 45.1412
    endloop
  endfacet
  facet normal -1.22461e-016 -1 -3.44505e-016
    outer loop
      vertex -10.5172 2 45.1412
      vertex -8.01865 2 45.03
      vertex -9.47659 2 46.3991
    endloop
  endfacet
  facet normal -1.22461e-016 -1 -3.44505e-016
    outer loop
      vertex -9.47659 2 46.3991
      vertex -7.01166 2 45.9756
      vertex -8.28651 2 47.5167
    endloop
  endfacet
  facet normal -1.22461e-016 -1 -3.44505e-016
    outer loop
      vertex -8.28651 2 47.5167
      vertex -5.89409 2 46.7876
      vertex -6.96575 2 48.4763
    endloop
  endfacet
  facet normal -1.22461e-016 -1 -3.44505e-016
    outer loop
      vertex -6.96575 2 48.4763
      vertex -4.68357 2 47.4531
      vertex -5.53513 2 49.2628
    endloop
  endfacet
  facet normal -1.22461e-016 -1 -3.44505e-016
    outer loop
      vertex -4.68357 2 47.4531
      vertex -3.39919 2 47.9616
      vertex -5.53513 2 49.2628
    endloop
  endfacet
  facet normal -1.22461e-016 -1 -3.44505e-016
    outer loop
      vertex -5.53513 2 49.2628
      vertex -2.06119 2 48.3052
      vertex -4.01722 2 49.8637
    endloop
  endfacet
  facet normal -1.22461e-016 -1 -3.44505e-016
    outer loop
      vertex -4.01722 2 49.8637
      vertex -0.690696 2 48.4783
      vertex -2.43596 2 50.2697
    endloop
  endfacet
  facet normal -1.22461e-016 -1 -3.44505e-016
    outer loop
      vertex -2.43596 2 50.2697
      vertex 0.690696 2 48.4783
      vertex -0.816277 2 50.4743
    endloop
  endfacet
  facet normal -1.22461e-016 -1 -3.44505e-016
    outer loop
      vertex -0.816277 2 50.4743
      vertex 2.06119 2 48.3052
      vertex 0.816277 2 50.4743
    endloop
  endfacet
  facet normal -1.22461e-016 -1 -3.44505e-016
    outer loop
      vertex 2.06119 2 48.3052
      vertex 3.39919 2 47.9616
      vertex 0.816277 2 50.4743
    endloop
  endfacet
  facet normal -1.22461e-016 -1 -3.44505e-016
    outer loop
      vertex 0.816277 2 50.4743
      vertex 4.68357 2 47.4531
      vertex 2.43596 2 50.2697
    endloop
  endfacet
  facet normal -1.22461e-016 -1 -3.44505e-016
    outer loop
      vertex 2.43596 2 50.2697
      vertex 5.8941 2 46.7876
      vertex 4.01722 2 49.8637
    endloop
  endfacet
  facet normal -1.22461e-016 -1 -3.44505e-016
    outer loop
      vertex 5.8941 2 46.7876
      vertex 7.01166 2 45.9756
      vertex 4.01722 2 49.8637
    endloop
  endfacet
  facet normal -1.22461e-016 -1 -3.44505e-016
    outer loop
      vertex 4.01722 2 49.8637
      vertex 8.01865 2 45.03
      vertex 5.53513 2 49.2628
    endloop
  endfacet
  facet normal -1.22461e-016 -1 -3.44505e-016
    outer loop
      vertex 8.01865 2 45.03
      vertex 8.89919 2 43.9656
      vertex 5.53513 2 49.2628
    endloop
  endfacet
  facet normal -1.22461e-016 -1 -3.44505e-016
    outer loop
      vertex 11 2 37.5
      vertex 12.8975 2 39.1293
      vertex 10.9133 2 38.8787
    endloop
  endfacet
  facet normal -1.22461e-016 -1 -3.44505e-016
    outer loop
      vertex 10.9685 2 37
      vertex 12.8975 2 39.1293
      vertex 11 2 37.5
    endloop
  endfacet
  facet normal -1.22461e-016 -1 -3.44505e-016
    outer loop
      vertex 12.9685 2 37
      vertex 12.8975 2 39.1293
      vertex 10.9685 2 37
    endloop
  endfacet
  facet normal -1.22461e-016 -1 -3.44505e-016
    outer loop
      vertex 13 2 37.5
      vertex 12.8975 2 39.1293
      vertex 12.9685 2 37
    endloop
  endfacet
  facet normal -1.22461e-016 -1 -3.44505e-016
    outer loop
      vertex -10.9685 2 37
      vertex -11 2 37.5
      vertex -12.9685 2 37
    endloop
  endfacet
  facet normal -1.22461e-016 -1 -3.44505e-016
    outer loop
      vertex 8.89919 2 43.9656
      vertex 9.63937 2 42.7993
      vertex 12.8975 2 39.1293
    endloop
  endfacet
  facet normal -1.22461e-016 -1 -3.44505e-016
    outer loop
      vertex 9.63937 2 42.7993
      vertex 10.2275 2 41.5494
      vertex 12.8975 2 39.1293
    endloop
  endfacet
  facet normal -1.22461e-016 -1 -3.44505e-016
    outer loop
      vertex 10.2275 2 41.5494
      vertex 10.6544 2 40.2356
      vertex 12.8975 2 39.1293
    endloop
  endfacet
  facet normal -1.22461e-016 -1 -3.44505e-016
    outer loop
      vertex 10.6544 2 40.2356
      vertex 10.9133 2 38.8787
      vertex 12.8975 2 39.1293
    endloop
  endfacet
  facet normal -0.998027 1.00587e-016 0.0627906
    outer loop
      vertex 12.9685 2 37
      vertex 12.9685 -2 37
      vertex 13 2 37.5
    endloop
  endfacet
  facet normal -0.998027 1.00587e-016 0.0627906
    outer loop
      vertex 13 2 37.5
      vertex 12.9685 -2 37
      vertex 13 -2 37.5
    endloop
  endfacet
  facet normal 1.22461e-016 1 3.44505e-016
    outer loop
      vertex 10.9685 -2 37
      vertex 11 -2 37.5
      vertex 12.9685 -2 37
    endloop
  endfacet
  facet normal 1.22461e-016 1 3.44505e-016
    outer loop
      vertex 12.9685 -2 37
      vertex 11 -2 37.5
      vertex 10.9133 -2 38.8787
    endloop
  endfacet
  facet normal 1.22461e-016 1 3.44505e-016
    outer loop
      vertex 10.9133 -2 38.8787
      vertex 10.6544 -2 40.2356
      vertex 12.9685 -2 37
    endloop
  endfacet
  facet normal 1.22461e-016 1 3.44505e-016
    outer loop
      vertex 10.6544 -2 40.2356
      vertex 10.2275 -2 41.5494
      vertex 12.9685 -2 37
    endloop
  endfacet
  facet normal 1.22461e-016 1 3.44505e-016
    outer loop
      vertex 10.2275 -2 41.5494
      vertex 9.63937 -2 42.7993
      vertex 12.9685 -2 37
    endloop
  endfacet
  facet normal 1.22461e-016 1 3.44505e-016
    outer loop
      vertex 9.63937 -2 42.7993
      vertex 6.96575 -2 48.4763
      vertex 12.9685 -2 37
    endloop
  endfacet
  facet normal 1.22461e-016 1 3.44505e-016
    outer loop
      vertex -10.2275 -2 41.5494
      vertex -12.9685 -2 37
      vertex -9.63937 -2 42.7993
    endloop
  endfacet
  facet normal 1.22461e-016 1 3.44505e-016
    outer loop
      vertex -10.6544 -2 40.2356
      vertex -12.9685 -2 37
      vertex -10.2275 -2 41.5494
    endloop
  endfacet
  facet normal 1.22461e-016 1 3.44505e-016
    outer loop
      vertex -10.9133 -2 38.8787
      vertex -12.9685 -2 37
      vertex -10.6544 -2 40.2356
    endloop
  endfacet
  facet normal 1.22461e-016 1 3.44505e-016
    outer loop
      vertex -11 -2 37.5
      vertex -10.9685 -2 37
      vertex -12.9685 -2 37
    endloop
  endfacet
  facet normal 1.22461e-016 1 3.44505e-016
    outer loop
      vertex -11 -2 37.5
      vertex -12.9685 -2 37
      vertex -10.9133 -2 38.8787
    endloop
  endfacet
  facet normal 1.22461e-016 1 3.44505e-016
    outer loop
      vertex -9.63937 -2 42.7993
      vertex -12.9685 -2 37
      vertex -13 -2 37.5
    endloop
  endfacet
  facet normal 1.22461e-016 1 3.44505e-016
    outer loop
      vertex -9.63937 -2 42.7993
      vertex -13 -2 37.5
      vertex -12.8975 -2 39.1293
    endloop
  endfacet
  facet normal 1.22461e-016 1 3.44505e-016
    outer loop
      vertex -9.63937 -2 42.7993
      vertex -12.8975 -2 39.1293
      vertex -8.89919 -2 43.9656
    endloop
  endfacet
  facet normal 1.22461e-016 1 3.44505e-016
    outer loop
      vertex -8.89919 -2 43.9656
      vertex -12.8975 -2 39.1293
      vertex -12.5916 -2 40.733
    endloop
  endfacet
  facet normal 1.22461e-016 1 3.44505e-016
    outer loop
      vertex -8.89919 -2 43.9656
      vertex -12.5916 -2 40.733
      vertex -8.01865 -2 45.03
    endloop
  endfacet
  facet normal 1.22461e-016 1 3.44505e-016
    outer loop
      vertex -8.01865 -2 45.03
      vertex -12.5916 -2 40.733
      vertex -12.0871 -2 42.2856
    endloop
  endfacet
  facet normal 1.22461e-016 1 3.44505e-016
    outer loop
      vertex -8.01865 -2 45.03
      vertex -12.0871 -2 42.2856
      vertex -7.01166 -2 45.9756
    endloop
  endfacet
  facet normal 1.22461e-016 1 3.44505e-016
    outer loop
      vertex -7.01166 -2 45.9756
      vertex -12.0871 -2 42.2856
      vertex -11.392 -2 43.7628
    endloop
  endfacet
  facet normal 1.22461e-016 1 3.44505e-016
    outer loop
      vertex -7.01166 -2 45.9756
      vertex -11.392 -2 43.7628
      vertex -5.8941 -2 46.7876
    endloop
  endfacet
  facet normal 1.22461e-016 1 3.44505e-016
    outer loop
      vertex -5.8941 -2 46.7876
      vertex -11.392 -2 43.7628
      vertex -10.5172 -2 45.1412
    endloop
  endfacet
  facet normal 1.22461e-016 1 3.44505e-016
    outer loop
      vertex -5.8941 -2 46.7876
      vertex -10.5172 -2 45.1412
      vertex -4.68357 -2 47.4531
    endloop
  endfacet
  facet normal 1.22461e-016 1 3.44505e-016
    outer loop
      vertex -4.68357 -2 47.4531
      vertex -10.5172 -2 45.1412
      vertex -9.47659 -2 46.3991
    endloop
  endfacet
  facet normal 1.22461e-016 1 3.44505e-016
    outer loop
      vertex -4.68357 -2 47.4531
      vertex -9.47659 -2 46.3991
      vertex -3.39919 -2 47.9616
    endloop
  endfacet
  facet normal 1.22461e-016 1 3.44505e-016
    outer loop
      vertex -3.39919 -2 47.9616
      vertex -9.47659 -2 46.3991
      vertex -8.28651 -2 47.5167
    endloop
  endfacet
  facet normal 1.22461e-016 1 3.44505e-016
    outer loop
      vertex -3.39919 -2 47.9616
      vertex -8.28651 -2 47.5167
      vertex -2.06119 -2 48.3052
    endloop
  endfacet
  facet normal 1.22461e-016 1 3.44505e-016
    outer loop
      vertex -2.06119 -2 48.3052
      vertex -8.28651 -2 47.5167
      vertex -6.96575 -2 48.4763
    endloop
  endfacet
  facet normal 1.22461e-016 1 3.44505e-016
    outer loop
      vertex -2.06119 -2 48.3052
      vertex -6.96575 -2 48.4763
      vertex -0.690696 -2 48.4783
    endloop
  endfacet
  facet normal 1.22461e-016 1 3.44505e-016
    outer loop
      vertex -0.690696 -2 48.4783
      vertex -6.96575 -2 48.4763
      vertex -5.53513 -2 49.2628
    endloop
  endfacet
  facet normal 1.22461e-016 1 3.44505e-016
    outer loop
      vertex -0.690696 -2 48.4783
      vertex -5.53513 -2 49.2628
      vertex 0.690696 -2 48.4783
    endloop
  endfacet
  facet normal 1.22461e-016 1 3.44505e-016
    outer loop
      vertex 0.690696 -2 48.4783
      vertex -5.53513 -2 49.2628
      vertex -4.01722 -2 49.8637
    endloop
  endfacet
  facet normal 1.22461e-016 1 3.44505e-016
    outer loop
      vertex 0.690696 -2 48.4783
      vertex -4.01722 -2 49.8637
      vertex 2.06119 -2 48.3052
    endloop
  endfacet
  facet normal 1.22461e-016 1 3.44505e-016
    outer loop
      vertex 2.06119 -2 48.3052
      vertex -4.01722 -2 49.8637
      vertex -2.43596 -2 50.2697
    endloop
  endfacet
  facet normal 1.22461e-016 1 3.44505e-016
    outer loop
      vertex 2.06119 -2 48.3052
      vertex -2.43596 -2 50.2697
      vertex 3.39919 -2 47.9616
    endloop
  endfacet
  facet normal 1.22461e-016 1 3.44505e-016
    outer loop
      vertex 3.39919 -2 47.9616
      vertex -2.43596 -2 50.2697
      vertex -0.816277 -2 50.4743
    endloop
  endfacet
  facet normal 1.22461e-016 1 3.44505e-016
    outer loop
      vertex 3.39919 -2 47.9616
      vertex -0.816277 -2 50.4743
      vertex 4.68357 -2 47.4531
    endloop
  endfacet
  facet normal 1.22461e-016 1 3.44505e-016
    outer loop
      vertex 4.68357 -2 47.4531
      vertex -0.816277 -2 50.4743
      vertex 0.816277 -2 50.4743
    endloop
  endfacet
  facet normal 1.22461e-016 1 3.44505e-016
    outer loop
      vertex 4.68357 -2 47.4531
      vertex 0.816277 -2 50.4743
      vertex 5.89409 -2 46.7876
    endloop
  endfacet
  facet normal 1.22461e-016 1 3.44505e-016
    outer loop
      vertex 5.89409 -2 46.7876
      vertex 0.816277 -2 50.4743
      vertex 2.43596 -2 50.2697
    endloop
  endfacet
  facet normal 1.22461e-016 1 3.44505e-016
    outer loop
      vertex 5.89409 -2 46.7876
      vertex 2.43596 -2 50.2697
      vertex 7.01166 -2 45.9756
    endloop
  endfacet
  facet normal 1.22461e-016 1 3.44505e-016
    outer loop
      vertex 7.01166 -2 45.9756
      vertex 2.43596 -2 50.2697
      vertex 4.01722 -2 49.8637
    endloop
  endfacet
  facet normal 1.22461e-016 1 3.44505e-016
    outer loop
      vertex 7.01166 -2 45.9756
      vertex 4.01722 -2 49.8637
      vertex 8.01865 -2 45.03
    endloop
  endfacet
  facet normal 1.22461e-016 1 3.44505e-016
    outer loop
      vertex 8.01865 -2 45.03
      vertex 4.01722 -2 49.8637
      vertex 5.53513 -2 49.2628
    endloop
  endfacet
  facet normal 1.22461e-016 1 3.44505e-016
    outer loop
      vertex 8.01865 -2 45.03
      vertex 5.53513 -2 49.2628
      vertex 8.89919 -2 43.9656
    endloop
  endfacet
  facet normal 1.22461e-016 1 3.44505e-016
    outer loop
      vertex 8.89919 -2 43.9656
      vertex 5.53513 -2 49.2628
      vertex 6.96575 -2 48.4763
    endloop
  endfacet
  facet normal 1.22461e-016 1 3.44505e-016
    outer loop
      vertex 8.89919 -2 43.9656
      vertex 6.96575 -2 48.4763
      vertex 9.63937 -2 42.7993
    endloop
  endfacet
  facet normal 1.22461e-016 1 3.44505e-016
    outer loop
      vertex 12.9685 -2 37
      vertex 6.96575 -2 48.4763
      vertex 8.28651 -2 47.5167
    endloop
  endfacet
  facet normal 1.22461e-016 1 3.44505e-016
    outer loop
      vertex 12.9685 -2 37
      vertex 8.28651 -2 47.5167
      vertex 9.47659 -2 46.3991
    endloop
  endfacet
  facet normal 1.22461e-016 1 3.44505e-016
    outer loop
      vertex 12.9685 -2 37
      vertex 9.47659 -2 46.3991
      vertex 10.5172 -2 45.1412
    endloop
  endfacet
  facet normal 1.22461e-016 1 3.44505e-016
    outer loop
      vertex 12.9685 -2 37
      vertex 10.5172 -2 45.1412
      vertex 11.392 -2 43.7628
    endloop
  endfacet
  facet normal 1.22461e-016 1 3.44505e-016
    outer loop
      vertex 12.9685 -2 37
      vertex 11.392 -2 43.7628
      vertex 12.0871 -2 42.2856
    endloop
  endfacet
  facet normal 1.22461e-016 1 3.44505e-016
    outer loop
      vertex 12.9685 -2 37
      vertex 12.0871 -2 42.2856
      vertex 12.5916 -2 40.733
    endloop
  endfacet
  facet normal 1.22461e-016 1 3.44505e-016
    outer loop
      vertex 12.9685 -2 37
      vertex 12.5916 -2 40.733
      vertex 12.8975 -2 39.1293
    endloop
  endfacet
  facet normal 1.22461e-016 1 3.44505e-016
    outer loop
      vertex 12.9685 -2 37
      vertex 12.8975 -2 39.1293
      vertex 13 -2 37.5
    endloop
  endfacet
  facet normal 1 -1.22461e-016 0
    outer loop
      vertex 20.5 2.5 37
      vertex 20.5 -2.5 37
      vertex 20.5 -2.5 33
    endloop
  endfacet
  facet normal 1 -1.22461e-016 0
    outer loop
      vertex 20.5 2.5 33
      vertex 20.5 2.5 37
      vertex 20.5 -2.5 33
    endloop
  endfacet
  facet normal -1.22461e-016 -1 -1.22461e-016
    outer loop
      vertex 20.5 -2.5 33
      vertex 20.5 -2.5 37
      vertex 15.5 -2.5 37
    endloop
  endfacet
  facet normal -1.22461e-016 -1 -1.22461e-016
    outer loop
      vertex 15.5 -2.5 33
      vertex 20.5 -2.5 33
      vertex 15.5 -2.5 37
    endloop
  endfacet
  facet normal -1 1.22461e-016 0
    outer loop
      vertex 15.5 -2.5 37
      vertex 15.5 2.5 37
      vertex 15.5 -2.5 33
    endloop
  endfacet
  facet normal -1 1.22461e-016 0
    outer loop
      vertex 15.5 -2.5 33
      vertex 15.5 2.5 37
      vertex 15.5 2.5 33
    endloop
  endfacet
  facet normal 1.22461e-016 1 1.22461e-016
    outer loop
      vertex 20.5 2.5 37
      vertex 20.5 2.5 33
      vertex 15.5 2.5 37
    endloop
  endfacet
  facet normal 1.22461e-016 1 1.22461e-016
    outer loop
      vertex 15.5 2.5 37
      vertex 20.5 2.5 33
      vertex 15.5 2.5 33
    endloop
  endfacet
  facet normal 0.998027 -1.43851e-016 0.0627906
    outer loop
      vertex -13 2 37.5
      vertex -13 -2 37.5
      vertex -12.9685 -2 37
    endloop
  endfacet
  facet normal 0.998027 -1.43851e-016 0.0627906
    outer loop
      vertex -12.9685 2 37
      vertex -13 2 37.5
      vertex -12.9685 -2 37
    endloop
  endfacet
  facet normal -1 1.22461e-016 0
    outer loop
      vertex -15.25 2.75 37
      vertex -15.25 -2.75 37
      vertex -15.25 2.75 41.25
    endloop
  endfacet
  facet normal -1 1.22461e-016 0
    outer loop
      vertex -15.25 2.75 41.25
      vertex -15.25 -2.75 37
      vertex -15.25 -2.75 41.25
    endloop
  endfacet
  facet normal 1.22461e-016 1 1.22461e-016
    outer loop
      vertex -20.75 -2.75 37
      vertex -20.75 -2.75 41.25
      vertex -15.25 -2.75 37
    endloop
  endfacet
  facet normal 1.22461e-016 1 1.22461e-016
    outer loop
      vertex -15.25 -2.75 37
      vertex -20.75 -2.75 41.25
      vertex -15.25 -2.75 41.25
    endloop
  endfacet
  facet normal 1 -1.22461e-016 0
    outer loop
      vertex -20.75 -2.75 37
      vertex -20.75 2.75 37
      vertex -20.75 2.75 41.25
    endloop
  endfacet
  facet normal 1 -1.22461e-016 0
    outer loop
      vertex -20.75 -2.75 41.25
      vertex -20.75 -2.75 37
      vertex -20.75 2.75 41.25
    endloop
  endfacet
  facet normal -1.22461e-016 -1 -1.22461e-016
    outer loop
      vertex -20.75 2.75 41.25
      vertex -20.75 2.75 37
      vertex -15.25 2.75 37
    endloop
  endfacet
  facet normal -1.22461e-016 -1 -1.22461e-016
    outer loop
      vertex -15.25 2.75 41.25
      vertex -20.75 2.75 41.25
      vertex -15.25 2.75 37
    endloop
  endfacet
  facet normal -0.982287 1.84845e-016 -0.187381
    outer loop
      vertex 12.5916 2 40.733
      vertex 12.8975 2 39.1293
      vertex 12.5916 -2 40.733
    endloop
  endfacet
  facet normal -0.982287 1.84845e-016 -0.187381
    outer loop
      vertex 12.5916 -2 40.733
      vertex 12.8975 2 39.1293
      vertex 12.8975 -2 39.1293
    endloop
  endfacet
  facet normal -0.998027 1.43851e-016 -0.0627906
    outer loop
      vertex 12.8975 2 39.1293
      vertex 13 2 37.5
      vertex 12.8975 -2 39.1293
    endloop
  endfacet
  facet normal -0.998027 1.43851e-016 -0.0627906
    outer loop
      vertex 12.8975 -2 39.1293
      vertex 13 2 37.5
      vertex 13 -2 37.5
    endloop
  endfacet
  facet normal 0.998027 -1.00587e-016 -0.0627906
    outer loop
      vertex -13 -2 37.5
      vertex -13 2 37.5
      vertex -12.8975 2 39.1293
    endloop
  endfacet
  facet normal 0.998027 -1.00587e-016 -0.0627906
    outer loop
      vertex -12.8975 -2 39.1293
      vertex -13 -2 37.5
      vertex -12.8975 2 39.1293
    endloop
  endfacet
  facet normal 0.982287 -5.57377e-017 -0.187381
    outer loop
      vertex -12.8975 -2 39.1293
      vertex -12.8975 2 39.1293
      vertex -12.5916 2 40.733
    endloop
  endfacet
  facet normal 0.982287 -5.57377e-017 -0.187381
    outer loop
      vertex -12.5916 -2 40.733
      vertex -12.8975 -2 39.1293
      vertex -12.5916 2 40.733
    endloop
  endfacet
  facet normal 0.951056 -1.00089e-017 -0.309017
    outer loop
      vertex -12.5916 -2 40.733
      vertex -12.5916 2 40.733
      vertex -12.0871 2 42.2856
    endloop
  endfacet
  facet normal 0.951056 -1.00089e-017 -0.309017
    outer loop
      vertex -12.0871 -2 42.2856
      vertex -12.5916 -2 40.733
      vertex -12.0871 2 42.2856
    endloop
  endfacet
  facet normal 0.904827 3.58774e-017 -0.425779
    outer loop
      vertex -12.0871 -2 42.2856
      vertex -12.0871 2 42.2856
      vertex -11.392 2 43.7628
    endloop
  endfacet
  facet normal 0.904827 3.58774e-017 -0.425779
    outer loop
      vertex -11.392 -2 43.7628
      vertex -12.0871 -2 42.2856
      vertex -11.392 2 43.7628
    endloop
  endfacet
  facet normal 0.844328 8.11983e-017 -0.535827
    outer loop
      vertex -11.392 -2 43.7628
      vertex -11.392 2 43.7628
      vertex -10.5172 2 45.1412
    endloop
  endfacet
  facet normal 0.844328 8.11983e-017 -0.535827
    outer loop
      vertex -10.5172 -2 45.1412
      vertex -11.392 -2 43.7628
      vertex -10.5172 2 45.1412
    endloop
  endfacet
  facet normal 0.770513 1.25238e-016 -0.637424
    outer loop
      vertex -10.5172 -2 45.1412
      vertex -10.5172 2 45.1412
      vertex -9.47659 2 46.3991
    endloop
  endfacet
  facet normal 0.770513 1.25238e-016 -0.637424
    outer loop
      vertex -9.47659 -2 46.3991
      vertex -10.5172 -2 45.1412
      vertex -9.47659 2 46.3991
    endloop
  endfacet
  facet normal 0.684547 1.67303e-016 -0.728968
    outer loop
      vertex -9.47659 2 46.3991
      vertex -8.28651 2 47.5167
      vertex -9.47659 -2 46.3991
    endloop
  endfacet
  facet normal 0.684547 1.67303e-016 -0.728968
    outer loop
      vertex -9.47659 -2 46.3991
      vertex -8.28651 2 47.5167
      vertex -8.28651 -2 47.5167
    endloop
  endfacet
  facet normal 0.587785 2.0673e-016 -0.809017
    outer loop
      vertex -8.28651 2 47.5167
      vertex -6.96575 2 48.4763
      vertex -8.28651 -2 47.5167
    endloop
  endfacet
  facet normal 0.587785 2.0673e-016 -0.809017
    outer loop
      vertex -8.28651 -2 47.5167
      vertex -6.96575 2 48.4763
      vertex -6.96575 -2 48.4763
    endloop
  endfacet
  facet normal 0.481754 2.42896e-016 -0.876307
    outer loop
      vertex -6.96575 2 48.4763
      vertex -5.53513 2 49.2628
      vertex -6.96575 -2 48.4763
    endloop
  endfacet
  facet normal 0.481754 2.42896e-016 -0.876307
    outer loop
      vertex -6.96575 -2 48.4763
      vertex -5.53513 2 49.2628
      vertex -5.53513 -2 49.2628
    endloop
  endfacet
  facet normal 0.368125 2.75232e-016 -0.929777
    outer loop
      vertex -5.53513 2 49.2628
      vertex -4.01722 2 49.8637
      vertex -5.53513 -2 49.2628
    endloop
  endfacet
  facet normal 0.368125 2.75232e-016 -0.929777
    outer loop
      vertex -5.53513 -2 49.2628
      vertex -4.01722 2 49.8637
      vertex -4.01722 -2 49.8637
    endloop
  endfacet
  facet normal 0.24869 3.03227e-016 -0.968583
    outer loop
      vertex -4.01722 2 49.8637
      vertex -2.43596 2 50.2697
      vertex -4.01722 -2 49.8637
    endloop
  endfacet
  facet normal 0.24869 3.03227e-016 -0.968583
    outer loop
      vertex -4.01722 -2 49.8637
      vertex -2.43596 2 50.2697
      vertex -2.43596 -2 50.2697
    endloop
  endfacet
  facet normal 0.125333 3.2644e-016 -0.992115
    outer loop
      vertex -2.43596 2 50.2697
      vertex -0.816277 2 50.4743
      vertex -2.43596 -2 50.2697
    endloop
  endfacet
  facet normal 0.125333 3.2644e-016 -0.992115
    outer loop
      vertex -2.43596 -2 50.2697
      vertex -0.816277 2 50.4743
      vertex -0.816277 -2 50.4743
    endloop
  endfacet
  facet normal 4.21883e-032 3.44505e-016 -1
    outer loop
      vertex -0.816277 2 50.4743
      vertex 0.816277 2 50.4743
      vertex -0.816277 -2 50.4743
    endloop
  endfacet
  facet normal 4.21883e-032 3.44505e-016 -1
    outer loop
      vertex -0.816277 -2 50.4743
      vertex 0.816277 2 50.4743
      vertex 0.816277 -2 50.4743
    endloop
  endfacet
  facet normal -0.125333 3.57137e-016 -0.992115
    outer loop
      vertex 0.816277 2 50.4743
      vertex 2.43596 2 50.2697
      vertex 0.816277 -2 50.4743
    endloop
  endfacet
  facet normal -0.125333 3.57137e-016 -0.992115
    outer loop
      vertex 0.816277 -2 50.4743
      vertex 2.43596 2 50.2697
      vertex 2.43596 -2 50.2697
    endloop
  endfacet
  facet normal -0.24869 3.64137e-016 -0.968583
    outer loop
      vertex 2.43596 2 50.2697
      vertex 4.01722 2 49.8637
      vertex 2.43596 -2 50.2697
    endloop
  endfacet
  facet normal -0.24869 3.64137e-016 -0.968583
    outer loop
      vertex 2.43596 -2 50.2697
      vertex 4.01722 2 49.8637
      vertex 4.01722 -2 49.8637
    endloop
  endfacet
  facet normal -0.368125 3.65394e-016 -0.929777
    outer loop
      vertex 4.01722 2 49.8637
      vertex 5.53513 2 49.2628
      vertex 4.01722 -2 49.8637
    endloop
  endfacet
  facet normal -0.368125 3.65394e-016 -0.929777
    outer loop
      vertex 4.01722 -2 49.8637
      vertex 5.53513 2 49.2628
      vertex 5.53513 -2 49.2628
    endloop
  endfacet
  facet normal -0.481754 3.60888e-016 -0.876307
    outer loop
      vertex 5.53513 2 49.2628
      vertex 6.96575 2 48.4763
      vertex 5.53513 -2 49.2628
    endloop
  endfacet
  facet normal -0.481754 3.60888e-016 -0.876307
    outer loop
      vertex 5.53513 -2 49.2628
      vertex 6.96575 2 48.4763
      vertex 6.96575 -2 48.4763
    endloop
  endfacet
  facet normal -0.587785 3.50691e-016 -0.809017
    outer loop
      vertex 6.96575 2 48.4763
      vertex 8.28651 2 47.5167
      vertex 6.96575 -2 48.4763
    endloop
  endfacet
  facet normal -0.587785 3.50691e-016 -0.809017
    outer loop
      vertex 6.96575 -2 48.4763
      vertex 8.28651 2 47.5167
      vertex 8.28651 -2 47.5167
    endloop
  endfacet
  facet normal -0.684547 3.34964e-016 -0.728968
    outer loop
      vertex 8.28651 2 47.5167
      vertex 9.47659 2 46.3991
      vertex 8.28651 -2 47.5167
    endloop
  endfacet
  facet normal -0.684547 3.34964e-016 -0.728968
    outer loop
      vertex 8.28651 -2 47.5167
      vertex 9.47659 2 46.3991
      vertex 9.47659 -2 46.3991
    endloop
  endfacet
  facet normal -0.770513 3.13953e-016 -0.637424
    outer loop
      vertex 9.47659 2 46.3991
      vertex 10.5172 2 45.1412
      vertex 9.47659 -2 46.3991
    endloop
  endfacet
  facet normal -0.770513 3.13953e-016 -0.637424
    outer loop
      vertex 9.47659 -2 46.3991
      vertex 10.5172 2 45.1412
      vertex 10.5172 -2 45.1412
    endloop
  endfacet
  facet normal -0.844328 2.87992e-016 -0.535827
    outer loop
      vertex 10.5172 2 45.1412
      vertex 11.392 2 43.7628
      vertex 10.5172 -2 45.1412
    endloop
  endfacet
  facet normal -0.844328 2.87992e-016 -0.535827
    outer loop
      vertex 10.5172 -2 45.1412
      vertex 11.392 2 43.7628
      vertex 11.392 -2 43.7628
    endloop
  endfacet
  facet normal -0.904827 2.57489e-016 -0.425779
    outer loop
      vertex 11.392 2 43.7628
      vertex 12.0871 2 42.2856
      vertex 11.392 -2 43.7628
    endloop
  endfacet
  facet normal -0.904827 2.57489e-016 -0.425779
    outer loop
      vertex 11.392 -2 43.7628
      vertex 12.0871 2 42.2856
      vertex 12.0871 -2 42.2856
    endloop
  endfacet
  facet normal -0.951056 2.22925e-016 -0.309017
    outer loop
      vertex 12.0871 2 42.2856
      vertex 12.5916 2 40.733
      vertex 12.0871 -2 42.2856
    endloop
  endfacet
  facet normal -0.951056 2.22925e-016 -0.309017
    outer loop
      vertex 12.0871 -2 42.2856
      vertex 12.5916 2 40.733
      vertex 12.5916 -2 40.733
    endloop
  endfacet
  facet normal 1.49966e-032 1.22461e-016 -1
    outer loop
      vertex 20.5 -2.5 33
      vertex 15.5 -2.5 33
      vertex 20.5 2.5 33
    endloop
  endfacet
  facet normal 1.49966e-032 1.22461e-016 -1
    outer loop
      vertex 20.5 2.5 33
      vertex 15.5 -2.5 33
      vertex 15.5 2.5 33
    endloop
  endfacet
  facet normal 1.49966e-032 1.22461e-016 -1
    outer loop
      vertex -20.75 2.75 41.25
      vertex -15.25 2.75 41.25
      vertex -20.75 -2.75 41.25
    endloop
  endfacet
  facet normal 1.49966e-032 1.22461e-016 -1
    outer loop
      vertex -20.75 -2.75 41.25
      vertex -15.25 2.75 41.25
      vertex -15.25 -2.75 41.25
    endloop
  endfacet
endsolid OpenSCAD_Model
