solid OpenSCAD_Model
  facet normal -1 0 0
    outer loop
      vertex -25 20 2
      vertex -25 20 -2
      vertex -25 -15 2
    endloop
  endfacet
  facet normal -1 0 0
    outer loop
      vertex -25 -25 -2
      vertex -25 -25 23
      vertex -25 -15 2
    endloop
  endfacet
  facet normal -1 0 0
    outer loop
      vertex -25 -25 -2
      vertex -25 -15 2
      vertex -25 20 -2
    endloop
  endfacet
  facet normal -1 0 0
    outer loop
      vertex -25 -15 2
      vertex -25 -25 23
      vertex -25 -15 23
    endloop
  endfacet
  facet normal 0 -1 0
    outer loop
      vertex -2.15488 -25 11.2037
      vertex -25 -25 -2
      vertex 25 -25 -2
    endloop
  endfacet
  facet normal 0 -1 0
    outer loop
      vertex -8.38314 -25 14.6277
      vertex -9.30369 -25 15.7405
      vertex -25 -25 23
    endloop
  endfacet
  facet normal 0 -1 0
    outer loop
      vertex 25 -25 23
      vertex 11.4685 -25 23
      vertex 25 -25 -2
    endloop
  endfacet
  facet normal 0 -1 0
    outer loop
      vertex 11.4685 -25 23
      vertex 11.5 -25 22.5
      vertex 25 -25 -2
    endloop
  endfacet
  facet normal 0 -1 0
    outer loop
      vertex 11.5 -25 22.5
      vertex 11.4093 -25 21.0587
      vertex 25 -25 -2
    endloop
  endfacet
  facet normal 0 -1 0
    outer loop
      vertex 11.4093 -25 21.0587
      vertex 11.1387 -25 19.6401
      vertex 25 -25 -2
    endloop
  endfacet
  facet normal 0 -1 0
    outer loop
      vertex -11.5 -25 22.5
      vertex -11.4685 -25 23
      vertex -25 -25 23
    endloop
  endfacet
  facet normal 0 -1 0
    outer loop
      vertex 11.1387 -25 19.6401
      vertex 10.6924 -25 18.2666
      vertex 25 -25 -2
    endloop
  endfacet
  facet normal 0 -1 0
    outer loop
      vertex 10.6924 -25 18.2666
      vertex 10.0775 -25 16.9598
      vertex 25 -25 -2
    endloop
  endfacet
  facet normal 0 -1 0
    outer loop
      vertex 10.0775 -25 16.9598
      vertex 9.30369 -25 15.7405
      vertex 25 -25 -2
    endloop
  endfacet
  facet normal 0 -1 0
    outer loop
      vertex 9.30369 -25 15.7405
      vertex 8.38314 -25 14.6277
      vertex 25 -25 -2
    endloop
  endfacet
  facet normal 0 -1 0
    outer loop
      vertex 8.38314 -25 14.6277
      vertex 7.33038 -25 13.6391
      vertex 25 -25 -2
    endloop
  endfacet
  facet normal 0 -1 0
    outer loop
      vertex 7.33038 -25 13.6391
      vertex 6.16201 -25 12.7902
      vertex 25 -25 -2
    endloop
  endfacet
  facet normal 0 -1 0
    outer loop
      vertex -11.1387 -25 19.6401
      vertex -11.4093 -25 21.0587
      vertex -25 -25 23
    endloop
  endfacet
  facet normal 0 -1 0
    outer loop
      vertex 6.16201 -25 12.7902
      vertex 4.89646 -25 12.0945
      vertex 25 -25 -2
    endloop
  endfacet
  facet normal 0 -1 0
    outer loop
      vertex 4.89646 -25 12.0945
      vertex 3.55369 -25 11.5629
      vertex 25 -25 -2
    endloop
  endfacet
  facet normal 0 -1 0
    outer loop
      vertex 3.55369 -25 11.5629
      vertex 2.15488 -25 11.2037
      vertex 25 -25 -2
    endloop
  endfacet
  facet normal 0 -1 0
    outer loop
      vertex 2.15488 -25 11.2037
      vertex 0.722091 -25 11.0227
      vertex 25 -25 -2
    endloop
  endfacet
  facet normal 0 -1 0
    outer loop
      vertex 0.722091 -25 11.0227
      vertex -0.722091 -25 11.0227
      vertex 25 -25 -2
    endloop
  endfacet
  facet normal 0 -1 0
    outer loop
      vertex -9.30369 -25 15.7405
      vertex -10.0775 -25 16.9598
      vertex -25 -25 23
    endloop
  endfacet
  facet normal 0 -1 0
    outer loop
      vertex -3.55369 -25 11.5629
      vertex -25 -25 -2
      vertex -2.15488 -25 11.2037
    endloop
  endfacet
  facet normal 0 -1 0
    outer loop
      vertex -4.89646 -25 12.0945
      vertex -25 -25 -2
      vertex -3.55369 -25 11.5629
    endloop
  endfacet
  facet normal 0 -1 0
    outer loop
      vertex -25 -25 23
      vertex -25 -25 -2
      vertex -4.89646 -25 12.0945
    endloop
  endfacet
  facet normal 0 -1 0
    outer loop
      vertex -7.33038 -25 13.6391
      vertex -8.38314 -25 14.6277
      vertex -25 -25 23
    endloop
  endfacet
  facet normal 0 -1 0
    outer loop
      vertex -25 -25 23
      vertex -4.89646 -25 12.0945
      vertex -6.16201 -25 12.7902
    endloop
  endfacet
  facet normal 0 -1 0
    outer loop
      vertex -6.16201 -25 12.7902
      vertex -7.33038 -25 13.6391
      vertex -25 -25 23
    endloop
  endfacet
  facet normal 0 -1 0
    outer loop
      vertex -11.4093 -25 21.0587
      vertex -11.5 -25 22.5
      vertex -25 -25 23
    endloop
  endfacet
  facet normal 0 -1 0
    outer loop
      vertex -10.0775 -25 16.9598
      vertex -10.6924 -25 18.2666
      vertex -25 -25 23
    endloop
  endfacet
  facet normal 0 -1 0
    outer loop
      vertex -0.722091 -25 11.0227
      vertex -2.15488 -25 11.2037
      vertex 25 -25 -2
    endloop
  endfacet
  facet normal 0 -1 0
    outer loop
      vertex -10.6924 -25 18.2666
      vertex -11.1387 -25 19.6401
      vertex -25 -25 23
    endloop
  endfacet
  facet normal 0 0 -1
    outer loop
      vertex -21.8265 -2.75733 -2
      vertex -25 -25 -2
      vertex -22 0 -2
    endloop
  endfacet
  facet normal 0 0 -1
    outer loop
      vertex -9.36714 19.9062 -2
      vertex -25 20 -2
      vertex -9.13022 20 -2
    endloop
  endfacet
  facet normal 0 0 -1
    outer loop
      vertex -11.7882 18.5752 -2
      vertex -25 20 -2
      vertex -9.36714 19.9062 -2
    endloop
  endfacet
  facet normal 0 0 -1
    outer loop
      vertex -14.0233 16.9513 -2
      vertex -25 20 -2
      vertex -11.7882 18.5752 -2
    endloop
  endfacet
  facet normal 0 0 -1
    outer loop
      vertex -16.0373 15.06 -2
      vertex -25 20 -2
      vertex -14.0233 16.9513 -2
    endloop
  endfacet
  facet normal 0 0 -1
    outer loop
      vertex -19.2787 10.5986 -2
      vertex -25 20 -2
      vertex -17.7984 12.9313 -2
    endloop
  endfacet
  facet normal 0 0 -1
    outer loop
      vertex -20.4551 8.09874 -2
      vertex -25 20 -2
      vertex -19.2787 10.5986 -2
    endloop
  endfacet
  facet normal 0 0 -1
    outer loop
      vertex -21.3088 5.47118 -2
      vertex -25 20 -2
      vertex -20.4551 8.09874 -2
    endloop
  endfacet
  facet normal 0 0 -1
    outer loop
      vertex -21.8265 2.75733 -2
      vertex -25 20 -2
      vertex -21.3088 5.47118 -2
    endloop
  endfacet
  facet normal 0 0 -1
    outer loop
      vertex -25 -25 -2
      vertex -25 20 -2
      vertex -21.8265 2.75733 -2
    endloop
  endfacet
  facet normal 0 0 -1
    outer loop
      vertex -25 -25 -2
      vertex -21.8265 2.75733 -2
      vertex -22 0 -2
    endloop
  endfacet
  facet normal 0 0 -1
    outer loop
      vertex -21.3088 -5.47118 -2
      vertex -25 -25 -2
      vertex -21.8265 -2.75733 -2
    endloop
  endfacet
  facet normal 0 0 -1
    outer loop
      vertex -20.4551 -8.09874 -2
      vertex -25 -25 -2
      vertex -21.3088 -5.47118 -2
    endloop
  endfacet
  facet normal 0 0 -1
    outer loop
      vertex 1.38139 -21.9566 -2
      vertex 25 -25 -2
      vertex -1.38139 -21.9566 -2
    endloop
  endfacet
  facet normal 0 0 -1
    outer loop
      vertex -25 -25 -2
      vertex -20.4551 -8.09874 -2
      vertex -19.2787 -10.5986 -2
    endloop
  endfacet
  facet normal 0 0 -1
    outer loop
      vertex -25 -25 -2
      vertex -19.2787 -10.5986 -2
      vertex -17.7984 -12.9313 -2
    endloop
  endfacet
  facet normal 0 0 -1
    outer loop
      vertex -25 -25 -2
      vertex -17.7984 -12.9313 -2
      vertex -16.0373 -15.06 -2
    endloop
  endfacet
  facet normal 0 0 -1
    outer loop
      vertex -25 -25 -2
      vertex -16.0373 -15.06 -2
      vertex -14.0233 -16.9513 -2
    endloop
  endfacet
  facet normal 0 0 -1
    outer loop
      vertex -25 -25 -2
      vertex -14.0233 -16.9513 -2
      vertex -11.7882 -18.5752 -2
    endloop
  endfacet
  facet normal 0 0 -1
    outer loop
      vertex -25 -25 -2
      vertex -11.7882 -18.5752 -2
      vertex -9.36714 -19.9062 -2
    endloop
  endfacet
  facet normal 0 0 -1
    outer loop
      vertex -25 -25 -2
      vertex -9.36714 -19.9062 -2
      vertex -6.79837 -20.9232 -2
    endloop
  endfacet
  facet normal 0 0 -1
    outer loop
      vertex -25 -25 -2
      vertex -6.79837 -20.9232 -2
      vertex -4.12239 -21.6103 -2
    endloop
  endfacet
  facet normal 0 0 -1
    outer loop
      vertex -25 -25 -2
      vertex -4.12239 -21.6103 -2
      vertex -1.38139 -21.9566 -2
    endloop
  endfacet
  facet normal 0 0 -1
    outer loop
      vertex -25 -25 -2
      vertex -1.38139 -21.9566 -2
      vertex 25 -25 -2
    endloop
  endfacet
  facet normal 0 0 -1
    outer loop
      vertex 4.12239 -21.6103 -2
      vertex 25 -25 -2
      vertex 1.38139 -21.9566 -2
    endloop
  endfacet
  facet normal 0 0 -1
    outer loop
      vertex 6.79837 -20.9232 -2
      vertex 25 -25 -2
      vertex 4.12239 -21.6103 -2
    endloop
  endfacet
  facet normal 0 0 -1
    outer loop
      vertex 9.36714 -19.9062 -2
      vertex 25 -25 -2
      vertex 6.79837 -20.9232 -2
    endloop
  endfacet
  facet normal 0 0 -1
    outer loop
      vertex 11.7882 -18.5752 -2
      vertex 25 -25 -2
      vertex 9.36714 -19.9062 -2
    endloop
  endfacet
  facet normal 0 0 -1
    outer loop
      vertex 16.0373 -15.06 -2
      vertex 25 -25 -2
      vertex 14.0233 -16.9513 -2
    endloop
  endfacet
  facet normal 0 0 -1
    outer loop
      vertex 11.7882 -18.5752 -2
      vertex 14.0233 -16.9513 -2
      vertex 25 -25 -2
    endloop
  endfacet
  facet normal 0 0 -1
    outer loop
      vertex 17.7984 -12.9313 -2
      vertex 25 -25 -2
      vertex 16.0373 -15.06 -2
    endloop
  endfacet
  facet normal 0 0 -1
    outer loop
      vertex 25 -25 -2
      vertex 17.7984 -12.9313 -2
      vertex 19.2787 -10.5986 -2
    endloop
  endfacet
  facet normal 0 0 -1
    outer loop
      vertex 19.2787 -10.5986 -2
      vertex 20.4551 -8.09874 -2
      vertex 25 -25 -2
    endloop
  endfacet
  facet normal 0 0 -1
    outer loop
      vertex 20.4551 -8.09874 -2
      vertex 21.3088 -5.47118 -2
      vertex 25 -25 -2
    endloop
  endfacet
  facet normal 0 0 -1
    outer loop
      vertex 21.3088 -5.47118 -2
      vertex 21.8265 -2.75733 -2
      vertex 25 -25 -2
    endloop
  endfacet
  facet normal 0 0 -1
    outer loop
      vertex 21.8265 -2.75733 -2
      vertex 22 0 -2
      vertex 25 -25 -2
    endloop
  endfacet
  facet normal 0 0 -1
    outer loop
      vertex 22 0 -2
      vertex 21.8265 2.75733 -2
      vertex 25 -25 -2
    endloop
  endfacet
  facet normal 0 0 -1
    outer loop
      vertex 21.8265 2.75733 -2
      vertex 25 20 -2
      vertex 25 -25 -2
    endloop
  endfacet
  facet normal 0 0 -1
    outer loop
      vertex 21.3088 5.47118 -2
      vertex 25 20 -2
      vertex 21.8265 2.75733 -2
    endloop
  endfacet
  facet normal 0 0 -1
    outer loop
      vertex 20.4551 8.09874 -2
      vertex 25 20 -2
      vertex 21.3088 5.47118 -2
    endloop
  endfacet
  facet normal 0 0 -1
    outer loop
      vertex 19.2787 10.5986 -2
      vertex 25 20 -2
      vertex 20.4551 8.09874 -2
    endloop
  endfacet
  facet normal 0 0 -1
    outer loop
      vertex 17.7984 12.9313 -2
      vertex 25 20 -2
      vertex 19.2787 10.5986 -2
    endloop
  endfacet
  facet normal 0 0 -1
    outer loop
      vertex 16.0373 15.06 -2
      vertex 25 20 -2
      vertex 17.7984 12.9313 -2
    endloop
  endfacet
  facet normal 0 0 -1
    outer loop
      vertex 14.0233 16.9513 -2
      vertex 25 20 -2
      vertex 16.0373 15.06 -2
    endloop
  endfacet
  facet normal 0 0 -1
    outer loop
      vertex 11.7882 18.5752 -2
      vertex 25 20 -2
      vertex 14.0233 16.9513 -2
    endloop
  endfacet
  facet normal 0 0 -1
    outer loop
      vertex 9.36714 19.9062 -2
      vertex 9.13022 20 -2
      vertex 25 20 -2
    endloop
  endfacet
  facet normal 0 0 -1
    outer loop
      vertex 9.36714 19.9062 -2
      vertex 25 20 -2
      vertex 11.7882 18.5752 -2
    endloop
  endfacet
  facet normal 0 0 -1
    outer loop
      vertex -17.7984 12.9313 -2
      vertex -25 20 -2
      vertex -16.0373 15.06 -2
    endloop
  endfacet
  facet normal 0 1 0
    outer loop
      vertex -25 20 -2
      vertex -25 20 2
      vertex -9.13022 20 -2
    endloop
  endfacet
  facet normal 0 1 0
    outer loop
      vertex -9.13022 20 0
      vertex -25 20 2
      vertex 25 20 2
    endloop
  endfacet
  facet normal 0 1 0
    outer loop
      vertex 9.13022 20 -2
      vertex 25 20 2
      vertex 25 20 -2
    endloop
  endfacet
  facet normal 0 1 0
    outer loop
      vertex 9.13022 20 0
      vertex 25 20 2
      vertex 9.13022 20 -2
    endloop
  endfacet
  facet normal 0 1 0
    outer loop
      vertex -9.13022 20 -2
      vertex -25 20 2
      vertex -9.13022 20 0
    endloop
  endfacet
  facet normal 0 1 0
    outer loop
      vertex -9.13022 20 0
      vertex 25 20 2
      vertex 9.13022 20 0
    endloop
  endfacet
  facet normal 0 0 1
    outer loop
      vertex 1.9675 -10.314 2
      vertex -25 -15 2
      vertex 25 -15 2
    endloop
  endfacet
  facet normal 0 0 1
    outer loop
      vertex 0.6593 -10.4793 2
      vertex -0.6593 -10.4793 2
      vertex -25 -15 2
    endloop
  endfacet
  facet normal 0 0 1
    outer loop
      vertex -25 20 2
      vertex -25 -15 2
      vertex -10.4172 -1.316 2
    endloop
  endfacet
  facet normal 0 0 1
    outer loop
      vertex -0.6593 -10.4793 2
      vertex -1.9675 -10.314 2
      vertex -25 -15 2
    endloop
  endfacet
  facet normal 0 0 1
    outer loop
      vertex -25 20 2
      vertex -10.4172 -1.316 2
      vertex -10.5 0 2
    endloop
  endfacet
  facet normal 0 0 1
    outer loop
      vertex -25 20 2
      vertex -10.5 0 2
      vertex -10.4172 1.316 2
    endloop
  endfacet
  facet normal 0 0 1
    outer loop
      vertex 7.65417 -7.18774 2
      vertex 6.69295 -8.09039 2
      vertex 25 -15 2
    endloop
  endfacet
  facet normal 0 0 1
    outer loop
      vertex -25 20 2
      vertex -10.4172 1.316 2
      vertex -10.1701 2.61124 2
    endloop
  endfacet
  facet normal 0 0 1
    outer loop
      vertex -25 20 2
      vertex -10.1701 2.61124 2
      vertex -9.76265 3.86531 2
    endloop
  endfacet
  facet normal 0 0 1
    outer loop
      vertex 8.49468 -6.17174 2
      vertex 7.65417 -7.18774 2
      vertex 25 -15 2
    endloop
  endfacet
  facet normal 0 0 1
    outer loop
      vertex -25 20 2
      vertex -9.76265 3.86531 2
      vertex -9.20122 5.05841 2
    endloop
  endfacet
  facet normal 0 0 1
    outer loop
      vertex -25 20 2
      vertex -9.20122 5.05841 2
      vertex -8.49468 6.17174 2
    endloop
  endfacet
  facet normal 0 0 1
    outer loop
      vertex -3.24468 9.98609 2
      vertex -1.9675 10.314 2
      vertex 25 20 2
    endloop
  endfacet
  facet normal 0 0 1
    outer loop
      vertex -25 20 2
      vertex -8.49468 6.17174 2
      vertex -7.65417 7.18774 2
    endloop
  endfacet
  facet normal 0 0 1
    outer loop
      vertex -5.62618 8.86544 2
      vertex -25 20 2
      vertex -6.69295 8.09039 2
    endloop
  endfacet
  facet normal 0 0 1
    outer loop
      vertex -4.47068 9.50068 2
      vertex -25 20 2
      vertex -5.62618 8.86544 2
    endloop
  endfacet
  facet normal 0 0 1
    outer loop
      vertex -3.24468 9.98609 2
      vertex -25 20 2
      vertex -4.47068 9.50068 2
    endloop
  endfacet
  facet normal 0 0 1
    outer loop
      vertex -1.9675 10.314 2
      vertex -0.6593 10.4793 2
      vertex 25 20 2
    endloop
  endfacet
  facet normal 0 0 1
    outer loop
      vertex 25 20 2
      vertex -25 20 2
      vertex -3.24468 9.98609 2
    endloop
  endfacet
  facet normal 0 0 1
    outer loop
      vertex -0.6593 10.4793 2
      vertex 0.6593 10.4793 2
      vertex 25 20 2
    endloop
  endfacet
  facet normal 0 0 1
    outer loop
      vertex 8.49468 6.17174 2
      vertex 9.20122 5.05841 2
      vertex 25 -15 2
    endloop
  endfacet
  facet normal 0 0 1
    outer loop
      vertex 25 20 2
      vertex 0.6593 10.4793 2
      vertex 1.9675 10.314 2
    endloop
  endfacet
  facet normal 0 0 1
    outer loop
      vertex 25 20 2
      vertex 1.9675 10.314 2
      vertex 3.24468 9.98609 2
    endloop
  endfacet
  facet normal 0 0 1
    outer loop
      vertex 10.1701 2.61124 2
      vertex 10.4172 1.316 2
      vertex 25 -15 2
    endloop
  endfacet
  facet normal 0 0 1
    outer loop
      vertex 25 20 2
      vertex 3.24468 9.98609 2
      vertex 4.47068 9.50068 2
    endloop
  endfacet
  facet normal 0 0 1
    outer loop
      vertex 10.4172 1.316 2
      vertex 10.5 0 2
      vertex 25 -15 2
    endloop
  endfacet
  facet normal 0 0 1
    outer loop
      vertex 25 20 2
      vertex 4.47068 9.50068 2
      vertex 5.62618 8.86544 2
    endloop
  endfacet
  facet normal 0 0 1
    outer loop
      vertex 25 20 2
      vertex 5.62618 8.86544 2
      vertex 6.69295 8.09039 2
    endloop
  endfacet
  facet normal 0 0 1
    outer loop
      vertex 9.20122 5.05841 2
      vertex 9.76265 3.86531 2
      vertex 25 -15 2
    endloop
  endfacet
  facet normal 0 0 1
    outer loop
      vertex 25 20 2
      vertex 6.69295 8.09039 2
      vertex 7.65417 7.18774 2
    endloop
  endfacet
  facet normal 0 0 1
    outer loop
      vertex 25 20 2
      vertex 8.49468 6.17174 2
      vertex 25 -15 2
    endloop
  endfacet
  facet normal 0 0 1
    outer loop
      vertex 25 20 2
      vertex 7.65417 7.18774 2
      vertex 8.49468 6.17174 2
    endloop
  endfacet
  facet normal 0 0 1
    outer loop
      vertex 10.5 0 2
      vertex 10.4172 -1.316 2
      vertex 25 -15 2
    endloop
  endfacet
  facet normal 0 0 1
    outer loop
      vertex 10.4172 -1.316 2
      vertex 10.1701 -2.61124 2
      vertex 25 -15 2
    endloop
  endfacet
  facet normal 0 0 1
    outer loop
      vertex 10.1701 -2.61124 2
      vertex 9.76265 -3.86531 2
      vertex 25 -15 2
    endloop
  endfacet
  facet normal 0 0 1
    outer loop
      vertex 6.69295 -8.09039 2
      vertex 5.62618 -8.86544 2
      vertex 25 -15 2
    endloop
  endfacet
  facet normal 0 0 1
    outer loop
      vertex 5.62618 -8.86544 2
      vertex 4.47068 -9.50068 2
      vertex 25 -15 2
    endloop
  endfacet
  facet normal 0 0 1
    outer loop
      vertex -1.9675 -10.314 2
      vertex -3.24468 -9.98609 2
      vertex -25 -15 2
    endloop
  endfacet
  facet normal 0 0 1
    outer loop
      vertex 4.47068 -9.50068 2
      vertex 3.24468 -9.98609 2
      vertex 25 -15 2
    endloop
  endfacet
  facet normal 0 0 1
    outer loop
      vertex 3.24468 -9.98609 2
      vertex 1.9675 -10.314 2
      vertex 25 -15 2
    endloop
  endfacet
  facet normal 0 0 1
    outer loop
      vertex 0.6593 -10.4793 2
      vertex -25 -15 2
      vertex 1.9675 -10.314 2
    endloop
  endfacet
  facet normal 0 0 1
    outer loop
      vertex -4.47068 -9.50068 2
      vertex -25 -15 2
      vertex -3.24468 -9.98609 2
    endloop
  endfacet
  facet normal 0 0 1
    outer loop
      vertex -5.62618 -8.86544 2
      vertex -25 -15 2
      vertex -4.47068 -9.50068 2
    endloop
  endfacet
  facet normal 0 0 1
    outer loop
      vertex -6.69295 -8.09039 2
      vertex -25 -15 2
      vertex -5.62618 -8.86544 2
    endloop
  endfacet
  facet normal 0 0 1
    outer loop
      vertex -7.65417 -7.18774 2
      vertex -25 -15 2
      vertex -6.69295 -8.09039 2
    endloop
  endfacet
  facet normal 0 0 1
    outer loop
      vertex -8.49468 -6.17174 2
      vertex -25 -15 2
      vertex -7.65417 -7.18774 2
    endloop
  endfacet
  facet normal 0 0 1
    outer loop
      vertex -9.20122 -5.05841 2
      vertex -25 -15 2
      vertex -8.49468 -6.17174 2
    endloop
  endfacet
  facet normal 0 0 1
    outer loop
      vertex -9.76265 -3.86531 2
      vertex -25 -15 2
      vertex -9.20122 -5.05841 2
    endloop
  endfacet
  facet normal 0 0 1
    outer loop
      vertex -10.1701 -2.61124 2
      vertex -25 -15 2
      vertex -9.76265 -3.86531 2
    endloop
  endfacet
  facet normal 0 0 1
    outer loop
      vertex -10.4172 -1.316 2
      vertex -25 -15 2
      vertex -10.1701 -2.61124 2
    endloop
  endfacet
  facet normal 0 0 1
    outer loop
      vertex 9.20122 -5.05841 2
      vertex 8.49468 -6.17174 2
      vertex 25 -15 2
    endloop
  endfacet
  facet normal 0 0 1
    outer loop
      vertex -7.65417 7.18774 2
      vertex -6.69295 8.09039 2
      vertex -25 20 2
    endloop
  endfacet
  facet normal 0 0 1
    outer loop
      vertex 9.76265 3.86531 2
      vertex 10.1701 2.61124 2
      vertex 25 -15 2
    endloop
  endfacet
  facet normal 0 0 1
    outer loop
      vertex 9.76265 -3.86531 2
      vertex 9.20122 -5.05841 2
      vertex 25 -15 2
    endloop
  endfacet
  facet normal 0 1 0
    outer loop
      vertex -11.5 -15 22.5
      vertex -25 -15 23
      vertex -11.4685 -15 23
    endloop
  endfacet
  facet normal 0 1 0
    outer loop
      vertex -11.4093 -15 21.0587
      vertex -25 -15 23
      vertex -11.5 -15 22.5
    endloop
  endfacet
  facet normal 0 1 0
    outer loop
      vertex -11.1387 -15 19.6401
      vertex -25 -15 23
      vertex -11.4093 -15 21.0587
    endloop
  endfacet
  facet normal 0 1 0
    outer loop
      vertex -10.6924 -15 18.2666
      vertex -25 -15 23
      vertex -11.1387 -15 19.6401
    endloop
  endfacet
  facet normal 0 1 0
    outer loop
      vertex -10.0775 -15 16.9598
      vertex -25 -15 23
      vertex -10.6924 -15 18.2666
    endloop
  endfacet
  facet normal 0 1 0
    outer loop
      vertex -25 -15 2
      vertex -25 -15 23
      vertex -9.30369 -15 15.7405
    endloop
  endfacet
  facet normal 0 1 0
    outer loop
      vertex -25 -15 2
      vertex -9.30369 -15 15.7405
      vertex -8.38314 -15 14.6277
    endloop
  endfacet
  facet normal 0 1 0
    outer loop
      vertex -25 -15 2
      vertex -8.38314 -15 14.6277
      vertex -7.33038 -15 13.6391
    endloop
  endfacet
  facet normal 0 1 0
    outer loop
      vertex -25 -15 2
      vertex -7.33038 -15 13.6391
      vertex -6.16201 -15 12.7902
    endloop
  endfacet
  facet normal 0 1 0
    outer loop
      vertex -25 -15 2
      vertex -6.16201 -15 12.7902
      vertex -4.89646 -15 12.0945
    endloop
  endfacet
  facet normal 0 1 0
    outer loop
      vertex -25 -15 2
      vertex -4.89646 -15 12.0945
      vertex -3.55369 -15 11.5628
    endloop
  endfacet
  facet normal 0 1 0
    outer loop
      vertex -25 -15 2
      vertex -3.55369 -15 11.5628
      vertex 25 -15 2
    endloop
  endfacet
  facet normal 0 1 0
    outer loop
      vertex -0.722091 -15 11.0227
      vertex 25 -15 2
      vertex -2.15488 -15 11.2037
    endloop
  endfacet
  facet normal 0 1 0
    outer loop
      vertex 0.722091 -15 11.0227
      vertex 25 -15 2
      vertex -0.722091 -15 11.0227
    endloop
  endfacet
  facet normal 0 1 0
    outer loop
      vertex 2.15488 -15 11.2037
      vertex 25 -15 2
      vertex 0.722091 -15 11.0227
    endloop
  endfacet
  facet normal 0 1 0
    outer loop
      vertex -2.15488 -15 11.2037
      vertex 25 -15 2
      vertex -3.55369 -15 11.5628
    endloop
  endfacet
  facet normal 0 1 0
    outer loop
      vertex 3.55369 -15 11.5628
      vertex 25 -15 2
      vertex 2.15488 -15 11.2037
    endloop
  endfacet
  facet normal 0 1 0
    outer loop
      vertex 4.89646 -15 12.0945
      vertex 25 -15 2
      vertex 3.55369 -15 11.5628
    endloop
  endfacet
  facet normal 0 1 0
    outer loop
      vertex 6.16201 -15 12.7902
      vertex 25 -15 2
      vertex 4.89646 -15 12.0945
    endloop
  endfacet
  facet normal 0 1 0
    outer loop
      vertex 7.33038 -15 13.6391
      vertex 25 -15 2
      vertex 6.16201 -15 12.7902
    endloop
  endfacet
  facet normal 0 1 0
    outer loop
      vertex 25 -15 2
      vertex 7.33038 -15 13.6391
      vertex 8.38314 -15 14.6277
    endloop
  endfacet
  facet normal 0 1 0
    outer loop
      vertex 8.38314 -15 14.6277
      vertex 9.30369 -15 15.7405
      vertex 25 -15 2
    endloop
  endfacet
  facet normal 0 1 0
    outer loop
      vertex 9.30369 -15 15.7405
      vertex 10.0775 -15 16.9598
      vertex 25 -15 2
    endloop
  endfacet
  facet normal 0 1 0
    outer loop
      vertex 10.0775 -15 16.9598
      vertex 10.6924 -15 18.2666
      vertex 25 -15 2
    endloop
  endfacet
  facet normal 0 1 0
    outer loop
      vertex 10.6924 -15 18.2666
      vertex 11.1387 -15 19.6401
      vertex 25 -15 2
    endloop
  endfacet
  facet normal 0 1 0
    outer loop
      vertex 11.1387 -15 19.6401
      vertex 11.4093 -15 21.0587
      vertex 25 -15 2
    endloop
  endfacet
  facet normal 0 1 0
    outer loop
      vertex 11.4093 -15 21.0587
      vertex 11.5 -15 22.5
      vertex 25 -15 2
    endloop
  endfacet
  facet normal 0 1 0
    outer loop
      vertex 11.5 -15 22.5
      vertex 11.4685 -15 23
      vertex 25 -15 2
    endloop
  endfacet
  facet normal 0 1 0
    outer loop
      vertex 25 -15 2
      vertex 11.4685 -15 23
      vertex 25 -15 23
    endloop
  endfacet
  facet normal 0 1 0
    outer loop
      vertex -9.30369 -15 15.7405
      vertex -25 -15 23
      vertex -10.0775 -15 16.9598
    endloop
  endfacet
  facet normal 0 0 1
    outer loop
      vertex -20.5 -22.5 23
      vertex -25 -25 23
      vertex -11.4685 -25 23
    endloop
  endfacet
  facet normal 0 0 1
    outer loop
      vertex -15.5 -22.5 23
      vertex -20.5 -22.5 23
      vertex -11.4685 -25 23
    endloop
  endfacet
  facet normal 0 0 1
    outer loop
      vertex -25 -15 23
      vertex -25 -25 23
      vertex -20.5 -22.5 23
    endloop
  endfacet
  facet normal 0 0 1
    outer loop
      vertex -11.4685 -15 23
      vertex -25 -15 23
      vertex -20.5 -17.5 23
    endloop
  endfacet
  facet normal 0 0 1
    outer loop
      vertex -11.4685 -15 23
      vertex -15.5 -17.5 23
      vertex -11.4685 -25 23
    endloop
  endfacet
  facet normal 0 0 1
    outer loop
      vertex -11.4685 -15 23
      vertex -20.5 -17.5 23
      vertex -15.5 -17.5 23
    endloop
  endfacet
  facet normal 0 0 1
    outer loop
      vertex -15.5 -17.5 23
      vertex -15.5 -22.5 23
      vertex -11.4685 -25 23
    endloop
  endfacet
  facet normal 0 0 1
    outer loop
      vertex -20.5 -22.5 23
      vertex -20.5 -17.5 23
      vertex -25 -15 23
    endloop
  endfacet
  facet normal 0.998027 -1.39423e-017 -0.0627906
    outer loop
      vertex -11.5 -15 22.5
      vertex -11.4685 -15 23
      vertex -11.4685 -25 23
    endloop
  endfacet
  facet normal 0.998027 -1.39423e-017 -0.0627906
    outer loop
      vertex -11.5 -25 22.5
      vertex -11.5 -15 22.5
      vertex -11.4685 -25 23
    endloop
  endfacet
  facet normal 0.998027 1.39423e-017 0.0627906
    outer loop
      vertex -11.4093 -25 21.0587
      vertex -11.4093 -15 21.0587
      vertex -11.5 -15 22.5
    endloop
  endfacet
  facet normal 0.998027 1.39423e-017 0.0627906
    outer loop
      vertex -11.5 -25 22.5
      vertex -11.4093 -25 21.0587
      vertex -11.5 -15 22.5
    endloop
  endfacet
  facet normal 0.982287 4.1607e-017 0.187381
    outer loop
      vertex -11.1387 -25 19.6401
      vertex -11.1387 -15 19.6401
      vertex -11.4093 -15 21.0587
    endloop
  endfacet
  facet normal 0.982287 4.1607e-017 0.187381
    outer loop
      vertex -11.4093 -25 21.0587
      vertex -11.1387 -25 19.6401
      vertex -11.4093 -15 21.0587
    endloop
  endfacet
  facet normal 0.951057 6.86155e-017 0.309017
    outer loop
      vertex -10.6924 -25 18.2666
      vertex -10.6924 -15 18.2666
      vertex -11.1387 -15 19.6401
    endloop
  endfacet
  facet normal 0.951057 6.86155e-017 0.309017
    outer loop
      vertex -11.1387 -25 19.6401
      vertex -10.6924 -25 18.2666
      vertex -11.1387 -15 19.6401
    endloop
  endfacet
  facet normal 0.904827 9.4542e-017 0.425779
    outer loop
      vertex -10.0775 -25 16.9598
      vertex -10.0775 -15 16.9598
      vertex -10.6924 -15 18.2666
    endloop
  endfacet
  facet normal 0.904827 9.4542e-017 0.425779
    outer loop
      vertex -10.6924 -25 18.2666
      vertex -10.0775 -25 16.9598
      vertex -10.6924 -15 18.2666
    endloop
  endfacet
  facet normal 0.844328 1.18978e-016 0.535827
    outer loop
      vertex -9.30369 -25 15.7405
      vertex -9.30369 -15 15.7405
      vertex -10.0775 -15 16.9598
    endloop
  endfacet
  facet normal 0.844328 1.18978e-016 0.535827
    outer loop
      vertex -10.0775 -25 16.9598
      vertex -9.30369 -25 15.7405
      vertex -10.0775 -15 16.9598
    endloop
  endfacet
  facet normal 0.770514 1.41536e-016 0.637424
    outer loop
      vertex -8.38314 -25 14.6277
      vertex -8.38314 -15 14.6277
      vertex -9.30369 -15 15.7405
    endloop
  endfacet
  facet normal 0.770514 1.41536e-016 0.637424
    outer loop
      vertex -9.30369 -25 15.7405
      vertex -8.38314 -25 14.6277
      vertex -9.30369 -15 15.7405
    endloop
  endfacet
  facet normal 0.684547 1.61864e-016 0.728969
    outer loop
      vertex -7.33038 -25 13.6391
      vertex -7.33038 -15 13.6391
      vertex -8.38314 -15 14.6277
    endloop
  endfacet
  facet normal 0.684547 1.61864e-016 0.728969
    outer loop
      vertex -8.38314 -25 14.6277
      vertex -7.33038 -25 13.6391
      vertex -8.38314 -15 14.6277
    endloop
  endfacet
  facet normal 0.587785 1.79638e-016 0.809017
    outer loop
      vertex -6.16201 -25 12.7902
      vertex -6.16201 -15 12.7902
      vertex -7.33038 -15 13.6391
    endloop
  endfacet
  facet normal 0.587785 1.79638e-016 0.809017
    outer loop
      vertex -7.33038 -25 13.6391
      vertex -6.16201 -25 12.7902
      vertex -7.33038 -15 13.6391
    endloop
  endfacet
  facet normal 0.481754 1.94579e-016 0.876307
    outer loop
      vertex -4.89646 -25 12.0945
      vertex -4.89646 -15 12.0945
      vertex -6.16201 -15 12.7902
    endloop
  endfacet
  facet normal 0.481754 1.94579e-016 0.876307
    outer loop
      vertex -6.16201 -25 12.7902
      vertex -4.89646 -25 12.0945
      vertex -6.16201 -15 12.7902
    endloop
  endfacet
  facet normal 0.368125 2.06452e-016 0.929777
    outer loop
      vertex -3.55369 -25 11.5629
      vertex -3.55369 -15 11.5628
      vertex -4.89646 -15 12.0945
    endloop
  endfacet
  facet normal 0.368125 2.06452e-016 0.929777
    outer loop
      vertex -4.89646 -25 12.0945
      vertex -3.55369 -25 11.5629
      vertex -4.89646 -15 12.0945
    endloop
  endfacet
  facet normal 0.24869 2.15069e-016 0.968583
    outer loop
      vertex -2.15488 -25 11.2037
      vertex -2.15488 -15 11.2037
      vertex -3.55369 -15 11.5628
    endloop
  endfacet
  facet normal 0.24869 2.15069e-016 0.968583
    outer loop
      vertex -3.55369 -25 11.5629
      vertex -2.15488 -25 11.2037
      vertex -3.55369 -15 11.5628
    endloop
  endfacet
  facet normal 0.125333 2.20294e-016 0.992115
    outer loop
      vertex -0.722091 -25 11.0227
      vertex -0.722091 -15 11.0227
      vertex -2.15488 -15 11.2037
    endloop
  endfacet
  facet normal 0.125333 2.20294e-016 0.992115
    outer loop
      vertex -2.15488 -25 11.2037
      vertex -0.722091 -25 11.0227
      vertex -2.15488 -15 11.2037
    endloop
  endfacet
  facet normal 0 2.22045e-016 1
    outer loop
      vertex 0.722091 -25 11.0227
      vertex 0.722091 -15 11.0227
      vertex -0.722091 -15 11.0227
    endloop
  endfacet
  facet normal 0 2.22045e-016 1
    outer loop
      vertex -0.722091 -25 11.0227
      vertex 0.722091 -25 11.0227
      vertex -0.722091 -15 11.0227
    endloop
  endfacet
  facet normal -0.125333 2.20294e-016 0.992115
    outer loop
      vertex 2.15488 -25 11.2037
      vertex 2.15488 -15 11.2037
      vertex 0.722091 -15 11.0227
    endloop
  endfacet
  facet normal -0.125333 2.20294e-016 0.992115
    outer loop
      vertex 0.722091 -25 11.0227
      vertex 2.15488 -25 11.2037
      vertex 0.722091 -15 11.0227
    endloop
  endfacet
  facet normal -0.24869 2.15069e-016 0.968583
    outer loop
      vertex 3.55369 -25 11.5629
      vertex 3.55369 -15 11.5628
      vertex 2.15488 -15 11.2037
    endloop
  endfacet
  facet normal -0.24869 2.15069e-016 0.968583
    outer loop
      vertex 2.15488 -25 11.2037
      vertex 3.55369 -25 11.5629
      vertex 2.15488 -15 11.2037
    endloop
  endfacet
  facet normal -0.368125 2.06452e-016 0.929777
    outer loop
      vertex 4.89646 -25 12.0945
      vertex 4.89646 -15 12.0945
      vertex 3.55369 -15 11.5628
    endloop
  endfacet
  facet normal -0.368125 2.06452e-016 0.929777
    outer loop
      vertex 3.55369 -25 11.5629
      vertex 4.89646 -25 12.0945
      vertex 3.55369 -15 11.5628
    endloop
  endfacet
  facet normal -0.481754 1.94579e-016 0.876307
    outer loop
      vertex 6.16201 -25 12.7902
      vertex 6.16201 -15 12.7902
      vertex 4.89646 -15 12.0945
    endloop
  endfacet
  facet normal -0.481754 1.94579e-016 0.876307
    outer loop
      vertex 4.89646 -25 12.0945
      vertex 6.16201 -25 12.7902
      vertex 4.89646 -15 12.0945
    endloop
  endfacet
  facet normal -0.587785 1.79638e-016 0.809017
    outer loop
      vertex 7.33038 -25 13.6391
      vertex 7.33038 -15 13.6391
      vertex 6.16201 -15 12.7902
    endloop
  endfacet
  facet normal -0.587785 1.79638e-016 0.809017
    outer loop
      vertex 6.16201 -25 12.7902
      vertex 7.33038 -25 13.6391
      vertex 6.16201 -15 12.7902
    endloop
  endfacet
  facet normal -0.684547 1.61864e-016 0.728969
    outer loop
      vertex 8.38314 -25 14.6277
      vertex 8.38314 -15 14.6277
      vertex 7.33038 -15 13.6391
    endloop
  endfacet
  facet normal -0.684547 1.61864e-016 0.728969
    outer loop
      vertex 7.33038 -25 13.6391
      vertex 8.38314 -25 14.6277
      vertex 7.33038 -15 13.6391
    endloop
  endfacet
  facet normal -0.770514 1.41536e-016 0.637424
    outer loop
      vertex 9.30369 -15 15.7405
      vertex 8.38314 -15 14.6277
      vertex 9.30369 -25 15.7405
    endloop
  endfacet
  facet normal -0.770514 1.41536e-016 0.637424
    outer loop
      vertex 9.30369 -25 15.7405
      vertex 8.38314 -15 14.6277
      vertex 8.38314 -25 14.6277
    endloop
  endfacet
  facet normal -0.844328 1.18978e-016 0.535827
    outer loop
      vertex 10.0775 -15 16.9598
      vertex 9.30369 -15 15.7405
      vertex 10.0775 -25 16.9598
    endloop
  endfacet
  facet normal -0.844328 1.18978e-016 0.535827
    outer loop
      vertex 10.0775 -25 16.9598
      vertex 9.30369 -15 15.7405
      vertex 9.30369 -25 15.7405
    endloop
  endfacet
  facet normal -0.904827 9.4542e-017 0.425779
    outer loop
      vertex 10.6924 -15 18.2666
      vertex 10.0775 -15 16.9598
      vertex 10.6924 -25 18.2666
    endloop
  endfacet
  facet normal -0.904827 9.4542e-017 0.425779
    outer loop
      vertex 10.6924 -25 18.2666
      vertex 10.0775 -15 16.9598
      vertex 10.0775 -25 16.9598
    endloop
  endfacet
  facet normal -0.951057 6.86155e-017 0.309017
    outer loop
      vertex 11.1387 -15 19.6401
      vertex 10.6924 -15 18.2666
      vertex 11.1387 -25 19.6401
    endloop
  endfacet
  facet normal -0.951057 6.86155e-017 0.309017
    outer loop
      vertex 11.1387 -25 19.6401
      vertex 10.6924 -15 18.2666
      vertex 10.6924 -25 18.2666
    endloop
  endfacet
  facet normal -0.982287 4.1607e-017 0.187381
    outer loop
      vertex 11.4093 -15 21.0587
      vertex 11.1387 -15 19.6401
      vertex 11.4093 -25 21.0587
    endloop
  endfacet
  facet normal -0.982287 4.1607e-017 0.187381
    outer loop
      vertex 11.4093 -25 21.0587
      vertex 11.1387 -15 19.6401
      vertex 11.1387 -25 19.6401
    endloop
  endfacet
  facet normal -0.998027 1.39423e-017 0.0627906
    outer loop
      vertex 11.5 -15 22.5
      vertex 11.4093 -15 21.0587
      vertex 11.5 -25 22.5
    endloop
  endfacet
  facet normal -0.998027 1.39423e-017 0.0627906
    outer loop
      vertex 11.5 -25 22.5
      vertex 11.4093 -15 21.0587
      vertex 11.4093 -25 21.0587
    endloop
  endfacet
  facet normal -0.998027 -1.39423e-017 -0.0627906
    outer loop
      vertex 11.5 -25 22.5
      vertex 11.4685 -25 23
      vertex 11.5 -15 22.5
    endloop
  endfacet
  facet normal -0.998027 -1.39423e-017 -0.0627906
    outer loop
      vertex 11.5 -15 22.5
      vertex 11.4685 -25 23
      vertex 11.4685 -15 23
    endloop
  endfacet
  facet normal 0 0 1
    outer loop
      vertex 15.25 -17.25 23
      vertex 11.4685 -15 23
      vertex 11.4685 -25 23
    endloop
  endfacet
  facet normal 0 0 1
    outer loop
      vertex 25 -25 23
      vertex 15.25 -22.75 23
      vertex 11.4685 -25 23
    endloop
  endfacet
  facet normal 0 0 1
    outer loop
      vertex 25 -15 23
      vertex 11.4685 -15 23
      vertex 15.25 -17.25 23
    endloop
  endfacet
  facet normal 0 0 1
    outer loop
      vertex 20.75 -17.25 23
      vertex 20.75 -22.75 23
      vertex 25 -15 23
    endloop
  endfacet
  facet normal 0 0 1
    outer loop
      vertex 25 -15 23
      vertex 15.25 -17.25 23
      vertex 20.75 -17.25 23
    endloop
  endfacet
  facet normal 0 0 1
    outer loop
      vertex 25 -25 23
      vertex 20.75 -22.75 23
      vertex 15.25 -22.75 23
    endloop
  endfacet
  facet normal 0 0 1
    outer loop
      vertex 25 -25 23
      vertex 25 -15 23
      vertex 20.75 -22.75 23
    endloop
  endfacet
  facet normal 0 0 1
    outer loop
      vertex 15.25 -22.75 23
      vertex 15.25 -17.25 23
      vertex 11.4685 -25 23
    endloop
  endfacet
  facet normal 1 0 0
    outer loop
      vertex 25 -15 2
      vertex 25 -25 -2
      vertex 25 20 -2
    endloop
  endfacet
  facet normal 1 0 0
    outer loop
      vertex 25 -15 2
      vertex 25 -15 23
      vertex 25 -25 23
    endloop
  endfacet
  facet normal 1 0 0
    outer loop
      vertex 25 -25 23
      vertex 25 -25 -2
      vertex 25 -15 2
    endloop
  endfacet
  facet normal 1 0 0
    outer loop
      vertex 25 20 2
      vertex 25 -15 2
      vertex 25 20 -2
    endloop
  endfacet
  facet normal 0.368125 0.929776 0
    outer loop
      vertex 6.79837 20.9232 -4
      vertex 6.79837 20.9232 0
      vertex 9.36714 19.9062 -4
    endloop
  endfacet
  facet normal 0.368125 0.929776 0
    outer loop
      vertex 9.13022 20 -2
      vertex 6.79837 20.9232 0
      vertex 9.13022 20 0
    endloop
  endfacet
  facet normal 0.368125 0.929776 0
    outer loop
      vertex 9.36714 19.9062 -4
      vertex 6.79837 20.9232 0
      vertex 9.13022 20 -2
    endloop
  endfacet
  facet normal 0.368125 0.929776 0
    outer loop
      vertex 9.36714 19.9062 -2
      vertex 9.36714 19.9062 -4
      vertex 9.13022 20 -2
    endloop
  endfacet
  facet normal 0.481754 0.876307 0
    outer loop
      vertex 9.36714 19.9062 -4
      vertex 9.36714 19.9062 -2
      vertex 11.7882 18.5752 -4
    endloop
  endfacet
  facet normal 0.481754 0.876307 0
    outer loop
      vertex 11.7882 18.5752 -4
      vertex 9.36714 19.9062 -2
      vertex 11.7882 18.5752 -2
    endloop
  endfacet
  facet normal 0.587785 0.809017 0
    outer loop
      vertex 11.7882 18.5752 -4
      vertex 11.7882 18.5752 -2
      vertex 14.0233 16.9513 -4
    endloop
  endfacet
  facet normal 0.587785 0.809017 0
    outer loop
      vertex 14.0233 16.9513 -4
      vertex 11.7882 18.5752 -2
      vertex 14.0233 16.9513 -2
    endloop
  endfacet
  facet normal 0.684547 0.728969 0
    outer loop
      vertex 14.0233 16.9513 -4
      vertex 14.0233 16.9513 -2
      vertex 16.0373 15.06 -4
    endloop
  endfacet
  facet normal 0.684547 0.728969 0
    outer loop
      vertex 16.0373 15.06 -4
      vertex 14.0233 16.9513 -2
      vertex 16.0373 15.06 -2
    endloop
  endfacet
  facet normal 0.770513 0.637424 0
    outer loop
      vertex 17.7984 12.9313 -4
      vertex 16.0373 15.06 -4
      vertex 16.0373 15.06 -2
    endloop
  endfacet
  facet normal 0.770513 0.637424 0
    outer loop
      vertex 17.7984 12.9313 -2
      vertex 17.7984 12.9313 -4
      vertex 16.0373 15.06 -2
    endloop
  endfacet
  facet normal 0.844328 0.535827 0
    outer loop
      vertex 19.2787 10.5986 -4
      vertex 17.7984 12.9313 -4
      vertex 17.7984 12.9313 -2
    endloop
  endfacet
  facet normal 0.844328 0.535827 0
    outer loop
      vertex 19.2787 10.5986 -2
      vertex 19.2787 10.5986 -4
      vertex 17.7984 12.9313 -2
    endloop
  endfacet
  facet normal 0.904827 0.425779 0
    outer loop
      vertex 20.4551 8.09874 -4
      vertex 19.2787 10.5986 -4
      vertex 19.2787 10.5986 -2
    endloop
  endfacet
  facet normal 0.904827 0.425779 0
    outer loop
      vertex 20.4551 8.09874 -2
      vertex 20.4551 8.09874 -4
      vertex 19.2787 10.5986 -2
    endloop
  endfacet
  facet normal 0.951056 0.309017 0
    outer loop
      vertex 21.3088 5.47118 -4
      vertex 20.4551 8.09874 -4
      vertex 20.4551 8.09874 -2
    endloop
  endfacet
  facet normal 0.951056 0.309017 0
    outer loop
      vertex 21.3088 5.47118 -2
      vertex 21.3088 5.47118 -4
      vertex 20.4551 8.09874 -2
    endloop
  endfacet
  facet normal 0.982287 0.187381 0
    outer loop
      vertex 21.8265 2.75733 -4
      vertex 21.3088 5.47118 -4
      vertex 21.3088 5.47118 -2
    endloop
  endfacet
  facet normal 0.982287 0.187381 0
    outer loop
      vertex 21.8265 2.75733 -2
      vertex 21.8265 2.75733 -4
      vertex 21.3088 5.47118 -2
    endloop
  endfacet
  facet normal 0.998027 0.0627907 0
    outer loop
      vertex 22 0 -4
      vertex 21.8265 2.75733 -4
      vertex 21.8265 2.75733 -2
    endloop
  endfacet
  facet normal 0.998027 0.0627907 0
    outer loop
      vertex 22 0 -2
      vertex 22 0 -4
      vertex 21.8265 2.75733 -2
    endloop
  endfacet
  facet normal 0.998027 -0.0627907 0
    outer loop
      vertex 21.8265 -2.75733 -2
      vertex 21.8265 -2.75733 -4
      vertex 22 0 -4
    endloop
  endfacet
  facet normal 0.998027 -0.0627907 0
    outer loop
      vertex 22 0 -2
      vertex 21.8265 -2.75733 -2
      vertex 22 0 -4
    endloop
  endfacet
  facet normal 0.982287 -0.187381 0
    outer loop
      vertex 21.3088 -5.47118 -2
      vertex 21.3088 -5.47118 -4
      vertex 21.8265 -2.75733 -4
    endloop
  endfacet
  facet normal 0.982287 -0.187381 0
    outer loop
      vertex 21.8265 -2.75733 -2
      vertex 21.3088 -5.47118 -2
      vertex 21.8265 -2.75733 -4
    endloop
  endfacet
  facet normal 0.951056 -0.309017 0
    outer loop
      vertex 20.4551 -8.09874 -2
      vertex 20.4551 -8.09874 -4
      vertex 21.3088 -5.47118 -4
    endloop
  endfacet
  facet normal 0.951056 -0.309017 0
    outer loop
      vertex 21.3088 -5.47118 -2
      vertex 20.4551 -8.09874 -2
      vertex 21.3088 -5.47118 -4
    endloop
  endfacet
  facet normal 0.904827 -0.425779 0
    outer loop
      vertex 19.2787 -10.5986 -2
      vertex 19.2787 -10.5986 -4
      vertex 20.4551 -8.09874 -4
    endloop
  endfacet
  facet normal 0.904827 -0.425779 0
    outer loop
      vertex 20.4551 -8.09874 -2
      vertex 19.2787 -10.5986 -2
      vertex 20.4551 -8.09874 -4
    endloop
  endfacet
  facet normal 0.844328 -0.535827 0
    outer loop
      vertex 17.7984 -12.9313 -2
      vertex 17.7984 -12.9313 -4
      vertex 19.2787 -10.5986 -4
    endloop
  endfacet
  facet normal 0.844328 -0.535827 0
    outer loop
      vertex 19.2787 -10.5986 -2
      vertex 17.7984 -12.9313 -2
      vertex 19.2787 -10.5986 -4
    endloop
  endfacet
  facet normal 0.770513 -0.637424 0
    outer loop
      vertex 16.0373 -15.06 -2
      vertex 16.0373 -15.06 -4
      vertex 17.7984 -12.9313 -4
    endloop
  endfacet
  facet normal 0.770513 -0.637424 0
    outer loop
      vertex 17.7984 -12.9313 -2
      vertex 16.0373 -15.06 -2
      vertex 17.7984 -12.9313 -4
    endloop
  endfacet
  facet normal 0.684547 -0.728969 0
    outer loop
      vertex 14.0233 -16.9513 -2
      vertex 14.0233 -16.9513 -4
      vertex 16.0373 -15.06 -4
    endloop
  endfacet
  facet normal 0.684547 -0.728969 0
    outer loop
      vertex 16.0373 -15.06 -2
      vertex 14.0233 -16.9513 -2
      vertex 16.0373 -15.06 -4
    endloop
  endfacet
  facet normal 0.587785 -0.809017 0
    outer loop
      vertex 11.7882 -18.5752 -2
      vertex 11.7882 -18.5752 -4
      vertex 14.0233 -16.9513 -4
    endloop
  endfacet
  facet normal 0.587785 -0.809017 0
    outer loop
      vertex 14.0233 -16.9513 -2
      vertex 11.7882 -18.5752 -2
      vertex 14.0233 -16.9513 -4
    endloop
  endfacet
  facet normal 0.481754 -0.876307 0
    outer loop
      vertex 9.36714 -19.9062 -2
      vertex 9.36714 -19.9062 -4
      vertex 11.7882 -18.5752 -4
    endloop
  endfacet
  facet normal 0.481754 -0.876307 0
    outer loop
      vertex 11.7882 -18.5752 -2
      vertex 9.36714 -19.9062 -2
      vertex 11.7882 -18.5752 -4
    endloop
  endfacet
  facet normal 0.368125 -0.929776 0
    outer loop
      vertex 6.79837 -20.9232 -2
      vertex 6.79837 -20.9232 -4
      vertex 9.36714 -19.9062 -4
    endloop
  endfacet
  facet normal 0.368125 -0.929776 0
    outer loop
      vertex 9.36714 -19.9062 -2
      vertex 6.79837 -20.9232 -2
      vertex 9.36714 -19.9062 -4
    endloop
  endfacet
  facet normal 0.24869 -0.968583 0
    outer loop
      vertex 4.12239 -21.6103 -2
      vertex 4.12239 -21.6103 -4
      vertex 6.79837 -20.9232 -4
    endloop
  endfacet
  facet normal 0.24869 -0.968583 0
    outer loop
      vertex 6.79837 -20.9232 -2
      vertex 4.12239 -21.6103 -2
      vertex 6.79837 -20.9232 -4
    endloop
  endfacet
  facet normal 0.125333 -0.992115 0
    outer loop
      vertex 1.38139 -21.9566 -2
      vertex 1.38139 -21.9566 -4
      vertex 4.12239 -21.6103 -4
    endloop
  endfacet
  facet normal 0.125333 -0.992115 0
    outer loop
      vertex 4.12239 -21.6103 -2
      vertex 1.38139 -21.9566 -2
      vertex 4.12239 -21.6103 -4
    endloop
  endfacet
  facet normal 0 -1 0
    outer loop
      vertex -1.38139 -21.9566 -2
      vertex -1.38139 -21.9566 -4
      vertex 1.38139 -21.9566 -4
    endloop
  endfacet
  facet normal 0 -1 0
    outer loop
      vertex 1.38139 -21.9566 -2
      vertex -1.38139 -21.9566 -2
      vertex 1.38139 -21.9566 -4
    endloop
  endfacet
  facet normal -0.125333 -0.992115 0
    outer loop
      vertex -4.12239 -21.6103 -2
      vertex -4.12239 -21.6103 -4
      vertex -1.38139 -21.9566 -4
    endloop
  endfacet
  facet normal -0.125333 -0.992115 0
    outer loop
      vertex -1.38139 -21.9566 -2
      vertex -4.12239 -21.6103 -2
      vertex -1.38139 -21.9566 -4
    endloop
  endfacet
  facet normal -0.24869 -0.968583 0
    outer loop
      vertex -6.79837 -20.9232 -2
      vertex -6.79837 -20.9232 -4
      vertex -4.12239 -21.6103 -4
    endloop
  endfacet
  facet normal -0.24869 -0.968583 0
    outer loop
      vertex -4.12239 -21.6103 -2
      vertex -6.79837 -20.9232 -2
      vertex -4.12239 -21.6103 -4
    endloop
  endfacet
  facet normal -0.368125 -0.929776 0
    outer loop
      vertex -9.36714 -19.9062 -2
      vertex -9.36714 -19.9062 -4
      vertex -6.79837 -20.9232 -4
    endloop
  endfacet
  facet normal -0.368125 -0.929776 0
    outer loop
      vertex -6.79837 -20.9232 -2
      vertex -9.36714 -19.9062 -2
      vertex -6.79837 -20.9232 -4
    endloop
  endfacet
  facet normal -0.481754 -0.876307 0
    outer loop
      vertex -11.7882 -18.5752 -2
      vertex -11.7882 -18.5752 -4
      vertex -9.36714 -19.9062 -4
    endloop
  endfacet
  facet normal -0.481754 -0.876307 0
    outer loop
      vertex -9.36714 -19.9062 -2
      vertex -11.7882 -18.5752 -2
      vertex -9.36714 -19.9062 -4
    endloop
  endfacet
  facet normal -0.587785 -0.809017 0
    outer loop
      vertex -14.0233 -16.9513 -2
      vertex -14.0233 -16.9513 -4
      vertex -11.7882 -18.5752 -4
    endloop
  endfacet
  facet normal -0.587785 -0.809017 0
    outer loop
      vertex -11.7882 -18.5752 -2
      vertex -14.0233 -16.9513 -2
      vertex -11.7882 -18.5752 -4
    endloop
  endfacet
  facet normal -0.684547 -0.728969 0
    outer loop
      vertex -16.0373 -15.06 -2
      vertex -16.0373 -15.06 -4
      vertex -14.0233 -16.9513 -4
    endloop
  endfacet
  facet normal -0.684547 -0.728969 0
    outer loop
      vertex -14.0233 -16.9513 -2
      vertex -16.0373 -15.06 -2
      vertex -14.0233 -16.9513 -4
    endloop
  endfacet
  facet normal -0.770513 -0.637424 0
    outer loop
      vertex -17.7984 -12.9313 -4
      vertex -16.0373 -15.06 -4
      vertex -17.7984 -12.9313 -2
    endloop
  endfacet
  facet normal -0.770513 -0.637424 0
    outer loop
      vertex -17.7984 -12.9313 -2
      vertex -16.0373 -15.06 -4
      vertex -16.0373 -15.06 -2
    endloop
  endfacet
  facet normal -0.844328 -0.535827 0
    outer loop
      vertex -19.2787 -10.5986 -4
      vertex -17.7984 -12.9313 -4
      vertex -19.2787 -10.5986 -2
    endloop
  endfacet
  facet normal -0.844328 -0.535827 0
    outer loop
      vertex -19.2787 -10.5986 -2
      vertex -17.7984 -12.9313 -4
      vertex -17.7984 -12.9313 -2
    endloop
  endfacet
  facet normal -0.904827 -0.425779 0
    outer loop
      vertex -20.4551 -8.09874 -4
      vertex -19.2787 -10.5986 -4
      vertex -20.4551 -8.09874 -2
    endloop
  endfacet
  facet normal -0.904827 -0.425779 0
    outer loop
      vertex -20.4551 -8.09874 -2
      vertex -19.2787 -10.5986 -4
      vertex -19.2787 -10.5986 -2
    endloop
  endfacet
  facet normal -0.951056 -0.309017 0
    outer loop
      vertex -21.3088 -5.47118 -4
      vertex -20.4551 -8.09874 -4
      vertex -21.3088 -5.47118 -2
    endloop
  endfacet
  facet normal -0.951056 -0.309017 0
    outer loop
      vertex -21.3088 -5.47118 -2
      vertex -20.4551 -8.09874 -4
      vertex -20.4551 -8.09874 -2
    endloop
  endfacet
  facet normal -0.982287 -0.187381 0
    outer loop
      vertex -21.8265 -2.75733 -4
      vertex -21.3088 -5.47118 -4
      vertex -21.8265 -2.75733 -2
    endloop
  endfacet
  facet normal -0.982287 -0.187381 0
    outer loop
      vertex -21.8265 -2.75733 -2
      vertex -21.3088 -5.47118 -4
      vertex -21.3088 -5.47118 -2
    endloop
  endfacet
  facet normal -0.998027 -0.0627907 0
    outer loop
      vertex -22 0 -4
      vertex -21.8265 -2.75733 -4
      vertex -22 0 -2
    endloop
  endfacet
  facet normal -0.998027 -0.0627907 0
    outer loop
      vertex -22 0 -2
      vertex -21.8265 -2.75733 -4
      vertex -21.8265 -2.75733 -2
    endloop
  endfacet
  facet normal -0.998027 0.0627907 0
    outer loop
      vertex -22 0 -4
      vertex -22 0 -2
      vertex -21.8265 2.75733 -4
    endloop
  endfacet
  facet normal -0.998027 0.0627907 0
    outer loop
      vertex -21.8265 2.75733 -4
      vertex -22 0 -2
      vertex -21.8265 2.75733 -2
    endloop
  endfacet
  facet normal -0.982287 0.187381 0
    outer loop
      vertex -21.8265 2.75733 -4
      vertex -21.8265 2.75733 -2
      vertex -21.3088 5.47118 -4
    endloop
  endfacet
  facet normal -0.982287 0.187381 0
    outer loop
      vertex -21.3088 5.47118 -4
      vertex -21.8265 2.75733 -2
      vertex -21.3088 5.47118 -2
    endloop
  endfacet
  facet normal -0.951056 0.309017 0
    outer loop
      vertex -21.3088 5.47118 -4
      vertex -21.3088 5.47118 -2
      vertex -20.4551 8.09874 -4
    endloop
  endfacet
  facet normal -0.951056 0.309017 0
    outer loop
      vertex -20.4551 8.09874 -4
      vertex -21.3088 5.47118 -2
      vertex -20.4551 8.09874 -2
    endloop
  endfacet
  facet normal -0.904827 0.425779 0
    outer loop
      vertex -20.4551 8.09874 -4
      vertex -20.4551 8.09874 -2
      vertex -19.2787 10.5986 -4
    endloop
  endfacet
  facet normal -0.904827 0.425779 0
    outer loop
      vertex -19.2787 10.5986 -4
      vertex -20.4551 8.09874 -2
      vertex -19.2787 10.5986 -2
    endloop
  endfacet
  facet normal -0.844328 0.535827 0
    outer loop
      vertex -19.2787 10.5986 -4
      vertex -19.2787 10.5986 -2
      vertex -17.7984 12.9313 -4
    endloop
  endfacet
  facet normal -0.844328 0.535827 0
    outer loop
      vertex -17.7984 12.9313 -4
      vertex -19.2787 10.5986 -2
      vertex -17.7984 12.9313 -2
    endloop
  endfacet
  facet normal -0.770513 0.637424 0
    outer loop
      vertex -17.7984 12.9313 -4
      vertex -17.7984 12.9313 -2
      vertex -16.0373 15.06 -4
    endloop
  endfacet
  facet normal -0.770513 0.637424 0
    outer loop
      vertex -16.0373 15.06 -4
      vertex -17.7984 12.9313 -2
      vertex -16.0373 15.06 -2
    endloop
  endfacet
  facet normal -0.684547 0.728969 0
    outer loop
      vertex -16.0373 15.06 -4
      vertex -16.0373 15.06 -2
      vertex -14.0233 16.9513 -4
    endloop
  endfacet
  facet normal -0.684547 0.728969 0
    outer loop
      vertex -14.0233 16.9513 -4
      vertex -16.0373 15.06 -2
      vertex -14.0233 16.9513 -2
    endloop
  endfacet
  facet normal -0.587785 0.809017 0
    outer loop
      vertex -14.0233 16.9513 -4
      vertex -14.0233 16.9513 -2
      vertex -11.7882 18.5752 -4
    endloop
  endfacet
  facet normal -0.587785 0.809017 0
    outer loop
      vertex -11.7882 18.5752 -4
      vertex -14.0233 16.9513 -2
      vertex -11.7882 18.5752 -2
    endloop
  endfacet
  facet normal -0.481754 0.876307 0
    outer loop
      vertex -11.7882 18.5752 -4
      vertex -11.7882 18.5752 -2
      vertex -9.36714 19.9062 -4
    endloop
  endfacet
  facet normal -0.481754 0.876307 0
    outer loop
      vertex -9.36714 19.9062 -4
      vertex -11.7882 18.5752 -2
      vertex -9.36714 19.9062 -2
    endloop
  endfacet
  facet normal -0.368125 0.929776 0
    outer loop
      vertex -9.36714 19.9062 -4
      vertex -9.36714 19.9062 -2
      vertex -6.79837 20.9232 -4
    endloop
  endfacet
  facet normal -0.368125 0.929776 0
    outer loop
      vertex -6.79837 20.9232 -4
      vertex -9.36714 19.9062 -2
      vertex -9.13022 20 -2
    endloop
  endfacet
  facet normal -0.368125 0.929776 0
    outer loop
      vertex -6.79837 20.9232 -4
      vertex -9.13022 20 -2
      vertex -9.13022 20 0
    endloop
  endfacet
  facet normal -0.368125 0.929776 0
    outer loop
      vertex -6.79837 20.9232 -4
      vertex -9.13022 20 0
      vertex -6.79837 20.9232 0
    endloop
  endfacet
  facet normal 0 0 1
    outer loop
      vertex -6.79837 20.9232 0
      vertex -9.13022 20 0
      vertex 9.13022 20 0
    endloop
  endfacet
  facet normal 0 0 1
    outer loop
      vertex 4.12239 21.6103 0
      vertex -6.79837 20.9232 0
      vertex 6.79837 20.9232 0
    endloop
  endfacet
  facet normal 0 0 1
    outer loop
      vertex 6.79837 20.9232 0
      vertex -6.79837 20.9232 0
      vertex 9.13022 20 0
    endloop
  endfacet
  facet normal 0 0 1
    outer loop
      vertex 1.38139 21.9566 0
      vertex -6.79837 20.9232 0
      vertex 4.12239 21.6103 0
    endloop
  endfacet
  facet normal 0 0 1
    outer loop
      vertex -1.38139 21.9566 0
      vertex -6.79837 20.9232 0
      vertex 1.38139 21.9566 0
    endloop
  endfacet
  facet normal 0 0 1
    outer loop
      vertex -4.12239 21.6103 0
      vertex -6.79837 20.9232 0
      vertex -1.38139 21.9566 0
    endloop
  endfacet
  facet normal 0.998027 0.0627908 0
    outer loop
      vertex -10.5 0 2
      vertex -10.4172 -1.316 2
      vertex -10.4172 -1.316 -4
    endloop
  endfacet
  facet normal 0.998027 0.0627908 0
    outer loop
      vertex -10.5 0 -4
      vertex -10.5 0 2
      vertex -10.4172 -1.316 -4
    endloop
  endfacet
  facet normal 0.982287 0.187381 0
    outer loop
      vertex -10.4172 -1.316 2
      vertex -10.1701 -2.61124 2
      vertex -10.1701 -2.61124 -4
    endloop
  endfacet
  facet normal 0.982287 0.187381 0
    outer loop
      vertex -10.4172 -1.316 -4
      vertex -10.4172 -1.316 2
      vertex -10.1701 -2.61124 -4
    endloop
  endfacet
  facet normal 0.951057 0.309017 0
    outer loop
      vertex -10.1701 -2.61124 2
      vertex -9.76265 -3.86531 2
      vertex -9.76265 -3.86531 -4
    endloop
  endfacet
  facet normal 0.951057 0.309017 0
    outer loop
      vertex -10.1701 -2.61124 -4
      vertex -10.1701 -2.61124 2
      vertex -9.76265 -3.86531 -4
    endloop
  endfacet
  facet normal 0.904827 0.425779 0
    outer loop
      vertex -9.76265 -3.86531 2
      vertex -9.20122 -5.05841 2
      vertex -9.20122 -5.05841 -4
    endloop
  endfacet
  facet normal 0.904827 0.425779 0
    outer loop
      vertex -9.76265 -3.86531 -4
      vertex -9.76265 -3.86531 2
      vertex -9.20122 -5.05841 -4
    endloop
  endfacet
  facet normal 0.844328 0.535827 0
    outer loop
      vertex -9.20122 -5.05841 2
      vertex -8.49468 -6.17174 2
      vertex -8.49468 -6.17174 -4
    endloop
  endfacet
  facet normal 0.844328 0.535827 0
    outer loop
      vertex -9.20122 -5.05841 -4
      vertex -9.20122 -5.05841 2
      vertex -8.49468 -6.17174 -4
    endloop
  endfacet
  facet normal 0.770514 0.637423 0
    outer loop
      vertex -8.49468 -6.17174 2
      vertex -7.65417 -7.18774 2
      vertex -7.65417 -7.18774 -4
    endloop
  endfacet
  facet normal 0.770514 0.637423 0
    outer loop
      vertex -8.49468 -6.17174 -4
      vertex -8.49468 -6.17174 2
      vertex -7.65417 -7.18774 -4
    endloop
  endfacet
  facet normal 0.684547 0.728969 0
    outer loop
      vertex -6.69295 -8.09039 2
      vertex -6.69295 -8.09039 -4
      vertex -7.65417 -7.18774 2
    endloop
  endfacet
  facet normal 0.684547 0.728969 0
    outer loop
      vertex -7.65417 -7.18774 2
      vertex -6.69295 -8.09039 -4
      vertex -7.65417 -7.18774 -4
    endloop
  endfacet
  facet normal 0.587785 0.809017 0
    outer loop
      vertex -5.62618 -8.86544 2
      vertex -5.62618 -8.86544 -4
      vertex -6.69295 -8.09039 2
    endloop
  endfacet
  facet normal 0.587785 0.809017 0
    outer loop
      vertex -6.69295 -8.09039 2
      vertex -5.62618 -8.86544 -4
      vertex -6.69295 -8.09039 -4
    endloop
  endfacet
  facet normal 0.481754 0.876306 0
    outer loop
      vertex -4.47068 -9.50068 2
      vertex -4.47068 -9.50068 -4
      vertex -5.62618 -8.86544 2
    endloop
  endfacet
  facet normal 0.481754 0.876306 0
    outer loop
      vertex -5.62618 -8.86544 2
      vertex -4.47068 -9.50068 -4
      vertex -5.62618 -8.86544 -4
    endloop
  endfacet
  facet normal 0.368124 0.929777 0
    outer loop
      vertex -3.24468 -9.98609 2
      vertex -3.24468 -9.98609 -4
      vertex -4.47068 -9.50068 2
    endloop
  endfacet
  facet normal 0.368124 0.929777 0
    outer loop
      vertex -4.47068 -9.50068 2
      vertex -3.24468 -9.98609 -4
      vertex -4.47068 -9.50068 -4
    endloop
  endfacet
  facet normal 0.24869 0.968583 0
    outer loop
      vertex -1.9675 -10.314 2
      vertex -1.9675 -10.314 -4
      vertex -3.24468 -9.98609 2
    endloop
  endfacet
  facet normal 0.24869 0.968583 0
    outer loop
      vertex -3.24468 -9.98609 2
      vertex -1.9675 -10.314 -4
      vertex -3.24468 -9.98609 -4
    endloop
  endfacet
  facet normal 0.125334 0.992115 0
    outer loop
      vertex -0.6593 -10.4793 2
      vertex -0.6593 -10.4793 -4
      vertex -1.9675 -10.314 2
    endloop
  endfacet
  facet normal 0.125334 0.992115 0
    outer loop
      vertex -1.9675 -10.314 2
      vertex -0.6593 -10.4793 -4
      vertex -1.9675 -10.314 -4
    endloop
  endfacet
  facet normal 0 1 0
    outer loop
      vertex 0.6593 -10.4793 2
      vertex 0.6593 -10.4793 -4
      vertex -0.6593 -10.4793 2
    endloop
  endfacet
  facet normal 0 1 0
    outer loop
      vertex -0.6593 -10.4793 2
      vertex 0.6593 -10.4793 -4
      vertex -0.6593 -10.4793 -4
    endloop
  endfacet
  facet normal -0.125334 0.992115 0
    outer loop
      vertex 1.9675 -10.314 2
      vertex 1.9675 -10.314 -4
      vertex 0.6593 -10.4793 2
    endloop
  endfacet
  facet normal -0.125334 0.992115 0
    outer loop
      vertex 0.6593 -10.4793 2
      vertex 1.9675 -10.314 -4
      vertex 0.6593 -10.4793 -4
    endloop
  endfacet
  facet normal -0.24869 0.968583 0
    outer loop
      vertex 3.24468 -9.98609 2
      vertex 3.24468 -9.98609 -4
      vertex 1.9675 -10.314 2
    endloop
  endfacet
  facet normal -0.24869 0.968583 0
    outer loop
      vertex 1.9675 -10.314 2
      vertex 3.24468 -9.98609 -4
      vertex 1.9675 -10.314 -4
    endloop
  endfacet
  facet normal -0.368124 0.929777 0
    outer loop
      vertex 4.47068 -9.50068 2
      vertex 4.47068 -9.50068 -4
      vertex 3.24468 -9.98609 2
    endloop
  endfacet
  facet normal -0.368124 0.929777 0
    outer loop
      vertex 3.24468 -9.98609 2
      vertex 4.47068 -9.50068 -4
      vertex 3.24468 -9.98609 -4
    endloop
  endfacet
  facet normal -0.481754 0.876306 0
    outer loop
      vertex 5.62618 -8.86544 2
      vertex 5.62618 -8.86544 -4
      vertex 4.47068 -9.50068 2
    endloop
  endfacet
  facet normal -0.481754 0.876306 0
    outer loop
      vertex 4.47068 -9.50068 2
      vertex 5.62618 -8.86544 -4
      vertex 4.47068 -9.50068 -4
    endloop
  endfacet
  facet normal -0.587785 0.809017 0
    outer loop
      vertex 6.69295 -8.09039 2
      vertex 6.69295 -8.09039 -4
      vertex 5.62618 -8.86544 2
    endloop
  endfacet
  facet normal -0.587785 0.809017 0
    outer loop
      vertex 5.62618 -8.86544 2
      vertex 6.69295 -8.09039 -4
      vertex 5.62618 -8.86544 -4
    endloop
  endfacet
  facet normal -0.684547 0.728969 0
    outer loop
      vertex 7.65417 -7.18774 2
      vertex 7.65417 -7.18774 -4
      vertex 6.69295 -8.09039 2
    endloop
  endfacet
  facet normal -0.684547 0.728969 0
    outer loop
      vertex 6.69295 -8.09039 2
      vertex 7.65417 -7.18774 -4
      vertex 6.69295 -8.09039 -4
    endloop
  endfacet
  facet normal -0.770514 0.637423 0
    outer loop
      vertex 8.49468 -6.17174 2
      vertex 8.49468 -6.17174 -4
      vertex 7.65417 -7.18774 2
    endloop
  endfacet
  facet normal -0.770514 0.637423 0
    outer loop
      vertex 7.65417 -7.18774 2
      vertex 8.49468 -6.17174 -4
      vertex 7.65417 -7.18774 -4
    endloop
  endfacet
  facet normal -0.844328 0.535827 0
    outer loop
      vertex 9.20122 -5.05841 2
      vertex 9.20122 -5.05841 -4
      vertex 8.49468 -6.17174 2
    endloop
  endfacet
  facet normal -0.844328 0.535827 0
    outer loop
      vertex 8.49468 -6.17174 2
      vertex 9.20122 -5.05841 -4
      vertex 8.49468 -6.17174 -4
    endloop
  endfacet
  facet normal -0.904827 0.425779 0
    outer loop
      vertex 9.76265 -3.86531 2
      vertex 9.76265 -3.86531 -4
      vertex 9.20122 -5.05841 2
    endloop
  endfacet
  facet normal -0.904827 0.425779 0
    outer loop
      vertex 9.20122 -5.05841 2
      vertex 9.76265 -3.86531 -4
      vertex 9.20122 -5.05841 -4
    endloop
  endfacet
  facet normal -0.951057 0.309017 0
    outer loop
      vertex 10.1701 -2.61124 2
      vertex 10.1701 -2.61124 -4
      vertex 9.76265 -3.86531 2
    endloop
  endfacet
  facet normal -0.951057 0.309017 0
    outer loop
      vertex 9.76265 -3.86531 2
      vertex 10.1701 -2.61124 -4
      vertex 9.76265 -3.86531 -4
    endloop
  endfacet
  facet normal -0.982287 0.187381 0
    outer loop
      vertex 10.4172 -1.316 2
      vertex 10.4172 -1.316 -4
      vertex 10.1701 -2.61124 2
    endloop
  endfacet
  facet normal -0.982287 0.187381 0
    outer loop
      vertex 10.1701 -2.61124 2
      vertex 10.4172 -1.316 -4
      vertex 10.1701 -2.61124 -4
    endloop
  endfacet
  facet normal -0.998027 0.0627908 0
    outer loop
      vertex 10.5 0 2
      vertex 10.5 0 -4
      vertex 10.4172 -1.316 2
    endloop
  endfacet
  facet normal -0.998027 0.0627908 0
    outer loop
      vertex 10.4172 -1.316 2
      vertex 10.5 0 -4
      vertex 10.4172 -1.316 -4
    endloop
  endfacet
  facet normal -0.998027 -0.0627908 0
    outer loop
      vertex 10.5 0 2
      vertex 10.4172 1.316 2
      vertex 10.5 0 -4
    endloop
  endfacet
  facet normal -0.998027 -0.0627908 0
    outer loop
      vertex 10.5 0 -4
      vertex 10.4172 1.316 2
      vertex 10.4172 1.316 -4
    endloop
  endfacet
  facet normal -0.982287 -0.187381 0
    outer loop
      vertex 10.4172 1.316 2
      vertex 10.1701 2.61124 2
      vertex 10.4172 1.316 -4
    endloop
  endfacet
  facet normal -0.982287 -0.187381 0
    outer loop
      vertex 10.4172 1.316 -4
      vertex 10.1701 2.61124 2
      vertex 10.1701 2.61124 -4
    endloop
  endfacet
  facet normal -0.951057 -0.309017 0
    outer loop
      vertex 10.1701 2.61124 2
      vertex 9.76265 3.86531 2
      vertex 10.1701 2.61124 -4
    endloop
  endfacet
  facet normal -0.951057 -0.309017 0
    outer loop
      vertex 10.1701 2.61124 -4
      vertex 9.76265 3.86531 2
      vertex 9.76265 3.86531 -4
    endloop
  endfacet
  facet normal -0.904827 -0.425779 0
    outer loop
      vertex 9.76265 3.86531 2
      vertex 9.20122 5.05841 2
      vertex 9.76265 3.86531 -4
    endloop
  endfacet
  facet normal -0.904827 -0.425779 0
    outer loop
      vertex 9.76265 3.86531 -4
      vertex 9.20122 5.05841 2
      vertex 9.20122 5.05841 -4
    endloop
  endfacet
  facet normal -0.844328 -0.535827 0
    outer loop
      vertex 9.20122 5.05841 2
      vertex 8.49468 6.17174 2
      vertex 9.20122 5.05841 -4
    endloop
  endfacet
  facet normal -0.844328 -0.535827 0
    outer loop
      vertex 9.20122 5.05841 -4
      vertex 8.49468 6.17174 2
      vertex 8.49468 6.17174 -4
    endloop
  endfacet
  facet normal -0.770514 -0.637423 0
    outer loop
      vertex 8.49468 6.17174 2
      vertex 7.65417 7.18774 2
      vertex 8.49468 6.17174 -4
    endloop
  endfacet
  facet normal -0.770514 -0.637423 0
    outer loop
      vertex 8.49468 6.17174 -4
      vertex 7.65417 7.18774 2
      vertex 7.65417 7.18774 -4
    endloop
  endfacet
  facet normal -0.684547 -0.728969 0
    outer loop
      vertex 7.65417 7.18774 -4
      vertex 7.65417 7.18774 2
      vertex 6.69295 8.09039 2
    endloop
  endfacet
  facet normal -0.684547 -0.728969 0
    outer loop
      vertex 6.69295 8.09039 -4
      vertex 7.65417 7.18774 -4
      vertex 6.69295 8.09039 2
    endloop
  endfacet
  facet normal -0.587785 -0.809017 0
    outer loop
      vertex 6.69295 8.09039 -4
      vertex 6.69295 8.09039 2
      vertex 5.62618 8.86544 2
    endloop
  endfacet
  facet normal -0.587785 -0.809017 0
    outer loop
      vertex 5.62618 8.86544 -4
      vertex 6.69295 8.09039 -4
      vertex 5.62618 8.86544 2
    endloop
  endfacet
  facet normal -0.481754 -0.876306 0
    outer loop
      vertex 5.62618 8.86544 -4
      vertex 5.62618 8.86544 2
      vertex 4.47068 9.50068 2
    endloop
  endfacet
  facet normal -0.481754 -0.876306 0
    outer loop
      vertex 4.47068 9.50068 -4
      vertex 5.62618 8.86544 -4
      vertex 4.47068 9.50068 2
    endloop
  endfacet
  facet normal -0.368124 -0.929777 0
    outer loop
      vertex 4.47068 9.50068 -4
      vertex 4.47068 9.50068 2
      vertex 3.24468 9.98609 2
    endloop
  endfacet
  facet normal -0.368124 -0.929777 0
    outer loop
      vertex 3.24468 9.98609 -4
      vertex 4.47068 9.50068 -4
      vertex 3.24468 9.98609 2
    endloop
  endfacet
  facet normal -0.24869 -0.968583 0
    outer loop
      vertex 3.24468 9.98609 -4
      vertex 3.24468 9.98609 2
      vertex 1.9675 10.314 2
    endloop
  endfacet
  facet normal -0.24869 -0.968583 0
    outer loop
      vertex 1.9675 10.314 -4
      vertex 3.24468 9.98609 -4
      vertex 1.9675 10.314 2
    endloop
  endfacet
  facet normal -0.125334 -0.992115 0
    outer loop
      vertex 1.9675 10.314 -4
      vertex 1.9675 10.314 2
      vertex 0.6593 10.4793 2
    endloop
  endfacet
  facet normal -0.125334 -0.992115 0
    outer loop
      vertex 0.6593 10.4793 -4
      vertex 1.9675 10.314 -4
      vertex 0.6593 10.4793 2
    endloop
  endfacet
  facet normal 0 -1 0
    outer loop
      vertex 0.6593 10.4793 -4
      vertex 0.6593 10.4793 2
      vertex -0.6593 10.4793 2
    endloop
  endfacet
  facet normal 0 -1 0
    outer loop
      vertex -0.6593 10.4793 -4
      vertex 0.6593 10.4793 -4
      vertex -0.6593 10.4793 2
    endloop
  endfacet
  facet normal 0.125334 -0.992115 0
    outer loop
      vertex -0.6593 10.4793 -4
      vertex -0.6593 10.4793 2
      vertex -1.9675 10.314 2
    endloop
  endfacet
  facet normal 0.125334 -0.992115 0
    outer loop
      vertex -1.9675 10.314 -4
      vertex -0.6593 10.4793 -4
      vertex -1.9675 10.314 2
    endloop
  endfacet
  facet normal 0.24869 -0.968583 0
    outer loop
      vertex -1.9675 10.314 -4
      vertex -1.9675 10.314 2
      vertex -3.24468 9.98609 2
    endloop
  endfacet
  facet normal 0.24869 -0.968583 0
    outer loop
      vertex -3.24468 9.98609 -4
      vertex -1.9675 10.314 -4
      vertex -3.24468 9.98609 2
    endloop
  endfacet
  facet normal 0.368124 -0.929777 0
    outer loop
      vertex -3.24468 9.98609 -4
      vertex -3.24468 9.98609 2
      vertex -4.47068 9.50068 2
    endloop
  endfacet
  facet normal 0.368124 -0.929777 0
    outer loop
      vertex -4.47068 9.50068 -4
      vertex -3.24468 9.98609 -4
      vertex -4.47068 9.50068 2
    endloop
  endfacet
  facet normal 0.481754 -0.876306 0
    outer loop
      vertex -4.47068 9.50068 -4
      vertex -4.47068 9.50068 2
      vertex -5.62618 8.86544 2
    endloop
  endfacet
  facet normal 0.481754 -0.876306 0
    outer loop
      vertex -5.62618 8.86544 -4
      vertex -4.47068 9.50068 -4
      vertex -5.62618 8.86544 2
    endloop
  endfacet
  facet normal 0.587785 -0.809017 0
    outer loop
      vertex -5.62618 8.86544 -4
      vertex -5.62618 8.86544 2
      vertex -6.69295 8.09039 2
    endloop
  endfacet
  facet normal 0.587785 -0.809017 0
    outer loop
      vertex -6.69295 8.09039 -4
      vertex -5.62618 8.86544 -4
      vertex -6.69295 8.09039 2
    endloop
  endfacet
  facet normal 0.684547 -0.728969 0
    outer loop
      vertex -6.69295 8.09039 -4
      vertex -6.69295 8.09039 2
      vertex -7.65417 7.18774 2
    endloop
  endfacet
  facet normal 0.684547 -0.728969 0
    outer loop
      vertex -7.65417 7.18774 -4
      vertex -6.69295 8.09039 -4
      vertex -7.65417 7.18774 2
    endloop
  endfacet
  facet normal 0.770514 -0.637423 0
    outer loop
      vertex -7.65417 7.18774 -4
      vertex -7.65417 7.18774 2
      vertex -8.49468 6.17174 2
    endloop
  endfacet
  facet normal 0.770514 -0.637423 0
    outer loop
      vertex -8.49468 6.17174 -4
      vertex -7.65417 7.18774 -4
      vertex -8.49468 6.17174 2
    endloop
  endfacet
  facet normal 0.844328 -0.535827 0
    outer loop
      vertex -8.49468 6.17174 -4
      vertex -8.49468 6.17174 2
      vertex -9.20122 5.05841 2
    endloop
  endfacet
  facet normal 0.844328 -0.535827 0
    outer loop
      vertex -9.20122 5.05841 -4
      vertex -8.49468 6.17174 -4
      vertex -9.20122 5.05841 2
    endloop
  endfacet
  facet normal 0.904827 -0.425779 0
    outer loop
      vertex -9.20122 5.05841 -4
      vertex -9.20122 5.05841 2
      vertex -9.76265 3.86531 2
    endloop
  endfacet
  facet normal 0.904827 -0.425779 0
    outer loop
      vertex -9.76265 3.86531 -4
      vertex -9.20122 5.05841 -4
      vertex -9.76265 3.86531 2
    endloop
  endfacet
  facet normal 0.951057 -0.309017 0
    outer loop
      vertex -9.76265 3.86531 -4
      vertex -9.76265 3.86531 2
      vertex -10.1701 2.61124 2
    endloop
  endfacet
  facet normal 0.951057 -0.309017 0
    outer loop
      vertex -10.1701 2.61124 -4
      vertex -9.76265 3.86531 -4
      vertex -10.1701 2.61124 2
    endloop
  endfacet
  facet normal 0.982287 -0.187381 0
    outer loop
      vertex -10.1701 2.61124 -4
      vertex -10.1701 2.61124 2
      vertex -10.4172 1.316 2
    endloop
  endfacet
  facet normal 0.982287 -0.187381 0
    outer loop
      vertex -10.4172 1.316 -4
      vertex -10.1701 2.61124 -4
      vertex -10.4172 1.316 2
    endloop
  endfacet
  facet normal 0.998027 -0.0627908 0
    outer loop
      vertex -10.4172 1.316 -4
      vertex -10.4172 1.316 2
      vertex -10.5 0 2
    endloop
  endfacet
  facet normal 0.998027 -0.0627908 0
    outer loop
      vertex -10.5 0 -4
      vertex -10.4172 1.316 -4
      vertex -10.5 0 2
    endloop
  endfacet
  facet normal -1 0 0
    outer loop
      vertex -20.5 -22.5 23
      vertex -20.5 -22.5 27
      vertex -20.5 -17.5 23
    endloop
  endfacet
  facet normal -1 0 0
    outer loop
      vertex -20.5 -17.5 23
      vertex -20.5 -22.5 27
      vertex -20.5 -17.5 27
    endloop
  endfacet
  facet normal 0 -1 0
    outer loop
      vertex -20.5 -22.5 27
      vertex -20.5 -22.5 23
      vertex -15.5 -22.5 23
    endloop
  endfacet
  facet normal 0 -1 0
    outer loop
      vertex -15.5 -22.5 27
      vertex -20.5 -22.5 27
      vertex -15.5 -22.5 23
    endloop
  endfacet
  facet normal 1 0 0
    outer loop
      vertex -15.5 -22.5 27
      vertex -15.5 -22.5 23
      vertex -15.5 -17.5 23
    endloop
  endfacet
  facet normal 1 0 0
    outer loop
      vertex -15.5 -17.5 27
      vertex -15.5 -22.5 27
      vertex -15.5 -17.5 23
    endloop
  endfacet
  facet normal 0 1 0
    outer loop
      vertex -20.5 -17.5 23
      vertex -20.5 -17.5 27
      vertex -15.5 -17.5 23
    endloop
  endfacet
  facet normal 0 1 0
    outer loop
      vertex -15.5 -17.5 23
      vertex -20.5 -17.5 27
      vertex -15.5 -17.5 27
    endloop
  endfacet
  facet normal 1 0 0
    outer loop
      vertex 15.25 -17.25 18.75
      vertex 15.25 -17.25 23
      vertex 15.25 -22.75 23
    endloop
  endfacet
  facet normal 1 0 0
    outer loop
      vertex 15.25 -22.75 18.75
      vertex 15.25 -17.25 18.75
      vertex 15.25 -22.75 23
    endloop
  endfacet
  facet normal 0 1 0
    outer loop
      vertex 20.75 -22.75 23
      vertex 20.75 -22.75 18.75
      vertex 15.25 -22.75 23
    endloop
  endfacet
  facet normal 0 1 0
    outer loop
      vertex 15.25 -22.75 23
      vertex 20.75 -22.75 18.75
      vertex 15.25 -22.75 18.75
    endloop
  endfacet
  facet normal -1 0 0
    outer loop
      vertex 20.75 -17.25 23
      vertex 20.75 -17.25 18.75
      vertex 20.75 -22.75 23
    endloop
  endfacet
  facet normal -1 0 0
    outer loop
      vertex 20.75 -22.75 23
      vertex 20.75 -17.25 18.75
      vertex 20.75 -22.75 18.75
    endloop
  endfacet
  facet normal 0 -1 0
    outer loop
      vertex 20.75 -17.25 18.75
      vertex 20.75 -17.25 23
      vertex 15.25 -17.25 23
    endloop
  endfacet
  facet normal 0 -1 0
    outer loop
      vertex 15.25 -17.25 18.75
      vertex 20.75 -17.25 18.75
      vertex 15.25 -17.25 23
    endloop
  endfacet
  facet normal 0 0 -1
    outer loop
      vertex -22 0 -4
      vertex -21.8265 2.75733 -4
      vertex -21.8265 -2.75733 -4
    endloop
  endfacet
  facet normal 0 0 -1
    outer loop
      vertex -21.8265 -2.75733 -4
      vertex -21.8265 2.75733 -4
      vertex -21.3088 5.47118 -4
    endloop
  endfacet
  facet normal 0 0 -1
    outer loop
      vertex -21.8265 -2.75733 -4
      vertex -21.3088 5.47118 -4
      vertex -20.4551 8.09874 -4
    endloop
  endfacet
  facet normal 0 0 -1
    outer loop
      vertex -21.8265 -2.75733 -4
      vertex -20.4551 8.09874 -4
      vertex -19.2787 10.5986 -4
    endloop
  endfacet
  facet normal 0 0 -1
    outer loop
      vertex -21.8265 -2.75733 -4
      vertex -19.2787 10.5986 -4
      vertex -17.7984 12.9313 -4
    endloop
  endfacet
  facet normal 0 0 -1
    outer loop
      vertex -21.8265 -2.75733 -4
      vertex -17.7984 12.9313 -4
      vertex -16.0373 15.06 -4
    endloop
  endfacet
  facet normal 0 0 -1
    outer loop
      vertex -21.8265 -2.75733 -4
      vertex -16.0373 15.06 -4
      vertex -14.0233 16.9513 -4
    endloop
  endfacet
  facet normal 0 0 -1
    outer loop
      vertex -21.8265 -2.75733 -4
      vertex -14.0233 16.9513 -4
      vertex -11.7882 18.5752 -4
    endloop
  endfacet
  facet normal 0 0 -1
    outer loop
      vertex -21.8265 -2.75733 -4
      vertex -11.7882 18.5752 -4
      vertex -9.36714 19.9062 -4
    endloop
  endfacet
  facet normal 0 0 -1
    outer loop
      vertex -21.8265 -2.75733 -4
      vertex -9.36714 19.9062 -4
      vertex -6.79837 20.9232 -4
    endloop
  endfacet
  facet normal 0 0 -1
    outer loop
      vertex -21.8265 -2.75733 -4
      vertex -6.79837 20.9232 -4
      vertex -4.12239 21.6103 -4
    endloop
  endfacet
  facet normal 0 0 -1
    outer loop
      vertex -21.8265 -2.75733 -4
      vertex -4.12239 21.6103 -4
      vertex -1.38139 21.9566 -4
    endloop
  endfacet
  facet normal 0 0 -1
    outer loop
      vertex -21.8265 -2.75733 -4
      vertex -1.38139 21.9566 -4
      vertex 1.38139 21.9566 -4
    endloop
  endfacet
  facet normal 0 0 -1
    outer loop
      vertex -21.8265 -2.75733 -4
      vertex 1.38139 21.9566 -4
      vertex 4.12239 21.6103 -4
    endloop
  endfacet
  facet normal 0 0 -1
    outer loop
      vertex -21.8265 -2.75733 -4
      vertex 4.12239 21.6103 -4
      vertex 6.79837 20.9232 -4
    endloop
  endfacet
  facet normal 0 0 -1
    outer loop
      vertex -21.8265 -2.75733 -4
      vertex 6.79837 20.9232 -4
      vertex 9.36714 19.9062 -4
    endloop
  endfacet
  facet normal 0 0 -1
    outer loop
      vertex -1.9675 10.314 -4
      vertex 9.36714 19.9062 -4
      vertex 11.7882 18.5752 -4
    endloop
  endfacet
  facet normal 0 0 -1
    outer loop
      vertex 0.6593 10.4793 -4
      vertex 11.7882 18.5752 -4
      vertex 14.0233 16.9513 -4
    endloop
  endfacet
  facet normal 0 0 -1
    outer loop
      vertex 3.24468 9.98609 -4
      vertex 14.0233 16.9513 -4
      vertex 16.0373 15.06 -4
    endloop
  endfacet
  facet normal 0 0 -1
    outer loop
      vertex 5.62618 8.86544 -4
      vertex 16.0373 15.06 -4
      vertex 17.7984 12.9313 -4
    endloop
  endfacet
  facet normal 0 0 -1
    outer loop
      vertex 7.65417 7.18774 -4
      vertex 17.7984 12.9313 -4
      vertex 19.2787 10.5986 -4
    endloop
  endfacet
  facet normal 0 0 -1
    outer loop
      vertex 8.49468 6.17174 -4
      vertex 19.2787 10.5986 -4
      vertex 20.4551 8.09874 -4
    endloop
  endfacet
  facet normal 0 0 -1
    outer loop
      vertex 9.76265 3.86531 -4
      vertex 20.4551 8.09874 -4
      vertex 21.3088 5.47118 -4
    endloop
  endfacet
  facet normal 0 0 -1
    outer loop
      vertex 10.4172 1.316 -4
      vertex 21.3088 5.47118 -4
      vertex 21.8265 2.75733 -4
    endloop
  endfacet
  facet normal 0 0 -1
    outer loop
      vertex 10.5 0 -4
      vertex 21.8265 2.75733 -4
      vertex 22 0 -4
    endloop
  endfacet
  facet normal 0 0 -1
    outer loop
      vertex 10.1701 -2.61124 -4
      vertex 22 0 -4
      vertex 21.8265 -2.75733 -4
    endloop
  endfacet
  facet normal 0 0 -1
    outer loop
      vertex 9.76265 -3.86531 -4
      vertex 21.8265 -2.75733 -4
      vertex 21.3088 -5.47118 -4
    endloop
  endfacet
  facet normal 0 0 -1
    outer loop
      vertex 8.49468 -6.17174 -4
      vertex 21.3088 -5.47118 -4
      vertex 20.4551 -8.09874 -4
    endloop
  endfacet
  facet normal 0 0 -1
    outer loop
      vertex 6.69295 -8.09039 -4
      vertex 20.4551 -8.09874 -4
      vertex 19.2787 -10.5986 -4
    endloop
  endfacet
  facet normal 0 0 -1
    outer loop
      vertex 4.47068 -9.50068 -4
      vertex 19.2787 -10.5986 -4
      vertex 17.7984 -12.9313 -4
    endloop
  endfacet
  facet normal 0 0 -1
    outer loop
      vertex 1.9675 -10.314 -4
      vertex 17.7984 -12.9313 -4
      vertex 16.0373 -15.06 -4
    endloop
  endfacet
  facet normal 0 0 -1
    outer loop
      vertex -0.6593 -10.4793 -4
      vertex 16.0373 -15.06 -4
      vertex 14.0233 -16.9513 -4
    endloop
  endfacet
  facet normal 0 0 -1
    outer loop
      vertex -21.8265 -2.75733 -4
      vertex 14.0233 -16.9513 -4
      vertex 11.7882 -18.5752 -4
    endloop
  endfacet
  facet normal 0 0 -1
    outer loop
      vertex -21.8265 -2.75733 -4
      vertex 11.7882 -18.5752 -4
      vertex 9.36714 -19.9062 -4
    endloop
  endfacet
  facet normal 0 0 -1
    outer loop
      vertex -21.8265 -2.75733 -4
      vertex 9.36714 -19.9062 -4
      vertex 6.79837 -20.9232 -4
    endloop
  endfacet
  facet normal 0 0 -1
    outer loop
      vertex -21.8265 -2.75733 -4
      vertex 6.79837 -20.9232 -4
      vertex 4.12239 -21.6103 -4
    endloop
  endfacet
  facet normal 0 0 -1
    outer loop
      vertex -21.8265 -2.75733 -4
      vertex 4.12239 -21.6103 -4
      vertex 1.38139 -21.9566 -4
    endloop
  endfacet
  facet normal 0 0 -1
    outer loop
      vertex -21.8265 -2.75733 -4
      vertex 1.38139 -21.9566 -4
      vertex -1.38139 -21.9566 -4
    endloop
  endfacet
  facet normal 0 0 -1
    outer loop
      vertex -21.8265 -2.75733 -4
      vertex -1.38139 -21.9566 -4
      vertex -4.12239 -21.6103 -4
    endloop
  endfacet
  facet normal 0 0 -1
    outer loop
      vertex -21.8265 -2.75733 -4
      vertex -4.12239 -21.6103 -4
      vertex -6.79837 -20.9232 -4
    endloop
  endfacet
  facet normal 0 0 -1
    outer loop
      vertex -21.8265 -2.75733 -4
      vertex -6.79837 -20.9232 -4
      vertex -9.36714 -19.9062 -4
    endloop
  endfacet
  facet normal 0 0 -1
    outer loop
      vertex -21.8265 -2.75733 -4
      vertex -9.36714 -19.9062 -4
      vertex -11.7882 -18.5752 -4
    endloop
  endfacet
  facet normal 0 0 -1
    outer loop
      vertex -21.8265 -2.75733 -4
      vertex -11.7882 -18.5752 -4
      vertex -14.0233 -16.9513 -4
    endloop
  endfacet
  facet normal 0 0 -1
    outer loop
      vertex -21.8265 -2.75733 -4
      vertex -14.0233 -16.9513 -4
      vertex -16.0373 -15.06 -4
    endloop
  endfacet
  facet normal 0 0 -1
    outer loop
      vertex -21.8265 -2.75733 -4
      vertex -16.0373 -15.06 -4
      vertex -17.7984 -12.9313 -4
    endloop
  endfacet
  facet normal 0 0 -1
    outer loop
      vertex -21.8265 -2.75733 -4
      vertex -17.7984 -12.9313 -4
      vertex -19.2787 -10.5986 -4
    endloop
  endfacet
  facet normal 0 0 -1
    outer loop
      vertex -21.8265 -2.75733 -4
      vertex -19.2787 -10.5986 -4
      vertex -20.4551 -8.09874 -4
    endloop
  endfacet
  facet normal 0 0 -1
    outer loop
      vertex -21.8265 -2.75733 -4
      vertex -20.4551 -8.09874 -4
      vertex -21.3088 -5.47118 -4
    endloop
  endfacet
  facet normal 0 0 -1
    outer loop
      vertex -10.4172 -1.316 -4
      vertex -21.8265 -2.75733 -4
      vertex -10.5 0 -4
    endloop
  endfacet
  facet normal 0 0 -1
    outer loop
      vertex -10.1701 -2.61124 -4
      vertex -21.8265 -2.75733 -4
      vertex -10.4172 -1.316 -4
    endloop
  endfacet
  facet normal 0 0 -1
    outer loop
      vertex -9.76265 -3.86531 -4
      vertex -21.8265 -2.75733 -4
      vertex -10.1701 -2.61124 -4
    endloop
  endfacet
  facet normal 0 0 -1
    outer loop
      vertex -9.20122 -5.05841 -4
      vertex -21.8265 -2.75733 -4
      vertex -9.76265 -3.86531 -4
    endloop
  endfacet
  facet normal 0 0 -1
    outer loop
      vertex -8.49468 -6.17174 -4
      vertex -21.8265 -2.75733 -4
      vertex -9.20122 -5.05841 -4
    endloop
  endfacet
  facet normal 0 0 -1
    outer loop
      vertex -7.65417 -7.18774 -4
      vertex -21.8265 -2.75733 -4
      vertex -8.49468 -6.17174 -4
    endloop
  endfacet
  facet normal 0 0 -1
    outer loop
      vertex -6.69295 -8.09039 -4
      vertex -21.8265 -2.75733 -4
      vertex -7.65417 -7.18774 -4
    endloop
  endfacet
  facet normal 0 0 -1
    outer loop
      vertex -1.9675 -10.314 -4
      vertex 14.0233 -16.9513 -4
      vertex -3.24468 -9.98609 -4
    endloop
  endfacet
  facet normal 0 0 -1
    outer loop
      vertex -21.8265 -2.75733 -4
      vertex -6.69295 -8.09039 -4
      vertex -5.62618 -8.86544 -4
    endloop
  endfacet
  facet normal 0 0 -1
    outer loop
      vertex -21.8265 -2.75733 -4
      vertex -5.62618 -8.86544 -4
      vertex -4.47068 -9.50068 -4
    endloop
  endfacet
  facet normal 0 0 -1
    outer loop
      vertex -21.8265 -2.75733 -4
      vertex -4.47068 -9.50068 -4
      vertex 14.0233 -16.9513 -4
    endloop
  endfacet
  facet normal 0 0 -1
    outer loop
      vertex -4.47068 -9.50068 -4
      vertex -3.24468 -9.98609 -4
      vertex 14.0233 -16.9513 -4
    endloop
  endfacet
  facet normal 0 0 -1
    outer loop
      vertex -0.6593 -10.4793 -4
      vertex 14.0233 -16.9513 -4
      vertex -1.9675 -10.314 -4
    endloop
  endfacet
  facet normal 0 0 -1
    outer loop
      vertex 0.6593 -10.4793 -4
      vertex 16.0373 -15.06 -4
      vertex -0.6593 -10.4793 -4
    endloop
  endfacet
  facet normal 0 0 -1
    outer loop
      vertex 1.9675 -10.314 -4
      vertex 16.0373 -15.06 -4
      vertex 0.6593 -10.4793 -4
    endloop
  endfacet
  facet normal 0 0 -1
    outer loop
      vertex 3.24468 -9.98609 -4
      vertex 17.7984 -12.9313 -4
      vertex 1.9675 -10.314 -4
    endloop
  endfacet
  facet normal 0 0 -1
    outer loop
      vertex 4.47068 -9.50068 -4
      vertex 17.7984 -12.9313 -4
      vertex 3.24468 -9.98609 -4
    endloop
  endfacet
  facet normal 0 0 -1
    outer loop
      vertex 5.62618 -8.86544 -4
      vertex 19.2787 -10.5986 -4
      vertex 4.47068 -9.50068 -4
    endloop
  endfacet
  facet normal 0 0 -1
    outer loop
      vertex 6.69295 -8.09039 -4
      vertex 19.2787 -10.5986 -4
      vertex 5.62618 -8.86544 -4
    endloop
  endfacet
  facet normal 0 0 -1
    outer loop
      vertex 7.65417 -7.18774 -4
      vertex 20.4551 -8.09874 -4
      vertex 6.69295 -8.09039 -4
    endloop
  endfacet
  facet normal 0 0 -1
    outer loop
      vertex 8.49468 -6.17174 -4
      vertex 20.4551 -8.09874 -4
      vertex 7.65417 -7.18774 -4
    endloop
  endfacet
  facet normal 0 0 -1
    outer loop
      vertex 9.20122 -5.05841 -4
      vertex 21.3088 -5.47118 -4
      vertex 8.49468 -6.17174 -4
    endloop
  endfacet
  facet normal 0 0 -1
    outer loop
      vertex 9.76265 -3.86531 -4
      vertex 21.3088 -5.47118 -4
      vertex 9.20122 -5.05841 -4
    endloop
  endfacet
  facet normal 0 0 -1
    outer loop
      vertex 10.4172 -1.316 -4
      vertex 22 0 -4
      vertex 10.1701 -2.61124 -4
    endloop
  endfacet
  facet normal 0 0 -1
    outer loop
      vertex 10.5 0 -4
      vertex 22 0 -4
      vertex 10.4172 -1.316 -4
    endloop
  endfacet
  facet normal 0 0 -1
    outer loop
      vertex 10.4172 1.316 -4
      vertex 21.8265 2.75733 -4
      vertex 10.5 0 -4
    endloop
  endfacet
  facet normal 0 0 -1
    outer loop
      vertex 10.1701 2.61124 -4
      vertex 21.3088 5.47118 -4
      vertex 10.4172 1.316 -4
    endloop
  endfacet
  facet normal 0 0 -1
    outer loop
      vertex 10.1701 -2.61124 -4
      vertex 21.8265 -2.75733 -4
      vertex 9.76265 -3.86531 -4
    endloop
  endfacet
  facet normal 0 0 -1
    outer loop
      vertex 9.20122 5.05841 -4
      vertex 20.4551 8.09874 -4
      vertex 9.76265 3.86531 -4
    endloop
  endfacet
  facet normal 0 0 -1
    outer loop
      vertex 8.49468 6.17174 -4
      vertex 20.4551 8.09874 -4
      vertex 9.20122 5.05841 -4
    endloop
  endfacet
  facet normal 0 0 -1
    outer loop
      vertex 6.69295 8.09039 -4
      vertex 17.7984 12.9313 -4
      vertex 7.65417 7.18774 -4
    endloop
  endfacet
  facet normal 0 0 -1
    outer loop
      vertex 9.76265 3.86531 -4
      vertex 21.3088 5.47118 -4
      vertex 10.1701 2.61124 -4
    endloop
  endfacet
  facet normal 0 0 -1
    outer loop
      vertex 4.47068 9.50068 -4
      vertex 16.0373 15.06 -4
      vertex 5.62618 8.86544 -4
    endloop
  endfacet
  facet normal 0 0 -1
    outer loop
      vertex 3.24468 9.98609 -4
      vertex 16.0373 15.06 -4
      vertex 4.47068 9.50068 -4
    endloop
  endfacet
  facet normal 0 0 -1
    outer loop
      vertex 1.9675 10.314 -4
      vertex 14.0233 16.9513 -4
      vertex 3.24468 9.98609 -4
    endloop
  endfacet
  facet normal 0 0 -1
    outer loop
      vertex 0.6593 10.4793 -4
      vertex 14.0233 16.9513 -4
      vertex 1.9675 10.314 -4
    endloop
  endfacet
  facet normal 0 0 -1
    outer loop
      vertex -0.6593 10.4793 -4
      vertex 11.7882 18.5752 -4
      vertex 0.6593 10.4793 -4
    endloop
  endfacet
  facet normal 0 0 -1
    outer loop
      vertex -1.9675 10.314 -4
      vertex 11.7882 18.5752 -4
      vertex -0.6593 10.4793 -4
    endloop
  endfacet
  facet normal 0 0 -1
    outer loop
      vertex -3.24468 9.98609 -4
      vertex 9.36714 19.9062 -4
      vertex -1.9675 10.314 -4
    endloop
  endfacet
  facet normal 0 0 -1
    outer loop
      vertex -7.65417 7.18774 -4
      vertex -21.8265 -2.75733 -4
      vertex -6.69295 8.09039 -4
    endloop
  endfacet
  facet normal 0 0 -1
    outer loop
      vertex -4.47068 9.50068 -4
      vertex 9.36714 19.9062 -4
      vertex -3.24468 9.98609 -4
    endloop
  endfacet
  facet normal 0 0 -1
    outer loop
      vertex -5.62618 8.86544 -4
      vertex 9.36714 19.9062 -4
      vertex -4.47068 9.50068 -4
    endloop
  endfacet
  facet normal 0 0 -1
    outer loop
      vertex -21.8265 -2.75733 -4
      vertex 9.36714 19.9062 -4
      vertex -5.62618 8.86544 -4
    endloop
  endfacet
  facet normal 0 0 -1
    outer loop
      vertex -21.8265 -2.75733 -4
      vertex -5.62618 8.86544 -4
      vertex -6.69295 8.09039 -4
    endloop
  endfacet
  facet normal 0 0 -1
    outer loop
      vertex -8.49468 6.17174 -4
      vertex -21.8265 -2.75733 -4
      vertex -7.65417 7.18774 -4
    endloop
  endfacet
  facet normal 0 0 -1
    outer loop
      vertex -9.20122 5.05841 -4
      vertex -21.8265 -2.75733 -4
      vertex -8.49468 6.17174 -4
    endloop
  endfacet
  facet normal 0 0 -1
    outer loop
      vertex -9.76265 3.86531 -4
      vertex -21.8265 -2.75733 -4
      vertex -9.20122 5.05841 -4
    endloop
  endfacet
  facet normal 0 0 -1
    outer loop
      vertex -10.1701 2.61124 -4
      vertex -21.8265 -2.75733 -4
      vertex -9.76265 3.86531 -4
    endloop
  endfacet
  facet normal 0 0 -1
    outer loop
      vertex -10.4172 1.316 -4
      vertex -21.8265 -2.75733 -4
      vertex -10.1701 2.61124 -4
    endloop
  endfacet
  facet normal 0 0 -1
    outer loop
      vertex -10.5 0 -4
      vertex -21.8265 -2.75733 -4
      vertex -10.4172 1.316 -4
    endloop
  endfacet
  facet normal 0 0 -1
    outer loop
      vertex 5.62618 8.86544 -4
      vertex 17.7984 12.9313 -4
      vertex 6.69295 8.09039 -4
    endloop
  endfacet
  facet normal 0 0 -1
    outer loop
      vertex 7.65417 7.18774 -4
      vertex 19.2787 10.5986 -4
      vertex 8.49468 6.17174 -4
    endloop
  endfacet
  facet normal 0.24869 0.968583 0
    outer loop
      vertex 4.12239 21.6103 -4
      vertex 4.12239 21.6103 0
      vertex 6.79837 20.9232 -4
    endloop
  endfacet
  facet normal 0.24869 0.968583 0
    outer loop
      vertex 6.79837 20.9232 -4
      vertex 4.12239 21.6103 0
      vertex 6.79837 20.9232 0
    endloop
  endfacet
  facet normal -0.24869 0.968583 0
    outer loop
      vertex -6.79837 20.9232 -4
      vertex -6.79837 20.9232 0
      vertex -4.12239 21.6103 -4
    endloop
  endfacet
  facet normal -0.24869 0.968583 0
    outer loop
      vertex -4.12239 21.6103 -4
      vertex -6.79837 20.9232 0
      vertex -4.12239 21.6103 0
    endloop
  endfacet
  facet normal -0.125333 0.992115 0
    outer loop
      vertex -4.12239 21.6103 -4
      vertex -4.12239 21.6103 0
      vertex -1.38139 21.9566 -4
    endloop
  endfacet
  facet normal -0.125333 0.992115 0
    outer loop
      vertex -1.38139 21.9566 -4
      vertex -4.12239 21.6103 0
      vertex -1.38139 21.9566 0
    endloop
  endfacet
  facet normal 0 1 0
    outer loop
      vertex -1.38139 21.9566 -4
      vertex -1.38139 21.9566 0
      vertex 1.38139 21.9566 -4
    endloop
  endfacet
  facet normal 0 1 0
    outer loop
      vertex 1.38139 21.9566 -4
      vertex -1.38139 21.9566 0
      vertex 1.38139 21.9566 0
    endloop
  endfacet
  facet normal 0.125333 0.992115 0
    outer loop
      vertex 1.38139 21.9566 -4
      vertex 1.38139 21.9566 0
      vertex 4.12239 21.6103 -4
    endloop
  endfacet
  facet normal 0.125333 0.992115 0
    outer loop
      vertex 4.12239 21.6103 -4
      vertex 1.38139 21.9566 0
      vertex 4.12239 21.6103 0
    endloop
  endfacet
  facet normal 0 0 1
    outer loop
      vertex -20.5 -17.5 27
      vertex -20.5 -22.5 27
      vertex -15.5 -22.5 27
    endloop
  endfacet
  facet normal 0 0 1
    outer loop
      vertex -15.5 -17.5 27
      vertex -20.5 -17.5 27
      vertex -15.5 -22.5 27
    endloop
  endfacet
  facet normal 0 0 1
    outer loop
      vertex 20.75 -22.75 18.75
      vertex 20.75 -17.25 18.75
      vertex 15.25 -17.25 18.75
    endloop
  endfacet
  facet normal 0 0 1
    outer loop
      vertex 15.25 -22.75 18.75
      vertex 20.75 -22.75 18.75
      vertex 15.25 -17.25 18.75
    endloop
  endfacet
endsolid OpenSCAD_Model
