solid OpenSCAD_Model
  facet normal 0 0 -1
    outer loop
      vertex 36.423 -21.2836 -19
      vertex 36.7508 -18.1649 -19
      vertex 36.7508 -24.4022 -19
    endloop
  endfacet
  facet normal 0 0 -1
    outer loop
      vertex 36.7508 -24.4022 -19
      vertex 36.7508 -18.1649 -19
      vertex 37.7198 -15.1825 -19
    endloop
  endfacet
  facet normal 0 0 -1
    outer loop
      vertex 36.7508 -24.4022 -19
      vertex 37.7198 -15.1825 -19
      vertex 39.2878 -12.4668 -19
    endloop
  endfacet
  facet normal 0 0 -1
    outer loop
      vertex 36.7508 -24.4022 -19
      vertex 39.2878 -12.4668 -19
      vertex 41.386 -10.1364 -19
    endloop
  endfacet
  facet normal 0 0 -1
    outer loop
      vertex 40.9058 -13.6423 -19
      vertex 41.386 -10.1364 -19
      vertex 43.923 -8.29317 -19
    endloop
  endfacet
  facet normal 0 0 -1
    outer loop
      vertex 44.923 -10.0252 -19
      vertex 43.923 -8.29317 -19
      vertex 46.7878 -7.01771 -19
    endloop
  endfacet
  facet normal 0 0 -1
    outer loop
      vertex 47.4058 -8.91982 -19
      vertex 46.7878 -7.01771 -19
      vertex 49.8551 -6.36573 -19
    endloop
  endfacet
  facet normal 0 0 -1
    outer loop
      vertex 50.0641 -8.35477 -19
      vertex 49.8551 -6.36573 -19
      vertex 52.9909 -6.36573 -19
    endloop
  endfacet
  facet normal 0 0 -1
    outer loop
      vertex 52.7819 -8.35477 -19
      vertex 52.9909 -6.36573 -19
      vertex 56.0583 -7.01771 -19
    endloop
  endfacet
  facet normal 0 0 -1
    outer loop
      vertex 55.4402 -8.91982 -19
      vertex 56.0583 -7.01771 -19
      vertex 58.923 -8.29317 -19
    endloop
  endfacet
  facet normal 0 0 -1
    outer loop
      vertex 57.923 -10.0252 -19
      vertex 58.923 -8.29317 -19
      vertex 61.46 -10.1364 -19
    endloop
  endfacet
  facet normal 0 0 -1
    outer loop
      vertex 60.1217 -11.6227 -19
      vertex 61.46 -10.1364 -19
      vertex 63.5583 -12.4668 -19
    endloop
  endfacet
  facet normal 0 0 -1
    outer loop
      vertex 61.9402 -13.6423 -19
      vertex 63.5583 -12.4668 -19
      vertex 65.1262 -15.1825 -19
    endloop
  endfacet
  facet normal 0 0 -1
    outer loop
      vertex 64.1389 -18.5807 -19
      vertex 65.1262 -15.1825 -19
      vertex 66.0952 -18.1649 -19
    endloop
  endfacet
  facet normal 0 0 -1
    outer loop
      vertex 64.423 -21.2836 -19
      vertex 66.0952 -18.1649 -19
      vertex 66.423 -21.2836 -19
    endloop
  endfacet
  facet normal 0 0 -1
    outer loop
      vertex 64.1389 -23.9864 -19
      vertex 66.423 -21.2836 -19
      vertex 66.0952 -24.4022 -19
    endloop
  endfacet
  facet normal 0 0 -1
    outer loop
      vertex 63.2991 -26.5711 -19
      vertex 66.0952 -24.4022 -19
      vertex 65.1262 -27.3846 -19
    endloop
  endfacet
  facet normal 0 0 -1
    outer loop
      vertex 61.9402 -28.9248 -19
      vertex 65.1262 -27.3846 -19
      vertex 63.5583 -30.1003 -19
    endloop
  endfacet
  facet normal 0 0 -1
    outer loop
      vertex 60.1217 -30.9444 -19
      vertex 63.5583 -30.1003 -19
      vertex 61.46 -32.4307 -19
    endloop
  endfacet
  facet normal 0 0 -1
    outer loop
      vertex 57.923 -32.5419 -19
      vertex 61.46 -32.4307 -19
      vertex 58.923 -34.2739 -19
    endloop
  endfacet
  facet normal 0 0 -1
    outer loop
      vertex 55.4402 -33.6473 -19
      vertex 58.923 -34.2739 -19
      vertex 56.0583 -35.5494 -19
    endloop
  endfacet
  facet normal 0 0 -1
    outer loop
      vertex 52.7819 -34.2123 -19
      vertex 56.0583 -35.5494 -19
      vertex 52.9909 -36.2014 -19
    endloop
  endfacet
  facet normal 0 0 -1
    outer loop
      vertex 47.4058 -33.6473 -19
      vertex 52.9909 -36.2014 -19
      vertex 49.8551 -36.2014 -19
    endloop
  endfacet
  facet normal 0 0 -1
    outer loop
      vertex 42.7243 -30.9444 -19
      vertex 49.8551 -36.2014 -19
      vertex 46.7878 -35.5494 -19
    endloop
  endfacet
  facet normal 0 0 -1
    outer loop
      vertex 36.7508 -24.4022 -19
      vertex 46.7878 -35.5494 -19
      vertex 43.923 -34.2739 -19
    endloop
  endfacet
  facet normal 0 0 -1
    outer loop
      vertex 36.7508 -24.4022 -19
      vertex 43.923 -34.2739 -19
      vertex 41.386 -32.4307 -19
    endloop
  endfacet
  facet normal 0 0 -1
    outer loop
      vertex 36.7508 -24.4022 -19
      vertex 41.386 -32.4307 -19
      vertex 39.2878 -30.1003 -19
    endloop
  endfacet
  facet normal 0 0 -1
    outer loop
      vertex 36.7508 -24.4022 -19
      vertex 39.2878 -30.1003 -19
      vertex 37.7198 -27.3846 -19
    endloop
  endfacet
  facet normal 0 0 -1
    outer loop
      vertex 38.7071 -23.9864 -19
      vertex 36.7508 -24.4022 -19
      vertex 38.423 -21.2836 -19
    endloop
  endfacet
  facet normal 0 0 -1
    outer loop
      vertex 39.5469 -26.5711 -19
      vertex 36.7508 -24.4022 -19
      vertex 38.7071 -23.9864 -19
    endloop
  endfacet
  facet normal 0 0 -1
    outer loop
      vertex 40.9058 -28.9248 -19
      vertex 36.7508 -24.4022 -19
      vertex 39.5469 -26.5711 -19
    endloop
  endfacet
  facet normal 0 0 -1
    outer loop
      vertex 47.4058 -33.6473 -19
      vertex 49.8551 -36.2014 -19
      vertex 44.923 -32.5419 -19
    endloop
  endfacet
  facet normal 0 0 -1
    outer loop
      vertex 36.7508 -24.4022 -19
      vertex 40.9058 -28.9248 -19
      vertex 46.7878 -35.5494 -19
    endloop
  endfacet
  facet normal 0 0 -1
    outer loop
      vertex 44.923 -32.5419 -19
      vertex 49.8551 -36.2014 -19
      vertex 42.7243 -30.9444 -19
    endloop
  endfacet
  facet normal 0 0 -1
    outer loop
      vertex 40.9058 -28.9248 -19
      vertex 42.7243 -30.9444 -19
      vertex 46.7878 -35.5494 -19
    endloop
  endfacet
  facet normal 0 0 -1
    outer loop
      vertex 50.0641 -34.2123 -19
      vertex 52.9909 -36.2014 -19
      vertex 47.4058 -33.6473 -19
    endloop
  endfacet
  facet normal 0 0 -1
    outer loop
      vertex 52.7819 -34.2123 -19
      vertex 52.9909 -36.2014 -19
      vertex 50.0641 -34.2123 -19
    endloop
  endfacet
  facet normal 0 0 -1
    outer loop
      vertex 64.1389 -18.5807 -19
      vertex 66.0952 -18.1649 -19
      vertex 64.423 -21.2836 -19
    endloop
  endfacet
  facet normal 0 0 -1
    outer loop
      vertex 63.2991 -15.996 -19
      vertex 65.1262 -15.1825 -19
      vertex 64.1389 -18.5807 -19
    endloop
  endfacet
  facet normal 0 0 -1
    outer loop
      vertex 64.423 -21.2836 -19
      vertex 66.423 -21.2836 -19
      vertex 64.1389 -23.9864 -19
    endloop
  endfacet
  facet normal 0 0 -1
    outer loop
      vertex 64.1389 -23.9864 -19
      vertex 66.0952 -24.4022 -19
      vertex 63.2991 -26.5711 -19
    endloop
  endfacet
  facet normal 0 0 -1
    outer loop
      vertex 63.2991 -26.5711 -19
      vertex 65.1262 -27.3846 -19
      vertex 61.9402 -28.9248 -19
    endloop
  endfacet
  facet normal 0 0 -1
    outer loop
      vertex 61.9402 -28.9248 -19
      vertex 63.5583 -30.1003 -19
      vertex 60.1217 -30.9444 -19
    endloop
  endfacet
  facet normal 0 0 -1
    outer loop
      vertex 60.1217 -30.9444 -19
      vertex 61.46 -32.4307 -19
      vertex 57.923 -32.5419 -19
    endloop
  endfacet
  facet normal 0 0 -1
    outer loop
      vertex 57.923 -32.5419 -19
      vertex 58.923 -34.2739 -19
      vertex 55.4402 -33.6473 -19
    endloop
  endfacet
  facet normal 0 0 -1
    outer loop
      vertex 55.4402 -33.6473 -19
      vertex 56.0583 -35.5494 -19
      vertex 52.7819 -34.2123 -19
    endloop
  endfacet
  facet normal 0 0 -1
    outer loop
      vertex 42.7243 -11.6227 -19
      vertex 43.923 -8.29317 -19
      vertex 44.923 -10.0252 -19
    endloop
  endfacet
  facet normal 0 0 -1
    outer loop
      vertex 40.9058 -13.6423 -19
      vertex 43.923 -8.29317 -19
      vertex 42.7243 -11.6227 -19
    endloop
  endfacet
  facet normal 0 0 -1
    outer loop
      vertex 39.5469 -15.996 -19
      vertex 41.386 -10.1364 -19
      vertex 40.9058 -13.6423 -19
    endloop
  endfacet
  facet normal 0 0 -1
    outer loop
      vertex 36.7508 -24.4022 -19
      vertex 41.386 -10.1364 -19
      vertex 39.5469 -15.996 -19
    endloop
  endfacet
  facet normal 0 0 -1
    outer loop
      vertex 36.7508 -24.4022 -19
      vertex 39.5469 -15.996 -19
      vertex 38.7071 -18.5807 -19
    endloop
  endfacet
  facet normal 0 0 -1
    outer loop
      vertex 44.923 -10.0252 -19
      vertex 46.7878 -7.01771 -19
      vertex 47.4058 -8.91982 -19
    endloop
  endfacet
  facet normal 0 0 -1
    outer loop
      vertex 38.423 -21.2836 -19
      vertex 36.7508 -24.4022 -19
      vertex 38.7071 -18.5807 -19
    endloop
  endfacet
  facet normal 0 0 -1
    outer loop
      vertex 47.4058 -8.91982 -19
      vertex 49.8551 -6.36573 -19
      vertex 50.0641 -8.35477 -19
    endloop
  endfacet
  facet normal 0 0 -1
    outer loop
      vertex 50.0641 -8.35477 -19
      vertex 52.9909 -6.36573 -19
      vertex 52.7819 -8.35477 -19
    endloop
  endfacet
  facet normal 0 0 -1
    outer loop
      vertex 52.7819 -8.35477 -19
      vertex 56.0583 -7.01771 -19
      vertex 55.4402 -8.91982 -19
    endloop
  endfacet
  facet normal 0 0 -1
    outer loop
      vertex 55.4402 -8.91982 -19
      vertex 58.923 -8.29317 -19
      vertex 57.923 -10.0252 -19
    endloop
  endfacet
  facet normal 0 0 -1
    outer loop
      vertex 57.923 -10.0252 -19
      vertex 61.46 -10.1364 -19
      vertex 60.1217 -11.6227 -19
    endloop
  endfacet
  facet normal 0 0 -1
    outer loop
      vertex 60.1217 -11.6227 -19
      vertex 63.5583 -12.4668 -19
      vertex 61.9402 -13.6423 -19
    endloop
  endfacet
  facet normal 0 0 -1
    outer loop
      vertex 61.9402 -13.6423 -19
      vertex 65.1262 -15.1825 -19
      vertex 63.2991 -15.996 -19
    endloop
  endfacet
  facet normal -0.994522 0.104528 0
    outer loop
      vertex 36.423 -21.2836 -19
      vertex 36.423 -21.2836 -13.5
      vertex 36.7508 -18.1649 -19
    endloop
  endfacet
  facet normal -0.994522 0.104528 0
    outer loop
      vertex 36.7508 -18.1649 -19
      vertex 36.423 -21.2836 -13.5
      vertex 36.7508 -18.1649 -13.5
    endloop
  endfacet
  facet normal -0.994522 -0.104528 0
    outer loop
      vertex 36.423 -21.2836 -19
      vertex 36.7508 -24.4022 -19
      vertex 36.423 -21.2836 -13.5
    endloop
  endfacet
  facet normal -0.994522 -0.104528 0
    outer loop
      vertex 36.423 -21.2836 -13.5
      vertex 36.7508 -24.4022 -19
      vertex 36.7508 -24.4022 -13.5
    endloop
  endfacet
  facet normal -0.951057 -0.309017 0
    outer loop
      vertex 36.7508 -24.4022 -19
      vertex 37.7198 -27.3846 -19
      vertex 36.7508 -24.4022 -13.5
    endloop
  endfacet
  facet normal -0.951057 -0.309017 0
    outer loop
      vertex 36.7508 -24.4022 -13.5
      vertex 37.7198 -27.3846 -19
      vertex 37.7198 -27.3846 -13.5
    endloop
  endfacet
  facet normal -0.866025 -0.5 0
    outer loop
      vertex 37.7198 -27.3846 -19
      vertex 39.2878 -30.1003 -19
      vertex 37.7198 -27.3846 -13.5
    endloop
  endfacet
  facet normal -0.866025 -0.5 0
    outer loop
      vertex 37.7198 -27.3846 -13.5
      vertex 39.2878 -30.1003 -19
      vertex 39.2878 -30.1003 -13.5
    endloop
  endfacet
  facet normal -0.743145 -0.669131 0
    outer loop
      vertex 39.2878 -30.1003 -19
      vertex 41.386 -32.4307 -19
      vertex 39.2878 -30.1003 -13.5
    endloop
  endfacet
  facet normal -0.743145 -0.669131 0
    outer loop
      vertex 39.7189 -30.5792 -13.5
      vertex 41.386 -32.4307 -19
      vertex 41.386 -32.4307 11
    endloop
  endfacet
  facet normal -0.743145 -0.669131 0
    outer loop
      vertex 39.2878 -30.1003 -13.5
      vertex 41.386 -32.4307 -19
      vertex 39.7189 -30.5792 -13.5
    endloop
  endfacet
  facet normal -0.743145 -0.669131 0
    outer loop
      vertex 39.7189 -30.5792 -13.5
      vertex 41.386 -32.4307 11
      vertex 39.7189 -30.5792 11
    endloop
  endfacet
  facet normal -0.587785 -0.809017 0
    outer loop
      vertex 41.386 -32.4307 11
      vertex 41.386 -32.4307 -19
      vertex 43.923 -34.2739 -19
    endloop
  endfacet
  facet normal -0.587785 -0.809017 0
    outer loop
      vertex 43.923 -34.2739 11
      vertex 41.386 -32.4307 11
      vertex 43.923 -34.2739 -19
    endloop
  endfacet
  facet normal -0.406737 -0.913545 0
    outer loop
      vertex 43.923 -34.2739 11
      vertex 43.923 -34.2739 -19
      vertex 46.7878 -35.5494 -19
    endloop
  endfacet
  facet normal -0.406737 -0.913545 0
    outer loop
      vertex 46.7878 -35.5494 11
      vertex 43.923 -34.2739 11
      vertex 46.7878 -35.5494 -19
    endloop
  endfacet
  facet normal -0.207911 -0.978148 0
    outer loop
      vertex 46.7878 -35.5494 11
      vertex 46.7878 -35.5494 -19
      vertex 49.8551 -36.2014 -19
    endloop
  endfacet
  facet normal -0.207911 -0.978148 0
    outer loop
      vertex 49.8551 -36.2014 11
      vertex 46.7878 -35.5494 11
      vertex 49.8551 -36.2014 -19
    endloop
  endfacet
  facet normal 0 -1 0
    outer loop
      vertex 49.8551 -36.2014 11
      vertex 49.8551 -36.2014 -19
      vertex 52.9909 -36.2014 -19
    endloop
  endfacet
  facet normal 0 -1 0
    outer loop
      vertex 52.9909 -36.2014 11
      vertex 49.8551 -36.2014 11
      vertex 52.9909 -36.2014 -19
    endloop
  endfacet
  facet normal 0.207911 -0.978148 0
    outer loop
      vertex 52.9909 -36.2014 11
      vertex 52.9909 -36.2014 -19
      vertex 56.0583 -35.5494 -19
    endloop
  endfacet
  facet normal 0.207911 -0.978148 0
    outer loop
      vertex 56.0583 -35.5494 11
      vertex 52.9909 -36.2014 11
      vertex 56.0583 -35.5494 -19
    endloop
  endfacet
  facet normal 0.406737 -0.913545 0
    outer loop
      vertex 56.0583 -35.5494 11
      vertex 56.0583 -35.5494 -19
      vertex 58.923 -34.2739 -19
    endloop
  endfacet
  facet normal 0.406737 -0.913545 0
    outer loop
      vertex 58.923 -34.2739 11
      vertex 56.0583 -35.5494 11
      vertex 58.923 -34.2739 -19
    endloop
  endfacet
  facet normal 0.587785 -0.809017 0
    outer loop
      vertex 58.923 -34.2739 11
      vertex 58.923 -34.2739 -19
      vertex 61.46 -32.4307 -19
    endloop
  endfacet
  facet normal 0.587785 -0.809017 0
    outer loop
      vertex 61.46 -32.4307 11
      vertex 58.923 -34.2739 11
      vertex 61.46 -32.4307 -19
    endloop
  endfacet
  facet normal 0.743145 -0.669131 0
    outer loop
      vertex 61.46 -32.4307 11
      vertex 61.46 -32.4307 -19
      vertex 63.5583 -30.1003 -19
    endloop
  endfacet
  facet normal 0.743145 -0.669131 0
    outer loop
      vertex 63.5583 -30.1003 11
      vertex 61.46 -32.4307 11
      vertex 63.5583 -30.1003 -19
    endloop
  endfacet
  facet normal 0.866025 -0.5 0
    outer loop
      vertex 63.5583 -30.1003 11
      vertex 63.5583 -30.1003 -19
      vertex 65.1262 -27.3846 -19
    endloop
  endfacet
  facet normal 0.866025 -0.5 0
    outer loop
      vertex 65.1262 -27.3846 11
      vertex 63.5583 -30.1003 11
      vertex 65.1262 -27.3846 -19
    endloop
  endfacet
  facet normal 0.951057 -0.309017 0
    outer loop
      vertex 65.1262 -27.3846 11
      vertex 65.1262 -27.3846 -19
      vertex 66.0952 -24.4022 -19
    endloop
  endfacet
  facet normal 0.951057 -0.309017 0
    outer loop
      vertex 66.0952 -24.4022 11
      vertex 65.1262 -27.3846 11
      vertex 66.0952 -24.4022 -19
    endloop
  endfacet
  facet normal 0.994522 -0.104528 0
    outer loop
      vertex 66.0952 -24.4022 11
      vertex 66.0952 -24.4022 -19
      vertex 66.423 -21.2836 -19
    endloop
  endfacet
  facet normal 0.994522 -0.104528 0
    outer loop
      vertex 66.423 -21.2836 11
      vertex 66.0952 -24.4022 11
      vertex 66.423 -21.2836 -19
    endloop
  endfacet
  facet normal 0.994522 0.104528 0
    outer loop
      vertex 66.423 -21.2836 -19
      vertex 66.0952 -18.1649 -19
      vertex 66.0952 -18.1649 11
    endloop
  endfacet
  facet normal 0.994522 0.104528 0
    outer loop
      vertex 66.423 -21.2836 11
      vertex 66.423 -21.2836 -19
      vertex 66.0952 -18.1649 11
    endloop
  endfacet
  facet normal 0.951057 0.309017 0
    outer loop
      vertex 66.0952 -18.1649 -19
      vertex 65.1262 -15.1825 -19
      vertex 65.1262 -15.1825 11
    endloop
  endfacet
  facet normal 0.951057 0.309017 0
    outer loop
      vertex 66.0952 -18.1649 11
      vertex 66.0952 -18.1649 -19
      vertex 65.1262 -15.1825 11
    endloop
  endfacet
  facet normal 0.866025 0.5 0
    outer loop
      vertex 65.1262 -15.1825 -19
      vertex 63.5583 -12.4668 -19
      vertex 63.5583 -12.4668 11
    endloop
  endfacet
  facet normal 0.866025 0.5 0
    outer loop
      vertex 65.1262 -15.1825 11
      vertex 65.1262 -15.1825 -19
      vertex 63.5583 -12.4668 11
    endloop
  endfacet
  facet normal 0.743145 0.669131 0
    outer loop
      vertex 63.5583 -12.4668 -19
      vertex 61.46 -10.1364 -19
      vertex 61.46 -10.1364 11
    endloop
  endfacet
  facet normal 0.743145 0.669131 0
    outer loop
      vertex 63.5583 -12.4668 11
      vertex 63.5583 -12.4668 -19
      vertex 61.46 -10.1364 11
    endloop
  endfacet
  facet normal 0.587785 0.809017 0
    outer loop
      vertex 58.923 -8.29317 -19
      vertex 58.923 -8.29317 11
      vertex 61.46 -10.1364 -19
    endloop
  endfacet
  facet normal 0.587785 0.809017 0
    outer loop
      vertex 61.46 -10.1364 -19
      vertex 58.923 -8.29317 11
      vertex 61.46 -10.1364 11
    endloop
  endfacet
  facet normal 0.406737 0.913545 0
    outer loop
      vertex 56.0583 -7.01771 -19
      vertex 56.0583 -7.01771 -13.5
      vertex 58.923 -8.29317 -19
    endloop
  endfacet
  facet normal 0.406737 0.913545 0
    outer loop
      vertex 58.923 -8.29317 -19
      vertex 56.0583 -7.01771 -13.5
      vertex 57.5932 -7.70111 -13.5
    endloop
  endfacet
  facet normal 0.406737 0.913545 0
    outer loop
      vertex 58.923 -8.29317 -19
      vertex 57.5932 -7.70111 -13.5
      vertex 57.5932 -7.70111 11
    endloop
  endfacet
  facet normal 0.406737 0.913545 0
    outer loop
      vertex 58.923 -8.29317 -19
      vertex 57.5932 -7.70111 11
      vertex 58.923 -8.29317 11
    endloop
  endfacet
  facet normal 0.207911 0.978148 0
    outer loop
      vertex 52.9909 -6.36573 -19
      vertex 52.9909 -6.36573 -13.5
      vertex 56.0583 -7.01771 -19
    endloop
  endfacet
  facet normal 0.207911 0.978148 0
    outer loop
      vertex 56.0583 -7.01771 -19
      vertex 52.9909 -6.36573 -13.5
      vertex 56.0583 -7.01771 -13.5
    endloop
  endfacet
  facet normal 0 1 0
    outer loop
      vertex 49.8551 -6.36573 -19
      vertex 49.8551 -6.36573 -13.5
      vertex 52.9909 -6.36573 -19
    endloop
  endfacet
  facet normal 0 1 0
    outer loop
      vertex 52.9909 -6.36573 -19
      vertex 49.8551 -6.36573 -13.5
      vertex 52.9909 -6.36573 -13.5
    endloop
  endfacet
  facet normal -0.207911 0.978148 0
    outer loop
      vertex 46.7878 -7.01771 -19
      vertex 46.7878 -7.01771 -13.5
      vertex 49.8551 -6.36573 -19
    endloop
  endfacet
  facet normal -0.207911 0.978148 0
    outer loop
      vertex 49.8551 -6.36573 -19
      vertex 46.7878 -7.01771 -13.5
      vertex 49.8551 -6.36573 -13.5
    endloop
  endfacet
  facet normal -0.406737 0.913545 0
    outer loop
      vertex 43.923 -8.29317 -19
      vertex 43.923 -8.29317 -13.5
      vertex 46.7878 -7.01771 -19
    endloop
  endfacet
  facet normal -0.406737 0.913545 0
    outer loop
      vertex 46.7878 -7.01771 -19
      vertex 43.923 -8.29317 -13.5
      vertex 46.7878 -7.01771 -13.5
    endloop
  endfacet
  facet normal -0.587785 0.809017 0
    outer loop
      vertex 41.386 -10.1364 -19
      vertex 41.386 -10.1364 -13.5
      vertex 43.923 -8.29317 -19
    endloop
  endfacet
  facet normal -0.587785 0.809017 0
    outer loop
      vertex 43.923 -8.29317 -19
      vertex 41.386 -10.1364 -13.5
      vertex 43.923 -8.29317 -13.5
    endloop
  endfacet
  facet normal -0.743145 0.669131 0
    outer loop
      vertex 39.2878 -12.4668 -19
      vertex 39.2878 -12.4668 -13.5
      vertex 41.386 -10.1364 -19
    endloop
  endfacet
  facet normal -0.743145 0.669131 0
    outer loop
      vertex 41.386 -10.1364 -19
      vertex 39.2878 -12.4668 -13.5
      vertex 41.386 -10.1364 -13.5
    endloop
  endfacet
  facet normal -0.866025 0.5 0
    outer loop
      vertex 37.7198 -15.1825 -19
      vertex 37.7198 -15.1825 -13.5
      vertex 39.2878 -12.4668 -19
    endloop
  endfacet
  facet normal -0.866025 0.5 0
    outer loop
      vertex 39.2878 -12.4668 -19
      vertex 37.7198 -15.1825 -13.5
      vertex 39.2878 -12.4668 -13.5
    endloop
  endfacet
  facet normal -0.951057 0.309017 0
    outer loop
      vertex 36.7508 -18.1649 -19
      vertex 36.7508 -18.1649 -13.5
      vertex 37.7198 -15.1825 -19
    endloop
  endfacet
  facet normal -0.951057 0.309017 0
    outer loop
      vertex 37.7198 -15.1825 -19
      vertex 36.7508 -18.1649 -13.5
      vertex 37.7198 -15.1825 -13.5
    endloop
  endfacet
  facet normal 0.994522 -0.104528 0
    outer loop
      vertex 38.7071 -18.5807 -19
      vertex 38.7071 -18.5807 -15.5
      vertex 38.423 -21.2836 -15.5
    endloop
  endfacet
  facet normal 0.994522 -0.104528 0
    outer loop
      vertex 38.423 -21.2836 -19
      vertex 38.7071 -18.5807 -19
      vertex 38.423 -21.2836 -15.5
    endloop
  endfacet
  facet normal 0.994522 0.104528 0
    outer loop
      vertex 38.423 -21.2836 -15.5
      vertex 38.7071 -23.9864 -15.5
      vertex 38.7071 -23.9864 -19
    endloop
  endfacet
  facet normal 0.994522 0.104528 0
    outer loop
      vertex 38.423 -21.2836 -19
      vertex 38.423 -21.2836 -15.5
      vertex 38.7071 -23.9864 -19
    endloop
  endfacet
  facet normal 0.951056 -0.309017 0
    outer loop
      vertex 39.5469 -15.996 -19
      vertex 39.5469 -15.996 -15.5
      vertex 38.7071 -18.5807 -15.5
    endloop
  endfacet
  facet normal 0.951056 -0.309017 0
    outer loop
      vertex 38.7071 -18.5807 -19
      vertex 39.5469 -15.996 -19
      vertex 38.7071 -18.5807 -15.5
    endloop
  endfacet
  facet normal 0.866025 -0.5 0
    outer loop
      vertex 40.9058 -13.6423 -19
      vertex 40.9058 -13.6423 -15.5
      vertex 39.5469 -15.996 -15.5
    endloop
  endfacet
  facet normal 0.866025 -0.5 0
    outer loop
      vertex 39.5469 -15.996 -19
      vertex 40.9058 -13.6423 -19
      vertex 39.5469 -15.996 -15.5
    endloop
  endfacet
  facet normal 0.743145 -0.66913 0
    outer loop
      vertex 42.7243 -11.6227 -19
      vertex 42.7243 -11.6227 -15.5
      vertex 40.9058 -13.6423 -15.5
    endloop
  endfacet
  facet normal 0.743145 -0.66913 0
    outer loop
      vertex 40.9058 -13.6423 -19
      vertex 42.7243 -11.6227 -19
      vertex 40.9058 -13.6423 -15.5
    endloop
  endfacet
  facet normal 0.587785 -0.809017 0
    outer loop
      vertex 44.923 -10.0252 -19
      vertex 44.923 -10.0252 -15.5
      vertex 42.7243 -11.6227 -15.5
    endloop
  endfacet
  facet normal 0.587785 -0.809017 0
    outer loop
      vertex 42.7243 -11.6227 -19
      vertex 44.923 -10.0252 -19
      vertex 42.7243 -11.6227 -15.5
    endloop
  endfacet
  facet normal 0.406737 -0.913545 0
    outer loop
      vertex 47.4058 -8.91982 -19
      vertex 47.4058 -8.91982 -15.5
      vertex 44.923 -10.0252 -15.5
    endloop
  endfacet
  facet normal 0.406737 -0.913545 0
    outer loop
      vertex 44.923 -10.0252 -19
      vertex 47.4058 -8.91982 -19
      vertex 44.923 -10.0252 -15.5
    endloop
  endfacet
  facet normal 0.207912 -0.978148 0
    outer loop
      vertex 50.0641 -8.35477 -19
      vertex 50.0641 -8.35477 -15.5
      vertex 47.4058 -8.91982 -15.5
    endloop
  endfacet
  facet normal 0.207912 -0.978148 0
    outer loop
      vertex 47.4058 -8.91982 -19
      vertex 50.0641 -8.35477 -19
      vertex 47.4058 -8.91982 -15.5
    endloop
  endfacet
  facet normal 0 -1 0
    outer loop
      vertex 52.7819 -8.35477 -19
      vertex 52.7819 -8.35477 -15.5
      vertex 50.0641 -8.35477 -15.5
    endloop
  endfacet
  facet normal 0 -1 0
    outer loop
      vertex 50.0641 -8.35477 -19
      vertex 52.7819 -8.35477 -19
      vertex 50.0641 -8.35477 -15.5
    endloop
  endfacet
  facet normal -0.207912 -0.978148 0
    outer loop
      vertex 55.4402 -8.91982 -19
      vertex 55.4402 -8.91982 -15.5
      vertex 52.7819 -8.35477 -15.5
    endloop
  endfacet
  facet normal -0.207912 -0.978148 0
    outer loop
      vertex 52.7819 -8.35477 -19
      vertex 55.4402 -8.91982 -19
      vertex 52.7819 -8.35477 -15.5
    endloop
  endfacet
  facet normal -0.406737 -0.913545 0
    outer loop
      vertex 57.923 -10.0252 -19
      vertex 57.923 -10.0252 -15.5
      vertex 55.4402 -8.91982 -15.5
    endloop
  endfacet
  facet normal -0.406737 -0.913545 0
    outer loop
      vertex 55.4402 -8.91982 -19
      vertex 57.923 -10.0252 -19
      vertex 55.4402 -8.91982 -15.5
    endloop
  endfacet
  facet normal -0.587785 -0.809017 0
    outer loop
      vertex 60.1217 -11.6227 -19
      vertex 60.1217 -11.6227 -15.5
      vertex 57.923 -10.0252 -15.5
    endloop
  endfacet
  facet normal -0.587785 -0.809017 0
    outer loop
      vertex 57.923 -10.0252 -19
      vertex 60.1217 -11.6227 -19
      vertex 57.923 -10.0252 -15.5
    endloop
  endfacet
  facet normal -0.743145 -0.66913 0
    outer loop
      vertex 61.9402 -13.6423 -15.5
      vertex 60.1217 -11.6227 -15.5
      vertex 61.9402 -13.6423 -19
    endloop
  endfacet
  facet normal -0.743145 -0.66913 0
    outer loop
      vertex 61.9402 -13.6423 -19
      vertex 60.1217 -11.6227 -15.5
      vertex 60.1217 -11.6227 -19
    endloop
  endfacet
  facet normal -0.866025 -0.5 0
    outer loop
      vertex 63.2991 -15.996 -15.5
      vertex 61.9402 -13.6423 -15.5
      vertex 63.2991 -15.996 -19
    endloop
  endfacet
  facet normal -0.866025 -0.5 0
    outer loop
      vertex 63.2991 -15.996 -19
      vertex 61.9402 -13.6423 -15.5
      vertex 61.9402 -13.6423 -19
    endloop
  endfacet
  facet normal -0.951056 -0.309017 0
    outer loop
      vertex 64.1389 -18.5807 -15.5
      vertex 63.2991 -15.996 -15.5
      vertex 64.1389 -18.5807 -19
    endloop
  endfacet
  facet normal -0.951056 -0.309017 0
    outer loop
      vertex 64.1389 -18.5807 -19
      vertex 63.2991 -15.996 -15.5
      vertex 63.2991 -15.996 -19
    endloop
  endfacet
  facet normal -0.994522 -0.104528 0
    outer loop
      vertex 64.423 -21.2836 -15.5
      vertex 64.1389 -18.5807 -15.5
      vertex 64.423 -21.2836 -19
    endloop
  endfacet
  facet normal -0.994522 -0.104528 0
    outer loop
      vertex 64.423 -21.2836 -19
      vertex 64.1389 -18.5807 -15.5
      vertex 64.1389 -18.5807 -19
    endloop
  endfacet
  facet normal -0.994522 0.104528 0
    outer loop
      vertex 64.423 -21.2836 -15.5
      vertex 64.423 -21.2836 -19
      vertex 64.1389 -23.9864 -15.5
    endloop
  endfacet
  facet normal -0.994522 0.104528 0
    outer loop
      vertex 64.1389 -23.9864 -15.5
      vertex 64.423 -21.2836 -19
      vertex 64.1389 -23.9864 -19
    endloop
  endfacet
  facet normal -0.951056 0.309017 0
    outer loop
      vertex 64.1389 -23.9864 -15.5
      vertex 64.1389 -23.9864 -19
      vertex 63.2991 -26.5711 -15.5
    endloop
  endfacet
  facet normal -0.951056 0.309017 0
    outer loop
      vertex 63.2991 -26.5711 -15.5
      vertex 64.1389 -23.9864 -19
      vertex 63.2991 -26.5711 -19
    endloop
  endfacet
  facet normal -0.866025 0.5 0
    outer loop
      vertex 63.2991 -26.5711 -15.5
      vertex 63.2991 -26.5711 -19
      vertex 61.9402 -28.9248 -15.5
    endloop
  endfacet
  facet normal -0.866025 0.5 0
    outer loop
      vertex 61.9402 -28.9248 -15.5
      vertex 63.2991 -26.5711 -19
      vertex 61.9402 -28.9248 -19
    endloop
  endfacet
  facet normal -0.743145 0.66913 0
    outer loop
      vertex 61.9402 -28.9248 -15.5
      vertex 61.9402 -28.9248 -19
      vertex 60.1217 -30.9444 -15.5
    endloop
  endfacet
  facet normal -0.743145 0.66913 0
    outer loop
      vertex 60.1217 -30.9444 -15.5
      vertex 61.9402 -28.9248 -19
      vertex 60.1217 -30.9444 -19
    endloop
  endfacet
  facet normal -0.587785 0.809017 0
    outer loop
      vertex 60.1217 -30.9444 -15.5
      vertex 60.1217 -30.9444 -19
      vertex 57.923 -32.5419 -15.5
    endloop
  endfacet
  facet normal -0.587785 0.809017 0
    outer loop
      vertex 57.923 -32.5419 -15.5
      vertex 60.1217 -30.9444 -19
      vertex 57.923 -32.5419 -19
    endloop
  endfacet
  facet normal -0.406737 0.913545 0
    outer loop
      vertex 57.923 -32.5419 -15.5
      vertex 57.923 -32.5419 -19
      vertex 55.4402 -33.6473 -15.5
    endloop
  endfacet
  facet normal -0.406737 0.913545 0
    outer loop
      vertex 55.4402 -33.6473 -15.5
      vertex 57.923 -32.5419 -19
      vertex 55.4402 -33.6473 -19
    endloop
  endfacet
  facet normal -0.207912 0.978148 0
    outer loop
      vertex 55.4402 -33.6473 -15.5
      vertex 55.4402 -33.6473 -19
      vertex 52.7819 -34.2123 -15.5
    endloop
  endfacet
  facet normal -0.207912 0.978148 0
    outer loop
      vertex 52.7819 -34.2123 -15.5
      vertex 55.4402 -33.6473 -19
      vertex 52.7819 -34.2123 -19
    endloop
  endfacet
  facet normal 0 1 0
    outer loop
      vertex 52.7819 -34.2123 -15.5
      vertex 52.7819 -34.2123 -19
      vertex 50.0641 -34.2123 -15.5
    endloop
  endfacet
  facet normal 0 1 0
    outer loop
      vertex 50.0641 -34.2123 -15.5
      vertex 52.7819 -34.2123 -19
      vertex 50.0641 -34.2123 -19
    endloop
  endfacet
  facet normal 0.207912 0.978148 0
    outer loop
      vertex 50.0641 -34.2123 -15.5
      vertex 50.0641 -34.2123 -19
      vertex 47.4058 -33.6473 -15.5
    endloop
  endfacet
  facet normal 0.207912 0.978148 0
    outer loop
      vertex 47.4058 -33.6473 -15.5
      vertex 50.0641 -34.2123 -19
      vertex 47.4058 -33.6473 -19
    endloop
  endfacet
  facet normal 0.406737 0.913545 0
    outer loop
      vertex 47.4058 -33.6473 -15.5
      vertex 47.4058 -33.6473 -19
      vertex 44.923 -32.5419 -15.5
    endloop
  endfacet
  facet normal 0.406737 0.913545 0
    outer loop
      vertex 44.923 -32.5419 -15.5
      vertex 47.4058 -33.6473 -19
      vertex 44.923 -32.5419 -19
    endloop
  endfacet
  facet normal 0.587785 0.809017 0
    outer loop
      vertex 44.923 -32.5419 -15.5
      vertex 44.923 -32.5419 -19
      vertex 42.7243 -30.9444 -15.5
    endloop
  endfacet
  facet normal 0.587785 0.809017 0
    outer loop
      vertex 42.7243 -30.9444 -15.5
      vertex 44.923 -32.5419 -19
      vertex 42.7243 -30.9444 -19
    endloop
  endfacet
  facet normal 0.743145 0.66913 0
    outer loop
      vertex 40.9058 -28.9248 -15.5
      vertex 42.7243 -30.9444 -15.5
      vertex 42.7243 -30.9444 -19
    endloop
  endfacet
  facet normal 0.743145 0.66913 0
    outer loop
      vertex 40.9058 -28.9248 -19
      vertex 40.9058 -28.9248 -15.5
      vertex 42.7243 -30.9444 -19
    endloop
  endfacet
  facet normal 0.866025 0.5 0
    outer loop
      vertex 39.5469 -26.5711 -15.5
      vertex 40.9058 -28.9248 -15.5
      vertex 40.9058 -28.9248 -19
    endloop
  endfacet
  facet normal 0.866025 0.5 0
    outer loop
      vertex 39.5469 -26.5711 -19
      vertex 39.5469 -26.5711 -15.5
      vertex 40.9058 -28.9248 -19
    endloop
  endfacet
  facet normal 0.951056 0.309017 0
    outer loop
      vertex 38.7071 -23.9864 -15.5
      vertex 39.5469 -26.5711 -15.5
      vertex 39.5469 -26.5711 -19
    endloop
  endfacet
  facet normal 0.951056 0.309017 0
    outer loop
      vertex 38.7071 -23.9864 -19
      vertex 38.7071 -23.9864 -15.5
      vertex 39.5469 -26.5711 -19
    endloop
  endfacet
  facet normal 0 0 1
    outer loop
      vertex 36.7508 -24.4022 -13.5
      vertex 37.7198 -27.3846 -13.5
      vertex 39.2878 -30.1003 -13.5
    endloop
  endfacet
  facet normal 0 0 1
    outer loop
      vertex 40.6614 -29.3729 -13.5
      vertex 36.7508 -24.4022 -13.5
      vertex 39.7189 -30.5792 -13.5
    endloop
  endfacet
  facet normal 0 0 1
    outer loop
      vertex 39.7189 -30.5792 -13.5
      vertex 36.7508 -24.4022 -13.5
      vertex 39.2878 -30.1003 -13.5
    endloop
  endfacet
  facet normal 0 0 1
    outer loop
      vertex 47.5565 -34.7599 -13.5
      vertex 36.7508 -24.4022 -13.5
      vertex 40.6614 -29.3729 -13.5
    endloop
  endfacet
  facet normal 0 0 1
    outer loop
      vertex 63.5637 -14.2716 -13.5
      vertex 36.7508 -24.4022 -13.5
      vertex 47.5565 -34.7599 -13.5
    endloop
  endfacet
  facet normal 0 0 1
    outer loop
      vertex 56.6686 -8.8846 -13.5
      vertex 36.7508 -24.4022 -13.5
      vertex 63.5637 -14.2716 -13.5
    endloop
  endfacet
  facet normal 0 0 1
    outer loop
      vertex 57.5932 -7.70111 -13.5
      vertex 36.7508 -24.4022 -13.5
      vertex 56.6686 -8.8846 -13.5
    endloop
  endfacet
  facet normal 0 0 1
    outer loop
      vertex 56.0583 -7.01771 -13.5
      vertex 36.7508 -24.4022 -13.5
      vertex 57.5932 -7.70111 -13.5
    endloop
  endfacet
  facet normal 0 0 1
    outer loop
      vertex 52.9909 -6.36573 -13.5
      vertex 36.7508 -24.4022 -13.5
      vertex 56.0583 -7.01771 -13.5
    endloop
  endfacet
  facet normal 0 0 1
    outer loop
      vertex 49.8551 -6.36573 -13.5
      vertex 36.7508 -24.4022 -13.5
      vertex 52.9909 -6.36573 -13.5
    endloop
  endfacet
  facet normal 0 0 1
    outer loop
      vertex 46.7878 -7.01771 -13.5
      vertex 36.7508 -24.4022 -13.5
      vertex 49.8551 -6.36573 -13.5
    endloop
  endfacet
  facet normal 0 0 1
    outer loop
      vertex 43.923 -8.29317 -13.5
      vertex 36.7508 -24.4022 -13.5
      vertex 46.7878 -7.01771 -13.5
    endloop
  endfacet
  facet normal 0 0 1
    outer loop
      vertex 41.386 -10.1364 -13.5
      vertex 36.7508 -24.4022 -13.5
      vertex 43.923 -8.29317 -13.5
    endloop
  endfacet
  facet normal 0 0 1
    outer loop
      vertex 39.2878 -12.4668 -13.5
      vertex 36.7508 -24.4022 -13.5
      vertex 41.386 -10.1364 -13.5
    endloop
  endfacet
  facet normal 0 0 1
    outer loop
      vertex 37.7198 -15.1825 -13.5
      vertex 36.7508 -24.4022 -13.5
      vertex 39.2878 -12.4668 -13.5
    endloop
  endfacet
  facet normal 0 0 1
    outer loop
      vertex 36.7508 -18.1649 -13.5
      vertex 36.7508 -24.4022 -13.5
      vertex 37.7198 -15.1825 -13.5
    endloop
  endfacet
  facet normal 0 0 1
    outer loop
      vertex 36.423 -21.2836 -13.5
      vertex 36.7508 -24.4022 -13.5
      vertex 36.7508 -18.1649 -13.5
    endloop
  endfacet
  facet normal -0.788011 0.615661 0
    outer loop
      vertex 40.6614 -29.3729 11
      vertex 40.6614 -29.3729 -13.5
      vertex 39.7189 -30.5792 11
    endloop
  endfacet
  facet normal -0.788011 0.615661 0
    outer loop
      vertex 39.7189 -30.5792 11
      vertex 40.6614 -29.3729 -13.5
      vertex 39.7189 -30.5792 -13.5
    endloop
  endfacet
  facet normal 0 0 1
    outer loop
      vertex 40.6614 -29.3729 11
      vertex 39.7189 -30.5792 11
      vertex 41.386 -32.4307 11
    endloop
  endfacet
  facet normal 0 0 1
    outer loop
      vertex 46.7878 -35.5494 11
      vertex 40.6614 -29.3729 11
      vertex 43.923 -34.2739 11
    endloop
  endfacet
  facet normal 0 0 1
    outer loop
      vertex 43.923 -34.2739 11
      vertex 40.6614 -29.3729 11
      vertex 41.386 -32.4307 11
    endloop
  endfacet
  facet normal 0 0 1
    outer loop
      vertex 47.5565 -34.7599 11
      vertex 40.6614 -29.3729 11
      vertex 46.7878 -35.5494 11
    endloop
  endfacet
  facet normal 0 0 1
    outer loop
      vertex 63.5637 -14.2716 11
      vertex 66.0952 -18.1649 11
      vertex 65.1262 -15.1825 11
    endloop
  endfacet
  facet normal 0 0 1
    outer loop
      vertex 63.5637 -14.2716 11
      vertex 66.423 -21.2836 11
      vertex 66.0952 -18.1649 11
    endloop
  endfacet
  facet normal 0 0 1
    outer loop
      vertex 63.5637 -14.2716 11
      vertex 66.0952 -24.4022 11
      vertex 66.423 -21.2836 11
    endloop
  endfacet
  facet normal 0 0 1
    outer loop
      vertex 57.5932 -7.70111 11
      vertex 56.6686 -8.8846 11
      vertex 58.923 -8.29317 11
    endloop
  endfacet
  facet normal 0 0 1
    outer loop
      vertex 63.5583 -12.4668 11
      vertex 63.5637 -14.2716 11
      vertex 65.1262 -15.1825 11
    endloop
  endfacet
  facet normal 0 0 1
    outer loop
      vertex 49.8551 -36.2014 11
      vertex 47.5565 -34.7599 11
      vertex 46.7878 -35.5494 11
    endloop
  endfacet
  facet normal 0 0 1
    outer loop
      vertex 56.6686 -8.8846 11
      vertex 61.46 -10.1364 11
      vertex 58.923 -8.29317 11
    endloop
  endfacet
  facet normal 0 0 1
    outer loop
      vertex 56.6686 -8.8846 11
      vertex 63.5583 -12.4668 11
      vertex 61.46 -10.1364 11
    endloop
  endfacet
  facet normal 0 0 1
    outer loop
      vertex 56.6686 -8.8846 11
      vertex 63.5637 -14.2716 11
      vertex 63.5583 -12.4668 11
    endloop
  endfacet
  facet normal 0 0 1
    outer loop
      vertex 63.5637 -14.2716 11
      vertex 65.1262 -27.3846 11
      vertex 66.0952 -24.4022 11
    endloop
  endfacet
  facet normal 0 0 1
    outer loop
      vertex 63.5637 -14.2716 11
      vertex 63.5583 -30.1003 11
      vertex 65.1262 -27.3846 11
    endloop
  endfacet
  facet normal 0 0 1
    outer loop
      vertex 63.5637 -14.2716 11
      vertex 61.46 -32.4307 11
      vertex 63.5583 -30.1003 11
    endloop
  endfacet
  facet normal 0 0 1
    outer loop
      vertex 63.5637 -14.2716 11
      vertex 58.923 -34.2739 11
      vertex 61.46 -32.4307 11
    endloop
  endfacet
  facet normal 0 0 1
    outer loop
      vertex 63.5637 -14.2716 11
      vertex 56.0583 -35.5494 11
      vertex 58.923 -34.2739 11
    endloop
  endfacet
  facet normal 0 0 1
    outer loop
      vertex 63.5637 -14.2716 11
      vertex 52.9909 -36.2014 11
      vertex 56.0583 -35.5494 11
    endloop
  endfacet
  facet normal 0 0 1
    outer loop
      vertex 63.5637 -14.2716 11
      vertex 49.8551 -36.2014 11
      vertex 52.9909 -36.2014 11
    endloop
  endfacet
  facet normal 0 0 1
    outer loop
      vertex 63.5637 -14.2716 11
      vertex 47.5565 -34.7599 11
      vertex 49.8551 -36.2014 11
    endloop
  endfacet
  facet normal -0.788011 0.615661 0
    outer loop
      vertex 57.5932 -7.70111 11
      vertex 57.5932 -7.70111 -13.5
      vertex 56.6686 -8.8846 11
    endloop
  endfacet
  facet normal -0.788011 0.615661 0
    outer loop
      vertex 56.6686 -8.8846 11
      vertex 57.5932 -7.70111 -13.5
      vertex 56.6686 -8.8846 -13.5
    endloop
  endfacet
  facet normal 0 0 -1
    outer loop
      vertex 39.5469 -15.996 -15.5
      vertex 40.9058 -13.6423 -15.5
      vertex 38.7071 -18.5807 -15.5
    endloop
  endfacet
  facet normal 0 0 -1
    outer loop
      vertex 38.7071 -18.5807 -15.5
      vertex 40.9058 -13.6423 -15.5
      vertex 42.7243 -11.6227 -15.5
    endloop
  endfacet
  facet normal 0 0 -1
    outer loop
      vertex 38.7071 -18.5807 -15.5
      vertex 42.7243 -11.6227 -15.5
      vertex 44.923 -10.0252 -15.5
    endloop
  endfacet
  facet normal 0 0 -1
    outer loop
      vertex 38.7071 -18.5807 -15.5
      vertex 44.923 -10.0252 -15.5
      vertex 47.4058 -8.91982 -15.5
    endloop
  endfacet
  facet normal 0 0 -1
    outer loop
      vertex 38.7071 -18.5807 -15.5
      vertex 47.4058 -8.91982 -15.5
      vertex 50.0641 -8.35477 -15.5
    endloop
  endfacet
  facet normal 0 0 -1
    outer loop
      vertex 38.7071 -18.5807 -15.5
      vertex 50.0641 -8.35477 -15.5
      vertex 52.7819 -8.35477 -15.5
    endloop
  endfacet
  facet normal 0 0 -1
    outer loop
      vertex 38.7071 -18.5807 -15.5
      vertex 52.7819 -8.35477 -15.5
      vertex 55.4402 -8.91982 -15.5
    endloop
  endfacet
  facet normal 0 0 -1
    outer loop
      vertex 38.7071 -18.5807 -15.5
      vertex 55.4402 -8.91982 -15.5
      vertex 57.923 -10.0252 -15.5
    endloop
  endfacet
  facet normal 0 0 -1
    outer loop
      vertex 38.7071 -18.5807 -15.5
      vertex 57.923 -10.0252 -15.5
      vertex 60.1217 -11.6227 -15.5
    endloop
  endfacet
  facet normal 0 0 -1
    outer loop
      vertex 38.7071 -18.5807 -15.5
      vertex 60.1217 -11.6227 -15.5
      vertex 61.9402 -13.6423 -15.5
    endloop
  endfacet
  facet normal 0 0 -1
    outer loop
      vertex 38.7071 -18.5807 -15.5
      vertex 61.9402 -13.6423 -15.5
      vertex 63.2991 -15.996 -15.5
    endloop
  endfacet
  facet normal 0 0 -1
    outer loop
      vertex 38.7071 -18.5807 -15.5
      vertex 63.2991 -15.996 -15.5
      vertex 64.1389 -18.5807 -15.5
    endloop
  endfacet
  facet normal 0 0 -1
    outer loop
      vertex 38.7071 -18.5807 -15.5
      vertex 64.1389 -18.5807 -15.5
      vertex 64.423 -21.2836 -15.5
    endloop
  endfacet
  facet normal 0 0 -1
    outer loop
      vertex 38.7071 -18.5807 -15.5
      vertex 64.423 -21.2836 -15.5
      vertex 64.1389 -23.9864 -15.5
    endloop
  endfacet
  facet normal 0 0 -1
    outer loop
      vertex 38.7071 -18.5807 -15.5
      vertex 64.1389 -23.9864 -15.5
      vertex 63.2991 -26.5711 -15.5
    endloop
  endfacet
  facet normal 0 0 -1
    outer loop
      vertex 38.7071 -18.5807 -15.5
      vertex 63.2991 -26.5711 -15.5
      vertex 61.9402 -28.9248 -15.5
    endloop
  endfacet
  facet normal 0 0 -1
    outer loop
      vertex 38.7071 -18.5807 -15.5
      vertex 61.9402 -28.9248 -15.5
      vertex 60.1217 -30.9444 -15.5
    endloop
  endfacet
  facet normal 0 0 -1
    outer loop
      vertex 38.7071 -18.5807 -15.5
      vertex 60.1217 -30.9444 -15.5
      vertex 57.923 -32.5419 -15.5
    endloop
  endfacet
  facet normal 0 0 -1
    outer loop
      vertex 38.7071 -18.5807 -15.5
      vertex 57.923 -32.5419 -15.5
      vertex 55.4402 -33.6473 -15.5
    endloop
  endfacet
  facet normal 0 0 -1
    outer loop
      vertex 38.7071 -18.5807 -15.5
      vertex 55.4402 -33.6473 -15.5
      vertex 52.7819 -34.2123 -15.5
    endloop
  endfacet
  facet normal 0 0 -1
    outer loop
      vertex 38.7071 -18.5807 -15.5
      vertex 52.7819 -34.2123 -15.5
      vertex 50.0641 -34.2123 -15.5
    endloop
  endfacet
  facet normal 0 0 -1
    outer loop
      vertex 38.7071 -18.5807 -15.5
      vertex 50.0641 -34.2123 -15.5
      vertex 47.4058 -33.6473 -15.5
    endloop
  endfacet
  facet normal 0 0 -1
    outer loop
      vertex 38.7071 -18.5807 -15.5
      vertex 47.4058 -33.6473 -15.5
      vertex 44.923 -32.5419 -15.5
    endloop
  endfacet
  facet normal 0 0 -1
    outer loop
      vertex 38.7071 -18.5807 -15.5
      vertex 44.923 -32.5419 -15.5
      vertex 42.7243 -30.9444 -15.5
    endloop
  endfacet
  facet normal 0 0 -1
    outer loop
      vertex 38.7071 -18.5807 -15.5
      vertex 42.7243 -30.9444 -15.5
      vertex 40.9058 -28.9248 -15.5
    endloop
  endfacet
  facet normal 0 0 -1
    outer loop
      vertex 38.7071 -18.5807 -15.5
      vertex 40.9058 -28.9248 -15.5
      vertex 39.5469 -26.5711 -15.5
    endloop
  endfacet
  facet normal 0 0 -1
    outer loop
      vertex 38.7071 -18.5807 -15.5
      vertex 39.5469 -26.5711 -15.5
      vertex 38.7071 -23.9864 -15.5
    endloop
  endfacet
  facet normal 0 0 -1
    outer loop
      vertex 38.7071 -18.5807 -15.5
      vertex 38.7071 -23.9864 -15.5
      vertex 38.423 -21.2836 -15.5
    endloop
  endfacet
  facet normal -0.615661 -0.788011 0
    outer loop
      vertex 63.5637 -14.2716 -13.5
      vertex 63.5637 -14.2716 11
      vertex 56.6686 -8.8846 11
    endloop
  endfacet
  facet normal -0.615661 -0.788011 0
    outer loop
      vertex 56.6686 -8.8846 -13.5
      vertex 63.5637 -14.2716 -13.5
      vertex 56.6686 -8.8846 11
    endloop
  endfacet
  facet normal -0.788011 0.615661 0
    outer loop
      vertex 63.5637 -14.2716 11
      vertex 63.5637 -14.2716 -13.5
      vertex 47.5565 -34.7599 11
    endloop
  endfacet
  facet normal -0.788011 0.615661 0
    outer loop
      vertex 47.5565 -34.7599 11
      vertex 63.5637 -14.2716 -13.5
      vertex 47.5565 -34.7599 -13.5
    endloop
  endfacet
  facet normal 0.615661 0.788011 0
    outer loop
      vertex 47.5565 -34.7599 11
      vertex 47.5565 -34.7599 -13.5
      vertex 40.6614 -29.3729 11
    endloop
  endfacet
  facet normal 0.615661 0.788011 0
    outer loop
      vertex 40.6614 -29.3729 11
      vertex 47.5565 -34.7599 -13.5
      vertex 40.6614 -29.3729 -13.5
    endloop
  endfacet
endsolid OpenSCAD_Model
