solid OpenSCAD_Model
  facet normal -1 0 0
    outer loop
      vertex -73.05 -20.65 12.5
      vertex -73.05 -20.65 18
      vertex -73.05 -18.65 12.5
    endloop
  endfacet
  facet normal -1 0 0
    outer loop
      vertex -73.05 -18.65 16
      vertex -73.05 -20.65 18
      vertex -73.05 20.65 18
    endloop
  endfacet
  facet normal -1 0 0
    outer loop
      vertex -73.05 18.65 12.5
      vertex -73.05 20.65 18
      vertex -73.05 20.65 12.5
    endloop
  endfacet
  facet normal -1 0 0
    outer loop
      vertex -73.05 18.65 16
      vertex -73.05 20.65 18
      vertex -73.05 18.65 12.5
    endloop
  endfacet
  facet normal -1 0 0
    outer loop
      vertex -73.05 -18.65 12.5
      vertex -73.05 -20.65 18
      vertex -73.05 -18.65 16
    endloop
  endfacet
  facet normal -1 0 0
    outer loop
      vertex -73.05 -18.65 16
      vertex -73.05 20.65 18
      vertex -73.05 18.65 16
    endloop
  endfacet
  facet normal 0 -1 0
    outer loop
      vertex -73.05 -20.65 18
      vertex -73.05 -20.65 12.5
      vertex 73.05 -20.65 12.5
    endloop
  endfacet
  facet normal 0 -1 0
    outer loop
      vertex 73.05 -20.65 18
      vertex -73.05 -20.65 18
      vertex 73.05 -20.65 12.5
    endloop
  endfacet
  facet normal 0 0 -1
    outer loop
      vertex -71 -18.65 12.5
      vertex -73 -18.65 12.5
      vertex -73 18.65 12.5
    endloop
  endfacet
  facet normal 0 0 -1
    outer loop
      vertex -73 18.65 12.5
      vertex -73.05 18.65 12.5
      vertex -73.05 20.65 12.5
    endloop
  endfacet
  facet normal 0 0 -1
    outer loop
      vertex -71 -18.65 12.5
      vertex -73 18.65 12.5
      vertex -71 18.65 12.5
    endloop
  endfacet
  facet normal 0 0 -1
    outer loop
      vertex 62 20.5 12.5
      vertex -73.05 20.65 12.5
      vertex 73.05 20.65 12.5
    endloop
  endfacet
  facet normal 0 0 -1
    outer loop
      vertex 62 20.5 12.5
      vertex 71 18.65 12.5
      vertex 62 18.65 12.5
    endloop
  endfacet
  facet normal 0 0 -1
    outer loop
      vertex -71 18.65 12.5
      vertex -73.05 20.65 12.5
      vertex -12 18.65 12.5
    endloop
  endfacet
  facet normal 0 0 -1
    outer loop
      vertex -73 18.65 12.5
      vertex -73.05 20.65 12.5
      vertex -71 18.65 12.5
    endloop
  endfacet
  facet normal 0 0 -1
    outer loop
      vertex -12 -20.5 12.5
      vertex -73.05 -18.65 12.5
      vertex -73 -18.65 12.5
    endloop
  endfacet
  facet normal 0 0 -1
    outer loop
      vertex -12 -20.5 12.5
      vertex -73 -18.65 12.5
      vertex -71 -18.65 12.5
    endloop
  endfacet
  facet normal 0 0 -1
    outer loop
      vertex -73.05 -20.65 12.5
      vertex -73.05 -18.65 12.5
      vertex -12 -20.5 12.5
    endloop
  endfacet
  facet normal 0 0 -1
    outer loop
      vertex -73.05 -20.65 12.5
      vertex -12 -20.5 12.5
      vertex 73.05 -20.65 12.5
    endloop
  endfacet
  facet normal 0 0 -1
    outer loop
      vertex 62 -18.65 12.5
      vertex 73.05 -20.65 12.5
      vertex 62 -20.5 12.5
    endloop
  endfacet
  facet normal 0 0 -1
    outer loop
      vertex -12 -20.5 12.5
      vertex 62 -20.5 12.5
      vertex 73.05 -20.65 12.5
    endloop
  endfacet
  facet normal 0 0 -1
    outer loop
      vertex 71 -18.65 12.5
      vertex 73.05 -20.65 12.5
      vertex 62 -18.65 12.5
    endloop
  endfacet
  facet normal 0 0 -1
    outer loop
      vertex -12 -20.5 12.5
      vertex -71 -18.65 12.5
      vertex -12 -18.65 12.5
    endloop
  endfacet
  facet normal 0 0 -1
    outer loop
      vertex 73.05 -20.65 12.5
      vertex 71 -18.65 12.5
      vertex 73 -18.65 12.5
    endloop
  endfacet
  facet normal 0 0 -1
    outer loop
      vertex 73 -18.65 12.5
      vertex 71 18.65 12.5
      vertex 73 18.65 12.5
    endloop
  endfacet
  facet normal 0 0 -1
    outer loop
      vertex 62 20.5 12.5
      vertex 73.05 18.65 12.5
      vertex 73 18.65 12.5
    endloop
  endfacet
  facet normal 0 0 -1
    outer loop
      vertex -12 20.5 12.5
      vertex -73.05 20.65 12.5
      vertex 62 20.5 12.5
    endloop
  endfacet
  facet normal 0 0 -1
    outer loop
      vertex 73.05 18.65 12.5
      vertex 62 20.5 12.5
      vertex 73.05 20.65 12.5
    endloop
  endfacet
  facet normal 0 0 -1
    outer loop
      vertex -12 18.65 12.5
      vertex -73.05 20.65 12.5
      vertex -12 20.5 12.5
    endloop
  endfacet
  facet normal 0 0 -1
    outer loop
      vertex 62 20.5 12.5
      vertex 73 18.65 12.5
      vertex 71 18.65 12.5
    endloop
  endfacet
  facet normal 0 0 -1
    outer loop
      vertex 73.05 -18.65 12.5
      vertex 73.05 -20.65 12.5
      vertex 73 -18.65 12.5
    endloop
  endfacet
  facet normal 0 0 -1
    outer loop
      vertex 71 18.65 12.5
      vertex 73 -18.65 12.5
      vertex 71 -18.65 12.5
    endloop
  endfacet
  facet normal 0 1 0
    outer loop
      vertex -73.05 -18.65 12.5
      vertex -73.05 -18.65 16
      vertex -73 -18.65 12.5
    endloop
  endfacet
  facet normal 0 1 0
    outer loop
      vertex -73 -18.65 12.5
      vertex -73.05 -18.65 16
      vertex -73 -18.65 16
    endloop
  endfacet
  facet normal 0 0 -1
    outer loop
      vertex -73.05 -18.65 16
      vertex -73.05 18.65 16
      vertex -73 -18.65 16
    endloop
  endfacet
  facet normal 0 0 -1
    outer loop
      vertex -73 -18.65 16
      vertex -73.05 18.65 16
      vertex -73 18.65 16
    endloop
  endfacet
  facet normal 0 -1 0
    outer loop
      vertex -73.05 18.65 16
      vertex -73.05 18.65 12.5
      vertex -73 18.65 12.5
    endloop
  endfacet
  facet normal 0 -1 0
    outer loop
      vertex -73 18.65 16
      vertex -73.05 18.65 16
      vertex -73 18.65 12.5
    endloop
  endfacet
  facet normal 0 1 0
    outer loop
      vertex -73.05 20.65 12.5
      vertex -73.05 20.65 18
      vertex 73.05 20.65 12.5
    endloop
  endfacet
  facet normal 0 1 0
    outer loop
      vertex 73.05 20.65 12.5
      vertex -73.05 20.65 18
      vertex 73.05 20.65 18
    endloop
  endfacet
  facet normal 0 0 1
    outer loop
      vertex -2.25 -19.75 18
      vertex -73.05 -20.65 18
      vertex 73.05 -20.65 18
    endloop
  endfacet
  facet normal 0 0 1
    outer loop
      vertex -73.05 20.65 18
      vertex -73.05 -20.65 18
      vertex -53.5 -17.5 18
    endloop
  endfacet
  facet normal 0 0 1
    outer loop
      vertex 53.25 -19.75 18
      vertex -2.25 -19.75 18
      vertex 73.05 -20.65 18
    endloop
  endfacet
  facet normal 0 0 1
    outer loop
      vertex -2.25 19.75 18
      vertex -73.05 20.65 18
      vertex -53.5 17.5 18
    endloop
  endfacet
  facet normal 0 0 1
    outer loop
      vertex 53.25 19.75 18
      vertex 53.25 -19.75 18
      vertex 73.05 -20.65 18
    endloop
  endfacet
  facet normal 0 0 1
    outer loop
      vertex -2.25 19.75 18
      vertex 53.25 19.75 18
      vertex 73.05 20.65 18
    endloop
  endfacet
  facet normal 0 0 1
    outer loop
      vertex -53.5 -17.5 18
      vertex -73.05 -20.65 18
      vertex -2.25 -19.75 18
    endloop
  endfacet
  facet normal 0 0 1
    outer loop
      vertex 73.05 20.65 18
      vertex -73.05 20.65 18
      vertex -2.25 19.75 18
    endloop
  endfacet
  facet normal 0 0 1
    outer loop
      vertex 73.05 20.65 18
      vertex 53.25 19.75 18
      vertex 73.05 -20.65 18
    endloop
  endfacet
  facet normal 0 0 1
    outer loop
      vertex -2.25 -19.75 18
      vertex -18.5 -17.5 18
      vertex -53.5 -17.5 18
    endloop
  endfacet
  facet normal 0 0 1
    outer loop
      vertex -53.5 -17.5 18
      vertex -53.5 17.5 18
      vertex -73.05 20.65 18
    endloop
  endfacet
  facet normal 0 0 1
    outer loop
      vertex -2.25 -19.75 18
      vertex -18.5 17.5 18
      vertex -18.5 -17.5 18
    endloop
  endfacet
  facet normal 0 0 1
    outer loop
      vertex -18.5 17.5 18
      vertex -2.25 19.75 18
      vertex -53.5 17.5 18
    endloop
  endfacet
  facet normal 0 0 1
    outer loop
      vertex -2.25 -19.75 18
      vertex -2.25 19.75 18
      vertex -18.5 17.5 18
    endloop
  endfacet
  facet normal 1 0 0
    outer loop
      vertex 73.05 -20.65 18
      vertex 73.05 -20.65 12.5
      vertex 73.05 -18.65 12.5
    endloop
  endfacet
  facet normal 1 0 0
    outer loop
      vertex 73.05 18.65 16
      vertex 73.05 -20.65 18
      vertex 73.05 -18.65 16
    endloop
  endfacet
  facet normal 1 0 0
    outer loop
      vertex 73.05 -18.65 16
      vertex 73.05 -20.65 18
      vertex 73.05 -18.65 12.5
    endloop
  endfacet
  facet normal 1 0 0
    outer loop
      vertex 73.05 20.65 18
      vertex 73.05 -20.65 18
      vertex 73.05 18.65 16
    endloop
  endfacet
  facet normal 1 0 0
    outer loop
      vertex 73.05 20.65 12.5
      vertex 73.05 18.65 16
      vertex 73.05 18.65 12.5
    endloop
  endfacet
  facet normal 1 0 0
    outer loop
      vertex 73.05 20.65 18
      vertex 73.05 18.65 16
      vertex 73.05 20.65 12.5
    endloop
  endfacet
  facet normal 0 1 0
    outer loop
      vertex 73 -18.65 12.5
      vertex 73 -18.65 16
      vertex 73.05 -18.65 12.5
    endloop
  endfacet
  facet normal 0 1 0
    outer loop
      vertex 73.05 -18.65 12.5
      vertex 73 -18.65 16
      vertex 73.05 -18.65 16
    endloop
  endfacet
  facet normal 1 0 0
    outer loop
      vertex 73 -18.65 16
      vertex 73 -18.65 12.5
      vertex 73 18.65 12.5
    endloop
  endfacet
  facet normal 1 0 0
    outer loop
      vertex 73 18.65 16
      vertex 73 -18.65 16
      vertex 73 18.65 12.5
    endloop
  endfacet
  facet normal 0 -1 0
    outer loop
      vertex 73 18.65 16
      vertex 73 18.65 12.5
      vertex 73.05 18.65 12.5
    endloop
  endfacet
  facet normal 0 -1 0
    outer loop
      vertex 73.05 18.65 16
      vertex 73 18.65 16
      vertex 73.05 18.65 12.5
    endloop
  endfacet
  facet normal -1 0 0
    outer loop
      vertex -73 -18.65 12.5
      vertex -73 -18.65 16
      vertex -73 18.65 12.5
    endloop
  endfacet
  facet normal -1 0 0
    outer loop
      vertex -73 18.65 12.5
      vertex -73 -18.65 16
      vertex -73 18.65 16
    endloop
  endfacet
  facet normal 1 0 0
    outer loop
      vertex -71 -18.65 16
      vertex -71 -18.65 12.5
      vertex -71 18.65 12.5
    endloop
  endfacet
  facet normal 1 0 0
    outer loop
      vertex -71 18.65 16
      vertex -71 -18.65 16
      vertex -71 18.65 12.5
    endloop
  endfacet
  facet normal 0 -1 0
    outer loop
      vertex -71 18.65 16
      vertex -71 18.65 12.5
      vertex -12 18.65 12.5
    endloop
  endfacet
  facet normal 0 -1 0
    outer loop
      vertex -12 18.65 16
      vertex -71 18.65 16
      vertex -12 18.65 12.5
    endloop
  endfacet
  facet normal 1 0 0
    outer loop
      vertex -12 20.5 12.5
      vertex -12 20.5 16
      vertex -12 18.65 16
    endloop
  endfacet
  facet normal 1 0 0
    outer loop
      vertex -12 18.65 12.5
      vertex -12 20.5 12.5
      vertex -12 18.65 16
    endloop
  endfacet
  facet normal 0 -1 0
    outer loop
      vertex 62 20.5 12.5
      vertex 62 20.5 16
      vertex -12 20.5 16
    endloop
  endfacet
  facet normal 0 -1 0
    outer loop
      vertex -12 20.5 12.5
      vertex 62 20.5 12.5
      vertex -12 20.5 16
    endloop
  endfacet
  facet normal -1 0 0
    outer loop
      vertex 62 20.5 16
      vertex 62 20.5 12.5
      vertex 62 18.65 16
    endloop
  endfacet
  facet normal -1 0 0
    outer loop
      vertex 62 18.65 16
      vertex 62 20.5 12.5
      vertex 62 18.65 12.5
    endloop
  endfacet
  facet normal 0 -1 0
    outer loop
      vertex 62 18.65 16
      vertex 62 18.65 12.5
      vertex 71 18.65 12.5
    endloop
  endfacet
  facet normal 0 -1 0
    outer loop
      vertex 71 18.65 16
      vertex 62 18.65 16
      vertex 71 18.65 12.5
    endloop
  endfacet
  facet normal -1 0 0
    outer loop
      vertex 71 -18.65 12.5
      vertex 71 -18.65 16
      vertex 71 18.65 12.5
    endloop
  endfacet
  facet normal -1 0 0
    outer loop
      vertex 71 18.65 12.5
      vertex 71 -18.65 16
      vertex 71 18.65 16
    endloop
  endfacet
  facet normal 0 1 0
    outer loop
      vertex 62 -18.65 12.5
      vertex 62 -18.65 16
      vertex 71 -18.65 12.5
    endloop
  endfacet
  facet normal 0 1 0
    outer loop
      vertex 71 -18.65 12.5
      vertex 62 -18.65 16
      vertex 71 -18.65 16
    endloop
  endfacet
  facet normal -1 0 0
    outer loop
      vertex 62 -18.65 16
      vertex 62 -18.65 12.5
      vertex 62 -20.5 16
    endloop
  endfacet
  facet normal -1 0 0
    outer loop
      vertex 62 -20.5 16
      vertex 62 -18.65 12.5
      vertex 62 -20.5 12.5
    endloop
  endfacet
  facet normal 0 1 0
    outer loop
      vertex 62 -20.5 16
      vertex 62 -20.5 12.5
      vertex -12 -20.5 16
    endloop
  endfacet
  facet normal 0 1 0
    outer loop
      vertex -12 -20.5 16
      vertex 62 -20.5 12.5
      vertex -12 -20.5 12.5
    endloop
  endfacet
  facet normal 1 0 0
    outer loop
      vertex -12 -18.65 12.5
      vertex -12 -18.65 16
      vertex -12 -20.5 16
    endloop
  endfacet
  facet normal 1 0 0
    outer loop
      vertex -12 -20.5 12.5
      vertex -12 -18.65 12.5
      vertex -12 -20.5 16
    endloop
  endfacet
  facet normal 0 1 0
    outer loop
      vertex -71 -18.65 12.5
      vertex -71 -18.65 16
      vertex -12 -18.65 12.5
    endloop
  endfacet
  facet normal 0 1 0
    outer loop
      vertex -12 -18.65 12.5
      vertex -71 -18.65 16
      vertex -12 -18.65 16
    endloop
  endfacet
  facet normal 1 0 0
    outer loop
      vertex -53.5 17.5 16
      vertex -53.5 17.5 18
      vertex -53.5 -17.5 18
    endloop
  endfacet
  facet normal 1 0 0
    outer loop
      vertex -53.5 -17.5 16
      vertex -53.5 17.5 16
      vertex -53.5 -17.5 18
    endloop
  endfacet
  facet normal 0 1 0
    outer loop
      vertex -18.5 -17.5 18
      vertex -18.5 -17.5 16
      vertex -53.5 -17.5 18
    endloop
  endfacet
  facet normal 0 1 0
    outer loop
      vertex -53.5 -17.5 18
      vertex -18.5 -17.5 16
      vertex -53.5 -17.5 16
    endloop
  endfacet
  facet normal -1 0 0
    outer loop
      vertex -18.5 17.5 18
      vertex -18.5 17.5 16
      vertex -18.5 -17.5 18
    endloop
  endfacet
  facet normal -1 0 0
    outer loop
      vertex -18.5 -17.5 18
      vertex -18.5 17.5 16
      vertex -18.5 -17.5 16
    endloop
  endfacet
  facet normal 0 -1 0
    outer loop
      vertex -18.5 17.5 16
      vertex -18.5 17.5 18
      vertex -53.5 17.5 18
    endloop
  endfacet
  facet normal 0 -1 0
    outer loop
      vertex -53.5 17.5 16
      vertex -18.5 17.5 16
      vertex -53.5 17.5 18
    endloop
  endfacet
  facet normal 1 0 0
    outer loop
      vertex -2.25 18.65 17.5
      vertex -2.25 -19.75 18
      vertex -2.25 18.65 17
    endloop
  endfacet
  facet normal 1 0 0
    outer loop
      vertex -2.25 19.75 16
      vertex -2.25 19.75 17
      vertex -2.25 18.65 17
    endloop
  endfacet
  facet normal 1 0 0
    outer loop
      vertex -2.25 -18.65 17
      vertex -2.25 -19.75 17
      vertex -2.25 19.75 16
    endloop
  endfacet
  facet normal 1 0 0
    outer loop
      vertex -2.25 -19.75 18
      vertex -2.25 19.75 16
      vertex -2.25 18.65 17
    endloop
  endfacet
  facet normal 1 0 0
    outer loop
      vertex -2.25 19.75 17.5
      vertex -2.25 19.75 18
      vertex -2.25 18.65 17.5
    endloop
  endfacet
  facet normal 1 0 0
    outer loop
      vertex -2.25 19.75 18
      vertex -2.25 -19.75 18
      vertex -2.25 18.65 17.5
    endloop
  endfacet
  facet normal 1 0 0
    outer loop
      vertex -2.25 -19.75 18
      vertex -2.25 -18.65 17.5
      vertex -2.25 19.75 16
    endloop
  endfacet
  facet normal 1 0 0
    outer loop
      vertex -2.25 -19.75 18
      vertex -2.25 -19.75 17.5
      vertex -2.25 -18.65 17.5
    endloop
  endfacet
  facet normal 1 0 0
    outer loop
      vertex -2.25 -19.75 17
      vertex -2.25 -19.75 16
      vertex -2.25 19.75 16
    endloop
  endfacet
  facet normal 1 0 0
    outer loop
      vertex -2.25 -18.65 17.5
      vertex -2.25 -18.65 17
      vertex -2.25 19.75 16
    endloop
  endfacet
  facet normal 0 1 0
    outer loop
      vertex 53.25 -19.75 18
      vertex 53.25 -19.75 17.5
      vertex -2.25 -19.75 18
    endloop
  endfacet
  facet normal 0 1 0
    outer loop
      vertex -2.25 -19.75 18
      vertex 53.25 -19.75 17.5
      vertex -2.25 -19.75 17.5
    endloop
  endfacet
  facet normal -1 0 0
    outer loop
      vertex 53.25 -19.75 18
      vertex 53.25 -18.65 17.5
      vertex 53.25 -19.75 17.5
    endloop
  endfacet
  facet normal -1 0 0
    outer loop
      vertex 53.25 19.75 18
      vertex 53.25 -18.65 17.5
      vertex 53.25 -19.75 18
    endloop
  endfacet
  facet normal -1 0 0
    outer loop
      vertex 53.25 -18.65 17
      vertex 53.25 -18.65 17.5
      vertex 53.25 19.75 18
    endloop
  endfacet
  facet normal -1 0 0
    outer loop
      vertex 53.25 18.65 17.5
      vertex 53.25 19.75 18
      vertex 53.25 19.75 17.5
    endloop
  endfacet
  facet normal -1 0 0
    outer loop
      vertex 53.25 -18.65 17
      vertex 53.25 19.75 18
      vertex 53.25 18.65 17.5
    endloop
  endfacet
  facet normal -1 0 0
    outer loop
      vertex 53.25 -18.65 17
      vertex 53.25 19.75 16
      vertex 53.25 -19.75 17
    endloop
  endfacet
  facet normal -1 0 0
    outer loop
      vertex 53.25 18.65 17
      vertex 53.25 19.75 17
      vertex 53.25 19.75 16
    endloop
  endfacet
  facet normal -1 0 0
    outer loop
      vertex 53.25 18.65 17
      vertex 53.25 19.75 16
      vertex 53.25 -18.65 17
    endloop
  endfacet
  facet normal -1 0 0
    outer loop
      vertex 53.25 19.75 16
      vertex 53.25 -19.75 16
      vertex 53.25 -19.75 17
    endloop
  endfacet
  facet normal -1 0 0
    outer loop
      vertex 53.25 18.65 17
      vertex 53.25 -18.65 17
      vertex 53.25 18.65 17.5
    endloop
  endfacet
  facet normal 0 -1 0
    outer loop
      vertex 53.25 19.75 17.5
      vertex 53.25 19.75 18
      vertex -2.25 19.75 18
    endloop
  endfacet
  facet normal 0 -1 0
    outer loop
      vertex -2.25 19.75 17.5
      vertex 53.25 19.75 17.5
      vertex -2.25 19.75 18
    endloop
  endfacet
  facet normal 0 0 -1
    outer loop
      vertex 73 -18.65 16
      vertex 73 18.65 16
      vertex 73.05 -18.65 16
    endloop
  endfacet
  facet normal 0 0 -1
    outer loop
      vertex 73.05 -18.65 16
      vertex 73 18.65 16
      vertex 73.05 18.65 16
    endloop
  endfacet
  facet normal 0 0 -1
    outer loop
      vertex -53.5 17.5 16
      vertex -71 18.65 16
      vertex -12 18.65 16
    endloop
  endfacet
  facet normal 0 0 -1
    outer loop
      vertex -2.25 19.75 16
      vertex -12 20.5 16
      vertex 62 20.5 16
    endloop
  endfacet
  facet normal 0 0 -1
    outer loop
      vertex 70 -10 16
      vertex 71 18.65 16
      vertex 71 -18.65 16
    endloop
  endfacet
  facet normal 0 0 -1
    outer loop
      vertex 53.25 19.75 16
      vertex 63.0866 14.6194 16
      vertex 61.4645 13.5355 16
    endloop
  endfacet
  facet normal 0 0 -1
    outer loop
      vertex -71 -18.65 16
      vertex -71 18.65 16
      vertex -70 -12 16
    endloop
  endfacet
  facet normal 0 0 -1
    outer loop
      vertex -61.4645 -8.46447 16
      vertex -66.9134 7.3806 16
      vertex -60.3806 -10.0866 16
    endloop
  endfacet
  facet normal 0 0 -1
    outer loop
      vertex -71 -18.65 16
      vertex -70 -12 16
      vertex -69.6194 -13.9134 16
    endloop
  endfacet
  facet normal 0 0 -1
    outer loop
      vertex -71 -18.65 16
      vertex -69.6194 -13.9134 16
      vertex -68.5355 -15.5355 16
    endloop
  endfacet
  facet normal 0 0 -1
    outer loop
      vertex -71 -18.65 16
      vertex -68.5355 -15.5355 16
      vertex -66.9134 -16.6194 16
    endloop
  endfacet
  facet normal 0 0 -1
    outer loop
      vertex -71 -18.65 16
      vertex -66.9134 -16.6194 16
      vertex -65 -17 16
    endloop
  endfacet
  facet normal 0 0 -1
    outer loop
      vertex -18.5 17.5 16
      vertex -12 -18.65 16
      vertex -18.5 -17.5 16
    endloop
  endfacet
  facet normal 0 0 -1
    outer loop
      vertex 53.25 19.75 16
      vertex 62 20.5 16
      vertex 62 18.65 16
    endloop
  endfacet
  facet normal 0 0 -1
    outer loop
      vertex 61.4645 -13.5355 16
      vertex 62 -18.65 16
      vertex 60.3806 -11.9134 16
    endloop
  endfacet
  facet normal 0 0 -1
    outer loop
      vertex 62 18.65 16
      vertex 71 18.65 16
      vertex 63.0866 14.6194 16
    endloop
  endfacet
  facet normal 0 0 -1
    outer loop
      vertex -70 12 16
      vertex -71 18.65 16
      vertex -69.6194 13.9134 16
    endloop
  endfacet
  facet normal 0 0 -1
    outer loop
      vertex -65 7 16
      vertex -60.3806 -10.0866 16
      vertex -66.9134 7.3806 16
    endloop
  endfacet
  facet normal 0 0 -1
    outer loop
      vertex -53.5 17.5 16
      vertex -12 18.65 16
      vertex -18.5 17.5 16
    endloop
  endfacet
  facet normal 0 0 -1
    outer loop
      vertex -66.9134 7.3806 16
      vertex -61.4645 -8.46447 16
      vertex -63.0866 -7.3806 16
    endloop
  endfacet
  facet normal 0 0 -1
    outer loop
      vertex -69.6194 -10.0866 16
      vertex -71 18.65 16
      vertex -68.5355 -8.46447 16
    endloop
  endfacet
  facet normal 0 0 -1
    outer loop
      vertex -70 -12 16
      vertex -71 18.65 16
      vertex -69.6194 -10.0866 16
    endloop
  endfacet
  facet normal 0 0 -1
    outer loop
      vertex -68.5355 -8.46447 16
      vertex -71 18.65 16
      vertex -70 12 16
    endloop
  endfacet
  facet normal 0 0 -1
    outer loop
      vertex -68.5355 -8.46447 16
      vertex -70 12 16
      vertex -66.9134 -7.3806 16
    endloop
  endfacet
  facet normal 0 0 -1
    outer loop
      vertex -66.9134 7.3806 16
      vertex -63.0866 -7.3806 16
      vertex -68.5355 8.46447 16
    endloop
  endfacet
  facet normal 0 0 -1
    outer loop
      vertex -66.9134 -7.3806 16
      vertex -69.6194 10.0866 16
      vertex -65 -7 16
    endloop
  endfacet
  facet normal 0 0 -1
    outer loop
      vertex -65 -7 16
      vertex -68.5355 8.46447 16
      vertex -63.0866 -7.3806 16
    endloop
  endfacet
  facet normal 0 0 -1
    outer loop
      vertex -68.5355 8.46447 16
      vertex -65 -7 16
      vertex -69.6194 10.0866 16
    endloop
  endfacet
  facet normal 0 0 -1
    outer loop
      vertex 53.25 -19.75 16
      vertex 62 -20.5 16
      vertex -2.25 -19.75 16
    endloop
  endfacet
  facet normal 0 0 -1
    outer loop
      vertex -69.6194 13.9134 16
      vertex -71 18.65 16
      vertex -68.5355 15.5355 16
    endloop
  endfacet
  facet normal 0 0 -1
    outer loop
      vertex -66.9134 16.6194 16
      vertex -71 18.65 16
      vertex -65 17 16
    endloop
  endfacet
  facet normal 0 0 -1
    outer loop
      vertex -53.5 -17.5 16
      vertex -60 -12 16
      vertex -60.3806 -10.0866 16
    endloop
  endfacet
  facet normal 0 0 -1
    outer loop
      vertex -68.5355 15.5355 16
      vertex -71 18.65 16
      vertex -66.9134 16.6194 16
    endloop
  endfacet
  facet normal 0 0 -1
    outer loop
      vertex -53.5 -17.5 16
      vertex -60.3806 -13.9134 16
      vertex -60 -12 16
    endloop
  endfacet
  facet normal 0 0 -1
    outer loop
      vertex -53.5 -17.5 16
      vertex -61.4645 -15.5355 16
      vertex -60.3806 -13.9134 16
    endloop
  endfacet
  facet normal 0 0 -1
    outer loop
      vertex -65 17 16
      vertex -71 18.65 16
      vertex -63.0866 16.6194 16
    endloop
  endfacet
  facet normal 0 0 -1
    outer loop
      vertex -53.5 -17.5 16
      vertex -63.0866 -16.6194 16
      vertex -61.4645 -15.5355 16
    endloop
  endfacet
  facet normal 0 0 -1
    outer loop
      vertex -63.0866 16.6194 16
      vertex -71 18.65 16
      vertex -53.5 17.5 16
    endloop
  endfacet
  facet normal 0 0 -1
    outer loop
      vertex -53.5 -17.5 16
      vertex -65 -17 16
      vertex -63.0866 -16.6194 16
    endloop
  endfacet
  facet normal 0 0 -1
    outer loop
      vertex -71 -18.65 16
      vertex -65 -17 16
      vertex -53.5 -17.5 16
    endloop
  endfacet
  facet normal 0 0 -1
    outer loop
      vertex -71 -18.65 16
      vertex -53.5 -17.5 16
      vertex -12 -18.65 16
    endloop
  endfacet
  facet normal 0 0 -1
    outer loop
      vertex -12 -18.65 16
      vertex -18.5 17.5 16
      vertex -12 18.65 16
    endloop
  endfacet
  facet normal 0 0 -1
    outer loop
      vertex -12 18.65 16
      vertex -12 20.5 16
      vertex -2.25 19.75 16
    endloop
  endfacet
  facet normal 0 0 -1
    outer loop
      vertex -2.25 -19.75 16
      vertex -12 -18.65 16
      vertex -12 18.65 16
    endloop
  endfacet
  facet normal 0 0 -1
    outer loop
      vertex 62 -20.5 16
      vertex -12 -20.5 16
      vertex -2.25 -19.75 16
    endloop
  endfacet
  facet normal 0 0 -1
    outer loop
      vertex 62 -18.65 16
      vertex 62 -20.5 16
      vertex 53.25 -19.75 16
    endloop
  endfacet
  facet normal 0 0 -1
    outer loop
      vertex 53.25 19.75 16
      vertex 61.4645 13.5355 16
      vertex 60.3806 11.9134 16
    endloop
  endfacet
  facet normal 0 0 -1
    outer loop
      vertex -2.25 -19.75 16
      vertex -12 18.65 16
      vertex -2.25 19.75 16
    endloop
  endfacet
  facet normal 0 0 -1
    outer loop
      vertex 66.9134 5.3806 16
      vertex 63.0866 -5.3806 16
      vertex 61.4645 -6.46447 16
    endloop
  endfacet
  facet normal 0 0 -1
    outer loop
      vertex 53.25 19.75 16
      vertex 60 10 16
      vertex 60.3806 -8.08658 16
    endloop
  endfacet
  facet normal 0 0 -1
    outer loop
      vertex 53.25 19.75 16
      vertex 60.3806 11.9134 16
      vertex 60 10 16
    endloop
  endfacet
  facet normal 0 0 -1
    outer loop
      vertex 63.0866 -14.6194 16
      vertex 62 -18.65 16
      vertex 61.4645 -13.5355 16
    endloop
  endfacet
  facet normal 0 0 -1
    outer loop
      vertex 69.6194 -8.08658 16
      vertex 71 18.65 16
      vertex 70 -10 16
    endloop
  endfacet
  facet normal 0 0 -1
    outer loop
      vertex 62 -18.65 16
      vertex 63.0866 -14.6194 16
      vertex 71 -18.65 16
    endloop
  endfacet
  facet normal 0 0 -1
    outer loop
      vertex 63.0866 -14.6194 16
      vertex 65 -15 16
      vertex 71 -18.65 16
    endloop
  endfacet
  facet normal 0 0 -1
    outer loop
      vertex 69.6194 8.08658 16
      vertex 66.9134 -5.3806 16
      vertex 68.5355 6.46447 16
    endloop
  endfacet
  facet normal 0 0 -1
    outer loop
      vertex 65 -15 16
      vertex 66.9134 -14.6194 16
      vertex 71 -18.65 16
    endloop
  endfacet
  facet normal 0 0 -1
    outer loop
      vertex 66.9134 -14.6194 16
      vertex 68.5355 -13.5355 16
      vertex 71 -18.65 16
    endloop
  endfacet
  facet normal 0 0 -1
    outer loop
      vertex 68.5355 -6.46447 16
      vertex 71 18.65 16
      vertex 69.6194 -8.08658 16
    endloop
  endfacet
  facet normal 0 0 -1
    outer loop
      vertex 68.5355 -13.5355 16
      vertex 69.6194 -11.9134 16
      vertex 71 -18.65 16
    endloop
  endfacet
  facet normal 0 0 -1
    outer loop
      vertex 69.6194 -11.9134 16
      vertex 70 -10 16
      vertex 71 -18.65 16
    endloop
  endfacet
  facet normal 0 0 -1
    outer loop
      vertex 69.6194 8.08658 16
      vertex 70 10 16
      vertex 68.5355 -6.46447 16
    endloop
  endfacet
  facet normal 0 0 -1
    outer loop
      vertex 70 10 16
      vertex 71 18.65 16
      vertex 68.5355 -6.46447 16
    endloop
  endfacet
  facet normal 0 0 -1
    outer loop
      vertex 66.9134 5.3806 16
      vertex 60.3806 -8.08658 16
      vertex 65 5 16
    endloop
  endfacet
  facet normal 0 0 -1
    outer loop
      vertex 66.9134 -5.3806 16
      vertex 69.6194 8.08658 16
      vertex 68.5355 -6.46447 16
    endloop
  endfacet
  facet normal 0 0 -1
    outer loop
      vertex 66.9134 5.3806 16
      vertex 61.4645 -6.46447 16
      vertex 60.3806 -8.08658 16
    endloop
  endfacet
  facet normal 0 0 -1
    outer loop
      vertex 53.25 19.75 16
      vertex 60.3806 -8.08658 16
      vertex 60 -10 16
    endloop
  endfacet
  facet normal 0 0 -1
    outer loop
      vertex 53.25 19.75 16
      vertex 60 -10 16
      vertex 60.3806 -11.9134 16
    endloop
  endfacet
  facet normal 0 0 -1
    outer loop
      vertex 65 15 16
      vertex 71 18.65 16
      vertex 66.9134 14.6194 16
    endloop
  endfacet
  facet normal 0 0 -1
    outer loop
      vertex 60 10 16
      vertex 60.3806 8.08658 16
      vertex 60.3806 -8.08658 16
    endloop
  endfacet
  facet normal 0 0 -1
    outer loop
      vertex 60.3806 8.08658 16
      vertex 61.4645 6.46447 16
      vertex 60.3806 -8.08658 16
    endloop
  endfacet
  facet normal 0 0 -1
    outer loop
      vertex 61.4645 6.46447 16
      vertex 63.0866 5.3806 16
      vertex 60.3806 -8.08658 16
    endloop
  endfacet
  facet normal 0 0 -1
    outer loop
      vertex 66.9134 14.6194 16
      vertex 71 18.65 16
      vertex 68.5355 13.5355 16
    endloop
  endfacet
  facet normal 0 0 -1
    outer loop
      vertex 63.0866 5.3806 16
      vertex 65 5 16
      vertex 60.3806 -8.08658 16
    endloop
  endfacet
  facet normal 0 0 -1
    outer loop
      vertex 68.5355 6.46447 16
      vertex 65 -5 16
      vertex 66.9134 5.3806 16
    endloop
  endfacet
  facet normal 0 0 -1
    outer loop
      vertex 68.5355 13.5355 16
      vertex 71 18.65 16
      vertex 69.6194 11.9134 16
    endloop
  endfacet
  facet normal 0 0 -1
    outer loop
      vertex 69.6194 11.9134 16
      vertex 71 18.65 16
      vertex 70 10 16
    endloop
  endfacet
  facet normal 0 0 -1
    outer loop
      vertex 65 -5 16
      vertex 68.5355 6.46447 16
      vertex 66.9134 -5.3806 16
    endloop
  endfacet
  facet normal 0 0 -1
    outer loop
      vertex 63.0866 -5.3806 16
      vertex 66.9134 5.3806 16
      vertex 65 -5 16
    endloop
  endfacet
  facet normal 0 0 -1
    outer loop
      vertex 63.0866 14.6194 16
      vertex 71 18.65 16
      vertex 65 15 16
    endloop
  endfacet
  facet normal 0 0 -1
    outer loop
      vertex 53.25 19.75 16
      vertex 60.3806 -11.9134 16
      vertex 53.25 -19.75 16
    endloop
  endfacet
  facet normal 0 0 -1
    outer loop
      vertex 60.3806 -11.9134 16
      vertex 62 -18.65 16
      vertex 53.25 -19.75 16
    endloop
  endfacet
  facet normal 0 0 -1
    outer loop
      vertex 53.25 19.75 16
      vertex 62 18.65 16
      vertex 63.0866 14.6194 16
    endloop
  endfacet
  facet normal 0 0 -1
    outer loop
      vertex -12 -18.65 16
      vertex -2.25 -19.75 16
      vertex -12 -20.5 16
    endloop
  endfacet
  facet normal 0 0 -1
    outer loop
      vertex -69.6194 10.0866 16
      vertex -66.9134 -7.3806 16
      vertex -70 12 16
    endloop
  endfacet
  facet normal 0 0 -1
    outer loop
      vertex -53.5 -17.5 16
      vertex -60.3806 -10.0866 16
      vertex -65 7 16
    endloop
  endfacet
  facet normal 0 0 -1
    outer loop
      vertex -53.5 -17.5 16
      vertex -65 7 16
      vertex -63.0866 7.3806 16
    endloop
  endfacet
  facet normal 0 0 -1
    outer loop
      vertex -53.5 -17.5 16
      vertex -63.0866 7.3806 16
      vertex -61.4645 8.46447 16
    endloop
  endfacet
  facet normal 0 0 -1
    outer loop
      vertex -53.5 -17.5 16
      vertex -61.4645 8.46447 16
      vertex -60.3806 10.0866 16
    endloop
  endfacet
  facet normal 0 0 -1
    outer loop
      vertex -53.5 -17.5 16
      vertex -60.3806 10.0866 16
      vertex -60 12 16
    endloop
  endfacet
  facet normal 0 0 -1
    outer loop
      vertex -53.5 -17.5 16
      vertex -60 12 16
      vertex -60.3806 13.9134 16
    endloop
  endfacet
  facet normal 0 0 -1
    outer loop
      vertex -61.4645 15.5355 16
      vertex -63.0866 16.6194 16
      vertex -53.5 17.5 16
    endloop
  endfacet
  facet normal 0 0 -1
    outer loop
      vertex -60.3806 13.9134 16
      vertex -61.4645 15.5355 16
      vertex -53.5 17.5 16
    endloop
  endfacet
  facet normal 0 0 -1
    outer loop
      vertex -53.5 -17.5 16
      vertex -60.3806 13.9134 16
      vertex -53.5 17.5 16
    endloop
  endfacet
  facet normal 0 0 -1
    outer loop
      vertex -2.25 19.75 16
      vertex 62 20.5 16
      vertex 53.25 19.75 16
    endloop
  endfacet
  facet normal 0 0 -1
    outer loop
      vertex -18.5 -17.5 16
      vertex -12 -18.65 16
      vertex -53.5 -17.5 16
    endloop
  endfacet
  facet normal 0 -1 0
    outer loop
      vertex 53.25 19.75 16
      vertex 53.25 19.75 17
      vertex -2.25 19.75 17
    endloop
  endfacet
  facet normal 0 -1 0
    outer loop
      vertex -2.25 19.75 16
      vertex 53.25 19.75 16
      vertex -2.25 19.75 17
    endloop
  endfacet
  facet normal 0 1 0
    outer loop
      vertex 53.25 -19.75 17
      vertex 53.25 -19.75 16
      vertex -2.25 -19.75 17
    endloop
  endfacet
  facet normal 0 1 0
    outer loop
      vertex -2.25 -19.75 17
      vertex 53.25 -19.75 16
      vertex -2.25 -19.75 16
    endloop
  endfacet
  facet normal 0 0 -1
    outer loop
      vertex 53.25 -18.65 17
      vertex 53.25 -19.75 17
      vertex -2.25 -18.65 17
    endloop
  endfacet
  facet normal 0 0 -1
    outer loop
      vertex -2.25 -18.65 17
      vertex 53.25 -19.75 17
      vertex -2.25 -19.75 17
    endloop
  endfacet
  facet normal 0 1 0
    outer loop
      vertex -2.25 -18.65 17
      vertex -2.25 -18.65 17.5
      vertex 53.25 -18.65 17
    endloop
  endfacet
  facet normal 0 1 0
    outer loop
      vertex 53.25 -18.65 17
      vertex -2.25 -18.65 17.5
      vertex 53.25 -18.65 17.5
    endloop
  endfacet
  facet normal 0 0 1
    outer loop
      vertex -2.25 -18.65 17.5
      vertex -2.25 -19.75 17.5
      vertex 53.25 -19.75 17.5
    endloop
  endfacet
  facet normal 0 0 1
    outer loop
      vertex 53.25 -18.65 17.5
      vertex -2.25 -18.65 17.5
      vertex 53.25 -19.75 17.5
    endloop
  endfacet
  facet normal 0 0 1
    outer loop
      vertex -2.25 19.75 17.5
      vertex -2.25 18.65 17.5
      vertex 53.25 18.65 17.5
    endloop
  endfacet
  facet normal 0 0 1
    outer loop
      vertex 53.25 19.75 17.5
      vertex -2.25 19.75 17.5
      vertex 53.25 18.65 17.5
    endloop
  endfacet
  facet normal 0 -1 0
    outer loop
      vertex -2.25 18.65 17.5
      vertex -2.25 18.65 17
      vertex 53.25 18.65 17
    endloop
  endfacet
  facet normal 0 -1 0
    outer loop
      vertex 53.25 18.65 17.5
      vertex -2.25 18.65 17.5
      vertex 53.25 18.65 17
    endloop
  endfacet
  facet normal 0 0 -1
    outer loop
      vertex 53.25 19.75 17
      vertex 53.25 18.65 17
      vertex -2.25 19.75 17
    endloop
  endfacet
  facet normal 0 0 -1
    outer loop
      vertex -2.25 19.75 17
      vertex 53.25 18.65 17
      vertex -2.25 18.65 17
    endloop
  endfacet
  facet normal -0.980785 0.19509 0
    outer loop
      vertex -70 -12 5
      vertex -70 -12 16
      vertex -69.6194 -10.0866 5
    endloop
  endfacet
  facet normal -0.980785 0.19509 0
    outer loop
      vertex -69.6194 -10.0866 5
      vertex -70 -12 16
      vertex -69.6194 -10.0866 16
    endloop
  endfacet
  facet normal -0.980785 -0.19509 0
    outer loop
      vertex -70 -12 5
      vertex -69.6194 -13.9134 5
      vertex -70 -12 16
    endloop
  endfacet
  facet normal -0.980785 -0.19509 0
    outer loop
      vertex -70 -12 16
      vertex -69.6194 -13.9134 5
      vertex -69.6194 -13.9134 16
    endloop
  endfacet
  facet normal -0.83147 0.55557 0
    outer loop
      vertex -69.6194 -10.0866 5
      vertex -69.6194 -10.0866 16
      vertex -68.5355 -8.46447 5
    endloop
  endfacet
  facet normal -0.83147 0.55557 0
    outer loop
      vertex -68.5355 -8.46447 5
      vertex -69.6194 -10.0866 16
      vertex -68.5355 -8.46447 16
    endloop
  endfacet
  facet normal -0.55557 0.83147 0
    outer loop
      vertex -68.5355 -8.46447 5
      vertex -68.5355 -8.46447 16
      vertex -66.9134 -7.3806 5
    endloop
  endfacet
  facet normal -0.55557 0.83147 0
    outer loop
      vertex -66.9134 -7.3806 5
      vertex -68.5355 -8.46447 16
      vertex -66.9134 -7.3806 16
    endloop
  endfacet
  facet normal -0.19509 0.980785 0
    outer loop
      vertex -66.9134 -7.3806 5
      vertex -66.9134 -7.3806 16
      vertex -65 -7 5
    endloop
  endfacet
  facet normal -0.19509 0.980785 0
    outer loop
      vertex -65 -7 5
      vertex -66.9134 -7.3806 16
      vertex -65 -7 16
    endloop
  endfacet
  facet normal 0.19509 0.980785 0
    outer loop
      vertex -65 -7 5
      vertex -65 -7 16
      vertex -63.0866 -7.3806 5
    endloop
  endfacet
  facet normal 0.19509 0.980785 0
    outer loop
      vertex -63.0866 -7.3806 5
      vertex -65 -7 16
      vertex -63.0866 -7.3806 16
    endloop
  endfacet
  facet normal 0.55557 0.83147 0
    outer loop
      vertex -63.0866 -7.3806 5
      vertex -63.0866 -7.3806 16
      vertex -61.4645 -8.46447 5
    endloop
  endfacet
  facet normal 0.55557 0.83147 0
    outer loop
      vertex -61.4645 -8.46447 5
      vertex -63.0866 -7.3806 16
      vertex -61.4645 -8.46447 16
    endloop
  endfacet
  facet normal 0.83147 0.55557 0
    outer loop
      vertex -60.3806 -10.0866 5
      vertex -61.4645 -8.46447 5
      vertex -61.4645 -8.46447 16
    endloop
  endfacet
  facet normal 0.83147 0.55557 0
    outer loop
      vertex -60.3806 -10.0866 16
      vertex -60.3806 -10.0866 5
      vertex -61.4645 -8.46447 16
    endloop
  endfacet
  facet normal 0.980785 0.19509 0
    outer loop
      vertex -60 -12 5
      vertex -60.3806 -10.0866 5
      vertex -60.3806 -10.0866 16
    endloop
  endfacet
  facet normal 0.980785 0.19509 0
    outer loop
      vertex -60 -12 16
      vertex -60 -12 5
      vertex -60.3806 -10.0866 16
    endloop
  endfacet
  facet normal 0.980785 -0.19509 0
    outer loop
      vertex -60.3806 -13.9134 16
      vertex -60.3806 -13.9134 5
      vertex -60 -12 5
    endloop
  endfacet
  facet normal 0.980785 -0.19509 0
    outer loop
      vertex -60 -12 16
      vertex -60.3806 -13.9134 16
      vertex -60 -12 5
    endloop
  endfacet
  facet normal 0.83147 -0.55557 0
    outer loop
      vertex -61.4645 -15.5355 16
      vertex -61.4645 -15.5355 5
      vertex -60.3806 -13.9134 5
    endloop
  endfacet
  facet normal 0.83147 -0.55557 0
    outer loop
      vertex -60.3806 -13.9134 16
      vertex -61.4645 -15.5355 16
      vertex -60.3806 -13.9134 5
    endloop
  endfacet
  facet normal 0.55557 -0.83147 0
    outer loop
      vertex -63.0866 -16.6194 16
      vertex -63.0866 -16.6194 5
      vertex -61.4645 -15.5355 5
    endloop
  endfacet
  facet normal 0.55557 -0.83147 0
    outer loop
      vertex -61.4645 -15.5355 16
      vertex -63.0866 -16.6194 16
      vertex -61.4645 -15.5355 5
    endloop
  endfacet
  facet normal 0.19509 -0.980785 0
    outer loop
      vertex -65 -17 16
      vertex -65 -17 5
      vertex -63.0866 -16.6194 5
    endloop
  endfacet
  facet normal 0.19509 -0.980785 0
    outer loop
      vertex -63.0866 -16.6194 16
      vertex -65 -17 16
      vertex -63.0866 -16.6194 5
    endloop
  endfacet
  facet normal -0.19509 -0.980785 0
    outer loop
      vertex -66.9134 -16.6194 16
      vertex -66.9134 -16.6194 5
      vertex -65 -17 5
    endloop
  endfacet
  facet normal -0.19509 -0.980785 0
    outer loop
      vertex -65 -17 16
      vertex -66.9134 -16.6194 16
      vertex -65 -17 5
    endloop
  endfacet
  facet normal -0.55557 -0.83147 0
    outer loop
      vertex -68.5355 -15.5355 16
      vertex -68.5355 -15.5355 5
      vertex -66.9134 -16.6194 5
    endloop
  endfacet
  facet normal -0.55557 -0.83147 0
    outer loop
      vertex -66.9134 -16.6194 16
      vertex -68.5355 -15.5355 16
      vertex -66.9134 -16.6194 5
    endloop
  endfacet
  facet normal -0.83147 -0.55557 0
    outer loop
      vertex -69.6194 -13.9134 5
      vertex -68.5355 -15.5355 5
      vertex -69.6194 -13.9134 16
    endloop
  endfacet
  facet normal -0.83147 -0.55557 0
    outer loop
      vertex -69.6194 -13.9134 16
      vertex -68.5355 -15.5355 5
      vertex -68.5355 -15.5355 16
    endloop
  endfacet
  facet normal -0.980785 0.19509 0
    outer loop
      vertex -70 12 5
      vertex -70 12 16
      vertex -69.6194 13.9134 5
    endloop
  endfacet
  facet normal -0.980785 0.19509 0
    outer loop
      vertex -69.6194 13.9134 5
      vertex -70 12 16
      vertex -69.6194 13.9134 16
    endloop
  endfacet
  facet normal -0.980785 -0.19509 0
    outer loop
      vertex -70 12 5
      vertex -69.6194 10.0866 5
      vertex -70 12 16
    endloop
  endfacet
  facet normal -0.980785 -0.19509 0
    outer loop
      vertex -70 12 16
      vertex -69.6194 10.0866 5
      vertex -69.6194 10.0866 16
    endloop
  endfacet
  facet normal -0.83147 0.55557 0
    outer loop
      vertex -69.6194 13.9134 5
      vertex -69.6194 13.9134 16
      vertex -68.5355 15.5355 5
    endloop
  endfacet
  facet normal -0.83147 0.55557 0
    outer loop
      vertex -68.5355 15.5355 5
      vertex -69.6194 13.9134 16
      vertex -68.5355 15.5355 16
    endloop
  endfacet
  facet normal -0.55557 0.83147 0
    outer loop
      vertex -68.5355 15.5355 5
      vertex -68.5355 15.5355 16
      vertex -66.9134 16.6194 5
    endloop
  endfacet
  facet normal -0.55557 0.83147 0
    outer loop
      vertex -66.9134 16.6194 5
      vertex -68.5355 15.5355 16
      vertex -66.9134 16.6194 16
    endloop
  endfacet
  facet normal -0.19509 0.980785 0
    outer loop
      vertex -66.9134 16.6194 5
      vertex -66.9134 16.6194 16
      vertex -65 17 5
    endloop
  endfacet
  facet normal -0.19509 0.980785 0
    outer loop
      vertex -65 17 5
      vertex -66.9134 16.6194 16
      vertex -65 17 16
    endloop
  endfacet
  facet normal 0.19509 0.980785 0
    outer loop
      vertex -65 17 5
      vertex -65 17 16
      vertex -63.0866 16.6194 5
    endloop
  endfacet
  facet normal 0.19509 0.980785 0
    outer loop
      vertex -63.0866 16.6194 5
      vertex -65 17 16
      vertex -63.0866 16.6194 16
    endloop
  endfacet
  facet normal 0.55557 0.83147 0
    outer loop
      vertex -63.0866 16.6194 5
      vertex -63.0866 16.6194 16
      vertex -61.4645 15.5355 5
    endloop
  endfacet
  facet normal 0.55557 0.83147 0
    outer loop
      vertex -61.4645 15.5355 5
      vertex -63.0866 16.6194 16
      vertex -61.4645 15.5355 16
    endloop
  endfacet
  facet normal 0.83147 0.55557 0
    outer loop
      vertex -60.3806 13.9134 5
      vertex -61.4645 15.5355 5
      vertex -61.4645 15.5355 16
    endloop
  endfacet
  facet normal 0.83147 0.55557 0
    outer loop
      vertex -60.3806 13.9134 16
      vertex -60.3806 13.9134 5
      vertex -61.4645 15.5355 16
    endloop
  endfacet
  facet normal 0.980785 0.19509 0
    outer loop
      vertex -60 12 5
      vertex -60.3806 13.9134 5
      vertex -60.3806 13.9134 16
    endloop
  endfacet
  facet normal 0.980785 0.19509 0
    outer loop
      vertex -60 12 16
      vertex -60 12 5
      vertex -60.3806 13.9134 16
    endloop
  endfacet
  facet normal 0.980785 -0.19509 0
    outer loop
      vertex -60.3806 10.0866 16
      vertex -60.3806 10.0866 5
      vertex -60 12 5
    endloop
  endfacet
  facet normal 0.980785 -0.19509 0
    outer loop
      vertex -60 12 16
      vertex -60.3806 10.0866 16
      vertex -60 12 5
    endloop
  endfacet
  facet normal 0.83147 -0.55557 0
    outer loop
      vertex -61.4645 8.46447 16
      vertex -61.4645 8.46447 5
      vertex -60.3806 10.0866 5
    endloop
  endfacet
  facet normal 0.83147 -0.55557 0
    outer loop
      vertex -60.3806 10.0866 16
      vertex -61.4645 8.46447 16
      vertex -60.3806 10.0866 5
    endloop
  endfacet
  facet normal 0.55557 -0.83147 0
    outer loop
      vertex -63.0866 7.3806 16
      vertex -63.0866 7.3806 5
      vertex -61.4645 8.46447 5
    endloop
  endfacet
  facet normal 0.55557 -0.83147 0
    outer loop
      vertex -61.4645 8.46447 16
      vertex -63.0866 7.3806 16
      vertex -61.4645 8.46447 5
    endloop
  endfacet
  facet normal 0.19509 -0.980785 0
    outer loop
      vertex -65 7 16
      vertex -65 7 5
      vertex -63.0866 7.3806 5
    endloop
  endfacet
  facet normal 0.19509 -0.980785 0
    outer loop
      vertex -63.0866 7.3806 16
      vertex -65 7 16
      vertex -63.0866 7.3806 5
    endloop
  endfacet
  facet normal -0.19509 -0.980785 0
    outer loop
      vertex -66.9134 7.3806 16
      vertex -66.9134 7.3806 5
      vertex -65 7 5
    endloop
  endfacet
  facet normal -0.19509 -0.980785 0
    outer loop
      vertex -65 7 16
      vertex -66.9134 7.3806 16
      vertex -65 7 5
    endloop
  endfacet
  facet normal -0.55557 -0.83147 0
    outer loop
      vertex -68.5355 8.46447 16
      vertex -68.5355 8.46447 5
      vertex -66.9134 7.3806 5
    endloop
  endfacet
  facet normal -0.55557 -0.83147 0
    outer loop
      vertex -66.9134 7.3806 16
      vertex -68.5355 8.46447 16
      vertex -66.9134 7.3806 5
    endloop
  endfacet
  facet normal -0.83147 -0.55557 0
    outer loop
      vertex -69.6194 10.0866 5
      vertex -68.5355 8.46447 5
      vertex -69.6194 10.0866 16
    endloop
  endfacet
  facet normal -0.83147 -0.55557 0
    outer loop
      vertex -69.6194 10.0866 16
      vertex -68.5355 8.46447 5
      vertex -68.5355 8.46447 16
    endloop
  endfacet
  facet normal -0.980785 0.19509 0
    outer loop
      vertex 60 -10 5
      vertex 60 -10 16
      vertex 60.3806 -8.08658 5
    endloop
  endfacet
  facet normal -0.980785 0.19509 0
    outer loop
      vertex 60.3806 -8.08658 5
      vertex 60 -10 16
      vertex 60.3806 -8.08658 16
    endloop
  endfacet
  facet normal -0.980785 -0.19509 0
    outer loop
      vertex 60 -10 5
      vertex 60.3806 -11.9134 5
      vertex 60 -10 16
    endloop
  endfacet
  facet normal -0.980785 -0.19509 0
    outer loop
      vertex 60 -10 16
      vertex 60.3806 -11.9134 5
      vertex 60.3806 -11.9134 16
    endloop
  endfacet
  facet normal -0.83147 0.55557 0
    outer loop
      vertex 60.3806 -8.08658 5
      vertex 60.3806 -8.08658 16
      vertex 61.4645 -6.46447 5
    endloop
  endfacet
  facet normal -0.83147 0.55557 0
    outer loop
      vertex 61.4645 -6.46447 5
      vertex 60.3806 -8.08658 16
      vertex 61.4645 -6.46447 16
    endloop
  endfacet
  facet normal -0.55557 0.83147 0
    outer loop
      vertex 61.4645 -6.46447 5
      vertex 61.4645 -6.46447 16
      vertex 63.0866 -5.3806 5
    endloop
  endfacet
  facet normal -0.55557 0.83147 0
    outer loop
      vertex 63.0866 -5.3806 5
      vertex 61.4645 -6.46447 16
      vertex 63.0866 -5.3806 16
    endloop
  endfacet
  facet normal -0.19509 0.980785 0
    outer loop
      vertex 63.0866 -5.3806 5
      vertex 63.0866 -5.3806 16
      vertex 65 -5 5
    endloop
  endfacet
  facet normal -0.19509 0.980785 0
    outer loop
      vertex 65 -5 5
      vertex 63.0866 -5.3806 16
      vertex 65 -5 16
    endloop
  endfacet
  facet normal 0.19509 0.980785 0
    outer loop
      vertex 65 -5 5
      vertex 65 -5 16
      vertex 66.9134 -5.3806 5
    endloop
  endfacet
  facet normal 0.19509 0.980785 0
    outer loop
      vertex 66.9134 -5.3806 5
      vertex 65 -5 16
      vertex 66.9134 -5.3806 16
    endloop
  endfacet
  facet normal 0.55557 0.83147 0
    outer loop
      vertex 66.9134 -5.3806 5
      vertex 66.9134 -5.3806 16
      vertex 68.5355 -6.46447 5
    endloop
  endfacet
  facet normal 0.55557 0.83147 0
    outer loop
      vertex 68.5355 -6.46447 5
      vertex 66.9134 -5.3806 16
      vertex 68.5355 -6.46447 16
    endloop
  endfacet
  facet normal 0.83147 0.55557 0
    outer loop
      vertex 69.6194 -8.08658 5
      vertex 68.5355 -6.46447 5
      vertex 68.5355 -6.46447 16
    endloop
  endfacet
  facet normal 0.83147 0.55557 0
    outer loop
      vertex 69.6194 -8.08658 16
      vertex 69.6194 -8.08658 5
      vertex 68.5355 -6.46447 16
    endloop
  endfacet
  facet normal 0.980785 0.19509 0
    outer loop
      vertex 70 -10 5
      vertex 69.6194 -8.08658 5
      vertex 69.6194 -8.08658 16
    endloop
  endfacet
  facet normal 0.980785 0.19509 0
    outer loop
      vertex 70 -10 16
      vertex 70 -10 5
      vertex 69.6194 -8.08658 16
    endloop
  endfacet
  facet normal 0.980785 -0.19509 0
    outer loop
      vertex 69.6194 -11.9134 16
      vertex 69.6194 -11.9134 5
      vertex 70 -10 5
    endloop
  endfacet
  facet normal 0.980785 -0.19509 0
    outer loop
      vertex 70 -10 16
      vertex 69.6194 -11.9134 16
      vertex 70 -10 5
    endloop
  endfacet
  facet normal 0.83147 -0.55557 0
    outer loop
      vertex 68.5355 -13.5355 16
      vertex 68.5355 -13.5355 5
      vertex 69.6194 -11.9134 5
    endloop
  endfacet
  facet normal 0.83147 -0.55557 0
    outer loop
      vertex 69.6194 -11.9134 16
      vertex 68.5355 -13.5355 16
      vertex 69.6194 -11.9134 5
    endloop
  endfacet
  facet normal 0.55557 -0.83147 0
    outer loop
      vertex 66.9134 -14.6194 16
      vertex 66.9134 -14.6194 5
      vertex 68.5355 -13.5355 5
    endloop
  endfacet
  facet normal 0.55557 -0.83147 0
    outer loop
      vertex 68.5355 -13.5355 16
      vertex 66.9134 -14.6194 16
      vertex 68.5355 -13.5355 5
    endloop
  endfacet
  facet normal 0.19509 -0.980785 0
    outer loop
      vertex 65 -15 16
      vertex 65 -15 5
      vertex 66.9134 -14.6194 5
    endloop
  endfacet
  facet normal 0.19509 -0.980785 0
    outer loop
      vertex 66.9134 -14.6194 16
      vertex 65 -15 16
      vertex 66.9134 -14.6194 5
    endloop
  endfacet
  facet normal -0.19509 -0.980785 0
    outer loop
      vertex 63.0866 -14.6194 16
      vertex 63.0866 -14.6194 5
      vertex 65 -15 5
    endloop
  endfacet
  facet normal -0.19509 -0.980785 0
    outer loop
      vertex 65 -15 16
      vertex 63.0866 -14.6194 16
      vertex 65 -15 5
    endloop
  endfacet
  facet normal -0.55557 -0.83147 0
    outer loop
      vertex 61.4645 -13.5355 16
      vertex 61.4645 -13.5355 5
      vertex 63.0866 -14.6194 5
    endloop
  endfacet
  facet normal -0.55557 -0.83147 0
    outer loop
      vertex 63.0866 -14.6194 16
      vertex 61.4645 -13.5355 16
      vertex 63.0866 -14.6194 5
    endloop
  endfacet
  facet normal -0.83147 -0.55557 0
    outer loop
      vertex 60.3806 -11.9134 5
      vertex 61.4645 -13.5355 5
      vertex 60.3806 -11.9134 16
    endloop
  endfacet
  facet normal -0.83147 -0.55557 0
    outer loop
      vertex 60.3806 -11.9134 16
      vertex 61.4645 -13.5355 5
      vertex 61.4645 -13.5355 16
    endloop
  endfacet
  facet normal -0.980785 0.19509 0
    outer loop
      vertex 60 10 5
      vertex 60 10 16
      vertex 60.3806 11.9134 5
    endloop
  endfacet
  facet normal -0.980785 0.19509 0
    outer loop
      vertex 60.3806 11.9134 5
      vertex 60 10 16
      vertex 60.3806 11.9134 16
    endloop
  endfacet
  facet normal -0.980785 -0.19509 0
    outer loop
      vertex 60 10 5
      vertex 60.3806 8.08658 5
      vertex 60 10 16
    endloop
  endfacet
  facet normal -0.980785 -0.19509 0
    outer loop
      vertex 60 10 16
      vertex 60.3806 8.08658 5
      vertex 60.3806 8.08658 16
    endloop
  endfacet
  facet normal -0.83147 0.55557 0
    outer loop
      vertex 60.3806 11.9134 5
      vertex 60.3806 11.9134 16
      vertex 61.4645 13.5355 5
    endloop
  endfacet
  facet normal -0.83147 0.55557 0
    outer loop
      vertex 61.4645 13.5355 5
      vertex 60.3806 11.9134 16
      vertex 61.4645 13.5355 16
    endloop
  endfacet
  facet normal -0.55557 0.83147 0
    outer loop
      vertex 61.4645 13.5355 5
      vertex 61.4645 13.5355 16
      vertex 63.0866 14.6194 5
    endloop
  endfacet
  facet normal -0.55557 0.83147 0
    outer loop
      vertex 63.0866 14.6194 5
      vertex 61.4645 13.5355 16
      vertex 63.0866 14.6194 16
    endloop
  endfacet
  facet normal -0.19509 0.980785 0
    outer loop
      vertex 63.0866 14.6194 5
      vertex 63.0866 14.6194 16
      vertex 65 15 5
    endloop
  endfacet
  facet normal -0.19509 0.980785 0
    outer loop
      vertex 65 15 5
      vertex 63.0866 14.6194 16
      vertex 65 15 16
    endloop
  endfacet
  facet normal 0.19509 0.980785 0
    outer loop
      vertex 65 15 5
      vertex 65 15 16
      vertex 66.9134 14.6194 5
    endloop
  endfacet
  facet normal 0.19509 0.980785 0
    outer loop
      vertex 66.9134 14.6194 5
      vertex 65 15 16
      vertex 66.9134 14.6194 16
    endloop
  endfacet
  facet normal 0.55557 0.83147 0
    outer loop
      vertex 66.9134 14.6194 5
      vertex 66.9134 14.6194 16
      vertex 68.5355 13.5355 5
    endloop
  endfacet
  facet normal 0.55557 0.83147 0
    outer loop
      vertex 68.5355 13.5355 5
      vertex 66.9134 14.6194 16
      vertex 68.5355 13.5355 16
    endloop
  endfacet
  facet normal 0.83147 0.55557 0
    outer loop
      vertex 69.6194 11.9134 5
      vertex 68.5355 13.5355 5
      vertex 68.5355 13.5355 16
    endloop
  endfacet
  facet normal 0.83147 0.55557 0
    outer loop
      vertex 69.6194 11.9134 16
      vertex 69.6194 11.9134 5
      vertex 68.5355 13.5355 16
    endloop
  endfacet
  facet normal 0.980785 0.19509 0
    outer loop
      vertex 70 10 5
      vertex 69.6194 11.9134 5
      vertex 69.6194 11.9134 16
    endloop
  endfacet
  facet normal 0.980785 0.19509 0
    outer loop
      vertex 70 10 16
      vertex 70 10 5
      vertex 69.6194 11.9134 16
    endloop
  endfacet
  facet normal 0.980785 -0.19509 0
    outer loop
      vertex 69.6194 8.08658 16
      vertex 69.6194 8.08658 5
      vertex 70 10 5
    endloop
  endfacet
  facet normal 0.980785 -0.19509 0
    outer loop
      vertex 70 10 16
      vertex 69.6194 8.08658 16
      vertex 70 10 5
    endloop
  endfacet
  facet normal 0.83147 -0.55557 0
    outer loop
      vertex 68.5355 6.46447 16
      vertex 68.5355 6.46447 5
      vertex 69.6194 8.08658 5
    endloop
  endfacet
  facet normal 0.83147 -0.55557 0
    outer loop
      vertex 69.6194 8.08658 16
      vertex 68.5355 6.46447 16
      vertex 69.6194 8.08658 5
    endloop
  endfacet
  facet normal 0.55557 -0.83147 0
    outer loop
      vertex 66.9134 5.3806 16
      vertex 66.9134 5.3806 5
      vertex 68.5355 6.46447 5
    endloop
  endfacet
  facet normal 0.55557 -0.83147 0
    outer loop
      vertex 68.5355 6.46447 16
      vertex 66.9134 5.3806 16
      vertex 68.5355 6.46447 5
    endloop
  endfacet
  facet normal 0.19509 -0.980785 0
    outer loop
      vertex 65 5 16
      vertex 65 5 5
      vertex 66.9134 5.3806 5
    endloop
  endfacet
  facet normal 0.19509 -0.980785 0
    outer loop
      vertex 66.9134 5.3806 16
      vertex 65 5 16
      vertex 66.9134 5.3806 5
    endloop
  endfacet
  facet normal -0.19509 -0.980785 0
    outer loop
      vertex 63.0866 5.3806 16
      vertex 63.0866 5.3806 5
      vertex 65 5 5
    endloop
  endfacet
  facet normal -0.19509 -0.980785 0
    outer loop
      vertex 65 5 16
      vertex 63.0866 5.3806 16
      vertex 65 5 5
    endloop
  endfacet
  facet normal -0.55557 -0.83147 0
    outer loop
      vertex 61.4645 6.46447 16
      vertex 61.4645 6.46447 5
      vertex 63.0866 5.3806 5
    endloop
  endfacet
  facet normal -0.55557 -0.83147 0
    outer loop
      vertex 63.0866 5.3806 16
      vertex 61.4645 6.46447 16
      vertex 63.0866 5.3806 5
    endloop
  endfacet
  facet normal -0.83147 -0.55557 0
    outer loop
      vertex 60.3806 8.08658 5
      vertex 61.4645 6.46447 5
      vertex 60.3806 8.08658 16
    endloop
  endfacet
  facet normal -0.83147 -0.55557 0
    outer loop
      vertex 60.3806 8.08658 16
      vertex 61.4645 6.46447 5
      vertex 61.4645 6.46447 16
    endloop
  endfacet
  facet normal 0 0 -1
    outer loop
      vertex -70 -12 5
      vertex -69.6194 -10.0866 5
      vertex -69.6194 -13.9134 5
    endloop
  endfacet
  facet normal 0 0 -1
    outer loop
      vertex -69.6194 -13.9134 5
      vertex -69.6194 -10.0866 5
      vertex -68.5355 -8.46447 5
    endloop
  endfacet
  facet normal 0 0 -1
    outer loop
      vertex -69.6194 -13.9134 5
      vertex -68.5355 -8.46447 5
      vertex -66.9134 -7.3806 5
    endloop
  endfacet
  facet normal 0 0 -1
    outer loop
      vertex -69.6194 -13.9134 5
      vertex -66.9134 -7.3806 5
      vertex -65 -7 5
    endloop
  endfacet
  facet normal 0 0 -1
    outer loop
      vertex -69.6194 -13.9134 5
      vertex -65 -7 5
      vertex -63.0866 -7.3806 5
    endloop
  endfacet
  facet normal 0 0 -1
    outer loop
      vertex -65.875 -10.4845 5
      vertex -63.0866 -7.3806 5
      vertex -61.4645 -8.46447 5
    endloop
  endfacet
  facet normal 0 0 -1
    outer loop
      vertex -64.125 -10.4845 5
      vertex -61.4645 -8.46447 5
      vertex -60.3806 -10.0866 5
    endloop
  endfacet
  facet normal 0 0 -1
    outer loop
      vertex -63.25 -12 5
      vertex -60.3806 -10.0866 5
      vertex -60 -12 5
    endloop
  endfacet
  facet normal 0 0 -1
    outer loop
      vertex -64.125 -13.5155 5
      vertex -60 -12 5
      vertex -60.3806 -13.9134 5
    endloop
  endfacet
  facet normal 0 0 -1
    outer loop
      vertex -69.6194 -13.9134 5
      vertex -60.3806 -13.9134 5
      vertex -61.4645 -15.5355 5
    endloop
  endfacet
  facet normal 0 0 -1
    outer loop
      vertex -69.6194 -13.9134 5
      vertex -61.4645 -15.5355 5
      vertex -63.0866 -16.6194 5
    endloop
  endfacet
  facet normal 0 0 -1
    outer loop
      vertex -69.6194 -13.9134 5
      vertex -63.0866 -16.6194 5
      vertex -65 -17 5
    endloop
  endfacet
  facet normal 0 0 -1
    outer loop
      vertex -69.6194 -13.9134 5
      vertex -65 -17 5
      vertex -66.9134 -16.6194 5
    endloop
  endfacet
  facet normal 0 0 -1
    outer loop
      vertex -69.6194 -13.9134 5
      vertex -66.9134 -16.6194 5
      vertex -68.5355 -15.5355 5
    endloop
  endfacet
  facet normal 0 0 -1
    outer loop
      vertex -65.875 -13.5155 5
      vertex -69.6194 -13.9134 5
      vertex -66.75 -12 5
    endloop
  endfacet
  facet normal 0 0 -1
    outer loop
      vertex -63.25 -12 5
      vertex -60 -12 5
      vertex -64.125 -13.5155 5
    endloop
  endfacet
  facet normal 0 0 -1
    outer loop
      vertex -69.6194 -13.9134 5
      vertex -65.875 -13.5155 5
      vertex -60.3806 -13.9134 5
    endloop
  endfacet
  facet normal 0 0 -1
    outer loop
      vertex -65.875 -13.5155 5
      vertex -64.125 -13.5155 5
      vertex -60.3806 -13.9134 5
    endloop
  endfacet
  facet normal 0 0 -1
    outer loop
      vertex -65.875 -10.4845 5
      vertex -61.4645 -8.46447 5
      vertex -64.125 -10.4845 5
    endloop
  endfacet
  facet normal 0 0 -1
    outer loop
      vertex -69.6194 -13.9134 5
      vertex -63.0866 -7.3806 5
      vertex -65.875 -10.4845 5
    endloop
  endfacet
  facet normal 0 0 -1
    outer loop
      vertex -66.75 -12 5
      vertex -69.6194 -13.9134 5
      vertex -65.875 -10.4845 5
    endloop
  endfacet
  facet normal 0 0 -1
    outer loop
      vertex -64.125 -10.4845 5
      vertex -60.3806 -10.0866 5
      vertex -63.25 -12 5
    endloop
  endfacet
  facet normal 0 0 -1
    outer loop
      vertex -70 12 5
      vertex -69.6194 13.9134 5
      vertex -69.6194 10.0866 5
    endloop
  endfacet
  facet normal 0 0 -1
    outer loop
      vertex -69.6194 10.0866 5
      vertex -69.6194 13.9134 5
      vertex -68.5355 15.5355 5
    endloop
  endfacet
  facet normal 0 0 -1
    outer loop
      vertex -69.6194 10.0866 5
      vertex -68.5355 15.5355 5
      vertex -66.9134 16.6194 5
    endloop
  endfacet
  facet normal 0 0 -1
    outer loop
      vertex -69.6194 10.0866 5
      vertex -66.9134 16.6194 5
      vertex -65 17 5
    endloop
  endfacet
  facet normal 0 0 -1
    outer loop
      vertex -69.6194 10.0866 5
      vertex -65 17 5
      vertex -63.0866 16.6194 5
    endloop
  endfacet
  facet normal 0 0 -1
    outer loop
      vertex -65.875 13.5155 5
      vertex -63.0866 16.6194 5
      vertex -61.4645 15.5355 5
    endloop
  endfacet
  facet normal 0 0 -1
    outer loop
      vertex -64.125 13.5155 5
      vertex -61.4645 15.5355 5
      vertex -60.3806 13.9134 5
    endloop
  endfacet
  facet normal 0 0 -1
    outer loop
      vertex -63.25 12 5
      vertex -60.3806 13.9134 5
      vertex -60 12 5
    endloop
  endfacet
  facet normal 0 0 -1
    outer loop
      vertex -64.125 10.4845 5
      vertex -60 12 5
      vertex -60.3806 10.0866 5
    endloop
  endfacet
  facet normal 0 0 -1
    outer loop
      vertex -69.6194 10.0866 5
      vertex -60.3806 10.0866 5
      vertex -61.4645 8.46447 5
    endloop
  endfacet
  facet normal 0 0 -1
    outer loop
      vertex -69.6194 10.0866 5
      vertex -61.4645 8.46447 5
      vertex -63.0866 7.3806 5
    endloop
  endfacet
  facet normal 0 0 -1
    outer loop
      vertex -69.6194 10.0866 5
      vertex -63.0866 7.3806 5
      vertex -65 7 5
    endloop
  endfacet
  facet normal 0 0 -1
    outer loop
      vertex -69.6194 10.0866 5
      vertex -65 7 5
      vertex -66.9134 7.3806 5
    endloop
  endfacet
  facet normal 0 0 -1
    outer loop
      vertex -69.6194 10.0866 5
      vertex -66.9134 7.3806 5
      vertex -68.5355 8.46447 5
    endloop
  endfacet
  facet normal 0 0 -1
    outer loop
      vertex -65.875 10.4845 5
      vertex -69.6194 10.0866 5
      vertex -66.75 12 5
    endloop
  endfacet
  facet normal 0 0 -1
    outer loop
      vertex -63.25 12 5
      vertex -60 12 5
      vertex -64.125 10.4845 5
    endloop
  endfacet
  facet normal 0 0 -1
    outer loop
      vertex -69.6194 10.0866 5
      vertex -65.875 10.4845 5
      vertex -60.3806 10.0866 5
    endloop
  endfacet
  facet normal 0 0 -1
    outer loop
      vertex -65.875 10.4845 5
      vertex -64.125 10.4845 5
      vertex -60.3806 10.0866 5
    endloop
  endfacet
  facet normal 0 0 -1
    outer loop
      vertex -65.875 13.5155 5
      vertex -61.4645 15.5355 5
      vertex -64.125 13.5155 5
    endloop
  endfacet
  facet normal 0 0 -1
    outer loop
      vertex -69.6194 10.0866 5
      vertex -63.0866 16.6194 5
      vertex -65.875 13.5155 5
    endloop
  endfacet
  facet normal 0 0 -1
    outer loop
      vertex -66.75 12 5
      vertex -69.6194 10.0866 5
      vertex -65.875 13.5155 5
    endloop
  endfacet
  facet normal 0 0 -1
    outer loop
      vertex -64.125 13.5155 5
      vertex -60.3806 13.9134 5
      vertex -63.25 12 5
    endloop
  endfacet
  facet normal 0 0 -1
    outer loop
      vertex 60 -10 5
      vertex 60.3806 -8.08658 5
      vertex 60.3806 -11.9134 5
    endloop
  endfacet
  facet normal 0 0 -1
    outer loop
      vertex 60.3806 -11.9134 5
      vertex 60.3806 -8.08658 5
      vertex 61.4645 -6.46447 5
    endloop
  endfacet
  facet normal 0 0 -1
    outer loop
      vertex 60.3806 -11.9134 5
      vertex 61.4645 -6.46447 5
      vertex 63.0866 -5.3806 5
    endloop
  endfacet
  facet normal 0 0 -1
    outer loop
      vertex 60.3806 -11.9134 5
      vertex 63.0866 -5.3806 5
      vertex 65 -5 5
    endloop
  endfacet
  facet normal 0 0 -1
    outer loop
      vertex 60.3806 -11.9134 5
      vertex 65 -5 5
      vertex 66.9134 -5.3806 5
    endloop
  endfacet
  facet normal 0 0 -1
    outer loop
      vertex 64.125 -8.48446 5
      vertex 66.9134 -5.3806 5
      vertex 68.5355 -6.46447 5
    endloop
  endfacet
  facet normal 0 0 -1
    outer loop
      vertex 65.875 -8.48446 5
      vertex 68.5355 -6.46447 5
      vertex 69.6194 -8.08658 5
    endloop
  endfacet
  facet normal 0 0 -1
    outer loop
      vertex 66.75 -10 5
      vertex 69.6194 -8.08658 5
      vertex 70 -10 5
    endloop
  endfacet
  facet normal 0 0 -1
    outer loop
      vertex 65.875 -11.5155 5
      vertex 70 -10 5
      vertex 69.6194 -11.9134 5
    endloop
  endfacet
  facet normal 0 0 -1
    outer loop
      vertex 60.3806 -11.9134 5
      vertex 69.6194 -11.9134 5
      vertex 68.5355 -13.5355 5
    endloop
  endfacet
  facet normal 0 0 -1
    outer loop
      vertex 60.3806 -11.9134 5
      vertex 68.5355 -13.5355 5
      vertex 66.9134 -14.6194 5
    endloop
  endfacet
  facet normal 0 0 -1
    outer loop
      vertex 60.3806 -11.9134 5
      vertex 66.9134 -14.6194 5
      vertex 65 -15 5
    endloop
  endfacet
  facet normal 0 0 -1
    outer loop
      vertex 60.3806 -11.9134 5
      vertex 65 -15 5
      vertex 63.0866 -14.6194 5
    endloop
  endfacet
  facet normal 0 0 -1
    outer loop
      vertex 60.3806 -11.9134 5
      vertex 63.0866 -14.6194 5
      vertex 61.4645 -13.5355 5
    endloop
  endfacet
  facet normal 0 0 -1
    outer loop
      vertex 64.125 -11.5155 5
      vertex 60.3806 -11.9134 5
      vertex 63.25 -10 5
    endloop
  endfacet
  facet normal 0 0 -1
    outer loop
      vertex 66.75 -10 5
      vertex 70 -10 5
      vertex 65.875 -11.5155 5
    endloop
  endfacet
  facet normal 0 0 -1
    outer loop
      vertex 60.3806 -11.9134 5
      vertex 64.125 -11.5155 5
      vertex 69.6194 -11.9134 5
    endloop
  endfacet
  facet normal 0 0 -1
    outer loop
      vertex 64.125 -11.5155 5
      vertex 65.875 -11.5155 5
      vertex 69.6194 -11.9134 5
    endloop
  endfacet
  facet normal 0 0 -1
    outer loop
      vertex 64.125 -8.48446 5
      vertex 68.5355 -6.46447 5
      vertex 65.875 -8.48446 5
    endloop
  endfacet
  facet normal 0 0 -1
    outer loop
      vertex 60.3806 -11.9134 5
      vertex 66.9134 -5.3806 5
      vertex 64.125 -8.48446 5
    endloop
  endfacet
  facet normal 0 0 -1
    outer loop
      vertex 63.25 -10 5
      vertex 60.3806 -11.9134 5
      vertex 64.125 -8.48446 5
    endloop
  endfacet
  facet normal 0 0 -1
    outer loop
      vertex 65.875 -8.48446 5
      vertex 69.6194 -8.08658 5
      vertex 66.75 -10 5
    endloop
  endfacet
  facet normal 0 0 -1
    outer loop
      vertex 60 10 5
      vertex 60.3806 11.9134 5
      vertex 60.3806 8.08658 5
    endloop
  endfacet
  facet normal 0 0 -1
    outer loop
      vertex 60.3806 8.08658 5
      vertex 60.3806 11.9134 5
      vertex 61.4645 13.5355 5
    endloop
  endfacet
  facet normal 0 0 -1
    outer loop
      vertex 60.3806 8.08658 5
      vertex 61.4645 13.5355 5
      vertex 63.0866 14.6194 5
    endloop
  endfacet
  facet normal 0 0 -1
    outer loop
      vertex 60.3806 8.08658 5
      vertex 63.0866 14.6194 5
      vertex 65 15 5
    endloop
  endfacet
  facet normal 0 0 -1
    outer loop
      vertex 60.3806 8.08658 5
      vertex 65 15 5
      vertex 66.9134 14.6194 5
    endloop
  endfacet
  facet normal 0 0 -1
    outer loop
      vertex 64.125 11.5155 5
      vertex 66.9134 14.6194 5
      vertex 68.5355 13.5355 5
    endloop
  endfacet
  facet normal 0 0 -1
    outer loop
      vertex 65.875 11.5155 5
      vertex 68.5355 13.5355 5
      vertex 69.6194 11.9134 5
    endloop
  endfacet
  facet normal 0 0 -1
    outer loop
      vertex 66.75 10 5
      vertex 69.6194 11.9134 5
      vertex 70 10 5
    endloop
  endfacet
  facet normal 0 0 -1
    outer loop
      vertex 65.875 8.48446 5
      vertex 70 10 5
      vertex 69.6194 8.08658 5
    endloop
  endfacet
  facet normal 0 0 -1
    outer loop
      vertex 60.3806 8.08658 5
      vertex 69.6194 8.08658 5
      vertex 68.5355 6.46447 5
    endloop
  endfacet
  facet normal 0 0 -1
    outer loop
      vertex 60.3806 8.08658 5
      vertex 68.5355 6.46447 5
      vertex 66.9134 5.3806 5
    endloop
  endfacet
  facet normal 0 0 -1
    outer loop
      vertex 60.3806 8.08658 5
      vertex 66.9134 5.3806 5
      vertex 65 5 5
    endloop
  endfacet
  facet normal 0 0 -1
    outer loop
      vertex 60.3806 8.08658 5
      vertex 65 5 5
      vertex 63.0866 5.3806 5
    endloop
  endfacet
  facet normal 0 0 -1
    outer loop
      vertex 60.3806 8.08658 5
      vertex 63.0866 5.3806 5
      vertex 61.4645 6.46447 5
    endloop
  endfacet
  facet normal 0 0 -1
    outer loop
      vertex 64.125 8.48446 5
      vertex 60.3806 8.08658 5
      vertex 63.25 10 5
    endloop
  endfacet
  facet normal 0 0 -1
    outer loop
      vertex 66.75 10 5
      vertex 70 10 5
      vertex 65.875 8.48446 5
    endloop
  endfacet
  facet normal 0 0 -1
    outer loop
      vertex 60.3806 8.08658 5
      vertex 64.125 8.48446 5
      vertex 69.6194 8.08658 5
    endloop
  endfacet
  facet normal 0 0 -1
    outer loop
      vertex 64.125 8.48446 5
      vertex 65.875 8.48446 5
      vertex 69.6194 8.08658 5
    endloop
  endfacet
  facet normal 0 0 -1
    outer loop
      vertex 64.125 11.5155 5
      vertex 68.5355 13.5355 5
      vertex 65.875 11.5155 5
    endloop
  endfacet
  facet normal 0 0 -1
    outer loop
      vertex 60.3806 8.08658 5
      vertex 66.9134 14.6194 5
      vertex 64.125 11.5155 5
    endloop
  endfacet
  facet normal 0 0 -1
    outer loop
      vertex 63.25 10 5
      vertex 60.3806 8.08658 5
      vertex 64.125 11.5155 5
    endloop
  endfacet
  facet normal 0 0 -1
    outer loop
      vertex 65.875 11.5155 5
      vertex 69.6194 11.9134 5
      vertex 66.75 10 5
    endloop
  endfacet
  facet normal 0.866025 -0.5 0
    outer loop
      vertex -65.875 -10.4845 5
      vertex -65.875 -10.4845 16
      vertex -66.75 -12 16
    endloop
  endfacet
  facet normal 0.866025 -0.5 0
    outer loop
      vertex -66.75 -12 5
      vertex -65.875 -10.4845 5
      vertex -66.75 -12 16
    endloop
  endfacet
  facet normal 0.866025 0.5 0
    outer loop
      vertex -66.75 -12 16
      vertex -65.875 -13.5155 16
      vertex -65.875 -13.5155 5
    endloop
  endfacet
  facet normal 0.866025 0.5 0
    outer loop
      vertex -66.75 -12 5
      vertex -66.75 -12 16
      vertex -65.875 -13.5155 5
    endloop
  endfacet
  facet normal 0 -1 0
    outer loop
      vertex -64.125 -10.4845 5
      vertex -64.125 -10.4845 16
      vertex -65.875 -10.4845 16
    endloop
  endfacet
  facet normal 0 -1 0
    outer loop
      vertex -65.875 -10.4845 5
      vertex -64.125 -10.4845 5
      vertex -65.875 -10.4845 16
    endloop
  endfacet
  facet normal -0.866025 -0.5 0
    outer loop
      vertex -63.25 -12 16
      vertex -64.125 -10.4845 16
      vertex -63.25 -12 5
    endloop
  endfacet
  facet normal -0.866025 -0.5 0
    outer loop
      vertex -63.25 -12 5
      vertex -64.125 -10.4845 16
      vertex -64.125 -10.4845 5
    endloop
  endfacet
  facet normal -0.866025 0.5 0
    outer loop
      vertex -63.25 -12 16
      vertex -63.25 -12 5
      vertex -64.125 -13.5155 16
    endloop
  endfacet
  facet normal -0.866025 0.5 0
    outer loop
      vertex -64.125 -13.5155 16
      vertex -63.25 -12 5
      vertex -64.125 -13.5155 5
    endloop
  endfacet
  facet normal 0 1 0
    outer loop
      vertex -64.125 -13.5155 16
      vertex -64.125 -13.5155 5
      vertex -65.875 -13.5155 16
    endloop
  endfacet
  facet normal 0 1 0
    outer loop
      vertex -65.875 -13.5155 16
      vertex -64.125 -13.5155 5
      vertex -65.875 -13.5155 5
    endloop
  endfacet
  facet normal 0.866025 -0.5 0
    outer loop
      vertex -65.875 13.5155 5
      vertex -65.875 13.5155 16
      vertex -66.75 12 16
    endloop
  endfacet
  facet normal 0.866025 -0.5 0
    outer loop
      vertex -66.75 12 5
      vertex -65.875 13.5155 5
      vertex -66.75 12 16
    endloop
  endfacet
  facet normal 0.866025 0.5 0
    outer loop
      vertex -66.75 12 16
      vertex -65.875 10.4845 16
      vertex -65.875 10.4845 5
    endloop
  endfacet
  facet normal 0.866025 0.5 0
    outer loop
      vertex -66.75 12 5
      vertex -66.75 12 16
      vertex -65.875 10.4845 5
    endloop
  endfacet
  facet normal 0 -1 0
    outer loop
      vertex -64.125 13.5155 5
      vertex -64.125 13.5155 16
      vertex -65.875 13.5155 16
    endloop
  endfacet
  facet normal 0 -1 0
    outer loop
      vertex -65.875 13.5155 5
      vertex -64.125 13.5155 5
      vertex -65.875 13.5155 16
    endloop
  endfacet
  facet normal -0.866025 -0.5 0
    outer loop
      vertex -63.25 12 16
      vertex -64.125 13.5155 16
      vertex -63.25 12 5
    endloop
  endfacet
  facet normal -0.866025 -0.5 0
    outer loop
      vertex -63.25 12 5
      vertex -64.125 13.5155 16
      vertex -64.125 13.5155 5
    endloop
  endfacet
  facet normal -0.866025 0.5 0
    outer loop
      vertex -63.25 12 16
      vertex -63.25 12 5
      vertex -64.125 10.4845 16
    endloop
  endfacet
  facet normal -0.866025 0.5 0
    outer loop
      vertex -64.125 10.4845 16
      vertex -63.25 12 5
      vertex -64.125 10.4845 5
    endloop
  endfacet
  facet normal 0 1 0
    outer loop
      vertex -64.125 10.4845 16
      vertex -64.125 10.4845 5
      vertex -65.875 10.4845 16
    endloop
  endfacet
  facet normal 0 1 0
    outer loop
      vertex -65.875 10.4845 16
      vertex -64.125 10.4845 5
      vertex -65.875 10.4845 5
    endloop
  endfacet
  facet normal 0.866025 -0.5 0
    outer loop
      vertex 64.125 -8.48446 5
      vertex 64.125 -8.48446 16
      vertex 63.25 -10 16
    endloop
  endfacet
  facet normal 0.866025 -0.5 0
    outer loop
      vertex 63.25 -10 5
      vertex 64.125 -8.48446 5
      vertex 63.25 -10 16
    endloop
  endfacet
  facet normal 0.866025 0.5 0
    outer loop
      vertex 63.25 -10 16
      vertex 64.125 -11.5155 16
      vertex 64.125 -11.5155 5
    endloop
  endfacet
  facet normal 0.866025 0.5 0
    outer loop
      vertex 63.25 -10 5
      vertex 63.25 -10 16
      vertex 64.125 -11.5155 5
    endloop
  endfacet
  facet normal 0 -1 0
    outer loop
      vertex 65.875 -8.48446 5
      vertex 65.875 -8.48446 16
      vertex 64.125 -8.48446 16
    endloop
  endfacet
  facet normal 0 -1 0
    outer loop
      vertex 64.125 -8.48446 5
      vertex 65.875 -8.48446 5
      vertex 64.125 -8.48446 16
    endloop
  endfacet
  facet normal -0.866025 -0.5 0
    outer loop
      vertex 66.75 -10 16
      vertex 65.875 -8.48446 16
      vertex 66.75 -10 5
    endloop
  endfacet
  facet normal -0.866025 -0.5 0
    outer loop
      vertex 66.75 -10 5
      vertex 65.875 -8.48446 16
      vertex 65.875 -8.48446 5
    endloop
  endfacet
  facet normal -0.866025 0.5 0
    outer loop
      vertex 66.75 -10 16
      vertex 66.75 -10 5
      vertex 65.875 -11.5155 16
    endloop
  endfacet
  facet normal -0.866025 0.5 0
    outer loop
      vertex 65.875 -11.5155 16
      vertex 66.75 -10 5
      vertex 65.875 -11.5155 5
    endloop
  endfacet
  facet normal 0 1 0
    outer loop
      vertex 65.875 -11.5155 16
      vertex 65.875 -11.5155 5
      vertex 64.125 -11.5155 16
    endloop
  endfacet
  facet normal 0 1 0
    outer loop
      vertex 64.125 -11.5155 16
      vertex 65.875 -11.5155 5
      vertex 64.125 -11.5155 5
    endloop
  endfacet
  facet normal 0.866025 -0.5 0
    outer loop
      vertex 64.125 11.5155 5
      vertex 64.125 11.5155 16
      vertex 63.25 10 16
    endloop
  endfacet
  facet normal 0.866025 -0.5 0
    outer loop
      vertex 63.25 10 5
      vertex 64.125 11.5155 5
      vertex 63.25 10 16
    endloop
  endfacet
  facet normal 0.866025 0.5 0
    outer loop
      vertex 63.25 10 16
      vertex 64.125 8.48446 16
      vertex 64.125 8.48446 5
    endloop
  endfacet
  facet normal 0.866025 0.5 0
    outer loop
      vertex 63.25 10 5
      vertex 63.25 10 16
      vertex 64.125 8.48446 5
    endloop
  endfacet
  facet normal 0 -1 0
    outer loop
      vertex 65.875 11.5155 5
      vertex 65.875 11.5155 16
      vertex 64.125 11.5155 16
    endloop
  endfacet
  facet normal 0 -1 0
    outer loop
      vertex 64.125 11.5155 5
      vertex 65.875 11.5155 5
      vertex 64.125 11.5155 16
    endloop
  endfacet
  facet normal -0.866025 -0.5 0
    outer loop
      vertex 66.75 10 16
      vertex 65.875 11.5155 16
      vertex 66.75 10 5
    endloop
  endfacet
  facet normal -0.866025 -0.5 0
    outer loop
      vertex 66.75 10 5
      vertex 65.875 11.5155 16
      vertex 65.875 11.5155 5
    endloop
  endfacet
  facet normal -0.866025 0.5 0
    outer loop
      vertex 66.75 10 16
      vertex 66.75 10 5
      vertex 65.875 8.48446 16
    endloop
  endfacet
  facet normal -0.866025 0.5 0
    outer loop
      vertex 65.875 8.48446 16
      vertex 66.75 10 5
      vertex 65.875 8.48446 5
    endloop
  endfacet
  facet normal 0 1 0
    outer loop
      vertex 65.875 8.48446 16
      vertex 65.875 8.48446 5
      vertex 64.125 8.48446 16
    endloop
  endfacet
  facet normal 0 1 0
    outer loop
      vertex 64.125 8.48446 16
      vertex 65.875 8.48446 5
      vertex 64.125 8.48446 5
    endloop
  endfacet
  facet normal 0 0 -1
    outer loop
      vertex -66.75 -12 16
      vertex -65.875 -10.4845 16
      vertex -65.875 -13.5155 16
    endloop
  endfacet
  facet normal 0 0 -1
    outer loop
      vertex -65.875 -13.5155 16
      vertex -65.875 -10.4845 16
      vertex -64.125 -10.4845 16
    endloop
  endfacet
  facet normal 0 0 -1
    outer loop
      vertex -65.875 -13.5155 16
      vertex -64.125 -10.4845 16
      vertex -63.25 -12 16
    endloop
  endfacet
  facet normal 0 0 -1
    outer loop
      vertex -65.875 -13.5155 16
      vertex -63.25 -12 16
      vertex -64.125 -13.5155 16
    endloop
  endfacet
  facet normal 0 0 -1
    outer loop
      vertex -66.75 12 16
      vertex -65.875 13.5155 16
      vertex -65.875 10.4845 16
    endloop
  endfacet
  facet normal 0 0 -1
    outer loop
      vertex -65.875 10.4845 16
      vertex -65.875 13.5155 16
      vertex -64.125 13.5155 16
    endloop
  endfacet
  facet normal 0 0 -1
    outer loop
      vertex -65.875 10.4845 16
      vertex -64.125 13.5155 16
      vertex -63.25 12 16
    endloop
  endfacet
  facet normal 0 0 -1
    outer loop
      vertex -65.875 10.4845 16
      vertex -63.25 12 16
      vertex -64.125 10.4845 16
    endloop
  endfacet
  facet normal 0 0 -1
    outer loop
      vertex 63.25 -10 16
      vertex 64.125 -8.48446 16
      vertex 64.125 -11.5155 16
    endloop
  endfacet
  facet normal 0 0 -1
    outer loop
      vertex 64.125 -11.5155 16
      vertex 64.125 -8.48446 16
      vertex 65.875 -8.48446 16
    endloop
  endfacet
  facet normal 0 0 -1
    outer loop
      vertex 64.125 -11.5155 16
      vertex 65.875 -8.48446 16
      vertex 66.75 -10 16
    endloop
  endfacet
  facet normal 0 0 -1
    outer loop
      vertex 64.125 -11.5155 16
      vertex 66.75 -10 16
      vertex 65.875 -11.5155 16
    endloop
  endfacet
  facet normal 0 0 -1
    outer loop
      vertex 63.25 10 16
      vertex 64.125 11.5155 16
      vertex 64.125 8.48446 16
    endloop
  endfacet
  facet normal 0 0 -1
    outer loop
      vertex 64.125 8.48446 16
      vertex 64.125 11.5155 16
      vertex 65.875 11.5155 16
    endloop
  endfacet
  facet normal 0 0 -1
    outer loop
      vertex 64.125 8.48446 16
      vertex 65.875 11.5155 16
      vertex 66.75 10 16
    endloop
  endfacet
  facet normal 0 0 -1
    outer loop
      vertex 64.125 8.48446 16
      vertex 66.75 10 16
      vertex 65.875 8.48446 16
    endloop
  endfacet
endsolid OpenSCAD_Model
