%
M48
M72
T01C0.0276
T02C0.0320
T03C0.0400
T04C0.1417
%
T01
X2100Y1100
X6600Y4100
X9600Y5100
X7600Y1100
X13600Y1100
X20100Y1100
X24600Y1100
X20100Y4100
X17600Y5100
X20600Y9100
X24600Y9100
X22100Y14100
X17600Y14100
X13600Y13100
X9600Y14100
X4600Y14100
X6100Y9100
X2100Y9100
X13600Y9100
T02
X13600Y7100
X12600Y7100
X11600Y7100
X10600Y7100
X9600Y7100
X8600Y7100
X14600Y7100
X15600Y7100
X16600Y7100
X17600Y7100
X18600Y7100
X18600Y11100
X17600Y11100
X16600Y11100
X15600Y11100
X14600Y11100
X13600Y11100
X12600Y11100
X11600Y11100
X10600Y11100
X9600Y11100
X8600Y11100
T03
X11600Y3600
X12600Y3600
X13600Y3600
X14600Y3600
X15600Y3600
X15600Y2600
X14600Y2600
X13600Y2600
X12600Y2600
X11600Y2600
T04
X2100Y5100
X2100Y13100
X24600Y13100
X24600Y5100
M30
