%
M48
M72
T01C0.0320
T02C0.0400
T03C0.1417
%
T01
X8600Y7100
X9600Y7100
X10600Y7100
X11600Y7100
X12600Y7100
X13600Y7100
X14600Y7100
X15600Y7100
X16600Y7100
X17600Y7100
X18600Y7100
X18600Y11100
X17600Y11100
X16600Y11100
X15600Y11100
X14600Y11100
X13600Y11100
X12600Y11100
X11600Y11100
X10600Y11100
X9600Y11100
X8600Y11100
T02
X11600Y3100
X12600Y3100
X13600Y3100
X14600Y3100
X15600Y3100
X15600Y2100
X14600Y2100
X13600Y2100
X12600Y2100
X11600Y2100
T03
X2100Y5100
X2100Y13100
X24600Y13100
X24600Y5100
M30
