G75*
G70*
%OFA0B0*%
%FSLAX24Y24*%
%IPPOS*%
%LPD*%
%AMOC8*
5,1,8,0,0,1.08239X$1,22.5*
%
%ADD10C,0.0520*%
%ADD11OC8,0.0740*%
%ADD12C,0.0160*%
D10*
X008600Y006840D02*
X008600Y007360D01*
X009600Y007360D02*
X009600Y006840D01*
X010600Y006840D02*
X010600Y007360D01*
X011600Y007360D02*
X011600Y006840D01*
X012600Y006840D02*
X012600Y007360D01*
X013600Y007360D02*
X013600Y006840D01*
X014600Y006840D02*
X014600Y007360D01*
X015600Y007360D02*
X015600Y006840D01*
X016600Y006840D02*
X016600Y007360D01*
X017600Y007360D02*
X017600Y006840D01*
X018600Y006840D02*
X018600Y007360D01*
X018600Y010840D02*
X018600Y011360D01*
X017600Y011360D02*
X017600Y010840D01*
X016600Y010840D02*
X016600Y011360D01*
X015600Y011360D02*
X015600Y010840D01*
X014600Y010840D02*
X014600Y011360D01*
X013600Y011360D02*
X013600Y010840D01*
X012600Y010840D02*
X012600Y011360D01*
X011600Y011360D02*
X011600Y010840D01*
X010600Y010840D02*
X010600Y011360D01*
X009600Y011360D02*
X009600Y010840D01*
X008600Y010840D02*
X008600Y011360D01*
D11*
X011600Y003100D03*
X012600Y003100D03*
X013600Y003100D03*
X014600Y003100D03*
X015600Y003100D03*
X015600Y002100D03*
X014600Y002100D03*
X013600Y002100D03*
X012600Y002100D03*
X011600Y002100D03*
D12*
X000600Y000600D02*
X026100Y000600D01*
X026100Y004386D01*
X025988Y004154D01*
X025988Y004154D01*
X025647Y003787D01*
X025647Y003787D01*
X025214Y003536D01*
X025214Y003536D01*
X024726Y003425D01*
X024726Y003425D01*
X024226Y003462D01*
X024226Y003462D01*
X023760Y003645D01*
X023760Y003645D01*
X023368Y003957D01*
X023368Y003957D01*
X023368Y003957D01*
X023086Y004371D01*
X023086Y004371D01*
X022939Y004850D01*
X022939Y005350D01*
X023086Y005829D01*
X023086Y005829D01*
X023368Y006243D01*
X023368Y006243D01*
X023368Y006243D01*
X023760Y006555D01*
X023760Y006555D01*
X024226Y006738D01*
X024226Y006738D01*
X024726Y006775D01*
X024726Y006775D01*
X025214Y006664D01*
X025214Y006664D01*
X025647Y006413D01*
X025988Y006046D01*
X025988Y006046D01*
X026100Y005814D01*
X026100Y012386D01*
X025988Y012154D01*
X025988Y012154D01*
X025647Y011787D01*
X025647Y011787D01*
X025647Y011787D01*
X025214Y011536D01*
X025214Y011536D01*
X024726Y011425D01*
X024726Y011425D01*
X024226Y011462D01*
X024226Y011462D01*
X023760Y011645D01*
X023760Y011645D01*
X023368Y011957D01*
X023368Y011957D01*
X023368Y011957D01*
X023086Y012371D01*
X023086Y012371D01*
X022939Y012850D01*
X022939Y013350D01*
X023086Y013829D01*
X023086Y013829D01*
X023368Y014243D01*
X023368Y014243D01*
X023368Y014243D01*
X023679Y014490D01*
X003015Y014490D01*
X003147Y014413D01*
X003147Y014413D01*
X003488Y014046D01*
X003488Y014046D01*
X003705Y013595D01*
X003705Y013595D01*
X003780Y013100D01*
X003705Y012605D01*
X003705Y012605D01*
X003488Y012154D01*
X003488Y012154D01*
X003147Y011787D01*
X003147Y011787D01*
X003147Y011787D01*
X002714Y011536D01*
X002714Y011536D01*
X002226Y011425D01*
X002226Y011425D01*
X001726Y011462D01*
X001726Y011462D01*
X001260Y011645D01*
X001260Y011645D01*
X000868Y011957D01*
X000868Y011957D01*
X000868Y011957D01*
X000600Y012351D01*
X000600Y005849D01*
X000868Y006243D01*
X000868Y006243D01*
X001260Y006555D01*
X001260Y006555D01*
X001726Y006738D01*
X001726Y006738D01*
X002226Y006775D01*
X002226Y006775D01*
X002714Y006664D01*
X002714Y006664D01*
X003147Y006413D01*
X003147Y006413D01*
X003488Y006046D01*
X003488Y006046D01*
X003705Y005595D01*
X003705Y005595D01*
X003780Y005100D01*
X003705Y004605D01*
X003705Y004605D01*
X003488Y004154D01*
X003488Y004154D01*
X003147Y003787D01*
X002714Y003536D01*
X002714Y003536D01*
X002226Y003425D01*
X001726Y003462D01*
X001260Y003645D01*
X001260Y003645D01*
X000868Y003957D01*
X000868Y003957D01*
X000868Y003957D01*
X000600Y004351D01*
X000600Y000600D01*
X000600Y000734D02*
X026100Y000734D01*
X026100Y000893D02*
X014226Y000893D01*
X014236Y000897D02*
X014736Y001397D01*
X014803Y001464D01*
X014840Y001552D01*
X014840Y001590D01*
X015086Y001836D01*
X015372Y001550D01*
X015580Y001550D01*
X015580Y002080D01*
X015620Y002080D01*
X015620Y002120D01*
X016150Y002120D01*
X016150Y002328D01*
X015878Y002600D01*
X016150Y002872D01*
X016150Y003080D01*
X015620Y003080D01*
X015620Y003120D01*
X016150Y003120D01*
X016150Y003328D01*
X015828Y003650D01*
X015620Y003650D01*
X015620Y003120D01*
X015580Y003120D01*
X015580Y003650D01*
X015372Y003650D01*
X015100Y003378D01*
X014828Y003650D01*
X014620Y003650D01*
X014620Y003120D01*
X014580Y003120D01*
X014580Y003650D01*
X014372Y003650D01*
X014086Y003364D01*
X013820Y003630D01*
X013380Y003630D01*
X013100Y003350D01*
X012820Y003630D01*
X012380Y003630D01*
X012100Y003350D01*
X011820Y003630D01*
X011380Y003630D01*
X011070Y003320D01*
X011070Y002880D01*
X011336Y002614D01*
X011050Y002328D01*
X011050Y002120D01*
X011580Y002120D01*
X011580Y002080D01*
X011620Y002080D01*
X011620Y001550D01*
X011828Y001550D01*
X012114Y001836D01*
X012380Y001570D01*
X012820Y001570D01*
X013086Y001836D01*
X013372Y001550D01*
X013580Y001550D01*
X013580Y002080D01*
X013620Y002080D01*
X013620Y001550D01*
X013828Y001550D01*
X014114Y001836D01*
X014306Y001645D01*
X014001Y001340D01*
X010699Y001340D01*
X009840Y002199D01*
X009840Y006486D01*
X009956Y006602D01*
X010020Y006756D01*
X010020Y007444D01*
X009956Y007598D01*
X009838Y007716D01*
X009684Y007780D01*
X009516Y007780D01*
X009362Y007716D01*
X009244Y007598D01*
X009180Y007444D01*
X009180Y007340D01*
X009020Y007340D01*
X009020Y007444D01*
X008956Y007598D01*
X008838Y007716D01*
X008684Y007780D01*
X008516Y007780D01*
X008362Y007716D01*
X008244Y007598D01*
X008180Y007444D01*
X008180Y006756D01*
X008244Y006602D01*
X008362Y006484D01*
X008516Y006420D01*
X008684Y006420D01*
X008838Y006484D01*
X008956Y006602D01*
X009020Y006756D01*
X009020Y006860D01*
X009180Y006860D01*
X009180Y006756D01*
X009244Y006602D01*
X009360Y006486D01*
X009360Y002052D01*
X009397Y001964D01*
X010397Y000964D01*
X010464Y000897D01*
X010552Y000860D01*
X014148Y000860D01*
X014236Y000897D01*
X014390Y001051D02*
X026100Y001051D01*
X026100Y001210D02*
X014549Y001210D01*
X014707Y001368D02*
X026100Y001368D01*
X026100Y001527D02*
X014829Y001527D01*
X014935Y001685D02*
X015237Y001685D01*
X015580Y001685D02*
X015620Y001685D01*
X015620Y001550D02*
X015828Y001550D01*
X016150Y001872D01*
X016150Y002080D01*
X015620Y002080D01*
X015620Y001550D01*
X015963Y001685D02*
X026100Y001685D01*
X026100Y001844D02*
X016121Y001844D01*
X016150Y002002D02*
X026100Y002002D01*
X026100Y002161D02*
X016150Y002161D01*
X016150Y002319D02*
X026100Y002319D01*
X026100Y002478D02*
X016000Y002478D01*
X015914Y002636D02*
X026100Y002636D01*
X026100Y002795D02*
X016072Y002795D01*
X016150Y002953D02*
X026100Y002953D01*
X026100Y003112D02*
X015620Y003112D01*
X015620Y003080D02*
X015620Y002120D01*
X015580Y002120D01*
X015580Y002650D01*
X015580Y003080D01*
X015620Y003080D01*
X015580Y003080D02*
X015150Y003080D01*
X014620Y003080D01*
X014620Y003120D01*
X015580Y003120D01*
X015580Y003080D01*
X015580Y003112D02*
X014620Y003112D01*
X014620Y003270D02*
X014580Y003270D01*
X014580Y003429D02*
X014620Y003429D01*
X014620Y003587D02*
X014580Y003587D01*
X014309Y003587D02*
X013863Y003587D01*
X014021Y003429D02*
X014151Y003429D01*
X014891Y003587D02*
X015309Y003587D01*
X015151Y003429D02*
X015049Y003429D01*
X015580Y003429D02*
X015620Y003429D01*
X015620Y003587D02*
X015580Y003587D01*
X015891Y003587D02*
X023908Y003587D01*
X023634Y003746D02*
X009840Y003746D01*
X009840Y003904D02*
X023435Y003904D01*
X023297Y004063D02*
X009840Y004063D01*
X009360Y004063D02*
X003404Y004063D01*
X003256Y003904D02*
X009360Y003904D01*
X009360Y003746D02*
X003076Y003746D01*
X002802Y003587D02*
X009360Y003587D01*
X009360Y003429D02*
X002242Y003429D01*
X002175Y003429D02*
X000600Y003429D01*
X000600Y003587D02*
X001408Y003587D01*
X001134Y003746D02*
X000600Y003746D01*
X000600Y003904D02*
X000935Y003904D01*
X000797Y004063D02*
X000600Y004063D01*
X000600Y004221D02*
X000689Y004221D01*
X000600Y003270D02*
X009360Y003270D01*
X009360Y003112D02*
X000600Y003112D01*
X000600Y002953D02*
X009360Y002953D01*
X009360Y002795D02*
X000600Y002795D01*
X000600Y002636D02*
X009360Y002636D01*
X009360Y002478D02*
X000600Y002478D01*
X000600Y002319D02*
X009360Y002319D01*
X009360Y002161D02*
X000600Y002161D01*
X000600Y002002D02*
X009381Y002002D01*
X009517Y001844D02*
X000600Y001844D01*
X000600Y001685D02*
X009676Y001685D01*
X009834Y001527D02*
X000600Y001527D01*
X000600Y001368D02*
X009993Y001368D01*
X010151Y001210D02*
X000600Y001210D01*
X000600Y001051D02*
X010310Y001051D01*
X010474Y000893D02*
X000600Y000893D01*
X003521Y004221D02*
X009360Y004221D01*
X009360Y004380D02*
X003597Y004380D01*
X003673Y004538D02*
X009360Y004538D01*
X009360Y004697D02*
X003719Y004697D01*
X003743Y004855D02*
X009360Y004855D01*
X009360Y005014D02*
X003767Y005014D01*
X003769Y005172D02*
X009360Y005172D01*
X009360Y005331D02*
X003745Y005331D01*
X003721Y005489D02*
X009360Y005489D01*
X009360Y005648D02*
X003680Y005648D01*
X003604Y005806D02*
X009360Y005806D01*
X009360Y005965D02*
X003528Y005965D01*
X003417Y006123D02*
X009360Y006123D01*
X009360Y006282D02*
X003270Y006282D01*
X003102Y006440D02*
X008468Y006440D01*
X008732Y006440D02*
X009360Y006440D01*
X009248Y006599D02*
X008952Y006599D01*
X009020Y006757D02*
X009180Y006757D01*
X009840Y006440D02*
X010468Y006440D01*
X010516Y006420D02*
X010684Y006420D01*
X010838Y006484D01*
X010956Y006602D01*
X011020Y006756D01*
X011020Y007444D01*
X010956Y007598D01*
X010838Y007716D01*
X010684Y007780D01*
X010516Y007780D01*
X010362Y007716D01*
X010244Y007598D01*
X010180Y007444D01*
X010180Y006756D01*
X010244Y006602D01*
X010362Y006484D01*
X010516Y006420D01*
X010732Y006440D02*
X011468Y006440D01*
X011516Y006420D02*
X011362Y006484D01*
X011244Y006602D01*
X011180Y006756D01*
X011180Y007444D01*
X011244Y007598D01*
X011362Y007716D01*
X011516Y007780D01*
X011684Y007780D01*
X011838Y007716D01*
X011956Y007598D01*
X012020Y007444D01*
X012020Y006756D01*
X011956Y006602D01*
X011838Y006484D01*
X011684Y006420D01*
X011516Y006420D01*
X011732Y006440D02*
X012468Y006440D01*
X012516Y006420D02*
X012684Y006420D01*
X012838Y006484D01*
X012956Y006602D01*
X013020Y006756D01*
X013020Y007444D01*
X012956Y007598D01*
X012838Y007716D01*
X012684Y007780D01*
X012516Y007780D01*
X012362Y007716D01*
X012244Y007598D01*
X012180Y007444D01*
X012180Y006756D01*
X012244Y006602D01*
X012362Y006484D01*
X012516Y006420D01*
X012732Y006440D02*
X013416Y006440D01*
X013431Y006432D02*
X013497Y006411D01*
X013565Y006400D01*
X013600Y006400D01*
X013635Y006400D01*
X013703Y006411D01*
X013769Y006432D01*
X013831Y006464D01*
X013887Y006504D01*
X013936Y006553D01*
X013976Y006609D01*
X014008Y006671D01*
X014029Y006737D01*
X014040Y006805D01*
X014040Y007100D01*
X014040Y007395D01*
X014029Y007463D01*
X014008Y007529D01*
X013976Y007591D01*
X013936Y007647D01*
X013887Y007696D01*
X013831Y007736D01*
X013769Y007768D01*
X013703Y007789D01*
X013635Y007800D01*
X013600Y007800D01*
X013600Y007100D01*
X014040Y007100D01*
X013600Y007100D01*
X013600Y007100D01*
X013600Y007100D01*
X013600Y006400D01*
X013600Y007100D01*
X013600Y007100D01*
X013600Y007100D01*
X013160Y007100D01*
X013160Y007395D01*
X013171Y007463D01*
X013192Y007529D01*
X013224Y007591D01*
X013264Y007647D01*
X013313Y007696D01*
X013369Y007736D01*
X013431Y007768D01*
X013497Y007789D01*
X013565Y007800D01*
X013600Y007800D01*
X013600Y007100D01*
X013160Y007100D01*
X013160Y006805D01*
X013171Y006737D01*
X013192Y006671D01*
X013224Y006609D01*
X013264Y006553D01*
X013313Y006504D01*
X013369Y006464D01*
X013431Y006432D01*
X013600Y006440D02*
X013600Y006440D01*
X013600Y006599D02*
X013600Y006599D01*
X013600Y006757D02*
X013600Y006757D01*
X013600Y006916D02*
X013600Y006916D01*
X013600Y007074D02*
X013600Y007074D01*
X013600Y007233D02*
X013600Y007233D01*
X013160Y007233D02*
X013020Y007233D01*
X013020Y007074D02*
X013160Y007074D01*
X013160Y006916D02*
X013020Y006916D01*
X013020Y006757D02*
X013168Y006757D01*
X013232Y006599D02*
X012952Y006599D01*
X012248Y006599D02*
X011952Y006599D01*
X012020Y006757D02*
X012180Y006757D01*
X012180Y006916D02*
X012020Y006916D01*
X012020Y007074D02*
X012180Y007074D01*
X012180Y007233D02*
X012020Y007233D01*
X012020Y007391D02*
X012180Y007391D01*
X012224Y007550D02*
X011976Y007550D01*
X011846Y007708D02*
X012354Y007708D01*
X012846Y007708D02*
X013330Y007708D01*
X013203Y007550D02*
X012976Y007550D01*
X013020Y007391D02*
X013160Y007391D01*
X013600Y007391D02*
X013600Y007391D01*
X013600Y007550D02*
X013600Y007550D01*
X013600Y007708D02*
X013600Y007708D01*
X013870Y007708D02*
X014330Y007708D01*
X014313Y007696D02*
X014264Y007647D01*
X014224Y007591D01*
X014192Y007529D01*
X014171Y007463D01*
X014160Y007395D01*
X014160Y007100D01*
X014600Y007100D01*
X015040Y007100D01*
X015040Y007395D01*
X015029Y007463D01*
X015008Y007529D01*
X014976Y007591D01*
X014936Y007647D01*
X014887Y007696D01*
X014831Y007736D01*
X014769Y007768D01*
X014703Y007789D01*
X014635Y007800D01*
X014600Y007800D01*
X014600Y007100D01*
X014600Y007100D01*
X014600Y007100D01*
X015040Y007100D01*
X015040Y006805D01*
X015029Y006737D01*
X015008Y006671D01*
X014976Y006609D01*
X014936Y006553D01*
X014887Y006504D01*
X014831Y006464D01*
X014769Y006432D01*
X014703Y006411D01*
X014635Y006400D01*
X014600Y006400D01*
X014600Y007100D01*
X014600Y007100D01*
X014600Y007100D01*
X014600Y007800D01*
X014565Y007800D01*
X014497Y007789D01*
X014431Y007768D01*
X014369Y007736D01*
X014313Y007696D01*
X014203Y007550D02*
X013997Y007550D01*
X014040Y007391D02*
X014160Y007391D01*
X014600Y007391D02*
X014600Y007391D01*
X014600Y007550D02*
X014600Y007550D01*
X014600Y007708D02*
X014600Y007708D01*
X014870Y007708D02*
X015330Y007708D01*
X015313Y007696D02*
X015264Y007647D01*
X015224Y007591D01*
X015192Y007529D01*
X015171Y007463D01*
X015160Y007395D01*
X015160Y007100D01*
X015600Y007100D01*
X016040Y007100D01*
X016040Y007395D01*
X016029Y007463D01*
X016008Y007529D01*
X015976Y007591D01*
X015936Y007647D01*
X015887Y007696D01*
X015831Y007736D01*
X015769Y007768D01*
X015703Y007789D01*
X015635Y007800D01*
X015600Y007800D01*
X015600Y007100D01*
X015600Y007100D01*
X015600Y007100D01*
X016040Y007100D01*
X016040Y006805D01*
X016029Y006737D01*
X016008Y006671D01*
X015976Y006609D01*
X015936Y006553D01*
X015887Y006504D01*
X015831Y006464D01*
X015769Y006432D01*
X015703Y006411D01*
X015635Y006400D01*
X015600Y006400D01*
X015600Y007100D01*
X015600Y007100D01*
X015600Y007100D01*
X015600Y007800D01*
X015565Y007800D01*
X015497Y007789D01*
X015431Y007768D01*
X015369Y007736D01*
X015313Y007696D01*
X015203Y007550D02*
X014997Y007550D01*
X015040Y007391D02*
X015160Y007391D01*
X015160Y007233D02*
X015040Y007233D01*
X015040Y007074D02*
X015160Y007074D01*
X015160Y007100D02*
X015160Y006805D01*
X015171Y006737D01*
X015192Y006671D01*
X015224Y006609D01*
X015264Y006553D01*
X015313Y006504D01*
X015369Y006464D01*
X015431Y006432D01*
X015497Y006411D01*
X015565Y006400D01*
X015600Y006400D01*
X015600Y007100D01*
X015160Y007100D01*
X015160Y006916D02*
X015040Y006916D01*
X015032Y006757D02*
X015168Y006757D01*
X015232Y006599D02*
X014968Y006599D01*
X014784Y006440D02*
X015416Y006440D01*
X015600Y006440D02*
X015600Y006440D01*
X015600Y006599D02*
X015600Y006599D01*
X015600Y006757D02*
X015600Y006757D01*
X015600Y006916D02*
X015600Y006916D01*
X015600Y007074D02*
X015600Y007074D01*
X015600Y007233D02*
X015600Y007233D01*
X015600Y007391D02*
X015600Y007391D01*
X015600Y007550D02*
X015600Y007550D01*
X015600Y007708D02*
X015600Y007708D01*
X015870Y007708D02*
X016330Y007708D01*
X016313Y007696D02*
X016264Y007647D01*
X016224Y007591D01*
X016192Y007529D01*
X016171Y007463D01*
X016160Y007395D01*
X016160Y007100D01*
X016600Y007100D01*
X017040Y007100D01*
X017040Y007395D01*
X017029Y007463D01*
X017008Y007529D01*
X016976Y007591D01*
X016936Y007647D01*
X016887Y007696D01*
X016831Y007736D01*
X016769Y007768D01*
X016703Y007789D01*
X016635Y007800D01*
X016600Y007800D01*
X016600Y007100D01*
X016600Y007100D01*
X016600Y007100D01*
X017040Y007100D01*
X017040Y006805D01*
X017029Y006737D01*
X017008Y006671D01*
X016976Y006609D01*
X016936Y006553D01*
X016887Y006504D01*
X016831Y006464D01*
X016769Y006432D01*
X016703Y006411D01*
X016635Y006400D01*
X016600Y006400D01*
X016600Y007100D01*
X016600Y007100D01*
X016600Y007100D01*
X016600Y007800D01*
X016565Y007800D01*
X016497Y007789D01*
X016431Y007768D01*
X016369Y007736D01*
X016313Y007696D01*
X016203Y007550D02*
X015997Y007550D01*
X016040Y007391D02*
X016160Y007391D01*
X016160Y007233D02*
X016040Y007233D01*
X016040Y007074D02*
X016160Y007074D01*
X016160Y007100D02*
X016160Y006805D01*
X016171Y006737D01*
X016192Y006671D01*
X016224Y006609D01*
X016264Y006553D01*
X016313Y006504D01*
X016369Y006464D01*
X016431Y006432D01*
X016497Y006411D01*
X016565Y006400D01*
X016600Y006400D01*
X016600Y007100D01*
X016160Y007100D01*
X016160Y006916D02*
X016040Y006916D01*
X016032Y006757D02*
X016168Y006757D01*
X016232Y006599D02*
X015968Y006599D01*
X015784Y006440D02*
X016416Y006440D01*
X016600Y006440D02*
X016600Y006440D01*
X016600Y006599D02*
X016600Y006599D01*
X016600Y006757D02*
X016600Y006757D01*
X016600Y006916D02*
X016600Y006916D01*
X016600Y007074D02*
X016600Y007074D01*
X016600Y007233D02*
X016600Y007233D01*
X017040Y007233D02*
X017160Y007233D01*
X017160Y007100D02*
X017600Y007100D01*
X018040Y007100D01*
X018040Y007395D01*
X018029Y007463D01*
X018008Y007529D01*
X017976Y007591D01*
X017936Y007647D01*
X017887Y007696D01*
X017831Y007736D01*
X017769Y007768D01*
X017703Y007789D01*
X017635Y007800D01*
X017600Y007800D01*
X017600Y007100D01*
X017600Y007100D01*
X017600Y007100D01*
X018040Y007100D01*
X018040Y006805D01*
X018029Y006737D01*
X018008Y006671D01*
X017976Y006609D01*
X017936Y006553D01*
X017887Y006504D01*
X017831Y006464D01*
X017769Y006432D01*
X017703Y006411D01*
X017635Y006400D01*
X017600Y006400D01*
X017600Y007100D01*
X017600Y007100D01*
X017600Y007100D01*
X017600Y007800D01*
X017565Y007800D01*
X017497Y007789D01*
X017431Y007768D01*
X017369Y007736D01*
X017313Y007696D01*
X017264Y007647D01*
X017224Y007591D01*
X017192Y007529D01*
X017171Y007463D01*
X017160Y007395D01*
X017160Y007100D01*
X017160Y006805D01*
X017171Y006737D01*
X017192Y006671D01*
X017224Y006609D01*
X017264Y006553D01*
X017313Y006504D01*
X017369Y006464D01*
X017431Y006432D01*
X017497Y006411D01*
X017565Y006400D01*
X017600Y006400D01*
X017600Y007100D01*
X017160Y007100D01*
X017160Y007074D02*
X017040Y007074D01*
X017040Y006916D02*
X017160Y006916D01*
X017168Y006757D02*
X017032Y006757D01*
X016968Y006599D02*
X017232Y006599D01*
X017416Y006440D02*
X016784Y006440D01*
X017600Y006440D02*
X017600Y006440D01*
X017600Y006599D02*
X017600Y006599D01*
X017600Y006757D02*
X017600Y006757D01*
X017600Y006916D02*
X017600Y006916D01*
X017600Y007074D02*
X017600Y007074D01*
X017600Y007233D02*
X017600Y007233D01*
X017600Y007391D02*
X017600Y007391D01*
X017600Y007550D02*
X017600Y007550D01*
X017600Y007708D02*
X017600Y007708D01*
X017330Y007708D02*
X016870Y007708D01*
X016997Y007550D02*
X017203Y007550D01*
X017160Y007391D02*
X017040Y007391D01*
X016600Y007391D02*
X016600Y007391D01*
X016600Y007550D02*
X016600Y007550D01*
X016600Y007708D02*
X016600Y007708D01*
X017870Y007708D02*
X018330Y007708D01*
X018313Y007696D02*
X018264Y007647D01*
X018224Y007591D01*
X018192Y007529D01*
X018171Y007463D01*
X018160Y007395D01*
X018160Y007100D01*
X018600Y007100D01*
X019040Y007100D01*
X019040Y007395D01*
X019029Y007463D01*
X019008Y007529D01*
X018976Y007591D01*
X018936Y007647D01*
X018887Y007696D01*
X018831Y007736D01*
X018769Y007768D01*
X018703Y007789D01*
X018635Y007800D01*
X018600Y007800D01*
X018600Y007100D01*
X018600Y007100D01*
X018600Y007100D01*
X019040Y007100D01*
X019040Y006805D01*
X019029Y006737D01*
X019008Y006671D01*
X018976Y006609D01*
X018936Y006553D01*
X018887Y006504D01*
X018831Y006464D01*
X018769Y006432D01*
X018703Y006411D01*
X018635Y006400D01*
X018600Y006400D01*
X018600Y007100D01*
X018600Y007100D01*
X018600Y007100D01*
X018600Y007800D01*
X018565Y007800D01*
X018497Y007789D01*
X018431Y007768D01*
X018369Y007736D01*
X018313Y007696D01*
X018203Y007550D02*
X017997Y007550D01*
X018040Y007391D02*
X018160Y007391D01*
X018600Y007391D02*
X018600Y007391D01*
X018600Y007550D02*
X018600Y007550D01*
X018600Y007708D02*
X018600Y007708D01*
X018870Y007708D02*
X026100Y007708D01*
X026100Y007550D02*
X018997Y007550D01*
X019040Y007391D02*
X026100Y007391D01*
X026100Y007233D02*
X019040Y007233D01*
X019040Y007074D02*
X026100Y007074D01*
X026100Y006916D02*
X019040Y006916D01*
X019032Y006757D02*
X024481Y006757D01*
X024806Y006757D02*
X026100Y006757D01*
X026100Y006599D02*
X025327Y006599D01*
X025602Y006440D02*
X026100Y006440D01*
X026100Y006282D02*
X025770Y006282D01*
X025917Y006123D02*
X026100Y006123D01*
X026100Y005965D02*
X026028Y005965D01*
X023871Y006599D02*
X018968Y006599D01*
X018784Y006440D02*
X023616Y006440D01*
X023417Y006282D02*
X009840Y006282D01*
X009840Y006123D02*
X023287Y006123D01*
X023179Y005965D02*
X009840Y005965D01*
X009840Y005806D02*
X023079Y005806D01*
X023030Y005648D02*
X009840Y005648D01*
X009840Y005489D02*
X022982Y005489D01*
X022939Y005331D02*
X009840Y005331D01*
X009840Y005172D02*
X022939Y005172D01*
X022939Y005014D02*
X009840Y005014D01*
X009840Y004855D02*
X022939Y004855D01*
X022986Y004697D02*
X009840Y004697D01*
X009840Y004538D02*
X023035Y004538D01*
X023084Y004380D02*
X009840Y004380D01*
X009840Y004221D02*
X023189Y004221D01*
X024675Y003429D02*
X016049Y003429D01*
X016150Y003270D02*
X026100Y003270D01*
X026100Y003429D02*
X024742Y003429D01*
X025302Y003587D02*
X026100Y003587D01*
X026100Y003746D02*
X025576Y003746D01*
X025756Y003904D02*
X026100Y003904D01*
X026100Y004063D02*
X025904Y004063D01*
X026021Y004221D02*
X026100Y004221D01*
X026097Y004380D02*
X026100Y004380D01*
X026100Y007867D02*
X000600Y007867D01*
X000600Y008025D02*
X026100Y008025D01*
X026100Y008184D02*
X000600Y008184D01*
X000600Y008342D02*
X026100Y008342D01*
X026100Y008501D02*
X000600Y008501D01*
X000600Y008659D02*
X026100Y008659D01*
X026100Y008818D02*
X000600Y008818D01*
X000600Y008976D02*
X026100Y008976D01*
X026100Y009135D02*
X000600Y009135D01*
X000600Y009293D02*
X026100Y009293D01*
X026100Y009452D02*
X000600Y009452D01*
X000600Y009610D02*
X026100Y009610D01*
X026100Y009769D02*
X000600Y009769D01*
X000600Y009927D02*
X026100Y009927D01*
X026100Y010086D02*
X000600Y010086D01*
X000600Y010244D02*
X026100Y010244D01*
X026100Y010403D02*
X018651Y010403D01*
X018635Y010400D02*
X018703Y010411D01*
X018769Y010432D01*
X018831Y010464D01*
X018887Y010504D01*
X018936Y010553D01*
X018976Y010609D01*
X019008Y010671D01*
X019029Y010737D01*
X019040Y010805D01*
X019040Y011100D01*
X019040Y011395D01*
X019029Y011463D01*
X019008Y011529D01*
X018976Y011591D01*
X018936Y011647D01*
X018887Y011696D01*
X018831Y011736D01*
X018769Y011768D01*
X018703Y011789D01*
X018635Y011800D01*
X018600Y011800D01*
X018600Y011100D01*
X019040Y011100D01*
X018600Y011100D01*
X018600Y011100D01*
X018600Y011100D01*
X018600Y010400D01*
X018635Y010400D01*
X018600Y010400D02*
X018600Y011100D01*
X018600Y011100D01*
X018600Y011100D01*
X018160Y011100D01*
X018160Y011395D01*
X018171Y011463D01*
X018192Y011529D01*
X018224Y011591D01*
X018264Y011647D01*
X018313Y011696D01*
X018369Y011736D01*
X018431Y011768D01*
X018497Y011789D01*
X018565Y011800D01*
X018600Y011800D01*
X018600Y011100D01*
X018160Y011100D01*
X018160Y010805D01*
X018171Y010737D01*
X018192Y010671D01*
X018224Y010609D01*
X018264Y010553D01*
X018313Y010504D01*
X018369Y010464D01*
X018431Y010432D01*
X018497Y010411D01*
X018565Y010400D01*
X018600Y010400D01*
X018600Y010403D02*
X018600Y010403D01*
X018549Y010403D02*
X017651Y010403D01*
X017635Y010400D02*
X017703Y010411D01*
X017769Y010432D01*
X017831Y010464D01*
X017887Y010504D01*
X017936Y010553D01*
X017976Y010609D01*
X018008Y010671D01*
X018029Y010737D01*
X018040Y010805D01*
X018040Y011100D01*
X018040Y011395D01*
X018029Y011463D01*
X018008Y011529D01*
X017976Y011591D01*
X017936Y011647D01*
X017887Y011696D01*
X017831Y011736D01*
X017769Y011768D01*
X017703Y011789D01*
X017635Y011800D01*
X017600Y011800D01*
X017600Y011100D01*
X018040Y011100D01*
X017600Y011100D01*
X017600Y011100D01*
X017600Y011100D01*
X017600Y010400D01*
X017635Y010400D01*
X017600Y010400D02*
X017600Y011100D01*
X017600Y011100D01*
X017600Y011100D01*
X017160Y011100D01*
X017160Y011395D01*
X017171Y011463D01*
X017192Y011529D01*
X017224Y011591D01*
X017264Y011647D01*
X017313Y011696D01*
X017369Y011736D01*
X017431Y011768D01*
X017497Y011789D01*
X017565Y011800D01*
X017600Y011800D01*
X017600Y011100D01*
X017160Y011100D01*
X017160Y010805D01*
X017171Y010737D01*
X017192Y010671D01*
X017224Y010609D01*
X017264Y010553D01*
X017313Y010504D01*
X017369Y010464D01*
X017431Y010432D01*
X017497Y010411D01*
X017565Y010400D01*
X017600Y010400D01*
X017600Y010403D02*
X017600Y010403D01*
X017549Y010403D02*
X016651Y010403D01*
X016635Y010400D02*
X016703Y010411D01*
X016769Y010432D01*
X016831Y010464D01*
X016887Y010504D01*
X016936Y010553D01*
X016976Y010609D01*
X017008Y010671D01*
X017029Y010737D01*
X017040Y010805D01*
X017040Y011100D01*
X017040Y011395D01*
X017029Y011463D01*
X017008Y011529D01*
X016976Y011591D01*
X016936Y011647D01*
X016887Y011696D01*
X016831Y011736D01*
X016769Y011768D01*
X016703Y011789D01*
X016635Y011800D01*
X016600Y011800D01*
X016600Y011100D01*
X017040Y011100D01*
X016600Y011100D01*
X016600Y011100D01*
X016600Y011100D01*
X016600Y010400D01*
X016635Y010400D01*
X016600Y010400D02*
X016600Y011100D01*
X016600Y011100D01*
X016600Y011100D01*
X016160Y011100D01*
X016160Y011395D01*
X016171Y011463D01*
X016192Y011529D01*
X016224Y011591D01*
X016264Y011647D01*
X016313Y011696D01*
X016369Y011736D01*
X016431Y011768D01*
X016497Y011789D01*
X016565Y011800D01*
X016600Y011800D01*
X016600Y011100D01*
X016160Y011100D01*
X016160Y010805D01*
X016171Y010737D01*
X016192Y010671D01*
X016224Y010609D01*
X016264Y010553D01*
X016313Y010504D01*
X016369Y010464D01*
X016431Y010432D01*
X016497Y010411D01*
X016565Y010400D01*
X016600Y010400D01*
X016600Y010403D02*
X016600Y010403D01*
X016549Y010403D02*
X015651Y010403D01*
X015635Y010400D02*
X015703Y010411D01*
X015769Y010432D01*
X015831Y010464D01*
X015887Y010504D01*
X015936Y010553D01*
X015976Y010609D01*
X016008Y010671D01*
X016029Y010737D01*
X016040Y010805D01*
X016040Y011100D01*
X016040Y011395D01*
X016029Y011463D01*
X016008Y011529D01*
X015976Y011591D01*
X015936Y011647D01*
X015887Y011696D01*
X015831Y011736D01*
X015769Y011768D01*
X015703Y011789D01*
X015635Y011800D01*
X015600Y011800D01*
X015600Y011100D01*
X016040Y011100D01*
X015600Y011100D01*
X015600Y011100D01*
X015600Y011100D01*
X015600Y010400D01*
X015635Y010400D01*
X015600Y010400D02*
X015600Y011100D01*
X015600Y011100D01*
X015600Y011100D01*
X015160Y011100D01*
X015160Y011395D01*
X015171Y011463D01*
X015192Y011529D01*
X015224Y011591D01*
X015264Y011647D01*
X015313Y011696D01*
X015369Y011736D01*
X015431Y011768D01*
X015497Y011789D01*
X015565Y011800D01*
X015600Y011800D01*
X015600Y011100D01*
X015160Y011100D01*
X015160Y010805D01*
X015171Y010737D01*
X015192Y010671D01*
X015224Y010609D01*
X015264Y010553D01*
X015313Y010504D01*
X015369Y010464D01*
X015431Y010432D01*
X015497Y010411D01*
X015565Y010400D01*
X015600Y010400D01*
X015600Y010403D02*
X015600Y010403D01*
X015549Y010403D02*
X014651Y010403D01*
X014635Y010400D02*
X014703Y010411D01*
X014769Y010432D01*
X014831Y010464D01*
X014887Y010504D01*
X014936Y010553D01*
X014976Y010609D01*
X015008Y010671D01*
X015029Y010737D01*
X015040Y010805D01*
X015040Y011100D01*
X015040Y011395D01*
X015029Y011463D01*
X015008Y011529D01*
X014976Y011591D01*
X014936Y011647D01*
X014887Y011696D01*
X014831Y011736D01*
X014769Y011768D01*
X014703Y011789D01*
X014635Y011800D01*
X014600Y011800D01*
X014600Y011100D01*
X015040Y011100D01*
X014600Y011100D01*
X014600Y011100D01*
X014600Y011100D01*
X014600Y010400D01*
X014635Y010400D01*
X014600Y010400D02*
X014600Y011100D01*
X014600Y011100D01*
X014600Y011100D01*
X014160Y011100D01*
X014160Y011395D01*
X014171Y011463D01*
X014192Y011529D01*
X014224Y011591D01*
X014264Y011647D01*
X014313Y011696D01*
X014369Y011736D01*
X014431Y011768D01*
X014497Y011789D01*
X014565Y011800D01*
X014600Y011800D01*
X014600Y011100D01*
X014160Y011100D01*
X014160Y010805D01*
X014171Y010737D01*
X014192Y010671D01*
X014224Y010609D01*
X014264Y010553D01*
X014313Y010504D01*
X014369Y010464D01*
X014431Y010432D01*
X014497Y010411D01*
X014565Y010400D01*
X014600Y010400D01*
X014600Y010403D02*
X014600Y010403D01*
X014549Y010403D02*
X013651Y010403D01*
X013635Y010400D02*
X013703Y010411D01*
X013769Y010432D01*
X013831Y010464D01*
X013887Y010504D01*
X013936Y010553D01*
X013976Y010609D01*
X014008Y010671D01*
X014029Y010737D01*
X014040Y010805D01*
X014040Y011100D01*
X014040Y011395D01*
X014029Y011463D01*
X014008Y011529D01*
X013976Y011591D01*
X013936Y011647D01*
X013887Y011696D01*
X013831Y011736D01*
X013769Y011768D01*
X013703Y011789D01*
X013635Y011800D01*
X013600Y011800D01*
X013600Y011100D01*
X014040Y011100D01*
X013600Y011100D01*
X013600Y011100D01*
X013600Y011100D01*
X013600Y010400D01*
X013635Y010400D01*
X013600Y010400D02*
X013600Y011100D01*
X013600Y011100D01*
X013600Y011100D01*
X013160Y011100D01*
X013160Y011395D01*
X013171Y011463D01*
X013192Y011529D01*
X013224Y011591D01*
X013264Y011647D01*
X013313Y011696D01*
X013369Y011736D01*
X013431Y011768D01*
X013497Y011789D01*
X013565Y011800D01*
X013600Y011800D01*
X013600Y011100D01*
X013160Y011100D01*
X013160Y010805D01*
X013171Y010737D01*
X013192Y010671D01*
X013224Y010609D01*
X013264Y010553D01*
X013313Y010504D01*
X013369Y010464D01*
X013431Y010432D01*
X013497Y010411D01*
X013565Y010400D01*
X013600Y010400D01*
X013600Y010403D02*
X013600Y010403D01*
X013549Y010403D02*
X012651Y010403D01*
X012635Y010400D02*
X012703Y010411D01*
X012769Y010432D01*
X012831Y010464D01*
X012887Y010504D01*
X012936Y010553D01*
X012976Y010609D01*
X013008Y010671D01*
X013029Y010737D01*
X013040Y010805D01*
X013040Y011100D01*
X013040Y011395D01*
X013029Y011463D01*
X013008Y011529D01*
X012976Y011591D01*
X012936Y011647D01*
X012887Y011696D01*
X012831Y011736D01*
X012769Y011768D01*
X012703Y011789D01*
X012635Y011800D01*
X012600Y011800D01*
X012600Y011100D01*
X013040Y011100D01*
X012600Y011100D01*
X012600Y011100D01*
X012600Y011100D01*
X012600Y010400D01*
X012635Y010400D01*
X012600Y010400D02*
X012600Y011100D01*
X012600Y011100D01*
X012600Y011100D01*
X012160Y011100D01*
X012160Y011395D01*
X012171Y011463D01*
X012192Y011529D01*
X012224Y011591D01*
X012264Y011647D01*
X012313Y011696D01*
X012369Y011736D01*
X012431Y011768D01*
X012497Y011789D01*
X012565Y011800D01*
X012600Y011800D01*
X012600Y011100D01*
X012160Y011100D01*
X012160Y010805D01*
X012171Y010737D01*
X012192Y010671D01*
X012224Y010609D01*
X012264Y010553D01*
X012313Y010504D01*
X012369Y010464D01*
X012431Y010432D01*
X012497Y010411D01*
X012565Y010400D01*
X012600Y010400D01*
X012600Y010403D02*
X012600Y010403D01*
X012549Y010403D02*
X011651Y010403D01*
X011635Y010400D02*
X011703Y010411D01*
X011769Y010432D01*
X011831Y010464D01*
X011887Y010504D01*
X011936Y010553D01*
X011976Y010609D01*
X012008Y010671D01*
X012029Y010737D01*
X012040Y010805D01*
X012040Y011100D01*
X012040Y011395D01*
X012029Y011463D01*
X012008Y011529D01*
X011976Y011591D01*
X011936Y011647D01*
X011887Y011696D01*
X011831Y011736D01*
X011769Y011768D01*
X011703Y011789D01*
X011635Y011800D01*
X011600Y011800D01*
X011600Y011100D01*
X012040Y011100D01*
X011600Y011100D01*
X011600Y011100D01*
X011600Y011100D01*
X011600Y010400D01*
X011635Y010400D01*
X011600Y010400D02*
X011600Y011100D01*
X011600Y011100D01*
X011600Y011100D01*
X011160Y011100D01*
X011160Y011395D01*
X011171Y011463D01*
X011192Y011529D01*
X011224Y011591D01*
X011264Y011647D01*
X011313Y011696D01*
X011369Y011736D01*
X011431Y011768D01*
X011497Y011789D01*
X011565Y011800D01*
X011600Y011800D01*
X011600Y011100D01*
X011160Y011100D01*
X011160Y010805D01*
X011171Y010737D01*
X011192Y010671D01*
X011224Y010609D01*
X011264Y010553D01*
X011313Y010504D01*
X011369Y010464D01*
X011431Y010432D01*
X011497Y010411D01*
X011565Y010400D01*
X011600Y010400D01*
X011600Y010403D02*
X011600Y010403D01*
X011549Y010403D02*
X010651Y010403D01*
X010635Y010400D02*
X010703Y010411D01*
X010769Y010432D01*
X010831Y010464D01*
X010887Y010504D01*
X010936Y010553D01*
X010976Y010609D01*
X011008Y010671D01*
X011029Y010737D01*
X011040Y010805D01*
X011040Y011100D01*
X011040Y011395D01*
X011029Y011463D01*
X011008Y011529D01*
X010976Y011591D01*
X010936Y011647D01*
X010887Y011696D01*
X010831Y011736D01*
X010769Y011768D01*
X010703Y011789D01*
X010635Y011800D01*
X010600Y011800D01*
X010600Y011100D01*
X011040Y011100D01*
X010600Y011100D01*
X010600Y011100D01*
X010600Y011100D01*
X010600Y010400D01*
X010635Y010400D01*
X010600Y010400D02*
X010600Y011100D01*
X010600Y011100D01*
X010600Y011100D01*
X010160Y011100D01*
X010160Y011395D01*
X010171Y011463D01*
X010192Y011529D01*
X010224Y011591D01*
X010264Y011647D01*
X010313Y011696D01*
X010369Y011736D01*
X010431Y011768D01*
X010497Y011789D01*
X010565Y011800D01*
X010600Y011800D01*
X010600Y011100D01*
X010160Y011100D01*
X010160Y010805D01*
X010171Y010737D01*
X010192Y010671D01*
X010224Y010609D01*
X010264Y010553D01*
X010313Y010504D01*
X010369Y010464D01*
X010431Y010432D01*
X010497Y010411D01*
X010565Y010400D01*
X010600Y010400D01*
X010600Y010403D02*
X010600Y010403D01*
X010549Y010403D02*
X008651Y010403D01*
X008635Y010400D02*
X008703Y010411D01*
X008769Y010432D01*
X008831Y010464D01*
X008887Y010504D01*
X008936Y010553D01*
X008976Y010609D01*
X009008Y010671D01*
X009029Y010737D01*
X009040Y010805D01*
X009040Y011100D01*
X009040Y011395D01*
X009029Y011463D01*
X009008Y011529D01*
X008976Y011591D01*
X008936Y011647D01*
X008887Y011696D01*
X008831Y011736D01*
X008769Y011768D01*
X008703Y011789D01*
X008635Y011800D01*
X008600Y011800D01*
X008600Y011100D01*
X009040Y011100D01*
X008600Y011100D01*
X008600Y011100D01*
X008600Y011100D01*
X008600Y010400D01*
X008635Y010400D01*
X008600Y010400D02*
X008600Y011100D01*
X008600Y011100D01*
X008600Y011100D01*
X008160Y011100D01*
X008160Y011395D01*
X008171Y011463D01*
X008192Y011529D01*
X008224Y011591D01*
X008264Y011647D01*
X008313Y011696D01*
X008369Y011736D01*
X008431Y011768D01*
X008497Y011789D01*
X008565Y011800D01*
X008600Y011800D01*
X008600Y011100D01*
X008160Y011100D01*
X008160Y010805D01*
X008171Y010737D01*
X008192Y010671D01*
X008224Y010609D01*
X008264Y010553D01*
X008313Y010504D01*
X008369Y010464D01*
X008431Y010432D01*
X008497Y010411D01*
X008565Y010400D01*
X008600Y010400D01*
X008600Y010403D02*
X008600Y010403D01*
X008549Y010403D02*
X000600Y010403D01*
X000600Y010561D02*
X008259Y010561D01*
X008177Y010720D02*
X000600Y010720D01*
X000600Y010878D02*
X008160Y010878D01*
X008160Y011037D02*
X000600Y011037D01*
X000600Y011195D02*
X008160Y011195D01*
X008160Y011354D02*
X000600Y011354D01*
X000600Y011512D02*
X001599Y011512D01*
X001228Y011671D02*
X000600Y011671D01*
X000600Y011829D02*
X001029Y011829D01*
X000848Y011988D02*
X000600Y011988D01*
X000600Y012146D02*
X000740Y012146D01*
X000632Y012305D02*
X000600Y012305D01*
X002608Y011512D02*
X008187Y011512D01*
X008288Y011671D02*
X002947Y011671D01*
X003187Y011829D02*
X023529Y011829D01*
X023348Y011988D02*
X003334Y011988D01*
X003481Y012146D02*
X023240Y012146D01*
X023132Y012305D02*
X003561Y012305D01*
X003637Y012463D02*
X023058Y012463D01*
X023009Y012622D02*
X003708Y012622D01*
X003732Y012780D02*
X022960Y012780D01*
X022939Y012939D02*
X003756Y012939D01*
X003780Y013097D02*
X022939Y013097D01*
X022939Y013256D02*
X003757Y013256D01*
X003733Y013414D02*
X022958Y013414D01*
X023007Y013573D02*
X003709Y013573D01*
X003640Y013731D02*
X023056Y013731D01*
X023128Y013890D02*
X003564Y013890D01*
X003487Y014048D02*
X023236Y014048D01*
X023344Y014207D02*
X003339Y014207D01*
X003192Y014365D02*
X023522Y014365D01*
X026061Y012305D02*
X026100Y012305D01*
X026100Y012146D02*
X025981Y012146D01*
X026100Y011988D02*
X025834Y011988D01*
X025687Y011829D02*
X026100Y011829D01*
X026100Y011671D02*
X025447Y011671D01*
X025108Y011512D02*
X026100Y011512D01*
X026100Y011354D02*
X019040Y011354D01*
X019040Y011195D02*
X026100Y011195D01*
X026100Y011037D02*
X019040Y011037D01*
X019040Y010878D02*
X026100Y010878D01*
X026100Y010720D02*
X019023Y010720D01*
X018941Y010561D02*
X026100Y010561D01*
X024099Y011512D02*
X019013Y011512D01*
X018912Y011671D02*
X023728Y011671D01*
X018600Y011671D02*
X018600Y011671D01*
X018600Y011512D02*
X018600Y011512D01*
X018600Y011354D02*
X018600Y011354D01*
X018600Y011195D02*
X018600Y011195D01*
X018600Y011037D02*
X018600Y011037D01*
X018600Y010878D02*
X018600Y010878D01*
X018600Y010720D02*
X018600Y010720D01*
X018600Y010561D02*
X018600Y010561D01*
X018259Y010561D02*
X017941Y010561D01*
X018023Y010720D02*
X018177Y010720D01*
X018160Y010878D02*
X018040Y010878D01*
X018040Y011037D02*
X018160Y011037D01*
X018160Y011195D02*
X018040Y011195D01*
X018040Y011354D02*
X018160Y011354D01*
X018187Y011512D02*
X018013Y011512D01*
X017912Y011671D02*
X018288Y011671D01*
X017600Y011671D02*
X017600Y011671D01*
X017600Y011512D02*
X017600Y011512D01*
X017600Y011354D02*
X017600Y011354D01*
X017600Y011195D02*
X017600Y011195D01*
X017600Y011037D02*
X017600Y011037D01*
X017600Y010878D02*
X017600Y010878D01*
X017600Y010720D02*
X017600Y010720D01*
X017600Y010561D02*
X017600Y010561D01*
X017259Y010561D02*
X016941Y010561D01*
X017023Y010720D02*
X017177Y010720D01*
X017160Y010878D02*
X017040Y010878D01*
X017040Y011037D02*
X017160Y011037D01*
X017160Y011195D02*
X017040Y011195D01*
X017040Y011354D02*
X017160Y011354D01*
X017187Y011512D02*
X017013Y011512D01*
X016912Y011671D02*
X017288Y011671D01*
X016600Y011671D02*
X016600Y011671D01*
X016600Y011512D02*
X016600Y011512D01*
X016600Y011354D02*
X016600Y011354D01*
X016600Y011195D02*
X016600Y011195D01*
X016600Y011037D02*
X016600Y011037D01*
X016600Y010878D02*
X016600Y010878D01*
X016600Y010720D02*
X016600Y010720D01*
X016600Y010561D02*
X016600Y010561D01*
X016259Y010561D02*
X015941Y010561D01*
X016023Y010720D02*
X016177Y010720D01*
X016160Y010878D02*
X016040Y010878D01*
X016040Y011037D02*
X016160Y011037D01*
X016160Y011195D02*
X016040Y011195D01*
X016040Y011354D02*
X016160Y011354D01*
X016187Y011512D02*
X016013Y011512D01*
X015912Y011671D02*
X016288Y011671D01*
X015600Y011671D02*
X015600Y011671D01*
X015600Y011512D02*
X015600Y011512D01*
X015600Y011354D02*
X015600Y011354D01*
X015600Y011195D02*
X015600Y011195D01*
X015600Y011037D02*
X015600Y011037D01*
X015600Y010878D02*
X015600Y010878D01*
X015600Y010720D02*
X015600Y010720D01*
X015600Y010561D02*
X015600Y010561D01*
X015259Y010561D02*
X014941Y010561D01*
X015023Y010720D02*
X015177Y010720D01*
X015160Y010878D02*
X015040Y010878D01*
X015040Y011037D02*
X015160Y011037D01*
X015160Y011195D02*
X015040Y011195D01*
X015040Y011354D02*
X015160Y011354D01*
X015187Y011512D02*
X015013Y011512D01*
X014912Y011671D02*
X015288Y011671D01*
X014600Y011671D02*
X014600Y011671D01*
X014600Y011512D02*
X014600Y011512D01*
X014600Y011354D02*
X014600Y011354D01*
X014600Y011195D02*
X014600Y011195D01*
X014600Y011037D02*
X014600Y011037D01*
X014600Y010878D02*
X014600Y010878D01*
X014600Y010720D02*
X014600Y010720D01*
X014600Y010561D02*
X014600Y010561D01*
X014259Y010561D02*
X013941Y010561D01*
X014023Y010720D02*
X014177Y010720D01*
X014160Y010878D02*
X014040Y010878D01*
X014040Y011037D02*
X014160Y011037D01*
X014160Y011195D02*
X014040Y011195D01*
X014040Y011354D02*
X014160Y011354D01*
X014187Y011512D02*
X014013Y011512D01*
X013912Y011671D02*
X014288Y011671D01*
X013600Y011671D02*
X013600Y011671D01*
X013600Y011512D02*
X013600Y011512D01*
X013600Y011354D02*
X013600Y011354D01*
X013600Y011195D02*
X013600Y011195D01*
X013600Y011037D02*
X013600Y011037D01*
X013600Y010878D02*
X013600Y010878D01*
X013600Y010720D02*
X013600Y010720D01*
X013600Y010561D02*
X013600Y010561D01*
X013259Y010561D02*
X012941Y010561D01*
X013023Y010720D02*
X013177Y010720D01*
X013160Y010878D02*
X013040Y010878D01*
X013040Y011037D02*
X013160Y011037D01*
X013160Y011195D02*
X013040Y011195D01*
X013040Y011354D02*
X013160Y011354D01*
X013187Y011512D02*
X013013Y011512D01*
X012912Y011671D02*
X013288Y011671D01*
X012600Y011671D02*
X012600Y011671D01*
X012600Y011512D02*
X012600Y011512D01*
X012600Y011354D02*
X012600Y011354D01*
X012600Y011195D02*
X012600Y011195D01*
X012600Y011037D02*
X012600Y011037D01*
X012600Y010878D02*
X012600Y010878D01*
X012600Y010720D02*
X012600Y010720D01*
X012600Y010561D02*
X012600Y010561D01*
X012259Y010561D02*
X011941Y010561D01*
X012023Y010720D02*
X012177Y010720D01*
X012160Y010878D02*
X012040Y010878D01*
X012040Y011037D02*
X012160Y011037D01*
X012160Y011195D02*
X012040Y011195D01*
X012040Y011354D02*
X012160Y011354D01*
X012187Y011512D02*
X012013Y011512D01*
X011912Y011671D02*
X012288Y011671D01*
X011600Y011671D02*
X011600Y011671D01*
X011600Y011512D02*
X011600Y011512D01*
X011600Y011354D02*
X011600Y011354D01*
X011600Y011195D02*
X011600Y011195D01*
X011600Y011037D02*
X011600Y011037D01*
X011600Y010878D02*
X011600Y010878D01*
X011600Y010720D02*
X011600Y010720D01*
X011600Y010561D02*
X011600Y010561D01*
X011259Y010561D02*
X010941Y010561D01*
X011023Y010720D02*
X011177Y010720D01*
X011160Y010878D02*
X011040Y010878D01*
X011040Y011037D02*
X011160Y011037D01*
X011160Y011195D02*
X011040Y011195D01*
X011040Y011354D02*
X011160Y011354D01*
X011187Y011512D02*
X011013Y011512D01*
X010912Y011671D02*
X011288Y011671D01*
X010600Y011671D02*
X010600Y011671D01*
X010600Y011512D02*
X010600Y011512D01*
X010600Y011354D02*
X010600Y011354D01*
X010600Y011195D02*
X010600Y011195D01*
X010600Y011037D02*
X010600Y011037D01*
X010600Y010878D02*
X010600Y010878D01*
X010600Y010720D02*
X010600Y010720D01*
X010600Y010561D02*
X010600Y010561D01*
X010259Y010561D02*
X009915Y010561D01*
X009956Y010602D02*
X010020Y010756D01*
X010020Y011444D01*
X009956Y011598D01*
X009838Y011716D01*
X009684Y011780D01*
X009516Y011780D01*
X009362Y011716D01*
X009244Y011598D01*
X009180Y011444D01*
X009180Y010756D01*
X009244Y010602D01*
X009362Y010484D01*
X009516Y010420D01*
X009684Y010420D01*
X009838Y010484D01*
X009956Y010602D01*
X010005Y010720D02*
X010177Y010720D01*
X010160Y010878D02*
X010020Y010878D01*
X010020Y011037D02*
X010160Y011037D01*
X010160Y011195D02*
X010020Y011195D01*
X010020Y011354D02*
X010160Y011354D01*
X010187Y011512D02*
X009992Y011512D01*
X009883Y011671D02*
X010288Y011671D01*
X009317Y011671D02*
X008912Y011671D01*
X009013Y011512D02*
X009208Y011512D01*
X009180Y011354D02*
X009040Y011354D01*
X009040Y011195D02*
X009180Y011195D01*
X009180Y011037D02*
X009040Y011037D01*
X009040Y010878D02*
X009180Y010878D01*
X009195Y010720D02*
X009023Y010720D01*
X008941Y010561D02*
X009285Y010561D01*
X008600Y010561D02*
X008600Y010561D01*
X008600Y010720D02*
X008600Y010720D01*
X008600Y010878D02*
X008600Y010878D01*
X008600Y011037D02*
X008600Y011037D01*
X008600Y011195D02*
X008600Y011195D01*
X008600Y011354D02*
X008600Y011354D01*
X008600Y011512D02*
X008600Y011512D01*
X008600Y011671D02*
X008600Y011671D01*
X008354Y007708D02*
X000600Y007708D01*
X000600Y007550D02*
X008224Y007550D01*
X008180Y007391D02*
X000600Y007391D01*
X000600Y007233D02*
X008180Y007233D01*
X008180Y007074D02*
X000600Y007074D01*
X000600Y006916D02*
X008180Y006916D01*
X008180Y006757D02*
X002306Y006757D01*
X001981Y006757D02*
X000600Y006757D01*
X000600Y006599D02*
X001371Y006599D01*
X001116Y006440D02*
X000600Y006440D01*
X000600Y006282D02*
X000917Y006282D01*
X000787Y006123D02*
X000600Y006123D01*
X000600Y005965D02*
X000679Y005965D01*
X002827Y006599D02*
X008248Y006599D01*
X008600Y007100D02*
X009600Y007100D01*
X009600Y002100D01*
X010600Y001100D01*
X014100Y001100D01*
X014600Y001600D01*
X014600Y002100D01*
X014265Y001685D02*
X013963Y001685D01*
X014187Y001527D02*
X010513Y001527D01*
X010354Y001685D02*
X011237Y001685D01*
X011372Y001550D02*
X011050Y001872D01*
X011050Y002080D01*
X011580Y002080D01*
X011580Y001550D01*
X011372Y001550D01*
X011580Y001685D02*
X011620Y001685D01*
X011620Y001844D02*
X011580Y001844D01*
X011580Y002002D02*
X011620Y002002D01*
X011963Y001685D02*
X012265Y001685D01*
X012935Y001685D02*
X013237Y001685D01*
X013580Y001685D02*
X013620Y001685D01*
X013620Y001844D02*
X013580Y001844D01*
X013580Y002002D02*
X013620Y002002D01*
X014029Y001368D02*
X010671Y001368D01*
X011079Y001844D02*
X010196Y001844D01*
X010037Y002002D02*
X011050Y002002D01*
X011050Y002161D02*
X009879Y002161D01*
X009840Y002319D02*
X011050Y002319D01*
X011200Y002478D02*
X009840Y002478D01*
X009840Y002636D02*
X011314Y002636D01*
X011156Y002795D02*
X009840Y002795D01*
X009840Y002953D02*
X011070Y002953D01*
X011070Y003112D02*
X009840Y003112D01*
X009840Y003270D02*
X011070Y003270D01*
X011179Y003429D02*
X009840Y003429D01*
X009840Y003587D02*
X011337Y003587D01*
X011863Y003587D02*
X012337Y003587D01*
X012179Y003429D02*
X012021Y003429D01*
X012863Y003587D02*
X013337Y003587D01*
X013179Y003429D02*
X013021Y003429D01*
X015580Y003270D02*
X015620Y003270D01*
X015620Y002953D02*
X015580Y002953D01*
X015580Y002795D02*
X015620Y002795D01*
X015620Y002636D02*
X015580Y002636D01*
X015580Y002478D02*
X015620Y002478D01*
X015620Y002319D02*
X015580Y002319D01*
X015580Y002161D02*
X015620Y002161D01*
X015620Y002002D02*
X015580Y002002D01*
X015580Y001844D02*
X015620Y001844D01*
X014600Y006400D02*
X014600Y007100D01*
X014160Y007100D01*
X014160Y006805D01*
X014171Y006737D01*
X014192Y006671D01*
X014224Y006609D01*
X014264Y006553D01*
X014313Y006504D01*
X014369Y006464D01*
X014431Y006432D01*
X014497Y006411D01*
X014565Y006400D01*
X014600Y006400D01*
X014600Y006440D02*
X014600Y006440D01*
X014600Y006599D02*
X014600Y006599D01*
X014600Y006757D02*
X014600Y006757D01*
X014600Y006916D02*
X014600Y006916D01*
X014600Y007074D02*
X014600Y007074D01*
X014600Y007233D02*
X014600Y007233D01*
X014160Y007233D02*
X014040Y007233D01*
X014040Y007074D02*
X014160Y007074D01*
X014160Y006916D02*
X014040Y006916D01*
X014032Y006757D02*
X014168Y006757D01*
X014232Y006599D02*
X013968Y006599D01*
X013784Y006440D02*
X014416Y006440D01*
X011248Y006599D02*
X010952Y006599D01*
X011020Y006757D02*
X011180Y006757D01*
X011180Y006916D02*
X011020Y006916D01*
X011020Y007074D02*
X011180Y007074D01*
X011180Y007233D02*
X011020Y007233D01*
X011020Y007391D02*
X011180Y007391D01*
X011224Y007550D02*
X010976Y007550D01*
X010846Y007708D02*
X011354Y007708D01*
X010354Y007708D02*
X009846Y007708D01*
X009976Y007550D02*
X010224Y007550D01*
X010180Y007391D02*
X010020Y007391D01*
X010020Y007233D02*
X010180Y007233D01*
X010180Y007074D02*
X010020Y007074D01*
X010020Y006916D02*
X010180Y006916D01*
X010180Y006757D02*
X010020Y006757D01*
X009952Y006599D02*
X010248Y006599D01*
X009180Y007391D02*
X009020Y007391D01*
X008976Y007550D02*
X009224Y007550D01*
X009354Y007708D02*
X008846Y007708D01*
X017784Y006440D02*
X018416Y006440D01*
X018431Y006432D02*
X018369Y006464D01*
X018313Y006504D01*
X018264Y006553D01*
X018224Y006609D01*
X018192Y006671D01*
X018171Y006737D01*
X018160Y006805D01*
X018160Y007100D01*
X018600Y007100D01*
X018600Y006400D01*
X018565Y006400D01*
X018497Y006411D01*
X018431Y006432D01*
X018600Y006440D02*
X018600Y006440D01*
X018600Y006599D02*
X018600Y006599D01*
X018600Y006757D02*
X018600Y006757D01*
X018600Y006916D02*
X018600Y006916D01*
X018600Y007074D02*
X018600Y007074D01*
X018600Y007233D02*
X018600Y007233D01*
X018160Y007233D02*
X018040Y007233D01*
X018040Y007074D02*
X018160Y007074D01*
X018160Y006916D02*
X018040Y006916D01*
X018032Y006757D02*
X018168Y006757D01*
X018232Y006599D02*
X017968Y006599D01*
M02*
