G75*
G70*
%OFA0B0*%
%FSLAX24Y24*%
%IPPOS*%
%LPD*%
%AMOC8*
5,1,8,0,0,1.08239X$1,22.5*
%
%ADD10C,0.0060*%
%ADD11C,0.0160*%
%ADD12C,0.0080*%
%ADD13C,0.0059*%
D10*
X000750Y005100D02*
X000752Y005173D01*
X000758Y005246D01*
X000768Y005318D01*
X000782Y005390D01*
X000799Y005461D01*
X000821Y005531D01*
X000846Y005600D01*
X000875Y005667D01*
X000907Y005732D01*
X000943Y005796D01*
X000983Y005858D01*
X001025Y005917D01*
X001071Y005974D01*
X001120Y006028D01*
X001172Y006080D01*
X001226Y006129D01*
X001283Y006175D01*
X001342Y006217D01*
X001404Y006257D01*
X001468Y006293D01*
X001533Y006325D01*
X001600Y006354D01*
X001669Y006379D01*
X001739Y006401D01*
X001810Y006418D01*
X001882Y006432D01*
X001954Y006442D01*
X002027Y006448D01*
X002100Y006450D01*
X002173Y006448D01*
X002246Y006442D01*
X002318Y006432D01*
X002390Y006418D01*
X002461Y006401D01*
X002531Y006379D01*
X002600Y006354D01*
X002667Y006325D01*
X002732Y006293D01*
X002796Y006257D01*
X002858Y006217D01*
X002917Y006175D01*
X002974Y006129D01*
X003028Y006080D01*
X003080Y006028D01*
X003129Y005974D01*
X003175Y005917D01*
X003217Y005858D01*
X003257Y005796D01*
X003293Y005732D01*
X003325Y005667D01*
X003354Y005600D01*
X003379Y005531D01*
X003401Y005461D01*
X003418Y005390D01*
X003432Y005318D01*
X003442Y005246D01*
X003448Y005173D01*
X003450Y005100D01*
X003448Y005027D01*
X003442Y004954D01*
X003432Y004882D01*
X003418Y004810D01*
X003401Y004739D01*
X003379Y004669D01*
X003354Y004600D01*
X003325Y004533D01*
X003293Y004468D01*
X003257Y004404D01*
X003217Y004342D01*
X003175Y004283D01*
X003129Y004226D01*
X003080Y004172D01*
X003028Y004120D01*
X002974Y004071D01*
X002917Y004025D01*
X002858Y003983D01*
X002796Y003943D01*
X002732Y003907D01*
X002667Y003875D01*
X002600Y003846D01*
X002531Y003821D01*
X002461Y003799D01*
X002390Y003782D01*
X002318Y003768D01*
X002246Y003758D01*
X002173Y003752D01*
X002100Y003750D01*
X002027Y003752D01*
X001954Y003758D01*
X001882Y003768D01*
X001810Y003782D01*
X001739Y003799D01*
X001669Y003821D01*
X001600Y003846D01*
X001533Y003875D01*
X001468Y003907D01*
X001404Y003943D01*
X001342Y003983D01*
X001283Y004025D01*
X001226Y004071D01*
X001172Y004120D01*
X001120Y004172D01*
X001071Y004226D01*
X001025Y004283D01*
X000983Y004342D01*
X000943Y004404D01*
X000907Y004468D01*
X000875Y004533D01*
X000846Y004600D01*
X000821Y004669D01*
X000799Y004739D01*
X000782Y004810D01*
X000768Y004882D01*
X000758Y004954D01*
X000752Y005027D01*
X000750Y005100D01*
X007630Y008771D02*
X008057Y008771D01*
X008000Y008850D02*
X008000Y007500D01*
X019200Y007500D01*
X019200Y010700D01*
X008000Y010700D01*
X008000Y009350D01*
X008030Y009348D01*
X008060Y009343D01*
X008089Y009334D01*
X008116Y009321D01*
X008142Y009306D01*
X008166Y009287D01*
X008187Y009266D01*
X008206Y009242D01*
X008221Y009216D01*
X008234Y009189D01*
X008243Y009160D01*
X008248Y009130D01*
X008250Y009100D01*
X008248Y009070D01*
X008243Y009040D01*
X008234Y009011D01*
X008221Y008984D01*
X008206Y008958D01*
X008187Y008934D01*
X008166Y008913D01*
X008142Y008894D01*
X008116Y008879D01*
X008089Y008866D01*
X008060Y008857D01*
X008030Y008852D01*
X008000Y008850D01*
X007844Y008771D02*
X007844Y008130D01*
X008275Y008237D02*
X008381Y008130D01*
X008595Y008130D01*
X008702Y008237D01*
X008702Y008450D01*
X008595Y008557D01*
X008381Y008557D01*
X008275Y008450D01*
X008275Y008237D01*
X008919Y008130D02*
X009239Y008130D01*
X009346Y008237D01*
X009239Y008344D01*
X009026Y008344D01*
X008919Y008450D01*
X009026Y008557D01*
X009346Y008557D01*
X009564Y008450D02*
X009670Y008557D01*
X009884Y008557D01*
X009991Y008450D01*
X009991Y008130D01*
X010208Y008130D02*
X010422Y008130D01*
X010315Y008130D02*
X010315Y008557D01*
X010208Y008557D01*
X010638Y008557D02*
X010958Y008557D01*
X011065Y008450D01*
X011065Y008237D01*
X010958Y008130D01*
X010638Y008130D01*
X010638Y008771D01*
X010315Y008771D02*
X010315Y008877D01*
X009564Y008771D02*
X009564Y008130D01*
X011282Y008237D02*
X011389Y008130D01*
X011709Y008130D01*
X011709Y008450D01*
X011603Y008557D01*
X011389Y008557D01*
X011389Y008344D02*
X011709Y008344D01*
X011389Y008344D02*
X011282Y008237D01*
X012572Y008771D02*
X012999Y008771D01*
X012785Y008771D02*
X012785Y008130D01*
X013216Y008237D02*
X013323Y008130D01*
X013536Y008130D01*
X013643Y008237D01*
X013861Y008130D02*
X014181Y008130D01*
X014288Y008237D01*
X014288Y008664D01*
X014181Y008771D01*
X013861Y008771D01*
X013861Y008130D01*
X013216Y008237D02*
X013216Y008664D01*
X013323Y008771D01*
X013536Y008771D01*
X013643Y008664D01*
X014505Y008557D02*
X014719Y008771D01*
X014719Y008130D01*
X014932Y008130D02*
X014505Y008130D01*
X015150Y008237D02*
X015257Y008130D01*
X015470Y008130D01*
X015577Y008237D01*
X015577Y008344D01*
X015470Y008450D01*
X015363Y008450D01*
X015470Y008450D02*
X015577Y008557D01*
X015577Y008664D01*
X015470Y008771D01*
X015257Y008771D01*
X015150Y008664D01*
X015794Y008664D02*
X015794Y008237D01*
X016221Y008664D01*
X016221Y008237D01*
X016115Y008130D01*
X015901Y008130D01*
X015794Y008237D01*
X016439Y008450D02*
X016866Y008450D01*
X016759Y008130D02*
X016759Y008771D01*
X016439Y008450D01*
X016221Y008664D02*
X016115Y008771D01*
X015901Y008771D01*
X015794Y008664D01*
X017083Y008771D02*
X017083Y008130D01*
X017404Y008130D01*
X017510Y008237D01*
X017510Y008664D01*
X017404Y008771D01*
X017083Y008771D01*
X017728Y008664D02*
X017728Y008237D01*
X017835Y008130D01*
X018048Y008130D01*
X018155Y008237D01*
X018155Y008450D01*
X017941Y008450D01*
X017728Y008664D02*
X017835Y008771D01*
X018048Y008771D01*
X018155Y008664D01*
X018372Y008130D02*
X018800Y008771D01*
X019017Y008557D02*
X019231Y008771D01*
X019444Y008557D01*
X019444Y008130D01*
X019662Y008130D02*
X019662Y008771D01*
X019982Y008771D01*
X020089Y008664D01*
X020089Y008450D01*
X019982Y008344D01*
X019662Y008344D01*
X019444Y008450D02*
X019017Y008450D01*
X019017Y008557D02*
X019017Y008130D01*
X023250Y005100D02*
X023252Y005173D01*
X023258Y005246D01*
X023268Y005318D01*
X023282Y005390D01*
X023299Y005461D01*
X023321Y005531D01*
X023346Y005600D01*
X023375Y005667D01*
X023407Y005732D01*
X023443Y005796D01*
X023483Y005858D01*
X023525Y005917D01*
X023571Y005974D01*
X023620Y006028D01*
X023672Y006080D01*
X023726Y006129D01*
X023783Y006175D01*
X023842Y006217D01*
X023904Y006257D01*
X023968Y006293D01*
X024033Y006325D01*
X024100Y006354D01*
X024169Y006379D01*
X024239Y006401D01*
X024310Y006418D01*
X024382Y006432D01*
X024454Y006442D01*
X024527Y006448D01*
X024600Y006450D01*
X024673Y006448D01*
X024746Y006442D01*
X024818Y006432D01*
X024890Y006418D01*
X024961Y006401D01*
X025031Y006379D01*
X025100Y006354D01*
X025167Y006325D01*
X025232Y006293D01*
X025296Y006257D01*
X025358Y006217D01*
X025417Y006175D01*
X025474Y006129D01*
X025528Y006080D01*
X025580Y006028D01*
X025629Y005974D01*
X025675Y005917D01*
X025717Y005858D01*
X025757Y005796D01*
X025793Y005732D01*
X025825Y005667D01*
X025854Y005600D01*
X025879Y005531D01*
X025901Y005461D01*
X025918Y005390D01*
X025932Y005318D01*
X025942Y005246D01*
X025948Y005173D01*
X025950Y005100D01*
X025948Y005027D01*
X025942Y004954D01*
X025932Y004882D01*
X025918Y004810D01*
X025901Y004739D01*
X025879Y004669D01*
X025854Y004600D01*
X025825Y004533D01*
X025793Y004468D01*
X025757Y004404D01*
X025717Y004342D01*
X025675Y004283D01*
X025629Y004226D01*
X025580Y004172D01*
X025528Y004120D01*
X025474Y004071D01*
X025417Y004025D01*
X025358Y003983D01*
X025296Y003943D01*
X025232Y003907D01*
X025167Y003875D01*
X025100Y003846D01*
X025031Y003821D01*
X024961Y003799D01*
X024890Y003782D01*
X024818Y003768D01*
X024746Y003758D01*
X024673Y003752D01*
X024600Y003750D01*
X024527Y003752D01*
X024454Y003758D01*
X024382Y003768D01*
X024310Y003782D01*
X024239Y003799D01*
X024169Y003821D01*
X024100Y003846D01*
X024033Y003875D01*
X023968Y003907D01*
X023904Y003943D01*
X023842Y003983D01*
X023783Y004025D01*
X023726Y004071D01*
X023672Y004120D01*
X023620Y004172D01*
X023571Y004226D01*
X023525Y004283D01*
X023483Y004342D01*
X023443Y004404D01*
X023407Y004468D01*
X023375Y004533D01*
X023346Y004600D01*
X023321Y004669D01*
X023299Y004739D01*
X023282Y004810D01*
X023268Y004882D01*
X023258Y004954D01*
X023252Y005027D01*
X023250Y005100D01*
X023250Y013100D02*
X023252Y013173D01*
X023258Y013246D01*
X023268Y013318D01*
X023282Y013390D01*
X023299Y013461D01*
X023321Y013531D01*
X023346Y013600D01*
X023375Y013667D01*
X023407Y013732D01*
X023443Y013796D01*
X023483Y013858D01*
X023525Y013917D01*
X023571Y013974D01*
X023620Y014028D01*
X023672Y014080D01*
X023726Y014129D01*
X023783Y014175D01*
X023842Y014217D01*
X023904Y014257D01*
X023968Y014293D01*
X024033Y014325D01*
X024100Y014354D01*
X024169Y014379D01*
X024239Y014401D01*
X024310Y014418D01*
X024382Y014432D01*
X024454Y014442D01*
X024527Y014448D01*
X024600Y014450D01*
X024673Y014448D01*
X024746Y014442D01*
X024818Y014432D01*
X024890Y014418D01*
X024961Y014401D01*
X025031Y014379D01*
X025100Y014354D01*
X025167Y014325D01*
X025232Y014293D01*
X025296Y014257D01*
X025358Y014217D01*
X025417Y014175D01*
X025474Y014129D01*
X025528Y014080D01*
X025580Y014028D01*
X025629Y013974D01*
X025675Y013917D01*
X025717Y013858D01*
X025757Y013796D01*
X025793Y013732D01*
X025825Y013667D01*
X025854Y013600D01*
X025879Y013531D01*
X025901Y013461D01*
X025918Y013390D01*
X025932Y013318D01*
X025942Y013246D01*
X025948Y013173D01*
X025950Y013100D01*
X025948Y013027D01*
X025942Y012954D01*
X025932Y012882D01*
X025918Y012810D01*
X025901Y012739D01*
X025879Y012669D01*
X025854Y012600D01*
X025825Y012533D01*
X025793Y012468D01*
X025757Y012404D01*
X025717Y012342D01*
X025675Y012283D01*
X025629Y012226D01*
X025580Y012172D01*
X025528Y012120D01*
X025474Y012071D01*
X025417Y012025D01*
X025358Y011983D01*
X025296Y011943D01*
X025232Y011907D01*
X025167Y011875D01*
X025100Y011846D01*
X025031Y011821D01*
X024961Y011799D01*
X024890Y011782D01*
X024818Y011768D01*
X024746Y011758D01*
X024673Y011752D01*
X024600Y011750D01*
X024527Y011752D01*
X024454Y011758D01*
X024382Y011768D01*
X024310Y011782D01*
X024239Y011799D01*
X024169Y011821D01*
X024100Y011846D01*
X024033Y011875D01*
X023968Y011907D01*
X023904Y011943D01*
X023842Y011983D01*
X023783Y012025D01*
X023726Y012071D01*
X023672Y012120D01*
X023620Y012172D01*
X023571Y012226D01*
X023525Y012283D01*
X023483Y012342D01*
X023443Y012404D01*
X023407Y012468D01*
X023375Y012533D01*
X023346Y012600D01*
X023321Y012669D01*
X023299Y012739D01*
X023282Y012810D01*
X023268Y012882D01*
X023258Y012954D01*
X023252Y013027D01*
X023250Y013100D01*
X000750Y013100D02*
X000752Y013173D01*
X000758Y013246D01*
X000768Y013318D01*
X000782Y013390D01*
X000799Y013461D01*
X000821Y013531D01*
X000846Y013600D01*
X000875Y013667D01*
X000907Y013732D01*
X000943Y013796D01*
X000983Y013858D01*
X001025Y013917D01*
X001071Y013974D01*
X001120Y014028D01*
X001172Y014080D01*
X001226Y014129D01*
X001283Y014175D01*
X001342Y014217D01*
X001404Y014257D01*
X001468Y014293D01*
X001533Y014325D01*
X001600Y014354D01*
X001669Y014379D01*
X001739Y014401D01*
X001810Y014418D01*
X001882Y014432D01*
X001954Y014442D01*
X002027Y014448D01*
X002100Y014450D01*
X002173Y014448D01*
X002246Y014442D01*
X002318Y014432D01*
X002390Y014418D01*
X002461Y014401D01*
X002531Y014379D01*
X002600Y014354D01*
X002667Y014325D01*
X002732Y014293D01*
X002796Y014257D01*
X002858Y014217D01*
X002917Y014175D01*
X002974Y014129D01*
X003028Y014080D01*
X003080Y014028D01*
X003129Y013974D01*
X003175Y013917D01*
X003217Y013858D01*
X003257Y013796D01*
X003293Y013732D01*
X003325Y013667D01*
X003354Y013600D01*
X003379Y013531D01*
X003401Y013461D01*
X003418Y013390D01*
X003432Y013318D01*
X003442Y013246D01*
X003448Y013173D01*
X003450Y013100D01*
X003448Y013027D01*
X003442Y012954D01*
X003432Y012882D01*
X003418Y012810D01*
X003401Y012739D01*
X003379Y012669D01*
X003354Y012600D01*
X003325Y012533D01*
X003293Y012468D01*
X003257Y012404D01*
X003217Y012342D01*
X003175Y012283D01*
X003129Y012226D01*
X003080Y012172D01*
X003028Y012120D01*
X002974Y012071D01*
X002917Y012025D01*
X002858Y011983D01*
X002796Y011943D01*
X002732Y011907D01*
X002667Y011875D01*
X002600Y011846D01*
X002531Y011821D01*
X002461Y011799D01*
X002390Y011782D01*
X002318Y011768D01*
X002246Y011758D01*
X002173Y011752D01*
X002100Y011750D01*
X002027Y011752D01*
X001954Y011758D01*
X001882Y011768D01*
X001810Y011782D01*
X001739Y011799D01*
X001669Y011821D01*
X001600Y011846D01*
X001533Y011875D01*
X001468Y011907D01*
X001404Y011943D01*
X001342Y011983D01*
X001283Y012025D01*
X001226Y012071D01*
X001172Y012120D01*
X001120Y012172D01*
X001071Y012226D01*
X001025Y012283D01*
X000983Y012342D01*
X000943Y012404D01*
X000907Y012468D01*
X000875Y012533D01*
X000846Y012600D01*
X000821Y012669D01*
X000799Y012739D01*
X000782Y012810D01*
X000768Y012882D01*
X000758Y012954D01*
X000752Y013027D01*
X000750Y013100D01*
D11*
X005100Y011100D02*
X005100Y007100D01*
X021600Y007100D01*
X021600Y011100D01*
X005100Y011100D01*
D12*
X001352Y013100D02*
X001354Y013155D01*
X001360Y013209D01*
X001370Y013263D01*
X001384Y013315D01*
X001401Y013367D01*
X001423Y013417D01*
X001448Y013466D01*
X001476Y013513D01*
X001508Y013557D01*
X001543Y013599D01*
X001581Y013638D01*
X001622Y013675D01*
X001665Y013708D01*
X001710Y013738D01*
X001758Y013765D01*
X001807Y013788D01*
X001858Y013808D01*
X001911Y013824D01*
X001964Y013836D01*
X002018Y013844D01*
X002073Y013848D01*
X002127Y013848D01*
X002182Y013844D01*
X002236Y013836D01*
X002289Y013824D01*
X002342Y013808D01*
X002393Y013788D01*
X002442Y013765D01*
X002490Y013738D01*
X002535Y013708D01*
X002578Y013675D01*
X002619Y013638D01*
X002657Y013599D01*
X002692Y013557D01*
X002724Y013513D01*
X002752Y013466D01*
X002777Y013417D01*
X002799Y013367D01*
X002816Y013315D01*
X002830Y013263D01*
X002840Y013209D01*
X002846Y013155D01*
X002848Y013100D01*
X002846Y013045D01*
X002840Y012991D01*
X002830Y012937D01*
X002816Y012885D01*
X002799Y012833D01*
X002777Y012783D01*
X002752Y012734D01*
X002724Y012687D01*
X002692Y012643D01*
X002657Y012601D01*
X002619Y012562D01*
X002578Y012525D01*
X002535Y012492D01*
X002490Y012462D01*
X002442Y012435D01*
X002393Y012412D01*
X002342Y012392D01*
X002289Y012376D01*
X002236Y012364D01*
X002182Y012356D01*
X002127Y012352D01*
X002073Y012352D01*
X002018Y012356D01*
X001964Y012364D01*
X001911Y012376D01*
X001858Y012392D01*
X001807Y012412D01*
X001758Y012435D01*
X001710Y012462D01*
X001665Y012492D01*
X001622Y012525D01*
X001581Y012562D01*
X001543Y012601D01*
X001508Y012643D01*
X001476Y012687D01*
X001448Y012734D01*
X001423Y012783D01*
X001401Y012833D01*
X001384Y012885D01*
X001370Y012937D01*
X001360Y012991D01*
X001354Y013045D01*
X001352Y013100D01*
X001352Y005100D02*
X001354Y005155D01*
X001360Y005209D01*
X001370Y005263D01*
X001384Y005315D01*
X001401Y005367D01*
X001423Y005417D01*
X001448Y005466D01*
X001476Y005513D01*
X001508Y005557D01*
X001543Y005599D01*
X001581Y005638D01*
X001622Y005675D01*
X001665Y005708D01*
X001710Y005738D01*
X001758Y005765D01*
X001807Y005788D01*
X001858Y005808D01*
X001911Y005824D01*
X001964Y005836D01*
X002018Y005844D01*
X002073Y005848D01*
X002127Y005848D01*
X002182Y005844D01*
X002236Y005836D01*
X002289Y005824D01*
X002342Y005808D01*
X002393Y005788D01*
X002442Y005765D01*
X002490Y005738D01*
X002535Y005708D01*
X002578Y005675D01*
X002619Y005638D01*
X002657Y005599D01*
X002692Y005557D01*
X002724Y005513D01*
X002752Y005466D01*
X002777Y005417D01*
X002799Y005367D01*
X002816Y005315D01*
X002830Y005263D01*
X002840Y005209D01*
X002846Y005155D01*
X002848Y005100D01*
X002846Y005045D01*
X002840Y004991D01*
X002830Y004937D01*
X002816Y004885D01*
X002799Y004833D01*
X002777Y004783D01*
X002752Y004734D01*
X002724Y004687D01*
X002692Y004643D01*
X002657Y004601D01*
X002619Y004562D01*
X002578Y004525D01*
X002535Y004492D01*
X002490Y004462D01*
X002442Y004435D01*
X002393Y004412D01*
X002342Y004392D01*
X002289Y004376D01*
X002236Y004364D01*
X002182Y004356D01*
X002127Y004352D01*
X002073Y004352D01*
X002018Y004356D01*
X001964Y004364D01*
X001911Y004376D01*
X001858Y004392D01*
X001807Y004412D01*
X001758Y004435D01*
X001710Y004462D01*
X001665Y004492D01*
X001622Y004525D01*
X001581Y004562D01*
X001543Y004601D01*
X001508Y004643D01*
X001476Y004687D01*
X001448Y004734D01*
X001423Y004783D01*
X001401Y004833D01*
X001384Y004885D01*
X001370Y004937D01*
X001360Y004991D01*
X001354Y005045D01*
X001352Y005100D01*
X023852Y005100D02*
X023854Y005155D01*
X023860Y005209D01*
X023870Y005263D01*
X023884Y005315D01*
X023901Y005367D01*
X023923Y005417D01*
X023948Y005466D01*
X023976Y005513D01*
X024008Y005557D01*
X024043Y005599D01*
X024081Y005638D01*
X024122Y005675D01*
X024165Y005708D01*
X024210Y005738D01*
X024258Y005765D01*
X024307Y005788D01*
X024358Y005808D01*
X024411Y005824D01*
X024464Y005836D01*
X024518Y005844D01*
X024573Y005848D01*
X024627Y005848D01*
X024682Y005844D01*
X024736Y005836D01*
X024789Y005824D01*
X024842Y005808D01*
X024893Y005788D01*
X024942Y005765D01*
X024990Y005738D01*
X025035Y005708D01*
X025078Y005675D01*
X025119Y005638D01*
X025157Y005599D01*
X025192Y005557D01*
X025224Y005513D01*
X025252Y005466D01*
X025277Y005417D01*
X025299Y005367D01*
X025316Y005315D01*
X025330Y005263D01*
X025340Y005209D01*
X025346Y005155D01*
X025348Y005100D01*
X025346Y005045D01*
X025340Y004991D01*
X025330Y004937D01*
X025316Y004885D01*
X025299Y004833D01*
X025277Y004783D01*
X025252Y004734D01*
X025224Y004687D01*
X025192Y004643D01*
X025157Y004601D01*
X025119Y004562D01*
X025078Y004525D01*
X025035Y004492D01*
X024990Y004462D01*
X024942Y004435D01*
X024893Y004412D01*
X024842Y004392D01*
X024789Y004376D01*
X024736Y004364D01*
X024682Y004356D01*
X024627Y004352D01*
X024573Y004352D01*
X024518Y004356D01*
X024464Y004364D01*
X024411Y004376D01*
X024358Y004392D01*
X024307Y004412D01*
X024258Y004435D01*
X024210Y004462D01*
X024165Y004492D01*
X024122Y004525D01*
X024081Y004562D01*
X024043Y004601D01*
X024008Y004643D01*
X023976Y004687D01*
X023948Y004734D01*
X023923Y004783D01*
X023901Y004833D01*
X023884Y004885D01*
X023870Y004937D01*
X023860Y004991D01*
X023854Y005045D01*
X023852Y005100D01*
X023852Y013100D02*
X023854Y013155D01*
X023860Y013209D01*
X023870Y013263D01*
X023884Y013315D01*
X023901Y013367D01*
X023923Y013417D01*
X023948Y013466D01*
X023976Y013513D01*
X024008Y013557D01*
X024043Y013599D01*
X024081Y013638D01*
X024122Y013675D01*
X024165Y013708D01*
X024210Y013738D01*
X024258Y013765D01*
X024307Y013788D01*
X024358Y013808D01*
X024411Y013824D01*
X024464Y013836D01*
X024518Y013844D01*
X024573Y013848D01*
X024627Y013848D01*
X024682Y013844D01*
X024736Y013836D01*
X024789Y013824D01*
X024842Y013808D01*
X024893Y013788D01*
X024942Y013765D01*
X024990Y013738D01*
X025035Y013708D01*
X025078Y013675D01*
X025119Y013638D01*
X025157Y013599D01*
X025192Y013557D01*
X025224Y013513D01*
X025252Y013466D01*
X025277Y013417D01*
X025299Y013367D01*
X025316Y013315D01*
X025330Y013263D01*
X025340Y013209D01*
X025346Y013155D01*
X025348Y013100D01*
X025346Y013045D01*
X025340Y012991D01*
X025330Y012937D01*
X025316Y012885D01*
X025299Y012833D01*
X025277Y012783D01*
X025252Y012734D01*
X025224Y012687D01*
X025192Y012643D01*
X025157Y012601D01*
X025119Y012562D01*
X025078Y012525D01*
X025035Y012492D01*
X024990Y012462D01*
X024942Y012435D01*
X024893Y012412D01*
X024842Y012392D01*
X024789Y012376D01*
X024736Y012364D01*
X024682Y012356D01*
X024627Y012352D01*
X024573Y012352D01*
X024518Y012356D01*
X024464Y012364D01*
X024411Y012376D01*
X024358Y012392D01*
X024307Y012412D01*
X024258Y012435D01*
X024210Y012462D01*
X024165Y012492D01*
X024122Y012525D01*
X024081Y012562D01*
X024043Y012601D01*
X024008Y012643D01*
X023976Y012687D01*
X023948Y012734D01*
X023923Y012783D01*
X023901Y012833D01*
X023884Y012885D01*
X023870Y012937D01*
X023860Y012991D01*
X023854Y013045D01*
X023852Y013100D01*
D13*
X005677Y002387D02*
X005232Y002432D01*
X005232Y002768D01*
X005677Y002813D01*
X005706Y002914D01*
X005746Y003010D01*
X005797Y003102D01*
X005514Y003448D01*
X005752Y003686D01*
X006098Y003403D01*
X006190Y003454D01*
X006286Y003494D01*
X006387Y003523D01*
X006432Y003968D01*
X006768Y003968D01*
X006813Y003523D01*
X006914Y003494D01*
X007010Y003454D01*
X007102Y003403D01*
X007448Y003686D01*
X007686Y003448D01*
X007403Y003102D01*
X007454Y003010D01*
X007494Y002914D01*
X007523Y002813D01*
X007968Y002768D01*
X007968Y002432D01*
X007523Y002387D01*
X007494Y002286D01*
X007454Y002190D01*
X007403Y002098D01*
X007686Y001752D01*
X007448Y001514D01*
X007102Y001797D01*
X007034Y001758D01*
X006963Y001725D01*
X006765Y002202D01*
X006836Y002240D01*
X006899Y002290D01*
X006952Y002352D01*
X006992Y002422D01*
X007018Y002498D01*
X007030Y002578D01*
X007027Y002659D01*
X007008Y002737D01*
X006975Y002811D01*
X006929Y002877D01*
X006872Y002934D01*
X006805Y002979D01*
X006730Y003010D01*
X006651Y003028D01*
X006571Y003030D01*
X006491Y003017D01*
X006415Y002989D01*
X006346Y002948D01*
X006285Y002894D01*
X006236Y002830D01*
X006199Y002758D01*
X006177Y002680D01*
X006169Y002600D01*
X006175Y002528D01*
X006194Y002458D01*
X006223Y002392D01*
X006263Y002332D01*
X006313Y002279D01*
X006371Y002235D01*
X006435Y002202D01*
X006237Y001725D01*
X006166Y001758D01*
X006098Y001797D01*
X005752Y001514D01*
X005514Y001752D01*
X005797Y002098D01*
X005746Y002190D01*
X005706Y002286D01*
X005677Y002387D01*
X005689Y002345D02*
X006255Y002345D01*
X006218Y002402D02*
X005526Y002402D01*
X005706Y002287D02*
X006305Y002287D01*
X006382Y002230D02*
X005730Y002230D01*
X005756Y002172D02*
X006423Y002172D01*
X006399Y002114D02*
X005788Y002114D01*
X005763Y002057D02*
X006375Y002057D01*
X006351Y001999D02*
X005716Y001999D01*
X005669Y001942D02*
X006327Y001942D01*
X006303Y001884D02*
X005622Y001884D01*
X005575Y001827D02*
X006280Y001827D01*
X006256Y001769D02*
X006146Y001769D01*
X006064Y001769D02*
X005528Y001769D01*
X005554Y001712D02*
X005994Y001712D01*
X005923Y001654D02*
X005612Y001654D01*
X005669Y001596D02*
X005853Y001596D01*
X005782Y001539D02*
X005727Y001539D01*
X006849Y001999D02*
X007484Y001999D01*
X007531Y001942D02*
X006873Y001942D01*
X006897Y001884D02*
X007578Y001884D01*
X007625Y001827D02*
X006920Y001827D01*
X006944Y001769D02*
X007054Y001769D01*
X007136Y001769D02*
X007672Y001769D01*
X007646Y001712D02*
X007206Y001712D01*
X007277Y001654D02*
X007588Y001654D01*
X007531Y001596D02*
X007347Y001596D01*
X007418Y001539D02*
X007473Y001539D01*
X007437Y002057D02*
X006825Y002057D01*
X006801Y002114D02*
X007412Y002114D01*
X007444Y002172D02*
X006777Y002172D01*
X006817Y002230D02*
X007470Y002230D01*
X007494Y002287D02*
X006895Y002287D01*
X006946Y002345D02*
X007511Y002345D01*
X007674Y002402D02*
X006981Y002402D01*
X007005Y002460D02*
X007968Y002460D01*
X007968Y002517D02*
X007021Y002517D01*
X007030Y002575D02*
X007968Y002575D01*
X007968Y002632D02*
X007028Y002632D01*
X007019Y002690D02*
X007968Y002690D01*
X007968Y002748D02*
X007004Y002748D01*
X006978Y002805D02*
X007602Y002805D01*
X007509Y002863D02*
X006940Y002863D01*
X006886Y002920D02*
X007491Y002920D01*
X007467Y002978D02*
X006806Y002978D01*
X006396Y002978D02*
X005733Y002978D01*
X005709Y002920D02*
X006315Y002920D01*
X006261Y002863D02*
X005691Y002863D01*
X005598Y002805D02*
X006223Y002805D01*
X006196Y002748D02*
X005232Y002748D01*
X005232Y002690D02*
X006180Y002690D01*
X006172Y002632D02*
X005232Y002632D01*
X005232Y002575D02*
X006171Y002575D01*
X006178Y002517D02*
X005232Y002517D01*
X005232Y002460D02*
X006193Y002460D01*
X005760Y003035D02*
X007440Y003035D01*
X007408Y003093D02*
X005792Y003093D01*
X005757Y003150D02*
X007443Y003150D01*
X007490Y003208D02*
X005710Y003208D01*
X005663Y003266D02*
X007537Y003266D01*
X007584Y003323D02*
X005616Y003323D01*
X005569Y003381D02*
X007631Y003381D01*
X007678Y003438D02*
X007145Y003438D01*
X007215Y003496D02*
X007638Y003496D01*
X007581Y003553D02*
X007286Y003553D01*
X007356Y003611D02*
X007523Y003611D01*
X007466Y003668D02*
X007427Y003668D01*
X007039Y003438D02*
X006161Y003438D01*
X006055Y003438D02*
X005522Y003438D01*
X005562Y003496D02*
X005985Y003496D01*
X005914Y003553D02*
X005619Y003553D01*
X005677Y003611D02*
X005844Y003611D01*
X005773Y003668D02*
X005734Y003668D01*
X006293Y003496D02*
X006907Y003496D01*
X006810Y003553D02*
X006390Y003553D01*
X006396Y003611D02*
X006804Y003611D01*
X006798Y003668D02*
X006402Y003668D01*
X006408Y003726D02*
X006792Y003726D01*
X006787Y003784D02*
X006413Y003784D01*
X006419Y003841D02*
X006781Y003841D01*
X006775Y003899D02*
X006425Y003899D01*
X006431Y003956D02*
X006769Y003956D01*
X019232Y002768D02*
X019232Y002432D01*
X019677Y002387D01*
X019706Y002286D01*
X019746Y002190D01*
X019797Y002098D01*
X019514Y001752D01*
X019752Y001514D01*
X020098Y001797D01*
X020166Y001758D01*
X020237Y001725D01*
X020435Y002202D01*
X020371Y002235D01*
X020313Y002279D01*
X020263Y002332D01*
X020223Y002392D01*
X020194Y002458D01*
X020175Y002528D01*
X020169Y002600D01*
X020177Y002680D01*
X020199Y002758D01*
X020236Y002830D01*
X020285Y002894D01*
X020346Y002948D01*
X020415Y002989D01*
X020491Y003017D01*
X020571Y003030D01*
X020651Y003028D01*
X020730Y003010D01*
X020805Y002979D01*
X020872Y002934D01*
X020929Y002877D01*
X020975Y002811D01*
X021008Y002737D01*
X021027Y002659D01*
X021030Y002578D01*
X021018Y002498D01*
X020992Y002422D01*
X020952Y002352D01*
X020899Y002290D01*
X020836Y002240D01*
X020765Y002202D01*
X020963Y001725D01*
X021034Y001758D01*
X021102Y001797D01*
X021448Y001514D01*
X021686Y001752D01*
X021403Y002098D01*
X021454Y002190D01*
X021494Y002286D01*
X021523Y002387D01*
X021968Y002432D01*
X021968Y002768D01*
X021523Y002813D01*
X021494Y002914D01*
X021454Y003010D01*
X021403Y003102D01*
X021686Y003448D01*
X021448Y003686D01*
X021102Y003403D01*
X021010Y003454D01*
X020914Y003494D01*
X020813Y003523D01*
X020768Y003968D01*
X020432Y003968D01*
X020387Y003523D01*
X020286Y003494D01*
X020190Y003454D01*
X020098Y003403D01*
X019752Y003686D01*
X019514Y003448D01*
X019797Y003102D01*
X019746Y003010D01*
X019706Y002914D01*
X019677Y002813D01*
X019232Y002768D01*
X019232Y002748D02*
X020196Y002748D01*
X020180Y002690D02*
X019232Y002690D01*
X019232Y002632D02*
X020172Y002632D01*
X020171Y002575D02*
X019232Y002575D01*
X019232Y002517D02*
X020178Y002517D01*
X020193Y002460D02*
X019232Y002460D01*
X019526Y002402D02*
X020218Y002402D01*
X020255Y002345D02*
X019689Y002345D01*
X019706Y002287D02*
X020305Y002287D01*
X020382Y002230D02*
X019730Y002230D01*
X019756Y002172D02*
X020423Y002172D01*
X020399Y002114D02*
X019788Y002114D01*
X019763Y002057D02*
X020375Y002057D01*
X020351Y001999D02*
X019716Y001999D01*
X019669Y001942D02*
X020327Y001942D01*
X020303Y001884D02*
X019622Y001884D01*
X019575Y001827D02*
X020280Y001827D01*
X020256Y001769D02*
X020146Y001769D01*
X020064Y001769D02*
X019528Y001769D01*
X019554Y001712D02*
X019994Y001712D01*
X019923Y001654D02*
X019612Y001654D01*
X019669Y001596D02*
X019853Y001596D01*
X019782Y001539D02*
X019727Y001539D01*
X020801Y002114D02*
X021412Y002114D01*
X021437Y002057D02*
X020825Y002057D01*
X020849Y001999D02*
X021484Y001999D01*
X021531Y001942D02*
X020873Y001942D01*
X020897Y001884D02*
X021578Y001884D01*
X021625Y001827D02*
X020920Y001827D01*
X020944Y001769D02*
X021054Y001769D01*
X021136Y001769D02*
X021672Y001769D01*
X021646Y001712D02*
X021206Y001712D01*
X021277Y001654D02*
X021588Y001654D01*
X021531Y001596D02*
X021347Y001596D01*
X021418Y001539D02*
X021473Y001539D01*
X021444Y002172D02*
X020777Y002172D01*
X020817Y002230D02*
X021470Y002230D01*
X021494Y002287D02*
X020895Y002287D01*
X020946Y002345D02*
X021511Y002345D01*
X021674Y002402D02*
X020981Y002402D01*
X021005Y002460D02*
X021968Y002460D01*
X021968Y002517D02*
X021021Y002517D01*
X021030Y002575D02*
X021968Y002575D01*
X021968Y002632D02*
X021028Y002632D01*
X021019Y002690D02*
X021968Y002690D01*
X021968Y002748D02*
X021004Y002748D01*
X020978Y002805D02*
X021602Y002805D01*
X021509Y002863D02*
X020940Y002863D01*
X020886Y002920D02*
X021491Y002920D01*
X021467Y002978D02*
X020806Y002978D01*
X020396Y002978D02*
X019733Y002978D01*
X019709Y002920D02*
X020315Y002920D01*
X020261Y002863D02*
X019691Y002863D01*
X019598Y002805D02*
X020223Y002805D01*
X019760Y003035D02*
X021440Y003035D01*
X021408Y003093D02*
X019792Y003093D01*
X019757Y003150D02*
X021443Y003150D01*
X021490Y003208D02*
X019710Y003208D01*
X019663Y003266D02*
X021537Y003266D01*
X021584Y003323D02*
X019616Y003323D01*
X019569Y003381D02*
X021631Y003381D01*
X021678Y003438D02*
X021145Y003438D01*
X021215Y003496D02*
X021638Y003496D01*
X021581Y003553D02*
X021286Y003553D01*
X021356Y003611D02*
X021523Y003611D01*
X021466Y003668D02*
X021427Y003668D01*
X021039Y003438D02*
X020161Y003438D01*
X020055Y003438D02*
X019522Y003438D01*
X019562Y003496D02*
X019985Y003496D01*
X019914Y003553D02*
X019619Y003553D01*
X019677Y003611D02*
X019844Y003611D01*
X019773Y003668D02*
X019734Y003668D01*
X020293Y003496D02*
X020907Y003496D01*
X020810Y003553D02*
X020390Y003553D01*
X020396Y003611D02*
X020804Y003611D01*
X020798Y003668D02*
X020402Y003668D01*
X020408Y003726D02*
X020792Y003726D01*
X020787Y003784D02*
X020413Y003784D01*
X020419Y003841D02*
X020781Y003841D01*
X020775Y003899D02*
X020425Y003899D01*
X020431Y003956D02*
X020769Y003956D01*
M02*
