G75*
G70*
%OFA0B0*%
%FSLAX24Y24*%
%IPPOS*%
%LPD*%
%AMOC8*
5,1,8,0,0,1.08239X$1,22.5*
%
%ADD10C,0.0000*%
%ADD11C,0.0520*%
%ADD12OC8,0.0740*%
%ADD13C,0.0160*%
D10*
X000100Y000100D02*
X000100Y014970D01*
X026592Y014970D01*
X026592Y000100D01*
X000100Y000100D01*
X001391Y005100D02*
X001393Y005153D01*
X001399Y005206D01*
X001409Y005258D01*
X001422Y005309D01*
X001440Y005359D01*
X001461Y005408D01*
X001486Y005455D01*
X001514Y005499D01*
X001546Y005542D01*
X001580Y005582D01*
X001618Y005620D01*
X001658Y005654D01*
X001701Y005686D01*
X001746Y005714D01*
X001792Y005739D01*
X001841Y005760D01*
X001891Y005778D01*
X001942Y005791D01*
X001994Y005801D01*
X002047Y005807D01*
X002100Y005809D01*
X002153Y005807D01*
X002206Y005801D01*
X002258Y005791D01*
X002309Y005778D01*
X002359Y005760D01*
X002408Y005739D01*
X002455Y005714D01*
X002499Y005686D01*
X002542Y005654D01*
X002582Y005620D01*
X002620Y005582D01*
X002654Y005542D01*
X002686Y005499D01*
X002714Y005454D01*
X002739Y005408D01*
X002760Y005359D01*
X002778Y005309D01*
X002791Y005258D01*
X002801Y005206D01*
X002807Y005153D01*
X002809Y005100D01*
X002807Y005047D01*
X002801Y004994D01*
X002791Y004942D01*
X002778Y004891D01*
X002760Y004841D01*
X002739Y004792D01*
X002714Y004745D01*
X002686Y004701D01*
X002654Y004658D01*
X002620Y004618D01*
X002582Y004580D01*
X002542Y004546D01*
X002499Y004514D01*
X002454Y004486D01*
X002408Y004461D01*
X002359Y004440D01*
X002309Y004422D01*
X002258Y004409D01*
X002206Y004399D01*
X002153Y004393D01*
X002100Y004391D01*
X002047Y004393D01*
X001994Y004399D01*
X001942Y004409D01*
X001891Y004422D01*
X001841Y004440D01*
X001792Y004461D01*
X001745Y004486D01*
X001701Y004514D01*
X001658Y004546D01*
X001618Y004580D01*
X001580Y004618D01*
X001546Y004658D01*
X001514Y004701D01*
X001486Y004746D01*
X001461Y004792D01*
X001440Y004841D01*
X001422Y004891D01*
X001409Y004942D01*
X001399Y004994D01*
X001393Y005047D01*
X001391Y005100D01*
X001391Y013100D02*
X001393Y013153D01*
X001399Y013206D01*
X001409Y013258D01*
X001422Y013309D01*
X001440Y013359D01*
X001461Y013408D01*
X001486Y013455D01*
X001514Y013499D01*
X001546Y013542D01*
X001580Y013582D01*
X001618Y013620D01*
X001658Y013654D01*
X001701Y013686D01*
X001746Y013714D01*
X001792Y013739D01*
X001841Y013760D01*
X001891Y013778D01*
X001942Y013791D01*
X001994Y013801D01*
X002047Y013807D01*
X002100Y013809D01*
X002153Y013807D01*
X002206Y013801D01*
X002258Y013791D01*
X002309Y013778D01*
X002359Y013760D01*
X002408Y013739D01*
X002455Y013714D01*
X002499Y013686D01*
X002542Y013654D01*
X002582Y013620D01*
X002620Y013582D01*
X002654Y013542D01*
X002686Y013499D01*
X002714Y013454D01*
X002739Y013408D01*
X002760Y013359D01*
X002778Y013309D01*
X002791Y013258D01*
X002801Y013206D01*
X002807Y013153D01*
X002809Y013100D01*
X002807Y013047D01*
X002801Y012994D01*
X002791Y012942D01*
X002778Y012891D01*
X002760Y012841D01*
X002739Y012792D01*
X002714Y012745D01*
X002686Y012701D01*
X002654Y012658D01*
X002620Y012618D01*
X002582Y012580D01*
X002542Y012546D01*
X002499Y012514D01*
X002454Y012486D01*
X002408Y012461D01*
X002359Y012440D01*
X002309Y012422D01*
X002258Y012409D01*
X002206Y012399D01*
X002153Y012393D01*
X002100Y012391D01*
X002047Y012393D01*
X001994Y012399D01*
X001942Y012409D01*
X001891Y012422D01*
X001841Y012440D01*
X001792Y012461D01*
X001745Y012486D01*
X001701Y012514D01*
X001658Y012546D01*
X001618Y012580D01*
X001580Y012618D01*
X001546Y012658D01*
X001514Y012701D01*
X001486Y012746D01*
X001461Y012792D01*
X001440Y012841D01*
X001422Y012891D01*
X001409Y012942D01*
X001399Y012994D01*
X001393Y013047D01*
X001391Y013100D01*
X023891Y013100D02*
X023893Y013153D01*
X023899Y013206D01*
X023909Y013258D01*
X023922Y013309D01*
X023940Y013359D01*
X023961Y013408D01*
X023986Y013455D01*
X024014Y013499D01*
X024046Y013542D01*
X024080Y013582D01*
X024118Y013620D01*
X024158Y013654D01*
X024201Y013686D01*
X024246Y013714D01*
X024292Y013739D01*
X024341Y013760D01*
X024391Y013778D01*
X024442Y013791D01*
X024494Y013801D01*
X024547Y013807D01*
X024600Y013809D01*
X024653Y013807D01*
X024706Y013801D01*
X024758Y013791D01*
X024809Y013778D01*
X024859Y013760D01*
X024908Y013739D01*
X024955Y013714D01*
X024999Y013686D01*
X025042Y013654D01*
X025082Y013620D01*
X025120Y013582D01*
X025154Y013542D01*
X025186Y013499D01*
X025214Y013454D01*
X025239Y013408D01*
X025260Y013359D01*
X025278Y013309D01*
X025291Y013258D01*
X025301Y013206D01*
X025307Y013153D01*
X025309Y013100D01*
X025307Y013047D01*
X025301Y012994D01*
X025291Y012942D01*
X025278Y012891D01*
X025260Y012841D01*
X025239Y012792D01*
X025214Y012745D01*
X025186Y012701D01*
X025154Y012658D01*
X025120Y012618D01*
X025082Y012580D01*
X025042Y012546D01*
X024999Y012514D01*
X024954Y012486D01*
X024908Y012461D01*
X024859Y012440D01*
X024809Y012422D01*
X024758Y012409D01*
X024706Y012399D01*
X024653Y012393D01*
X024600Y012391D01*
X024547Y012393D01*
X024494Y012399D01*
X024442Y012409D01*
X024391Y012422D01*
X024341Y012440D01*
X024292Y012461D01*
X024245Y012486D01*
X024201Y012514D01*
X024158Y012546D01*
X024118Y012580D01*
X024080Y012618D01*
X024046Y012658D01*
X024014Y012701D01*
X023986Y012746D01*
X023961Y012792D01*
X023940Y012841D01*
X023922Y012891D01*
X023909Y012942D01*
X023899Y012994D01*
X023893Y013047D01*
X023891Y013100D01*
X023891Y005100D02*
X023893Y005153D01*
X023899Y005206D01*
X023909Y005258D01*
X023922Y005309D01*
X023940Y005359D01*
X023961Y005408D01*
X023986Y005455D01*
X024014Y005499D01*
X024046Y005542D01*
X024080Y005582D01*
X024118Y005620D01*
X024158Y005654D01*
X024201Y005686D01*
X024246Y005714D01*
X024292Y005739D01*
X024341Y005760D01*
X024391Y005778D01*
X024442Y005791D01*
X024494Y005801D01*
X024547Y005807D01*
X024600Y005809D01*
X024653Y005807D01*
X024706Y005801D01*
X024758Y005791D01*
X024809Y005778D01*
X024859Y005760D01*
X024908Y005739D01*
X024955Y005714D01*
X024999Y005686D01*
X025042Y005654D01*
X025082Y005620D01*
X025120Y005582D01*
X025154Y005542D01*
X025186Y005499D01*
X025214Y005454D01*
X025239Y005408D01*
X025260Y005359D01*
X025278Y005309D01*
X025291Y005258D01*
X025301Y005206D01*
X025307Y005153D01*
X025309Y005100D01*
X025307Y005047D01*
X025301Y004994D01*
X025291Y004942D01*
X025278Y004891D01*
X025260Y004841D01*
X025239Y004792D01*
X025214Y004745D01*
X025186Y004701D01*
X025154Y004658D01*
X025120Y004618D01*
X025082Y004580D01*
X025042Y004546D01*
X024999Y004514D01*
X024954Y004486D01*
X024908Y004461D01*
X024859Y004440D01*
X024809Y004422D01*
X024758Y004409D01*
X024706Y004399D01*
X024653Y004393D01*
X024600Y004391D01*
X024547Y004393D01*
X024494Y004399D01*
X024442Y004409D01*
X024391Y004422D01*
X024341Y004440D01*
X024292Y004461D01*
X024245Y004486D01*
X024201Y004514D01*
X024158Y004546D01*
X024118Y004580D01*
X024080Y004618D01*
X024046Y004658D01*
X024014Y004701D01*
X023986Y004746D01*
X023961Y004792D01*
X023940Y004841D01*
X023922Y004891D01*
X023909Y004942D01*
X023899Y004994D01*
X023893Y005047D01*
X023891Y005100D01*
D11*
X018600Y006840D02*
X018600Y007360D01*
X017600Y007360D02*
X017600Y006840D01*
X016600Y006840D02*
X016600Y007360D01*
X015600Y007360D02*
X015600Y006840D01*
X014600Y006840D02*
X014600Y007360D01*
X013600Y007360D02*
X013600Y006840D01*
X012600Y006840D02*
X012600Y007360D01*
X011600Y007360D02*
X011600Y006840D01*
X010600Y006840D02*
X010600Y007360D01*
X009600Y007360D02*
X009600Y006840D01*
X008600Y006840D02*
X008600Y007360D01*
X008600Y010840D02*
X008600Y011360D01*
X009600Y011360D02*
X009600Y010840D01*
X010600Y010840D02*
X010600Y011360D01*
X011600Y011360D02*
X011600Y010840D01*
X012600Y010840D02*
X012600Y011360D01*
X013600Y011360D02*
X013600Y010840D01*
X014600Y010840D02*
X014600Y011360D01*
X015600Y011360D02*
X015600Y010840D01*
X016600Y010840D02*
X016600Y011360D01*
X017600Y011360D02*
X017600Y010840D01*
X018600Y010840D02*
X018600Y011360D01*
D12*
X015600Y003100D03*
X014600Y003100D03*
X013600Y003100D03*
X012600Y003100D03*
X011600Y003100D03*
X011600Y002100D03*
X012600Y002100D03*
X013600Y002100D03*
X014600Y002100D03*
X015600Y002100D03*
D13*
X015620Y002080D02*
X015620Y002120D01*
X016150Y002120D01*
X016150Y002328D01*
X015878Y002600D01*
X016150Y002872D01*
X016150Y003080D01*
X015620Y003080D01*
X015620Y003120D01*
X015580Y003120D01*
X015580Y003650D01*
X015372Y003650D01*
X015100Y003378D01*
X014828Y003650D01*
X014620Y003650D01*
X014620Y003120D01*
X014580Y003120D01*
X014580Y003650D01*
X014372Y003650D01*
X014086Y003364D01*
X013840Y003610D01*
X013840Y003648D01*
X013803Y003736D01*
X012840Y004699D01*
X012840Y006486D01*
X012956Y006602D01*
X013020Y006756D01*
X013020Y007444D01*
X012956Y007598D01*
X012838Y007716D01*
X012684Y007780D01*
X012516Y007780D01*
X012362Y007716D01*
X012244Y007598D01*
X012180Y007444D01*
X012180Y006756D01*
X012244Y006602D01*
X012360Y006486D01*
X012360Y004552D01*
X012397Y004464D01*
X012464Y004397D01*
X013306Y003555D01*
X013100Y003350D01*
X012840Y003610D01*
X012840Y003648D01*
X012803Y003736D01*
X011840Y004699D01*
X011840Y006486D01*
X011956Y006602D01*
X012020Y006756D01*
X012020Y007444D01*
X011956Y007598D01*
X011838Y007716D01*
X011684Y007780D01*
X011516Y007780D01*
X011362Y007716D01*
X011244Y007598D01*
X011180Y007444D01*
X011180Y006756D01*
X011244Y006602D01*
X011360Y006486D01*
X011360Y004552D01*
X011397Y004464D01*
X011464Y004397D01*
X012306Y003555D01*
X012100Y003350D01*
X011840Y003610D01*
X011840Y003648D01*
X011803Y003736D01*
X010840Y004699D01*
X010840Y006486D01*
X010956Y006602D01*
X011020Y006756D01*
X011020Y007444D01*
X010956Y007598D01*
X010838Y007716D01*
X010684Y007780D01*
X010516Y007780D01*
X010362Y007716D01*
X010244Y007598D01*
X010180Y007444D01*
X010180Y006756D01*
X010244Y006602D01*
X010360Y006486D01*
X010360Y004552D01*
X010397Y004464D01*
X010464Y004397D01*
X011306Y003555D01*
X011070Y003320D01*
X011070Y002880D01*
X011336Y002614D01*
X011050Y002328D01*
X011050Y002120D01*
X011580Y002120D01*
X011580Y002080D01*
X011620Y002080D01*
X011620Y001550D01*
X011828Y001550D01*
X012114Y001836D01*
X012306Y001645D01*
X012001Y001340D01*
X007699Y001340D01*
X006840Y002199D01*
X006840Y007501D01*
X008199Y008860D01*
X009148Y008860D01*
X009236Y008897D01*
X009303Y008964D01*
X009803Y009464D01*
X009840Y009552D01*
X009840Y010486D01*
X009956Y010602D01*
X010020Y010756D01*
X010020Y011444D01*
X009956Y011598D01*
X009838Y011716D01*
X009684Y011780D01*
X009516Y011780D01*
X009362Y011716D01*
X009244Y011598D01*
X009180Y011444D01*
X009180Y010756D01*
X009244Y010602D01*
X009360Y010486D01*
X009360Y009699D01*
X009001Y009340D01*
X008052Y009340D01*
X007964Y009303D01*
X006464Y007803D01*
X006397Y007736D01*
X006360Y007648D01*
X006360Y002052D01*
X006397Y001964D01*
X007397Y000964D01*
X007464Y000897D01*
X007552Y000860D01*
X012148Y000860D01*
X012236Y000897D01*
X012736Y001397D01*
X012803Y001464D01*
X012840Y001552D01*
X012840Y001590D01*
X013086Y001836D01*
X013372Y001550D01*
X013580Y001550D01*
X013580Y002080D01*
X013620Y002080D01*
X013620Y001550D01*
X013828Y001550D01*
X014114Y001836D01*
X014380Y001570D01*
X014820Y001570D01*
X015086Y001836D01*
X015372Y001550D01*
X015580Y001550D01*
X015580Y002080D01*
X015620Y002080D01*
X016150Y002080D01*
X016150Y001872D01*
X015828Y001550D01*
X015620Y001550D01*
X015620Y002080D01*
X015620Y002120D02*
X015580Y002120D01*
X015580Y002650D01*
X015580Y003080D01*
X015620Y003080D01*
X015620Y002120D01*
X015620Y002161D02*
X015580Y002161D01*
X015580Y002319D02*
X015620Y002319D01*
X015620Y002478D02*
X015580Y002478D01*
X015580Y002636D02*
X015620Y002636D01*
X015620Y002795D02*
X015580Y002795D01*
X015580Y002953D02*
X015620Y002953D01*
X015580Y003080D02*
X015150Y003080D01*
X014620Y003080D01*
X014620Y003120D01*
X015580Y003120D01*
X015580Y003080D01*
X015580Y003112D02*
X014620Y003112D01*
X014620Y003270D02*
X014580Y003270D01*
X014580Y003429D02*
X014620Y003429D01*
X014620Y003587D02*
X014580Y003587D01*
X014309Y003587D02*
X013863Y003587D01*
X013794Y003746D02*
X023634Y003746D01*
X023760Y003645D02*
X024226Y003462D01*
X024226Y003462D01*
X024726Y003425D01*
X025214Y003536D01*
X025647Y003787D01*
X025647Y003787D01*
X025988Y004154D01*
X026100Y004386D01*
X026100Y000600D01*
X000600Y000600D01*
X000600Y004351D01*
X000868Y003957D01*
X000868Y003957D01*
X000868Y003957D01*
X001260Y003645D01*
X001726Y003462D01*
X002226Y003425D01*
X002714Y003536D01*
X002714Y003536D01*
X003147Y003787D01*
X003488Y004154D01*
X003705Y004605D01*
X003780Y005100D01*
X003705Y005595D01*
X003705Y005595D01*
X003488Y006046D01*
X003488Y006046D01*
X003147Y006413D01*
X002714Y006664D01*
X002714Y006664D01*
X002226Y006775D01*
X002226Y006775D01*
X001726Y006738D01*
X001260Y006555D01*
X000868Y006243D01*
X000600Y005849D01*
X000600Y012351D01*
X000868Y011957D01*
X000868Y011957D01*
X000868Y011957D01*
X001260Y011645D01*
X001726Y011462D01*
X001726Y011462D01*
X002226Y011425D01*
X002714Y011536D01*
X003147Y011787D01*
X003488Y012154D01*
X003705Y012605D01*
X003780Y013100D01*
X003705Y013595D01*
X003705Y013595D01*
X003488Y014046D01*
X003488Y014046D01*
X003147Y014413D01*
X003015Y014490D01*
X023679Y014490D01*
X023368Y014243D01*
X023086Y013829D01*
X022939Y013350D01*
X022939Y012850D01*
X023086Y012371D01*
X023368Y011957D01*
X023368Y011957D01*
X023368Y011957D01*
X023760Y011645D01*
X024226Y011462D01*
X024226Y011462D01*
X024726Y011425D01*
X025214Y011536D01*
X025647Y011787D01*
X025988Y012154D01*
X026100Y012386D01*
X026100Y005814D01*
X025988Y006046D01*
X025647Y006413D01*
X025214Y006664D01*
X024726Y006775D01*
X024726Y006775D01*
X024226Y006738D01*
X023760Y006555D01*
X023368Y006243D01*
X023086Y005829D01*
X022939Y005350D01*
X022939Y004850D01*
X023086Y004371D01*
X023368Y003957D01*
X023368Y003957D01*
X023368Y003957D01*
X023760Y003645D01*
X023760Y003645D01*
X023908Y003587D02*
X015891Y003587D01*
X015828Y003650D02*
X015620Y003650D01*
X015620Y003120D01*
X016150Y003120D01*
X016150Y003328D01*
X015828Y003650D01*
X015620Y003587D02*
X015580Y003587D01*
X015580Y003429D02*
X015620Y003429D01*
X015620Y003270D02*
X015580Y003270D01*
X015620Y003112D02*
X026100Y003112D01*
X026100Y003270D02*
X016150Y003270D01*
X016049Y003429D02*
X024675Y003429D01*
X024726Y003425D02*
X024726Y003425D01*
X024742Y003429D02*
X026100Y003429D01*
X026100Y003587D02*
X025302Y003587D01*
X025214Y003536D02*
X025214Y003536D01*
X025576Y003746D02*
X026100Y003746D01*
X026100Y003904D02*
X025756Y003904D01*
X025904Y004063D02*
X026100Y004063D01*
X025988Y004154D02*
X025988Y004154D01*
X026021Y004221D02*
X026100Y004221D01*
X026097Y004380D02*
X026100Y004380D01*
X026100Y002953D02*
X016150Y002953D01*
X016072Y002795D02*
X026100Y002795D01*
X026100Y002636D02*
X015914Y002636D01*
X016000Y002478D02*
X026100Y002478D01*
X026100Y002319D02*
X016150Y002319D01*
X016150Y002161D02*
X026100Y002161D01*
X026100Y002002D02*
X016150Y002002D01*
X016121Y001844D02*
X026100Y001844D01*
X026100Y001685D02*
X015963Y001685D01*
X015620Y001685D02*
X015580Y001685D01*
X015580Y001844D02*
X015620Y001844D01*
X015620Y002002D02*
X015580Y002002D01*
X015237Y001685D02*
X014935Y001685D01*
X014265Y001685D02*
X013963Y001685D01*
X013620Y001685D02*
X013580Y001685D01*
X013580Y001844D02*
X013620Y001844D01*
X013620Y002002D02*
X013580Y002002D01*
X013237Y001685D02*
X012935Y001685D01*
X012829Y001527D02*
X026100Y001527D01*
X026100Y001368D02*
X012707Y001368D01*
X012549Y001210D02*
X026100Y001210D01*
X026100Y001051D02*
X012390Y001051D01*
X012226Y000893D02*
X026100Y000893D01*
X026100Y000734D02*
X000600Y000734D01*
X000600Y000893D02*
X007474Y000893D01*
X007310Y001051D02*
X000600Y001051D01*
X000600Y001210D02*
X007151Y001210D01*
X006993Y001368D02*
X000600Y001368D01*
X000600Y001527D02*
X006834Y001527D01*
X006676Y001685D02*
X000600Y001685D01*
X000600Y001844D02*
X006517Y001844D01*
X006381Y002002D02*
X000600Y002002D01*
X000600Y002161D02*
X006360Y002161D01*
X006360Y002319D02*
X000600Y002319D01*
X000600Y002478D02*
X006360Y002478D01*
X006360Y002636D02*
X000600Y002636D01*
X000600Y002795D02*
X006360Y002795D01*
X006360Y002953D02*
X000600Y002953D01*
X000600Y003112D02*
X006360Y003112D01*
X006360Y003270D02*
X000600Y003270D01*
X000600Y003429D02*
X002175Y003429D01*
X002242Y003429D02*
X006360Y003429D01*
X006360Y003587D02*
X002802Y003587D01*
X003076Y003746D02*
X006360Y003746D01*
X006360Y003904D02*
X003256Y003904D01*
X003404Y004063D02*
X006360Y004063D01*
X006360Y004221D02*
X003521Y004221D01*
X003488Y004154D02*
X003488Y004154D01*
X003597Y004380D02*
X006360Y004380D01*
X006360Y004538D02*
X003673Y004538D01*
X003705Y004605D02*
X003705Y004605D01*
X003719Y004697D02*
X006360Y004697D01*
X006360Y004855D02*
X003743Y004855D01*
X003767Y005014D02*
X006360Y005014D01*
X006360Y005172D02*
X003769Y005172D01*
X003745Y005331D02*
X006360Y005331D01*
X006360Y005489D02*
X003721Y005489D01*
X003680Y005648D02*
X006360Y005648D01*
X006360Y005806D02*
X003604Y005806D01*
X003528Y005965D02*
X006360Y005965D01*
X006360Y006123D02*
X003417Y006123D01*
X003270Y006282D02*
X006360Y006282D01*
X006360Y006440D02*
X003102Y006440D01*
X003147Y006413D02*
X003147Y006413D01*
X002827Y006599D02*
X006360Y006599D01*
X006360Y006757D02*
X002306Y006757D01*
X001981Y006757D02*
X000600Y006757D01*
X000600Y006599D02*
X001371Y006599D01*
X001260Y006555D02*
X001260Y006555D01*
X001116Y006440D02*
X000600Y006440D01*
X000600Y006282D02*
X000917Y006282D01*
X000868Y006243D02*
X000868Y006243D01*
X000787Y006123D02*
X000600Y006123D01*
X000600Y005965D02*
X000679Y005965D01*
X001726Y006738D02*
X001726Y006738D01*
X000600Y006916D02*
X006360Y006916D01*
X006360Y007074D02*
X000600Y007074D01*
X000600Y007233D02*
X006360Y007233D01*
X006360Y007391D02*
X000600Y007391D01*
X000600Y007550D02*
X006360Y007550D01*
X006385Y007708D02*
X000600Y007708D01*
X000600Y007867D02*
X006527Y007867D01*
X006686Y008025D02*
X000600Y008025D01*
X000600Y008184D02*
X006844Y008184D01*
X007003Y008342D02*
X000600Y008342D01*
X000600Y008501D02*
X007161Y008501D01*
X007320Y008659D02*
X000600Y008659D01*
X000600Y008818D02*
X007478Y008818D01*
X007637Y008976D02*
X000600Y008976D01*
X000600Y009135D02*
X007795Y009135D01*
X007954Y009293D02*
X000600Y009293D01*
X000600Y009452D02*
X009112Y009452D01*
X009271Y009610D02*
X000600Y009610D01*
X000600Y009769D02*
X009360Y009769D01*
X009360Y009927D02*
X000600Y009927D01*
X000600Y010086D02*
X009360Y010086D01*
X009360Y010244D02*
X000600Y010244D01*
X000600Y010403D02*
X008549Y010403D01*
X008565Y010400D02*
X008600Y010400D01*
X008635Y010400D01*
X008703Y010411D01*
X008769Y010432D01*
X008831Y010464D01*
X008887Y010504D01*
X008936Y010553D01*
X008976Y010609D01*
X009008Y010671D01*
X009029Y010737D01*
X009040Y010805D01*
X009040Y011100D01*
X009040Y011395D01*
X009029Y011463D01*
X009008Y011529D01*
X008976Y011591D01*
X008936Y011647D01*
X008887Y011696D01*
X008831Y011736D01*
X008769Y011768D01*
X008703Y011789D01*
X008635Y011800D01*
X008600Y011800D01*
X008600Y011100D01*
X009040Y011100D01*
X008600Y011100D01*
X008600Y011100D01*
X008600Y011100D01*
X008600Y010400D01*
X008600Y011100D01*
X008600Y011100D01*
X008600Y011100D01*
X008160Y011100D01*
X008160Y011395D01*
X008171Y011463D01*
X008192Y011529D01*
X008224Y011591D01*
X008264Y011647D01*
X008313Y011696D01*
X008369Y011736D01*
X008431Y011768D01*
X008497Y011789D01*
X008565Y011800D01*
X008600Y011800D01*
X008600Y011100D01*
X008160Y011100D01*
X008160Y010805D01*
X008171Y010737D01*
X008192Y010671D01*
X008224Y010609D01*
X008264Y010553D01*
X008313Y010504D01*
X008369Y010464D01*
X008431Y010432D01*
X008497Y010411D01*
X008565Y010400D01*
X008600Y010403D02*
X008600Y010403D01*
X008651Y010403D02*
X009360Y010403D01*
X009285Y010561D02*
X008941Y010561D01*
X009023Y010720D02*
X009195Y010720D01*
X009180Y010878D02*
X009040Y010878D01*
X009040Y011037D02*
X009180Y011037D01*
X009180Y011195D02*
X009040Y011195D01*
X009040Y011354D02*
X009180Y011354D01*
X009208Y011512D02*
X009013Y011512D01*
X008912Y011671D02*
X009317Y011671D01*
X008600Y011671D02*
X008600Y011671D01*
X008600Y011512D02*
X008600Y011512D01*
X008600Y011354D02*
X008600Y011354D01*
X008600Y011195D02*
X008600Y011195D01*
X008600Y011037D02*
X008600Y011037D01*
X008600Y010878D02*
X008600Y010878D01*
X008600Y010720D02*
X008600Y010720D01*
X008600Y010561D02*
X008600Y010561D01*
X008259Y010561D02*
X000600Y010561D01*
X000600Y010720D02*
X008177Y010720D01*
X008160Y010878D02*
X000600Y010878D01*
X000600Y011037D02*
X008160Y011037D01*
X008160Y011195D02*
X000600Y011195D01*
X000600Y011354D02*
X008160Y011354D01*
X008187Y011512D02*
X002608Y011512D01*
X002714Y011536D02*
X002714Y011536D01*
X002947Y011671D02*
X008288Y011671D01*
X009600Y011100D02*
X009600Y009600D01*
X009100Y009100D01*
X008100Y009100D01*
X006600Y007600D01*
X006600Y002100D01*
X007600Y001100D01*
X012100Y001100D01*
X012600Y001600D01*
X012600Y002100D01*
X012265Y001685D02*
X011963Y001685D01*
X012187Y001527D02*
X007513Y001527D01*
X007354Y001685D02*
X011237Y001685D01*
X011372Y001550D02*
X011050Y001872D01*
X011050Y002080D01*
X011580Y002080D01*
X011580Y001550D01*
X011372Y001550D01*
X011580Y001685D02*
X011620Y001685D01*
X011620Y001844D02*
X011580Y001844D01*
X011580Y002002D02*
X011620Y002002D01*
X011079Y001844D02*
X007196Y001844D01*
X007037Y002002D02*
X011050Y002002D01*
X011050Y002161D02*
X006879Y002161D01*
X006840Y002319D02*
X011050Y002319D01*
X011200Y002478D02*
X006840Y002478D01*
X006840Y002636D02*
X011314Y002636D01*
X011156Y002795D02*
X006840Y002795D01*
X006840Y002953D02*
X011070Y002953D01*
X011070Y003112D02*
X006840Y003112D01*
X006840Y003270D02*
X011070Y003270D01*
X011179Y003429D02*
X006840Y003429D01*
X006840Y003587D02*
X011274Y003587D01*
X011115Y003746D02*
X006840Y003746D01*
X006840Y003904D02*
X010957Y003904D01*
X010798Y004063D02*
X006840Y004063D01*
X006840Y004221D02*
X010640Y004221D01*
X010481Y004380D02*
X006840Y004380D01*
X006840Y004538D02*
X010366Y004538D01*
X010360Y004697D02*
X006840Y004697D01*
X006840Y004855D02*
X010360Y004855D01*
X010360Y005014D02*
X006840Y005014D01*
X006840Y005172D02*
X010360Y005172D01*
X010360Y005331D02*
X006840Y005331D01*
X006840Y005489D02*
X010360Y005489D01*
X010360Y005648D02*
X006840Y005648D01*
X006840Y005806D02*
X010360Y005806D01*
X010360Y005965D02*
X006840Y005965D01*
X006840Y006123D02*
X010360Y006123D01*
X010360Y006282D02*
X006840Y006282D01*
X006840Y006440D02*
X008468Y006440D01*
X008516Y006420D02*
X008684Y006420D01*
X008838Y006484D01*
X008956Y006602D01*
X009020Y006756D01*
X009020Y007444D01*
X008956Y007598D01*
X008838Y007716D01*
X008684Y007780D01*
X008516Y007780D01*
X008362Y007716D01*
X008244Y007598D01*
X008180Y007444D01*
X008180Y006756D01*
X008244Y006602D01*
X008362Y006484D01*
X008516Y006420D01*
X008732Y006440D02*
X009468Y006440D01*
X009516Y006420D02*
X009684Y006420D01*
X009838Y006484D01*
X009956Y006602D01*
X010020Y006756D01*
X010020Y007444D01*
X009956Y007598D01*
X009838Y007716D01*
X009684Y007780D01*
X009516Y007780D01*
X009362Y007716D01*
X009244Y007598D01*
X009180Y007444D01*
X009180Y006756D01*
X009244Y006602D01*
X009362Y006484D01*
X009516Y006420D01*
X009732Y006440D02*
X010360Y006440D01*
X010248Y006599D02*
X009952Y006599D01*
X010020Y006757D02*
X010180Y006757D01*
X010180Y006916D02*
X010020Y006916D01*
X010020Y007074D02*
X010180Y007074D01*
X010180Y007233D02*
X010020Y007233D01*
X010020Y007391D02*
X010180Y007391D01*
X010224Y007550D02*
X009976Y007550D01*
X009846Y007708D02*
X010354Y007708D01*
X010846Y007708D02*
X011354Y007708D01*
X011224Y007550D02*
X010976Y007550D01*
X011020Y007391D02*
X011180Y007391D01*
X011180Y007233D02*
X011020Y007233D01*
X011020Y007074D02*
X011180Y007074D01*
X011180Y006916D02*
X011020Y006916D01*
X011020Y006757D02*
X011180Y006757D01*
X011248Y006599D02*
X010952Y006599D01*
X010840Y006440D02*
X011360Y006440D01*
X011360Y006282D02*
X010840Y006282D01*
X010840Y006123D02*
X011360Y006123D01*
X011360Y005965D02*
X010840Y005965D01*
X010840Y005806D02*
X011360Y005806D01*
X011360Y005648D02*
X010840Y005648D01*
X010840Y005489D02*
X011360Y005489D01*
X011360Y005331D02*
X010840Y005331D01*
X010840Y005172D02*
X011360Y005172D01*
X011360Y005014D02*
X010840Y005014D01*
X010840Y004855D02*
X011360Y004855D01*
X011360Y004697D02*
X010843Y004697D01*
X011001Y004538D02*
X011366Y004538D01*
X011481Y004380D02*
X011160Y004380D01*
X011318Y004221D02*
X011640Y004221D01*
X011798Y004063D02*
X011477Y004063D01*
X011635Y003904D02*
X011957Y003904D01*
X012115Y003746D02*
X011794Y003746D01*
X011863Y003587D02*
X012274Y003587D01*
X012179Y003429D02*
X012021Y003429D01*
X011600Y003600D02*
X011600Y003100D01*
X011600Y003600D02*
X010600Y004600D01*
X010600Y007100D01*
X011600Y007100D02*
X011600Y004600D01*
X012600Y003600D01*
X012600Y003100D01*
X013021Y003429D02*
X013179Y003429D01*
X013274Y003587D02*
X012863Y003587D01*
X012794Y003746D02*
X013115Y003746D01*
X012957Y003904D02*
X012635Y003904D01*
X012477Y004063D02*
X012798Y004063D01*
X012640Y004221D02*
X012318Y004221D01*
X012160Y004380D02*
X012481Y004380D01*
X012366Y004538D02*
X012001Y004538D01*
X011843Y004697D02*
X012360Y004697D01*
X012360Y004855D02*
X011840Y004855D01*
X011840Y005014D02*
X012360Y005014D01*
X012360Y005172D02*
X011840Y005172D01*
X011840Y005331D02*
X012360Y005331D01*
X012360Y005489D02*
X011840Y005489D01*
X011840Y005648D02*
X012360Y005648D01*
X012360Y005806D02*
X011840Y005806D01*
X011840Y005965D02*
X012360Y005965D01*
X012360Y006123D02*
X011840Y006123D01*
X011840Y006282D02*
X012360Y006282D01*
X012360Y006440D02*
X011840Y006440D01*
X011952Y006599D02*
X012248Y006599D01*
X012180Y006757D02*
X012020Y006757D01*
X012020Y006916D02*
X012180Y006916D01*
X012180Y007074D02*
X012020Y007074D01*
X012020Y007233D02*
X012180Y007233D01*
X012180Y007391D02*
X012020Y007391D01*
X011976Y007550D02*
X012224Y007550D01*
X012354Y007708D02*
X011846Y007708D01*
X012600Y007100D02*
X012600Y004600D01*
X013600Y003600D01*
X013600Y003100D01*
X014021Y003429D02*
X014151Y003429D01*
X014891Y003587D02*
X015309Y003587D01*
X015151Y003429D02*
X015049Y003429D01*
X013635Y003904D02*
X023435Y003904D01*
X023297Y004063D02*
X013477Y004063D01*
X013318Y004221D02*
X023189Y004221D01*
X023086Y004371D02*
X023086Y004371D01*
X023084Y004380D02*
X013160Y004380D01*
X013001Y004538D02*
X023035Y004538D01*
X022986Y004697D02*
X012843Y004697D01*
X012840Y004855D02*
X022939Y004855D01*
X022939Y005014D02*
X012840Y005014D01*
X012840Y005172D02*
X022939Y005172D01*
X022939Y005331D02*
X012840Y005331D01*
X012840Y005489D02*
X022982Y005489D01*
X023030Y005648D02*
X012840Y005648D01*
X012840Y005806D02*
X023079Y005806D01*
X023086Y005829D02*
X023086Y005829D01*
X023179Y005965D02*
X012840Y005965D01*
X012840Y006123D02*
X023287Y006123D01*
X023368Y006243D02*
X023368Y006243D01*
X023368Y006243D01*
X023417Y006282D02*
X012840Y006282D01*
X012840Y006440D02*
X013416Y006440D01*
X013431Y006432D02*
X013497Y006411D01*
X013565Y006400D01*
X013600Y006400D01*
X013635Y006400D01*
X013703Y006411D01*
X013769Y006432D01*
X013831Y006464D01*
X013887Y006504D01*
X013936Y006553D01*
X013976Y006609D01*
X014008Y006671D01*
X014029Y006737D01*
X014040Y006805D01*
X014040Y007100D01*
X014040Y007395D01*
X014029Y007463D01*
X014008Y007529D01*
X013976Y007591D01*
X013936Y007647D01*
X013887Y007696D01*
X013831Y007736D01*
X013769Y007768D01*
X013703Y007789D01*
X013635Y007800D01*
X013600Y007800D01*
X013600Y007100D01*
X014040Y007100D01*
X013600Y007100D01*
X013600Y007100D01*
X013600Y007100D01*
X013600Y006400D01*
X013600Y007100D01*
X013600Y007100D01*
X013600Y007100D01*
X013160Y007100D01*
X013160Y007395D01*
X013171Y007463D01*
X013192Y007529D01*
X013224Y007591D01*
X013264Y007647D01*
X013313Y007696D01*
X013369Y007736D01*
X013431Y007768D01*
X013497Y007789D01*
X013565Y007800D01*
X013600Y007800D01*
X013600Y007100D01*
X013160Y007100D01*
X013160Y006805D01*
X013171Y006737D01*
X013192Y006671D01*
X013224Y006609D01*
X013264Y006553D01*
X013313Y006504D01*
X013369Y006464D01*
X013431Y006432D01*
X013600Y006440D02*
X013600Y006440D01*
X013600Y006599D02*
X013600Y006599D01*
X013600Y006757D02*
X013600Y006757D01*
X013600Y006916D02*
X013600Y006916D01*
X013600Y007074D02*
X013600Y007074D01*
X013600Y007233D02*
X013600Y007233D01*
X013160Y007233D02*
X013020Y007233D01*
X013020Y007074D02*
X013160Y007074D01*
X013160Y006916D02*
X013020Y006916D01*
X013020Y006757D02*
X013168Y006757D01*
X013232Y006599D02*
X012952Y006599D01*
X013784Y006440D02*
X014416Y006440D01*
X014431Y006432D02*
X014497Y006411D01*
X014565Y006400D01*
X014600Y006400D01*
X014635Y006400D01*
X014703Y006411D01*
X014769Y006432D01*
X014831Y006464D01*
X014887Y006504D01*
X014936Y006553D01*
X014976Y006609D01*
X015008Y006671D01*
X015029Y006737D01*
X015040Y006805D01*
X015040Y007100D01*
X015040Y007395D01*
X015029Y007463D01*
X015008Y007529D01*
X014976Y007591D01*
X014936Y007647D01*
X014887Y007696D01*
X014831Y007736D01*
X014769Y007768D01*
X014703Y007789D01*
X014635Y007800D01*
X014600Y007800D01*
X014600Y007100D01*
X015040Y007100D01*
X014600Y007100D01*
X014600Y007100D01*
X014600Y007100D01*
X014600Y006400D01*
X014600Y007100D01*
X014600Y007100D01*
X014600Y007100D01*
X014160Y007100D01*
X014160Y007395D01*
X014171Y007463D01*
X014192Y007529D01*
X014224Y007591D01*
X014264Y007647D01*
X014313Y007696D01*
X014369Y007736D01*
X014431Y007768D01*
X014497Y007789D01*
X014565Y007800D01*
X014600Y007800D01*
X014600Y007100D01*
X014160Y007100D01*
X014160Y006805D01*
X014171Y006737D01*
X014192Y006671D01*
X014224Y006609D01*
X014264Y006553D01*
X014313Y006504D01*
X014369Y006464D01*
X014431Y006432D01*
X014600Y006440D02*
X014600Y006440D01*
X014600Y006599D02*
X014600Y006599D01*
X014600Y006757D02*
X014600Y006757D01*
X014600Y006916D02*
X014600Y006916D01*
X014600Y007074D02*
X014600Y007074D01*
X014600Y007233D02*
X014600Y007233D01*
X014160Y007233D02*
X014040Y007233D01*
X014040Y007074D02*
X014160Y007074D01*
X014160Y006916D02*
X014040Y006916D01*
X014032Y006757D02*
X014168Y006757D01*
X014232Y006599D02*
X013968Y006599D01*
X014784Y006440D02*
X015416Y006440D01*
X015431Y006432D02*
X015497Y006411D01*
X015565Y006400D01*
X015600Y006400D01*
X015635Y006400D01*
X015703Y006411D01*
X015769Y006432D01*
X015831Y006464D01*
X015887Y006504D01*
X015936Y006553D01*
X015976Y006609D01*
X016008Y006671D01*
X016029Y006737D01*
X016040Y006805D01*
X016040Y007100D01*
X016040Y007395D01*
X016029Y007463D01*
X016008Y007529D01*
X015976Y007591D01*
X015936Y007647D01*
X015887Y007696D01*
X015831Y007736D01*
X015769Y007768D01*
X015703Y007789D01*
X015635Y007800D01*
X015600Y007800D01*
X015600Y007100D01*
X016040Y007100D01*
X015600Y007100D01*
X015600Y007100D01*
X015600Y007100D01*
X015600Y006400D01*
X015600Y007100D01*
X015600Y007100D01*
X015600Y007100D01*
X015160Y007100D01*
X015160Y007395D01*
X015171Y007463D01*
X015192Y007529D01*
X015224Y007591D01*
X015264Y007647D01*
X015313Y007696D01*
X015369Y007736D01*
X015431Y007768D01*
X015497Y007789D01*
X015565Y007800D01*
X015600Y007800D01*
X015600Y007100D01*
X015160Y007100D01*
X015160Y006805D01*
X015171Y006737D01*
X015192Y006671D01*
X015224Y006609D01*
X015264Y006553D01*
X015313Y006504D01*
X015369Y006464D01*
X015431Y006432D01*
X015600Y006440D02*
X015600Y006440D01*
X015600Y006599D02*
X015600Y006599D01*
X015600Y006757D02*
X015600Y006757D01*
X015600Y006916D02*
X015600Y006916D01*
X015600Y007074D02*
X015600Y007074D01*
X015600Y007233D02*
X015600Y007233D01*
X015600Y007391D02*
X015600Y007391D01*
X015600Y007550D02*
X015600Y007550D01*
X015600Y007708D02*
X015600Y007708D01*
X015330Y007708D02*
X014870Y007708D01*
X014997Y007550D02*
X015203Y007550D01*
X015160Y007391D02*
X015040Y007391D01*
X015040Y007233D02*
X015160Y007233D01*
X015160Y007074D02*
X015040Y007074D01*
X015040Y006916D02*
X015160Y006916D01*
X015168Y006757D02*
X015032Y006757D01*
X014968Y006599D02*
X015232Y006599D01*
X015784Y006440D02*
X016416Y006440D01*
X016431Y006432D02*
X016497Y006411D01*
X016565Y006400D01*
X016600Y006400D01*
X016635Y006400D01*
X016703Y006411D01*
X016769Y006432D01*
X016831Y006464D01*
X016887Y006504D01*
X016936Y006553D01*
X016976Y006609D01*
X017008Y006671D01*
X017029Y006737D01*
X017040Y006805D01*
X017040Y007100D01*
X017040Y007395D01*
X017029Y007463D01*
X017008Y007529D01*
X016976Y007591D01*
X016936Y007647D01*
X016887Y007696D01*
X016831Y007736D01*
X016769Y007768D01*
X016703Y007789D01*
X016635Y007800D01*
X016600Y007800D01*
X016600Y007100D01*
X017040Y007100D01*
X016600Y007100D01*
X016600Y007100D01*
X016600Y007100D01*
X016600Y006400D01*
X016600Y007100D01*
X016600Y007100D01*
X016600Y007100D01*
X016160Y007100D01*
X016160Y007395D01*
X016171Y007463D01*
X016192Y007529D01*
X016224Y007591D01*
X016264Y007647D01*
X016313Y007696D01*
X016369Y007736D01*
X016431Y007768D01*
X016497Y007789D01*
X016565Y007800D01*
X016600Y007800D01*
X016600Y007100D01*
X016160Y007100D01*
X016160Y006805D01*
X016171Y006737D01*
X016192Y006671D01*
X016224Y006609D01*
X016264Y006553D01*
X016313Y006504D01*
X016369Y006464D01*
X016431Y006432D01*
X016600Y006440D02*
X016600Y006440D01*
X016600Y006599D02*
X016600Y006599D01*
X016600Y006757D02*
X016600Y006757D01*
X016600Y006916D02*
X016600Y006916D01*
X016600Y007074D02*
X016600Y007074D01*
X016600Y007233D02*
X016600Y007233D01*
X017040Y007233D02*
X017160Y007233D01*
X017160Y007100D02*
X017600Y007100D01*
X018040Y007100D01*
X018040Y007395D01*
X018029Y007463D01*
X018008Y007529D01*
X017976Y007591D01*
X017936Y007647D01*
X017887Y007696D01*
X017831Y007736D01*
X017769Y007768D01*
X017703Y007789D01*
X017635Y007800D01*
X017600Y007800D01*
X017600Y007100D01*
X017600Y007100D01*
X017600Y007100D01*
X018040Y007100D01*
X018040Y006805D01*
X018029Y006737D01*
X018008Y006671D01*
X017976Y006609D01*
X017936Y006553D01*
X017887Y006504D01*
X017831Y006464D01*
X017769Y006432D01*
X017703Y006411D01*
X017635Y006400D01*
X017600Y006400D01*
X017600Y007100D01*
X017600Y007100D01*
X017600Y007100D01*
X017600Y007800D01*
X017565Y007800D01*
X017497Y007789D01*
X017431Y007768D01*
X017369Y007736D01*
X017313Y007696D01*
X017264Y007647D01*
X017224Y007591D01*
X017192Y007529D01*
X017171Y007463D01*
X017160Y007395D01*
X017160Y007100D01*
X017160Y006805D01*
X017171Y006737D01*
X017192Y006671D01*
X017224Y006609D01*
X017264Y006553D01*
X017313Y006504D01*
X017369Y006464D01*
X017431Y006432D01*
X017497Y006411D01*
X017565Y006400D01*
X017600Y006400D01*
X017600Y007100D01*
X017160Y007100D01*
X017160Y007074D02*
X017040Y007074D01*
X017040Y006916D02*
X017160Y006916D01*
X017168Y006757D02*
X017032Y006757D01*
X016968Y006599D02*
X017232Y006599D01*
X017416Y006440D02*
X016784Y006440D01*
X016232Y006599D02*
X015968Y006599D01*
X016032Y006757D02*
X016168Y006757D01*
X016160Y006916D02*
X016040Y006916D01*
X016040Y007074D02*
X016160Y007074D01*
X016160Y007233D02*
X016040Y007233D01*
X016040Y007391D02*
X016160Y007391D01*
X016203Y007550D02*
X015997Y007550D01*
X015870Y007708D02*
X016330Y007708D01*
X016600Y007708D02*
X016600Y007708D01*
X016600Y007550D02*
X016600Y007550D01*
X016600Y007391D02*
X016600Y007391D01*
X016997Y007550D02*
X017203Y007550D01*
X017160Y007391D02*
X017040Y007391D01*
X016870Y007708D02*
X017330Y007708D01*
X017600Y007708D02*
X017600Y007708D01*
X017600Y007550D02*
X017600Y007550D01*
X017600Y007391D02*
X017600Y007391D01*
X017600Y007233D02*
X017600Y007233D01*
X017600Y007074D02*
X017600Y007074D01*
X017600Y006916D02*
X017600Y006916D01*
X017600Y006757D02*
X017600Y006757D01*
X017600Y006599D02*
X017600Y006599D01*
X017600Y006440D02*
X017600Y006440D01*
X017784Y006440D02*
X018416Y006440D01*
X018431Y006432D02*
X018369Y006464D01*
X018313Y006504D01*
X018264Y006553D01*
X018224Y006609D01*
X018192Y006671D01*
X018171Y006737D01*
X018160Y006805D01*
X018160Y007100D01*
X018600Y007100D01*
X019040Y007100D01*
X019040Y007395D01*
X019029Y007463D01*
X019008Y007529D01*
X018976Y007591D01*
X018936Y007647D01*
X018887Y007696D01*
X018831Y007736D01*
X018769Y007768D01*
X018703Y007789D01*
X018635Y007800D01*
X018600Y007800D01*
X018600Y007100D01*
X018600Y007100D01*
X018600Y007100D01*
X019040Y007100D01*
X019040Y006805D01*
X019029Y006737D01*
X019008Y006671D01*
X018976Y006609D01*
X018936Y006553D01*
X018887Y006504D01*
X018831Y006464D01*
X018769Y006432D01*
X018703Y006411D01*
X018635Y006400D01*
X018600Y006400D01*
X018600Y007100D01*
X018600Y007100D01*
X018600Y007100D01*
X018600Y007800D01*
X018565Y007800D01*
X018497Y007789D01*
X018431Y007768D01*
X018369Y007736D01*
X018313Y007696D01*
X018264Y007647D01*
X018224Y007591D01*
X018192Y007529D01*
X018171Y007463D01*
X018160Y007395D01*
X018160Y007100D01*
X018600Y007100D01*
X018600Y006400D01*
X018565Y006400D01*
X018497Y006411D01*
X018431Y006432D01*
X018600Y006440D02*
X018600Y006440D01*
X018600Y006599D02*
X018600Y006599D01*
X018600Y006757D02*
X018600Y006757D01*
X018600Y006916D02*
X018600Y006916D01*
X018600Y007074D02*
X018600Y007074D01*
X018600Y007233D02*
X018600Y007233D01*
X018160Y007233D02*
X018040Y007233D01*
X018040Y007074D02*
X018160Y007074D01*
X018160Y006916D02*
X018040Y006916D01*
X018032Y006757D02*
X018168Y006757D01*
X018232Y006599D02*
X017968Y006599D01*
X018784Y006440D02*
X023616Y006440D01*
X023760Y006555D02*
X023760Y006555D01*
X023871Y006599D02*
X018968Y006599D01*
X019032Y006757D02*
X024481Y006757D01*
X024226Y006738D02*
X024226Y006738D01*
X024806Y006757D02*
X026100Y006757D01*
X026100Y006599D02*
X025327Y006599D01*
X025214Y006664D02*
X025214Y006664D01*
X025602Y006440D02*
X026100Y006440D01*
X026100Y006282D02*
X025770Y006282D01*
X025917Y006123D02*
X026100Y006123D01*
X025988Y006046D02*
X025988Y006046D01*
X026028Y005965D02*
X026100Y005965D01*
X026100Y006916D02*
X019040Y006916D01*
X019040Y007074D02*
X026100Y007074D01*
X026100Y007233D02*
X019040Y007233D01*
X019040Y007391D02*
X026100Y007391D01*
X026100Y007550D02*
X018997Y007550D01*
X018870Y007708D02*
X026100Y007708D01*
X026100Y007867D02*
X007206Y007867D01*
X007364Y008025D02*
X026100Y008025D01*
X026100Y008184D02*
X007523Y008184D01*
X007681Y008342D02*
X026100Y008342D01*
X026100Y008501D02*
X007840Y008501D01*
X007998Y008659D02*
X026100Y008659D01*
X026100Y008818D02*
X008157Y008818D01*
X009303Y008964D02*
X009303Y008964D01*
X009315Y008976D02*
X026100Y008976D01*
X026100Y009135D02*
X009474Y009135D01*
X009632Y009293D02*
X026100Y009293D01*
X026100Y009452D02*
X009791Y009452D01*
X009840Y009610D02*
X026100Y009610D01*
X026100Y009769D02*
X009840Y009769D01*
X009840Y009927D02*
X026100Y009927D01*
X026100Y010086D02*
X009840Y010086D01*
X009840Y010244D02*
X026100Y010244D01*
X026100Y010403D02*
X018651Y010403D01*
X018635Y010400D02*
X018703Y010411D01*
X018769Y010432D01*
X018831Y010464D01*
X018887Y010504D01*
X018936Y010553D01*
X018976Y010609D01*
X019008Y010671D01*
X019029Y010737D01*
X019040Y010805D01*
X019040Y011100D01*
X019040Y011395D01*
X019029Y011463D01*
X019008Y011529D01*
X018976Y011591D01*
X018936Y011647D01*
X018887Y011696D01*
X018831Y011736D01*
X018769Y011768D01*
X018703Y011789D01*
X018635Y011800D01*
X018600Y011800D01*
X018600Y011100D01*
X019040Y011100D01*
X018600Y011100D01*
X018600Y011100D01*
X018600Y011100D01*
X018600Y010400D01*
X018635Y010400D01*
X018600Y010400D02*
X018600Y011100D01*
X018600Y011100D01*
X018600Y011100D01*
X018160Y011100D01*
X018160Y011395D01*
X018171Y011463D01*
X018192Y011529D01*
X018224Y011591D01*
X018264Y011647D01*
X018313Y011696D01*
X018369Y011736D01*
X018431Y011768D01*
X018497Y011789D01*
X018565Y011800D01*
X018600Y011800D01*
X018600Y011100D01*
X018160Y011100D01*
X018160Y010805D01*
X018171Y010737D01*
X018192Y010671D01*
X018224Y010609D01*
X018264Y010553D01*
X018313Y010504D01*
X018369Y010464D01*
X018431Y010432D01*
X018497Y010411D01*
X018565Y010400D01*
X018600Y010400D01*
X018600Y010403D02*
X018600Y010403D01*
X018549Y010403D02*
X017651Y010403D01*
X017635Y010400D02*
X017703Y010411D01*
X017769Y010432D01*
X017831Y010464D01*
X017887Y010504D01*
X017936Y010553D01*
X017976Y010609D01*
X018008Y010671D01*
X018029Y010737D01*
X018040Y010805D01*
X018040Y011100D01*
X018040Y011395D01*
X018029Y011463D01*
X018008Y011529D01*
X017976Y011591D01*
X017936Y011647D01*
X017887Y011696D01*
X017831Y011736D01*
X017769Y011768D01*
X017703Y011789D01*
X017635Y011800D01*
X017600Y011800D01*
X017600Y011100D01*
X018040Y011100D01*
X017600Y011100D01*
X017600Y011100D01*
X017600Y011100D01*
X017600Y010400D01*
X017635Y010400D01*
X017600Y010400D02*
X017600Y011100D01*
X017600Y011100D01*
X017600Y011100D01*
X017160Y011100D01*
X017160Y011395D01*
X017171Y011463D01*
X017192Y011529D01*
X017224Y011591D01*
X017264Y011647D01*
X017313Y011696D01*
X017369Y011736D01*
X017431Y011768D01*
X017497Y011789D01*
X017565Y011800D01*
X017600Y011800D01*
X017600Y011100D01*
X017160Y011100D01*
X017160Y010805D01*
X017171Y010737D01*
X017192Y010671D01*
X017224Y010609D01*
X017264Y010553D01*
X017313Y010504D01*
X017369Y010464D01*
X017431Y010432D01*
X017497Y010411D01*
X017565Y010400D01*
X017600Y010400D01*
X017600Y010403D02*
X017600Y010403D01*
X017549Y010403D02*
X016651Y010403D01*
X016635Y010400D02*
X016703Y010411D01*
X016769Y010432D01*
X016831Y010464D01*
X016887Y010504D01*
X016936Y010553D01*
X016976Y010609D01*
X017008Y010671D01*
X017029Y010737D01*
X017040Y010805D01*
X017040Y011100D01*
X017040Y011395D01*
X017029Y011463D01*
X017008Y011529D01*
X016976Y011591D01*
X016936Y011647D01*
X016887Y011696D01*
X016831Y011736D01*
X016769Y011768D01*
X016703Y011789D01*
X016635Y011800D01*
X016600Y011800D01*
X016600Y011100D01*
X017040Y011100D01*
X016600Y011100D01*
X016600Y011100D01*
X016600Y011100D01*
X016600Y010400D01*
X016635Y010400D01*
X016600Y010400D02*
X016600Y011100D01*
X016600Y011100D01*
X016600Y011100D01*
X016160Y011100D01*
X016160Y011395D01*
X016171Y011463D01*
X016192Y011529D01*
X016224Y011591D01*
X016264Y011647D01*
X016313Y011696D01*
X016369Y011736D01*
X016431Y011768D01*
X016497Y011789D01*
X016565Y011800D01*
X016600Y011800D01*
X016600Y011100D01*
X016160Y011100D01*
X016160Y010805D01*
X016171Y010737D01*
X016192Y010671D01*
X016224Y010609D01*
X016264Y010553D01*
X016313Y010504D01*
X016369Y010464D01*
X016431Y010432D01*
X016497Y010411D01*
X016565Y010400D01*
X016600Y010400D01*
X016600Y010403D02*
X016600Y010403D01*
X016549Y010403D02*
X015651Y010403D01*
X015635Y010400D02*
X015703Y010411D01*
X015769Y010432D01*
X015831Y010464D01*
X015887Y010504D01*
X015936Y010553D01*
X015976Y010609D01*
X016008Y010671D01*
X016029Y010737D01*
X016040Y010805D01*
X016040Y011100D01*
X016040Y011395D01*
X016029Y011463D01*
X016008Y011529D01*
X015976Y011591D01*
X015936Y011647D01*
X015887Y011696D01*
X015831Y011736D01*
X015769Y011768D01*
X015703Y011789D01*
X015635Y011800D01*
X015600Y011800D01*
X015600Y011100D01*
X016040Y011100D01*
X015600Y011100D01*
X015600Y011100D01*
X015600Y011100D01*
X015600Y010400D01*
X015635Y010400D01*
X015600Y010400D02*
X015600Y011100D01*
X015600Y011100D01*
X015600Y011100D01*
X015160Y011100D01*
X015160Y011395D01*
X015171Y011463D01*
X015192Y011529D01*
X015224Y011591D01*
X015264Y011647D01*
X015313Y011696D01*
X015369Y011736D01*
X015431Y011768D01*
X015497Y011789D01*
X015565Y011800D01*
X015600Y011800D01*
X015600Y011100D01*
X015160Y011100D01*
X015160Y010805D01*
X015171Y010737D01*
X015192Y010671D01*
X015224Y010609D01*
X015264Y010553D01*
X015313Y010504D01*
X015369Y010464D01*
X015431Y010432D01*
X015497Y010411D01*
X015565Y010400D01*
X015600Y010400D01*
X015600Y010403D02*
X015600Y010403D01*
X015549Y010403D02*
X014651Y010403D01*
X014635Y010400D02*
X014703Y010411D01*
X014769Y010432D01*
X014831Y010464D01*
X014887Y010504D01*
X014936Y010553D01*
X014976Y010609D01*
X015008Y010671D01*
X015029Y010737D01*
X015040Y010805D01*
X015040Y011100D01*
X015040Y011395D01*
X015029Y011463D01*
X015008Y011529D01*
X014976Y011591D01*
X014936Y011647D01*
X014887Y011696D01*
X014831Y011736D01*
X014769Y011768D01*
X014703Y011789D01*
X014635Y011800D01*
X014600Y011800D01*
X014600Y011100D01*
X015040Y011100D01*
X014600Y011100D01*
X014600Y011100D01*
X014600Y011100D01*
X014600Y010400D01*
X014635Y010400D01*
X014600Y010400D02*
X014600Y011100D01*
X014600Y011100D01*
X014600Y011100D01*
X014160Y011100D01*
X014160Y011395D01*
X014171Y011463D01*
X014192Y011529D01*
X014224Y011591D01*
X014264Y011647D01*
X014313Y011696D01*
X014369Y011736D01*
X014431Y011768D01*
X014497Y011789D01*
X014565Y011800D01*
X014600Y011800D01*
X014600Y011100D01*
X014160Y011100D01*
X014160Y010805D01*
X014171Y010737D01*
X014192Y010671D01*
X014224Y010609D01*
X014264Y010553D01*
X014313Y010504D01*
X014369Y010464D01*
X014431Y010432D01*
X014497Y010411D01*
X014565Y010400D01*
X014600Y010400D01*
X014600Y010403D02*
X014600Y010403D01*
X014549Y010403D02*
X013651Y010403D01*
X013635Y010400D02*
X013703Y010411D01*
X013769Y010432D01*
X013831Y010464D01*
X013887Y010504D01*
X013936Y010553D01*
X013976Y010609D01*
X014008Y010671D01*
X014029Y010737D01*
X014040Y010805D01*
X014040Y011100D01*
X014040Y011395D01*
X014029Y011463D01*
X014008Y011529D01*
X013976Y011591D01*
X013936Y011647D01*
X013887Y011696D01*
X013831Y011736D01*
X013769Y011768D01*
X013703Y011789D01*
X013635Y011800D01*
X013600Y011800D01*
X013600Y011100D01*
X014040Y011100D01*
X013600Y011100D01*
X013600Y011100D01*
X013600Y011100D01*
X013600Y010400D01*
X013635Y010400D01*
X013600Y010400D02*
X013600Y011100D01*
X013600Y011100D01*
X013600Y011100D01*
X013160Y011100D01*
X013160Y011395D01*
X013171Y011463D01*
X013192Y011529D01*
X013224Y011591D01*
X013264Y011647D01*
X013313Y011696D01*
X013369Y011736D01*
X013431Y011768D01*
X013497Y011789D01*
X013565Y011800D01*
X013600Y011800D01*
X013600Y011100D01*
X013160Y011100D01*
X013160Y010805D01*
X013171Y010737D01*
X013192Y010671D01*
X013224Y010609D01*
X013264Y010553D01*
X013313Y010504D01*
X013369Y010464D01*
X013431Y010432D01*
X013497Y010411D01*
X013565Y010400D01*
X013600Y010400D01*
X013600Y010403D02*
X013600Y010403D01*
X013549Y010403D02*
X012651Y010403D01*
X012635Y010400D02*
X012703Y010411D01*
X012769Y010432D01*
X012831Y010464D01*
X012887Y010504D01*
X012936Y010553D01*
X012976Y010609D01*
X013008Y010671D01*
X013029Y010737D01*
X013040Y010805D01*
X013040Y011100D01*
X013040Y011395D01*
X013029Y011463D01*
X013008Y011529D01*
X012976Y011591D01*
X012936Y011647D01*
X012887Y011696D01*
X012831Y011736D01*
X012769Y011768D01*
X012703Y011789D01*
X012635Y011800D01*
X012600Y011800D01*
X012600Y011100D01*
X013040Y011100D01*
X012600Y011100D01*
X012600Y011100D01*
X012600Y011100D01*
X012600Y010400D01*
X012635Y010400D01*
X012600Y010400D02*
X012600Y011100D01*
X012600Y011100D01*
X012600Y011100D01*
X012160Y011100D01*
X012160Y011395D01*
X012171Y011463D01*
X012192Y011529D01*
X012224Y011591D01*
X012264Y011647D01*
X012313Y011696D01*
X012369Y011736D01*
X012431Y011768D01*
X012497Y011789D01*
X012565Y011800D01*
X012600Y011800D01*
X012600Y011100D01*
X012160Y011100D01*
X012160Y010805D01*
X012171Y010737D01*
X012192Y010671D01*
X012224Y010609D01*
X012264Y010553D01*
X012313Y010504D01*
X012369Y010464D01*
X012431Y010432D01*
X012497Y010411D01*
X012565Y010400D01*
X012600Y010400D01*
X012600Y010403D02*
X012600Y010403D01*
X012549Y010403D02*
X011651Y010403D01*
X011635Y010400D02*
X011703Y010411D01*
X011769Y010432D01*
X011831Y010464D01*
X011887Y010504D01*
X011936Y010553D01*
X011976Y010609D01*
X012008Y010671D01*
X012029Y010737D01*
X012040Y010805D01*
X012040Y011100D01*
X012040Y011395D01*
X012029Y011463D01*
X012008Y011529D01*
X011976Y011591D01*
X011936Y011647D01*
X011887Y011696D01*
X011831Y011736D01*
X011769Y011768D01*
X011703Y011789D01*
X011635Y011800D01*
X011600Y011800D01*
X011600Y011100D01*
X012040Y011100D01*
X011600Y011100D01*
X011600Y011100D01*
X011600Y011100D01*
X011600Y010400D01*
X011635Y010400D01*
X011600Y010400D02*
X011600Y011100D01*
X011600Y011100D01*
X011600Y011100D01*
X011160Y011100D01*
X011160Y011395D01*
X011171Y011463D01*
X011192Y011529D01*
X011224Y011591D01*
X011264Y011647D01*
X011313Y011696D01*
X011369Y011736D01*
X011431Y011768D01*
X011497Y011789D01*
X011565Y011800D01*
X011600Y011800D01*
X011600Y011100D01*
X011160Y011100D01*
X011160Y010805D01*
X011171Y010737D01*
X011192Y010671D01*
X011224Y010609D01*
X011264Y010553D01*
X011313Y010504D01*
X011369Y010464D01*
X011431Y010432D01*
X011497Y010411D01*
X011565Y010400D01*
X011600Y010400D01*
X011600Y010403D02*
X011600Y010403D01*
X011549Y010403D02*
X010651Y010403D01*
X010635Y010400D02*
X010703Y010411D01*
X010769Y010432D01*
X010831Y010464D01*
X010887Y010504D01*
X010936Y010553D01*
X010976Y010609D01*
X011008Y010671D01*
X011029Y010737D01*
X011040Y010805D01*
X011040Y011100D01*
X011040Y011395D01*
X011029Y011463D01*
X011008Y011529D01*
X010976Y011591D01*
X010936Y011647D01*
X010887Y011696D01*
X010831Y011736D01*
X010769Y011768D01*
X010703Y011789D01*
X010635Y011800D01*
X010600Y011800D01*
X010600Y011100D01*
X011040Y011100D01*
X010600Y011100D01*
X010600Y011100D01*
X010600Y011100D01*
X010600Y010400D01*
X010635Y010400D01*
X010600Y010400D02*
X010600Y011100D01*
X010600Y011100D01*
X010600Y011100D01*
X010160Y011100D01*
X010160Y011395D01*
X010171Y011463D01*
X010192Y011529D01*
X010224Y011591D01*
X010264Y011647D01*
X010313Y011696D01*
X010369Y011736D01*
X010431Y011768D01*
X010497Y011789D01*
X010565Y011800D01*
X010600Y011800D01*
X010600Y011100D01*
X010160Y011100D01*
X010160Y010805D01*
X010171Y010737D01*
X010192Y010671D01*
X010224Y010609D01*
X010264Y010553D01*
X010313Y010504D01*
X010369Y010464D01*
X010431Y010432D01*
X010497Y010411D01*
X010565Y010400D01*
X010600Y010400D01*
X010600Y010403D02*
X010600Y010403D01*
X010549Y010403D02*
X009840Y010403D01*
X009915Y010561D02*
X010259Y010561D01*
X010177Y010720D02*
X010005Y010720D01*
X010020Y010878D02*
X010160Y010878D01*
X010160Y011037D02*
X010020Y011037D01*
X010020Y011195D02*
X010160Y011195D01*
X010160Y011354D02*
X010020Y011354D01*
X009992Y011512D02*
X010187Y011512D01*
X010288Y011671D02*
X009883Y011671D01*
X010600Y011671D02*
X010600Y011671D01*
X010600Y011512D02*
X010600Y011512D01*
X010600Y011354D02*
X010600Y011354D01*
X010600Y011195D02*
X010600Y011195D01*
X010600Y011037D02*
X010600Y011037D01*
X010600Y010878D02*
X010600Y010878D01*
X010600Y010720D02*
X010600Y010720D01*
X010600Y010561D02*
X010600Y010561D01*
X010941Y010561D02*
X011259Y010561D01*
X011177Y010720D02*
X011023Y010720D01*
X011040Y010878D02*
X011160Y010878D01*
X011160Y011037D02*
X011040Y011037D01*
X011040Y011195D02*
X011160Y011195D01*
X011160Y011354D02*
X011040Y011354D01*
X011013Y011512D02*
X011187Y011512D01*
X011288Y011671D02*
X010912Y011671D01*
X011600Y011671D02*
X011600Y011671D01*
X011600Y011512D02*
X011600Y011512D01*
X011600Y011354D02*
X011600Y011354D01*
X011600Y011195D02*
X011600Y011195D01*
X011600Y011037D02*
X011600Y011037D01*
X011600Y010878D02*
X011600Y010878D01*
X011600Y010720D02*
X011600Y010720D01*
X011600Y010561D02*
X011600Y010561D01*
X011941Y010561D02*
X012259Y010561D01*
X012177Y010720D02*
X012023Y010720D01*
X012040Y010878D02*
X012160Y010878D01*
X012160Y011037D02*
X012040Y011037D01*
X012040Y011195D02*
X012160Y011195D01*
X012160Y011354D02*
X012040Y011354D01*
X012013Y011512D02*
X012187Y011512D01*
X012288Y011671D02*
X011912Y011671D01*
X012600Y011671D02*
X012600Y011671D01*
X012600Y011512D02*
X012600Y011512D01*
X012600Y011354D02*
X012600Y011354D01*
X012600Y011195D02*
X012600Y011195D01*
X012600Y011037D02*
X012600Y011037D01*
X012600Y010878D02*
X012600Y010878D01*
X012600Y010720D02*
X012600Y010720D01*
X012600Y010561D02*
X012600Y010561D01*
X012941Y010561D02*
X013259Y010561D01*
X013177Y010720D02*
X013023Y010720D01*
X013040Y010878D02*
X013160Y010878D01*
X013160Y011037D02*
X013040Y011037D01*
X013040Y011195D02*
X013160Y011195D01*
X013160Y011354D02*
X013040Y011354D01*
X013013Y011512D02*
X013187Y011512D01*
X013288Y011671D02*
X012912Y011671D01*
X013600Y011671D02*
X013600Y011671D01*
X013600Y011512D02*
X013600Y011512D01*
X013600Y011354D02*
X013600Y011354D01*
X013600Y011195D02*
X013600Y011195D01*
X013600Y011037D02*
X013600Y011037D01*
X013600Y010878D02*
X013600Y010878D01*
X013600Y010720D02*
X013600Y010720D01*
X013600Y010561D02*
X013600Y010561D01*
X013941Y010561D02*
X014259Y010561D01*
X014177Y010720D02*
X014023Y010720D01*
X014040Y010878D02*
X014160Y010878D01*
X014160Y011037D02*
X014040Y011037D01*
X014040Y011195D02*
X014160Y011195D01*
X014160Y011354D02*
X014040Y011354D01*
X014013Y011512D02*
X014187Y011512D01*
X014288Y011671D02*
X013912Y011671D01*
X014600Y011671D02*
X014600Y011671D01*
X014600Y011512D02*
X014600Y011512D01*
X014600Y011354D02*
X014600Y011354D01*
X014600Y011195D02*
X014600Y011195D01*
X014600Y011037D02*
X014600Y011037D01*
X014600Y010878D02*
X014600Y010878D01*
X014600Y010720D02*
X014600Y010720D01*
X014600Y010561D02*
X014600Y010561D01*
X014941Y010561D02*
X015259Y010561D01*
X015177Y010720D02*
X015023Y010720D01*
X015040Y010878D02*
X015160Y010878D01*
X015160Y011037D02*
X015040Y011037D01*
X015040Y011195D02*
X015160Y011195D01*
X015160Y011354D02*
X015040Y011354D01*
X015013Y011512D02*
X015187Y011512D01*
X015288Y011671D02*
X014912Y011671D01*
X015600Y011671D02*
X015600Y011671D01*
X015600Y011512D02*
X015600Y011512D01*
X015600Y011354D02*
X015600Y011354D01*
X015600Y011195D02*
X015600Y011195D01*
X015600Y011037D02*
X015600Y011037D01*
X015600Y010878D02*
X015600Y010878D01*
X015600Y010720D02*
X015600Y010720D01*
X015600Y010561D02*
X015600Y010561D01*
X015941Y010561D02*
X016259Y010561D01*
X016177Y010720D02*
X016023Y010720D01*
X016040Y010878D02*
X016160Y010878D01*
X016160Y011037D02*
X016040Y011037D01*
X016040Y011195D02*
X016160Y011195D01*
X016160Y011354D02*
X016040Y011354D01*
X016013Y011512D02*
X016187Y011512D01*
X016288Y011671D02*
X015912Y011671D01*
X016600Y011671D02*
X016600Y011671D01*
X016600Y011512D02*
X016600Y011512D01*
X016600Y011354D02*
X016600Y011354D01*
X016600Y011195D02*
X016600Y011195D01*
X016600Y011037D02*
X016600Y011037D01*
X016600Y010878D02*
X016600Y010878D01*
X016600Y010720D02*
X016600Y010720D01*
X016600Y010561D02*
X016600Y010561D01*
X016941Y010561D02*
X017259Y010561D01*
X017177Y010720D02*
X017023Y010720D01*
X017040Y010878D02*
X017160Y010878D01*
X017160Y011037D02*
X017040Y011037D01*
X017040Y011195D02*
X017160Y011195D01*
X017160Y011354D02*
X017040Y011354D01*
X017013Y011512D02*
X017187Y011512D01*
X017288Y011671D02*
X016912Y011671D01*
X017600Y011671D02*
X017600Y011671D01*
X017600Y011512D02*
X017600Y011512D01*
X017600Y011354D02*
X017600Y011354D01*
X017600Y011195D02*
X017600Y011195D01*
X017600Y011037D02*
X017600Y011037D01*
X017600Y010878D02*
X017600Y010878D01*
X017600Y010720D02*
X017600Y010720D01*
X017600Y010561D02*
X017600Y010561D01*
X017941Y010561D02*
X018259Y010561D01*
X018177Y010720D02*
X018023Y010720D01*
X018040Y010878D02*
X018160Y010878D01*
X018160Y011037D02*
X018040Y011037D01*
X018040Y011195D02*
X018160Y011195D01*
X018160Y011354D02*
X018040Y011354D01*
X018013Y011512D02*
X018187Y011512D01*
X018288Y011671D02*
X017912Y011671D01*
X018600Y011671D02*
X018600Y011671D01*
X018600Y011512D02*
X018600Y011512D01*
X018600Y011354D02*
X018600Y011354D01*
X018600Y011195D02*
X018600Y011195D01*
X018600Y011037D02*
X018600Y011037D01*
X018600Y010878D02*
X018600Y010878D01*
X018600Y010720D02*
X018600Y010720D01*
X018600Y010561D02*
X018600Y010561D01*
X018941Y010561D02*
X026100Y010561D01*
X026100Y010720D02*
X019023Y010720D01*
X019040Y010878D02*
X026100Y010878D01*
X026100Y011037D02*
X019040Y011037D01*
X019040Y011195D02*
X026100Y011195D01*
X026100Y011354D02*
X019040Y011354D01*
X019013Y011512D02*
X024099Y011512D01*
X023760Y011645D02*
X023760Y011645D01*
X023728Y011671D02*
X018912Y011671D01*
X022939Y012939D02*
X003756Y012939D01*
X003780Y013097D02*
X022939Y013097D01*
X022939Y013256D02*
X003757Y013256D01*
X003733Y013414D02*
X022958Y013414D01*
X023007Y013573D02*
X003709Y013573D01*
X003640Y013731D02*
X023056Y013731D01*
X023086Y013829D02*
X023086Y013829D01*
X023128Y013890D02*
X003564Y013890D01*
X003487Y014048D02*
X023236Y014048D01*
X023344Y014207D02*
X003339Y014207D01*
X003192Y014365D02*
X023522Y014365D01*
X023368Y014243D02*
X023368Y014243D01*
X023368Y014243D01*
X022960Y012780D02*
X003732Y012780D01*
X003708Y012622D02*
X023009Y012622D01*
X023058Y012463D02*
X003637Y012463D01*
X003705Y012605D02*
X003705Y012605D01*
X003561Y012305D02*
X023132Y012305D01*
X023086Y012371D02*
X023086Y012371D01*
X023240Y012146D02*
X003481Y012146D01*
X003488Y012154D02*
X003488Y012154D01*
X003334Y011988D02*
X023348Y011988D01*
X023529Y011829D02*
X003187Y011829D01*
X003147Y011787D02*
X003147Y011787D01*
X003147Y011787D01*
X002226Y011425D02*
X002226Y011425D01*
X001599Y011512D02*
X000600Y011512D01*
X000600Y011671D02*
X001228Y011671D01*
X001260Y011645D02*
X001260Y011645D01*
X001029Y011829D02*
X000600Y011829D01*
X000600Y011988D02*
X000848Y011988D01*
X000740Y012146D02*
X000600Y012146D01*
X000600Y012305D02*
X000632Y012305D01*
X003147Y014413D02*
X003147Y014413D01*
X007047Y007708D02*
X008354Y007708D01*
X008224Y007550D02*
X006889Y007550D01*
X006840Y007391D02*
X008180Y007391D01*
X008180Y007233D02*
X006840Y007233D01*
X006840Y007074D02*
X008180Y007074D01*
X008180Y006916D02*
X006840Y006916D01*
X006840Y006757D02*
X008180Y006757D01*
X008248Y006599D02*
X006840Y006599D01*
X008952Y006599D02*
X009248Y006599D01*
X009180Y006757D02*
X009020Y006757D01*
X009020Y006916D02*
X009180Y006916D01*
X009180Y007074D02*
X009020Y007074D01*
X009020Y007233D02*
X009180Y007233D01*
X009180Y007391D02*
X009020Y007391D01*
X008976Y007550D02*
X009224Y007550D01*
X009354Y007708D02*
X008846Y007708D01*
X012846Y007708D02*
X013330Y007708D01*
X013203Y007550D02*
X012976Y007550D01*
X013020Y007391D02*
X013160Y007391D01*
X013600Y007391D02*
X013600Y007391D01*
X013600Y007550D02*
X013600Y007550D01*
X013600Y007708D02*
X013600Y007708D01*
X013870Y007708D02*
X014330Y007708D01*
X014203Y007550D02*
X013997Y007550D01*
X014040Y007391D02*
X014160Y007391D01*
X014600Y007391D02*
X014600Y007391D01*
X014600Y007550D02*
X014600Y007550D01*
X014600Y007708D02*
X014600Y007708D01*
X017870Y007708D02*
X018330Y007708D01*
X018203Y007550D02*
X017997Y007550D01*
X018040Y007391D02*
X018160Y007391D01*
X018600Y007391D02*
X018600Y007391D01*
X018600Y007550D02*
X018600Y007550D01*
X018600Y007708D02*
X018600Y007708D01*
X024726Y011425D02*
X024726Y011425D01*
X025108Y011512D02*
X026100Y011512D01*
X026100Y011671D02*
X025447Y011671D01*
X025647Y011787D02*
X025647Y011787D01*
X025647Y011787D01*
X025687Y011829D02*
X026100Y011829D01*
X026100Y011988D02*
X025834Y011988D01*
X025981Y012146D02*
X026100Y012146D01*
X025988Y012154D02*
X025988Y012154D01*
X026061Y012305D02*
X026100Y012305D01*
X025214Y011536D02*
X025214Y011536D01*
X012029Y001368D02*
X007671Y001368D01*
X001408Y003587D02*
X000600Y003587D01*
X000600Y003746D02*
X001134Y003746D01*
X001260Y003645D02*
X001260Y003645D01*
X000935Y003904D02*
X000600Y003904D01*
X000600Y004063D02*
X000797Y004063D01*
X000689Y004221D02*
X000600Y004221D01*
M02*
