%
M48
M72
T01C0.0236
T02C0.0276
T03C0.0394
T04C0.0400
T05C0.0472
%
T01
X12100Y6100
X33100Y20600
X13100Y25600
T02
X15600Y25100
X14100Y30600
X29600Y20100
X30600Y19600
X31600Y19100
X32100Y17100
X34600Y17600
X28100Y18600
X27100Y18600
X17600Y8100
X19600Y5600
X38100Y1600
X53883Y2706
X53883Y3494
X56817Y6313
X56817Y7100
X56817Y7887
T03
X3100Y3100
X4100Y3100
X14100Y3100
X15100Y3100
X16100Y3100
X17100Y3100
X18100Y3100
X19100Y3100
X20100Y3100
X21100Y3100
X22100Y3100
X23100Y3100
X24100Y3100
X25100Y3100
X26100Y3100
X27100Y3100
X28100Y3100
X29100Y3100
X30100Y3100
X31100Y3100
X32100Y3100
X32100Y4100
X31100Y4100
X30100Y4100
X29100Y4100
X28100Y4100
X27100Y4100
X26100Y4100
X25100Y4100
X24100Y4100
X23100Y4100
X22100Y4100
X21100Y4100
X20100Y4100
X19100Y4100
X18100Y4100
X17100Y4100
X16100Y4100
X15100Y4100
X14100Y4100
X14100Y27100
X14100Y28100
X15100Y28100
X16100Y28100
X16100Y27100
X15100Y27100
X17100Y27100
X17100Y28100
X18100Y28100
X19100Y28100
X19100Y27100
X18100Y27100
X20100Y27100
X20100Y28100
X21100Y28100
X21100Y27100
X22100Y27100
X23100Y27100
X23100Y28100
X22100Y28100
X24100Y28100
X24100Y27100
X25100Y27100
X26100Y27100
X26100Y28100
X25100Y28100
X27100Y28100
X27100Y27100
X28100Y27100
X29100Y27100
X29100Y28100
X28100Y28100
X30100Y28100
X30100Y27100
X31100Y27100
X32100Y27100
X32100Y28100
X31100Y28100
X4100Y28100
X3100Y28100
T04
X36100Y28100
X36100Y27100
X36100Y26100
X36100Y25100
X36100Y24100
X42100Y24100
X42100Y23100
X42100Y22100
X42100Y21100
X42100Y25100
X42100Y26100
X42100Y27100
X42100Y28100
X42100Y29100
X42100Y30100
X42100Y31100
X42100Y32100
X42100Y33100
X36100Y30100
X36100Y29100
X56600Y29100
X56600Y28100
X56600Y27100
X56600Y26100
X56600Y25100
X56600Y24100
X56600Y23100
X56600Y22100
X56600Y21100
X56600Y18600
X56600Y17600
X56600Y16600
X56600Y15600
X56600Y14600
X56600Y13600
X56600Y12600
X56600Y11600
X56600Y10600
X50100Y14600
X49100Y14600
X48100Y14600
X47100Y14600
X46100Y14600
X45100Y14600
X42100Y13600
X42100Y12600
X42100Y11600
X42100Y10600
X42100Y9600
X42100Y8600
X42100Y7600
X42100Y6600
X42100Y5600
X42100Y4600
X42100Y3600
X42100Y2600
X36100Y2600
X36100Y3600
X36100Y4600
X36100Y5600
X36100Y6600
X36100Y7600
X36100Y8600
X36100Y9600
X36100Y10600
X36100Y11600
X36100Y12600
X36100Y13600
X36600Y14600
X37600Y14600
X38600Y14600
X39600Y14600
X40600Y14600
X41600Y14600
X56600Y30100
X56600Y31100
X56600Y32100
T05
X57100Y3478
X57100Y2100
M30
